<svg width="76" height="76" viewBox="0 0 76 76" fill="none" xmlns="http://www.w3.org/2000/svg">
<g clip-path="url(#clip0_641_9856)">
<path d="M74.5129 70.063H47.9447C47.1249 70.063 46.4604 70.7275 46.4604 71.5472C46.4604 72.3669 47.125 73.0314 47.9447 73.0314H74.5129C75.3327 73.0314 75.9971 72.3669 75.9971 71.5472C75.9971 70.7275 75.3326 70.063 74.5129 70.063Z" fill="#424242"/>
<path d="M27.9079 70.063H1.48813C0.668312 70.063 0.00390625 70.7275 0.00390625 71.5472C0.00390625 72.3669 0.668461 73.0314 1.48813 73.0314H27.9079C28.7278 73.0314 29.3922 72.3669 29.3922 71.5472C29.3922 70.7275 28.7276 70.063 27.9079 70.063Z" fill="#424242"/>
<path d="M38.5885 30.3638H27.0858C26.266 30.3638 25.6016 31.0283 25.6016 31.848C25.6016 32.6678 26.2661 33.3322 27.0858 33.3322H38.5885C39.4083 33.3322 40.0727 32.6677 40.0727 31.848C40.0727 31.0283 39.4082 30.3638 38.5885 30.3638Z" fill="#42A5F5"/>
<path d="M50.1395 30.7982C49.8634 30.5221 49.4804 30.3633 49.0902 30.3633C48.6983 30.3633 48.3153 30.5221 48.0409 30.7982C47.7633 31.0743 47.606 31.4573 47.606 31.8475C47.606 32.2379 47.7633 32.6209 48.0409 32.8968C48.317 33.1729 48.6985 33.3317 49.0902 33.3317C49.4806 33.3317 49.8635 33.1729 50.1395 32.8968C50.4154 32.6207 50.5744 32.2378 50.5744 31.8475C50.5744 31.4573 50.4156 31.0743 50.1395 30.7982Z" fill="#42A5F5"/>
<path d="M44.953 30.7982C44.6754 30.5221 44.2939 30.3633 43.9022 30.3633C43.5118 30.3633 43.1288 30.5221 42.8529 30.7982C42.5768 31.0743 42.418 31.4573 42.418 31.8475C42.418 32.2394 42.5768 32.6209 42.8529 32.8968C43.1305 33.1729 43.512 33.3317 43.9022 33.3317C44.2924 33.3317 44.6756 33.1729 44.953 32.8968C45.2291 32.6207 45.3864 32.2378 45.3864 31.8475C45.3864 31.4573 45.2291 31.0743 44.953 30.7982Z" fill="#42A5F5"/>
<path d="M38.5885 42.2378H27.0858C26.266 42.2378 25.6016 42.9023 25.6016 43.722C25.6016 44.5417 26.2661 45.2062 27.0858 45.2062H38.5885C39.4083 45.2062 40.0727 44.5417 40.0727 43.722C40.0727 42.9023 39.4082 42.2378 38.5885 42.2378Z" fill="#42A5F5"/>
<path d="M50.1395 42.6722C49.8634 42.3961 49.4804 42.2373 49.0902 42.2373C48.6983 42.2373 48.3168 42.3961 48.0409 42.6722C47.7633 42.9483 47.606 43.3313 47.606 43.7215C47.606 44.1134 47.7633 44.4949 48.0409 44.7708C48.317 45.0469 48.6985 45.2058 49.0902 45.2058C49.4806 45.2058 49.8635 45.0469 50.1395 44.7708C50.4154 44.4947 50.5744 44.1118 50.5744 43.7215C50.5744 43.3313 50.4156 42.9483 50.1395 42.6722Z" fill="#42A5F5"/>
<path d="M44.953 42.6722C44.6754 42.3961 44.2939 42.2373 43.9022 42.2373C43.5118 42.2373 43.1288 42.3961 42.8529 42.6722C42.5768 42.9483 42.418 43.3313 42.418 43.7215C42.418 44.1118 42.5768 44.4949 42.8529 44.7708C43.129 45.0469 43.512 45.2058 43.9022 45.2058C44.2941 45.2058 44.6756 45.0469 44.953 44.7708C45.2291 44.4947 45.3864 44.1118 45.3864 43.7215C45.3864 43.3313 45.2291 42.9483 44.953 42.6722Z" fill="#42A5F5"/>
<path d="M38.5885 54.1118H27.0858C26.266 54.1118 25.6016 54.7764 25.6016 55.596C25.6016 56.4157 26.2661 57.0803 27.0858 57.0803H38.5885C39.4083 57.0803 40.0727 56.4157 40.0727 55.596C40.0727 54.7764 39.4082 54.1118 38.5885 54.1118Z" fill="#42A5F5"/>
<path d="M50.1395 54.5463C49.8619 54.2702 49.4804 54.1113 49.0902 54.1113C48.6983 54.1113 48.3168 54.2702 48.0394 54.5463C47.7633 54.8223 47.606 55.2053 47.606 55.5956C47.606 55.9858 47.7633 56.3689 48.0394 56.6449C48.317 56.921 48.6985 57.0798 49.0902 57.0798C49.4806 57.0798 49.8635 56.921 50.1395 56.6449C50.4154 56.3688 50.5744 55.9858 50.5744 55.5956C50.5744 55.2053 50.4156 54.8223 50.1395 54.5463Z" fill="#42A5F5"/>
<path d="M44.9515 54.5463C44.6754 54.2702 44.2939 54.1113 43.9022 54.1113C43.5118 54.1113 43.1288 54.2702 42.8529 54.5463C42.5769 54.8223 42.418 55.2053 42.418 55.5956C42.418 55.9858 42.5768 56.3689 42.8529 56.6449C43.129 56.921 43.512 57.0798 43.9022 57.0798C44.2941 57.0798 44.6756 56.921 44.9515 56.6449C45.2291 56.3688 45.3864 55.9858 45.3864 55.5956C45.3864 55.2053 45.2291 54.8223 44.9515 54.5463Z" fill="#42A5F5"/>
<path d="M57.3144 43.9341C57.3144 41.5089 56.1452 39.3521 54.3408 37.997C56.145 36.6419 57.3144 34.4851 57.3144 32.06C57.3144 27.9678 53.9853 24.6387 49.8931 24.6387H26.1449C22.0528 24.6387 18.7236 27.9678 18.7236 32.06C18.7236 34.4851 19.8929 36.6419 21.6973 37.997C19.893 39.3521 18.7236 41.5089 18.7236 43.9341C18.7236 46.3592 19.8929 48.516 21.6973 49.8711C19.893 51.2262 18.7236 53.383 18.7236 55.8082C18.7236 59.9003 22.0528 63.2295 26.1449 63.2295H36.5159V67.3496C34.7884 67.9624 33.5475 69.6121 33.5475 71.5471C33.5473 74.0025 35.5449 76 38.0002 76C40.4555 76 42.453 74.0025 42.453 71.5471C42.453 69.6123 41.2121 67.9624 39.4845 67.3496V63.2295H49.8933C53.9854 63.2295 57.3146 59.9003 57.3146 55.8082C57.3146 53.383 56.1453 51.2262 54.3409 49.8711C56.145 48.516 57.3144 46.3592 57.3144 43.9341ZM21.6919 32.0601C21.6919 29.6048 23.6895 27.6073 26.1448 27.6073H49.893C52.3483 27.6073 54.3458 29.6048 54.3458 32.0601C54.3458 34.5154 52.3483 36.5129 49.893 36.5129H26.1448C23.6895 36.5128 21.6919 34.5153 21.6919 32.0601ZM38.0002 73.0315C37.1817 73.0315 36.5159 72.3656 36.5159 71.5473C36.5159 70.7288 37.1818 70.0631 38.0002 70.0631C38.8185 70.0631 39.4844 70.729 39.4844 71.5473C39.4844 72.3656 38.8187 73.0315 38.0002 73.0315ZM54.3458 55.8082C54.3458 58.2635 52.3483 60.261 49.893 60.261H26.1448C23.6895 60.261 21.6919 58.2635 21.6919 55.8082C21.6919 53.3529 23.6895 51.3553 26.1448 51.3553H49.893C52.3483 51.3555 54.3458 53.353 54.3458 55.8082ZM49.893 48.3869H26.1448C23.6895 48.3869 21.6919 46.3894 21.6919 43.9341C21.6919 41.4788 23.6895 39.4812 26.1448 39.4812H49.893C52.3483 39.4812 54.3458 41.4788 54.3458 43.9341C54.3458 46.3894 52.3483 48.3869 49.893 48.3869Z" fill="#424242"/>
<path d="M72.8116 22.9833C70.9057 20.2169 68.3028 18.0549 65.2548 16.698C61.5191 6.6828 51.9334 0 41.1923 0C34.9424 0 28.9195 2.27213 24.2337 6.39766C19.9492 10.1696 17.0531 15.2383 15.9811 20.7924C15.7508 20.782 15.5208 20.7768 15.2918 20.7768C6.86202 20.7768 0.00390625 27.6349 0.00390625 36.0647C0.00390625 39.733 1.32292 43.2805 3.71796 46.0535C6.08777 48.797 9.35577 50.6139 12.9202 51.1695C12.9977 51.1815 13.0746 51.1875 13.1506 51.1875C13.8695 51.1875 14.5011 50.6641 14.6154 49.9317C14.7417 49.1217 14.1873 48.3629 13.3774 48.2365C7.3483 47.2968 2.97236 42.1779 2.97236 36.0648C2.97236 29.2719 8.49869 23.7454 15.2918 23.7454C15.8637 23.7454 16.4437 23.7859 17.0157 23.8661C17.407 23.9207 17.8033 23.8174 18.1177 23.579C18.4324 23.3406 18.639 22.9867 18.692 22.5957C20.2097 11.4064 29.8827 2.9686 41.1922 2.9686C50.8902 2.9686 59.5227 9.12727 62.6732 18.2936C62.8133 18.7015 63.124 19.0281 63.5242 19.1887C69.2984 21.5056 73.0295 27.0229 73.0295 33.2445C73.0295 40.4056 67.9463 46.6432 60.9427 48.0764C60.1395 48.2407 59.6219 49.025 59.7862 49.8281C59.9505 50.6313 60.7346 51.1487 61.5379 50.9846C69.9168 49.2701 75.9981 41.8094 75.9981 33.2445C75.9981 29.5573 74.8963 26.0091 72.8116 22.9833Z" fill="#424242"/>
</g>
<defs>
<clipPath id="clip0_641_9856">
<rect width="76" height="76" fill="white"/>
</clipPath>
</defs>
</svg>
