<svg width="84" height="84" viewBox="0 0 84 84" fill="none" xmlns="http://www.w3.org/2000/svg">
<g clip-path="url(#clip0_641_10262)">
<path d="M65.5775 17.8936C63.6096 12.7726 60.2109 8.38441 55.7218 5.17748C50.9804 1.79041 45.3857 0 39.5423 0C31.4184 0 23.715 3.53735 18.4073 9.70495C17.964 10.2199 18.0221 10.9969 18.5372 11.4402C19.0524 11.8835 19.829 11.8253 20.2725 11.3103C25.1125 5.68641 32.1359 2.46094 39.5423 2.46094C50.2078 2.46094 59.8173 9.20473 63.4541 19.2416C63.6934 19.9029 64.3289 20.3469 65.0373 20.3469H65.0394C74.1382 20.347 81.5405 27.7605 81.5405 36.8729C81.5405 41.1187 79.9353 45.1533 77.0206 48.2334C76.5533 48.7269 76.5748 49.5057 77.0685 49.9729C77.5613 50.4394 78.3401 50.4192 78.808 49.9249C82.157 46.3857 84.0014 41.7505 84.0014 36.8729C84.0014 26.585 75.7881 18.1819 65.5775 17.8936Z" fill="#42A5F5"/>
<path d="M43.1484 75.1485V72.5156C43.1484 71.8361 42.5977 71.2852 41.918 71.2852C41.2383 71.2852 40.6875 71.8361 40.6875 72.5156V75.1485C38.7962 75.6856 37.4062 77.4272 37.4062 79.4883C37.4062 81.9761 39.4303 84 41.918 84C44.4056 84 46.4297 81.9761 46.4297 79.4883C46.4297 77.4272 45.0398 75.6856 43.1484 75.1485ZM41.918 81.5391C40.7871 81.5391 39.8672 80.6192 39.8672 79.4883C39.8672 78.3574 40.7871 77.4375 41.918 77.4375C43.0489 77.4375 43.9688 78.3574 43.9688 79.4883C43.9688 80.6192 43.0489 81.5391 41.918 81.5391Z" fill="#42A5F5"/>
<path d="M31.582 63.4102C30.9023 63.4102 30.3516 63.9611 30.3516 64.6406V71.2852C30.3516 71.8732 29.8732 72.3516 29.2852 72.3516H27.0624C26.5253 70.4602 24.7838 69.0703 22.7227 69.0703C20.235 69.0703 18.2109 71.0942 18.2109 73.582C18.2109 76.0699 20.235 78.0938 22.7227 78.0938C24.7838 78.0938 26.5253 76.7038 27.0624 74.8125H29.2852C31.2301 74.8125 32.8125 73.2301 32.8125 71.2852V64.6406C32.8125 63.9611 32.2617 63.4102 31.582 63.4102ZM22.7227 75.6328C21.5918 75.6328 20.6719 74.7129 20.6719 73.582C20.6719 72.4511 21.5918 71.5312 22.7227 71.5312C23.8535 71.5312 24.7734 72.4511 24.7734 73.582C24.7734 74.7129 23.8535 75.6328 22.7227 75.6328Z" fill="#42A5F5"/>
<path d="M71.2852 59.8829C69.224 59.8829 67.4825 61.2729 66.9454 63.1642H64.7227C64.1347 63.1642 63.6562 62.6858 63.6562 62.0978V55.7792C65.6493 55.7776 66.8069 55.7738 66.8771 55.7671C69.3364 55.5298 71.6901 54.8254 73.8724 53.6732C74.4734 53.3559 74.7034 52.6115 74.3863 52.0105C74.0688 51.4096 73.3245 51.1792 72.7237 51.4969C70.8374 52.4926 68.8042 53.1037 66.6794 53.3137C66.4054 53.3186 64.8615 53.3206 62.4273 53.3204C62.4268 53.3204 62.4263 53.3204 62.4258 53.3204C62.4253 53.3204 62.4248 53.3204 62.4243 53.3204C52.6591 53.3199 28.5656 53.2847 14.5443 53.2615C12.1997 53.2573 9.98304 52.624 8.13405 51.4306C4.58177 49.138 2.46094 45.2462 2.46094 41.0205C2.46094 34.9635 6.78218 29.8324 12.7362 28.82C13.5169 28.6869 14.0995 28.012 14.1214 27.2151C14.2323 23.1839 15.2555 19.3508 17.1629 15.8223C17.4861 15.2244 17.2633 14.478 16.6656 14.1548C16.0675 13.8312 15.3211 14.0544 14.9981 14.652C13.0054 18.3385 11.8922 22.3265 11.6857 26.5164C4.87643 27.9785 0 33.9776 0 41.0205C0 46.0859 2.54182 50.7504 6.79941 53.4983C9.04559 54.9481 11.7223 55.7172 14.54 55.7225C16.3967 55.7256 18.2818 55.7285 20.1797 55.7316V62.0978C20.1797 62.6858 19.7013 63.1642 19.1133 63.1642H16.8906C16.3534 61.2729 14.6119 59.8829 12.5508 59.8829C10.0631 59.8829 8.03906 61.9068 8.03906 64.3946C8.03906 66.8825 10.0631 68.9064 12.5508 68.9064C14.6119 68.9064 16.3534 67.5164 16.8906 65.6251H19.1133C21.0582 65.6251 22.6406 64.0427 22.6406 62.0978V55.7356C25.213 55.7397 27.7961 55.7436 30.3516 55.7474V58.8985C30.3516 59.5781 30.9023 60.129 31.582 60.129C32.2617 60.129 32.8125 59.5781 32.8125 58.8985V55.751C35.498 55.7549 38.1383 55.7586 40.6875 55.7618V66.7735C40.6875 67.4531 41.2383 68.004 41.918 68.004C42.5977 68.004 43.1484 67.4531 43.1484 66.7735V55.7649C45.9277 55.7684 48.5742 55.7714 51.0234 55.7738V71.2853C51.0234 73.2302 52.6058 74.8126 54.5508 74.8126H56.7735C57.3106 76.7039 59.0522 78.0939 61.1133 78.0939C63.601 78.0939 65.625 76.07 65.625 73.5821C65.625 71.0943 63.601 69.0704 61.1133 69.0704C59.0522 69.0704 57.3106 70.4604 56.7735 72.3517H54.5508C53.9628 72.3517 53.4844 71.8733 53.4844 71.2853V55.7761C56.4672 55.7786 59.0838 55.78 61.1935 55.78H61.1953V62.0978C61.1953 64.0427 62.7777 65.6251 64.7227 65.6251H66.9454C67.4825 67.5164 69.224 68.9064 71.2852 68.9064C73.7728 68.9064 75.7969 66.8825 75.7969 64.3946C75.7969 61.9068 73.7728 59.8829 71.2852 59.8829ZM12.5508 66.4454C11.4199 66.4454 10.5 65.5255 10.5 64.3946C10.5 63.2638 11.4199 62.3439 12.5508 62.3439C13.6817 62.3439 14.6016 63.2638 14.6016 64.3946C14.6016 65.5255 13.6817 66.4454 12.5508 66.4454ZM61.1133 71.5314C62.2442 71.5314 63.1641 72.4513 63.1641 73.5821C63.1641 74.713 62.2442 75.6329 61.1133 75.6329C59.9824 75.6329 59.0625 74.713 59.0625 73.5821C59.0625 72.4513 59.9824 71.5314 61.1133 71.5314ZM71.2852 66.4454C70.1543 66.4454 69.2344 65.5255 69.2344 64.3946C69.2344 63.2638 70.1543 62.3439 71.2852 62.3439C72.416 62.3439 73.3359 63.2638 73.3359 64.3946C73.3359 65.5255 72.416 66.4454 71.2852 66.4454Z" fill="#424242"/>
</g>
<defs>
<clipPath id="clip0_641_10262">
<rect width="84" height="84" fill="white"/>
</clipPath>
</defs>
</svg>
