<svg width="84" height="84" viewBox="0 0 84 84" fill="none" xmlns="http://www.w3.org/2000/svg">
<g clip-path="url(#clip0_641_9115)">
<path d="M25.7448 10.8643C20.5196 10.8643 16.2534 15.1139 16.2534 20.3556C16.2534 21.0997 16.8652 21.7115 17.6093 21.7115C18.3534 21.7115 18.9652 21.0997 18.9652 20.3556C18.9652 16.6186 22.0077 13.5761 25.7448 13.5761C26.4888 13.5761 27.1007 12.9643 27.1007 12.2202C27.1007 11.4761 26.4888 10.8643 25.7448 10.8643Z" fill="#42A5F5"/>
<path d="M71.8134 43.3559C78.5433 43.3559 84 37.8827 84 31.1693C84 24.8858 79.2378 19.7102 73.1197 19.0488C72.6402 12.9472 67.5142 8.1189 61.2803 8.1189C60.2882 8.1189 59.2961 8.25118 58.337 8.49921C54.5835 3.15827 48.548 0 42 0C37.3866 0 32.922 1.60394 29.3339 4.54724C28.0441 4.21654 26.7378 4.05118 25.3984 4.05118C16.8496 4.05118 9.85512 10.8142 9.4748 19.2803C4.00157 20.5205 0 25.4315 0 31.1693C0 37.8992 5.47323 43.3559 12.1866 43.3559H29.7968V50.1354H13.5425V59.6268H8.13543V73.1693H21.678V59.6268H16.2543V52.8472H32.5087V43.3559H40.6441V70.4575H35.2205V84H48.7795V70.4575H43.3559V43.3559H51.4913V52.8472H67.7457V59.6268H62.322V73.1693H75.8646V59.6268H70.4409V50.1354H54.1866V43.3559H71.8134ZM18.9661 62.322V70.4575H10.8307V62.322H18.9661ZM73.1693 62.322V70.4575H65.0339V62.322H73.1693ZM46.0677 73.1528V81.2882H37.9323V73.1528H46.0677ZM12.1866 40.6772V40.6441C6.96142 40.6441 2.69528 36.3945 2.69528 31.1528C2.69528 26.374 6.26693 22.3394 10.9961 21.7441L12.2197 21.5953L12.1701 19.9748C12.1701 12.6827 18.1063 6.74646 25.3984 6.74646C26.7047 6.74646 28.011 6.94488 29.2677 7.3252L29.9953 7.54016L30.5575 7.04409C33.7323 4.24961 37.8 2.71181 42 2.71181C47.9693 2.71181 53.426 5.7378 56.6173 10.8142L57.1961 11.7402L58.2213 11.3764C59.2299 11.0126 60.2551 10.8472 61.2803 10.8472C66.3402 10.8472 70.4409 14.9646 70.4409 20.1071L70.3748 21.6945H71.7969C77.022 21.6945 81.2882 25.9441 81.2882 31.1858C81.2882 36.4276 77.0386 40.6772 71.7969 40.6772H12.1866Z" fill="#424242"/>
<path d="M16.2548 65.0342H13.543V67.746H16.2548V65.0342Z" fill="#42A5F5"/>
<path d="M43.3564 75.8643H40.6445V78.5761H43.3564V75.8643Z" fill="#42A5F5"/>
<path d="M70.4584 65.0342H67.7466V67.746H70.4584V65.0342Z" fill="#42A5F5"/>
</g>
<defs>
<clipPath id="clip0_641_9115">
<rect width="84" height="84" fill="white"/>
</clipPath>
</defs>
</svg>
