<svg width="84" height="84" viewBox="0 0 84 84" fill="none" xmlns="http://www.w3.org/2000/svg">
<path d="M69.5639 42.0002C72.6968 42.0002 75.7013 40.7556 77.9166 38.5404C80.1319 36.3251 81.3764 33.3205 81.3764 30.1877C81.3764 27.0548 80.1319 24.0502 77.9166 21.835C75.7013 19.6197 72.6968 18.3752 69.5639 18.3752H66.8602C66.6358 16.3263 65.8779 14.3722 64.6621 12.7078C63.4464 11.0434 61.8153 9.72713 59.9317 8.89029C58.0481 8.05344 55.978 7.72533 53.928 7.93874C51.8779 8.15214 49.9197 8.89957 48.2489 10.1064C45.9227 7.15947 42.8015 4.94005 39.2542 3.71045C35.7068 2.48086 31.8816 2.29251 28.2306 3.16764C24.5796 4.04277 21.2555 5.94482 18.651 8.64898C16.0466 11.3531 14.2707 14.7464 13.5333 18.4277C10.4886 18.6597 7.65234 20.0626 5.62022 22.3417C3.58811 24.6208 2.5183 27.5988 2.63553 30.65C2.75275 33.7012 4.04788 36.5883 6.24887 38.7048C8.44986 40.8213 11.3854 42.0024 14.4389 42.0002H36.7514V47.2502H30.1889C28.4484 47.2502 26.7792 47.9416 25.5485 49.1723C24.3178 50.403 23.6264 52.0722 23.6264 53.8127V70.8752C23.6233 71.9185 23.2075 72.9182 22.4697 73.656C21.732 74.3937 20.7322 74.8096 19.6889 74.8127H12.9427C12.6232 73.5754 11.8635 72.4972 10.8059 71.78C9.74832 71.0628 8.46548 70.756 7.19785 70.917C5.93022 71.078 4.76483 71.6958 3.92012 72.6546C3.07541 73.6134 2.60938 74.8474 2.60938 76.1252C2.60938 77.403 3.07541 78.6369 3.92012 79.5957C4.76483 80.5545 5.93022 81.1723 7.19785 81.3333C8.46548 81.4943 9.74832 81.1875 10.8059 80.4703C11.8635 79.7532 12.6232 78.6749 12.9427 77.4377H19.6889C21.4294 77.4377 23.0986 76.7463 24.3293 75.5156C25.56 74.2849 26.2514 72.6157 26.2514 70.8752V53.8127C26.2545 52.7693 26.6704 51.7696 27.4081 51.0319C28.1459 50.2941 29.1456 49.8783 30.1889 49.8752H36.7514V57.7502C36.7514 59.4958 38.3395 60.7689 40.6889 61.6352V78.7502H36.7514V81.3752H42.0014C42.3495 81.3752 42.6834 81.2369 42.9295 80.9907C43.1756 80.7446 43.3139 80.4108 43.3139 80.0627V62.3702C45.0441 62.7168 46.8002 62.9188 48.5639 62.9739V76.1252C48.5639 76.4733 48.7022 76.8071 48.9483 77.0532C49.1945 77.2994 49.5283 77.4377 49.8764 77.4377H61.8727C62.1921 78.6749 62.9518 79.7532 64.0094 80.4703C65.067 81.1875 66.3498 81.4943 67.6175 81.3333C68.8851 81.1723 70.0505 80.5545 70.8952 79.5957C71.7399 78.6369 72.206 77.403 72.206 76.1252C72.206 74.8474 71.7399 73.6134 70.8952 72.6546C70.0505 71.6958 68.8851 71.078 67.6175 70.917C66.3498 70.756 65.067 71.0628 64.0094 71.78C62.9518 72.4972 62.1921 73.5754 61.8727 74.8127H51.1889V62.9739C57.1083 62.7639 63.0014 61.1102 63.0014 57.7502V55.1252H66.9389C67.287 55.1252 67.6209 55.2635 67.867 55.5096C68.1131 55.7557 68.2514 56.0896 68.2514 56.4377V66.9377C68.2514 67.2858 68.3897 67.6196 68.6358 67.8657C68.882 68.1119 69.2158 68.2502 69.5639 68.2502H76.1264V65.6252H70.8764V56.4377C70.8733 55.3943 70.4575 54.3946 69.7197 53.6569C68.982 52.9191 67.9822 52.5033 66.9389 52.5002H63.0014V42.0002H69.5639ZM7.87642 78.7502C7.35724 78.7502 6.84972 78.5962 6.41804 78.3078C5.98637 78.0193 5.64991 77.6094 5.45123 77.1297C5.25255 76.6501 5.20057 76.1223 5.30185 75.6131C5.40314 75.1039 5.65315 74.6361 6.02026 74.269C6.38737 73.9019 6.8551 73.6519 7.3643 73.5506C7.8735 73.4493 8.4013 73.5013 8.88096 73.7C9.36062 73.8987 9.77058 74.2351 10.059 74.6668C10.3475 75.0985 10.5014 75.606 10.5014 76.1252C10.4993 76.8207 10.2221 77.4872 9.73028 77.979C9.23844 78.4709 8.57197 78.7481 7.87642 78.7502ZM66.9389 73.5002C67.4581 73.5002 67.9656 73.6541 68.3973 73.9426C68.829 74.231 69.1654 74.641 69.3641 75.1206C69.5628 75.6003 69.6148 76.1281 69.5135 76.6373C69.4122 77.1465 69.1622 77.6142 68.7951 77.9813C68.428 78.3484 67.9602 78.5984 67.451 78.6997C66.9418 78.801 66.414 78.749 65.9344 78.5504C65.4547 78.3517 65.0447 78.0152 64.7563 77.5835C64.4679 77.1519 64.3139 76.6443 64.3139 76.1252C64.316 75.4296 64.5932 74.7631 65.0851 74.2713C65.5769 73.7795 66.2434 73.5023 66.9389 73.5002ZM60.3764 57.7502C60.3764 58.4195 56.767 60.3752 49.8764 60.3752C42.9858 60.3752 39.3764 58.4195 39.3764 57.7502V53.1827C42.6935 54.5861 46.2768 55.249 49.8764 55.1252C53.476 55.249 57.0593 54.5861 60.3764 53.1827V57.7502ZM60.3764 49.8752C60.3764 50.5445 56.767 52.5002 49.8764 52.5002C42.9858 52.5002 39.3764 50.5445 39.3764 49.8752V45.3077C42.6935 46.7111 46.2768 47.374 49.8764 47.2502C53.476 47.374 57.0593 46.7111 60.3764 45.3077V49.8752ZM60.3764 42.0002C60.3764 42.6695 56.767 44.6252 49.8764 44.6252C42.9858 44.6252 39.3764 42.6695 39.3764 42.0002V37.4327C42.6935 38.8361 46.2768 39.499 49.8764 39.3752C53.476 39.499 57.0593 38.8361 60.3764 37.4327V42.0002ZM49.8764 36.7502C42.9858 36.7502 39.3764 34.7945 39.3764 34.1252C39.3764 33.4558 42.9858 31.5002 49.8764 31.5002C56.767 31.5002 60.3764 33.4558 60.3764 34.1252C60.3764 34.7945 56.767 36.7502 49.8764 36.7502ZM51.1889 28.9014V26.2502C51.1858 25.2068 50.77 24.2071 50.0322 23.4694C49.2945 22.7316 48.2948 22.3158 47.2514 22.3127H40.5052C40.1857 21.0754 39.426 19.9972 38.3684 19.28C37.3108 18.5628 36.028 18.256 34.7604 18.417C33.4927 18.578 32.3273 19.1958 31.4826 20.1546C30.6379 21.1134 30.1719 22.3474 30.1719 23.6252C30.1719 24.903 30.6379 26.1369 31.4826 27.0957C32.3273 28.0545 33.4927 28.6723 34.7604 28.8333C36.028 28.9943 37.3108 28.6875 38.3684 27.9703C39.426 27.2532 40.1857 26.1749 40.5052 24.9377H47.2514C47.5995 24.9377 47.9334 25.076 48.1795 25.3221C48.4256 25.5682 48.5639 25.9021 48.5639 26.2502V28.9014C42.6445 29.1114 36.7514 30.7652 36.7514 34.1252V39.3752H14.4389C12.0022 39.3752 9.66536 38.4072 7.94237 36.6842C6.21938 34.9612 5.25142 32.6243 5.25142 30.1877C5.25142 27.751 6.21938 25.4141 7.94237 23.6911C9.66536 21.9681 12.0022 21.0002 14.4389 21.0002H14.5964C17.0012 21.0555 19.2896 22.0461 20.9757 23.7616C22.6618 25.4771 23.6127 27.7823 23.6264 30.1877H26.2514C26.2348 27.3635 25.2122 24.6376 23.3673 22.4992C21.5224 20.3608 18.9758 18.9499 16.1845 18.5195C17.049 14.7405 19.1746 11.3685 22.2113 8.95873C25.248 6.54898 29.0148 5.24517 32.8914 5.26198C36.768 5.27878 40.5234 6.61521 43.5391 9.05121C46.5548 11.4872 48.651 14.8775 49.4827 18.6639L52.042 18.0864C51.585 16.0361 50.8005 14.0728 49.7189 12.272C51.5173 10.96 53.7309 10.3456 55.9483 10.543C58.1656 10.7403 60.2359 11.736 61.7743 13.345C63.3127 14.954 64.2146 17.0669 64.3124 19.2908C64.4101 21.5148 63.6971 23.6986 62.3058 25.4364L64.3533 27.077C65.7413 25.326 66.6099 23.2205 66.8602 21.0002H69.5639C72.0006 21.0002 74.3375 21.9681 76.0605 23.6911C77.7834 25.4141 78.7514 27.751 78.7514 30.1877C78.7514 32.6243 77.7834 34.9612 76.0605 36.6842C74.3375 38.4072 72.0006 39.3752 69.5639 39.3752H63.0014V36.7502H66.9389C67.287 36.7502 67.6209 36.6119 67.867 36.3658C68.1131 36.1196 68.2514 35.7858 68.2514 35.4377V30.1877H69.5639V27.5627H66.9389C66.5908 27.5627 66.257 27.701 66.0108 27.9471C65.7647 28.1932 65.6264 28.5271 65.6264 28.8752V34.1252H63.0014C63.0014 30.7652 57.1083 29.1114 51.1889 28.9014ZM38.0639 23.6252C38.0639 24.1443 37.91 24.6519 37.6215 25.0835C37.3331 25.5152 36.9231 25.8517 36.4435 26.0504C35.9638 26.249 35.436 26.301 34.9268 26.1997C34.4176 26.0984 33.9499 25.8484 33.5828 25.4813C33.2156 25.1142 32.9656 24.6465 32.8644 24.1373C32.7631 23.6281 32.8151 23.1003 33.0137 22.6206C33.2124 22.141 33.5489 21.731 33.9805 21.4426C34.4122 21.1541 34.9197 21.0002 35.4389 21.0002C36.1345 21.0023 36.8009 21.2795 37.2928 21.7713C37.7846 22.2631 38.0618 22.9296 38.0639 23.6252Z" fill="#424242"/>
<path d="M78.75 65.625H81.375V68.25H78.75V65.625Z" fill="#42A5F5"/>
<path d="M31.5 78.75H34.125V81.375H31.5V78.75Z" fill="#42A5F5"/>
<path d="M10.5 30.1875C10.5 29.1432 10.9148 28.1417 11.6533 27.4033C12.3917 26.6648 13.3932 26.25 14.4375 26.25V23.625C12.697 23.625 11.0278 24.3164 9.79711 25.5471C8.5664 26.7778 7.875 28.447 7.875 30.1875C7.875 31.928 8.5664 33.5972 9.79711 34.8279C11.0278 36.0586 12.697 36.75 14.4375 36.75H24.9375V34.125H14.4375C13.3932 34.125 12.3917 33.7102 11.6533 32.9717C10.9148 32.2333 10.5 31.2318 10.5 30.1875Z" fill="#42A5F5"/>
<path d="M72.1875 27.5625H74.8125V30.1875H72.1875V27.5625Z" fill="#42A5F5"/>
</svg>
