<svg width="76" height="76" viewBox="0 0 76 76" fill="none" xmlns="http://www.w3.org/2000/svg">
<path d="M35.9521 2.42619C27.8814 2.98998 21.1168 8.19098 18.0005 15.3843C12.9925 15.1441 8.18444 17.5236 5.21631 21.7671C1.92504 26.4726 1.45707 32.6768 4.00098 37.8494C4.1608 38.1744 4.32206 38.4789 4.50195 38.7887C3.21763 39.6424 2.38208 41.1054 2.38208 42.7525V52.2548C2.38208 53.6764 2.98782 54.9397 3.98706 55.8103C3.00637 56.6741 2.38208 57.9513 2.38208 59.3728V68.8752C2.38208 71.5326 4.52381 73.6252 7.1344 73.6252H56.9955C59.6339 73.6252 61.7501 71.4862 61.7501 68.8752V59.3728C61.7498 57.9513 61.1096 56.6602 60.1382 55.8103C61.1096 54.9629 61.7475 53.6764 61.7478 52.2548L61.7502 46.2941C67.1568 46.035 71.8085 42.1962 73.2077 36.7547C74.6296 31.2248 72.3532 25.2417 67.4163 22.2913C64.9757 20.83 62.2227 20.3048 59.5631 20.6678C59.154 20.7236 58.7452 20.7954 58.3431 20.8928C56.7433 10.4384 48.1381 2.69542 38.0256 2.38445C37.3407 2.36335 36.6491 2.37771 35.9521 2.42619ZM56.0585 21.6929C54.7041 22.3217 53.4412 23.2122 52.3499 24.3439C51.2292 25.4839 52.9604 27.154 54.0592 25.993C57.2968 22.6355 62.2436 21.9634 66.1963 24.33C70.149 26.6966 72.098 31.5509 70.9069 36.1609C69.7665 40.5744 66.056 43.6548 61.7501 43.9098V42.7525C61.7507 40.1414 59.6432 38.0002 56.9955 38.0002H7.1344C7.0304 38.0002 6.90976 38.0004 6.80739 38.0069C6.55704 37.6119 6.34273 37.2286 6.13246 36.8011C3.97201 32.4081 4.3739 27.1151 7.16224 23.1286C9.52243 19.7542 13.2288 17.8064 17.1377 17.7454C16.5045 19.8286 16.1613 22.0536 16.1613 24.3416C16.1254 25.9605 18.5722 25.9605 18.5363 24.3416C18.5363 14.048 26.2359 5.4916 36.1192 4.80119C36.7369 4.7581 37.349 4.74563 37.9561 4.76403C47.0054 5.03905 54.8031 12.0901 56.0585 21.6929ZM7.13441 40.3775H21.3751V54.6252H7.13441C5.83541 54.6252 4.75941 53.5911 4.75941 52.2548V42.7525C4.75941 41.444 5.79832 40.3775 7.13441 40.3775ZM23.7525 40.3775H56.9955C58.3316 40.3775 59.3755 41.4533 59.3751 42.7525L59.3728 52.2548C59.3726 53.5401 58.3316 54.6252 56.9955 54.6252H23.7525L23.7525 40.3775ZM7.13441 57.0002H21.3751V71.2502H7.13441C5.83078 71.2502 4.75941 70.2115 4.75941 68.8752V59.3728C4.75941 58.0365 5.84933 57.0002 7.13441 57.0002ZM23.7525 57.0002H56.9955C58.2899 57.0002 59.3748 58.0365 59.3751 59.3728V68.8752C59.3657 70.1883 58.3223 71.2502 56.9955 71.2502H23.7525L23.7525 57.0002Z" fill="#424242"/>
<line x1="30" y1="47" x2="53" y2="47" stroke="#42A5F5" stroke-width="2" stroke-linecap="round"/>
<line x1="30" y1="64" x2="53" y2="64" stroke="#42A5F5" stroke-width="2" stroke-linecap="round"/>
<circle cx="12.5" cy="47.5" r="3.5" stroke="#42A5F5" stroke-width="2"/>
<circle cx="12.5" cy="64.5" r="3.5" stroke="#42A5F5" stroke-width="2"/>
<line x1="37" y1="13" x2="37" y2="25" stroke="#42A5F5" stroke-width="2" stroke-linecap="round"/>
<line x1="43" y1="19" x2="31" y2="19" stroke="#42A5F5" stroke-width="2" stroke-linecap="round"/>
</svg>
