<svg width="70" height="70" viewBox="0 0 70 70" fill="none" xmlns="http://www.w3.org/2000/svg">
<path d="M59.5 17.0622H43.1667V15.8955C43.1598 10.0992 38.463 5.40234 32.6667 5.39551H10.5C4.70369 5.40234 0.00683594 10.0992 0 15.8955V29.8955C0.00683594 35.6918 4.70369 40.3887 10.5 40.3955H11.6667V49.7288C11.6667 50.2005 11.9509 50.6261 12.3867 50.8066C12.8225 50.9872 13.3244 50.887 13.6582 50.5537L23.8164 40.3955H26.8333V41.5622C26.8402 47.3585 31.537 52.0553 37.3333 52.0622H43.8503L56.3418 64.5537C56.6756 64.887 57.1775 64.9872 57.6133 64.8066C58.0491 64.6261 58.3333 64.2005 58.3333 63.7288V52.0622H59.5C65.2963 52.0553 69.9932 47.3585 70 41.5622V27.5622C69.9932 21.7659 65.2963 17.069 59.5 17.0622ZM23.3333 38.0622C23.024 38.0622 22.7272 38.1852 22.5085 38.404L14 46.9124V39.2288C14 38.5846 13.4776 38.0622 12.8333 38.0622H10.5C5.9917 38.057 2.33846 34.4038 2.33333 29.8955V15.8955C2.33846 11.3872 5.9917 7.73397 10.5 7.72884H32.6667C37.175 7.73397 40.8282 11.3872 40.8333 15.8955V17.0622H37.3333C31.537 17.069 26.8402 21.7659 26.8333 27.5622V38.0622H23.3333ZM67.6667 41.5622C67.6615 46.0705 64.0083 49.7237 59.5 49.7288H57.1667C56.5224 49.7288 56 50.2512 56 50.8955V60.9124L45.1582 50.0706C44.9395 49.8519 44.6427 49.7288 44.3333 49.7288H37.3333C32.825 49.7237 29.1718 46.0705 29.1667 41.5622V27.5622C29.1718 23.0539 32.825 19.4006 37.3333 19.3955H59.5C64.0083 19.4006 67.6615 23.0539 67.6667 27.5622V41.5622Z" fill="#424242"/>
<path d="M61.832 26.3955H34.9987C34.3544 26.3955 33.832 26.9179 33.832 27.5622C33.832 28.2065 34.3544 28.7288 34.9987 28.7288H61.832C62.4763 28.7288 62.9987 28.2065 62.9987 27.5622C62.9987 26.9179 62.4763 26.3955 61.832 26.3955Z" fill="#42A5F5"/>
<path d="M61.832 33.3955H34.9987C34.3544 33.3955 33.832 33.9179 33.832 34.5622C33.832 35.2065 34.3544 35.7288 34.9987 35.7288H61.832C62.4763 35.7288 62.9987 35.2065 62.9987 34.5622C62.9987 33.9179 62.4763 33.3955 61.832 33.3955Z" fill="#42A5F5"/>
<path d="M61.832 40.3955H34.9987C34.3544 40.3955 33.832 40.9179 33.832 41.5622C33.832 42.2065 34.3544 42.7288 34.9987 42.7288H61.832C62.4763 42.7288 62.9987 42.2065 62.9987 41.5622C62.9987 40.9179 62.4763 40.3955 61.832 40.3955Z" fill="#42A5F5"/>
<path d="M6.9987 17.0628H31.4987C32.143 17.0628 32.6654 16.5404 32.6654 15.8962C32.6654 15.2519 32.143 14.7295 31.4987 14.7295H6.9987C6.35441 14.7295 5.83203 15.2519 5.83203 15.8962C5.83203 16.5404 6.35441 17.0628 6.9987 17.0628Z" fill="#42A5F5"/>
<path d="M24.4987 21.7295H6.9987C6.35441 21.7295 5.83203 22.2519 5.83203 22.8962C5.83203 23.5404 6.35441 24.0628 6.9987 24.0628H24.4987C25.143 24.0628 25.6654 23.5404 25.6654 22.8962C25.6654 22.2519 25.143 21.7295 24.4987 21.7295Z" fill="#42A5F5"/>
<path d="M23.332 28.7295H6.9987C6.35441 28.7295 5.83203 29.2519 5.83203 29.8962C5.83203 30.5404 6.35441 31.0628 6.9987 31.0628H23.332C23.9763 31.0628 24.4987 30.5404 24.4987 29.8962C24.4987 29.2519 23.9763 28.7295 23.332 28.7295Z" fill="#42A5F5"/>
</svg>
