<svg width="76" height="76" viewBox="0 0 76 76" fill="none" xmlns="http://www.w3.org/2000/svg">
<path d="M71.5352 54.8773C71.5352 57.2523 69.6055 59.182 67.2305 59.182C64.8555 59.182 62.9258 57.2523 62.9258 54.8773C62.9258 54.5063 62.9703 54.15 63.0594 53.8234L56.5875 50.0828C54.8508 51.5672 52.5945 52.4727 50.1453 52.4727H39.2203V67.5539C41.0164 68.0734 42.3375 69.7211 42.3375 71.6805C42.3375 74.0555 40.4078 75.9852 38.0328 75.9852C35.6578 75.9852 33.7281 74.0555 33.7281 71.6805C33.7281 69.7211 35.0492 68.0586 36.8453 67.5539V52.4875H25.9203C23.4563 52.4875 21.2 51.582 19.4781 50.0977L12.9469 53.868C13.0211 54.1945 13.0656 54.5359 13.0656 54.8922C13.0656 57.2672 11.1359 59.1969 8.76094 59.1969C6.38594 59.1969 4.45625 57.2672 4.45625 54.8922C4.45625 52.5172 6.38594 50.5875 8.76094 50.5875C9.91875 50.5875 10.9727 51.0477 11.7445 51.8047L17.8156 48.3016C16.6727 46.6836 16.0047 44.7242 16.0047 42.6016C16.0047 40.0187 17.0289 37.525 18.8398 35.6844C19.1219 33.5172 20.1609 31.5133 21.7641 29.9992L11.7594 24.225C10.9875 24.982 9.91875 25.457 8.74609 25.457C6.37109 25.457 4.44141 23.5273 4.44141 21.1523C4.44141 18.7773 6.37109 16.8477 8.74609 16.8477C11.1211 16.8477 13.0508 18.7773 13.0508 21.1523C13.0508 21.4937 13.0062 21.8352 12.932 22.1617L23.9016 28.5C25.2375 27.8172 26.7219 27.4461 28.2508 27.4461C28.7703 27.4461 29.3047 27.4906 29.8094 27.5797C31.5312 25.3531 34.0547 23.9281 36.8305 23.6016V8.43125C35.0344 7.91172 33.7133 6.26406 33.7133 4.30469C33.7133 1.92969 35.643 0 38.018 0C40.393 0 42.3227 1.92969 42.3227 4.30469C42.3227 6.26406 41.0016 7.92656 39.2055 8.43125V23.5867C41.9813 23.8984 44.5047 25.3234 46.2266 27.5648C46.7461 27.4758 47.2656 27.4312 47.7852 27.4312C49.3141 27.4312 50.7984 27.8023 52.1344 28.4852L62.9258 22.2508C62.8367 21.8945 62.7773 21.5234 62.7773 21.1523C62.7773 18.7773 64.707 16.8477 67.082 16.8477C69.457 16.8477 71.3867 18.7773 71.3867 21.1523C71.3867 23.5273 69.457 25.457 67.082 25.457C65.9539 25.457 64.9148 25.0117 64.143 24.2992L54.2867 29.9844C55.9047 31.4984 56.9289 33.4875 57.2109 35.6695C59.0219 37.5102 60.0461 40.0187 60.0461 42.5867C60.0461 44.7094 59.3781 46.6836 58.2352 48.2867L64.2766 51.775C65.0484 51.0328 66.0875 50.5875 67.2453 50.5875C69.6055 50.5875 71.5352 52.5172 71.5352 54.8773ZM38.0328 69.7805C36.9789 69.7805 36.1031 70.6414 36.1031 71.7102C36.1031 72.7789 36.9641 73.6398 38.0328 73.6398C39.1016 73.6398 39.9625 72.7789 39.9625 71.7102C39.9625 70.6414 39.1016 69.7805 38.0328 69.7805ZM65.182 21.1375C65.182 22.1914 66.043 23.0672 67.1117 23.0672C68.1805 23.0672 69.0414 22.2062 69.0414 21.1375C69.0414 20.0687 68.1805 19.2078 67.1117 19.2078C66.043 19.2078 65.182 20.0836 65.182 21.1375ZM38.0328 6.21953C39.0867 6.21953 39.9625 5.35859 39.9625 4.28984C39.9625 3.22109 39.1016 2.36016 38.0328 2.36016C36.9641 2.36016 36.1031 3.22109 36.1031 4.28984C36.1031 5.35859 36.9789 6.21953 38.0328 6.21953ZM10.6906 21.1375C10.6906 20.0836 9.82969 19.2078 8.76094 19.2078C7.69219 19.2078 6.83125 20.0687 6.83125 21.1375C6.83125 22.2062 7.69219 23.0672 8.76094 23.0672C9.82969 23.0672 10.6906 22.2062 10.6906 21.1375ZM10.6906 54.8773C10.6906 53.8234 9.82969 52.9477 8.76094 52.9477C7.69219 52.9477 6.83125 53.8086 6.83125 54.8773C6.83125 55.9461 7.69219 56.807 8.76094 56.807C9.82969 56.807 10.6906 55.9461 10.6906 54.8773ZM57.6711 42.5867C57.6711 40.5234 56.7953 38.5195 55.2664 37.0945C55.0438 36.8867 54.9102 36.6195 54.8953 36.3227C54.5984 32.6711 51.4813 29.8062 47.8148 29.8062C47.2063 29.8062 46.6125 29.8805 46.0336 30.0289C45.5438 30.1625 45.0242 29.9547 44.7422 29.5242C43.2578 27.2531 40.7641 25.8875 38.0477 25.8875C35.3313 25.8875 32.8375 27.2531 31.3531 29.5242C31.0711 29.9547 30.5516 30.1477 30.0617 30.0289C29.4828 29.8805 28.8891 29.8062 28.2805 29.8062C24.6141 29.8062 21.4969 32.6711 21.2 36.3227C21.1703 36.6195 21.0367 36.8867 20.8289 37.0945C19.3 38.5195 18.4242 40.5234 18.4242 42.5867C18.4242 46.7281 21.7938 50.1125 25.95 50.1125H50.175C54.3016 50.1125 57.6711 46.7281 57.6711 42.5867ZM69.1602 54.8773C69.1602 53.8234 68.2992 52.9477 67.2305 52.9477C66.1617 52.9477 65.3008 53.8086 65.3008 54.8773C65.3008 55.9461 66.1617 56.807 67.2305 56.807C68.2992 56.807 69.1602 55.9461 69.1602 54.8773Z" fill="#424242"/>
<path d="M30.875 32C26.5396 32 23 35.5259 23 39.875C23 40.4924 23.5076 41 24.125 41C24.7424 41 25.25 40.4924 25.25 39.875C25.25 36.7744 27.7744 34.25 30.875 34.25C31.4924 34.25 32 33.7424 32 33.125C32 32.5076 31.4924 32 30.875 32Z" fill="#42A5F5"/>
</svg>
