<svg width="100" height="105" viewBox="0 0 100 105" fill="none" xmlns="http://www.w3.org/2000/svg">
<path opacity="0.1" d="M62.3966 29.2084L62.398 29.2119L62.3992 29.2148L62.4007 29.2186L62.4008 29.2188L63.6965 32.4148L67.1352 32.3287C67.1346 32.3287 67.1362 32.3287 67.1399 32.3287C67.1423 32.3286 67.1455 32.3286 67.1496 32.3286L67.1613 32.3285C67.1848 32.3283 67.224 32.3282 67.278 32.3286C67.4065 32.3295 67.6185 32.3331 67.9036 32.3453C68.4749 32.3698 69.3329 32.4283 70.3965 32.566C72.5378 32.8433 75.4326 33.4313 78.4729 34.6567C84.4421 37.0627 90.9442 41.871 93.6791 52.0221C95.8611 60.1209 94.9672 70.2221 93.6636 75.3056C92.4473 80.0489 88.4003 87.295 83.0653 91.585C79.9466 94.093 77.6737 95.7762 74.9858 96.9301C72.3757 98.0505 69.0658 98.7924 63.8895 98.7924H63.8529L63.8162 98.7929L-18.5533 100C-29.6606 99.9937 -36.4982 97.1007 -40.6172 92.8063C-44.778 88.4683 -47 81.8343 -47 72.6005C-47 58.7153 -39.8087 49.8747 -32.2832 44.3025C-28.496 41.4983 -24.6803 39.5772 -21.8005 38.3586C-20.3674 37.7522 -19.1846 37.3276 -18.3784 37.0596C-17.9759 36.9257 -17.6688 36.8314 -17.4731 36.7735C-17.3754 36.7445 -17.3056 36.7247 -17.2658 36.7136L-17.2318 36.7041L-17.2295 36.7035L-17.229 36.7034C-17.2267 36.7027 -17.2263 36.7026 -17.2279 36.7031L-13.9221 35.8287L-13.5492 32.4369C-13.5487 32.4332 -13.548 32.4276 -13.5471 32.4203C-13.5431 32.39 -13.5349 32.3296 -13.5215 32.2413C-13.4946 32.0644 -13.4469 31.7764 -13.3703 31.394C-13.2168 30.6276 -12.9495 29.4916 -12.5065 28.1158C-11.6161 25.3509 -10.045 21.707 -7.3377 18.15C-2.11494 11.288 7.85883 4.03145 27.5751 5.10617L27.8269 5.11989L28.0789 5.10821C39.9191 4.55912 48.3795 10.3225 54.1031 16.6077C56.9672 19.7528 59.0683 22.9555 60.4519 25.3773C61.1404 26.5826 61.6426 27.5793 61.9656 28.2575C62.1269 28.5962 62.2428 28.8542 62.3145 29.0176C62.3503 29.0993 62.3749 29.1572 62.3886 29.1896L62.3966 29.2084Z" stroke="#00A1E4" stroke-width="10"/>
</svg>
