<svg width="734" height="569" viewBox="0 0 734 569" fill="none" xmlns="http://www.w3.org/2000/svg">
<path d="M374.566 32.3335C499.14 16.1286 706.085 100.491 659.436 302.755C612.788 505.019 647.959 486.216 647.959 486.216C649.444 498.292 640.127 509.375 627.15 510.971L399.142 539.011C170.606 547.393 134.829 390.835 126.321 322.936C110.778 198.899 202.618 54.7007 374.566 32.3335Z" fill="#D4E8F9" fill-opacity="0.5"/>
<path d="M383.205 99.8762C495.78 85.2181 623.027 152.149 603.602 295.408C584.177 438.667 603.602 463.908 603.602 463.908C604.807 473.709 596.878 467.985 586.528 469.258L404.682 491.621C222.38 498.031 194.247 383.4 190.743 320.27C183.643 192.336 272.754 114.258 383.205 99.8762Z" fill="#D4E8F9"/>
<path d="M355.991 171.16C355.671 163.28 349.146 157 341.18 157C333.374 157 326.969 163.08 326.408 170.72C320.123 172.72 316 178.96 316 184.68C316 190.32 319.963 199.28 330.611 199.28C334.374 199.28 338.017 197.68 341.14 195.64C342.781 197.28 346.384 200 352.389 200C360.995 200 367 192.32 367 185.4C367 180.44 363.918 172.92 355.991 171.16ZM341.18 160.6C347.024 160.6 351.828 165.08 352.349 170.8C348.626 170.8 344.983 172.4 341.86 174.44C340.219 172.8 336.616 170.08 330.611 170.08C330.451 170.08 330.291 170.08 330.091 170.08C330.932 164.72 335.575 160.6 341.18 160.6ZM352.389 196.4C348.025 196.4 345.383 194.64 344.062 193.48C347.425 190.72 349.827 187.84 350.587 186.92L352.389 188.52L353.99 180.12L345.984 182.92L347.865 184.56C346.864 185.8 338.698 195.72 330.571 195.72C322.485 195.72 319.563 189.16 319.563 184.72C319.563 179.52 324.086 173.72 330.571 173.72C334.935 173.72 337.577 175.48 338.898 176.64C335.535 179.4 333.133 182.28 332.373 183.2L330.571 181.6L328.97 190L336.976 187.2L335.095 185.56C336.096 184.32 344.262 174.4 352.389 174.4C360.475 174.4 363.397 180.96 363.397 185.4C363.397 190.6 358.874 196.4 352.389 196.4Z" fill="#2695F9"/>
<path d="M387.466 187.28C385.646 187.28 384.059 186.988 382.706 186.405C381.352 185.821 380.302 185.005 379.556 183.955C378.832 182.905 378.471 181.668 378.471 180.245V179.37C378.471 179.253 378.506 179.16 378.576 179.09C378.669 178.996 378.774 178.95 378.891 178.95H382.006C382.122 178.95 382.216 178.996 382.286 179.09C382.379 179.16 382.426 179.253 382.426 179.37V180.035C382.426 181.108 382.904 182.006 383.861 182.73C384.817 183.43 386.124 183.78 387.781 183.78C389.204 183.78 390.277 183.476 391.001 182.87C391.724 182.263 392.086 181.481 392.086 180.525C392.086 179.871 391.887 179.323 391.491 178.88C391.094 178.413 390.522 177.993 389.776 177.62C389.052 177.246 387.956 176.78 386.486 176.22C384.829 175.613 383.487 175.041 382.461 174.505C381.434 173.968 380.571 173.245 379.871 172.335C379.194 171.401 378.856 170.246 378.856 168.87C378.856 166.816 379.602 165.195 381.096 164.005C382.589 162.815 384.584 162.22 387.081 162.22C388.831 162.22 390.371 162.523 391.701 163.13C393.054 163.736 394.104 164.588 394.851 165.685C395.597 166.758 395.971 168.006 395.971 169.43V170.025C395.971 170.141 395.924 170.246 395.831 170.34C395.761 170.41 395.667 170.445 395.551 170.445H392.401C392.284 170.445 392.179 170.41 392.086 170.34C392.016 170.246 391.981 170.141 391.981 170.025V169.64C391.981 168.543 391.526 167.621 390.616 166.875C389.729 166.105 388.492 165.72 386.906 165.72C385.622 165.72 384.619 165.988 383.896 166.525C383.196 167.061 382.846 167.82 382.846 168.8C382.846 169.5 383.032 170.071 383.406 170.515C383.779 170.958 384.339 171.366 385.086 171.74C385.832 172.09 386.987 172.545 388.551 173.105C390.207 173.735 391.526 174.306 392.506 174.82C393.509 175.333 394.361 176.056 395.061 176.99C395.784 177.9 396.146 179.043 396.146 180.42C396.146 182.52 395.364 184.188 393.801 185.425C392.261 186.661 390.149 187.28 387.466 187.28Z" fill="#2695F9"/>
<path d="M398.099 193.965C398.029 193.965 397.971 193.918 397.924 193.825C397.878 193.755 397.854 193.661 397.854 193.545V191.025C397.854 190.908 397.889 190.803 397.959 190.71C398.053 190.64 398.158 190.605 398.274 190.605H398.309C399.266 190.581 400.013 190.476 400.549 190.29C401.086 190.126 401.529 189.8 401.879 189.31C402.229 188.82 402.544 188.085 402.824 187.105C402.848 187.058 402.848 186.988 402.824 186.895L397.049 169.57C397.026 169.523 397.014 169.465 397.014 169.395C397.014 169.185 397.131 169.08 397.364 169.08H400.794C401.051 169.08 401.214 169.196 401.284 169.43L404.784 181.75C404.808 181.82 404.843 181.855 404.889 181.855C404.936 181.855 404.971 181.82 404.994 181.75L408.494 169.43C408.564 169.196 408.728 169.08 408.984 169.08H412.309C412.449 169.08 412.543 169.126 412.589 169.22C412.659 169.29 412.671 169.406 412.624 169.57L406.464 187.98C405.881 189.636 405.309 190.873 404.749 191.69C404.189 192.506 403.419 193.09 402.439 193.44C401.483 193.79 400.118 193.965 398.344 193.965H398.099Z" fill="#2695F9"/>
<path d="M422.748 168.835C424.638 168.835 426.143 169.395 427.263 170.515C428.407 171.635 428.978 173.163 428.978 175.1V186.58C428.978 186.696 428.932 186.801 428.838 186.895C428.768 186.965 428.675 187 428.558 187H425.338C425.222 187 425.117 186.965 425.023 186.895C424.953 186.801 424.918 186.696 424.918 186.58V175.94C424.918 174.866 424.615 174.003 424.008 173.35C423.402 172.673 422.597 172.335 421.593 172.335C420.59 172.335 419.773 172.661 419.143 173.315C418.537 173.968 418.233 174.831 418.233 175.905V186.58C418.233 186.696 418.187 186.801 418.093 186.895C418.023 186.965 417.93 187 417.813 187H414.593C414.477 187 414.372 186.965 414.278 186.895C414.208 186.801 414.173 186.696 414.173 186.58V169.535C414.173 169.418 414.208 169.325 414.278 169.255C414.372 169.161 414.477 169.115 414.593 169.115H417.813C417.93 169.115 418.023 169.161 418.093 169.255C418.187 169.325 418.233 169.418 418.233 169.535V170.655C418.233 170.725 418.257 170.771 418.303 170.795C418.35 170.818 418.385 170.795 418.408 170.725C419.365 169.465 420.812 168.835 422.748 168.835Z" fill="#2695F9"/>
<path d="M439.13 187.28C437.333 187.28 435.781 186.825 434.475 185.915C433.168 184.981 432.258 183.733 431.745 182.17C431.371 181.12 431.185 179.72 431.185 177.97C431.185 176.29 431.371 174.913 431.745 173.84C432.235 172.3 433.133 171.086 434.44 170.2C435.77 169.29 437.333 168.835 439.13 168.835C440.95 168.835 442.536 169.29 443.89 170.2C445.243 171.11 446.141 172.253 446.585 173.63C446.701 174.003 446.783 174.376 446.83 174.75V174.82C446.83 175.053 446.701 175.193 446.445 175.24L443.295 175.695H443.225C443.015 175.695 442.875 175.578 442.805 175.345C442.805 175.228 442.793 175.135 442.77 175.065C442.723 174.878 442.676 174.715 442.63 174.575C442.42 173.921 442 173.385 441.37 172.965C440.74 172.545 439.993 172.335 439.13 172.335C438.243 172.335 437.485 172.568 436.855 173.035C436.248 173.478 435.84 174.096 435.63 174.89C435.396 175.636 435.28 176.675 435.28 178.005C435.28 179.288 435.385 180.326 435.595 181.12C435.828 181.936 436.248 182.59 436.855 183.08C437.461 183.546 438.22 183.78 439.13 183.78C440.016 183.78 440.775 183.558 441.405 183.115C442.058 182.648 442.478 182.03 442.665 181.26C442.688 181.213 442.7 181.155 442.7 181.085C442.723 181.061 442.735 181.026 442.735 180.98C442.805 180.7 442.968 180.583 443.225 180.63L446.375 181.12C446.491 181.143 446.585 181.201 446.655 181.295C446.748 181.365 446.783 181.47 446.76 181.61C446.69 181.983 446.631 182.251 446.585 182.415C446.141 183.908 445.243 185.098 443.89 185.985C442.536 186.848 440.95 187.28 439.13 187.28Z" fill="#2695F9"/>
<path d="M457.164 187.28C455.344 187.28 453.757 186.988 452.404 186.405C451.05 185.821 450 185.005 449.254 183.955C448.53 182.905 448.169 181.668 448.169 180.245V179.37C448.169 179.253 448.204 179.16 448.274 179.09C448.367 178.996 448.472 178.95 448.589 178.95H451.704C451.82 178.95 451.914 178.996 451.984 179.09C452.077 179.16 452.124 179.253 452.124 179.37V180.035C452.124 181.108 452.602 182.006 453.559 182.73C454.515 183.43 455.822 183.78 457.479 183.78C458.902 183.78 459.975 183.476 460.699 182.87C461.422 182.263 461.784 181.481 461.784 180.525C461.784 179.871 461.585 179.323 461.189 178.88C460.792 178.413 460.22 177.993 459.474 177.62C458.75 177.246 457.654 176.78 456.184 176.22C454.527 175.613 453.185 175.041 452.159 174.505C451.132 173.968 450.269 173.245 449.569 172.335C448.892 171.401 448.554 170.246 448.554 168.87C448.554 166.816 449.3 165.195 450.794 164.005C452.287 162.815 454.282 162.22 456.779 162.22C458.529 162.22 460.069 162.523 461.399 163.13C462.752 163.736 463.802 164.588 464.549 165.685C465.295 166.758 465.669 168.006 465.669 169.43V170.025C465.669 170.141 465.622 170.246 465.529 170.34C465.459 170.41 465.365 170.445 465.249 170.445H462.099C461.982 170.445 461.877 170.41 461.784 170.34C461.714 170.246 461.679 170.141 461.679 170.025V169.64C461.679 168.543 461.224 167.621 460.314 166.875C459.427 166.105 458.19 165.72 456.604 165.72C455.32 165.72 454.317 165.988 453.594 166.525C452.894 167.061 452.544 167.82 452.544 168.8C452.544 169.5 452.73 170.071 453.104 170.515C453.477 170.958 454.037 171.366 454.784 171.74C455.53 172.09 456.685 172.545 458.249 173.105C459.905 173.735 461.224 174.306 462.204 174.82C463.207 175.333 464.059 176.056 464.759 176.99C465.482 177.9 465.844 179.043 465.844 180.42C465.844 182.52 465.062 184.188 463.499 185.425C461.959 186.661 459.847 187.28 457.164 187.28Z" fill="#484A54"/>
<path d="M468.567 187C468.451 187 468.346 186.965 468.252 186.895C468.182 186.801 468.147 186.696 468.147 186.58V162.92C468.147 162.803 468.182 162.71 468.252 162.64C468.346 162.546 468.451 162.5 468.567 162.5H471.787C471.904 162.5 471.997 162.546 472.067 162.64C472.161 162.71 472.207 162.803 472.207 162.92V186.58C472.207 186.696 472.161 186.801 472.067 186.895C471.997 186.965 471.904 187 471.787 187H468.567Z" fill="#484A54"/>
<path d="M483.696 168.835C485.586 168.835 487.091 169.395 488.211 170.515C489.355 171.635 489.926 173.163 489.926 175.1V186.58C489.926 186.696 489.88 186.801 489.786 186.895C489.716 186.965 489.623 187 489.506 187H486.286C486.17 187 486.065 186.965 485.971 186.895C485.901 186.801 485.866 186.696 485.866 186.58V175.94C485.866 174.866 485.563 174.003 484.956 173.35C484.35 172.673 483.545 172.335 482.541 172.335C481.538 172.335 480.721 172.661 480.091 173.315C479.485 173.968 479.181 174.831 479.181 175.905V186.58C479.181 186.696 479.135 186.801 479.041 186.895C478.971 186.965 478.878 187 478.761 187H475.541C475.425 187 475.32 186.965 475.226 186.895C475.156 186.801 475.121 186.696 475.121 186.58V169.535C475.121 169.418 475.156 169.325 475.226 169.255C475.32 169.161 475.425 169.115 475.541 169.115H478.761C478.878 169.115 478.971 169.161 479.041 169.255C479.135 169.325 479.181 169.418 479.181 169.535V170.655C479.181 170.725 479.205 170.771 479.251 170.795C479.298 170.818 479.333 170.795 479.356 170.725C480.313 169.465 481.76 168.835 483.696 168.835Z" fill="#484A54"/>
<path d="M603 311.145H630.16C641.205 311.145 650.16 302.19 650.16 291.145V282.145C650.16 271.099 659.114 262.145 670.16 262.145H725" stroke="#003A74" stroke-dasharray="5 5"/>
<path d="M207 384L119 384C107.954 384 99 392.954 99 404L99 417.5" stroke="#003A74" stroke-dasharray="5 5"/>
<path d="M593 384.462L613 384.462L633 384.462" stroke="#003A74" stroke-dasharray="5 5"/>
<path d="M593 198.462L613 198.462L686 198.462C697.046 198.462 706 189.508 706 178.462L706 161" stroke="#003A74" stroke-dasharray="5 5"/>
<path d="M78.2561 210.331H107.777C118.822 210.331 127.777 219.285 127.777 230.331V263.045C127.777 273.122 135.273 281.625 145.271 282.887L162 285L190.719 286.231" stroke="#003A74" stroke-dasharray="5 5"/>
<circle opacity="0.7" cx="4.62809" cy="4.62809" r="4.62809" transform="matrix(-1 0 0 1 78.2559 206)" fill="#003A74"/>
<circle cx="26" cy="208" r="26" fill="white"/>
<circle cx="26" cy="208" r="24.5" stroke="#003A74" stroke-opacity="0.3" stroke-width="3"/>
<g filter="url(#filter0_d_2202_5410)">
<path d="M33.5804 211.742L31.3429 209.51C30.5438 208.712 29.1853 209.031 28.8656 210.068C28.6259 210.785 27.8267 211.184 27.1075 211.025C25.5093 210.626 23.3517 208.553 22.9521 206.878C22.7124 206.16 23.1918 205.363 23.911 205.124C24.9499 204.805 25.2696 203.449 24.4704 202.652L22.2329 200.419C21.5936 199.86 20.6346 199.86 20.0752 200.419L18.5569 201.934C17.0386 203.529 18.7167 207.755 22.4726 211.503C26.2285 215.251 30.4639 217.006 32.0621 215.411L33.5804 213.895C34.1399 213.258 34.1399 212.301 33.5804 211.742Z" fill="#003A74"/>
</g>
<circle opacity="0.4" cx="103" cy="457" r="23" fill="#003A74" stroke="#003A74" stroke-width="6"/>
<path d="M102.666 446C98.4384 446 94.999 449.439 94.999 453.667C94.999 454.936 95.3163 456.194 95.9195 457.31L102.246 468.753C102.331 468.905 102.491 469 102.666 469C102.84 469 103.001 468.905 103.085 468.753L109.414 457.306C110.015 456.194 110.332 454.936 110.332 453.667C110.332 449.439 106.893 446 102.666 446ZM102.666 457.5C100.552 457.5 98.8324 455.78 98.8324 453.667C98.8324 451.553 100.552 449.833 102.666 449.833C104.779 449.833 106.499 451.553 106.499 453.667C106.499 455.78 104.779 457.5 102.666 457.5Z" fill="white"/>
<circle cx="689.5" cy="388.5" r="25.5" fill="white"/>
<circle cx="689.5" cy="388.5" r="24" stroke="#003A74" stroke-opacity="0.3" stroke-width="3"/>
<g clip-path="url(#clip0_2202_5410)">
<path d="M690.039 387.203C689.07 387.203 688.281 387.992 688.281 388.961C688.281 389.93 689.07 390.719 690.039 390.719C691.008 390.719 691.797 389.93 691.797 388.961C691.797 387.992 691.008 387.203 690.039 387.203Z" fill="#003A74"/>
<path d="M689.961 379C684.468 379 680 383.468 680 388.961C680 394.454 684.468 399 689.961 399C695.454 399 700 394.454 700 388.961C700 383.468 695.454 379 689.961 379ZM694.141 391.891C693.349 391.891 692.65 391.494 692.226 390.891C691.689 391.499 690.912 391.891 690.039 391.891C688.424 391.891 687.109 390.576 687.109 388.961C687.109 387.346 688.424 386.031 690.039 386.031C690.701 386.031 691.306 386.26 691.797 386.632V386.617C691.797 386.293 692.059 386.031 692.383 386.031C692.707 386.031 692.969 386.293 692.969 386.617C692.969 387.92 692.969 388.243 692.969 389.547C692.969 390.193 693.495 390.719 694.141 390.719C694.787 390.719 695.312 390.193 695.312 389.547C695.312 385.625 692.717 383.688 690.039 383.688C687.131 383.688 684.766 386.053 684.766 388.961C684.766 391.869 687.131 394.234 690.039 394.234C691.211 394.234 692.319 393.859 693.245 393.148C693.863 392.677 694.57 393.608 693.959 394.078C692.826 394.947 691.471 395.406 690.039 395.406C686.485 395.406 683.594 392.515 683.594 388.961C683.594 385.407 686.485 382.516 690.039 382.516C693.277 382.516 696.484 384.904 696.484 389.547C696.484 390.839 695.433 391.891 694.141 391.891Z" fill="#003A74"/>
</g>
<path opacity="0.4" d="M731 112.744C731 126.986 719.559 138.487 705.5 138.487C691.441 138.487 680 126.986 680 112.744C680 98.5017 691.441 87 705.5 87C719.559 87 731 98.5017 731 112.744Z" fill="#003A74" stroke="#003A74" stroke-width="6"/>
<g filter="url(#filter1_d_2202_5410)">
<path d="M713.58 116.742L711.343 114.51C710.544 113.712 709.185 114.031 708.866 115.068C708.626 115.785 707.827 116.184 707.108 116.025C705.509 115.626 703.352 113.553 702.952 111.878C702.712 111.16 703.192 110.363 703.911 110.124C704.95 109.805 705.27 108.449 704.47 107.652L702.233 105.419C701.594 104.86 700.635 104.86 700.075 105.419L698.557 106.934C697.039 108.529 698.717 112.755 702.473 116.503C706.229 120.251 710.464 122.006 712.062 120.411L713.58 118.895C714.14 118.258 714.14 117.301 713.58 116.742Z" fill="white"/>
</g>
<circle opacity="0.7" cx="4.62809" cy="4.62809" r="4.62809" transform="matrix(-1 0 0 1 642.732 380)" fill="#003A74"/>
<circle cx="4.62809" cy="4.62809" r="4.62809" transform="matrix(-1 0 0 1 710.256 154)" fill="#003A74"/>
<circle cx="4.62809" cy="4.62809" r="4.62809" transform="matrix(-1 0 0 1 729.732 258)" fill="#003A74"/>
<path d="M552.37 305.23H551.37V248.62C551.37 244.88 548.32 241.83 544.58 241.83H428.53C424.24 241.83 420.74 238.34 420.74 234.04V212H421.74V234.04C421.74 237.78 424.79 240.83 428.53 240.83H544.58C548.87 240.83 552.37 244.32 552.37 248.62V305.23Z" fill="url(#paint0_linear_2202_5410)"/>
<path d="M458.74 305.23H457.74V254.62C457.74 250.88 454.69 247.83 450.95 247.83H428.33C421.35 247.83 415.67 242.15 415.67 235.17V218.83H416.67V235.17C416.67 241.6 421.9 246.83 428.33 246.83H450.95C455.24 246.83 458.74 250.32 458.74 254.62V305.23Z" fill="url(#paint1_linear_2202_5410)"/>
<path d="M270 305.23H271V248.62C271 244.88 274.05 241.83 277.79 241.83H393.84C398.13 241.83 401.63 238.34 401.63 234.04V212H400.63V234.04C400.63 237.78 397.58 240.83 393.84 240.83H277.79C273.5 240.83 270 244.32 270 248.62V305.23Z" fill="url(#paint2_linear_2202_5410)"/>
<path d="M363.63 305.23H364.63V254.62C364.63 250.88 367.68 247.83 371.42 247.83H394.04C401.02 247.83 406.7 242.15 406.7 235.17V218.83H405.7V235.17C405.7 241.6 400.47 246.83 394.04 246.83H371.42C367.13 246.83 363.63 250.32 363.63 254.62V305.23Z" fill="url(#paint3_linear_2202_5410)"/>
<g filter="url(#filter2_f_2202_5410)">
<path d="M352.1 240.74C352.39 240.24 353.03 240.07 353.54 240.36C354.04 240.65 354.21 241.29 353.92 241.8C353.63 242.3 352.99 242.47 352.48 242.18C351.99 241.88 351.81 241.24 352.1 240.74Z" fill="#029EE1" fill-opacity="0.74"/>
</g>
<g filter="url(#filter3_f_2202_5410)">
<path d="M377.649 240.74C377.939 240.24 378.579 240.07 379.089 240.36C379.589 240.65 379.759 241.29 379.469 241.8C379.179 242.3 378.539 242.47 378.029 242.18C377.529 241.88 377.359 241.24 377.649 240.74Z" fill="#029EE1" fill-opacity="0.74"/>
</g>
<g filter="url(#filter4_f_2202_5410)">
<path d="M395.579 240.27C395.869 239.77 396.509 239.6 397.019 239.89C397.519 240.18 397.689 240.82 397.399 241.33C397.109 241.84 396.469 242 395.959 241.71C395.449 241.42 395.289 240.77 395.579 240.27Z" fill="#029EE1" fill-opacity="0.74"/>
</g>
<g filter="url(#filter5_f_2202_5410)">
<path d="M416.87 240.27C417.16 239.77 417.8 239.6 418.31 239.89C418.81 240.18 418.98 240.82 418.69 241.33C418.4 241.84 417.76 242 417.25 241.71C416.74 241.42 416.58 240.77 416.87 240.27Z" fill="#029EE1" fill-opacity="0.74"/>
</g>
<g filter="url(#filter6_f_2202_5410)">
<path d="M415.261 226.89C415.551 226.39 416.191 226.22 416.701 226.51C417.201 226.8 417.371 227.44 417.081 227.95C416.791 228.45 416.151 228.62 415.641 228.33C415.141 228.04 414.971 227.4 415.261 226.89Z" fill="#029EE1" fill-opacity="0.74"/>
</g>
<g filter="url(#filter7_f_2202_5410)">
<path d="M400.261 226.74C400.551 226.24 401.191 226.07 401.701 226.36C402.201 226.65 402.371 227.29 402.081 227.8C401.791 228.3 401.151 228.47 400.641 228.18C400.141 227.88 399.971 227.24 400.261 226.74Z" fill="#029EE1" fill-opacity="0.74"/>
</g>
<g opacity="0.4">
<path d="M307.54 348.48H291.95L274.59 338.46C272.35 337.17 268.45 337.33 265.87 338.82L249.14 348.48H233.56V358.95C233.5 359.82 233.98 360.67 235.06 361.29L266.5 379.44C268.74 380.73 272.64 380.57 275.22 379.08L305.4 361.65C306.74 360.88 307.45 359.9 307.52 358.95H307.53V348.48H307.54Z" fill="#4CC5F8"/>
<path d="M234.549 359.67V349.2H250.129L266.859 339.54C269.439 338.05 273.349 337.89 275.579 339.18L292.939 349.2H307.549V348.48H291.959L274.599 338.46C272.359 337.17 268.459 337.33 265.879 338.82L249.149 348.48H233.569V358.95C233.509 359.82 233.989 360.67 235.069 361.29L235.249 361.39C234.729 360.87 234.499 360.28 234.549 359.67Z" fill="#50B9F0"/>
<path opacity="0.4" d="M266.5 368.971L235.06 350.821C232.82 349.531 233.11 347.281 235.69 345.791L265.87 328.361C268.45 326.871 272.36 326.711 274.59 328.001L306.03 346.151C308.27 347.441 307.99 349.691 305.4 351.191L275.22 368.621C272.64 370.101 268.74 370.261 266.5 368.971Z" fill="#49A3FE"/>
<path opacity="0.4" d="M306.03 346.151L274.59 328.001C273.43 327.331 271.83 327.061 270.19 327.151C271.38 327.221 272.5 327.501 273.36 328.001L304.8 346.151C307.04 347.441 306.75 349.691 304.17 351.191L273.99 368.621C272.75 369.341 271.19 369.741 269.67 369.831C271.56 369.941 273.64 369.531 275.22 368.621L305.4 351.191C307.99 349.691 308.27 347.441 306.03 346.151Z" fill="#6EE8FC"/>
<path opacity="0.4" d="M270.35 364.65C269.24 364.65 268.189 364.43 267.399 363.97L243.99 350.46C243.18 349.99 242.729 349.33 242.729 348.6C242.729 347.74 243.359 346.88 244.449 346.25L266.919 333.28C268.909 332.13 271.939 332.01 273.679 333.01L297.089 346.52C297.899 346.99 298.35 347.65 298.35 348.38C298.35 349.24 297.72 350.1 296.63 350.73L274.16 363.7C273.069 364.33 271.68 364.65 270.35 364.65ZM270.74 332.85C269.51 332.85 268.209 333.15 267.199 333.73L244.729 346.7C243.809 347.23 243.27 347.92 243.27 348.59C243.27 349.12 243.619 349.62 244.259 349.99L267.669 363.5C269.259 364.42 272.049 364.29 273.889 363.23L296.359 350.26C297.279 349.73 297.809 349.04 297.809 348.37C297.809 347.84 297.46 347.34 296.82 346.97L273.41 333.46C272.709 333.05 271.75 332.85 270.74 332.85Z" fill="#480689"/>
<path opacity="0.4" d="M267.91 368.97L236.47 350.82C234.23 349.53 234.52 347.28 237.1 345.79L267.28 328.36C268.51 327.65 270.03 327.25 271.53 327.15C269.61 327.01 267.48 327.43 265.87 328.36L235.69 345.79C233.11 347.28 232.83 349.53 235.06 350.82L266.5 368.97C267.67 369.65 269.31 369.92 270.97 369.82C269.82 369.73 268.75 369.45 267.91 368.97Z" fill="#029EE1"/>
</g>
<g opacity="0.5">
<path d="M307.54 334.07H291.95L274.59 324.05C272.35 322.76 268.45 322.92 265.87 324.41L249.14 334.07H233.56V344.54C233.5 345.41 233.98 346.26 235.06 346.88L266.5 365.03C268.74 366.32 272.64 366.16 275.22 364.67L305.4 347.24C306.74 346.47 307.45 345.49 307.52 344.54H307.53V334.07H307.54Z" fill="#4CC5F8"/>
<path d="M234.549 345.251V334.781H250.129L266.859 325.121C269.439 323.631 273.349 323.471 275.579 324.761L292.939 334.781H307.549V334.061H291.959L274.599 324.041C272.359 322.751 268.459 322.911 265.879 324.401L249.149 334.061H233.569V344.531C233.509 345.401 233.989 346.251 235.069 346.871L235.249 346.971C234.729 346.461 234.499 345.861 234.549 345.251Z" fill="#50B9F0"/>
<path opacity="0.4" d="M266.5 354.551L235.06 336.401C232.82 335.111 233.11 332.861 235.69 331.371L265.87 313.941C268.45 312.451 272.36 312.291 274.59 313.581L306.03 331.731C308.27 333.021 307.99 335.271 305.4 336.761L275.22 354.191C272.64 355.681 268.74 355.841 266.5 354.551Z" fill="#49A3FE"/>
<path opacity="0.5" d="M306.03 331.731L274.59 313.581C273.43 312.911 271.83 312.641 270.19 312.731C271.38 312.801 272.5 313.081 273.36 313.581L304.8 331.731C307.04 333.021 306.75 335.271 304.17 336.761L273.99 354.191C272.75 354.911 271.19 355.311 269.67 355.401C271.56 355.511 273.64 355.101 275.22 354.191L305.4 336.761C307.99 335.271 308.27 333.021 306.03 331.731Z" fill="#6EE8FC"/>
<path opacity="0.5" d="M270.35 350.23C269.24 350.23 268.189 350.01 267.399 349.55L243.99 336.04C243.18 335.57 242.729 334.91 242.729 334.18C242.729 333.32 243.359 332.46 244.449 331.83L266.919 318.86C268.909 317.71 271.949 317.59 273.679 318.59L297.089 332.1C297.899 332.57 298.35 333.23 298.35 333.96C298.35 334.82 297.72 335.68 296.63 336.31L274.16 349.28C273.069 349.91 271.68 350.23 270.35 350.23ZM270.74 318.43C269.51 318.43 268.209 318.73 267.199 319.31L244.729 332.28C243.809 332.81 243.27 333.5 243.27 334.17C243.27 334.7 243.619 335.2 244.259 335.56L267.669 349.07C269.259 349.99 272.049 349.86 273.889 348.8L296.359 335.84C297.279 335.31 297.809 334.62 297.809 333.95C297.809 333.42 297.46 332.92 296.82 332.55L273.41 319.04C272.709 318.63 271.75 318.43 270.74 318.43Z" fill="#480689"/>
<path d="M267.91 354.55L236.47 336.4C234.23 335.11 234.52 332.86 237.1 331.37L267.28 313.94C268.51 313.23 270.03 312.83 271.53 312.73C269.61 312.59 267.48 313.01 265.87 313.94L235.69 331.37C233.11 332.86 232.83 335.11 235.06 336.4L266.5 354.55C267.67 355.23 269.31 355.5 270.97 355.4C269.82 355.32 268.75 355.04 267.91 354.55Z" fill="#50B9F0"/>
</g>
<g opacity="0.7">
<path d="M307.54 319.649H291.95L274.59 309.629C272.35 308.339 268.45 308.499 265.87 309.989L249.14 319.649H233.56V330.119C233.5 330.989 233.98 331.839 235.06 332.459L266.5 350.609C268.74 351.899 272.64 351.739 275.22 350.249L305.4 332.819C306.74 332.049 307.45 331.069 307.52 330.119H307.53V319.649H307.54Z" fill="#4CC5F8"/>
<path d="M234.549 330.839V320.369H250.129L266.859 310.709C269.439 309.219 273.349 309.059 275.579 310.349L292.939 320.369H307.549V319.649H291.959L274.599 309.629C272.359 308.339 268.459 308.499 265.879 309.989L249.149 319.649H233.569V330.119C233.509 330.989 233.989 331.839 235.069 332.459L235.249 332.559C234.729 332.039 234.499 331.449 234.549 330.839Z" fill="#50B9F0"/>
<path opacity="0.4" d="M266.5 340.139L235.06 321.989C232.82 320.699 233.11 318.449 235.69 316.959L265.87 299.529C268.45 298.039 272.36 297.879 274.59 299.169L306.03 317.319C308.27 318.609 307.99 320.859 305.4 322.359L275.22 339.789C272.64 341.259 268.74 341.429 266.5 340.139Z" fill="#49A3FE"/>
<path opacity="0.7" d="M306.03 317.31L274.59 299.16C273.43 298.49 271.83 298.22 270.19 298.31C271.38 298.38 272.5 298.66 273.36 299.16L304.8 317.31C307.04 318.6 306.75 320.85 304.17 322.35L273.99 339.78C272.75 340.5 271.19 340.9 269.67 340.99C271.56 341.1 273.64 340.69 275.22 339.78L305.4 322.35C307.99 320.86 308.27 318.6 306.03 317.31Z" fill="#6EE8FC"/>
<path opacity="0.7" d="M270.35 335.809C269.24 335.809 268.189 335.589 267.399 335.129L243.99 321.619C243.18 321.149 242.729 320.489 242.729 319.759C242.729 318.899 243.359 318.039 244.449 317.409L266.919 304.439C268.909 303.289 271.949 303.169 273.679 304.169L297.089 317.679C297.899 318.149 298.35 318.809 298.35 319.539C298.35 320.399 297.72 321.259 296.63 321.889L274.16 334.859C273.069 335.489 271.68 335.809 270.35 335.809ZM270.74 304.009C269.51 304.009 268.209 304.309 267.199 304.889L244.729 317.859C243.809 318.389 243.27 319.079 243.27 319.749C243.27 320.279 243.619 320.779 244.259 321.149L267.669 334.659C269.259 335.579 272.049 335.449 273.889 334.389L296.359 321.419C297.279 320.889 297.809 320.199 297.809 319.529C297.809 318.999 297.46 318.499 296.82 318.129L273.41 304.619C272.709 304.219 271.75 304.009 270.74 304.009Z" fill="#480689"/>
<path d="M267.91 340.14L236.47 321.99C234.23 320.7 234.52 318.45 237.1 316.95L267.28 299.52C268.51 298.81 270.03 298.41 271.53 298.31C269.61 298.17 267.48 298.59 265.87 299.52L235.69 316.95C233.11 318.44 232.83 320.69 235.06 321.99L266.5 340.14C267.67 340.82 269.31 341.09 270.97 340.99C269.82 340.9 268.75 340.62 267.91 340.14Z" fill="#50B9F0"/>
</g>
<path d="M307.54 305.23H291.95L274.59 295.209C272.35 293.919 268.45 294.079 265.87 295.569L249.14 305.23H233.56V315.699C233.5 316.569 233.98 317.42 235.06 318.04L266.5 336.19C268.74 337.48 272.64 337.319 275.22 335.829L305.4 318.399C306.74 317.629 307.45 316.649 307.52 315.699H307.53V305.23H307.54Z" fill="url(#paint4_linear_2202_5410)"/>
<path d="M234.549 316.419V305.95H250.129L266.859 296.289C269.439 294.799 273.349 294.639 275.579 295.929L292.939 305.95H307.549V305.23H291.959L274.599 295.209C272.359 293.919 268.459 294.079 265.879 295.569L249.149 305.23H233.569V315.699C233.509 316.569 233.989 317.42 235.069 318.04L235.249 318.139C234.729 317.619 234.499 317.029 234.549 316.419Z" fill="#50B9F0"/>
<path d="M266.5 325.72L235.06 307.57C232.82 306.28 233.11 304.03 235.69 302.54L265.87 285.11C268.45 283.62 272.36 283.46 274.59 284.75L306.03 302.9C308.27 304.19 307.99 306.44 305.4 307.93L275.22 325.36C272.64 326.85 268.74 327.01 266.5 325.72Z" fill="url(#paint5_linear_2202_5410)"/>
<path d="M306.03 302.89L274.59 284.74C273.43 284.07 271.83 283.8 270.19 283.89C271.38 283.96 272.5 284.24 273.36 284.74L304.8 302.89C307.04 304.18 306.75 306.43 304.17 307.93L273.99 325.36C272.75 326.08 271.19 326.48 269.67 326.57C271.56 326.68 273.64 326.27 275.22 325.36L305.4 307.93C307.99 306.44 308.27 304.18 306.03 302.89Z" fill="#6EE8FC"/>
<path d="M270.35 321.39C269.24 321.39 268.189 321.17 267.399 320.71L243.99 307.2C243.18 306.73 242.729 306.07 242.729 305.34C242.729 304.48 243.359 303.62 244.449 302.99L266.919 290.02C268.909 288.87 271.939 288.75 273.679 289.75L297.089 303.26C297.899 303.73 298.35 304.39 298.35 305.12C298.35 305.98 297.72 306.84 296.63 307.47L274.16 320.44C273.069 321.07 271.68 321.39 270.35 321.39ZM270.74 289.59C269.51 289.59 268.209 289.89 267.199 290.47L244.729 303.44C243.809 303.98 243.27 304.66 243.27 305.33C243.27 305.86 243.619 306.36 244.259 306.73L267.669 320.24C269.259 321.16 272.049 321.03 273.889 319.97L296.359 307C297.279 306.47 297.819 305.78 297.809 305.11C297.809 304.58 297.46 304.08 296.82 303.72L273.41 290.21C272.709 289.8 271.75 289.59 270.74 289.59Z" fill="url(#paint6_linear_2202_5410)"/>
<path d="M267.91 325.719L236.47 307.569C234.23 306.279 234.52 304.029 237.1 302.539L267.28 285.109C268.51 284.399 270.03 283.999 271.53 283.899C269.61 283.759 267.48 284.179 265.87 285.109L235.69 302.539C233.11 304.029 232.83 306.279 235.06 307.569L266.5 325.719C267.67 326.399 269.31 326.669 270.97 326.569C269.82 326.479 268.75 326.199 267.91 325.719Z" fill="#25BFEC"/>
<path d="M276.12 331.55L302.71 316.17C302.95 316.03 303.15 315.65 303.15 315.33V314.07C303.15 313.75 302.95 313.6 302.71 313.74L276.12 329.12C275.88 329.26 275.68 329.64 275.68 329.96V331.22C275.68 331.54 275.87 331.69 276.12 331.55Z" fill="#D4ECFF"/>
<path d="M302.13 315.83C302.37 315.69 302.57 315.31 302.57 314.99V313.81L302.71 313.73C302.95 313.59 303.15 313.74 303.15 314.06V315.32C303.15 315.64 302.95 316.02 302.71 316.16L276.12 331.54C275.88 331.68 275.68 331.53 275.68 331.21V331.13L302.13 315.83Z" fill="#267FE5"/>
<g opacity="0.4">
<path d="M401.171 348.48H385.581L368.221 338.46C365.981 337.17 362.081 337.33 359.501 338.82L342.771 348.48H327.191V358.95C327.131 359.82 327.611 360.67 328.691 361.29L360.131 379.44C362.371 380.73 366.271 380.57 368.851 379.08L399.031 361.65C400.371 360.88 401.081 359.9 401.151 358.95H401.161V348.48H401.171Z" fill="#4CC5F8"/>
<path d="M328.18 359.67V349.2H343.76L360.49 339.54C363.07 338.05 366.98 337.89 369.21 339.18L386.57 349.2H401.18V348.48H385.59L368.23 338.46C365.99 337.17 362.09 337.33 359.51 338.82L342.78 348.48H327.2V358.95C327.14 359.82 327.62 360.67 328.7 361.29L328.88 361.39C328.37 360.87 328.14 360.28 328.18 359.67Z" fill="#50B9F0"/>
<path opacity="0.4" d="M360.131 368.971L328.691 350.821C326.451 349.531 326.741 347.281 329.321 345.791L359.501 328.361C362.081 326.871 365.991 326.711 368.221 328.001L399.661 346.151C401.901 347.441 401.611 349.691 399.031 351.191L368.851 368.621C366.271 370.101 362.371 370.261 360.131 368.971Z" fill="#49A3FE"/>
<path opacity="0.4" d="M399.661 346.151L368.221 328.001C367.061 327.331 365.461 327.061 363.821 327.151C365.011 327.221 366.131 327.501 366.991 328.001L398.431 346.151C400.671 347.441 400.391 349.691 397.801 351.191L367.621 368.621C366.381 369.341 364.821 369.741 363.301 369.831C365.191 369.941 367.271 369.531 368.851 368.621L399.031 351.191C401.621 349.691 401.901 347.441 399.661 346.151Z" fill="#6EE8FC"/>
<path opacity="0.4" d="M363.98 364.65C362.87 364.65 361.82 364.43 361.03 363.97L337.62 350.46C336.81 349.99 336.36 349.33 336.36 348.6C336.36 347.74 336.99 346.88 338.08 346.25L360.55 333.28C362.54 332.13 365.58 332.01 367.31 333.01L390.72 346.52C391.53 346.99 391.98 347.65 391.98 348.38C391.98 349.24 391.35 350.1 390.26 350.73L367.79 363.7C366.71 364.33 365.31 364.65 363.98 364.65ZM364.37 332.85C363.14 332.85 361.84 333.15 360.83 333.73L338.36 346.7C337.44 347.23 336.9 347.92 336.9 348.59C336.9 349.12 337.25 349.62 337.89 349.99L361.3 363.5C362.89 364.42 365.68 364.29 367.52 363.23L390 350.26C390.92 349.73 391.45 349.04 391.45 348.37C391.45 347.84 391.1 347.34 390.46 346.97L367.05 333.46C366.34 333.05 365.38 332.85 364.37 332.85Z" fill="#480689"/>
<path opacity="0.4" d="M361.54 368.97L330.1 350.82C327.86 349.53 328.14 347.28 330.73 345.79L360.91 328.36C362.14 327.65 363.66 327.25 365.16 327.15C363.24 327.01 361.11 327.43 359.5 328.36L329.32 345.79C326.74 347.28 326.46 349.53 328.69 350.82L360.13 368.97C361.3 369.65 362.94 369.92 364.6 369.82C363.45 369.73 362.38 369.45 361.54 368.97Z" fill="#029EE1"/>
</g>
<g opacity="0.5">
<path d="M401.171 334.07H385.581L368.221 324.05C365.981 322.76 362.081 322.92 359.501 324.41L342.771 334.07H327.191V344.54C327.131 345.41 327.611 346.26 328.691 346.88L360.131 365.03C362.371 366.32 366.271 366.16 368.851 364.67L399.031 347.24C400.371 346.47 401.081 345.49 401.151 344.54H401.161V334.07H401.171Z" fill="#4CC5F8"/>
<path d="M328.18 345.251V334.781H343.76L360.49 325.121C363.07 323.631 366.98 323.471 369.21 324.761L386.57 334.781H401.18V334.061H385.59L368.23 324.041C365.99 322.751 362.09 322.911 359.51 324.401L342.78 334.061H327.2V344.531C327.14 345.401 327.62 346.251 328.7 346.871L328.88 346.971C328.37 346.461 328.14 345.861 328.18 345.251Z" fill="#50B9F0"/>
<path opacity="0.4" d="M360.131 354.551L328.691 336.401C326.451 335.111 326.741 332.861 329.321 331.371L359.501 313.941C362.081 312.451 365.991 312.291 368.221 313.581L399.661 331.731C401.901 333.021 401.611 335.271 399.031 336.761L368.851 354.191C366.271 355.681 362.371 355.841 360.131 354.551Z" fill="#49A3FE"/>
<path opacity="0.5" d="M399.661 331.731L368.221 313.581C367.061 312.911 365.461 312.641 363.821 312.731C365.011 312.801 366.131 313.081 366.991 313.581L398.431 331.731C400.671 333.021 400.391 335.271 397.801 336.761L367.621 354.191C366.381 354.911 364.821 355.311 363.301 355.401C365.191 355.511 367.271 355.101 368.851 354.191L399.031 336.761C401.621 335.271 401.901 333.021 399.661 331.731Z" fill="#6EE8FC"/>
<path opacity="0.5" d="M363.98 350.23C362.87 350.23 361.82 350.01 361.03 349.55L337.62 336.04C336.81 335.57 336.36 334.91 336.36 334.18C336.36 333.32 336.99 332.46 338.08 331.83L360.55 318.86C362.54 317.71 365.58 317.59 367.31 318.59L390.72 332.1C391.53 332.57 391.98 333.23 391.98 333.96C391.98 334.82 391.35 335.68 390.26 336.31L367.79 349.28C366.71 349.91 365.31 350.23 363.98 350.23ZM364.37 318.43C363.14 318.43 361.84 318.73 360.83 319.31L338.36 332.28C337.44 332.81 336.9 333.5 336.9 334.17C336.9 334.7 337.25 335.2 337.89 335.56L361.3 349.07C362.89 349.99 365.68 349.86 367.52 348.8L390 335.84C390.92 335.31 391.45 334.62 391.45 333.95C391.45 333.42 391.1 332.92 390.46 332.55L367.05 319.04C366.34 318.63 365.38 318.43 364.37 318.43Z" fill="#480689"/>
<path d="M361.54 354.55L330.1 336.4C327.86 335.11 328.14 332.86 330.73 331.37L360.91 313.94C362.14 313.23 363.66 312.83 365.16 312.73C363.24 312.59 361.11 313.01 359.5 313.94L329.32 331.37C326.74 332.86 326.46 335.11 328.69 336.4L360.13 354.55C361.3 355.23 362.94 355.5 364.6 355.4C363.45 355.32 362.38 355.04 361.54 354.55Z" fill="#50B9F0"/>
</g>
<g opacity="0.7">
<path d="M401.171 319.649H385.581L368.221 309.629C365.981 308.339 362.081 308.499 359.501 309.989L342.771 319.649H327.191V330.119C327.131 330.989 327.611 331.839 328.691 332.459L360.131 350.609C362.371 351.899 366.271 351.739 368.851 350.249L399.031 332.819C400.371 332.049 401.081 331.069 401.151 330.119H401.161V319.649H401.171Z" fill="#4CC5F8"/>
<path d="M328.18 330.839V320.369H343.76L360.49 310.709C363.07 309.219 366.98 309.059 369.21 310.349L386.57 320.369H401.18V319.649H385.59L368.23 309.629C365.99 308.339 362.09 308.499 359.51 309.989L342.78 319.649H327.2V330.119C327.14 330.989 327.62 331.839 328.7 332.459L328.88 332.559C328.37 332.039 328.14 331.449 328.18 330.839Z" fill="#50B9F0"/>
<path opacity="0.4" d="M360.131 340.139L328.691 321.989C326.451 320.699 326.741 318.449 329.321 316.959L359.501 299.529C362.081 298.039 365.991 297.879 368.221 299.169L399.661 317.319C401.901 318.609 401.611 320.859 399.031 322.359L368.851 339.789C366.271 341.259 362.371 341.429 360.131 340.139Z" fill="#49A3FE"/>
<path opacity="0.7" d="M399.661 317.31L368.221 299.16C367.061 298.49 365.461 298.22 363.821 298.31C365.011 298.38 366.131 298.66 366.991 299.16L398.431 317.31C400.671 318.6 400.391 320.85 397.801 322.35L367.621 339.78C366.381 340.5 364.821 340.9 363.301 340.99C365.191 341.1 367.271 340.69 368.851 339.78L399.031 322.35C401.621 320.86 401.901 318.6 399.661 317.31Z" fill="#6EE8FC"/>
<path opacity="0.7" d="M363.99 335.809C362.88 335.809 361.83 335.589 361.04 335.129L337.63 321.619C336.82 321.149 336.37 320.489 336.37 319.759C336.37 318.899 337 318.039 338.09 317.409L360.56 304.439C362.55 303.289 365.59 303.169 367.32 304.169L390.73 317.679C391.54 318.149 391.99 318.809 391.99 319.539C391.99 320.399 391.36 321.259 390.27 321.889L367.8 334.859C366.71 335.489 365.31 335.809 363.99 335.809ZM364.37 304.009C363.14 304.009 361.84 304.309 360.83 304.889L338.36 317.859C337.44 318.389 336.9 319.079 336.9 319.749C336.9 320.279 337.25 320.779 337.89 321.149L361.3 334.659C362.89 335.579 365.68 335.449 367.52 334.389L390 321.419C390.92 320.889 391.45 320.199 391.45 319.529C391.45 318.999 391.1 318.499 390.46 318.129L367.05 304.619C366.34 304.219 365.38 304.009 364.37 304.009Z" fill="#480689"/>
<path d="M361.54 340.14L330.1 321.99C327.86 320.7 328.14 318.45 330.73 316.95L360.91 299.52C362.14 298.81 363.66 298.41 365.16 298.31C363.24 298.17 361.11 298.59 359.5 299.52L329.32 316.95C326.74 318.44 326.46 320.69 328.69 321.99L360.13 340.14C361.3 340.82 362.94 341.09 364.6 340.99C363.45 340.9 362.38 340.62 361.54 340.14Z" fill="#50B9F0"/>
</g>
<path d="M401.171 305.23H385.581L368.221 295.209C365.981 293.919 362.081 294.079 359.501 295.569L342.771 305.23H327.191V315.699C327.131 316.569 327.611 317.42 328.691 318.04L360.131 336.19C362.371 337.48 366.271 337.319 368.851 335.829L399.031 318.399C400.371 317.629 401.081 316.649 401.151 315.699H401.161V305.23H401.171Z" fill="url(#paint7_linear_2202_5410)"/>
<path d="M328.18 316.419V305.95H343.76L360.49 296.289C363.07 294.799 366.98 294.639 369.21 295.929L386.57 305.95H401.18V305.23H385.59L368.23 295.209C365.99 293.919 362.09 294.079 359.51 295.569L342.78 305.23H327.2V315.699C327.14 316.569 327.62 317.42 328.7 318.04L328.88 318.139C328.37 317.619 328.14 317.029 328.18 316.419Z" fill="#50B9F0"/>
<path d="M360.131 325.72L328.691 307.57C326.451 306.28 326.741 304.03 329.321 302.54L359.501 285.11C362.081 283.62 365.991 283.46 368.221 284.75L399.661 302.9C401.901 304.19 401.611 306.44 399.031 307.93L368.851 325.36C366.271 326.85 362.371 327.01 360.131 325.72Z" fill="url(#paint8_linear_2202_5410)"/>
<path d="M399.661 302.89L368.221 284.74C367.061 284.07 365.461 283.8 363.821 283.89C365.011 283.96 366.131 284.24 366.991 284.74L398.431 302.89C400.671 304.18 400.391 306.43 397.801 307.93L367.621 325.36C366.381 326.08 364.821 326.48 363.301 326.57C365.191 326.68 367.271 326.27 368.851 325.36L399.031 307.93C401.621 306.44 401.901 304.18 399.661 302.89Z" fill="#6EE8FC"/>
<path d="M363.99 321.39C362.88 321.39 361.83 321.17 361.04 320.71L337.63 307.2C336.82 306.73 336.37 306.07 336.37 305.34C336.37 304.48 337 303.62 338.09 302.99L360.56 290.02C362.55 288.87 365.59 288.75 367.32 289.75L390.73 303.26C391.54 303.73 391.99 304.39 391.99 305.12C391.99 305.98 391.36 306.84 390.27 307.47L367.8 320.44C366.71 321.07 365.31 321.39 363.99 321.39ZM364.37 289.59C363.14 289.59 361.84 289.89 360.83 290.47L338.36 303.44C337.44 303.98 336.9 304.66 336.9 305.33C336.9 305.86 337.25 306.36 337.89 306.73L361.3 320.24C362.89 321.16 365.68 321.03 367.52 319.97L390 307.01C390.92 306.48 391.46 305.79 391.45 305.12C391.45 304.59 391.1 304.09 390.46 303.73L367.05 290.22C366.34 289.8 365.38 289.59 364.37 289.59Z" fill="url(#paint9_linear_2202_5410)"/>
<path d="M361.54 325.719L330.1 307.569C327.86 306.279 328.14 304.029 330.73 302.539L360.91 285.109C362.14 284.399 363.66 283.999 365.16 283.899C363.24 283.759 361.11 284.179 359.5 285.109L329.32 302.539C326.74 304.029 326.46 306.279 328.69 307.569L360.13 325.719C361.3 326.399 362.94 326.669 364.6 326.569C363.45 326.479 362.38 326.199 361.54 325.719Z" fill="#25BFEC"/>
<path d="M369.751 331.55L396.341 316.17C396.581 316.03 396.781 315.65 396.781 315.33V314.07C396.781 313.75 396.581 313.6 396.341 313.74L369.751 329.12C369.511 329.26 369.311 329.64 369.311 329.96V331.22C369.311 331.54 369.511 331.69 369.751 331.55Z" fill="#D4ECFF"/>
<path d="M395.761 315.83C396.001 315.69 396.201 315.31 396.201 314.99V313.81L396.341 313.73C396.581 313.59 396.781 313.74 396.781 314.06V315.32C396.781 315.64 396.581 316.02 396.341 316.16L369.751 331.54C369.511 331.68 369.311 331.53 369.311 331.21V331.13L395.761 315.83Z" fill="#267FE5"/>
<g opacity="0.4">
<path d="M494.809 348.48H479.219L461.859 338.46C459.619 337.17 455.719 337.33 453.139 338.82L436.409 348.48H420.829V358.95C420.769 359.82 421.249 360.67 422.329 361.29L453.769 379.44C456.009 380.73 459.909 380.57 462.489 379.08L492.669 361.65C494.009 360.88 494.719 359.9 494.789 358.95H494.799V348.48H494.809Z" fill="#4CC5F8"/>
<path d="M421.809 359.67V349.2H437.389L454.119 339.54C456.699 338.05 460.609 337.89 462.839 339.18L480.199 349.2H494.809V348.48H479.219L461.859 338.46C459.619 337.17 455.719 337.33 453.139 338.82L436.409 348.48H420.829V358.95C420.769 359.82 421.249 360.67 422.329 361.29L422.509 361.39C421.999 360.87 421.769 360.28 421.809 359.67Z" fill="#50B9F0"/>
<path opacity="0.4" d="M453.769 368.971L422.329 350.821C420.089 349.531 420.379 347.281 422.959 345.791L453.139 328.361C455.719 326.871 459.629 326.711 461.859 328.001L493.299 346.151C495.539 347.441 495.249 349.691 492.669 351.191L462.489 368.621C459.899 370.101 455.999 370.261 453.769 368.971Z" fill="#49A3FE"/>
<path opacity="0.4" d="M493.299 346.151L461.859 328.001C460.699 327.331 459.099 327.061 457.459 327.151C458.649 327.221 459.769 327.501 460.629 328.001L492.069 346.151C494.309 347.441 494.029 349.691 491.439 351.191L461.259 368.621C460.019 369.341 458.459 369.741 456.939 369.831C458.829 369.941 460.909 369.531 462.489 368.621L492.669 351.191C495.249 349.691 495.529 347.441 493.299 346.151Z" fill="#6EE8FC"/>
<path opacity="0.4" d="M457.619 364.65C456.509 364.65 455.459 364.43 454.669 363.97L431.259 350.46C430.449 349.99 429.999 349.33 429.999 348.6C429.999 347.74 430.629 346.88 431.719 346.25L454.189 333.28C456.179 332.13 459.219 332.01 460.949 333.01L484.359 346.52C485.169 346.99 485.619 347.65 485.619 348.38C485.619 349.24 484.989 350.1 483.899 350.73L461.429 363.7C460.339 364.33 458.939 364.65 457.619 364.65ZM458.009 332.85C456.779 332.85 455.479 333.15 454.469 333.73L431.999 346.7C431.079 347.23 430.549 347.92 430.549 348.59C430.549 349.12 430.899 349.62 431.539 349.99L454.949 363.5C456.539 364.42 459.329 364.3 461.169 363.23L483.639 350.26C484.569 349.73 485.099 349.04 485.099 348.37C485.099 347.84 484.749 347.34 484.109 346.97L460.699 333.46C459.969 333.05 459.009 332.85 458.009 332.85Z" fill="#480689"/>
<path opacity="0.4" d="M455.179 368.97L423.739 350.82C421.499 349.53 421.789 347.28 424.369 345.79L454.549 328.36C455.779 327.65 457.299 327.25 458.799 327.15C456.879 327.01 454.749 327.43 453.139 328.36L422.959 345.79C420.379 347.28 420.099 349.53 422.329 350.82L453.769 368.97C454.939 369.65 456.579 369.92 458.239 369.82C457.089 369.73 456.009 369.45 455.179 368.97Z" fill="#029EE1"/>
</g>
<g opacity="0.5">
<path d="M494.809 334.07H479.219L461.859 324.05C459.619 322.76 455.719 322.92 453.139 324.41L436.409 334.07H420.829V344.54C420.769 345.41 421.249 346.26 422.329 346.88L453.769 365.03C456.009 366.32 459.909 366.16 462.489 364.67L492.669 347.24C494.009 346.47 494.719 345.49 494.789 344.54H494.799V334.07H494.809Z" fill="#4CC5F8"/>
<path d="M421.809 345.251V334.781H437.389L454.119 325.121C456.699 323.631 460.609 323.471 462.839 324.761L480.199 334.781H494.809V334.061H479.219L461.859 324.041C459.619 322.751 455.719 322.911 453.139 324.401L436.409 334.061H420.829V344.531C420.769 345.401 421.249 346.251 422.329 346.871L422.509 346.971C421.999 346.461 421.769 345.861 421.809 345.251Z" fill="#50B9F0"/>
<path opacity="0.4" d="M453.769 354.551L422.329 336.401C420.089 335.111 420.379 332.861 422.959 331.371L453.139 313.941C455.719 312.451 459.629 312.291 461.859 313.581L493.299 331.731C495.539 333.021 495.249 335.271 492.669 336.761L462.489 354.191C459.899 355.681 455.999 355.841 453.769 354.551Z" fill="#49A3FE"/>
<path opacity="0.5" d="M493.299 331.731L461.859 313.581C460.699 312.911 459.099 312.641 457.459 312.731C458.649 312.801 459.769 313.081 460.629 313.581L492.069 331.731C494.309 333.021 494.029 335.271 491.439 336.761L461.259 354.191C460.019 354.911 458.459 355.311 456.939 355.401C458.829 355.511 460.909 355.101 462.489 354.191L492.669 336.761C495.249 335.271 495.529 333.021 493.299 331.731Z" fill="#6EE8FC"/>
<path opacity="0.5" d="M457.619 350.23C456.509 350.23 455.459 350.01 454.669 349.55L431.259 336.04C430.449 335.57 429.999 334.91 429.999 334.18C429.999 333.32 430.629 332.46 431.719 331.83L454.189 318.86C456.179 317.71 459.219 317.59 460.949 318.59L484.359 332.1C485.169 332.57 485.619 333.23 485.619 333.96C485.619 334.82 484.989 335.68 483.899 336.31L461.429 349.28C460.339 349.91 458.939 350.23 457.619 350.23ZM457.999 318.43C456.769 318.43 455.469 318.73 454.459 319.31L431.989 332.28C431.069 332.81 430.529 333.5 430.539 334.17C430.539 334.7 430.889 335.2 431.529 335.57L454.939 349.08C456.529 350 459.319 349.88 461.159 348.81L483.629 335.84C484.559 335.31 485.089 334.62 485.089 333.95C485.089 333.42 484.739 332.92 484.099 332.55L460.689 319.04C459.969 318.63 459.009 318.43 457.999 318.43Z" fill="#480689"/>
<path d="M455.179 354.55L423.739 336.4C421.499 335.11 421.789 332.86 424.369 331.37L454.549 313.94C455.779 313.23 457.299 312.83 458.799 312.73C456.879 312.59 454.749 313.01 453.139 313.94L422.959 331.37C420.379 332.86 420.099 335.11 422.329 336.4L453.769 354.55C454.939 355.23 456.579 355.5 458.239 355.4C457.089 355.32 456.009 355.04 455.179 354.55Z" fill="#50B9F0"/>
</g>
<g opacity="0.7">
<path d="M494.809 319.649H479.219L461.859 309.629C459.619 308.339 455.719 308.499 453.139 309.989L436.409 319.649H420.829V330.119C420.769 330.989 421.249 331.839 422.329 332.459L453.769 350.609C456.009 351.899 459.909 351.739 462.489 350.249L492.669 332.819C494.009 332.049 494.719 331.069 494.789 330.119H494.799V319.649H494.809Z" fill="#4CC5F8"/>
<path d="M421.809 330.839V320.369H437.389L454.119 310.709C456.699 309.219 460.609 309.059 462.839 310.349L480.199 320.369H494.809V319.649H479.219L461.859 309.629C459.619 308.339 455.719 308.499 453.139 309.989L436.409 319.649H420.829V330.119C420.769 330.989 421.249 331.839 422.329 332.459L422.509 332.559C421.999 332.039 421.769 331.449 421.809 330.839Z" fill="#50B9F0"/>
<path opacity="0.4" d="M453.769 340.139L422.329 321.989C420.089 320.699 420.379 318.449 422.959 316.959L453.139 299.529C455.719 298.039 459.629 297.879 461.859 299.169L493.299 317.319C495.539 318.609 495.249 320.859 492.669 322.359L462.489 339.789C459.899 341.259 455.999 341.429 453.769 340.139Z" fill="#49A3FE"/>
<path opacity="0.7" d="M493.299 317.31L461.859 299.16C460.699 298.49 459.099 298.22 457.459 298.31C458.649 298.38 459.769 298.66 460.629 299.16L492.069 317.31C494.309 318.6 494.029 320.85 491.439 322.35L461.259 339.78C460.019 340.5 458.459 340.9 456.939 340.99C458.829 341.1 460.909 340.69 462.489 339.78L492.669 322.35C495.249 320.86 495.529 318.6 493.299 317.31Z" fill="#6EE8FC"/>
<path opacity="0.7" d="M457.619 335.809C456.509 335.809 455.459 335.589 454.669 335.129L431.259 321.619C430.449 321.149 429.999 320.489 429.999 319.759C429.999 318.899 430.629 318.039 431.719 317.409L454.189 304.439C456.179 303.289 459.219 303.169 460.949 304.169L484.359 317.679C485.169 318.149 485.619 318.809 485.619 319.539C485.619 320.399 484.989 321.259 483.899 321.889L461.429 334.859C460.339 335.489 458.939 335.809 457.619 335.809ZM457.999 304.009C456.769 304.009 455.469 304.309 454.459 304.889L431.989 317.859C431.069 318.389 430.539 319.079 430.539 319.749C430.539 320.279 430.889 320.779 431.529 321.149L454.939 334.659C456.529 335.579 459.319 335.449 461.159 334.389L483.629 321.419C484.559 320.889 485.089 320.199 485.089 319.529C485.089 318.999 484.739 318.499 484.099 318.129L460.689 304.619C459.969 304.219 459.009 304.009 457.999 304.009Z" fill="#480689"/>
<path d="M455.179 340.14L423.739 321.99C421.499 320.7 421.789 318.45 424.369 316.95L454.549 299.52C455.779 298.81 457.299 298.41 458.799 298.31C456.879 298.17 454.749 298.59 453.139 299.52L422.959 316.95C420.379 318.44 420.099 320.69 422.329 321.99L453.769 340.14C454.939 340.82 456.579 341.09 458.239 340.99C457.089 340.9 456.009 340.62 455.179 340.14Z" fill="#50B9F0"/>
</g>
<path d="M494.809 305.23H479.219L461.859 295.209C459.619 293.919 455.719 294.079 453.139 295.569L436.409 305.23H420.829V315.699C420.769 316.569 421.249 317.42 422.329 318.04L453.769 336.19C456.009 337.48 459.909 337.319 462.489 335.829L492.669 318.399C494.009 317.629 494.719 316.649 494.789 315.699H494.799V305.23H494.809Z" fill="url(#paint10_linear_2202_5410)"/>
<path d="M421.809 316.419V305.95H437.389L454.119 296.289C456.699 294.799 460.609 294.639 462.839 295.929L480.199 305.95H494.809V305.23H479.219L461.859 295.209C459.619 293.919 455.719 294.079 453.139 295.569L436.409 305.23H420.829V315.699C420.769 316.569 421.249 317.42 422.329 318.04L422.509 318.139C421.999 317.619 421.769 317.029 421.809 316.419Z" fill="#50B9F0"/>
<path d="M453.769 325.72L422.329 307.57C420.089 306.28 420.379 304.03 422.959 302.54L453.139 285.11C455.719 283.62 459.629 283.46 461.859 284.75L493.299 302.9C495.539 304.19 495.249 306.44 492.669 307.93L462.489 325.36C459.899 326.85 455.999 327.01 453.769 325.72Z" fill="url(#paint11_linear_2202_5410)"/>
<path d="M493.299 302.89L461.859 284.74C460.699 284.07 459.099 283.8 457.459 283.89C458.649 283.96 459.769 284.24 460.629 284.74L492.069 302.89C494.309 304.18 494.029 306.43 491.439 307.93L461.259 325.36C460.019 326.08 458.459 326.48 456.939 326.57C458.829 326.68 460.909 326.27 462.489 325.36L492.669 307.93C495.249 306.44 495.529 304.18 493.299 302.89Z" fill="#6EE8FC"/>
<path d="M457.619 321.39C456.509 321.39 455.459 321.17 454.669 320.71L431.259 307.2C430.449 306.73 429.999 306.07 429.999 305.34C429.999 304.48 430.629 303.62 431.719 302.99L454.189 290.02C456.179 288.87 459.219 288.75 460.949 289.75L484.359 303.26C485.169 303.73 485.619 304.39 485.619 305.12C485.619 305.98 484.989 306.84 483.899 307.47L461.429 320.44C460.339 321.07 458.939 321.39 457.619 321.39ZM458.009 289.59C456.779 289.59 455.479 289.89 454.469 290.47L431.999 303.44C431.079 303.97 430.539 304.66 430.549 305.33C430.549 305.86 430.899 306.36 431.539 306.73L454.949 320.24C456.539 321.16 459.329 321.03 461.169 319.97L483.639 307C484.569 306.47 485.099 305.78 485.099 305.11C485.099 304.58 484.749 304.08 484.109 303.72L460.699 290.21C459.969 289.8 459.009 289.59 458.009 289.59Z" fill="url(#paint12_linear_2202_5410)"/>
<path d="M455.179 325.719L423.739 307.569C421.499 306.279 421.789 304.029 424.369 302.539L454.549 285.109C455.779 284.399 457.299 283.999 458.799 283.899C456.879 283.759 454.749 284.179 453.139 285.109L422.959 302.539C420.379 304.029 420.099 306.279 422.329 307.569L453.769 325.719C454.939 326.399 456.579 326.669 458.239 326.569C457.089 326.479 456.009 326.199 455.179 325.719Z" fill="#25BFEC"/>
<path d="M463.379 331.55L489.969 316.17C490.209 316.03 490.409 315.65 490.409 315.33V314.07C490.409 313.75 490.209 313.6 489.969 313.74L463.379 329.12C463.139 329.26 462.939 329.64 462.939 329.96V331.22C462.939 331.54 463.139 331.69 463.379 331.55Z" fill="#D4ECFF"/>
<path d="M489.389 315.83C489.629 315.69 489.829 315.31 489.829 314.99V313.81L489.969 313.73C490.209 313.59 490.409 313.74 490.409 314.06V315.32C490.409 315.64 490.209 316.02 489.969 316.16L463.379 331.54C463.139 331.68 462.939 331.53 462.939 331.21V331.13L489.389 315.83Z" fill="#267FE5"/>
<g opacity="0.4">
<path d="M588.439 348.48H572.849L555.489 338.46C553.249 337.17 549.349 337.33 546.769 338.82L530.039 348.48H514.459V358.95C514.399 359.82 514.879 360.67 515.959 361.29L547.399 379.44C549.639 380.73 553.539 380.57 556.119 379.08L586.299 361.65C587.639 360.88 588.349 359.9 588.419 358.95H588.429V348.48H588.439Z" fill="#4CC5F8"/>
<path d="M515.45 359.67V349.2H531.03L547.76 339.54C550.34 338.05 554.25 337.89 556.48 339.18L573.84 349.2H588.45V348.48H572.86L555.5 338.46C553.26 337.17 549.36 337.33 546.78 338.82L530.05 348.48H514.47V358.95C514.41 359.82 514.89 360.67 515.97 361.29L516.15 361.39C515.63 360.87 515.4 360.28 515.45 359.67Z" fill="#50B9F0"/>
<path opacity="0.4" d="M547.4 368.971L515.96 350.821C513.72 349.531 514 347.281 516.59 345.791L546.77 328.361C549.35 326.871 553.26 326.711 555.49 328.001L586.93 346.151C589.17 347.441 588.88 349.691 586.3 351.191L556.12 368.621C553.54 370.101 549.63 370.261 547.4 368.971Z" fill="#49A3FE"/>
<path opacity="0.4" d="M586.929 346.151L555.489 328.001C554.329 327.331 552.729 327.061 551.089 327.151C552.279 327.221 553.399 327.501 554.259 328.001L585.699 346.151C587.939 347.441 587.649 349.691 585.069 351.191L554.889 368.621C553.649 369.341 552.089 369.741 550.569 369.831C552.459 369.941 554.539 369.531 556.119 368.621L586.299 351.191C588.879 349.691 589.159 347.441 586.929 346.151Z" fill="#6EE8FC"/>
<path opacity="0.4" d="M551.25 364.65C550.14 364.65 549.09 364.43 548.3 363.97L524.89 350.46C524.08 349.99 523.63 349.33 523.63 348.6C523.63 347.74 524.26 346.88 525.35 346.25L547.82 333.28C549.81 332.13 552.84 332.01 554.58 333.01L578 346.51C578.81 346.98 579.26 347.64 579.26 348.37C579.26 349.23 578.63 350.09 577.54 350.72L555.07 363.69C553.97 364.33 552.58 364.65 551.25 364.65ZM551.64 332.85C550.41 332.85 549.11 333.15 548.1 333.73L525.63 346.7C524.71 347.23 524.17 347.92 524.17 348.59C524.17 349.12 524.52 349.62 525.16 349.99L548.57 363.5C550.16 364.42 552.95 364.3 554.79 363.23L577.26 350.26C578.19 349.73 578.72 349.04 578.72 348.37C578.72 347.84 578.37 347.34 577.73 346.97L554.32 333.46C553.61 333.05 552.65 332.85 551.64 332.85Z" fill="#480689"/>
<path opacity="0.4" d="M548.81 368.97L517.37 350.82C515.13 349.53 515.42 347.28 518 345.79L548.18 328.36C549.41 327.65 550.93 327.25 552.43 327.15C550.51 327.01 548.38 327.43 546.77 328.36L516.59 345.79C514.01 347.28 513.73 349.53 515.96 350.82L547.4 368.97C548.57 369.65 550.21 369.92 551.87 369.82C550.72 369.73 549.65 369.45 548.81 368.97Z" fill="#029EE1"/>
</g>
<g opacity="0.5">
<path d="M588.439 334.07H572.849L555.489 324.05C553.249 322.76 549.349 322.92 546.769 324.41L530.039 334.07H514.459V344.54C514.399 345.41 514.879 346.26 515.959 346.88L547.399 365.03C549.639 366.32 553.539 366.16 556.119 364.67L586.299 347.24C587.639 346.47 588.349 345.49 588.419 344.54H588.429V334.07H588.439Z" fill="#4CC5F8"/>
<path d="M515.45 345.251V334.781H531.03L547.76 325.121C550.34 323.631 554.25 323.471 556.48 324.761L573.84 334.781H588.45V334.061H572.86L555.5 324.041C553.26 322.751 549.36 322.911 546.78 324.401L530.05 334.061H514.47V344.531C514.41 345.401 514.89 346.251 515.97 346.871L516.15 346.971C515.63 346.461 515.4 345.861 515.45 345.251Z" fill="#50B9F0"/>
<path opacity="0.4" d="M547.4 354.551L515.96 336.401C513.72 335.111 514 332.861 516.59 331.371L546.77 313.941C549.35 312.451 553.26 312.291 555.49 313.581L586.93 331.731C589.17 333.021 588.88 335.271 586.3 336.761L556.12 354.191C553.54 355.681 549.63 355.841 547.4 354.551Z" fill="#49A3FE"/>
<path opacity="0.5" d="M586.929 331.731L555.489 313.581C554.329 312.911 552.729 312.641 551.089 312.731C552.279 312.801 553.399 313.081 554.259 313.581L585.699 331.731C587.939 333.021 587.649 335.271 585.069 336.761L554.889 354.191C553.649 354.911 552.089 355.311 550.569 355.401C552.459 355.511 554.539 355.101 556.119 354.191L586.299 336.761C588.879 335.271 589.159 333.021 586.929 331.731Z" fill="#6EE8FC"/>
<path opacity="0.5" d="M551.25 350.23C550.14 350.23 549.09 350.01 548.3 349.55L524.89 336.04C524.08 335.57 523.63 334.91 523.63 334.18C523.63 333.32 524.26 332.46 525.35 331.83L547.82 318.86C549.81 317.71 552.84 317.59 554.58 318.59L578 332.09C578.81 332.56 579.26 333.22 579.26 333.95C579.26 334.81 578.63 335.67 577.54 336.3L555.07 349.27C553.97 349.91 552.58 350.23 551.25 350.23ZM551.64 318.43C550.41 318.43 549.11 318.73 548.1 319.31L525.63 332.28C524.71 332.81 524.17 333.5 524.17 334.17C524.17 334.7 524.52 335.2 525.16 335.57L548.57 349.08C550.16 350 552.95 349.88 554.79 348.81L577.26 335.84C578.19 335.31 578.72 334.62 578.72 333.95C578.72 333.42 578.37 332.92 577.73 332.55L554.32 319.04C553.61 318.63 552.65 318.43 551.64 318.43Z" fill="#480689"/>
<path d="M548.81 354.55L517.37 336.4C515.13 335.11 515.42 332.86 518 331.37L548.18 313.94C549.41 313.23 550.93 312.83 552.43 312.73C550.51 312.59 548.38 313.01 546.77 313.94L516.59 331.37C514.01 332.86 513.73 335.11 515.96 336.4L547.4 354.55C548.57 355.23 550.21 355.5 551.87 355.4C550.72 355.32 549.65 355.04 548.81 354.55Z" fill="#50B9F0"/>
</g>
<g opacity="0.7">
<path d="M588.439 319.649H572.849L555.489 309.629C553.249 308.339 549.349 308.499 546.769 309.989L530.039 319.649H514.459V330.119C514.399 330.989 514.879 331.839 515.959 332.459L547.399 350.609C549.639 351.899 553.539 351.739 556.119 350.249L586.299 332.819C587.639 332.049 588.349 331.069 588.419 330.119H588.429V319.649H588.439Z" fill="#4CC5F8"/>
<path d="M515.45 330.839V320.369H531.03L547.76 310.709C550.34 309.219 554.25 309.059 556.48 310.349L573.84 320.369H588.45V319.649H572.86L555.5 309.629C553.26 308.339 549.36 308.499 546.78 309.989L530.05 319.649H514.47V330.119C514.41 330.989 514.89 331.839 515.97 332.459L516.15 332.559C515.63 332.039 515.4 331.449 515.45 330.839Z" fill="#50B9F0"/>
<path opacity="0.4" d="M547.4 340.139L515.96 321.989C513.72 320.699 514 318.449 516.59 316.959L546.77 299.529C549.35 298.039 553.26 297.879 555.49 299.169L586.93 317.319C589.17 318.609 588.88 320.859 586.3 322.359L556.12 339.789C553.54 341.259 549.63 341.429 547.4 340.139Z" fill="#49A3FE"/>
<path opacity="0.7" d="M586.929 317.31L555.489 299.16C554.329 298.49 552.729 298.22 551.089 298.31C552.279 298.38 553.399 298.66 554.259 299.16L585.699 317.31C587.939 318.6 587.649 320.85 585.069 322.35L554.889 339.78C553.649 340.5 552.089 340.9 550.569 340.99C552.459 341.1 554.539 340.69 556.119 339.78L586.299 322.35C588.879 320.86 589.159 318.6 586.929 317.31Z" fill="#6EE8FC"/>
<path opacity="0.7" d="M551.249 335.809C550.139 335.809 549.079 335.589 548.289 335.129L524.879 321.619C524.069 321.149 523.619 320.489 523.619 319.759C523.619 318.899 524.249 318.039 525.339 317.409L547.809 304.439C549.799 303.289 552.829 303.169 554.569 304.169L577.999 317.679C578.809 318.149 579.259 318.809 579.259 319.539C579.259 320.399 578.629 321.259 577.539 321.889L555.069 334.859C553.969 335.489 552.579 335.809 551.249 335.809ZM551.639 304.009C550.409 304.009 549.109 304.309 548.099 304.889L525.629 317.859C524.709 318.389 524.169 319.079 524.169 319.749C524.169 320.279 524.519 320.779 525.159 321.149L548.569 334.659C550.159 335.579 552.949 335.449 554.789 334.389L577.259 321.419C578.189 320.889 578.719 320.199 578.719 319.529C578.719 318.999 578.369 318.499 577.729 318.129L554.319 304.619C553.609 304.219 552.649 304.009 551.639 304.009Z" fill="#480689"/>
<path d="M548.81 340.14L517.37 321.99C515.13 320.7 515.42 318.45 518 316.95L548.18 299.52C549.41 298.81 550.93 298.41 552.43 298.31C550.51 298.17 548.38 298.59 546.77 299.52L516.59 316.95C514.01 318.44 513.73 320.69 515.96 321.99L547.4 340.14C548.57 340.82 550.21 341.09 551.87 340.99C550.72 340.9 549.65 340.62 548.81 340.14Z" fill="#50B9F0"/>
</g>
<path d="M588.439 305.23H572.849L555.489 295.209C553.249 293.919 549.349 294.079 546.769 295.569L530.039 305.23H514.459V315.699C514.399 316.569 514.879 317.42 515.959 318.04L547.399 336.19C549.639 337.48 553.539 337.319 556.119 335.829L586.299 318.399C587.639 317.629 588.349 316.649 588.419 315.699H588.429V305.23H588.439Z" fill="url(#paint13_linear_2202_5410)"/>
<path d="M515.45 316.419V305.95H531.03L547.76 296.289C550.34 294.799 554.25 294.639 556.48 295.929L573.84 305.95H588.45V305.23H572.86L555.5 295.209C553.26 293.919 549.36 294.079 546.78 295.569L530.05 305.23H514.47V315.699C514.41 316.569 514.89 317.42 515.97 318.04L516.15 318.139C515.63 317.619 515.4 317.029 515.45 316.419Z" fill="#50B9F0"/>
<path d="M547.4 325.72L515.96 307.57C513.72 306.28 514 304.03 516.59 302.54L546.77 285.11C549.35 283.62 553.26 283.46 555.49 284.75L586.93 302.9C589.17 304.19 588.88 306.44 586.3 307.93L556.12 325.36C553.54 326.85 549.63 327.01 547.4 325.72Z" fill="url(#paint14_linear_2202_5410)"/>
<path d="M586.929 302.89L555.489 284.74C554.329 284.07 552.729 283.8 551.089 283.89C552.279 283.96 553.399 284.24 554.259 284.74L585.699 302.89C587.939 304.18 587.649 306.43 585.069 307.93L554.889 325.36C553.649 326.08 552.089 326.48 550.569 326.57C552.459 326.68 554.539 326.27 556.119 325.36L586.299 307.93C588.879 306.44 589.159 304.18 586.929 302.89Z" fill="#6EE8FC"/>
<path d="M551.249 321.39C550.139 321.39 549.079 321.17 548.289 320.71L524.879 307.2C524.069 306.73 523.619 306.07 523.619 305.34C523.619 304.48 524.249 303.62 525.339 302.99L547.809 290.02C549.799 288.87 552.829 288.75 554.569 289.75L577.999 303.26C578.809 303.73 579.259 304.39 579.259 305.12C579.259 305.98 578.629 306.84 577.539 307.47L555.069 320.44C553.969 321.07 552.579 321.39 551.249 321.39ZM551.639 289.59C550.409 289.59 549.109 289.89 548.099 290.47L525.629 303.44C524.709 303.97 524.169 304.66 524.169 305.33C524.169 305.86 524.519 306.36 525.159 306.73L548.569 320.24C550.159 321.16 552.949 321.03 554.789 319.97L577.259 307C578.189 306.47 578.719 305.78 578.719 305.11C578.719 304.58 578.369 304.08 577.729 303.72L554.319 290.21C553.609 289.8 552.649 289.59 551.639 289.59Z" fill="url(#paint15_linear_2202_5410)"/>
<path d="M548.81 325.719L517.37 307.569C515.13 306.279 515.42 304.029 518 302.539L548.18 285.109C549.41 284.399 550.93 283.999 552.43 283.899C550.51 283.759 548.38 284.179 546.77 285.109L516.59 302.539C514.01 304.029 513.73 306.279 515.96 307.569L547.4 325.719C548.57 326.399 550.21 326.669 551.87 326.569C550.72 326.479 549.65 326.199 548.81 325.719Z" fill="#25BFEC"/>
<path d="M557.019 331.55L583.609 316.17C583.849 316.03 584.049 315.65 584.049 315.33V314.07C584.049 313.75 583.849 313.6 583.609 313.74L557.019 329.12C556.779 329.26 556.579 329.64 556.579 329.96V331.22C556.569 331.54 556.769 331.69 557.019 331.55Z" fill="#D4ECFF"/>
<path d="M583.029 315.83C583.269 315.69 583.469 315.31 583.469 314.99V313.81L583.609 313.73C583.849 313.59 584.049 313.74 584.049 314.06V315.32C584.049 315.64 583.849 316.02 583.609 316.16L557.019 331.54C556.779 331.68 556.579 331.53 556.579 331.21V331.13L583.029 315.83Z" fill="#267FE5"/>
<g opacity="0.7" filter="url(#filter8_f_2202_5410)">
<path d="M328.46 240.17C329.06 239.13 330.39 238.77 331.44 239.37C332.48 239.97 332.84 241.3 332.24 242.35C331.64 243.39 330.31 243.75 329.26 243.15C328.22 242.55 327.86 241.22 328.46 240.17Z" fill="#029EE1"/>
</g>
<g opacity="0.7" filter="url(#filter9_f_2202_5410)">
<path d="M278.089 239.76C278.919 238.33 280.749 237.84 282.179 238.66C283.609 239.49 284.099 241.32 283.279 242.75C282.449 244.18 280.619 244.67 279.189 243.85C277.749 243.03 277.259 241.2 278.089 239.76Z" fill="#029EE1"/>
</g>
<g opacity="0.7" filter="url(#filter10_f_2202_5410)">
<path d="M440.22 245.76C441.05 244.33 442.88 243.84 444.31 244.66C445.74 245.49 446.23 247.32 445.41 248.75C444.58 250.18 442.75 250.67 441.32 249.85C439.88 249.03 439.39 247.2 440.22 245.76Z" fill="#029EE1"/>
</g>
<g opacity="0.7" filter="url(#filter11_f_2202_5410)">
<path d="M266.581 278.8C267.851 276.61 270.651 275.86 272.841 277.12C275.031 278.39 275.781 281.19 274.521 283.38C273.251 285.57 270.451 286.32 268.261 285.06C266.061 283.8 265.311 281 266.581 278.8Z" fill="#029EE1"/>
</g>
<g opacity="0.7" filter="url(#filter12_f_2202_5410)">
<path d="M454.27 278.8C455.54 276.61 458.34 275.86 460.53 277.12C462.72 278.39 463.47 281.19 462.21 283.38C460.94 285.57 458.14 286.32 455.95 285.06C453.75 283.8 453 281 454.27 278.8Z" fill="#029EE1"/>
</g>
<circle cx="99" cy="419" r="4" fill="#003A74"/>
<defs>
<filter id="filter0_d_2202_5410" x="3" y="192" width="46" height="46" filterUnits="userSpaceOnUse" color-interpolation-filters="sRGB">
<feFlood flood-opacity="0" result="BackgroundImageFix"/>
<feColorMatrix in="SourceAlpha" type="matrix" values="0 0 0 0 0 0 0 0 0 0 0 0 0 0 0 0 0 0 127 0" result="hardAlpha"/>
<feOffset dy="7"/>
<feGaussianBlur stdDeviation="7.5"/>
<feComposite in2="hardAlpha" operator="out"/>
<feColorMatrix type="matrix" values="0 0 0 0 0.11125 0 0 0 0 0.424717 0 0 0 0 0.741667 0 0 0 0.35 0"/>
<feBlend mode="normal" in2="BackgroundImageFix" result="effect1_dropShadow_2202_5410"/>
<feBlend mode="normal" in="SourceGraphic" in2="effect1_dropShadow_2202_5410" result="shape"/>
</filter>
<filter id="filter1_d_2202_5410" x="683" y="97" width="46" height="46" filterUnits="userSpaceOnUse" color-interpolation-filters="sRGB">
<feFlood flood-opacity="0" result="BackgroundImageFix"/>
<feColorMatrix in="SourceAlpha" type="matrix" values="0 0 0 0 0 0 0 0 0 0 0 0 0 0 0 0 0 0 127 0" result="hardAlpha"/>
<feOffset dy="7"/>
<feGaussianBlur stdDeviation="7.5"/>
<feComposite in2="hardAlpha" operator="out"/>
<feColorMatrix type="matrix" values="0 0 0 0 0.11125 0 0 0 0 0.424717 0 0 0 0 0.741667 0 0 0 0.35 0"/>
<feBlend mode="normal" in2="BackgroundImageFix" result="effect1_dropShadow_2202_5410"/>
<feBlend mode="normal" in="SourceGraphic" in2="effect1_dropShadow_2202_5410" result="shape"/>
</filter>
<filter id="filter2_f_2202_5410" x="348.961" y="237.219" width="8.10059" height="8.10254" filterUnits="userSpaceOnUse" color-interpolation-filters="sRGB">
<feFlood flood-opacity="0" result="BackgroundImageFix"/>
<feBlend mode="normal" in="SourceGraphic" in2="BackgroundImageFix" result="shape"/>
<feGaussianBlur stdDeviation="1.5" result="effect1_foregroundBlur_2202_5410"/>
</filter>
<filter id="filter3_f_2202_5410" x="374.508" y="237.219" width="8.10254" height="8.10254" filterUnits="userSpaceOnUse" color-interpolation-filters="sRGB">
<feFlood flood-opacity="0" result="BackgroundImageFix"/>
<feBlend mode="normal" in="SourceGraphic" in2="BackgroundImageFix" result="shape"/>
<feGaussianBlur stdDeviation="1.5" result="effect1_foregroundBlur_2202_5410"/>
</filter>
<filter id="filter4_f_2202_5410" x="392.436" y="236.748" width="8.10547" height="8.10547" filterUnits="userSpaceOnUse" color-interpolation-filters="sRGB">
<feFlood flood-opacity="0" result="BackgroundImageFix"/>
<feBlend mode="normal" in="SourceGraphic" in2="BackgroundImageFix" result="shape"/>
<feGaussianBlur stdDeviation="1.5" result="effect1_foregroundBlur_2202_5410"/>
</filter>
<filter id="filter5_f_2202_5410" x="413.727" y="236.748" width="8.10547" height="8.10547" filterUnits="userSpaceOnUse" color-interpolation-filters="sRGB">
<feFlood flood-opacity="0" result="BackgroundImageFix"/>
<feBlend mode="normal" in="SourceGraphic" in2="BackgroundImageFix" result="shape"/>
<feGaussianBlur stdDeviation="1.5" result="effect1_foregroundBlur_2202_5410"/>
</filter>
<filter id="filter6_f_2202_5410" x="412.119" y="223.368" width="8.10254" height="8.10254" filterUnits="userSpaceOnUse" color-interpolation-filters="sRGB">
<feFlood flood-opacity="0" result="BackgroundImageFix"/>
<feBlend mode="normal" in="SourceGraphic" in2="BackgroundImageFix" result="shape"/>
<feGaussianBlur stdDeviation="1.5" result="effect1_foregroundBlur_2202_5410"/>
</filter>
<filter id="filter7_f_2202_5410" x="397.119" y="223.219" width="8.10254" height="8.10254" filterUnits="userSpaceOnUse" color-interpolation-filters="sRGB">
<feFlood flood-opacity="0" result="BackgroundImageFix"/>
<feBlend mode="normal" in="SourceGraphic" in2="BackgroundImageFix" result="shape"/>
<feGaussianBlur stdDeviation="1.5" result="effect1_foregroundBlur_2202_5410"/>
</filter>
<filter id="filter8_f_2202_5410" x="325.17" y="236.079" width="10.3613" height="10.3613" filterUnits="userSpaceOnUse" color-interpolation-filters="sRGB">
<feFlood flood-opacity="0" result="BackgroundImageFix"/>
<feBlend mode="normal" in="SourceGraphic" in2="BackgroundImageFix" result="shape"/>
<feGaussianBlur stdDeviation="1.5" result="effect1_foregroundBlur_2202_5410"/>
</filter>
<filter id="filter9_f_2202_5410" x="274.686" y="235.263" width="11.9912" height="11.9844" filterUnits="userSpaceOnUse" color-interpolation-filters="sRGB">
<feFlood flood-opacity="0" result="BackgroundImageFix"/>
<feBlend mode="normal" in="SourceGraphic" in2="BackgroundImageFix" result="shape"/>
<feGaussianBlur stdDeviation="1.5" result="effect1_foregroundBlur_2202_5410"/>
</filter>
<filter id="filter10_f_2202_5410" x="436.816" y="241.263" width="11.9912" height="11.9844" filterUnits="userSpaceOnUse" color-interpolation-filters="sRGB">
<feFlood flood-opacity="0" result="BackgroundImageFix"/>
<feBlend mode="normal" in="SourceGraphic" in2="BackgroundImageFix" result="shape"/>
<feGaussianBlur stdDeviation="1.5" result="effect1_foregroundBlur_2202_5410"/>
</filter>
<filter id="filter11_f_2202_5410" x="262.963" y="273.509" width="15.1689" height="15.1621" filterUnits="userSpaceOnUse" color-interpolation-filters="sRGB">
<feFlood flood-opacity="0" result="BackgroundImageFix"/>
<feBlend mode="normal" in="SourceGraphic" in2="BackgroundImageFix" result="shape"/>
<feGaussianBlur stdDeviation="1.5" result="effect1_foregroundBlur_2202_5410"/>
</filter>
<filter id="filter12_f_2202_5410" x="450.652" y="273.509" width="15.1689" height="15.1621" filterUnits="userSpaceOnUse" color-interpolation-filters="sRGB">
<feFlood flood-opacity="0" result="BackgroundImageFix"/>
<feBlend mode="normal" in="SourceGraphic" in2="BackgroundImageFix" result="shape"/>
<feGaussianBlur stdDeviation="1.5" result="effect1_foregroundBlur_2202_5410"/>
</filter>
<linearGradient id="paint0_linear_2202_5410" x1="420.745" y1="258.613" x2="552.372" y2="258.613" gradientUnits="userSpaceOnUse">
<stop stop-color="#6DE0F6"/>
<stop offset="0.1595" stop-color="#68D8F5"/>
<stop offset="0.4138" stop-color="#5AC0F1"/>
<stop offset="0.7294" stop-color="#439BEA"/>
<stop offset="1" stop-color="#2C75E4"/>
</linearGradient>
<linearGradient id="paint1_linear_2202_5410" x1="415.673" y1="262.03" x2="458.736" y2="262.03" gradientUnits="userSpaceOnUse">
<stop stop-color="#6DE0F6"/>
<stop offset="0.1595" stop-color="#68D8F5"/>
<stop offset="0.4138" stop-color="#5AC0F1"/>
<stop offset="0.7294" stop-color="#439BEA"/>
<stop offset="1" stop-color="#2C75E4"/>
</linearGradient>
<linearGradient id="paint2_linear_2202_5410" x1="401.625" y1="258.613" x2="269.998" y2="258.613" gradientUnits="userSpaceOnUse">
<stop stop-color="#6DE0F6"/>
<stop offset="0.1595" stop-color="#68D8F5"/>
<stop offset="0.4138" stop-color="#5AC0F1"/>
<stop offset="0.7294" stop-color="#439BEA"/>
<stop offset="1" stop-color="#2C75E4"/>
</linearGradient>
<linearGradient id="paint3_linear_2202_5410" x1="406.697" y1="262.03" x2="363.634" y2="262.03" gradientUnits="userSpaceOnUse">
<stop stop-color="#6DE0F6"/>
<stop offset="0.1595" stop-color="#68D8F5"/>
<stop offset="0.4138" stop-color="#5AC0F1"/>
<stop offset="0.7294" stop-color="#439BEA"/>
<stop offset="1" stop-color="#2C75E4"/>
</linearGradient>
<linearGradient id="paint4_linear_2202_5410" x1="236.23" y1="315.84" x2="307.73" y2="315.84" gradientUnits="userSpaceOnUse">
<stop stop-color="#029EE1"/>
<stop offset="1" stop-color="#005B83"/>
</linearGradient>
<linearGradient id="paint5_linear_2202_5410" x1="232.949" y1="305.231" x2="302.343" y2="322.402" gradientUnits="userSpaceOnUse">
<stop stop-color="#267FE5"/>
<stop offset="0.1699" stop-color="#2C87E7"/>
<stop offset="0.441" stop-color="#3D9FEB"/>
<stop offset="0.7773" stop-color="#59C4F2"/>
<stop offset="1" stop-color="#6EE1F8"/>
</linearGradient>
<linearGradient id="paint6_linear_2202_5410" x1="242.735" y1="305.23" x2="298.356" y2="305.23" gradientUnits="userSpaceOnUse">
<stop stop-color="#6DE0F6"/>
<stop offset="0.1595" stop-color="#68D8F5"/>
<stop offset="0.4138" stop-color="#5AC0F1"/>
<stop offset="0.7294" stop-color="#439BEA"/>
<stop offset="1" stop-color="#2C75E4"/>
</linearGradient>
<linearGradient id="paint7_linear_2202_5410" x1="329.861" y1="315.84" x2="401.361" y2="315.84" gradientUnits="userSpaceOnUse">
<stop stop-color="#029EE1"/>
<stop offset="1" stop-color="#005B83"/>
</linearGradient>
<linearGradient id="paint8_linear_2202_5410" x1="326.583" y1="305.231" x2="395.976" y2="322.402" gradientUnits="userSpaceOnUse">
<stop stop-color="#267FE5"/>
<stop offset="0.1699" stop-color="#2C87E7"/>
<stop offset="0.441" stop-color="#3D9FEB"/>
<stop offset="0.7773" stop-color="#59C4F2"/>
<stop offset="1" stop-color="#6EE1F8"/>
</linearGradient>
<linearGradient id="paint9_linear_2202_5410" x1="336.369" y1="305.23" x2="391.99" y2="305.23" gradientUnits="userSpaceOnUse">
<stop stop-color="#6DE0F6"/>
<stop offset="0.1595" stop-color="#68D8F5"/>
<stop offset="0.4138" stop-color="#5AC0F1"/>
<stop offset="0.7294" stop-color="#439BEA"/>
<stop offset="1" stop-color="#2C75E4"/>
</linearGradient>
<linearGradient id="paint10_linear_2202_5410" x1="423.5" y1="315.84" x2="495" y2="315.84" gradientUnits="userSpaceOnUse">
<stop stop-color="#029EE1"/>
<stop offset="1" stop-color="#005B83"/>
</linearGradient>
<linearGradient id="paint11_linear_2202_5410" x1="420.214" y1="305.231" x2="489.608" y2="322.402" gradientUnits="userSpaceOnUse">
<stop stop-color="#267FE5"/>
<stop offset="0.1699" stop-color="#2C87E7"/>
<stop offset="0.441" stop-color="#3D9FEB"/>
<stop offset="0.7773" stop-color="#59C4F2"/>
<stop offset="1" stop-color="#6EE1F8"/>
</linearGradient>
<linearGradient id="paint12_linear_2202_5410" x1="430" y1="305.23" x2="485.621" y2="305.23" gradientUnits="userSpaceOnUse">
<stop stop-color="#6DE0F6"/>
<stop offset="0.1595" stop-color="#68D8F5"/>
<stop offset="0.4138" stop-color="#5AC0F1"/>
<stop offset="0.7294" stop-color="#439BEA"/>
<stop offset="1" stop-color="#2C75E4"/>
</linearGradient>
<linearGradient id="paint13_linear_2202_5410" x1="517.13" y1="315.84" x2="588.63" y2="315.84" gradientUnits="userSpaceOnUse">
<stop stop-color="#029EE1"/>
<stop offset="1" stop-color="#005B83"/>
</linearGradient>
<linearGradient id="paint14_linear_2202_5410" x1="513.847" y1="305.231" x2="583.241" y2="322.402" gradientUnits="userSpaceOnUse">
<stop stop-color="#267FE5"/>
<stop offset="0.1699" stop-color="#2C87E7"/>
<stop offset="0.441" stop-color="#3D9FEB"/>
<stop offset="0.7773" stop-color="#59C4F2"/>
<stop offset="1" stop-color="#6EE1F8"/>
</linearGradient>
<linearGradient id="paint15_linear_2202_5410" x1="523.633" y1="305.23" x2="579.254" y2="305.23" gradientUnits="userSpaceOnUse">
<stop stop-color="#6DE0F6"/>
<stop offset="0.1595" stop-color="#68D8F5"/>
<stop offset="0.4138" stop-color="#5AC0F1"/>
<stop offset="0.7294" stop-color="#439BEA"/>
<stop offset="1" stop-color="#2C75E4"/>
</linearGradient>
<clipPath id="clip0_2202_5410">
<rect width="20" height="20" fill="white" transform="translate(680 379)"/>
</clipPath>
</defs>
</svg>
