<svg width="320" height="417" viewBox="0 0 320 417" fill="none" xmlns="http://www.w3.org/2000/svg">
<path d="M265.039 408.092L264.994 408.089C264.994 408.089 95.3542 414.586 -41.462 412.454C-178.278 410.322 -373.993 394.486 -373.993 394.486L-397 -27L923 -17.6606V389.816C905.821 393.504 879.734 397.867 805.817 404.637C737.102 410.931 708.88 411.946 654.583 414.586C600.286 417.225 479.378 417.271 446.904 416.717C345.704 414.992 313.278 412.219 265.039 408.092Z" fill="#F8FDFF"/>
<path d="M265.039 408.092L264.994 408.089C264.994 408.089 95.3542 414.586 -41.462 412.454C-178.278 410.322 -373.993 394.486 -373.993 394.486L-397 -27L923 -17.6606V389.816C905.821 393.504 879.734 397.867 805.817 404.637C737.102 410.931 708.88 411.946 654.583 414.586C600.286 417.225 479.378 417.271 446.904 416.717C345.704 414.992 313.278 412.219 265.039 408.092Z" fill="url(#paint0_linear_641_21988)"/>
<defs>
<linearGradient id="paint0_linear_641_21988" x1="-190.29" y1="293.739" x2="17.7827" y2="-114.291" gradientUnits="userSpaceOnUse">
<stop stop-color="#DAF4FF" stop-opacity="0"/>
<stop offset="1" stop-color="white"/>
</linearGradient>
</defs>
</svg>
