<svg width="15" height="10" viewBox="0 0 15 10" fill="none" xmlns="http://www.w3.org/2000/svg">
<path d="M9.82422 5.07467L14.7279 8.17469V1.84375L9.82422 5.07467Z" fill="white"/>
<path d="M0.181641 1.84424V8.17518L5.0853 5.07516L0.181641 1.84424Z" fill="white"/>
<path d="M13.8181 0H1.09081C0.637168 0 0.277167 0.338184 0.208984 0.77364L7.45448 5.5473L14.7 0.77364C14.6318 0.338184 14.2718 0 13.8181 0Z" fill="white"/>
<path d="M8.99098 5.62396L7.70461 6.47123C7.62825 6.52123 7.54188 6.54578 7.45461 6.54578C7.36734 6.54578 7.28097 6.52123 7.20461 6.47123L5.91824 5.62305L0.210938 9.23306C0.280938 9.66488 0.639121 10.0003 1.09094 10.0003H13.8183C14.2701 10.0003 14.6283 9.66488 14.6983 9.23306L8.99098 5.62396Z" fill="white"/>
</svg>
