<svg width="14" height="10" viewBox="0 0 14 10" fill="none" xmlns="http://www.w3.org/2000/svg">
<g id="Group 490">
<g id="Group">
<g id="Group_2">
<path id="Vector" d="M9.28027 5.19639L13.9996 8.17988V2.08691L9.28027 5.19639Z" fill="#003A74"/>
</g>
</g>
<g id="Group_3">
<g id="Group_4">
<path id="Vector_2" d="M0 2.08691V8.17988L4.71934 5.19639L0 2.08691Z" fill="#003A74"/>
</g>
</g>
<g id="Group_5">
<g id="Group_6">
<path id="Vector_3" d="M13.125 0.3125H0.87602C0.439433 0.3125 0.092963 0.637972 0.0273438 1.05706L7.00048 5.65128L13.9736 1.05706C13.908 0.637972 13.5615 0.3125 13.125 0.3125Z" fill="#003A74"/>
</g>
</g>
<g id="Group_7">
<g id="Group_8">
<path id="Vector_4" d="M8.47735 5.72451L7.23934 6.53994C7.16584 6.58806 7.08273 6.61168 6.99873 6.61168C6.91474 6.61168 6.83162 6.58806 6.75813 6.53994L5.52011 5.72363L0.0273438 9.19795C0.0947129 9.61354 0.439433 9.93639 0.87427 9.93639H13.1232C13.558 9.93639 13.9028 9.61354 13.9701 9.19795L8.47735 5.72451Z" fill="#003A74"/>
</g>
</g>
</g>
</svg>
