<svg width="15" height="15" viewBox="0 0 15 15" fill="none" xmlns="http://www.w3.org/2000/svg">
<g id="Group">
<g id="Group_2">
<path id="Vector" d="M11.4038 9.92257C10.9137 9.43876 10.3019 9.43876 9.815 9.92257C9.44356 10.2909 9.07212 10.6592 8.70692 11.0338C8.60704 11.1368 8.52276 11.1586 8.40103 11.09C8.16069 10.9589 7.90474 10.8527 7.67376 10.7091C6.5969 10.0318 5.69483 9.16096 4.89577 8.18086C4.49936 7.69393 4.14665 7.17267 3.90006 6.58586C3.85012 6.46725 3.85948 6.38922 3.95624 6.29245C4.32768 5.9335 4.68976 5.56518 5.05495 5.19686C5.56373 4.68496 5.56373 4.08567 5.05183 3.57065C4.76155 3.27724 4.47126 2.99008 4.18098 2.69667C3.88133 2.39702 3.5848 2.09425 3.28203 1.79773C2.79198 1.32016 2.1802 1.32016 1.69327 1.80085C1.31871 2.16917 0.959758 2.54685 0.578954 2.90892C0.226243 3.24291 0.0483265 3.6518 0.0108705 4.12937C-0.048435 4.90658 0.141967 5.64009 0.410402 6.35488C0.959758 7.8344 1.79628 9.14848 2.81071 10.3533C4.18098 11.9827 5.81656 13.2718 7.72994 14.2019C8.59143 14.6202 9.48413 14.9417 10.4549 14.9947C11.1228 15.0322 11.7034 14.8636 12.1685 14.3424C12.4869 13.9866 12.8458 13.6619 13.1829 13.3217C13.6823 12.8161 13.6855 12.2043 13.1892 11.7049C12.5961 11.1087 11.9999 10.5156 11.4038 9.92257Z" fill="white"/>
<path id="Vector_2" d="M10.8074 7.43513L11.9591 7.23848C11.7781 6.18035 11.2787 5.2221 10.5202 4.46049C9.71801 3.65831 8.70358 3.15265 7.58614 2.99658L7.42383 4.1546C8.28844 4.27633 9.07502 4.6665 9.69616 5.28765C10.283 5.87446 10.6669 6.61734 10.8074 7.43513Z" fill="white"/>
<path id="Vector_3" d="M12.6097 2.4284C11.28 1.09871 9.59763 0.259071 7.74043 0L7.57812 1.15802C9.18249 1.38275 10.637 2.11003 11.7857 3.25556C12.875 4.3449 13.5898 5.72142 13.8489 7.23526L15.0007 7.03862C14.6979 5.28443 13.8707 3.69254 12.6097 2.4284Z" fill="white"/>
</g>
</g>
</svg>
