<svg width="1920" height="620" viewBox="0 0 1920 620" fill="none" xmlns="http://www.w3.org/2000/svg">
<path d="M876.325 595.446L876.251 595.435C876.251 595.435 599.686 613.345 376.635 607.468C153.583 601.592 -165.491 557.938 -165.491 557.938L-203 -199L1949 -173.256V545.066C1920.99 555.233 1878.46 567.258 1757.96 585.921C1645.93 603.271 1599.92 606.069 1511.4 613.345C1422.88 620.62 1225.76 620.747 1172.82 619.221C1007.83 614.465 954.969 606.82 876.325 595.446Z" fill="#F8FDFF"/>
<path d="M876.325 595.446L876.251 595.435C876.251 595.435 599.686 613.345 376.635 607.468C153.583 601.592 -165.491 557.938 -165.491 557.938L-203 -199L1949 -173.256V545.066C1920.99 555.233 1878.46 567.258 1757.96 585.921C1645.93 603.271 1599.92 606.069 1511.4 613.345C1422.88 620.62 1225.76 620.747 1172.82 619.221C1007.83 614.465 954.969 606.82 876.325 595.446Z" fill="url(#paint0_linear_641_13227)" fill-opacity="0.2"/>
<defs>
<linearGradient id="paint0_linear_641_13227" x1="134.001" y1="392.633" x2="544.523" y2="-318.877" gradientUnits="userSpaceOnUse">
<stop stop-color="#19548E"/>
<stop offset="1" stop-color="#3484D5"/>
</linearGradient>
</defs>
</svg>
