<svg width="606" height="569" viewBox="0 0 606 569" fill="none" xmlns="http://www.w3.org/2000/svg">
<path d="M280.751 32.3335C405.326 16.1286 612.27 100.491 565.622 302.755C518.974 505.019 554.144 486.216 554.144 486.216C555.629 498.292 546.312 509.375 533.335 510.971L305.328 539.011C76.7918 547.393 41.0145 390.835 32.5061 322.936C16.9631 198.899 108.804 54.7007 280.751 32.3335Z" fill="#D0E4F5"/>
<path d="M283.068 93.6281C395.643 78.97 522.89 145.901 503.465 289.16C484.04 432.419 503.465 457.66 503.465 457.66C504.67 467.461 496.741 461.737 486.391 463.01L304.545 485.373C122.243 491.783 94.1101 377.152 90.6064 314.022C83.5061 186.088 172.617 108.01 283.068 93.6281Z" fill="#D4E8F9"/>
<g clip-path="url(#clip0_2245_5476)">
<path d="M193.094 336.578L187.708 333.442C186.536 332.612 185.605 331.486 185.009 330.179C184.413 328.872 184.175 327.43 184.317 326L189.703 329.136C189.566 330.565 189.808 332.005 190.403 333.312C190.998 334.618 191.926 335.744 193.094 336.578Z" fill="#37404A"/>
<path d="M193.094 336.578L187.708 333.442C186.536 332.612 185.605 331.486 185.009 330.179C184.413 328.872 184.175 327.43 184.317 326L189.703 329.136C189.566 330.565 189.808 332.005 190.403 333.312C190.998 334.618 191.926 335.744 193.094 336.578Z" fill="#37404A"/>
<path d="M189.699 329.108L184.313 325.972L184 216.854L189.386 219.962L189.699 329.108Z" fill="#37404A"/>
<path d="M200.952 199.947L195.567 196.81L351.695 106.597L357.081 109.733L200.952 199.947Z" fill="#37404A"/>
<path d="M189.386 219.992L184 216.855C184.222 212.852 185.385 208.958 187.395 205.489C189.406 202.021 192.206 199.077 195.569 196.896L200.955 200.033C197.603 202.225 194.811 205.172 192.802 208.638C190.793 212.104 189.623 215.992 189.386 219.992Z" fill="#37404A"/>
<path d="M189.386 219.992L184 216.855C184.063 213.808 184.762 210.807 186.052 208.045L191.437 211.181C190.161 213.948 189.463 216.946 189.386 219.992Z" fill="#37404A"/>
<path d="M191.436 211.181L186.051 208.045C187.063 205.77 188.376 203.641 189.955 201.715L195.34 204.851C193.762 206.777 192.449 208.906 191.436 211.181Z" fill="#37404A"/>
<path d="M195.343 204.851L189.957 201.715C191.54 199.744 193.471 198.081 195.656 196.811L201.042 199.947C198.857 201.218 196.925 202.88 195.343 204.851Z" fill="#37404A"/>
<path d="M357.113 109.733C363.496 106.027 368.739 108.992 368.739 116.377L369.053 225.522C368.815 229.522 367.646 233.41 365.637 236.876C363.628 240.342 360.835 243.289 357.484 245.481L201.355 335.695C194.943 339.373 189.729 336.408 189.7 329.051L189.387 219.906C189.624 215.906 190.794 212.018 192.803 208.552C194.812 205.086 197.604 202.139 200.956 199.947L357.113 109.733Z" fill="#242A31"/>
<path d="M362.694 225.551C362.466 228.441 361.592 231.243 360.137 233.75C358.682 236.257 356.683 238.405 354.288 240.035L198.159 330.249C197.603 330.583 196.997 330.823 196.364 330.962C196.152 330.368 196.055 329.739 196.079 329.108V328.11L195.766 219.962C195.994 217.076 196.865 214.277 198.315 211.771C199.764 209.265 201.756 207.115 204.143 205.478L358.819 116.091L360.272 115.265C360.828 114.911 361.447 114.669 362.096 114.552C362.292 115.15 362.388 115.776 362.381 116.405L362.694 225.551Z" fill="#10191B"/>
<path d="M359.132 224.24C358.915 227.133 358.05 229.941 356.599 232.453C355.149 234.966 353.151 237.119 350.754 238.753L196.079 328.111L195.766 219.963C195.994 217.076 196.865 214.277 198.315 211.771C199.764 209.265 201.756 207.115 204.143 205.479L358.819 116.092L359.132 224.24Z" fill="#23B2EE"/>
<g style="mix-blend-mode:screen">
<path d="M233.926 188.257L195.855 249.615L195.912 272.853L263.647 171.063L233.926 188.257Z" fill="#242A31"/>
</g>
<g style="mix-blend-mode:screen">
<path d="M196 301.737L196.085 328.111L204.435 323.264L338.764 127.696L293.769 153.671L196 301.737Z" fill="#242A31"/>
</g>
<path d="M359.962 105.798L365.376 108.934C364.052 108.32 362.588 108.07 361.136 108.211C359.683 108.351 358.294 108.876 357.112 109.733L351.726 106.596C352.904 105.743 354.288 105.219 355.736 105.078C357.183 104.938 358.642 105.186 359.962 105.798Z" fill="#37404A"/>
<path d="M478.192 307.381V313.625C478.059 315.055 477.548 316.424 476.712 317.592C475.876 318.759 474.744 319.683 473.433 320.269V314.024C474.743 313.436 475.872 312.512 476.708 311.345C477.544 310.178 478.056 308.81 478.192 307.381Z" fill="#98A4E0"/>
<path d="M478.19 307.381V313.625C478.189 314.39 478.034 315.146 477.734 315.849V309.633C478.047 308.923 478.212 308.157 478.219 307.381H478.19Z" fill="#98A4E0"/>
<path d="M477.705 309.634V315.85C476.794 317.755 475.282 319.307 473.402 320.269V314.025C475.26 313.057 476.759 311.518 477.677 309.634H477.705Z" fill="#98A4E0"/>
<path d="M195.398 348.895V342.65C195.537 344.105 196.059 345.496 196.91 346.683C197.761 347.87 198.911 348.81 200.243 349.408V355.652C198.907 355.059 197.754 354.12 196.902 352.932C196.051 351.744 195.531 350.35 195.398 348.895Z" fill="#98A4E0"/>
<path d="M200.245 349.408V355.652C198.915 355.055 197.768 354.115 196.922 352.927C196.075 351.739 195.56 350.347 195.43 348.895V342.65C195.569 344.105 196.09 345.496 196.941 346.683C197.792 347.87 198.942 348.81 200.274 349.408H200.245Z" fill="#98A4E0"/>
<path d="M473.434 314.024L473.405 320.269L318.274 410.482L318.303 404.238L473.434 314.024Z" fill="#98A4E0"/>
<path d="M295.167 404.238L295.138 410.482L200.219 355.624L200.247 349.408L295.167 404.238Z" fill="#98A4E0"/>
<path d="M318.301 404.238V410.425C314.723 412.252 310.764 413.205 306.746 413.205C302.729 413.205 298.769 412.252 295.191 410.425V404.181C298.766 406.012 302.723 406.972 306.74 406.982C310.756 406.992 314.718 406.052 318.301 404.238Z" fill="#98A4E0"/>
<path d="M318.302 404.238V410.425C314.677 412.395 310.599 413.378 306.476 413.276V407.004C310.61 407.122 314.702 406.138 318.33 404.152L318.302 404.238Z" fill="#98A4E0"/>
<path d="M306.444 407.003V413.276C302.464 413.313 298.541 412.331 295.046 410.425V404.181C298.544 406.08 302.465 407.061 306.444 407.032V407.003Z" fill="#98A4E0"/>
<path d="M473.345 300.623C479.756 304.33 479.785 310.346 473.345 314.024L318.214 404.238C314.631 406.065 310.666 407.018 306.644 407.018C302.623 407.018 298.658 406.065 295.075 404.238L200.241 349.408C193.829 345.702 193.801 339.714 200.241 336.007L355.372 245.794C358.955 243.966 362.92 243.014 366.941 243.014C370.963 243.014 374.928 243.966 378.511 245.794L473.345 300.623Z" fill="#CDDCFB"/>
<path d="M441.633 292.868C441.386 293.835 440.929 294.736 440.293 295.505C439.658 296.274 438.86 296.892 437.957 297.316L290.462 382.854C287.625 384.301 284.486 385.055 281.301 385.055C278.116 385.055 274.977 384.301 272.14 382.854L208.793 346.301C207.108 345.477 205.802 344.038 205.146 342.28C204.462 339.942 205.63 337.49 208.708 335.694L356.231 250.156C359.068 248.709 362.208 247.955 365.392 247.955C368.577 247.955 371.716 248.709 374.554 250.156L437.9 286.709C439.1 287.199 440.111 288.063 440.783 289.172C441.455 290.281 441.753 291.577 441.633 292.868Z" fill="#98A4E0"/>
<path d="M441.635 292.868C441.389 293.835 440.931 294.735 440.296 295.504C439.66 296.273 438.862 296.892 437.959 297.316L290.465 382.853C287.627 384.3 284.488 385.054 281.303 385.054C278.119 385.054 274.979 384.3 272.142 382.853L208.796 346.3C207.11 345.477 205.805 344.038 205.148 342.28C205.409 341.315 205.871 340.418 206.505 339.646C207.139 338.874 207.929 338.246 208.824 337.803L356.148 252.266C358.985 250.819 362.124 250.064 365.309 250.064C368.494 250.064 371.633 250.819 374.47 252.266L437.817 288.819C438.689 289.207 439.476 289.765 440.132 290.46C440.787 291.155 441.298 291.973 441.635 292.868Z" fill="#BECEF9"/>
<path d="M375.012 257.855V258.91L365.637 264.356L365.666 263.301L375.012 257.855Z" fill="#242A31"/>
<path d="M365.663 263.301L365.635 264.356L356.231 258.91V257.855L365.663 263.301Z" fill="#242A31"/>
<path d="M363.262 264.698V265.725L353.887 271.171V270.144L363.262 264.698Z" fill="#242A31"/>
<path d="M353.889 270.144V271.171L344.457 265.753V264.698L353.889 270.144Z" fill="#242A31"/>
<path d="M351.495 271.541V272.567L342.12 278.013V276.987L351.495 271.541Z" fill="#242A31"/>
<path d="M342.123 276.987V278.013L332.69 272.567V271.541L342.123 276.987Z" fill="#242A31"/>
<path d="M339.73 278.384V279.41L330.355 284.856V283.83L339.73 278.384Z" fill="#242A31"/>
<path d="M330.358 283.83V284.856L320.926 279.41V278.384L330.358 283.83Z" fill="#242A31"/>
<path d="M327.962 285.228V286.254L318.587 291.7V290.673L327.962 285.228Z" fill="#242A31"/>
<path d="M318.589 290.673V291.7L309.157 286.254V285.228L318.589 290.673Z" fill="#242A31"/>
<path d="M316.188 292.07V293.097L306.813 298.543V297.516L316.188 292.07Z" fill="#242A31"/>
<path d="M306.815 297.516V298.543L297.383 293.097V292.07L306.815 297.516Z" fill="#242A31"/>
<path d="M304.422 298.913V299.94L295.047 305.385V304.359L304.422 298.913Z" fill="#242A31"/>
<path d="M295.049 304.359V305.385L285.617 299.94V298.913L295.049 304.359Z" fill="#242A31"/>
<path d="M292.656 305.756V306.782L283.28 312.228V311.202L292.656 305.756Z" fill="#242A31"/>
<path d="M283.278 311.202V312.228L273.874 306.782V305.756L283.278 311.202Z" fill="#242A31"/>
<path d="M280.891 312.599V313.625L271.516 319.071L271.544 318.045L280.891 312.599Z" fill="#242A31"/>
<path d="M271.541 318.045L271.513 319.071L262.109 313.625V312.599L271.541 318.045Z" fill="#242A31"/>
<path d="M269.116 319.442V320.469L259.77 325.915V324.86L269.116 319.442Z" fill="#242A31"/>
<path d="M259.772 324.86V325.915L250.34 320.469V319.442L259.772 324.86Z" fill="#242A31"/>
<path d="M257.372 326.285L257.343 327.312L247.996 332.757V331.731L257.372 326.285Z" fill="#242A31"/>
<path d="M247.999 331.731V332.757L238.567 327.312V326.285L247.999 331.731Z" fill="#242A31"/>
<path d="M245.605 333.1L245.577 334.155L236.23 339.6V338.546L245.605 333.1Z" fill="#242A31"/>
<path d="M236.233 338.546V339.6L226.801 334.155V333.1L236.233 338.546Z" fill="#242A31"/>
<path d="M233.836 339.942V340.997L224.461 346.443V345.388L233.836 339.942Z" fill="#242A31"/>
<path d="M224.463 345.388V346.443L215.031 340.997V339.971L224.463 345.388Z" fill="#242A31"/>
<path d="M386.263 264.955V266.01L367.199 277.101V276.046L386.263 264.955Z" fill="#242A31"/>
<path d="M367.202 276.046V277.101L357.769 271.656V270.601L367.202 276.046Z" fill="#242A31"/>
<path d="M365.087 277.272V278.327L355.712 283.773V282.747L365.087 277.272Z" fill="#242A31"/>
<path d="M355.714 282.747V283.773L346.282 278.327V277.301L355.714 282.747Z" fill="#242A31"/>
<path d="M353.864 283.802V284.857L344.489 290.303V289.276L353.864 283.802Z" fill="#242A31"/>
<path d="M344.491 289.276V290.302L335.059 284.857V283.83L344.491 289.276Z" fill="#242A31"/>
<path d="M342.633 290.331V291.386L333.258 296.832V295.777L342.633 290.331Z" fill="#242A31"/>
<path d="M333.26 295.777V296.832L323.828 291.386V290.331L333.26 295.777Z" fill="#242A31"/>
<path d="M331.406 296.86V297.915L322.031 303.361V302.306L331.406 296.86Z" fill="#242A31"/>
<path d="M322.034 302.306V303.361L312.601 297.915V296.86L322.034 302.306Z" fill="#242A31"/>
<path d="M320.184 303.39V304.445L310.808 309.89V308.836L320.184 303.39Z" fill="#242A31"/>
<path d="M310.806 308.836V309.89L301.402 304.445V303.39L310.806 308.836Z" fill="#242A31"/>
<path d="M308.961 309.919V310.945L299.586 316.391L299.614 315.365L308.961 309.919Z" fill="#242A31"/>
<path d="M299.612 315.365L299.583 316.391L290.18 310.945V309.919L299.612 315.365Z" fill="#242A31"/>
<path d="M297.73 316.448V317.475L288.355 322.949L288.383 321.894L297.73 316.448Z" fill="#242A31"/>
<path d="M288.38 321.894L288.352 322.949L278.948 317.503V316.448L288.38 321.894Z" fill="#242A31"/>
<path d="M286.523 322.978L286.495 324.004L277.148 329.45V328.423L286.523 322.978Z" fill="#242A31"/>
<path d="M277.151 328.423V329.45L267.719 324.004V322.978L277.151 328.423Z" fill="#242A31"/>
<path d="M275.3 329.507L275.272 330.533L265.925 335.979V334.953L275.3 329.507Z" fill="#242A31"/>
<path d="M265.928 334.953V335.979L256.495 330.533V329.507L265.928 334.953Z" fill="#242A31"/>
<path d="M264.071 336.036V337.063L254.696 342.508V341.482L264.071 336.036Z" fill="#242A31"/>
<path d="M254.698 341.482V342.508L245.266 337.063V336.036L254.698 341.482Z" fill="#242A31"/>
<path d="M252.736 342.623V343.649L236.18 353.287L236.208 352.232L252.736 342.623Z" fill="#242A31"/>
<path d="M236.205 352.232L236.177 353.287L226.773 347.841V346.786L236.205 352.232Z" fill="#242A31"/>
<path d="M398.054 271.77V272.824L374.289 286.625V285.57L398.054 271.77Z" fill="#242A31"/>
<path d="M374.291 285.57V286.625L364.859 281.179V280.124L374.291 285.57Z" fill="#242A31"/>
<path d="M372.188 286.824V287.851L362.812 293.297V292.27L372.188 286.824Z" fill="#242A31"/>
<path d="M362.815 292.27V293.297L353.383 287.851V286.824L362.815 292.27Z" fill="#242A31"/>
<path d="M361.097 293.268V294.294L351.75 299.74V298.685L361.097 293.268Z" fill="#242A31"/>
<path d="M351.752 298.685V299.74L342.32 294.294V293.239L351.752 298.685Z" fill="#242A31"/>
<path d="M350.047 299.683V300.709L340.672 306.183L340.7 305.129L350.047 299.683Z" fill="#242A31"/>
<path d="M340.703 305.129L340.674 306.183L331.242 300.709L331.271 299.683L340.703 305.129Z" fill="#242A31"/>
<path d="M338.984 306.127V307.153L329.609 312.599V311.573L338.984 306.127Z" fill="#242A31"/>
<path d="M329.612 311.573V312.599L320.18 307.154L320.208 306.099L329.612 311.573Z" fill="#242A31"/>
<path d="M327.93 312.542V313.597L318.555 319.043V317.988L327.93 312.542Z" fill="#242A31"/>
<path d="M318.557 317.988V319.043L309.125 313.597V312.542L318.557 317.988Z" fill="#242A31"/>
<path d="M316.876 318.986V320.013L307.5 325.459V324.432L316.876 318.986Z" fill="#242A31"/>
<path d="M307.503 324.432V325.459L298.071 320.013V318.986L307.503 324.432Z" fill="#242A31"/>
<path d="M305.816 325.401L305.788 326.456L296.441 331.902V330.847L305.816 325.401Z" fill="#242A31"/>
<path d="M296.444 330.847V331.902L287.012 326.456V325.401L296.444 330.847Z" fill="#242A31"/>
<path d="M294.733 331.845V332.871L285.387 338.317V337.291L294.733 331.845Z" fill="#242A31"/>
<path d="M285.389 337.291V338.317L275.957 332.871V331.845L285.389 337.291Z" fill="#242A31"/>
<path d="M283.672 338.261V339.316L274.297 344.762V343.735L283.672 338.261Z" fill="#242A31"/>
<path d="M274.299 343.735V344.762L264.867 339.316V338.261L274.299 343.735Z" fill="#242A31"/>
<path d="M271.851 345.16V346.187L247.972 360.072V359.046L271.851 345.16Z" fill="#242A31"/>
<path d="M247.974 359.045V360.072L238.542 354.626V353.6L247.974 359.045Z" fill="#242A31"/>
<path d="M397.776 285.369V286.424L392.391 289.532V288.506L397.776 285.369Z" fill="#242A31"/>
<path d="M392.389 288.506V289.532L383.128 284.2L383.156 283.146L392.389 288.506Z" fill="#242A31"/>
<path d="M409.745 292.298L409.717 293.324L397.777 286.424V285.369L409.745 292.298Z" fill="#242A31"/>
<path d="M421.6 285.369V286.424L409.718 293.324L409.746 292.298L421.6 285.369Z" fill="#242A31"/>
<path d="M381.078 295.292L381.049 296.347L371.617 290.901V289.846L381.078 295.292Z" fill="#242A31"/>
<path d="M390.422 289.846V290.901L381.047 296.347L381.075 295.292L390.422 289.846Z" fill="#242A31"/>
<path d="M398.003 299.113V300.139L388.571 294.693V293.667L398.003 299.113Z" fill="#242A31"/>
<path d="M407.382 293.667V294.693L398.007 300.139V299.113L407.382 293.667Z" fill="#242A31"/>
<path d="M433.791 292.412V293.467L410.054 307.267V306.241L433.791 292.412Z" fill="#242A31"/>
<path d="M410.056 306.241V307.267L400.624 301.821V300.795L410.056 306.241Z" fill="#242A31"/>
<path d="M379.254 296.347V297.402L369.879 302.848L369.907 301.793L379.254 296.347Z" fill="#242A31"/>
<path d="M369.91 301.793L369.881 302.848L360.449 297.373L360.478 296.347L369.91 301.793Z" fill="#242A31"/>
<path d="M368.082 302.848V303.874L358.707 309.32V308.294L368.082 302.848Z" fill="#242A31"/>
<path d="M358.709 308.294V309.32L349.277 303.874L349.306 302.848L358.709 308.294Z" fill="#242A31"/>
<path d="M356.938 309.349L356.91 310.375L347.563 315.821V314.795L356.938 309.349Z" fill="#242A31"/>
<path d="M347.566 314.795V315.821L338.134 310.375V309.349L347.566 314.795Z" fill="#242A31"/>
<path d="M345.77 315.821V316.876L336.395 322.322V321.267L345.77 315.821Z" fill="#242A31"/>
<path d="M336.397 321.267V322.322L326.965 316.876V315.821L336.397 321.267Z" fill="#242A31"/>
<path d="M334.598 322.322V323.349L325.223 328.823V327.768L334.598 322.322Z" fill="#242A31"/>
<path d="M325.225 327.768V328.823L315.793 323.349V322.322L325.225 327.768Z" fill="#242A31"/>
<path d="M323.426 328.822V329.849L314.051 335.295V334.268L323.426 328.822Z" fill="#242A31"/>
<path d="M314.053 334.268V335.295L304.621 329.849V328.822L314.053 334.268Z" fill="#242A31"/>
<path d="M312.257 335.323V336.35L302.882 341.796V340.769L312.257 335.323Z" fill="#242A31"/>
<path d="M302.885 340.769V341.796L293.452 336.35V335.323L302.885 340.769Z" fill="#242A31"/>
<path d="M301.082 341.796V342.851L291.707 348.297V347.242L301.082 341.796Z" fill="#242A31"/>
<path d="M291.709 347.242V348.297L282.277 342.851V341.796L291.709 347.242Z" fill="#242A31"/>
<path d="M289.918 348.297V349.323L280.543 354.798V353.743L289.918 348.297Z" fill="#242A31"/>
<path d="M280.545 353.743V354.798L271.113 349.323V348.297L280.545 353.743Z" fill="#242A31"/>
<path d="M278.261 355.083V356.109L259.738 366.887V365.832L278.261 355.083Z" fill="#242A31"/>
<path d="M259.741 365.833V366.888L250.309 361.442V360.387L259.741 365.833Z" fill="#242A31"/>
<path d="M396.207 300.139V301.194L386.832 306.64V305.585L396.207 300.139Z" fill="#242A31"/>
<path d="M386.835 305.585V306.64L377.403 301.194V300.139L386.835 305.585Z" fill="#242A31"/>
<path d="M385.035 306.64V307.695L375.66 313.14V312.086L385.035 306.64Z" fill="#242A31"/>
<path d="M375.662 312.086V313.14L366.23 307.666V306.64L375.662 312.086Z" fill="#242A31"/>
<path d="M373.867 313.141V314.167L364.492 319.613V318.587L373.867 313.141Z" fill="#242A31"/>
<path d="M364.494 318.587V319.613L355.062 314.167V313.141L364.494 318.587Z" fill="#242A31"/>
<path d="M362.695 319.642V320.668L353.32 326.114V325.088L362.695 319.642Z" fill="#242A31"/>
<path d="M353.323 325.088V326.114L343.891 320.668V319.642L353.323 325.088Z" fill="#242A31"/>
<path d="M351.523 326.114V327.169L342.176 332.615V331.56L351.523 326.114Z" fill="#242A31"/>
<path d="M342.179 331.56V332.615L332.747 327.169V326.114L342.179 331.56Z" fill="#242A31"/>
<path d="M340.383 332.615V333.642L331.008 339.116V338.061L340.383 332.615Z" fill="#242A31"/>
<path d="M331.01 338.061V339.116L321.578 333.642V332.615L331.01 338.061Z" fill="#242A31"/>
<path d="M329.211 339.116V340.143L319.836 345.589V344.562L329.211 339.116Z" fill="#242A31"/>
<path d="M319.838 344.562V345.589L310.406 340.143V339.116L319.838 344.562Z" fill="#242A31"/>
<path d="M318.043 345.616L318.014 346.643L308.668 352.089V351.062L318.043 345.616Z" fill="#242A31"/>
<path d="M308.67 351.062V352.089L299.238 346.643V345.588L308.67 351.062Z" fill="#242A31"/>
<path d="M306.871 352.089V353.144L297.496 358.59V357.535L306.871 352.089Z" fill="#242A31"/>
<path d="M297.498 357.535V358.59L288.066 353.144V352.089L297.498 357.535Z" fill="#242A31"/>
<path d="M295.383 358.761V359.787L271.504 373.673V372.646L295.383 358.761Z" fill="#242A31"/>
<path d="M271.506 372.646V373.673L262.074 368.227L262.103 367.2L271.506 372.646Z" fill="#242A31"/>
<path d="M407.918 307.467V308.522L398.543 313.968V312.913L407.918 307.467Z" fill="#242A31"/>
<path d="M398.546 312.913V313.968L389.114 308.522V307.467L398.546 312.913Z" fill="#242A31"/>
<path d="M396.833 313.911V314.966L387.458 320.412V319.357L396.833 313.911Z" fill="#242A31"/>
<path d="M387.46 319.357V320.412L378.028 314.966V313.911L387.46 319.357Z" fill="#242A31"/>
<path d="M385.746 320.354V321.409L376.371 326.855V325.8L385.746 320.354Z" fill="#242A31"/>
<path d="M376.374 325.8V326.855L366.942 321.381V320.354L376.374 325.8Z" fill="#242A31"/>
<path d="M374.661 326.799V327.854L365.285 333.3V332.245L374.661 326.799Z" fill="#242A31"/>
<path d="M365.288 332.245V333.3L355.856 327.854V326.799L365.288 332.245Z" fill="#242A31"/>
<path d="M363.612 333.214V334.269L321.125 358.989V357.934L363.612 333.214Z" fill="#242A31"/>
<path d="M321.125 357.934V358.989L311.664 353.543L311.692 352.488L321.125 357.934Z" fill="#242A31"/>
<path d="M318.895 359.245V360.272L309.519 365.717V364.691L318.895 359.245Z" fill="#242A31"/>
<path d="M309.522 364.691V365.717L300.09 360.272V359.245L309.522 364.691Z" fill="#242A31"/>
<path d="M307.583 365.804V366.83L283.704 380.716V379.689L307.583 365.804Z" fill="#242A31"/>
<path d="M283.706 379.689V380.715L274.274 375.27V374.243L283.706 379.689Z" fill="#242A31"/>
<path d="M375.01 257.855L365.663 263.301L356.231 257.855L365.606 252.409L375.01 257.855Z" fill="#37404A"/>
<path d="M363.264 264.698L353.889 270.144L344.457 264.698L353.832 259.252L363.264 264.698Z" fill="#37404A"/>
<path d="M351.498 271.542L342.123 276.987L332.691 271.542L342.066 266.096L351.498 271.542Z" fill="#37404A"/>
<path d="M339.733 278.384L330.358 283.83L320.926 278.384L330.301 272.938L339.733 278.384Z" fill="#37404A"/>
<path d="M327.964 285.227L318.589 290.673L309.157 285.227L318.532 279.781L327.964 285.227Z" fill="#37404A"/>
<path d="M316.19 292.07L306.815 297.516L297.383 292.07L306.758 286.624L316.19 292.07Z" fill="#37404A"/>
<path d="M304.424 298.913L295.049 304.359L285.617 298.913L294.992 293.467L304.424 298.913Z" fill="#37404A"/>
<path d="M292.653 305.756L283.278 311.202L273.874 305.756L283.249 300.311L292.653 305.756Z" fill="#37404A"/>
<path d="M280.888 312.599L271.541 318.045L262.109 312.599L271.484 307.153L280.888 312.599Z" fill="#37404A"/>
<path d="M269.119 319.442L259.772 324.859L250.34 319.442L259.715 313.996L269.119 319.442Z" fill="#37404A"/>
<path d="M257.374 326.285L247.999 331.731L238.567 326.285L247.942 320.839L257.374 326.285Z" fill="#37404A"/>
<path d="M245.608 333.099L236.233 338.545L226.801 333.099L236.176 327.653L245.608 333.099Z" fill="#37404A"/>
<path d="M233.838 339.943L224.463 345.389L215.031 339.971L224.406 334.497L233.838 339.943Z" fill="#37404A"/>
<path d="M386.265 264.955L367.202 276.046L357.769 270.6L376.833 259.509L386.265 264.955Z" fill="#37404A"/>
<path d="M365.089 277.272L355.714 282.746L346.282 277.3L355.657 271.854L365.089 277.272Z" fill="#37404A"/>
<path d="M353.867 283.801L344.491 289.276L335.059 283.83L344.434 278.355L353.867 283.801Z" fill="#37404A"/>
<path d="M342.635 290.331L333.26 295.777L323.828 290.331L333.203 284.885L342.635 290.331Z" fill="#37404A"/>
<path d="M331.409 296.86L322.034 302.306L312.601 296.86L321.977 291.414L331.409 296.86Z" fill="#37404A"/>
<path d="M320.181 303.389L310.806 308.835L301.402 303.389L310.749 297.943L320.181 303.389Z" fill="#37404A"/>
<path d="M308.958 309.919L299.612 315.364L290.18 309.919L299.526 304.473L308.958 309.919Z" fill="#37404A"/>
<path d="M297.727 316.448L288.38 321.894L278.948 316.448L288.323 311.002L297.727 316.448Z" fill="#37404A"/>
<path d="M286.526 322.978L277.151 328.424L267.719 322.978L277.094 317.532L286.526 322.978Z" fill="#37404A"/>
<path d="M275.303 329.507L265.928 334.953L256.495 329.507L265.871 324.062L275.303 329.507Z" fill="#37404A"/>
<path d="M264.073 336.037L254.698 341.483L245.266 336.037L254.641 330.591L264.073 336.037Z" fill="#37404A"/>
<path d="M252.733 342.623L236.205 352.231L226.773 346.785L243.301 337.177L252.733 342.623Z" fill="#37404A"/>
<path d="M398.057 271.769L374.291 285.569L364.859 280.123L388.625 266.323L398.057 271.769Z" fill="#37404A"/>
<path d="M372.19 286.824L362.815 292.27L353.383 286.824L362.758 281.378L372.19 286.824Z" fill="#37404A"/>
<path d="M361.099 293.267L351.752 298.685L342.32 293.239L351.667 287.793L361.099 293.267Z" fill="#37404A"/>
<path d="M350.045 299.683L340.698 305.129L331.266 299.683L340.612 294.237L350.045 299.683Z" fill="#37404A"/>
<path d="M338.99 306.127L329.615 311.572L320.211 306.098L329.558 300.681L338.99 306.127Z" fill="#37404A"/>
<path d="M327.932 312.542L318.557 317.987L309.125 312.542L318.5 307.096L327.932 312.542Z" fill="#37404A"/>
<path d="M316.878 318.986L307.503 324.432L298.071 318.986L307.446 313.54L316.878 318.986Z" fill="#37404A"/>
<path d="M305.819 325.401L296.444 330.847L287.012 325.401L296.387 319.955L305.819 325.401Z" fill="#37404A"/>
<path d="M294.736 331.845L285.389 337.291L275.957 331.845L285.304 326.399L294.736 331.845Z" fill="#37404A"/>
<path d="M283.674 338.26L274.299 343.735L264.867 338.26L274.242 332.814L283.674 338.26Z" fill="#37404A"/>
<path d="M271.854 345.161L247.974 359.046L238.542 353.6L262.421 339.715L271.854 345.161Z" fill="#37404A"/>
<path d="M421.601 285.37L409.747 292.298L397.778 285.37L392.393 288.506L383.16 283.146L400.4 273.138L421.601 285.37Z" fill="#37404A"/>
<path d="M390.424 289.846L381.078 295.292L371.617 289.846L380.992 284.4L390.424 289.846Z" fill="#37404A"/>
<path d="M407.377 293.667L398.002 299.113L388.57 293.667L397.945 288.192L407.377 293.667Z" fill="#37404A"/>
<path d="M433.793 292.413L410.056 306.241L400.624 300.795L424.361 286.967L433.793 292.413Z" fill="#37404A"/>
<path d="M379.251 296.347L369.905 301.793L360.473 296.347L369.819 290.901L379.251 296.347Z" fill="#37404A"/>
<path d="M368.087 302.848L358.712 308.294L349.308 302.848L358.655 297.402L368.087 302.848Z" fill="#37404A"/>
<path d="M356.941 309.348L347.566 314.794L338.134 309.348L347.509 303.874L356.941 309.348Z" fill="#37404A"/>
<path d="M345.772 315.821L336.397 321.267L326.965 315.821L336.34 310.375L345.772 315.821Z" fill="#37404A"/>
<path d="M334.6 322.322L325.225 327.768L315.793 322.322L325.168 316.876L334.6 322.322Z" fill="#37404A"/>
<path d="M323.428 328.823L314.053 334.269L304.621 328.823L313.996 323.377L323.428 328.823Z" fill="#37404A"/>
<path d="M312.26 335.324L302.885 340.77L293.452 335.324L302.828 329.85L312.26 335.324Z" fill="#37404A"/>
<path d="M301.084 341.796L291.709 347.241L282.277 341.796L291.652 336.35L301.084 341.796Z" fill="#37404A"/>
<path d="M289.92 348.296L280.545 353.742L271.113 348.296L280.488 342.851L289.92 348.296Z" fill="#37404A"/>
<path d="M278.263 355.083L259.741 365.832L250.309 360.386L268.831 349.637L278.263 355.083Z" fill="#37404A"/>
<path d="M396.21 300.139L386.835 305.585L377.403 300.139L386.778 294.693L396.21 300.139Z" fill="#37404A"/>
<path d="M385.038 306.64L375.662 312.086L366.23 306.64L375.605 301.194L385.038 306.64Z" fill="#37404A"/>
<path d="M373.87 313.141L364.494 318.587L355.062 313.141L364.437 307.695L373.87 313.141Z" fill="#37404A"/>
<path d="M362.698 319.641L353.323 325.087L343.891 319.641L353.266 314.167L362.698 319.641Z" fill="#37404A"/>
<path d="M351.525 326.114L342.179 331.56L332.747 326.114L342.093 320.668L351.525 326.114Z" fill="#37404A"/>
<path d="M340.385 332.615L331.01 338.061L321.578 332.615L330.953 327.169L340.385 332.615Z" fill="#37404A"/>
<path d="M329.214 339.116L319.838 344.562L310.406 339.116L319.781 333.67L329.214 339.116Z" fill="#37404A"/>
<path d="M318.045 345.617L308.67 351.063L299.238 345.588L308.613 340.143L318.045 345.617Z" fill="#37404A"/>
<path d="M306.873 352.088L297.498 357.534L288.066 352.088L297.441 346.643L306.873 352.088Z" fill="#37404A"/>
<path d="M295.392 358.761L271.513 372.647L262.109 367.201L285.96 353.315L295.392 358.761Z" fill="#37404A"/>
<path d="M407.921 307.466L398.546 312.912L389.114 307.466L398.489 302.021L407.921 307.466Z" fill="#37404A"/>
<path d="M396.835 313.911L387.46 319.357L378.028 313.911L387.403 308.465L396.835 313.911Z" fill="#37404A"/>
<path d="M385.749 320.354L376.374 325.8L366.942 320.354L376.317 314.908L385.749 320.354Z" fill="#37404A"/>
<path d="M374.663 326.798L365.288 332.244L355.856 326.798L365.231 321.353L374.663 326.798Z" fill="#37404A"/>
<path d="M363.606 333.213L321.119 357.934L311.687 352.488L354.203 327.768L363.606 333.213Z" fill="#37404A"/>
<path d="M318.897 359.246L309.522 364.692L300.09 359.246L309.465 353.771L318.897 359.246Z" fill="#37404A"/>
<path d="M307.586 365.803L283.706 379.689L274.274 374.243L298.154 360.357L307.586 365.803Z" fill="#37404A"/>
<path d="M406.897 347.698C406.622 348.088 406.261 348.41 405.843 348.639L369.026 369.91C368.002 370.431 366.87 370.702 365.721 370.702C364.572 370.702 363.44 370.431 362.415 369.91L345.318 359.987C344.9 359.758 344.539 359.436 344.264 359.046C343.608 358.106 343.95 356.937 345.318 356.195L382.134 334.925C383.154 334.404 384.282 334.133 385.426 334.133C386.57 334.133 387.698 334.404 388.717 334.925L405.815 344.847C407.182 345.731 407.439 346.843 406.897 347.698Z" fill="#98A4E0"/>
<path d="M406.891 347.698C406.616 348.088 406.255 348.41 405.837 348.639L369.02 369.909C367.996 370.43 366.863 370.702 365.714 370.702C364.566 370.702 363.433 370.43 362.409 369.909L345.311 359.987C344.893 359.758 344.532 359.436 344.257 359.046C344.534 358.665 344.895 358.353 345.311 358.134L382.128 336.863C383.147 336.343 384.275 336.071 385.419 336.071C386.564 336.071 387.691 336.343 388.711 336.863L405.808 346.786C406.24 346.994 406.612 347.308 406.891 347.698Z" fill="#BECEF9"/>
<path d="M334.885 195.584L323.487 188.912C319.697 186.745 314.482 187.03 308.726 190.366C307.669 190.977 306.651 191.654 305.677 192.39L317.075 199.034C318.049 198.297 319.067 197.621 320.124 197.009C325.88 193.73 331.095 193.388 334.885 195.584Z" fill="#CDDCFB"/>
<path d="M257.009 228.6L245.61 221.957C244.648 225.337 244.018 228.804 243.73 232.307L255.128 238.95C255.416 235.447 256.046 231.981 257.009 228.6Z" fill="#CDDCFB"/>
<path d="M255.129 238.95L243.73 232.307C243.73 233.561 243.73 234.787 243.73 236.013C243.719 237.769 243.843 239.523 244.101 241.26L255.499 247.903C255.255 246.165 255.131 244.412 255.129 242.657C255.129 241.431 255.129 240.205 255.271 238.95H255.129Z" fill="#CDDCFB"/>
<path d="M286.301 188.398C268.948 198.406 254.956 222.613 254.956 242.572C254.959 244.327 255.083 246.08 255.327 247.819C254.341 248.195 253.387 248.653 252.477 249.187C248.11 252.029 244.476 255.863 241.871 260.377C239.266 264.891 237.764 269.957 237.488 275.162C237.488 284.714 244.27 288.563 252.591 283.716L320.297 244.568C326.321 240.652 331.335 235.367 334.931 229.143C338.526 222.92 340.6 215.934 340.985 208.756C340.985 195.584 331.638 190.252 320.183 196.867C319.126 197.478 318.108 198.154 317.134 198.891C313.942 184.578 301.347 179.702 286.301 188.398Z" fill="#EFF6FE"/>
<path d="M239.879 275.248C240.168 270.474 241.561 265.834 243.95 261.692C246.338 257.55 249.657 254.021 253.642 251.383C254.443 250.922 255.282 250.531 256.15 250.214L258.059 249.558L257.774 247.562C257.545 245.937 257.421 244.299 257.404 242.658C257.404 223.526 270.854 200.117 287.524 190.508C291.396 188.078 295.836 186.702 300.404 186.517C307.784 186.517 312.857 191.136 314.652 199.547L315.478 203.253L318.499 200.972C319.41 200.297 320.362 199.678 321.348 199.119C323.793 197.617 326.576 196.754 329.441 196.61C335.14 196.61 338.503 201.201 338.531 208.899C338.117 215.638 336.147 222.188 332.774 228.036C329.402 233.884 324.721 238.869 319.097 242.601L251.363 281.748C249.693 282.776 247.792 283.364 245.834 283.459C242.158 283.459 239.879 280.38 239.879 275.248ZM322.146 200.516C321.226 201.049 320.341 201.639 319.496 202.284L314.452 206.048L313.113 199.889C311.46 192.305 306.958 188.113 300.404 188.113C296.116 188.31 291.953 189.616 288.322 191.905C272.108 201.258 258.971 224.039 259.028 242.658C259.023 244.223 259.137 245.786 259.37 247.334L259.826 250.641L256.691 251.725C255.907 251.999 255.153 252.352 254.44 252.78C250.695 255.265 247.576 258.585 245.327 262.478C243.077 266.37 241.759 270.731 241.475 275.219C241.475 277.7 242.044 281.862 245.777 281.862C247.457 281.77 249.085 281.249 250.508 280.351L318.214 241.204C323.613 237.634 328.11 232.857 331.349 227.251C334.588 221.645 336.481 215.362 336.879 208.899C336.879 202.198 334.029 198.235 329.413 198.235C326.834 198.356 324.331 199.141 322.146 200.516Z" fill="#CDDCFB"/>
<path d="M230.394 278.241L241.792 284.885C240.274 283.81 239.069 282.352 238.298 280.659C237.527 278.966 237.218 277.099 237.404 275.248C237.68 270.043 239.181 264.976 241.786 260.462C244.391 255.948 248.025 252.114 252.393 249.273C253.303 248.739 254.256 248.281 255.242 247.904L243.844 241.261C242.853 241.626 241.899 242.084 240.994 242.629C236.627 245.471 232.993 249.305 230.388 253.819C227.783 258.333 226.281 263.399 226.005 268.604C225.82 270.455 226.128 272.323 226.899 274.016C227.67 275.709 228.876 277.167 230.394 278.241Z" fill="#D4E2FC"/>
<path d="M274.877 181.726C283.597 176.708 291.519 176.223 297.218 179.559L308.616 186.203C302.917 182.867 294.995 183.351 286.276 188.398C268.922 198.406 254.93 222.613 254.93 242.572C254.933 244.327 255.057 246.08 255.301 247.818L243.902 241.175C243.644 239.438 243.521 237.684 243.532 235.928C243.503 216.055 257.523 191.763 274.877 181.726Z" fill="#CDDCFB"/>
<path d="M302.283 226.691L297.239 219.164L299.861 217.709C299.087 216.685 298.002 215.939 296.769 215.585C295.536 215.23 294.221 215.285 293.022 215.742C287.579 217.225 281.994 223.583 279.771 230.797C279.6 231.486 279.245 232.116 278.743 232.619C278.24 233.121 277.611 233.477 276.922 233.648C275.867 233.648 275.383 232.593 275.839 231.11C278.916 221.216 286.525 212.549 293.934 210.524C295.933 209.749 298.158 209.797 300.122 210.657C302.087 211.517 303.632 213.119 304.42 215.115L307.498 213.404L302.283 226.691Z" fill="#CDDCFB"/>
<path d="M272.223 249.13L276.753 235.758L282.453 242.287L279.603 244.141C280.343 245.288 281.454 246.147 282.751 246.572C284.048 246.998 285.452 246.965 286.727 246.479C291.828 245.082 297.27 239.123 299.664 232.222C300.205 230.74 301.459 229.542 302.514 229.571C303.568 229.599 303.91 230.797 303.397 232.422C300.899 239.705 296.033 245.939 289.577 250.128C288.351 250.823 287.051 251.377 285.701 251.782C283.69 252.545 281.46 252.481 279.495 251.605C277.531 250.729 275.992 249.112 275.215 247.106L272.223 249.13Z" fill="#CDDCFB"/>
<path d="M247.347 275.305L259.144 268.519V272.881L247.347 279.667V275.305Z" fill="#3C6FF7"/>
<path d="M256.04 270.943L258.348 269.603V270.372L256.04 271.684V270.943Z" fill="#23B2EE"/>
<path d="M250.653 274.022L255.013 271.541V272.282L250.653 274.791V274.022Z" fill="#23B2EE"/>
<path d="M249.456 274.734V275.504L248.117 276.274V275.504L249.456 274.734Z" fill="#23B2EE"/>
<path d="M323.802 323.947C323.673 325.989 323.673 328.036 323.802 330.077C323.779 332.31 323.54 334.534 323.089 336.721C322.662 338.688 322.063 340.627 321.835 342.623C321.53 344.595 321.923 346.612 322.947 348.325C323.217 348.767 323.588 349.138 324.03 349.409C324.633 349.727 325.331 349.818 325.996 349.665C327.026 349.428 327.981 348.939 328.776 348.242C329.572 347.546 330.183 346.664 330.555 345.674C331.265 343.673 331.471 341.528 331.154 339.429C330.897 337.32 330.356 335.267 330.099 333.185C329.843 330.702 329.843 328.198 330.099 325.715C330.099 324.917 330.099 324.403 330.641 323.776C331.304 323.088 332.175 322.637 333.12 322.493C333.986 322.472 334.847 322.347 335.684 322.122C336.231 321.897 336.685 321.492 336.97 320.973C337.255 320.454 337.355 319.854 337.252 319.271C337.056 318.456 336.63 317.714 336.026 317.133C334.863 315.709 333.203 314.782 331.381 314.538C330.449 314.522 329.526 314.719 328.681 315.115C327.837 315.51 327.094 316.093 326.509 316.819C325.357 318.277 324.567 319.987 324.201 321.809C324.03 322.579 323.887 323.263 323.802 323.947Z" fill="#242A31"/>
<path d="M361.387 386.703C362.783 387.872 363.98 394.886 358.366 394.744C355.441 394.249 352.699 392.99 350.416 391.094C348.991 390.182 349.704 388.613 348.222 387.872C341.354 384.365 332.578 382.426 333.831 374.158C333.974 373.217 334.23 369.282 334.943 368.854C335.655 368.427 338.362 369.539 339.018 369.653C345.287 370.708 346.113 370.736 347.139 371.449C347.31 376.153 348.079 376.98 350.644 378.52C351.841 379.233 360.333 385.848 361.387 386.703Z" fill="#FFBFA2"/>
<path d="M362.98 415.444V410.426H364.376L364.006 415.615C363.928 415.674 363.839 415.717 363.745 415.741C363.65 415.764 363.552 415.768 363.456 415.752C363.359 415.736 363.268 415.7 363.186 415.647C363.104 415.594 363.034 415.525 362.98 415.444Z" fill="#283032"/>
<path d="M372.362 414.617C373.045 415.473 373.957 416.813 374.556 417.725C374.743 417.971 374.843 418.272 374.841 418.58C374.804 418.734 374.737 418.878 374.644 419.005C374.551 419.132 374.434 419.24 374.299 419.322C374.021 419.455 373.722 419.541 373.416 419.578C372.209 419.771 370.975 419.703 369.797 419.379C369.134 419.246 368.522 418.93 368.03 418.466C367.432 417.722 367.03 416.84 366.862 415.9C366.701 414.946 366.168 414.095 365.38 413.534L364.696 413.277C364.301 413.057 363.956 412.759 363.682 412.399C363.409 412.04 363.212 411.627 363.105 411.188C362.998 410.749 362.983 410.293 363.06 409.847C363.138 409.402 363.307 408.978 363.556 408.601C364.098 407.774 364.81 407.831 365.636 408.173C366.516 408.689 367.289 409.366 367.916 410.169L368.258 410.483C369.028 411.11 367.888 407.632 368.258 408.516C369.388 410.7 370.765 412.747 372.362 414.617Z" fill="#283032"/>
<path d="M367.311 379.061C367.921 379.634 368.313 380.399 368.423 381.228C368.765 384.515 368.85 387.823 368.679 391.122C368.679 393.973 368.024 396.825 368.024 399.904C368.027 402.862 368.246 405.817 368.679 408.743C368.879 409.712 367.112 410.397 366.228 409.94C365.345 409.484 364.405 408.886 364.348 408.201C363.465 404.423 362.332 400.709 360.957 397.081C360.174 393.897 360.086 390.58 360.7 387.359C360.814 384.505 361.701 381.736 363.265 379.347C363.51 379.06 363.81 378.825 364.148 378.655C364.485 378.485 364.852 378.384 365.228 378.358C365.605 378.331 365.983 378.38 366.34 378.5C366.698 378.621 367.028 378.812 367.311 379.061Z" fill="#EE9C76"/>
<path d="M368.481 407.575C368.546 408.231 368.67 408.88 368.851 409.514C368.851 409.799 368.851 410.084 369.079 410.369C369.202 410.678 369.355 410.974 369.535 411.253C369.82 411.766 370.162 412.279 370.504 412.793C370.895 413.217 371.248 413.675 371.558 414.161C371.729 414.532 371.957 415.273 371.558 415.558C371.292 415.659 370.998 415.659 370.732 415.558C369.907 415.308 369.167 414.834 368.595 414.19C368.034 413.553 367.414 412.97 366.742 412.45C366.287 412.137 365.774 411.909 365.318 411.595C364.832 411.298 364.434 410.878 364.164 410.377C363.894 409.876 363.761 409.313 363.779 408.744C363.779 408.145 364.206 407.632 364.235 407.062C364.206 406.465 364.313 405.871 364.548 405.322L368.481 407.575Z" fill="#EE9C76"/>
<path d="M367.714 420.576C367.728 420.747 367.728 420.919 367.714 421.09C367.737 421.371 367.696 421.653 367.592 421.916C367.488 422.178 367.325 422.412 367.115 422.601C366.944 422.748 366.744 422.86 366.529 422.928C366.314 422.997 366.087 423.021 365.861 423C365.083 422.892 364.342 422.597 363.701 422.14C363.061 421.683 362.541 421.078 362.185 420.377C361.52 418.668 360.659 417.041 359.621 415.53C359.307 415.216 358.965 414.988 358.681 414.646C358.247 414.134 357.997 413.492 357.968 412.821C357.892 412.247 358.013 411.664 358.31 411.167C358.642 410.751 359.111 410.467 359.634 410.367C360.157 410.268 360.699 410.359 361.16 410.626C361.844 410.968 362.841 410.768 363.354 411.367C363.737 411.844 364.054 412.372 364.294 412.935C365.487 415.024 366.507 417.208 367.343 419.464C367.493 419.826 367.617 420.197 367.714 420.576Z" fill="#3A4648"/>
<path d="M360.075 378.349C361.158 385.676 360.617 394.743 361.642 402.1C362.365 406.17 363.317 410.197 364.492 414.16C364.862 415.158 362.155 415.757 361.101 415.415C360.047 415.073 359.135 412.393 358.964 411.68C357.938 407.545 355.202 404.067 353.607 400.104C351.882 395.501 351.401 390.525 352.21 385.676C352.243 385.234 352.378 384.804 352.606 384.423C352.833 384.042 353.147 383.719 353.521 383.481L360.075 378.349Z" fill="#F8B495"/>
<path d="M362.641 410.882C362.869 411.366 363.582 411.309 363.724 411.794C363.867 412.279 364.351 413.733 364.607 414.275C364.941 414.977 365.162 415.727 365.263 416.499C365.31 416.776 365.276 417.06 365.165 417.319C365.053 417.577 364.87 417.797 364.636 417.953C364.389 418.162 364.076 418.276 363.753 418.276C363.429 418.276 363.116 418.162 362.869 417.953C362.245 417.49 361.697 416.932 361.245 416.299C360.807 415.76 360.425 415.177 360.105 414.56C359.446 413.332 358.967 412.017 358.68 410.654C358.606 410.019 358.606 409.378 358.68 408.743C358.936 408.849 359.183 408.973 359.421 409.114L362.271 410.682C362.784 410.882 362.47 410.425 362.641 410.882Z" fill="#F8B495"/>
<path d="M347.252 357.934C345.913 354.854 344.659 350.749 342.893 345.645C342.419 344.258 342.169 342.805 342.152 341.339C342.163 339.912 342.557 338.514 343.291 337.291C343.409 336.966 343.599 336.672 343.845 336.43C344.092 336.188 344.389 336.005 344.716 335.894C345.022 335.873 345.33 335.916 345.619 336.019C345.908 336.122 346.173 336.283 346.397 336.492C349.247 338.716 349.845 341.71 350.529 345.217C350.981 348.822 351.248 352.448 351.327 356.08C351.327 356.708 352.125 362.439 350.073 361.526C348.76 360.676 347.768 359.412 347.252 357.934Z" fill="#1499FC"/>
<path d="M347.911 354.827C348.623 354.285 349.45 351.206 349.906 351.975C350.362 352.745 353.639 357.849 355.063 359.816C353.215 361.163 351.489 362.671 349.906 364.321C347.914 362.316 346.514 359.8 345.859 357.051C345.859 356.024 346.971 355.568 347.911 354.827Z" fill="#1499FC"/>
<path d="M327.137 361.127C327.312 362.375 327.416 363.631 327.45 364.891C327.393 363.665 327.279 362.381 327.137 361.127Z" fill="#F3A984"/>
<path d="M327.449 364.806C327.449 365.604 327.449 366.374 327.449 367.144C327.478 366.459 327.478 365.69 327.449 364.806Z" fill="#F3A984"/>
<path d="M364.206 388.271C363.028 389.08 361.801 389.813 360.53 390.467C358.126 391.806 355.417 392.504 352.665 392.491C350.471 392.291 348.847 389.953 346.966 389.155C340.782 386.703 338.161 386.304 334.171 382.968C330.182 379.632 329.954 375.098 330.609 370.365C330.752 369.367 330.837 368.341 331.037 367.343C331.037 366.773 331.265 365.689 331.806 365.376C332.348 365.062 335.91 366.202 336.679 366.345C344.259 367.6 347.052 364.805 348.277 365.661C351.525 367.856 354.888 369.852 358.279 371.819C360.929 373.331 363.437 374.956 366.03 376.581C367.293 377.504 368.278 378.757 368.879 380.202C369.195 380.881 369.359 381.62 369.359 382.369C369.359 383.118 369.195 383.857 368.879 384.536C368.444 385.115 367.914 385.616 367.312 386.019C366.315 386.789 365.289 387.615 364.206 388.271Z" fill="#021B74"/>
<path d="M331.323 337.433C333.092 336.674 334.935 336.101 336.823 335.722L337.734 335.523C339.968 334.998 342.31 335.188 344.431 336.065V349.808H331.266L331.323 337.433Z" fill="#F3A984"/>
<path d="M325.397 343.421C325.682 340.256 329.273 338.517 331.894 336.921C331.943 338.198 332.363 339.433 333.102 340.476C333.84 341.519 334.867 342.325 336.055 342.794C336.754 343.065 337.524 343.094 338.241 342.877C338.959 342.66 339.583 342.209 340.016 341.597C341.166 339.637 341.523 337.311 341.013 335.096C342.191 335.267 343.34 335.593 344.433 336.065C345.458 336.532 346.335 337.272 346.969 338.204C347.325 339.015 347.527 339.885 347.567 340.77C347.825 341.741 348.149 342.694 348.536 343.621C348.992 344.761 349.79 345.816 350.189 346.985C350.508 348.317 350.439 349.712 349.989 351.006C349.77 351.596 349.503 352.169 349.191 352.716C348.735 353.629 348.308 354.513 347.938 355.568C347.535 356.385 347.266 357.26 347.14 358.162C347.011 358.965 347.011 359.783 347.14 360.586C347.482 362.781 349.02 365.661 347.14 367.514C345.936 368.644 344.536 369.543 343.008 370.166C341.14 370.94 339.099 371.202 337.096 370.927C335.093 370.651 333.2 369.847 331.61 368.598C331.489 368.537 331.381 368.453 331.293 368.35C331.205 368.247 331.138 368.128 331.097 367.999C331.097 367.8 331.097 367.4 331.097 367.201C331.097 366.374 331.097 365.547 331.239 364.749C331.382 363.056 331.324 361.353 331.068 359.673C330.213 354.598 326.879 350.264 325.369 345.417C325.253 344.756 325.263 344.079 325.397 343.421Z" fill="#22B0EC"/>
<path d="M326.392 340.969C330.267 341.767 329.697 348.981 331.749 352.117C333.259 354.569 336.479 353.999 339.101 354.199C338.274 354.59 337.571 355.201 337.069 355.966C336.566 356.73 336.283 357.618 336.251 358.532C336.031 362.632 336.338 366.743 337.163 370.764C335.165 370.545 333.264 369.786 331.663 368.569C331.543 368.508 331.435 368.423 331.347 368.321C331.259 368.218 331.192 368.099 331.15 367.97C331.15 367.77 331.15 367.371 331.15 367.172C331.15 366.345 331.15 365.518 331.293 364.72C331.435 363.027 331.378 361.324 331.122 359.644C330.267 354.569 326.933 350.235 325.423 345.388C325.258 344.785 325.2 344.158 325.252 343.535C325.36 342.583 325.758 341.687 326.392 340.969Z" fill="#1499FC"/>
<path d="M338.59 342.737C338.761 343.25 340.983 343.649 341.24 343.592C341.496 343.535 341.667 343.193 341.753 342.965C342.416 341.373 342.773 339.671 342.807 337.947C342.832 337.669 342.8 337.388 342.711 337.123C342.623 336.858 342.481 336.614 342.294 336.407C342.083 336.243 341.831 336.138 341.566 336.103C341.301 336.068 341.031 336.104 340.784 336.208C340.271 336.407 340.47 336.464 340.641 336.92C340.776 337.983 340.661 339.062 340.304 340.072C339.948 341.082 339.361 341.994 338.59 342.737Z" fill="#1499FC"/>
<path d="M332.49 337.804C332.347 342.651 340.782 342.737 340.668 338.175C340.497 331.845 340.155 331.104 337.363 330.134C336.606 329.839 335.808 329.666 334.997 329.621C332.148 329.621 333.202 331.189 333.316 332.301C333.63 335.609 332.547 336.065 332.49 337.804Z" fill="#F3A984"/>
<path d="M337.365 330.134C336.609 329.839 335.811 329.666 335 329.621C332.15 329.621 333.205 331.189 333.319 332.301C333.391 333.022 333.391 333.748 333.319 334.468C335.087 336.845 337.66 338.497 340.557 339.116C340.602 338.804 340.602 338.487 340.557 338.175C340.5 331.845 340.158 331.104 337.365 330.134Z" fill="#EE9C76"/>
<path d="M336.022 334.639L335.281 334.012C334.411 333.251 333.644 332.378 333.002 331.417C332.038 329.929 331.584 328.168 331.707 326.399C331.831 324.63 332.525 322.949 333.686 321.609C334.611 320.671 335.769 319.997 337.041 319.656C338.314 319.316 339.654 319.32 340.923 319.67C341.606 319.864 342.265 320.132 342.89 320.468C343.444 320.727 343.946 321.084 344.371 321.523C344.647 321.821 344.877 322.157 345.055 322.521C345.296 322.907 345.47 323.332 345.568 323.776C346.081 325.743 344.77 327.768 345.568 329.706C345.739 330.134 345.967 330.533 346.138 330.961C346.23 331.172 346.277 331.401 346.277 331.631C346.277 331.862 346.23 332.09 346.138 332.301C345.878 332.584 345.658 332.9 345.483 333.242C345.312 333.812 345.169 334.383 345.027 334.953C344.881 335.566 344.661 336.16 344.371 336.721C343.602 338.089 342.519 338.175 341.151 337.633C339.287 336.928 337.553 335.916 336.022 334.639Z" fill="#FFBFA2"/>
<path d="M329.924 325.345C329.818 324.222 330.028 323.093 330.532 322.085C331.036 321.076 331.813 320.23 332.774 319.642C334.241 318.469 336.085 317.871 337.96 317.96C339.847 318.053 341.675 318.643 343.261 319.671H343.46C344.3 320.159 344.991 320.869 345.455 321.723C345.686 322.202 345.849 322.711 345.939 323.235C346.11 324.204 345.255 324.632 344.4 324.888C343.066 325.059 341.712 324.972 340.411 324.632C339.865 324.532 339.305 324.532 338.758 324.632C338.485 324.69 338.231 324.817 338.021 325.002C337.812 325.187 337.653 325.423 337.561 325.687C337.555 326.272 337.661 326.853 337.875 327.397C337.965 327.943 337.894 328.503 337.672 329.01C337.449 329.516 337.084 329.946 336.621 330.249C336.396 330.407 336.127 330.492 335.852 330.492C335.576 330.492 335.308 330.407 335.082 330.249C334.541 330.021 333.971 329.593 333.401 329.964C332.831 330.334 333.059 331.019 333.173 331.532C333.287 332.045 333.771 332.444 333.458 332.444C332.354 331.621 331.458 330.55 330.845 329.316C330.231 328.083 329.916 326.722 329.924 325.345Z" fill="#37404A"/>
<path d="M337.448 325.801C337.441 326.386 337.548 326.967 337.762 327.511C337.851 328.057 337.781 328.617 337.558 329.123C337.336 329.63 336.971 330.06 336.508 330.363C336.282 330.521 336.014 330.606 335.738 330.606C335.463 330.606 335.194 330.521 334.969 330.363C334.428 330.135 333.858 329.707 333.288 330.078C332.718 330.448 333.117 331.047 333.288 331.589C333.288 331.589 333.687 332.558 333.288 332.558C332.156 331.689 331.254 330.557 330.658 329.26C330.062 327.964 329.791 326.541 329.868 325.116C329.781 323.623 330.181 322.142 331.008 320.896C332.184 321.356 333.302 321.949 334.342 322.664C335.479 323.604 336.519 324.655 337.448 325.801Z" fill="#242A31"/>
<path d="M333.6 328.852C332.289 328.852 331.947 330.391 332.859 331.703C333.168 332.069 333.522 332.395 333.913 332.672C336.278 334.697 336.763 332.53 336.136 331.845C334.398 330.22 335.252 328.966 333.6 328.852Z" fill="#FFBFA2"/>
<path d="M373.32 376.581V378.548L350.523 391.807V389.839L373.32 376.581Z" fill="#37404A"/>
<path d="M350.526 389.84V391.807L336.363 383.653V381.686L350.526 389.84Z" fill="#30383A"/>
<path d="M373.322 376.581L350.526 389.84L336.363 381.685L359.16 368.427L373.322 376.581Z" fill="#37404A"/>
<path d="M355.511 375.327L349.328 378.891L345.937 376.952L352.149 373.359L355.511 375.327Z" fill="#0D1315"/>
<path d="M342.575 383.881L363.405 371.763L370.843 376.068L350.012 388.157L342.575 383.881Z" fill="#0D1315"/>
<path d="M324.511 363.465C323.856 360.072 323.485 355.71 322.859 350.264C322.687 348.781 322.745 347.281 323.03 345.816C323.37 344.4 324.067 343.095 325.053 342.024C325.247 341.729 325.503 341.479 325.803 341.292C326.103 341.105 326.44 340.985 326.791 340.94C327.103 340.99 327.403 341.102 327.672 341.268C327.941 341.435 328.174 341.653 328.358 341.91C330.629 344.928 331.741 348.661 331.493 352.431C331.493 355.795 331.806 359.188 331.692 362.581C331.692 363.25 331.635 363.918 331.521 364.577C330.78 367.571 328.387 368.997 326.563 367.628C325.425 366.515 324.701 365.046 324.511 363.465Z" fill="#23B2EE"/>
<path d="M356.857 371.478C357.178 372.059 357.56 372.604 357.997 373.103C358.282 373.417 357.997 372.191 358.481 372.191C358.966 372.191 359.821 372.618 360.277 372.191C360.67 371.873 361.024 371.509 361.331 371.107C361.635 370.696 361.786 370.192 361.758 369.682C361.759 369.479 361.699 369.28 361.587 369.111C361.5 369.009 361.404 368.914 361.302 368.826L359.621 367.344L359.251 367.058C359.059 366.95 358.844 366.891 358.624 366.887C358.235 366.874 357.848 366.949 357.493 367.107C357.137 367.265 356.823 367.502 356.572 367.8C356.279 368.072 356.063 368.416 355.945 368.798C355.945 369.111 356.088 369.453 356.173 369.767C356.371 370.349 356.599 370.92 356.857 371.478Z" fill="#F8B495"/>
<path d="M356.141 369.966C356.141 370.793 356.141 371.591 356.141 372.418C356.099 372.73 356.099 373.047 356.141 373.359C356.214 373.592 356.3 373.82 356.398 374.043C356.461 374.266 356.537 374.485 356.626 374.699C356.97 375.277 357.475 375.743 358.079 376.039C358.298 376.213 358.55 376.339 358.82 376.41C358.991 376.41 359.219 376.41 359.276 376.239C359.304 376.156 359.304 376.065 359.276 375.982C359.248 375.741 359.17 375.508 359.048 375.298C358.848 375.07 358.563 374.927 358.392 374.728C358.243 374.525 358.147 374.289 358.112 374.04C358.077 373.791 358.105 373.537 358.193 373.302C358.364 372.817 358.649 372.39 358.848 371.933C358.954 371.701 359.008 371.448 359.008 371.192C359.008 370.936 358.954 370.684 358.848 370.451L358.535 370.023C358.28 369.702 357.96 369.439 357.595 369.253C357.254 369.127 356.88 369.127 356.54 369.253C356.141 369.282 356.141 369.595 356.141 369.966Z" fill="#F8B495"/>
<path d="M359.904 370.965C359.449 370.765 358.508 371.763 358.423 372.019C358.337 372.276 358.907 372.019 359.734 373.445C360.005 373.804 360.208 374.21 360.332 374.643C360.332 374.956 360.332 375.355 360.731 375.498C360.853 375.53 360.982 375.522 361.1 375.476C361.218 375.43 361.318 375.348 361.386 375.241C361.386 375.698 362.127 375.241 362.27 374.871C362.526 373.987 363.21 374.871 363.296 373.246H363.552C364.606 372.39 362.441 369.881 361.5 368.912C359.819 367.315 359.449 369.995 359.904 370.965Z" fill="#F8B495"/>
<path d="M349.902 364.235C351.486 362.585 353.212 361.078 355.06 359.73C356.682 361.916 358.085 364.255 359.249 366.716C360.104 368.598 356.399 370.366 355.601 369.396C353.586 367.808 351.682 366.084 349.902 364.235Z" fill="#1499FC"/>
<path d="M345.914 378.492C346.548 378.888 347.149 379.336 347.709 379.832C348.022 380.174 346.654 379.832 346.654 380.374C346.654 380.915 347.082 381.856 346.654 382.37C346.284 382.791 345.863 383.165 345.401 383.482C344.93 383.794 344.369 383.945 343.805 383.909C343.588 383.889 343.381 383.81 343.206 383.681C343.088 383.591 342.983 383.486 342.893 383.367L341.297 381.457C341.177 381.317 341.072 381.164 340.984 381.001C340.879 380.778 340.83 380.534 340.841 380.288C340.839 379.855 340.935 379.427 341.123 379.037C341.31 378.647 341.585 378.304 341.924 378.036C342.252 377.737 342.641 377.513 343.064 377.38C343.436 377.397 343.798 377.504 344.118 377.694C344.733 377.92 345.333 378.187 345.914 378.492Z" fill="#FFBFA2"/>
<path d="M344.26 377.636H347.11C347.46 377.594 347.814 377.594 348.164 377.636L348.905 377.95L349.618 378.207C350.258 378.611 350.764 379.196 351.071 379.889C351.247 380.148 351.372 380.438 351.441 380.744C351.47 380.839 351.463 380.941 351.421 381.03C351.379 381.12 351.305 381.191 351.213 381.229H350.957C350.69 381.199 350.434 381.101 350.216 380.944C349.992 380.7 349.782 380.443 349.589 380.174C349.364 380.005 349.101 379.893 348.823 379.849C348.545 379.804 348.26 379.828 347.993 379.917C347.468 380.116 346.954 380.345 346.455 380.602C346.199 380.714 345.922 380.772 345.642 380.772C345.363 380.772 345.086 380.714 344.83 380.602C344.651 380.504 344.487 380.379 344.346 380.231C344.009 379.928 343.738 379.559 343.548 379.147C343.406 378.771 343.406 378.355 343.548 377.978C343.491 377.636 343.861 377.636 344.26 377.636Z" fill="#FFBFA2"/>
<path d="M341.379 380.316C340.794 380.34 340.21 380.246 339.662 380.04C339.114 379.834 338.612 379.521 338.187 379.119C336.079 377.55 325.678 368.94 324.994 364.862C324.823 363.836 325.962 363.294 326.846 362.496C327.674 362.307 328.532 362.285 329.368 362.432C330.205 362.579 331.004 362.891 331.719 363.351C332.716 364.549 340.267 372.276 343.117 376.153C343.518 376.636 343.748 377.237 343.772 377.864C343.658 378.891 342.262 380.117 341.379 380.316Z" fill="#23B2EE"/>
<path d="M345.228 381.913C345.029 381.4 346.168 380.402 346.482 380.317C346.795 380.231 346.482 380.83 347.992 381.828C348.387 382.137 348.83 382.378 349.303 382.541C349.645 382.541 350.101 382.541 350.215 383.025C350.257 383.155 350.251 383.295 350.199 383.42C350.146 383.546 350.051 383.648 349.93 383.71C350.443 383.71 349.93 384.565 349.474 384.708C348.477 384.964 349.474 385.734 347.622 385.791V386.076C346.624 387.217 343.946 384.708 342.892 383.596C341.182 381.657 344.174 381.343 345.228 381.913Z" fill="#FFBFA2"/>
<path d="M376.603 362.952L378.313 363.95C378.244 363.91 378.165 363.889 378.085 363.889C378.005 363.889 377.926 363.91 377.857 363.95L376.147 362.952C376.217 362.912 376.295 362.891 376.375 362.891C376.455 362.891 376.534 362.912 376.603 362.952Z" fill="#3A4648"/>
<path d="M377.857 364.007L376.147 363.009H376.347L378.057 364.007C378.057 364.007 377.914 364.007 377.857 364.007Z" fill="#3A4648"/>
<path d="M378.057 363.921L376.347 362.923H376.604L378.285 363.921C378.212 363.892 378.13 363.892 378.057 363.921Z" fill="#3A4648"/>
<path d="M378.283 363.949L376.573 362.951H376.602L378.311 363.949H378.283Z" fill="#3A4648"/>
<path d="M356.341 376.495L354.632 375.497L376.146 363.009L377.827 363.978L356.341 376.495Z" fill="#3A4648"/>
<path d="M355.684 377.635L353.975 376.637C353.993 376.415 354.062 376.199 354.175 376.006C354.289 375.814 354.444 375.649 354.63 375.525L356.34 376.495C356.149 376.62 355.99 376.789 355.876 376.987C355.762 377.185 355.696 377.407 355.684 377.635Z" fill="#3A4648"/>
<path d="M356.147 376.78L354.438 375.782C354.521 375.673 354.628 375.585 354.751 375.525L356.461 376.495C356.343 376.574 356.238 376.67 356.147 376.78Z" fill="#353F41"/>
<path d="M355.803 377.151L354.094 376.153C354.153 376.02 354.229 375.895 354.322 375.782L356.031 376.78C355.939 376.893 355.862 377.018 355.803 377.151Z" fill="#353F41"/>
<path d="M377.857 364.007C378.199 363.807 378.484 364.007 378.484 364.377L373.241 376.609L350.444 389.867L355.516 377.607C355.616 377.157 355.881 376.761 356.257 376.495L377.857 364.007Z" fill="#37404A"/>
<path d="M350.529 389.84L348.819 388.842L354.091 376.125L355.801 377.123L350.529 389.84Z" fill="#30383A"/>
<path d="M338.589 342.736C337.901 343.518 337.116 344.208 336.253 344.789C335.968 344.96 335.74 345.188 335.426 345.017C333.35 343.51 331.787 341.4 330.952 338.973C330.919 338.611 330.962 338.245 331.08 337.901C331.198 337.557 331.387 337.242 331.636 336.977C331.994 336.786 332.365 336.624 332.748 336.492C332.821 337.28 332.994 338.056 333.261 338.802C333.827 339.792 334.593 340.653 335.511 341.331C336.428 342.008 337.477 342.487 338.589 342.736Z" fill="#1499FC"/>
<path d="M484.368 283.944C480.607 279.667 479.267 274.363 481.319 272.852C483.371 271.341 486.619 273.565 491.464 281.149C492.66 282.974 497.818 288.791 498.815 292.554C498.815 292.554 497.049 296.147 496.108 296.147C492.917 296.375 491.606 292.355 484.368 283.944Z" fill="#F3A984"/>
<path d="M481.346 272.852C483.255 271.426 485.649 273.536 487.045 274.677C488.899 276.136 490.522 277.866 491.861 279.809C492.744 280.739 493.304 281.929 493.457 283.202C493.338 284.552 492.741 285.816 491.776 286.766C491.074 287.511 490.279 288.163 489.41 288.705C487.872 289.646 487.273 288.705 486.333 287.564L483.113 283.801C479.408 279.552 479.294 274.363 481.346 272.852Z" fill="#1499FC"/>
<path d="M471.348 373.929C471.348 374.271 471.833 374.784 471.975 375.069C472.118 375.354 472.688 376.21 472.973 376.78C473.294 377.588 473.561 378.417 473.771 379.261C474.312 380.857 474.825 382.483 475.366 384.108C475.598 384.744 475.76 385.404 475.851 386.075C475.953 386.748 475.843 387.435 475.537 388.042C474.801 389.058 473.696 389.744 472.46 389.953C471.778 390.194 471.033 390.194 470.351 389.953C469.84 389.688 469.414 389.282 469.126 388.784C467.811 386.601 466.795 384.251 466.105 381.798C465.596 380.529 465.335 379.174 465.336 377.806C465.367 377.051 465.561 376.312 465.906 375.639C466.073 375.278 466.305 374.949 466.59 374.67C466.875 374.385 467.131 374.271 467.302 373.9C467.565 373.169 467.93 372.478 468.385 371.847C468.655 371.643 468.975 371.516 469.312 371.481C469.648 371.446 469.988 371.503 470.294 371.648C470.926 371.953 471.423 372.481 471.69 373.13C471.69 373.358 471.377 373.558 471.348 373.786V373.929Z" fill="#10191B"/>
<path d="M479.582 368.483C480.181 368.911 480.722 369.424 481.32 369.881C481.919 370.337 482.517 370.679 483.116 371.135C484.398 372.133 485.709 373.103 487.077 373.986C488.141 374.611 489.168 375.296 490.154 376.039C490.916 376.637 491.572 377.36 492.092 378.178C492.238 378.342 492.339 378.541 492.384 378.756C492.429 378.972 492.417 379.195 492.348 379.404C492.209 379.862 491.998 380.295 491.721 380.687C491.282 381.487 490.618 382.141 489.812 382.569C488.988 382.896 488.071 382.896 487.247 382.569C485.938 382.088 484.772 381.284 483.856 380.231C482.997 379.148 481.866 378.312 480.579 377.807C479.481 377.538 478.418 377.135 477.416 376.61C477.011 376.319 476.668 375.95 476.408 375.523C476.149 375.097 475.978 374.623 475.906 374.129C475.906 372.96 476.22 371.791 476.134 370.65C476.021 369.875 476.021 369.088 476.134 368.312C476.27 368 476.487 367.729 476.762 367.528C477.038 367.328 477.362 367.205 477.701 367.172C478.402 367.135 479.092 367.358 479.639 367.799L479.582 368.483Z" fill="#10191B"/>
<path d="M488.414 326.199C487.645 332.386 488.585 350.435 482.544 348.867C481.016 348.155 479.703 347.053 478.738 345.671C477.772 344.289 477.188 342.677 477.044 340.997C476.873 338.773 477.044 335.608 476.816 333.413C476.531 328.822 471.944 314.11 481.262 311.202C482.658 310.774 484.824 307.98 486.02 308.949C486.827 309.878 487.386 310.996 487.645 312.2C487.989 313.723 488.246 315.265 488.414 316.819C488.828 319.932 488.828 323.086 488.414 326.199Z" fill="#242A31"/>
<path d="M475.819 343.421C475.819 344.818 475.819 346.272 475.591 347.612C475.591 349.865 475.278 352.117 475.107 354.37C474.109 367.001 474.081 373.445 473.026 376.096C472.143 378.263 469.265 378.092 467.327 377.465C466.493 377.206 465.764 376.687 465.247 375.982C464.846 375.244 464.612 374.426 464.563 373.587C463.443 365.598 463.859 357.469 465.789 349.637C466.178 347.737 466.881 345.916 467.869 344.248C468.268 343.677 470.519 347.527 471.117 347.099C471.716 346.671 470.291 345.616 471.117 345.673C472.526 345.804 473.837 346.454 474.793 347.498L475.819 343.421Z" fill="#3A4648"/>
<path d="M487.223 339.144C487.223 340.541 487.223 341.995 487.023 343.335C486.871 345.597 486.7 347.849 486.51 350.092C485.513 362.723 485.484 369.167 484.43 371.819C483.575 373.986 480.697 373.815 478.731 373.187C477.909 372.92 477.191 372.402 476.679 371.705C476.268 370.969 476.024 370.151 475.967 369.31C474.924 359.931 475.414 350.445 477.42 341.225C477.876 339.372 478.246 341.596 479.301 339.97C479.671 339.4 481.951 343.249 482.549 342.822C483.148 342.394 481.723 341.339 482.549 341.396C483.948 341.533 485.247 342.183 486.197 343.221L487.223 339.144Z" fill="#242A31"/>
<path d="M465.874 311.116C465.874 311.116 466.416 310.375 466.444 310.375C468.692 311.136 471.053 311.512 473.426 311.487C478.64 312.114 479.125 313.055 482.487 310.774C482.797 313.365 482.73 315.987 482.288 318.558C482.43 322.692 478.583 323.006 478.441 325.173C478.07 330.22 477.358 340.171 476.589 345.132C476.4 347.131 475.809 349.07 474.85 350.834C474.292 351.823 473.452 352.623 472.436 353.131C471.421 353.639 470.277 353.832 469.151 353.686C468.558 353.651 467.99 353.432 467.527 353.058C466.53 352.117 465.447 352.374 465.589 351.005C465.898 346.499 465.592 341.971 464.677 337.547C462.487 328.809 462.903 319.62 465.874 311.116Z" fill="#3A4648"/>
<path d="M466.05 303.561C466.221 304.872 466.306 306.184 466.363 307.495C466.335 306.212 466.221 304.929 466.05 303.561Z" fill="#F3A984"/>
<path d="M466.387 307.523C466.387 308.322 466.387 309.149 466.387 309.947C466.425 309.13 466.425 308.322 466.387 307.523Z" fill="#F3A984"/>
<path d="M464.792 307.466C464.938 306.83 465.014 306.18 465.02 305.528C465.02 304.786 464.763 304.073 464.706 303.332C464.649 302.591 464.706 301.051 464.393 299.911C463.823 297.092 463.081 294.312 462.17 291.585C461.17 288.9 460.895 285.999 461.372 283.174C462.337 281.004 463.976 279.205 466.046 278.041C469.677 275.869 473.563 274.155 477.615 272.938C479.413 272.135 481.445 272.033 483.314 272.653C484.704 273.542 485.718 274.912 486.164 276.502C487.079 279.346 487.504 282.325 487.417 285.312C487.417 288.734 487.417 292.155 487.417 295.577C487.414 299.589 487.651 303.597 488.13 307.58C488.222 309.467 488.547 311.334 489.099 313.14C489.347 313.85 489.383 314.617 489.2 315.347C489.018 316.077 488.626 316.737 488.073 317.246C487.043 318.277 485.797 319.066 484.425 319.556C479.26 321.502 473.754 322.384 468.24 322.15C467.136 322.191 466.035 322.027 464.991 321.666C461.543 320.154 463.025 314.652 463.652 311.857C463.908 310.46 464.421 308.949 464.792 307.466Z" fill="#22B0EC"/>
<path d="M470.549 275.59C470.378 280.75 480.067 280.836 479.924 275.989C479.725 269.203 479.326 268.433 476.134 267.435C475.264 267.125 474.351 266.952 473.427 266.922C470.065 266.922 471.375 268.576 471.489 269.773C471.86 273.252 470.606 273.736 470.549 275.59Z" fill="#F5A783"/>
<path d="M470.551 275.589C470.551 273.736 471.862 273.251 471.492 269.687C471.492 268.518 470.067 266.836 473.429 266.836C474.353 266.866 475.266 267.039 476.137 267.349C479.271 268.404 479.727 269.174 479.926 275.675C477.248 275.418 474.883 272.453 472.147 274.221C471.462 274.752 470.923 275.449 470.58 276.245C470.557 276.027 470.548 275.808 470.551 275.589Z" fill="#EE9C76"/>
<path d="M472.149 274.25C474.999 272.482 477.25 275.447 479.929 275.704V275.989C480.071 280.608 471.38 280.75 470.582 276.274C470.925 275.478 471.464 274.781 472.149 274.25Z" fill="#F5A783"/>
<path d="M483.256 259.309C483.95 260.389 484.316 261.646 484.31 262.93C484.301 263.493 484.205 264.051 484.025 264.584C483.774 265.067 483.601 265.586 483.512 266.123C483.628 266.813 483.859 267.478 484.196 268.091C484.371 268.648 484.371 269.245 484.196 269.802C484.033 270.097 483.852 270.383 483.655 270.657C482.8 271.997 483.655 273.993 482.116 274.962C481.73 275.169 481.3 275.277 480.862 275.276C479.493 275.064 478.154 274.691 476.873 274.164C475.771 273.506 474.804 272.645 474.023 271.626C473.268 270.916 472.607 270.111 472.057 269.231C472.057 269.003 472.2 268.946 472.057 268.832C471.915 268.718 471.715 267.749 471.544 267.749C471.306 267.664 471.084 267.539 470.889 267.378C470.575 267.15 470.404 267.948 470.29 267.578C469.698 265.959 469.371 264.254 469.322 262.531C469.184 261.031 469.544 259.528 470.347 258.254C471.143 257.256 472.198 256.497 473.396 256.059C475.24 255.406 477.252 255.406 479.096 256.059C480.806 256.646 482.271 257.791 483.256 259.309Z" fill="#FFBFA2"/>
<path d="M469.267 262.588C469.129 261.088 469.49 259.585 470.293 258.311C471.088 257.313 472.143 256.554 473.342 256.116C474.426 255.717 475.579 255.542 476.733 255.602C478.471 259.052 475.963 263.472 477.844 267.007C478.471 267.834 479.725 268.461 479.725 269.516C480.152 271.398 478.272 273.081 479.297 274.962C478.502 274.757 477.722 274.5 476.961 274.192C475.859 273.535 474.892 272.673 474.111 271.655C473.355 270.944 472.695 270.139 472.145 269.26C472.145 269.032 472.287 268.975 472.145 268.861C472.002 268.747 471.803 267.777 471.632 267.777C471.394 267.693 471.172 267.567 470.977 267.406C470.663 267.178 470.492 267.977 470.378 267.606C469.74 266.004 469.365 264.31 469.267 262.588Z" fill="#F8B495"/>
<path d="M477.273 260.82C476.846 260.69 476.39 260.69 475.963 260.82C475.624 261 475.336 261.261 475.122 261.579C474.909 261.898 474.776 262.263 474.737 262.645C474.728 264.307 474.862 265.967 475.136 267.606C475.144 267.851 475.095 268.095 474.994 268.319C474.652 268.918 474.053 268.575 473.683 268.319C473.312 268.062 473.284 267.806 473.085 267.577C472.881 267.306 472.588 267.114 472.258 267.036C472.14 267.02 472.019 267.028 471.904 267.06C471.789 267.092 471.682 267.147 471.589 267.222C471.496 267.296 471.419 267.389 471.362 267.494C471.306 267.599 471.271 267.715 471.261 267.834C471.224 268.267 471.272 268.703 471.403 269.117C471.403 269.117 471.631 269.973 471.403 269.973C470.363 269.003 469.542 267.823 468.997 266.509C468.451 265.196 468.193 263.781 468.24 262.36C468.24 257.741 471.318 256.885 471.318 256.885C471.893 256.095 472.67 255.474 473.567 255.088C474.465 254.701 475.45 254.564 476.419 254.69C478.38 254.783 480.285 255.382 481.947 256.429L482.146 256.572C482.961 257.064 483.66 257.725 484.198 258.511C485.623 260.706 483.713 262.474 481.348 262.103C480.274 261.846 479.225 261.493 478.214 261.048C477.918 260.942 477.613 260.866 477.302 260.82H477.273Z" fill="#3A4648"/>
<path d="M477.273 260.82C476.846 260.69 476.39 260.69 475.963 260.82C475.624 261.001 475.336 261.262 475.122 261.58C474.909 261.898 474.776 262.264 474.737 262.645C474.728 264.307 474.862 265.967 475.136 267.606C475.144 267.852 475.095 268.096 474.994 268.319C474.652 268.918 474.053 268.576 473.683 268.319C473.312 268.063 473.284 267.806 473.085 267.578C472.881 267.306 472.588 267.115 472.258 267.036C472.14 267.02 472.019 267.029 471.904 267.061C471.789 267.092 471.682 267.147 471.589 267.222C471.496 267.297 471.419 267.389 471.362 267.495C471.306 267.6 471.271 267.716 471.261 267.835C471.224 268.267 471.272 268.703 471.403 269.118C471.403 269.118 471.631 269.973 471.403 269.973C470.363 269.004 469.542 267.823 468.997 266.51C468.451 265.197 468.193 263.782 468.24 262.36C468.24 257.741 471.318 256.886 471.318 256.886C473.623 257.682 475.698 259.033 477.359 260.82H477.273Z" fill="#37404A"/>
<path d="M471.772 265.781C470.405 265.781 470.063 267.378 471.003 268.633C471.331 269.018 471.704 269.363 472.114 269.659C474.565 271.769 475.192 269.488 474.394 268.775C472.599 267.207 473.511 265.895 471.772 265.781Z" fill="#F8B495"/>
<path d="M472.604 269.032C472.461 269.032 470.894 267.948 471.948 267.321C472.019 267.289 472.096 267.274 472.174 267.278C472.251 267.282 472.327 267.304 472.394 267.343C472.461 267.382 472.517 267.437 472.559 267.503C472.6 267.568 472.625 267.643 472.632 267.72C472.618 267.882 472.618 268.044 472.632 268.205C472.604 268.298 472.604 268.397 472.632 268.49C472.632 268.718 473.259 268.918 473.145 269.26C473.031 269.602 472.689 269.117 472.604 269.032Z" fill="#F3A984"/>
<path d="M484.367 307.495L485.393 306.64C485.52 307.191 485.774 307.706 486.135 308.142C486.496 308.577 486.955 308.922 487.473 309.149L486.447 310.004C485.926 309.782 485.466 309.438 485.104 309.001C484.742 308.565 484.489 308.049 484.367 307.495Z" fill="#10191B"/>
<path d="M484.367 307.495L485.393 306.64C485.424 306.827 485.482 307.01 485.564 307.181L484.51 308.037C484.497 307.856 484.497 307.675 484.51 307.495H484.367Z" fill="#10191B"/>
<path d="M484.367 308.037L485.422 307.182C485.687 307.818 486.12 308.37 486.675 308.778L485.65 309.634C485.094 309.218 484.653 308.669 484.367 308.037Z" fill="#10191B"/>
<path d="M485.703 309.634L486.729 308.778C486.887 308.903 487.059 309.009 487.242 309.092L486.216 309.947C486.033 309.864 485.861 309.759 485.703 309.634Z" fill="#10191B"/>
<path d="M486.219 309.947L487.245 309.092H487.387L486.361 309.947H486.219Z" fill="#10191B"/>
<path d="M486.359 310.004L487.385 309.148L488.098 309.405L487.072 310.26L486.359 310.004Z" fill="#10191B"/>
<path d="M489.299 309.349L488.244 310.204C488.07 310.302 487.874 310.353 487.674 310.353C487.475 310.353 487.279 310.302 487.104 310.204L488.073 309.32C488.261 309.42 488.47 309.475 488.683 309.48C488.895 309.485 489.106 309.44 489.299 309.349Z" fill="#B93B0A"/>
<path d="M487.215 310.289V310.631C487.548 310.742 487.908 310.742 488.24 310.631V310.318C488.078 310.389 487.902 310.424 487.724 310.419C487.547 310.414 487.373 310.37 487.215 310.289Z" fill="#F86C35"/>
<path d="M484.167 306.754L485.193 305.87L485.307 306.64L484.281 307.495L484.167 306.754Z" fill="#10191B"/>
<path d="M484.37 305.642L485.396 304.786C485.254 304.93 485.154 305.108 485.104 305.304C485.053 305.499 485.056 305.704 485.111 305.898L484.085 306.754C484.03 306.56 484.028 306.354 484.078 306.159C484.128 305.964 484.229 305.785 484.37 305.642Z" fill="#EC5B22"/>
<path d="M484.367 305.642L485.393 304.786C485.224 304.945 485.113 305.156 485.08 305.385L484.054 306.24C484.075 306.007 484.187 305.792 484.367 305.642Z" fill="#B93B0A"/>
<path d="M484.142 306.24L485.168 305.385C485.154 305.546 485.154 305.708 485.168 305.869L484.142 306.725C484.128 306.564 484.128 306.401 484.142 306.24Z" fill="#B93B0A"/>
<path d="M484.144 306.725L485.198 305.841V305.869L484.172 306.753L484.144 306.725Z" fill="#10191B"/>
<path d="M484.367 305.385L485.393 304.53C485.589 304.406 485.816 304.34 486.048 304.34C486.28 304.34 486.508 304.406 486.704 304.53L485.678 305.385C485.48 305.267 485.253 305.205 485.023 305.205C484.792 305.205 484.565 305.267 484.367 305.385Z" fill="#EC5B22"/>
<path d="M484.367 305.385L485.393 304.53C485.525 304.428 485.678 304.358 485.841 304.323C486.003 304.288 486.172 304.291 486.333 304.33L485.308 305.186C485.145 305.154 484.979 305.155 484.817 305.189C484.655 305.224 484.502 305.29 484.367 305.385Z" fill="#EC5B22"/>
<path d="M485.192 305.185L486.218 304.33H486.588L485.562 305.185H485.192Z" fill="#EC5B22"/>
<path d="M486.277 305.556V305.813L485.565 305.556C484.596 305.214 483.94 305.727 484.111 306.754V307.495C484.234 308.049 484.486 308.565 484.848 309.002C485.21 309.438 485.67 309.782 486.192 310.004L486.904 310.289V310.546L486.192 310.261C485.596 310.008 485.069 309.618 484.653 309.122C484.237 308.627 483.944 308.04 483.798 307.41V306.668C483.598 305.499 484.339 304.872 485.451 305.3L486.277 305.556Z" fill="#F86C35"/>
<path d="M486.281 305.557L487.307 304.701L487.364 304.958L486.338 305.813L486.281 305.557Z" fill="#EC5B22"/>
<path d="M485.566 305.271L486.592 304.416L487.305 304.701L486.279 305.557L485.566 305.271Z" fill="#EC5B22"/>
<path d="M485.227 311.972C485.816 311.926 486.38 311.714 486.854 311.361C487.328 311.008 487.692 310.528 487.906 309.976C489.843 306.184 503.236 293.952 497.224 290.787C496.665 290.513 496.051 290.37 495.428 290.37C494.806 290.37 494.192 290.513 493.633 290.787C492.493 291.557 487.934 301.422 484.144 306.754C483.745 307.324 484.144 307.667 484.287 308.322C484.572 309.349 484.201 312 485.227 311.972Z" fill="#F3A984"/>
<path d="M479.556 314.965C478.986 314.965 478.416 314.138 478.957 313.967C478.811 313.921 478.687 313.823 478.609 313.691C478.53 313.56 478.502 313.405 478.53 313.254C478.53 312.883 479.1 312.769 479.47 312.627C479.953 312.382 480.395 312.065 480.781 311.686C481.607 310.916 482.12 309.69 481.921 309.661C481.678 309.615 481.427 309.627 481.189 309.697C480.951 309.766 480.733 309.891 480.553 310.061C480.418 310.318 480.266 310.565 480.097 310.802C479.915 310.96 479.701 311.076 479.47 311.144C479.397 311.173 479.316 311.173 479.242 311.144C479.162 311.118 479.094 311.062 479.051 310.989C479.009 310.915 478.996 310.828 479.014 310.745C479.023 310.468 479.091 310.195 479.214 309.947C479.417 309.315 479.792 308.752 480.297 308.321L480.895 308.008C481.098 307.916 481.308 307.84 481.522 307.78C482.447 307.425 483.4 307.149 484.372 306.953C487.221 305.613 488.446 306.953 488.361 308.949C487.992 310.377 487.353 311.723 486.48 312.912V313.083C485.426 314.48 483.089 317.189 481.921 316.162V315.849C479.841 316.048 480.667 315.107 479.556 314.965Z" fill="#F3A984"/>
<path d="M484.508 305.955V305.584C484.518 305.641 484.546 305.693 484.587 305.733C484.627 305.774 484.679 305.802 484.736 305.812V306.154C484.683 306.146 484.634 306.123 484.593 306.087C484.553 306.052 484.523 306.006 484.508 305.955Z" fill="#D4E2FC"/>
<path d="M484.681 305.812V306.154C484.628 306.146 484.579 306.123 484.538 306.087C484.498 306.052 484.468 306.006 484.453 305.955V305.584C484.464 305.641 484.491 305.693 484.532 305.733C484.572 305.774 484.624 305.802 484.681 305.812Z" fill="#D4E2FC"/>
<path d="M488.84 305.299V305.641C488.862 305.685 488.874 305.734 488.874 305.784C488.874 305.833 488.862 305.882 488.84 305.926V305.584C488.862 305.54 488.874 305.491 488.874 305.441C488.874 305.392 488.862 305.343 488.84 305.299Z" fill="#D4E2FC"/>
<path d="M488.723 305.556L488.78 305.898L488.752 305.926L488.695 305.556H488.723Z" fill="#D4E2FC"/>
<path d="M488.694 305.556L488.751 305.926L487.725 306.782L487.668 306.44L488.694 305.556Z" fill="#D4E2FC"/>
<path d="M486.785 306.582L486.842 306.924L484.733 306.155L484.676 305.812L486.785 306.582Z" fill="#D4E2FC"/>
<path d="M487.672 306.468V306.81C487.543 306.895 487.398 306.952 487.246 306.977C487.093 307.001 486.938 306.993 486.789 306.953V306.61C486.938 306.651 487.093 306.659 487.246 306.635C487.398 306.61 487.543 306.553 487.672 306.468Z" fill="#D4E2FC"/>
<path d="M487.671 306.468V306.81L487.301 306.981V306.61L487.671 306.468Z" fill="#D4E2FC"/>
<path d="M487.215 306.61V306.981H486.901V306.639L487.215 306.61Z" fill="#D4E2FC"/>
<path d="M486.988 306.639V306.981H486.789V306.639H486.988Z" fill="#D4E2FC"/>
<path d="M488.612 305.071C488.897 305.071 488.926 305.413 488.612 305.584L487.558 306.468C487.429 306.554 487.284 306.61 487.131 306.635C486.979 306.66 486.823 306.651 486.674 306.611L484.566 305.812C484.309 305.812 484.252 305.499 484.566 305.328L485.62 304.444C485.74 304.351 485.88 304.289 486.029 304.264C486.179 304.239 486.332 304.252 486.475 304.301L488.612 305.071Z" fill="#F1F1F1"/>
<path d="M488.751 305.328C488.764 305.355 488.77 305.384 488.77 305.413C488.77 305.443 488.764 305.472 488.751 305.499L487.725 306.383L487.355 306.525C487.216 306.571 487.066 306.571 486.927 306.525L486.471 306.354L484.819 305.756C484.819 305.756 484.676 305.756 484.676 305.613C484.676 305.47 484.676 305.613 484.676 305.413L485.645 304.615H485.958C486.053 304.601 486.149 304.601 486.243 304.615H486.386L488.352 305.328C488.352 305.328 488.723 305.242 488.751 305.328Z" fill="#37404A"/>
<path opacity="0.4" d="M488.756 305.328C488.769 305.355 488.776 305.384 488.776 305.414C488.776 305.443 488.769 305.472 488.756 305.499L487.73 306.383L487.36 306.526C487.221 306.571 487.071 306.571 486.933 306.526L488.699 305.186C488.699 305.186 488.728 305.243 488.756 305.328Z" fill="#F1F1F1"/>
<path d="M489.498 309.576L488.473 310.46C488.631 310.291 488.746 310.085 488.806 309.861C488.865 309.637 488.868 309.402 488.814 309.177L489.84 308.321C489.897 308.542 489.896 308.774 489.836 308.994C489.776 309.214 489.659 309.415 489.498 309.576Z" fill="#EC5B22"/>
<path d="M488.817 309.177L489.842 308.321L488.817 309.177Z" fill="#EC5B22"/>
<path d="M488.817 309.205L489.842 308.35C489.871 308.529 489.871 308.712 489.842 308.891L488.817 309.747C488.845 309.567 488.845 309.384 488.817 309.205Z" fill="#EC5B22"/>
<path d="M488.814 309.747L489.84 308.892C489.838 309.024 489.806 309.154 489.747 309.273C489.688 309.391 489.603 309.495 489.498 309.576L488.473 310.46C488.668 310.271 488.789 310.018 488.814 309.747Z" fill="#EC5B22"/>
<path d="M488.671 308.407L489.697 307.552L489.839 308.322L488.785 309.177L488.671 308.407Z" fill="#EC5B22"/>
<path d="M487.702 306.554L488.728 305.698C489.226 306.219 489.562 306.872 489.697 307.58L488.671 308.435C488.536 307.728 488.2 307.074 487.702 306.554Z" fill="#EC5B22"/>
<path d="M487.702 306.554L488.728 305.698C489.067 306.076 489.337 306.51 489.526 306.981L488.5 307.837C488.311 307.366 488.041 306.932 487.702 306.554Z" fill="#EC5B22"/>
<path d="M488.502 307.779L489.528 306.924C489.611 307.115 489.669 307.316 489.699 307.523L488.673 308.378C488.643 308.172 488.585 307.97 488.502 307.779Z" fill="#EC5B22"/>
<path d="M487.701 306.554L487.558 306.696C487.995 307.144 488.292 307.708 488.413 308.321L488.556 309.091C488.556 309.69 488.556 310.118 488.1 310.289V310.602C488.613 310.46 488.869 309.918 488.755 309.177L488.613 308.436C488.494 307.734 488.178 307.081 487.701 306.554Z" fill="#F86C35"/>
<g opacity="0.5">
<path opacity="0.5" d="M485.935 304.757L485.251 305.328L485.052 305.242L485.735 304.672L485.935 304.757Z" fill="#F1F1F1"/>
<path opacity="0.5" d="M487.877 305.499L487.194 306.069L486.966 306.012L487.678 305.413L487.877 305.499Z" fill="#F1F1F1"/>
<path opacity="0.5" d="M485.648 305.441C485.581 305.409 485.508 305.392 485.434 305.392C485.36 305.392 485.287 305.409 485.22 305.441C485.22 305.441 485.22 305.641 485.22 305.669C485.286 305.704 485.359 305.723 485.434 305.723C485.508 305.723 485.582 305.704 485.648 305.669C485.648 305.669 485.79 305.498 485.648 305.441Z" fill="#F1F1F1"/>
<path opacity="0.5" d="M486.021 305.613L485.707 305.869L485.622 305.841L485.935 305.584L486.021 305.613Z" fill="#F1F1F1"/>
<path opacity="0.5" d="M486.159 304.928C486.021 304.876 485.869 304.876 485.731 304.928C485.731 304.928 485.731 305.128 485.731 305.156C485.797 305.191 485.87 305.209 485.945 305.209C486.019 305.209 486.093 305.191 486.159 305.156C486.176 305.143 486.191 305.126 486.201 305.106C486.21 305.086 486.216 305.064 486.216 305.042C486.216 305.02 486.21 304.998 486.201 304.978C486.191 304.959 486.176 304.941 486.159 304.928Z" fill="#F1F1F1"/>
<path opacity="0.5" d="M486.532 305.185L486.218 305.441L486.133 305.413L486.446 305.156L486.532 305.185Z" fill="#F1F1F1"/>
<path opacity="0.5" d="M486.679 304.586C486.541 304.534 486.389 304.534 486.252 304.586C486.252 304.586 486.252 304.786 486.252 304.843C486.389 304.896 486.541 304.896 486.679 304.843C486.703 304.831 486.724 304.813 486.738 304.79C486.752 304.768 486.759 304.741 486.759 304.715C486.759 304.688 486.752 304.662 486.738 304.639C486.724 304.616 486.703 304.598 486.679 304.586Z" fill="#F1F1F1"/>
<path opacity="0.5" d="M487.044 304.757L486.73 305.014L486.645 304.985L486.958 304.729L487.044 304.757Z" fill="#F1F1F1"/>
<path opacity="0.5" d="M486.449 305.755C486.383 305.72 486.31 305.702 486.235 305.702C486.161 305.702 486.087 305.72 486.022 305.755C485.998 305.767 485.977 305.785 485.963 305.808C485.949 305.831 485.941 305.857 485.941 305.884C485.941 305.91 485.949 305.937 485.963 305.959C485.977 305.982 485.998 306 486.022 306.012C486.159 306.065 486.312 306.065 486.449 306.012C486.449 306.012 486.592 305.784 486.449 305.755Z" fill="#F1F1F1"/>
<path opacity="0.5" d="M486.818 305.926L486.504 306.183L486.419 306.126L486.732 305.869L486.818 305.926Z" fill="#F1F1F1"/>
<path opacity="0.5" d="M486.961 305.328C486.896 305.293 486.822 305.274 486.748 305.274C486.673 305.274 486.6 305.293 486.534 305.328C486.51 305.339 486.49 305.358 486.475 305.38C486.461 305.403 486.453 305.429 486.453 305.456C486.453 305.483 486.461 305.509 486.475 305.532C486.49 305.554 486.51 305.573 486.534 305.584C486.6 305.617 486.673 305.634 486.748 305.634C486.822 305.634 486.895 305.617 486.961 305.584C486.961 305.584 487.218 305.356 486.961 305.328Z" fill="#F1F1F1"/>
<path opacity="0.5" d="M487.333 305.499L487.02 305.756L486.934 305.699L487.248 305.471L487.333 305.499Z" fill="#F1F1F1"/>
<path opacity="0.5" d="M487.474 304.928C487.408 304.893 487.335 304.875 487.26 304.875C487.186 304.875 487.112 304.893 487.047 304.928C487.022 304.94 487.002 304.958 486.988 304.981C486.974 305.004 486.966 305.03 486.966 305.057C486.966 305.083 486.974 305.11 486.988 305.132C487.002 305.155 487.022 305.173 487.047 305.185C487.11 305.225 487.185 305.247 487.26 305.247C487.336 305.247 487.41 305.225 487.474 305.185C487.474 305.185 487.616 304.928 487.474 304.928Z" fill="#F1F1F1"/>
<path opacity="0.5" d="M487.845 305.071L487.532 305.328L487.446 305.3L487.76 305.043L487.845 305.071Z" fill="#F1F1F1"/>
</g>
<g style="mix-blend-mode:screen" opacity="0.1">
<path d="M486.614 304.443L486.358 306.325L484.705 305.726C484.705 305.726 484.562 305.726 484.562 305.584C484.562 305.441 484.562 305.584 484.562 305.384L485.531 304.586C485.643 304.507 485.769 304.449 485.902 304.415C485.996 304.401 486.092 304.401 486.187 304.415L486.614 304.443Z" fill="#F6F0ED"/>
</g>
<path d="M459.236 289.931C459.236 283.886 462.257 279.923 464.793 280.18C467.329 280.436 467.927 284.542 466.446 293.951C466.104 296.261 466.218 302.505 464.366 306.383C463.169 308.806 462.2 304.016 461.516 303.332C460.832 302.648 458.894 305.841 458.666 304.643C458.011 301.878 459.122 298.171 459.236 289.931Z" fill="#FFBFA2"/>
<path d="M458.723 289.703C458.725 287.948 459.084 286.212 459.777 284.599C460.575 282.775 462.313 279.952 464.678 280.18C466.559 280.38 467.214 282.746 467.528 284.286C467.689 285.763 467.737 287.25 467.67 288.734C467.72 290.645 467.567 292.557 467.214 294.436C467.159 295.187 466.823 295.889 466.274 296.404C465.562 296.797 464.728 296.909 463.937 296.717C457.098 295.919 458.865 292.355 458.723 289.703Z" fill="#1499FC"/>
<path d="M482.889 305.471C482.205 304.359 478.472 304.502 477.189 304.53C472.915 304.53 458.354 296.974 458.496 303.76C458.411 304.398 458.524 305.046 458.82 305.617C459.115 306.189 459.579 306.655 460.149 306.954C461.431 307.467 472.203 308.151 478.757 308.95C479.441 308.95 479.555 308.55 480.067 308.066C480.58 307.581 483.43 306.355 482.889 305.471Z" fill="#FFBFA2"/>
<path d="M483.146 304.929C483.353 304.978 483.542 305.087 483.687 305.243C483.905 305.461 484.054 305.739 484.115 306.041C484.154 306.254 484.144 306.472 484.084 306.68C484.025 306.888 483.918 307.079 483.773 307.239L483.545 307.467C483.545 307.467 483.545 307.467 483.716 307.666C483.887 307.866 483.972 309.121 482.775 309.377C482.775 311.116 478.131 310.489 476.478 309.52C475.912 309.248 475.451 308.797 475.167 308.237C475.018 307.539 475.122 306.811 475.462 306.184C475.801 305.556 476.354 305.071 477.019 304.815C477.946 304.494 478.9 304.255 479.869 304.102C480.566 303.971 481.281 303.971 481.977 304.102C482.358 304.204 482.691 304.436 482.918 304.758C482.972 304.84 483.053 304.9 483.146 304.929Z" fill="#FFBFA2"/>
<path d="M483.06 303.361C483.11 303.447 483.137 303.546 483.137 303.646C483.137 303.746 483.11 303.844 483.06 303.931C482.954 304.098 482.807 304.235 482.633 304.33C482.446 304.364 482.27 304.443 482.12 304.558C481.435 305.136 480.609 305.52 479.726 305.67C479.461 305.698 479.194 305.698 478.928 305.67C478.662 305.62 478.426 305.466 478.273 305.243C478.217 305.169 478.187 305.078 478.187 304.986C478.187 304.893 478.217 304.803 478.273 304.729L478.501 304.587C479.191 304.208 479.905 303.875 480.638 303.589H481.065L481.607 303.361C481.971 303.261 482.354 303.261 482.718 303.361C482.784 303.365 482.848 303.382 482.907 303.411C482.966 303.44 483.018 303.482 483.06 303.532V303.361Z" fill="#FFBFA2"/>
<path d="M481.804 304.387C482.601 304.345 483.4 304.345 484.197 304.387C485.03 304.412 485.86 304.507 486.677 304.672C486.935 304.705 487.186 304.782 487.417 304.901C487.702 304.901 488.272 305.357 488.073 305.727C488.001 305.817 487.914 305.894 487.816 305.955C487.535 306.104 487.222 306.182 486.905 306.184C486.081 306.16 485.261 306.064 484.454 305.898L481.889 305.442L481.804 304.387Z" fill="#FFBFA2"/>
<g style="mix-blend-mode:screen" opacity="0.5">
<path d="M506.995 297.373L466.987 320.469V289.875L506.995 266.751V297.373Z" fill="#69D2F8"/>
</g>
<path opacity="0.2" d="M504.319 275.789L469.668 295.805V290.615L504.319 270.6V275.789Z" fill="white"/>
</g>
<defs>
<clipPath id="clip0_2245_5476">
<rect width="323" height="318" fill="white" transform="translate(184 105)"/>
</clipPath>
</defs>
</svg>
