<svg width="606" height="569" viewBox="0 0 606 569" fill="none" xmlns="http://www.w3.org/2000/svg">
<path d="M280.752 32.3335C405.326 16.1287 612.27 100.491 565.622 302.755C518.974 505.018 554.144 486.216 554.144 486.216C555.629 498.292 546.312 509.375 533.335 510.971L305.328 539.011C76.7917 547.393 41.0145 390.835 32.5061 322.936C16.9631 198.899 108.804 54.7007 280.752 32.3335Z" fill="#D0E4F5"/>
<path d="M283.068 93.6281C395.643 78.97 522.89 145.901 503.465 289.16C484.04 432.419 503.465 457.66 503.465 457.66C504.671 467.461 496.741 461.737 486.391 463.01L304.545 485.373C122.243 491.783 94.1103 377.152 90.6065 314.022C83.5062 186.088 172.617 108.01 283.068 93.6281Z" fill="#D4E8F9"/>
<g clip-path="url(#clip0_2245_5458)">
<path d="M457.035 291.424L390.129 252.536C396.794 248.476 402.563 243.104 407.088 236.747C411.957 230.176 415.67 222.823 418.066 215.004L485.078 253.892C482.67 261.706 478.959 269.058 474.1 275.635C469.556 282.014 463.747 287.389 457.035 291.424V291.424Z" fill="#98A4E0"/>
<path d="M457.035 291.424L390.129 252.536C396.794 248.476 402.563 243.104 407.088 236.747C411.957 230.176 415.67 222.823 418.066 215.004L485.078 253.892C482.67 261.706 478.959 269.058 474.1 275.635C469.58 282.006 463.798 287.38 457.114 291.424H457.035Z" fill="#98A4E0"/>
<path d="M411.55 180.528L478.482 219.416C479.832 220.218 481.051 221.222 482.097 222.393C485.844 227.062 487.737 232.949 487.414 238.926C487.375 244.003 486.586 249.045 485.074 253.891L418.063 215.004C419.583 210.159 420.38 205.116 420.428 200.039C420.739 194.063 418.847 188.18 415.112 183.505C414.089 182.332 412.887 181.327 411.55 180.528Z" fill="#98A4E0"/>
<path d="M485.071 253.891L418.059 215.004C418.325 214.153 418.564 213.303 418.777 212.346L485.709 251.26C485.496 252.111 485.257 252.997 484.991 253.918L485.071 253.891Z" fill="#98A4E0"/>
<path d="M485.712 251.34L418.78 212.425C419.837 208.38 420.391 204.22 420.428 200.039C420.738 194.063 418.847 188.18 415.112 183.505C414.072 182.328 412.852 181.323 411.497 180.528L478.428 219.416C479.778 220.218 480.997 221.222 482.044 222.393C485.79 227.062 487.683 232.949 487.36 238.926C487.345 243.116 486.801 247.287 485.738 251.34H485.712Z" fill="#98A4E0"/>
<path d="M417.693 169.976L484.625 208.864C482.774 207.808 480.763 207.063 478.671 206.657C472.013 205.657 465.211 206.911 459.346 210.219L392.415 171.332C398.288 168.023 405.099 166.769 411.766 167.77C413.848 168.18 415.85 168.925 417.693 169.976V169.976Z" fill="#C6D5FA"/>
<path d="M459.347 210.219L392.415 171.331H392.547L459.453 210.219H459.347Z" fill="#C6D5FA"/>
<path d="M459.453 210.166L392.547 171.278C398.386 168.008 405.148 166.773 411.766 167.77C413.848 168.179 415.85 168.925 417.693 169.976L484.625 208.863C482.774 207.808 480.763 207.063 478.671 206.657C472.053 205.661 465.292 206.895 459.453 210.166V210.166Z" fill="#C6D5FA"/>
<path d="M452.935 222.313L386.003 183.425C385.704 183.226 385.448 182.967 385.251 182.665C385.055 182.364 384.922 182.026 384.86 181.671C384.452 179.147 383.517 176.737 382.115 174.598C380.714 172.459 378.877 170.64 376.726 169.258L443.631 208.146C445.799 209.531 447.648 211.361 449.055 213.515C450.461 215.669 451.394 218.097 451.792 220.638C451.937 221.326 452.348 221.928 452.935 222.313Z" fill="#C6D5FA"/>
<path d="M452.935 222.313L386.003 183.425C385.704 183.226 385.448 182.967 385.251 182.665C385.055 182.364 384.922 182.026 384.86 181.671C384.452 179.147 383.517 176.737 382.115 174.598C380.714 172.459 378.877 170.64 376.726 169.258L443.631 208.146C445.799 209.531 447.648 211.361 449.055 213.515C450.461 215.669 451.394 218.097 451.792 220.638C451.854 220.993 451.987 221.331 452.183 221.633C452.38 221.934 452.636 222.193 452.935 222.393V222.313Z" fill="#C6D5FA"/>
<path d="M382.87 158.706L449.776 197.594C448.78 197.03 447.74 196.55 446.666 196.158C439.941 193.739 431.328 194.936 421.998 200.331C418.444 202.405 415.105 204.827 412.03 207.561L345.098 168.674C348.182 165.951 351.52 163.53 355.066 161.444C364.396 156.128 373.009 154.852 379.734 157.271C380.815 157.667 381.863 158.147 382.87 158.706V158.706Z" fill="#C6D5FA"/>
<path d="M412.03 207.561L345.098 168.673C348.182 165.95 351.52 163.529 355.066 161.443C355.934 160.947 356.821 160.469 357.724 160.008L424.656 198.896C423.788 199.356 422.902 199.835 421.998 200.331C418.444 202.404 415.105 204.826 412.03 207.561Z" fill="#C6D5FA"/>
<path d="M424.627 198.895L357.695 160.008C366.015 155.861 373.644 155.09 379.731 157.35C380.812 157.746 381.86 158.226 382.867 158.785L449.773 197.673C448.778 197.109 447.737 196.629 446.663 196.237C440.576 194.058 432.947 194.829 424.627 198.895V198.895Z" fill="#C6D5FA"/>
<path d="M281.382 392.829L214.477 353.941L390.1 252.535L457.032 291.423L281.382 392.829Z" fill="#98A4E0"/>
<path d="M404.8 222.18L337.868 183.426C337.419 183.1 337.065 182.659 336.845 182.149C336.625 181.639 336.547 181.079 336.619 180.528V179.12C336.619 166.68 333.27 157.084 327.635 150.758C325.841 148.742 323.742 147.02 321.415 145.654L388.32 184.409C390.646 185.776 392.745 187.498 394.54 189.513C400.202 195.839 403.524 205.461 403.551 217.901V219.283C403.476 219.834 403.553 220.395 403.773 220.905C403.993 221.416 404.348 221.857 404.8 222.18V222.18Z" fill="#98A4E0"/>
<path d="M404.8 222.18L337.868 183.426C337.419 183.1 337.065 182.659 336.845 182.149C336.625 181.639 336.547 181.079 336.619 180.528V179.12C336.619 166.68 333.27 157.084 327.635 150.758C325.841 148.742 323.742 147.02 321.415 145.654L388.32 184.409C390.646 185.776 392.745 187.498 394.54 189.513C400.202 195.839 403.524 205.461 403.551 217.901V219.283C403.476 219.834 403.553 220.395 403.773 220.905C403.993 221.416 404.348 221.857 404.8 222.18V222.18Z" fill="#98A4E0"/>
<path d="M250.069 395.886L183.137 356.998C187.451 359.416 192.419 360.412 197.332 359.842C203.404 359.131 209.252 357.118 214.477 353.941L281.409 392.829C276.184 396.006 270.336 398.018 264.264 398.73C259.351 399.299 254.383 398.304 250.069 395.886Z" fill="#98A4E0"/>
<path d="M250.069 395.886L183.137 356.998C187.451 359.416 192.419 360.412 197.332 359.842C202.281 359.299 207.085 357.838 211.5 355.536L278.405 394.424C274.001 396.728 269.205 398.189 264.264 398.73C259.351 399.299 254.383 398.304 250.069 395.886Z" fill="#98A4E0"/>
<path d="M278.41 394.424L211.504 355.536C212.488 355.058 213.471 354.5 214.481 353.941L281.413 392.829C280.403 393.387 279.393 393.946 278.41 394.424Z" fill="#98A4E0"/>
<path d="M450.117 266.225L413.78 245.252C413.021 244.871 412.183 244.673 411.334 244.673C410.485 244.673 409.648 244.871 408.889 245.252L372.791 266.225C372.508 266.349 372.265 266.549 372.087 266.802C371.909 267.055 371.803 267.352 371.781 267.66V285.15C371.811 285.456 371.92 285.749 372.097 286.001C372.274 286.252 372.513 286.454 372.791 286.586L409.128 307.558L409.66 307.824H409.872H410.271H410.537H410.909H412.238H412.61H412.876L413.275 307.691H413.487L414.046 307.425L450.143 286.453L450.436 286.267L450.622 286.107L450.808 285.868V285.682C450.808 285.682 450.808 285.682 450.808 285.522C450.808 285.522 450.808 285.363 450.808 285.31V267.793C450.831 267.495 450.78 267.195 450.66 266.922C450.539 266.648 450.353 266.408 450.117 266.225V266.225ZM371.888 268.112C371.888 268.112 371.888 268.165 371.888 268.138V268.112ZM371.888 267.926L371.808 267.952L371.888 267.926ZM372.18 268.298C372.18 268.298 371.994 268.484 371.994 268.325L372.18 268.298Z" fill="#DAE8FD"/>
<path d="M451.155 267.66V285.177C451.123 285.479 451.013 285.768 450.836 286.015C450.659 286.262 450.42 286.458 450.145 286.586V269.069C450.425 268.949 450.668 268.754 450.846 268.505C451.024 268.257 451.131 267.965 451.155 267.66V267.66Z" fill="#DAE8FD"/>
<path d="M451.153 267.66V285.177C451.19 285.334 451.19 285.498 451.153 285.655V268.139C451.19 267.981 451.19 267.817 451.153 267.66V267.66Z" fill="#DAE8FD"/>
<path d="M451.048 268.139V285.655C450.857 286.056 450.54 286.383 450.145 286.586V269.069C450.54 268.867 450.857 268.54 451.048 268.139V268.139Z" fill="#DAE8FD"/>
<path d="M371.835 285.15V267.66C371.865 267.963 371.974 268.253 372.151 268.5C372.328 268.748 372.568 268.944 372.846 269.069V286.586C372.568 286.454 372.328 286.253 372.151 286.001C371.974 285.75 371.866 285.456 371.835 285.15V285.15Z" fill="#C6D5FA"/>
<path d="M372.795 269.069V286.586C372.517 286.454 372.278 286.253 372.101 286.001C371.924 285.75 371.815 285.456 371.785 285.15V267.66C371.814 267.963 371.923 268.253 372.101 268.5C372.278 268.748 372.518 268.944 372.795 269.069V269.069Z" fill="#C6D5FA"/>
<path d="M450.121 269.096L450.174 286.586L414.077 307.558L414.023 290.068L450.121 269.096Z" fill="#DAE8FD"/>
<path d="M409.13 290.068L409.183 307.558L372.846 286.586L372.793 269.096L409.13 290.068Z" fill="#C6D5FA"/>
<path d="M414.053 290.067V307.558C413.241 308.001 412.319 308.204 411.395 308.142V290.652C412.273 290.677 413.142 290.475 413.92 290.067H414.053Z" fill="#D4E2FC"/>
<path d="M411.525 290.652V308.142C410.692 308.148 409.87 307.947 409.133 307.558V290.067C409.873 290.447 410.693 290.647 411.525 290.652Z" fill="#CDDCFB"/>
<path d="M450.118 266.225C451.473 267.022 451.5 268.298 450.118 269.069L414.02 290.068C413.256 290.447 412.414 290.644 411.561 290.644C410.708 290.644 409.867 290.447 409.103 290.068L372.766 269.069C372.475 268.962 372.224 268.768 372.046 268.514C371.869 268.259 371.773 267.957 371.773 267.647C371.773 267.337 371.869 267.034 372.046 266.78C372.224 266.525 372.475 266.332 372.766 266.225L408.863 245.252C409.622 244.871 410.46 244.673 411.309 244.673C412.158 244.673 412.995 244.871 413.754 245.252L450.118 266.225Z" fill="#98A4E0"/>
<path d="M449.825 285.229L414.604 305.564V291.954L449.825 271.62V285.229Z" fill="#3C6FF7"/>
<path d="M420.64 290.732L415.723 293.603V297.484L420.64 294.64V290.732Z" fill="#EFF6FE"/>
<path d="M438.215 284.485L448.901 278.318V274.438L438.215 280.604V284.485Z" fill="#30B8F1"/>
<path d="M422.661 293.469L435.872 285.867V281.96L422.661 289.589V293.469Z" fill="#EFF6FE"/>
<path d="M432.79 293.709L430.105 295.277V291.37L432.79 289.828V293.709Z" fill="#30B8F1"/>
<path d="M448.896 284.406L446.211 285.948V282.067L448.896 280.525V284.406Z" fill="#EFF6FE"/>
<path d="M444.379 283.13L434.438 288.871V292.752L444.379 287.037V283.13Z" fill="#EFF6FE"/>
<path d="M428.242 292.434L415.723 299.664V303.571L428.242 296.341V292.434Z" fill="#EFF6FE"/>
<path d="M450.148 246.448L413.811 225.476C413.055 225.084 412.217 224.88 411.366 224.88C410.514 224.88 409.676 225.084 408.92 225.476L372.823 246.448C372.543 246.571 372.302 246.766 372.125 247.014C371.947 247.262 371.839 247.553 371.812 247.857V265.347C371.837 265.655 371.944 265.95 372.122 266.202C372.299 266.455 372.541 266.655 372.823 266.782L409.159 287.781L409.691 288.02H409.904H410.302H410.568H410.94H412.269H412.641H412.907H413.306H413.519L414.077 287.781L450.174 266.782L450.467 266.596L450.653 266.437L450.839 266.224V266.038C450.839 266.038 450.839 266.038 450.839 265.878C450.839 265.878 450.839 265.879 450.839 265.666V248.176C450.894 247.852 450.859 247.519 450.737 247.214C450.615 246.909 450.411 246.644 450.148 246.448V246.448ZM371.919 248.096C371.889 248.107 371.861 248.126 371.839 248.149L371.919 248.096ZM372.211 248.495C372.211 248.495 372.025 248.574 372.025 248.548L372.211 248.495Z" fill="#DAE8FD"/>
<path d="M451.186 247.884V265.374C451.157 265.677 451.048 265.967 450.87 266.214C450.693 266.462 450.453 266.658 450.176 266.783V249.293C450.452 249.165 450.69 248.969 450.867 248.722C451.044 248.475 451.154 248.186 451.186 247.884Z" fill="#DAE8FD"/>
<path d="M451.184 247.884V265.374C451.221 265.531 451.221 265.695 451.184 265.852V248.362C451.221 248.205 451.221 248.041 451.184 247.884V247.884Z" fill="#DAE8FD"/>
<path d="M451.08 248.362V265.852C450.889 266.253 450.571 266.58 450.176 266.783V249.293C450.571 249.09 450.889 248.763 451.08 248.362V248.362Z" fill="#DAE8FD"/>
<path d="M371.867 265.347V247.856C371.894 248.163 372.002 248.458 372.179 248.71C372.357 248.961 372.597 249.162 372.877 249.292V266.782C372.596 266.655 372.354 266.455 372.176 266.202C371.998 265.95 371.891 265.654 371.867 265.347V265.347Z" fill="#C6D5FA"/>
<path d="M372.827 249.292V266.782C372.545 266.655 372.303 266.455 372.126 266.202C371.948 265.95 371.841 265.654 371.816 265.347V247.856C371.844 248.163 371.952 248.458 372.129 248.71C372.306 248.961 372.547 249.162 372.827 249.292Z" fill="#C6D5FA"/>
<path d="M450.149 249.292L450.202 266.809L414.105 287.781L414.078 270.264L450.149 249.292Z" fill="#DAE8FD"/>
<path d="M409.161 270.264L409.214 287.781L372.877 266.809L372.824 249.292L409.161 270.264Z" fill="#C6D5FA"/>
<path d="M414.079 270.265V287.781C413.298 288.182 412.431 288.383 411.554 288.366V270.849C412.433 270.886 413.306 270.684 414.079 270.265V270.265Z" fill="#D4E2FC"/>
<path d="M411.556 270.849V288.366C410.724 288.361 409.905 288.161 409.164 287.781V270.265C409.896 270.666 410.721 270.868 411.556 270.849V270.849Z" fill="#CDDCFB"/>
<path d="M450.149 246.448C450.44 246.555 450.691 246.749 450.869 247.003C451.046 247.257 451.141 247.56 451.141 247.87C451.141 248.18 451.046 248.483 450.869 248.737C450.691 248.991 450.44 249.185 450.149 249.292L414.051 270.264C413.292 270.66 412.449 270.867 411.593 270.867C410.736 270.867 409.893 270.66 409.134 270.264L372.797 249.292C372.506 249.185 372.255 248.991 372.077 248.737C371.9 248.483 371.805 248.18 371.805 247.87C371.805 247.56 371.9 247.257 372.077 247.003C372.255 246.749 372.506 246.555 372.797 246.448L408.895 225.476C409.65 225.084 410.489 224.88 411.34 224.88C412.191 224.88 413.03 225.084 413.786 225.476L450.149 246.448Z" fill="#ECF5FE"/>
<path d="M449.827 265.454L414.633 285.762V272.179L449.827 251.845V265.454Z" fill="#3C6FF7"/>
<path d="M420.671 270.956L415.754 273.8V277.708L420.671 274.863V270.956Z" fill="#EFF6FE"/>
<path d="M438.238 264.71L448.924 258.543V254.636L438.238 260.802V264.71Z" fill="#30B8F1"/>
<path d="M422.691 273.694L435.902 266.065V262.185L422.691 269.787V273.694Z" fill="#EFF6FE"/>
<path d="M432.818 273.933L430.133 275.474V271.594L432.818 270.025V273.933Z" fill="#30B8F1"/>
<path d="M448.927 264.63L446.242 266.172V262.264L448.927 260.723V264.63Z" fill="#EFF6FE"/>
<path d="M444.38 263.354L434.465 269.068V272.976L444.38 267.234V263.354Z" fill="#EFF6FE"/>
<path d="M428.274 272.657L415.754 279.887V283.768L428.274 276.538V272.657Z" fill="#EFF6FE"/>
<path d="M383.908 248.097C384.177 248.5 384.543 248.829 384.971 249.054L408.097 262.344C409.141 262.868 410.292 263.14 411.46 263.14C412.627 263.14 413.779 262.868 414.822 262.344L437.948 249.054C438.384 248.828 438.758 248.5 439.038 248.097C439.676 247.113 439.33 245.97 437.948 245.173L414.822 231.882C413.779 231.359 412.627 231.086 411.46 231.086C410.292 231.086 409.141 231.359 408.097 231.882L384.971 245.173C383.616 245.97 383.244 247.22 383.908 248.097Z" fill="#C6D5FA"/>
<path d="M383.91 248.097C384.179 248.5 384.545 248.829 384.973 249.054L408.099 262.344C409.143 262.868 410.294 263.141 411.462 263.141C412.629 263.141 413.781 262.868 414.824 262.344L437.95 249.054C438.386 248.828 438.76 248.5 439.04 248.097C438.755 247.692 438.382 247.356 437.95 247.113L414.824 233.823C413.781 233.299 412.629 233.026 411.462 233.026C410.294 233.026 409.143 233.299 408.099 233.823L384.973 247.113C384.549 247.356 384.185 247.692 383.91 248.097V248.097Z" fill="#30B8F1"/>
<path d="M403.288 292.221L366.978 271.142C366.214 270.763 365.373 270.565 364.52 270.565C363.666 270.565 362.825 270.763 362.061 271.142L325.963 292.114C325.684 292.244 325.443 292.445 325.266 292.697C325.088 292.949 324.981 293.243 324.953 293.55V311.067C324.983 311.373 325.092 311.666 325.269 311.917C325.446 312.169 325.685 312.37 325.963 312.502L362.3 333.474C362.473 333.581 362.661 333.661 362.858 333.713H363.044H363.443H363.709H364.081H365.41H365.809H366.048L366.473 333.58H366.659C366.855 333.514 367.042 333.425 367.218 333.315L403.315 312.342L403.607 312.156L403.794 311.997C403.869 311.939 403.932 311.867 403.98 311.784V311.784C403.966 311.723 403.966 311.659 403.98 311.598V311.598C403.98 311.598 403.98 311.598 403.98 311.439C403.991 311.368 403.991 311.296 403.98 311.226V293.709C403.997 293.423 403.943 293.138 403.822 292.878C403.701 292.618 403.518 292.392 403.288 292.221V292.221ZM325.059 294.108C325.059 294.108 325.059 294.161 325.059 294.135V294.108ZM325.059 293.709C325.059 293.709 324.953 293.789 324.953 293.736L325.059 293.709ZM325.352 294.294C325.352 294.294 325.166 294.347 325.166 294.321L325.352 294.294Z" fill="#DAE8FD"/>
<path d="M404.326 293.656V311.173C404.294 311.475 404.184 311.764 404.007 312.011C403.83 312.258 403.592 312.455 403.316 312.582V295.065C403.593 294.94 403.833 294.744 404.01 294.496C404.188 294.249 404.297 293.959 404.326 293.656Z" fill="#DAE8FD"/>
<path d="M404.324 293.656V311.173C404.364 311.321 404.364 311.477 404.324 311.625V294.135C404.362 293.977 404.362 293.814 404.324 293.656V293.656Z" fill="#DAE8FD"/>
<path d="M404.22 294.135V311.625C404.032 312.035 403.714 312.371 403.316 312.582V295.065C403.711 294.863 404.029 294.536 404.22 294.135V294.135Z" fill="#DAE8FD"/>
<path d="M325.004 311.147V293.63C325.031 293.937 325.139 294.231 325.317 294.483C325.494 294.735 325.734 294.936 326.014 295.065V312.582C325.736 312.45 325.497 312.249 325.32 311.997C325.143 311.746 325.034 311.453 325.004 311.147Z" fill="#C6D5FA"/>
<path d="M325.963 295.065V312.582C325.685 312.45 325.446 312.249 325.269 311.997C325.092 311.746 324.983 311.453 324.953 311.147V293.63C324.981 293.937 325.088 294.231 325.266 294.483C325.443 294.735 325.684 294.936 325.963 295.065V295.065Z" fill="#C6D5FA"/>
<path d="M403.312 295.092L403.366 312.582L367.268 333.554L367.215 316.064L403.312 295.092Z" fill="#DAE8FD"/>
<path d="M362.298 316.064L362.351 333.554L326.015 312.582L325.961 295.092L362.298 316.064Z" fill="#C6D5FA"/>
<path d="M367.222 316.037V333.554C366.404 333.985 365.486 334.187 364.563 334.139V316.648C365.445 316.677 366.318 316.466 367.089 316.037H367.222Z" fill="#D4E2FC"/>
<path d="M364.694 316.648V334.139C363.86 334.144 363.038 333.943 362.301 333.554V316.037C363.036 316.435 363.858 316.645 364.694 316.648V316.648Z" fill="#CDDCFB"/>
<path d="M403.29 292.221C404.673 293.018 404.673 294.294 403.29 295.065L367.193 316.037C366.434 316.433 365.59 316.64 364.734 316.64C363.878 316.64 363.034 316.433 362.275 316.037L325.965 295.065C325.674 294.958 325.423 294.764 325.245 294.51C325.068 294.256 324.973 293.953 324.973 293.643C324.973 293.333 325.068 293.03 325.245 292.776C325.423 292.522 325.674 292.328 325.965 292.221L362.063 271.142C362.827 270.763 363.668 270.565 364.521 270.565C365.374 270.565 366.216 270.763 366.98 271.142L403.29 292.221Z" fill="#98A4E0"/>
<path d="M402.993 311.226L367.773 331.56V317.951L402.993 297.616V311.226Z" fill="#3C6FF7"/>
<path d="M373.804 316.729L368.886 319.573V323.48L373.804 320.636V316.729Z" fill="#EFF6FE"/>
<path d="M391.375 310.481L402.061 304.314V300.434L391.375 306.6V310.481Z" fill="#30B8F1"/>
<path d="M375.852 319.466L389.036 311.863V307.956L375.852 315.558V319.466Z" fill="#EFF6FE"/>
<path d="M385.95 319.705L383.266 321.247V317.366L385.95 315.824V319.705Z" fill="#30B8F1"/>
<path d="M402.064 310.402L399.379 311.943V308.062L402.064 306.494V310.402Z" fill="#EFF6FE"/>
<path d="M397.547 309.126L387.605 314.867V318.748L397.547 313.033V309.126Z" fill="#EFF6FE"/>
<path d="M381.433 318.429L368.886 325.659V329.566L381.433 322.336V318.429Z" fill="#EFF6FE"/>
<path d="M403.257 272.444L366.947 251.472C366.188 251.076 365.344 250.869 364.488 250.869C363.632 250.869 362.789 251.076 362.029 251.472L325.932 272.444C325.656 272.571 325.418 272.768 325.241 273.015C325.064 273.262 324.954 273.551 324.922 273.853V273.853V291.343C324.949 291.65 325.057 291.944 325.235 292.196C325.412 292.448 325.652 292.649 325.932 292.778L362.322 313.671L362.88 313.937H363.066H363.465H363.731H364.103H365.432H365.831H366.07H366.495H366.681C366.877 313.87 367.064 313.781 367.239 313.671L403.337 292.699L403.629 292.513L403.815 292.353L404.001 292.141V291.954C404.001 291.954 404.001 291.954 404.001 291.795C404.017 291.725 404.017 291.652 404.001 291.582V274.092C404.042 273.776 403.993 273.454 403.862 273.163C403.731 272.872 403.521 272.623 403.257 272.444ZM325.028 274.305C325.028 274.305 325.028 274.385 325.028 274.331V274.305ZM325.028 273.933L324.922 273.959L325.028 273.933ZM325.321 274.517C325.321 274.517 325.135 274.571 325.135 274.544L325.321 274.517ZM325.826 275.049C325.826 275.049 325.586 275.102 325.586 275.076L325.826 275.049Z" fill="#DAE8FD"/>
<path d="M404.295 273.8V291.29C404.266 291.593 404.157 291.883 403.98 292.13C403.802 292.378 403.563 292.574 403.285 292.699V275.209C403.561 275.081 403.799 274.885 403.976 274.638C404.153 274.391 404.263 274.102 404.295 273.8V273.8Z" fill="#DAE8FD"/>
<path d="M404.293 273.8V291.29C404.331 291.447 404.331 291.611 404.293 291.768V274.252C404.333 274.104 404.333 273.948 404.293 273.8V273.8Z" fill="#DAE8FD"/>
<path d="M404.189 274.331V291.848C403.998 292.249 403.68 292.576 403.285 292.778V275.288C403.684 275.077 404.001 274.741 404.189 274.331V274.331Z" fill="#DAE8FD"/>
<path d="M324.976 291.343V273.853C325.006 274.159 325.115 274.452 325.292 274.703C325.469 274.955 325.708 275.156 325.986 275.288V292.778C325.707 292.649 325.466 292.448 325.289 292.196C325.111 291.944 325.004 291.65 324.976 291.343V291.343Z" fill="#C6D5FA"/>
<path d="M325.936 275.288V292.778C325.656 292.649 325.416 292.448 325.238 292.196C325.061 291.944 324.953 291.65 324.926 291.343V273.853C324.956 274.159 325.065 274.452 325.242 274.703C325.419 274.955 325.658 275.156 325.936 275.288Z" fill="#C6D5FA"/>
<path d="M403.285 275.288L403.338 292.778L367.241 313.777L367.188 296.26L403.285 275.288Z" fill="#DAE8FD"/>
<path d="M362.27 296.26L362.324 313.777L325.987 292.778L325.934 275.288L362.27 296.26Z" fill="#C6D5FA"/>
<path d="M367.188 296.261V313.751C366.413 314.167 365.543 314.377 364.663 314.362V296.846C365.586 296.893 366.504 296.691 367.321 296.261H367.188Z" fill="#D4E2FC"/>
<path d="M364.666 296.846V314.362C363.83 314.358 363.008 314.148 362.273 313.751V296.261C363.01 296.65 363.832 296.851 364.666 296.846V296.846Z" fill="#CDDCFB"/>
<path d="M403.258 272.444C403.562 272.538 403.828 272.727 404.016 272.983C404.205 273.239 404.307 273.548 404.307 273.866C404.307 274.184 404.205 274.494 404.016 274.75C403.828 275.006 403.562 275.194 403.258 275.288L367.161 296.261C366.397 296.64 365.555 296.837 364.702 296.837C363.849 296.837 363.007 296.64 362.243 296.261L325.906 275.288C325.615 275.181 325.364 274.988 325.187 274.733C325.009 274.479 324.914 274.176 324.914 273.866C324.914 273.556 325.009 273.253 325.187 272.999C325.364 272.745 325.615 272.551 325.906 272.444L362.004 251.472C362.763 251.076 363.607 250.869 364.463 250.869C365.319 250.869 366.162 251.076 366.922 251.472L403.258 272.444Z" fill="#98A4E0"/>
<path d="M402.963 291.449L367.742 311.757V298.148L402.963 277.84V291.449Z" fill="#3C6FF7"/>
<path d="M373.781 296.952L368.863 299.796V303.677L373.781 300.833V296.952Z" fill="#EFF6FE"/>
<path d="M391.348 290.705L402.033 284.538V280.631L391.348 286.798V290.705Z" fill="#30B8F1"/>
<path d="M375.824 299.663L389.009 292.061V288.153L375.824 295.782V299.663Z" fill="#EFF6FE"/>
<path d="M385.927 299.929L383.242 301.471V297.59L385.927 296.021V299.929Z" fill="#30B8F1"/>
<path d="M402.036 290.6L399.352 292.168V288.26L402.036 286.719V290.6Z" fill="#EFF6FE"/>
<path d="M397.516 289.323L387.575 295.065V298.972L397.516 293.231V289.323Z" fill="#EFF6FE"/>
<path d="M381.41 298.627L368.863 305.883V309.764L381.41 302.534V298.627Z" fill="#EFF6FE"/>
<path d="M403.288 252.535L366.978 231.563C366.214 231.184 365.373 230.986 364.52 230.986C363.666 230.986 362.825 231.184 362.061 231.563L325.963 252.535C325.684 252.665 325.443 252.866 325.266 253.118C325.088 253.37 324.981 253.664 324.953 253.971V271.487C324.983 271.794 325.092 272.087 325.269 272.338C325.446 272.59 325.685 272.791 325.963 272.923L362.3 293.895C362.473 294.002 362.661 294.082 362.858 294.134H363.044H363.443H363.709H364.081H365.41H365.809H366.048L366.473 294.001H366.659C366.855 293.935 367.042 293.846 367.218 293.736L403.315 272.763L403.607 272.577C403.607 272.577 403.74 272.577 403.793 272.418C403.869 272.36 403.932 272.288 403.98 272.205V272.205C403.966 272.144 403.966 272.08 403.98 272.019V272.019C403.98 272.019 403.98 272.019 403.98 271.86C403.991 271.789 403.991 271.717 403.98 271.647V254.13C404.016 253.827 403.971 253.52 403.849 253.24C403.728 252.959 403.534 252.716 403.288 252.535V252.535ZM325.059 254.423C325.059 254.423 325.059 254.582 325.059 254.556V254.423ZM325.059 254.024C325.059 254.024 324.953 254.21 324.953 254.157L325.059 254.024ZM325.352 254.609C325.352 254.609 325.166 254.768 325.166 254.742L325.352 254.609Z" fill="#DAE8FD"/>
<path d="M404.326 254.077V271.594C404.294 271.896 404.184 272.185 404.007 272.432C403.83 272.679 403.592 272.875 403.316 273.003V255.486C403.593 255.361 403.833 255.165 404.01 254.917C404.188 254.67 404.297 254.38 404.326 254.077Z" fill="#DAE8FD"/>
<path d="M404.324 254.077V271.594C404.364 271.742 404.364 271.898 404.324 272.046V254.556C404.362 254.398 404.362 254.234 404.324 254.077V254.077Z" fill="#DAE8FD"/>
<path d="M404.22 254.556V272.046C404.032 272.456 403.714 272.792 403.316 273.003V255.486C403.711 255.284 404.029 254.957 404.22 254.556V254.556Z" fill="#DAE8FD"/>
<path d="M325.004 271.568V254.051C325.031 254.358 325.139 254.652 325.317 254.904C325.494 255.156 325.734 255.357 326.014 255.486V273.003C325.736 272.871 325.497 272.67 325.32 272.418C325.143 272.167 325.034 271.874 325.004 271.568Z" fill="#C6D5FA"/>
<path d="M325.963 255.486V273.003C325.685 272.871 325.446 272.67 325.269 272.418C325.092 272.167 324.983 271.874 324.953 271.568V254.051C324.981 254.358 325.088 254.652 325.266 254.904C325.443 255.156 325.684 255.357 325.963 255.486V255.486Z" fill="#C6D5FA"/>
<path d="M403.312 255.486L403.366 273.003L367.268 293.975L367.215 276.485L403.312 255.486Z" fill="#DAE8FD"/>
<path d="M362.298 276.485L362.351 293.975L326.015 273.003L325.961 255.486L362.298 276.485Z" fill="#C6D5FA"/>
<path d="M367.222 276.458V293.975C366.404 294.405 365.486 294.607 364.563 294.56V277.069C365.445 277.098 366.318 276.887 367.089 276.458H367.222Z" fill="#D4E2FC"/>
<path d="M364.694 277.069V294.56C363.86 294.565 363.038 294.364 362.301 293.975V276.458C363.036 276.856 363.858 277.066 364.694 277.069V277.069Z" fill="#CDDCFB"/>
<path d="M403.29 252.535C404.673 253.333 404.673 254.609 403.29 255.38L367.219 276.458C366.46 276.854 365.617 277.061 364.761 277.061C363.904 277.061 363.061 276.854 362.302 276.458L325.965 255.486C325.674 255.379 325.423 255.185 325.245 254.931C325.068 254.677 324.973 254.374 324.973 254.064C324.973 253.754 325.068 253.451 325.245 253.197C325.423 252.943 325.674 252.749 325.965 252.642L362.063 231.67C362.827 231.29 363.668 231.093 364.521 231.093C365.374 231.093 366.216 231.29 366.98 231.67L403.29 252.535Z" fill="#98A4E0"/>
<path d="M402.993 271.647L367.773 291.982V278.372L402.993 258.038V271.647Z" fill="#3C6FF7"/>
<path d="M373.804 277.149L368.886 279.994V283.901L373.804 281.057V277.149Z" fill="#EFF6FE"/>
<path d="M391.375 270.903L402.061 264.736V260.855L391.375 267.022V270.903Z" fill="#30B8F1"/>
<path d="M375.852 279.887L389.036 272.259V268.378L375.852 275.98V279.887Z" fill="#EFF6FE"/>
<path d="M385.95 280.126L383.266 281.694V277.787L385.95 276.245V280.126Z" fill="#30B8F1"/>
<path d="M402.064 270.823L399.379 272.365V268.484L402.064 266.942V270.823Z" fill="#EFF6FE"/>
<path d="M397.547 269.547L387.605 275.288V279.169L397.547 273.454V269.547Z" fill="#EFF6FE"/>
<path d="M381.433 278.851L368.886 286.081V289.988L381.433 282.731V278.851Z" fill="#EFF6FE"/>
<path d="M403.257 232.76L366.947 211.787C366.188 211.391 365.344 211.185 364.488 211.185C363.632 211.185 362.789 211.391 362.029 211.787L325.932 232.76C325.656 232.887 325.418 233.084 325.241 233.33C325.064 233.577 324.954 233.866 324.922 234.168V234.168V251.685C324.951 251.988 325.06 252.278 325.237 252.525C325.415 252.773 325.654 252.969 325.932 253.094L362.269 274.093L362.827 274.332H363.013H363.412H363.678H364.05H365.379H365.777H366.017H366.442H366.628C366.823 274.274 367.01 274.193 367.186 274.093L403.284 253.094L403.576 252.908L403.762 252.748C403.838 252.69 403.901 252.618 403.948 252.536V252.536V252.35C403.948 252.35 403.948 252.35 403.948 252.19C403.961 252.111 403.961 252.03 403.948 251.951V234.461C404.005 234.141 403.97 233.812 403.847 233.511C403.725 233.21 403.521 232.949 403.257 232.76V232.76ZM325.028 234.62C325.028 234.62 325.028 234.7 325.028 234.673V234.62ZM325.028 234.222C324.999 234.249 324.962 234.267 324.922 234.275L325.028 234.222ZM325.321 234.992C325.321 234.992 325.267 235.072 325.267 235.045L325.321 234.992ZM325.321 234.806C325.321 234.806 325.135 234.886 325.135 234.859L325.321 234.806Z" fill="#DAE8FD"/>
<path d="M404.295 234.195V251.685C404.271 251.99 404.165 252.282 403.987 252.531C403.809 252.779 403.566 252.974 403.285 253.094V235.604C403.561 235.477 403.799 235.28 403.976 235.033C404.153 234.786 404.263 234.498 404.295 234.195V234.195Z" fill="#DAE8FD"/>
<path d="M404.293 234.195V251.685C404.331 251.843 404.331 252.007 404.293 252.164V234.674C404.331 234.516 404.331 234.353 404.293 234.195V234.195Z" fill="#DAE8FD"/>
<path d="M404.189 234.674V252.164C403.998 252.565 403.68 252.892 403.285 253.094V235.604C403.68 235.402 403.998 235.075 404.189 234.674Z" fill="#DAE8FD"/>
<path d="M324.976 251.685V234.168C325.004 234.475 325.111 234.769 325.289 235.021C325.466 235.273 325.707 235.474 325.986 235.603V253.093C325.709 252.968 325.469 252.772 325.292 252.525C325.114 252.278 325.005 251.988 324.976 251.685Z" fill="#C6D5FA"/>
<path d="M325.936 235.603V253.093C325.658 252.968 325.419 252.772 325.241 252.525C325.064 252.278 324.955 251.988 324.926 251.685V234.168C324.953 234.475 325.061 234.769 325.238 235.021C325.416 235.273 325.656 235.474 325.936 235.603V235.603Z" fill="#C6D5FA"/>
<path d="M403.285 235.604L403.338 253.12L367.241 274.093L367.188 256.576L403.285 235.604Z" fill="#DAE8FD"/>
<path d="M362.27 256.576L362.324 274.093L325.987 253.12L325.934 235.604L362.27 256.576Z" fill="#C6D5FA"/>
<path d="M367.188 256.576V274.093C366.411 274.501 365.541 274.702 364.663 274.678V257.161C365.587 257.223 366.509 257.02 367.321 256.576H367.188Z" fill="#D4E2FC"/>
<path d="M364.666 257.161V274.678C363.834 274.673 363.014 274.472 362.273 274.093V256.576C363.006 256.978 363.831 257.179 364.666 257.161V257.161Z" fill="#CDDCFB"/>
<path d="M403.258 232.76C404.64 233.557 404.64 234.806 403.258 235.604L367.161 256.576C366.402 256.972 365.558 257.179 364.702 257.179C363.846 257.179 363.002 256.972 362.243 256.576L325.906 235.604C325.615 235.497 325.364 235.303 325.187 235.049C325.009 234.794 324.914 234.492 324.914 234.182C324.914 233.872 325.009 233.569 325.187 233.315C325.364 233.06 325.615 232.867 325.906 232.76L362.004 211.787C362.763 211.391 363.607 211.185 364.463 211.185C365.319 211.185 366.162 211.391 366.922 211.787L403.258 232.76Z" fill="#ECF5FE"/>
<path d="M402.963 251.765L367.742 272.072V258.49L402.963 238.155V251.765Z" fill="#3C6FF7"/>
<path d="M373.781 257.267L368.863 260.111V264.018L373.781 261.174V257.267Z" fill="#EFF6FE"/>
<path d="M391.348 251.02L402.033 244.854V240.946L391.348 247.113V251.02Z" fill="#30B8F1"/>
<path d="M375.824 260.005L389.009 252.376V248.495L375.824 256.097V260.005Z" fill="#EFF6FE"/>
<path d="M385.927 260.244L383.242 261.786V257.905L385.927 256.337V260.244Z" fill="#30B8F1"/>
<path d="M402.036 250.941L399.352 252.482V248.601L402.036 247.033V250.941Z" fill="#EFF6FE"/>
<path d="M397.516 249.665L387.575 255.38V259.287L397.516 253.546V249.665Z" fill="#EFF6FE"/>
<path d="M381.41 258.968L368.863 266.198V270.079L381.41 262.849V258.968Z" fill="#EFF6FE"/>
<path d="M337.04 235.151C337.309 235.554 337.675 235.883 338.104 236.108L361.23 249.399C362.269 249.935 363.422 250.215 364.592 250.215C365.762 250.215 366.915 249.935 367.955 249.399L391.08 236.108C391.516 235.883 391.891 235.555 392.17 235.151C392.808 234.168 392.463 233.025 391.08 232.228L367.955 218.937C366.911 218.413 365.76 218.141 364.592 218.141C363.425 218.141 362.273 218.413 361.23 218.937L338.104 232.228C336.748 233.025 336.376 234.168 337.04 235.151Z" fill="#C6D5FA"/>
<path d="M337.039 235.151C337.308 235.554 337.674 235.883 338.102 236.108L361.228 249.399C362.268 249.935 363.421 250.215 364.591 250.215C365.761 250.215 366.913 249.935 367.953 249.399L391.079 236.108C391.515 235.883 391.889 235.555 392.169 235.151C391.891 234.74 391.517 234.402 391.079 234.168L367.953 220.877C366.913 220.341 365.761 220.062 364.591 220.062C363.421 220.062 362.268 220.341 361.228 220.877L338.102 234.168C337.672 234.402 337.306 234.74 337.039 235.151Z" fill="#30B8F1"/>
<path d="M359.374 317.233L322.931 296.26C322.167 295.881 321.325 295.684 320.472 295.684C319.619 295.684 318.777 295.881 318.013 296.26L281.916 317.233C281.636 317.362 281.396 317.563 281.218 317.815C281.041 318.067 280.933 318.361 280.906 318.668V318.668V336.158C280.938 336.467 281.051 336.762 281.233 337.014C281.415 337.266 281.659 337.465 281.942 337.594L318.279 358.566C318.448 358.67 318.626 358.759 318.811 358.832H319.023H319.396H319.661H320.034H321.363H321.761H322.027H322.426H322.639C322.823 358.759 323.001 358.67 323.17 358.566L359.427 337.594L359.72 337.407L359.906 337.248L360.065 337.035C360.074 336.974 360.074 336.911 360.065 336.849V336.557V319.04C360.14 318.704 360.114 318.354 359.991 318.032C359.868 317.711 359.654 317.433 359.374 317.233V317.233ZM281.118 318.934L281.065 318.987L281.118 318.934ZM281.411 319.492C281.411 319.492 281.384 319.545 281.358 319.519L281.411 319.492Z" fill="#DAE8FD"/>
<path d="M360.385 318.668V336.185C360.358 336.489 360.25 336.78 360.072 337.027C359.895 337.275 359.654 337.471 359.375 337.593V320.077C359.657 319.959 359.901 319.765 360.08 319.516C360.258 319.267 360.364 318.973 360.385 318.668V318.668Z" fill="#DAE8FD"/>
<path d="M360.383 318.668V336.185C360.408 336.343 360.408 336.505 360.383 336.663V319.146C360.408 318.988 360.408 318.826 360.383 318.668Z" fill="#DAE8FD"/>
<path d="M360.305 319.146V336.663C360.104 337.066 359.777 337.393 359.375 337.594V320.077C359.777 319.876 360.104 319.549 360.305 319.146Z" fill="#DAE8FD"/>
<path d="M281.062 336.158V318.668C281.092 318.975 281.203 319.268 281.386 319.516C281.569 319.764 281.815 319.958 282.099 320.077V337.593C281.816 337.465 281.572 337.266 281.39 337.014C281.208 336.762 281.095 336.467 281.062 336.158V336.158Z" fill="#C6D5FA"/>
<path d="M282.048 320.077V337.593C281.765 337.465 281.521 337.266 281.339 337.014C281.157 336.762 281.044 336.467 281.012 336.158V318.668C281.041 318.975 281.153 319.268 281.335 319.516C281.518 319.764 281.764 319.958 282.048 320.077V320.077Z" fill="#C6D5FA"/>
<path d="M359.371 320.104L359.424 337.594L323.327 358.566L323.273 341.076L359.371 320.104Z" fill="#DAE8FD"/>
<path d="M318.357 341.076L318.41 358.566L282.073 337.594L282.02 320.104L318.357 341.076Z" fill="#C6D5FA"/>
<path d="M323.271 341.075V358.565C322.506 358.982 321.643 359.184 320.772 359.15V341.66C321.642 341.681 322.502 341.48 323.271 341.075V341.075Z" fill="#D4E2FC"/>
<path d="M320.775 341.66V359.15C319.941 359.159 319.119 358.958 318.383 358.565V341.075C319.123 341.455 319.943 341.655 320.775 341.66V341.66Z" fill="#CDDCFB"/>
<path d="M359.372 317.233C359.663 317.34 359.914 317.533 360.092 317.788C360.269 318.042 360.364 318.345 360.364 318.655C360.364 318.965 360.269 319.267 360.092 319.522C359.914 319.776 359.663 319.97 359.372 320.077L323.274 341.076C322.515 341.457 321.678 341.655 320.829 341.655C319.98 341.655 319.142 341.457 318.383 341.076L282.047 320.077C281.756 319.97 281.504 319.776 281.327 319.522C281.149 319.267 281.054 318.965 281.054 318.655C281.054 318.345 281.149 318.042 281.327 317.788C281.504 317.533 281.756 317.34 282.047 317.233L318.144 296.26C318.908 295.881 319.75 295.684 320.603 295.684C321.456 295.684 322.298 295.881 323.062 296.26L359.372 317.233Z" fill="#98A4E0"/>
<path d="M359.053 336.238L323.859 356.573V342.963L359.053 322.629V336.238Z" fill="#3C6FF7"/>
<path d="M329.89 341.768L324.973 344.612V348.493L329.89 345.648V341.768Z" fill="#EFF6FE"/>
<path d="M347.465 335.494L358.151 329.327V325.446L347.465 331.613V335.494Z" fill="#30B8F1"/>
<path d="M331.911 344.478L345.096 336.876V332.969L331.911 340.597V344.478Z" fill="#EFF6FE"/>
<path d="M342.017 344.718L339.332 346.286V342.379L342.017 340.837V344.718Z" fill="#30B8F1"/>
<path d="M358.146 335.414L355.461 336.956V333.075L358.146 331.533V335.414Z" fill="#EFF6FE"/>
<path d="M353.605 334.139L343.663 339.88V343.761L353.605 338.046V334.139Z" fill="#EFF6FE"/>
<path d="M337.493 343.441L324.973 350.671V354.579L337.493 347.349V343.441Z" fill="#EFF6FE"/>
<path d="M359.374 297.457L322.931 276.458C322.171 276.062 321.328 275.855 320.472 275.855C319.616 275.855 318.772 276.062 318.013 276.458L282.022 297.457C281.746 297.584 281.508 297.781 281.331 298.028C281.154 298.275 281.044 298.564 281.012 298.866V298.866V316.383C281.041 316.689 281.153 316.982 281.335 317.23C281.518 317.478 281.764 317.672 282.048 317.791L318.385 338.79L318.917 339.029H319.129H319.502H319.767H320.14H321.469H321.867H322.133H322.532H322.744C322.929 338.966 323.107 338.886 323.276 338.79L359.374 317.791C359.48 317.745 359.579 317.682 359.666 317.605V317.605L359.852 317.446L360.012 317.233C360.025 317.172 360.025 317.108 360.012 317.047V317.047C360.012 317.047 360.012 317.047 360.012 316.888V316.329V298.839C360.022 298.575 359.97 298.312 359.859 298.071C359.748 297.831 359.582 297.621 359.374 297.457V297.457ZM281.118 299.105C281.118 299.105 281.065 299.211 281.065 299.158L281.118 299.105ZM281.41 299.69C281.41 299.69 281.384 299.77 281.357 299.743L281.41 299.69ZM281.809 300.035L281.756 300.089L281.809 300.035Z" fill="#DAE8FD"/>
<path d="M360.385 298.893V316.383C360.364 316.688 360.258 316.982 360.08 317.231C359.901 317.479 359.657 317.674 359.375 317.792V300.301C359.654 300.179 359.895 299.983 360.072 299.735C360.25 299.487 360.358 299.196 360.385 298.893V298.893Z" fill="#DAE8FD"/>
<path d="M360.383 298.893V316.383C360.408 316.541 360.408 316.703 360.383 316.861V299.371C360.408 299.213 360.408 299.051 360.383 298.893Z" fill="#DAE8FD"/>
<path d="M360.305 299.371V316.861C360.104 317.264 359.777 317.591 359.375 317.792V300.301C359.777 300.101 360.104 299.774 360.305 299.371Z" fill="#DAE8FD"/>
<path d="M281.062 316.329V298.812C281.09 299.123 281.2 299.42 281.383 299.673C281.566 299.926 281.813 300.124 282.099 300.248V317.738C281.815 317.619 281.569 317.425 281.386 317.177C281.203 316.929 281.092 316.636 281.062 316.329V316.329Z" fill="#C6D5FA"/>
<path d="M282.048 300.381V317.871C281.764 317.752 281.518 317.558 281.335 317.31C281.153 317.062 281.041 316.769 281.012 316.462V298.945C281.039 299.256 281.15 299.553 281.332 299.806C281.515 300.059 281.762 300.257 282.048 300.381Z" fill="#C6D5FA"/>
<path d="M359.371 300.301L359.424 317.818L323.327 338.79L323.273 321.273L359.371 300.301Z" fill="#DAE8FD"/>
<path d="M318.357 321.273L318.41 338.79L282.073 317.818L282.02 300.301L318.357 321.273Z" fill="#C6D5FA"/>
<path d="M323.271 321.273V338.79C322.502 339.195 321.642 339.396 320.772 339.375V321.858C321.643 321.892 322.506 321.69 323.271 321.273V321.273Z" fill="#D4E2FC"/>
<path d="M320.775 321.858V339.375C319.943 339.37 319.123 339.17 318.383 338.79V321.273C319.114 321.677 319.94 321.879 320.775 321.858V321.858Z" fill="#CDDCFB"/>
<path d="M359.372 297.457C359.663 297.564 359.914 297.758 360.091 298.012C360.269 298.266 360.364 298.569 360.364 298.879C360.364 299.189 360.269 299.492 360.091 299.746C359.914 300 359.663 300.194 359.372 300.301L323.274 321.273C322.518 321.665 321.68 321.869 320.829 321.869C319.977 321.869 319.139 321.665 318.383 321.273L282.046 300.381C280.691 299.583 280.664 298.334 282.046 297.537L318.117 276.458C318.863 276.08 319.687 275.883 320.523 275.883C321.359 275.883 322.183 276.08 322.928 276.458L359.372 297.457Z" fill="#98A4E0"/>
<path d="M359.053 316.462L323.859 336.77V323.187L359.053 302.853V316.462Z" fill="#3C6FF7"/>
<path d="M329.89 321.965L324.973 324.809V328.716L329.89 325.872V321.965Z" fill="#EFF6FE"/>
<path d="M347.465 315.718L358.151 309.551V305.644L347.465 311.837V315.718Z" fill="#30B8F1"/>
<path d="M331.911 324.702L345.096 317.073V313.192L331.911 320.794V324.702Z" fill="#EFF6FE"/>
<path d="M342.017 324.942L339.332 326.483V322.602L342.017 321.034V324.942Z" fill="#30B8F1"/>
<path d="M358.146 315.638L355.461 317.18V313.272L358.146 311.73V315.638Z" fill="#EFF6FE"/>
<path d="M353.605 314.362L343.663 320.077V323.985L353.605 318.243V314.362Z" fill="#EFF6FE"/>
<path d="M337.493 323.666L324.973 330.896V334.777L337.493 327.547V323.666Z" fill="#EFF6FE"/>
<path d="M359.347 277.681L322.931 256.682C322.167 256.303 321.325 256.105 320.472 256.105C319.619 256.105 318.777 256.303 318.013 256.682L281.916 277.681C281.638 277.806 281.399 278.002 281.221 278.25C281.044 278.497 280.935 278.787 280.906 279.09V279.09V296.58C280.933 296.891 281.044 297.188 281.226 297.441C281.409 297.693 281.656 297.892 281.942 298.015L318.412 318.988C318.581 319.092 318.759 319.181 318.944 319.253H319.156H319.555H319.794H320.166H321.496H321.894H322.16H322.559H322.771C322.956 319.181 323.134 319.092 323.303 318.988L359.401 298.015L359.693 297.829L359.879 297.67L360.039 297.457C360.047 297.395 360.047 297.333 360.039 297.271V296.979V279.462C360.119 279.13 360.095 278.782 359.972 278.463C359.848 278.145 359.63 277.872 359.347 277.681V277.681ZM281.092 279.356L281.039 279.382L281.092 279.356ZM281.384 279.914C281.384 279.914 281.358 279.967 281.331 279.94L281.384 279.914Z" fill="#DAE8FD"/>
<path d="M360.354 279.116V296.633C360.327 296.937 360.219 297.228 360.042 297.476C359.864 297.723 359.623 297.919 359.344 298.042V280.525C359.626 280.407 359.871 280.213 360.049 279.964C360.227 279.715 360.333 279.422 360.354 279.116V279.116Z" fill="#DAE8FD"/>
<path d="M360.352 279.116V296.633C360.377 296.791 360.377 296.953 360.352 297.111V279.595C360.377 279.436 360.377 279.275 360.352 279.116V279.116Z" fill="#DAE8FD"/>
<path d="M360.274 279.568V297.085C360.073 297.488 359.747 297.815 359.344 298.015V280.499C359.747 280.298 360.073 279.971 360.274 279.568Z" fill="#DAE8FD"/>
<path d="M281.032 296.58V279.09C281.061 279.397 281.173 279.69 281.355 279.938C281.538 280.186 281.784 280.38 282.068 280.499V298.015C281.782 297.892 281.535 297.693 281.352 297.441C281.17 297.188 281.059 296.891 281.032 296.58Z" fill="#C6D5FA"/>
<path d="M282.018 280.499V298.015C281.731 297.892 281.484 297.693 281.301 297.441C281.119 297.188 281.008 296.891 280.981 296.58V279.09C281.01 279.397 281.122 279.69 281.304 279.938C281.487 280.186 281.733 280.38 282.018 280.499V280.499Z" fill="#C6D5FA"/>
<path d="M359.34 280.525L359.393 298.016L323.296 318.988L323.243 301.498L359.34 280.525Z" fill="#DAE8FD"/>
<path d="M318.326 301.498L318.379 318.988L282.042 298.016L281.989 280.525L318.326 301.498Z" fill="#C6D5FA"/>
<path d="M323.24 301.497V318.987C322.475 319.404 321.612 319.606 320.742 319.572V302.082C321.611 302.103 322.471 301.902 323.24 301.497Z" fill="#D4E2FC"/>
<path d="M320.744 302.082V319.572C319.909 319.593 319.083 319.391 318.352 318.987V301.497C319.093 301.877 319.912 302.077 320.744 302.082V302.082Z" fill="#CDDCFB"/>
<path d="M359.341 277.681C359.635 277.781 359.89 277.971 360.071 278.224C360.251 278.476 360.349 278.779 360.349 279.09C360.349 279.4 360.251 279.703 360.071 279.956C359.89 280.209 359.635 280.398 359.341 280.499L323.243 301.497C322.484 301.879 321.647 302.077 320.798 302.077C319.949 302.077 319.111 301.879 318.352 301.497L282.015 280.499C280.66 279.728 280.633 278.452 282.015 277.681L318.113 256.682C318.877 256.303 319.719 256.105 320.572 256.105C321.425 256.105 322.266 256.303 323.031 256.682L359.341 277.681Z" fill="#98A4E0"/>
<path d="M359.026 296.659L323.832 316.993V303.384L359.026 283.05V296.659Z" fill="#3C6FF7"/>
<path d="M329.871 302.188L324.953 305.033V308.913L329.871 306.069V302.188Z" fill="#EFF6FE"/>
<path d="M347.435 295.916L358.12 289.776V285.868L347.435 292.035V295.916Z" fill="#30B8F1"/>
<path d="M331.887 304.899L345.071 297.297V293.39L331.887 301.018V304.899Z" fill="#EFF6FE"/>
<path d="M341.989 305.139L339.305 306.707V302.799L341.989 301.258V305.139Z" fill="#30B8F1"/>
<path d="M358.123 295.836L355.438 297.378V293.497L358.123 291.955V295.836Z" fill="#EFF6FE"/>
<path d="M353.578 294.56L343.663 300.301V304.182L353.578 298.467V294.56Z" fill="#EFF6FE"/>
<path d="M337.473 303.863L324.953 311.093V315.001L337.473 307.771V303.863Z" fill="#EFF6FE"/>
<path d="M359.374 257.851L322.931 236.905C322.171 236.51 321.328 236.303 320.472 236.303C319.616 236.303 318.772 236.51 318.013 236.905L282.022 257.851C281.746 257.978 281.508 258.175 281.331 258.422C281.154 258.669 281.044 258.958 281.012 259.26V259.26V276.777C281.041 277.083 281.153 277.376 281.335 277.624C281.518 277.873 281.764 278.066 282.048 278.185L318.385 299.184L318.917 299.423H319.129H319.502H319.767H320.14H321.469H321.867H322.133H322.532H322.744C322.929 299.36 323.107 299.28 323.276 299.184L359.374 278.185C359.48 278.139 359.579 278.077 359.666 277.999V277.999L359.852 277.84L360.012 277.627C360.021 277.557 360.021 277.485 360.012 277.415V277.415C360.012 277.415 360.012 277.415 360.012 277.255V276.963V259.473C360.064 259.17 360.033 258.858 359.92 258.572C359.808 258.286 359.619 258.037 359.374 257.851V257.851ZM281.118 259.526L281.065 259.605L281.118 259.526ZM281.41 260.084C281.41 260.084 281.384 260.19 281.357 260.164L281.41 260.084ZM281.809 260.429L281.756 260.509L281.809 260.429Z" fill="#DAE8FD"/>
<path d="M360.385 259.313V276.804C360.364 277.109 360.258 277.403 360.08 277.652C359.901 277.9 359.657 278.095 359.375 278.212V260.722C359.654 260.6 359.895 260.404 360.072 260.156C360.25 259.908 360.358 259.617 360.385 259.313V259.313Z" fill="#DAE8FD"/>
<path d="M360.383 259.313V276.804C360.408 276.962 360.408 277.124 360.383 277.282V259.792C360.408 259.633 360.408 259.472 360.383 259.313Z" fill="#DAE8FD"/>
<path d="M360.305 259.792V277.282C360.104 277.685 359.777 278.012 359.375 278.212V260.722C359.777 260.521 360.104 260.195 360.305 259.792Z" fill="#DAE8FD"/>
<path d="M281.062 276.804V259.287C281.09 259.598 281.2 259.895 281.383 260.148C281.566 260.4 281.813 260.599 282.099 260.722V278.213C281.815 278.094 281.569 277.9 281.386 277.652C281.203 277.404 281.092 277.111 281.062 276.804V276.804Z" fill="#C6D5FA"/>
<path d="M282.048 260.722V278.213C281.764 278.094 281.518 277.9 281.335 277.652C281.153 277.404 281.041 277.111 281.012 276.804V259.287C281.039 259.598 281.15 259.895 281.332 260.148C281.515 260.4 281.762 260.599 282.048 260.722V260.722Z" fill="#C6D5FA"/>
<path d="M359.371 260.723L359.424 278.239L323.327 299.212L323.273 281.695L359.371 260.723Z" fill="#DAE8FD"/>
<path d="M318.357 281.695L318.41 299.212L282.073 278.239L282.02 260.723L318.357 281.695Z" fill="#C6D5FA"/>
<path d="M323.271 281.774V299.291C322.502 299.696 321.642 299.897 320.772 299.876V282.359C321.643 282.393 322.506 282.191 323.271 281.774V281.774Z" fill="#D4E2FC"/>
<path d="M320.775 282.279V299.796C319.943 299.791 319.123 299.591 318.383 299.211V281.694C319.114 282.098 319.94 282.3 320.775 282.279V282.279Z" fill="#CDDCFB"/>
<path d="M359.372 257.851C359.663 257.958 359.914 258.152 360.092 258.407C360.269 258.661 360.364 258.963 360.364 259.274C360.364 259.584 360.269 259.886 360.092 260.141C359.914 260.395 359.663 260.589 359.372 260.696L323.274 281.774C322.519 282.166 321.68 282.37 320.829 282.37C319.978 282.37 319.139 282.166 318.383 281.774L282.047 260.802C281.756 260.695 281.504 260.501 281.327 260.247C281.149 259.993 281.054 259.69 281.054 259.38C281.054 259.07 281.149 258.767 281.327 258.513C281.504 258.259 281.756 258.065 282.047 257.958L318.144 236.986C318.903 236.59 319.747 236.383 320.603 236.383C321.459 236.383 322.303 236.59 323.062 236.986L359.372 257.851Z" fill="#98A4E0"/>
<path d="M359.053 276.884L323.859 297.218V283.609L359.053 263.274V276.884Z" fill="#3C6FF7"/>
<path d="M329.89 282.386L324.973 285.23V289.137L329.89 286.293V282.386Z" fill="#EFF6FE"/>
<path d="M347.465 276.139L358.151 269.973V266.092L347.465 272.259V276.139Z" fill="#30B8F1"/>
<path d="M331.911 285.124L345.096 277.495V273.614L331.911 281.216V285.124Z" fill="#EFF6FE"/>
<path d="M342.017 285.362L339.332 286.904V283.023L342.017 281.481V285.362Z" fill="#30B8F1"/>
<path d="M358.146 276.06L355.461 277.601V273.694L358.146 272.152V276.06Z" fill="#EFF6FE"/>
<path d="M353.605 274.783L343.663 280.525V284.405L353.605 278.664V274.783Z" fill="#EFF6FE"/>
<path d="M337.493 284.087L324.973 291.317V295.198L337.493 287.968V284.087Z" fill="#EFF6FE"/>
<path d="M359.343 237.996L322.926 217.024C322.167 216.628 321.324 216.421 320.468 216.421C319.611 216.421 318.768 216.628 318.009 217.024L281.991 237.996C281.714 238.121 281.474 238.317 281.297 238.564C281.119 238.812 281.01 239.102 280.981 239.405V256.895C281.008 257.205 281.119 257.503 281.301 257.755C281.484 258.008 281.731 258.207 282.018 258.33L318.354 279.302C318.523 279.407 318.701 279.496 318.886 279.568H319.099C319.231 279.583 319.365 279.583 319.497 279.568H319.737H320.109H321.438H321.837H322.102H322.501H322.714C322.899 279.496 323.076 279.407 323.245 279.302L359.343 258.33L359.635 258.144L359.821 257.985L359.981 257.772C359.995 257.711 359.995 257.647 359.981 257.586V257.586V257.294V239.803C360.072 239.473 360.06 239.123 359.946 238.799C359.832 238.476 359.621 238.196 359.343 237.996ZM281.087 239.857C281.087 239.857 281.114 239.91 281.087 239.883V239.857ZM281.087 239.67C281.071 239.682 281.053 239.691 281.034 239.697L281.087 239.67Z" fill="#DAE8FD"/>
<path d="M360.354 239.432V256.922C360.327 257.226 360.219 257.517 360.042 257.765C359.864 258.012 359.623 258.208 359.344 258.331V240.84C359.623 240.718 359.864 240.522 360.042 240.274C360.219 240.026 360.327 239.735 360.354 239.432V239.432Z" fill="#DAE8FD"/>
<path d="M360.352 239.432V256.922C360.377 257.08 360.377 257.242 360.352 257.4V239.884C360.38 239.734 360.38 239.581 360.352 239.432V239.432Z" fill="#DAE8FD"/>
<path d="M360.274 239.884V257.401C360.073 257.803 359.747 258.13 359.344 258.331V240.841C359.749 240.63 360.075 240.294 360.274 239.884V239.884Z" fill="#DAE8FD"/>
<path d="M281.032 256.894V239.404C281.064 239.713 281.177 240.008 281.359 240.26C281.541 240.512 281.785 240.712 282.068 240.84V258.33C281.782 258.206 281.535 258.008 281.352 257.755C281.17 257.502 281.059 257.205 281.032 256.894Z" fill="#C6D5FA"/>
<path d="M282.018 240.84V258.33C281.731 258.206 281.484 258.008 281.301 257.755C281.119 257.502 281.008 257.205 280.981 256.894V239.404C281.014 239.713 281.126 240.008 281.308 240.26C281.49 240.512 281.735 240.712 282.018 240.84V240.84Z" fill="#C6D5FA"/>
<path d="M359.34 240.84L359.393 258.33L323.296 279.329L323.243 261.812L359.34 240.84Z" fill="#DAE8FD"/>
<path d="M318.326 261.812L318.379 279.329L282.042 258.33L281.989 240.84L318.326 261.812Z" fill="#C6D5FA"/>
<path d="M323.24 261.812V279.303C322.475 279.719 321.612 279.921 320.742 279.887V262.397C321.611 262.418 322.471 262.217 323.24 261.812Z" fill="#D4E2FC"/>
<path d="M320.744 262.397V279.887C319.909 279.908 319.083 279.707 318.352 279.303V261.812C319.088 262.205 319.91 262.406 320.744 262.397V262.397Z" fill="#CDDCFB"/>
<path d="M359.341 237.996C359.632 238.103 359.883 238.297 360.061 238.551C360.238 238.805 360.333 239.108 360.333 239.418C360.333 239.728 360.238 240.031 360.061 240.285C359.883 240.539 359.632 240.733 359.341 240.84L323.243 261.812C322.484 262.193 321.647 262.392 320.798 262.392C319.949 262.392 319.111 262.193 318.352 261.812L282.015 240.84C280.66 240.043 280.633 238.767 282.015 237.996L318.113 217.024C318.872 216.628 319.716 216.421 320.572 216.421C321.428 216.421 322.271 216.628 323.031 217.024L359.341 237.996Z" fill="#ECF5FE"/>
<path d="M359.026 256.974L323.832 277.309V263.699L359.026 243.392V256.974Z" fill="#3C6FF7"/>
<path d="M329.871 262.503L324.953 265.347V269.228L329.871 266.384V262.503Z" fill="#EFF6FE"/>
<path d="M347.435 256.257L358.12 250.09V246.183L347.435 252.349V256.257Z" fill="#30B8F1"/>
<path d="M331.887 265.215L345.071 257.612V253.705L331.887 261.334V265.215Z" fill="#EFF6FE"/>
<path d="M341.989 265.481L339.305 267.022V263.142L341.989 261.573V265.481Z" fill="#30B8F1"/>
<path d="M358.123 256.15L355.438 257.719V253.811L358.123 252.27V256.15Z" fill="#EFF6FE"/>
<path d="M353.578 254.901L343.663 260.616V264.524L353.578 258.782V254.901Z" fill="#EFF6FE"/>
<path d="M337.473 264.178L324.953 271.434V275.315L337.473 268.085V264.178Z" fill="#EFF6FE"/>
<path d="M293.107 240.361C293.385 240.773 293.759 241.11 294.197 241.345L317.323 254.635C318.366 255.159 319.518 255.431 320.685 255.431C321.853 255.431 323.004 255.159 324.048 254.635L347.174 241.345C347.606 241.103 347.979 240.767 348.264 240.361C348.902 239.404 348.529 238.235 347.174 237.464L324.048 224.173C323.008 223.637 321.855 223.357 320.685 223.357C319.516 223.357 318.363 223.637 317.323 224.173L294.197 237.464C292.841 238.235 292.469 239.404 293.107 240.361Z" fill="#C6D5FA"/>
<path d="M293.106 240.361C293.384 240.773 293.758 241.11 294.196 241.345L317.322 254.635C318.365 255.159 319.517 255.431 320.684 255.431C321.852 255.431 323.003 255.159 324.047 254.635L347.172 241.345C347.605 241.103 347.978 240.767 348.262 240.361C347.976 239.964 347.603 239.637 347.172 239.404L324.047 226.114C323.007 225.578 321.854 225.298 320.684 225.298C319.514 225.298 318.361 225.578 317.322 226.114L294.196 239.404C293.76 239.629 293.386 239.958 293.106 240.361V240.361Z" fill="#30B8F1"/>
<path d="M314.956 342.91L278.619 321.938C277.86 321.557 277.023 321.358 276.174 321.358C275.325 321.358 274.487 321.557 273.728 321.938L237.631 342.91C237.348 343.035 237.104 343.235 236.926 343.488C236.748 343.74 236.643 344.037 236.621 344.346V344.346V361.836C236.645 362.143 236.752 362.439 236.93 362.691C237.107 362.944 237.349 363.144 237.631 363.271L273.967 384.243L274.499 384.509H274.712H275.11H275.35H275.748H277.077H277.45H277.715L278.114 384.376H278.327L278.885 384.11L314.956 363.271L315.222 363.085L315.408 362.926C315.47 362.852 315.524 362.772 315.567 362.686V362.686C315.576 362.625 315.576 362.562 315.567 362.5C315.579 362.448 315.579 362.393 315.567 362.341C315.567 362.341 315.567 362.181 315.567 362.128V344.611C315.624 344.299 315.597 343.977 315.49 343.679C315.382 343.38 315.198 343.115 314.956 342.91ZM236.727 344.797C236.727 344.797 236.727 344.851 236.727 344.824V344.797ZM236.727 344.611L236.647 344.638L236.727 344.611Z" fill="#DAE8FD"/>
<path d="M315.993 344.346V361.862C315.962 362.165 315.852 362.453 315.675 362.7C315.498 362.947 315.259 363.144 314.983 363.271V345.754C315.264 345.634 315.507 345.439 315.685 345.191C315.863 344.943 315.97 344.65 315.993 344.346V344.346Z" fill="#DAE8FD"/>
<path d="M315.992 344.346V361.862C316.017 362.021 316.017 362.182 315.992 362.341V344.824C316.017 344.666 316.017 344.504 315.992 344.346Z" fill="#DAE8FD"/>
<path d="M315.887 344.824V362.341C315.69 362.738 315.374 363.063 314.983 363.271V345.755C315.379 345.552 315.696 345.225 315.887 344.824V344.824Z" fill="#DAE8FD"/>
<path d="M236.671 361.836V344.346C236.695 344.65 236.802 344.943 236.98 345.191C237.158 345.439 237.401 345.634 237.681 345.754V363.271C237.4 363.144 237.158 362.944 236.981 362.691C236.803 362.439 236.696 362.144 236.671 361.836V361.836Z" fill="#C6D5FA"/>
<path d="M237.631 345.754V363.271C237.349 363.144 237.107 362.944 236.93 362.691C236.752 362.439 236.645 362.144 236.621 361.836V344.346C236.644 344.65 236.751 344.943 236.929 345.191C237.107 345.439 237.35 345.634 237.631 345.754V345.754Z" fill="#C6D5FA"/>
<path d="M314.957 345.781L315.01 363.271L278.913 384.244L278.859 366.753L314.957 345.781Z" fill="#DAE8FD"/>
<path d="M273.966 366.753L274.019 384.244L237.682 363.271L237.629 345.781L273.966 366.753Z" fill="#C6D5FA"/>
<path d="M278.884 366.834V384.324C278.109 384.741 277.237 384.943 276.358 384.909V367.419C277.28 367.458 278.196 367.256 279.017 366.834H278.884Z" fill="#D4E2FC"/>
<path d="M276.361 367.339V384.829C275.528 384.834 274.706 384.633 273.969 384.244V366.754C274.709 367.133 275.529 367.334 276.361 367.339V367.339Z" fill="#CDDCFB"/>
<path d="M314.958 342.911C316.313 343.708 316.34 344.984 314.958 345.755L278.887 366.833C278.123 367.213 277.281 367.41 276.428 367.41C275.575 367.41 274.733 367.213 273.969 366.833L237.633 345.834C237.341 345.727 237.09 345.534 236.913 345.279C236.735 345.025 236.64 344.722 236.64 344.412C236.64 344.102 236.735 343.8 236.913 343.545C237.09 343.291 237.341 343.097 237.633 342.99L273.73 322.018C274.489 321.637 275.326 321.438 276.176 321.438C277.025 321.438 277.862 321.637 278.621 322.018L314.958 342.911Z" fill="#98A4E0"/>
<path d="M314.636 361.915L279.442 382.249V368.64L314.636 348.306V361.915Z" fill="#3C6FF7"/>
<path d="M285.473 367.444L280.555 370.262V374.169L285.473 371.325V367.444Z" fill="#EFF6FE"/>
<path d="M303.043 361.172L313.729 355.005V351.124L303.043 357.291V361.172Z" fill="#30B8F1"/>
<path d="M287.5 370.155L300.684 362.553V358.646L287.5 366.274V370.155Z" fill="#EFF6FE"/>
<path d="M297.596 370.394L294.938 371.963V368.055L297.596 366.514V370.394Z" fill="#30B8F1"/>
<path d="M313.732 361.092L311.047 362.633V358.753L313.732 357.211V361.092Z" fill="#EFF6FE"/>
<path d="M309.188 359.815L299.273 365.557V369.438L309.188 363.723V359.815Z" fill="#EFF6FE"/>
<path d="M293.075 369.119L280.555 376.349V380.257L293.075 373.027V369.119Z" fill="#EFF6FE"/>
<path d="M314.956 323.133L278.619 302.161C277.863 301.77 277.025 301.565 276.174 301.565C275.323 301.565 274.484 301.77 273.728 302.161L237.631 323.133C237.352 323.256 237.11 323.452 236.933 323.7C236.755 323.947 236.647 324.238 236.621 324.542V324.542V342.059C236.644 342.364 236.751 342.656 236.929 342.904C237.107 343.153 237.35 343.347 237.631 343.468L273.967 364.467L274.499 364.706H274.712H275.11H275.35H275.748H277.077H277.45H277.715H278.114H278.327C278.518 364.637 278.704 364.558 278.885 364.467L314.983 343.468L315.248 343.282L315.434 343.122C315.434 343.122 315.567 342.989 315.594 342.91C315.608 342.848 315.608 342.785 315.594 342.724C315.605 342.671 315.605 342.617 315.594 342.564V342.564C315.594 342.564 315.594 342.431 315.594 342.351V324.861C315.655 324.542 315.628 324.213 315.516 323.909C315.403 323.604 315.21 323.336 314.956 323.133V323.133ZM236.727 324.994C236.727 324.994 236.727 325.074 236.727 325.047V324.994ZM236.727 324.782C236.697 324.793 236.669 324.811 236.647 324.835L236.727 324.782Z" fill="#DAE8FD"/>
<path d="M315.991 324.569V342.059C315.961 342.362 315.852 342.652 315.675 342.9C315.498 343.147 315.258 343.343 314.98 343.468V325.978C315.256 325.851 315.495 325.654 315.672 325.407C315.849 325.16 315.959 324.872 315.991 324.569Z" fill="#DAE8FD"/>
<path d="M315.989 324.569V342.059C316.014 342.218 316.014 342.379 315.989 342.538V325.048C316.014 324.889 316.014 324.728 315.989 324.569Z" fill="#DAE8FD"/>
<path d="M315.884 325.048V342.538C315.693 342.939 315.376 343.266 314.98 343.468V325.978C315.376 325.776 315.693 325.449 315.884 325.048V325.048Z" fill="#DAE8FD"/>
<path d="M236.671 342.059V324.542C236.693 324.85 236.799 325.147 236.977 325.4C237.155 325.653 237.399 325.853 237.681 325.977V343.468C237.401 343.347 237.158 343.152 236.98 342.904C236.802 342.656 236.695 342.363 236.671 342.059V342.059Z" fill="#C6D5FA"/>
<path d="M237.631 325.977V343.468C237.35 343.347 237.108 343.152 236.93 342.904C236.752 342.656 236.645 342.363 236.621 342.059V324.542C236.643 324.85 236.749 325.147 236.927 325.4C237.105 325.653 237.348 325.853 237.631 325.977V325.977Z" fill="#C6D5FA"/>
<path d="M314.957 325.978L315.01 343.494L278.913 364.467L278.859 346.95L314.957 325.978Z" fill="#DAE8FD"/>
<path d="M273.966 346.95L274.019 364.467L237.682 343.494L237.629 325.978L273.966 346.95Z" fill="#C6D5FA"/>
<path d="M278.884 346.95V364.467C278.103 364.867 277.235 365.068 276.358 365.052V347.535C277.282 347.594 278.203 347.391 279.017 346.95H278.884Z" fill="#D4E2FC"/>
<path d="M276.361 347.535V365.052C275.529 365.047 274.709 364.846 273.969 364.467V346.95C274.701 347.352 275.526 347.553 276.361 347.535V347.535Z" fill="#CDDCFB"/>
<path d="M314.954 323.133C315.245 323.24 315.496 323.434 315.673 323.689C315.851 323.943 315.946 324.245 315.946 324.556C315.946 324.866 315.851 325.168 315.673 325.423C315.496 325.677 315.245 325.871 314.954 325.978L278.856 346.95C278.097 347.346 277.253 347.553 276.397 347.553C275.541 347.553 274.698 347.346 273.939 346.95L237.602 325.978C237.311 325.871 237.059 325.677 236.882 325.423C236.705 325.168 236.609 324.866 236.609 324.556C236.609 324.245 236.705 323.943 236.882 323.689C237.059 323.434 237.311 323.24 237.602 323.133L273.699 302.161C274.455 301.77 275.294 301.565 276.145 301.565C276.996 301.565 277.835 301.77 278.59 302.161L314.954 323.133Z" fill="#98A4E0"/>
<path d="M314.636 342.14L279.442 362.447V348.838L314.636 328.53V342.14Z" fill="#3C6FF7"/>
<path d="M285.473 347.642L280.555 350.486V354.393L285.473 351.549V347.642Z" fill="#EFF6FE"/>
<path d="M303.043 341.395L313.729 335.229V331.321L303.043 337.488V341.395Z" fill="#30B8F1"/>
<path d="M287.5 350.38L300.684 342.751V338.87L287.5 346.472V350.38Z" fill="#EFF6FE"/>
<path d="M297.596 350.618L294.938 352.16V348.279L297.596 346.711V350.618Z" fill="#30B8F1"/>
<path d="M313.732 341.316L311.047 342.857V338.95L313.732 337.408V341.316Z" fill="#EFF6FE"/>
<path d="M309.188 340.039L299.273 345.754V349.661L309.188 343.92V340.039Z" fill="#EFF6FE"/>
<path d="M293.075 349.343L280.555 356.573V360.454L293.075 353.224V349.343Z" fill="#EFF6FE"/>
<path d="M314.956 303.331L278.619 282.359C277.86 281.978 277.023 281.779 276.174 281.779C275.325 281.779 274.487 281.978 273.728 282.359L237.631 303.331C237.348 303.456 237.104 303.656 236.926 303.908C236.748 304.161 236.643 304.458 236.621 304.766V304.766V322.257C236.643 322.565 236.748 322.862 236.926 323.115C237.104 323.368 237.348 323.567 237.631 323.692L273.967 344.664C274.136 344.769 274.314 344.858 274.499 344.93H274.712H275.11H275.35H275.748H277.077H277.45H277.715H278.114H278.327L278.885 344.664L314.956 323.692L315.222 323.506L315.408 323.346L315.594 323.134C315.603 323.072 315.603 323.009 315.594 322.948C315.6 322.904 315.6 322.859 315.594 322.815V322.815C315.594 322.815 315.594 322.815 315.594 322.602V305.085C315.654 304.763 315.627 304.43 315.515 304.121C315.403 303.812 315.21 303.54 314.956 303.331V303.331ZM236.727 305.218C236.727 305.218 236.7 305.271 236.7 305.245L236.727 305.218ZM236.727 305.032L236.621 305.059L236.727 305.032ZM237.019 305.404C237.019 305.404 236.807 305.458 236.78 305.431L237.019 305.404Z" fill="#DAE8FD"/>
<path d="M315.963 304.767V322.283C315.931 322.586 315.821 322.874 315.644 323.121C315.467 323.368 315.229 323.565 314.953 323.692V306.175C315.234 306.055 315.476 305.86 315.654 305.612C315.832 305.364 315.939 305.071 315.963 304.767V304.767Z" fill="#DAE8FD"/>
<path d="M315.961 304.767V322.283C315.986 322.442 315.986 322.603 315.961 322.762V305.245C315.986 305.087 315.986 304.925 315.961 304.767Z" fill="#DAE8FD"/>
<path d="M315.856 305.245V322.762C315.666 323.163 315.348 323.49 314.953 323.692V306.175C315.348 305.973 315.666 305.646 315.856 305.245Z" fill="#DAE8FD"/>
<path d="M236.641 322.257V304.767C236.664 305.071 236.771 305.364 236.949 305.612C237.127 305.86 237.37 306.055 237.651 306.175V323.692C237.368 323.567 237.124 323.368 236.946 323.115C236.768 322.862 236.663 322.565 236.641 322.257Z" fill="#C6D5FA"/>
<path d="M237.6 306.175V323.692C237.317 323.567 237.073 323.368 236.895 323.115C236.717 322.862 236.612 322.565 236.59 322.257V304.767C236.614 305.071 236.72 305.364 236.898 305.612C237.076 305.86 237.319 306.055 237.6 306.175V306.175Z" fill="#C6D5FA"/>
<path d="M314.926 306.202L314.979 323.692L278.882 344.665L278.829 327.174L314.926 306.202Z" fill="#DAE8FD"/>
<path d="M273.935 327.174L273.988 344.665L237.651 323.692L237.598 306.202L273.935 327.174Z" fill="#C6D5FA"/>
<path d="M278.853 327.174V344.664C278.079 345.081 277.207 345.283 276.328 345.249V327.759C277.205 327.775 278.072 327.574 278.853 327.174Z" fill="#D4E2FC"/>
<path d="M276.33 327.759V345.249C275.495 345.267 274.67 345.066 273.938 344.664V327.174C274.679 327.553 275.498 327.754 276.33 327.759Z" fill="#CDDCFB"/>
<path d="M314.954 303.331C316.309 304.129 316.336 305.404 314.954 306.175L278.856 327.174C278.092 327.553 277.25 327.751 276.397 327.751C275.544 327.751 274.703 327.553 273.939 327.174L237.602 306.175C237.311 306.068 237.059 305.875 236.882 305.62C236.705 305.366 236.609 305.063 236.609 304.753C236.609 304.443 236.705 304.14 236.882 303.886C237.059 303.632 237.311 303.438 237.602 303.331L273.699 282.359C274.458 281.978 275.296 281.779 276.145 281.779C276.994 281.779 277.831 281.978 278.59 282.359L314.954 303.331Z" fill="#98A4E0"/>
<path d="M314.608 322.337L279.414 342.671V329.062L314.608 308.728V322.337Z" fill="#3C6FF7"/>
<path d="M285.449 327.865L280.531 330.709V334.59L285.449 331.746V327.865Z" fill="#EFF6FE"/>
<path d="M303.023 321.592L313.709 315.426V311.545L303.023 317.712V321.592Z" fill="#30B8F1"/>
<path d="M287.469 330.577L300.68 322.975V319.067L287.469 326.696V330.577Z" fill="#EFF6FE"/>
<path d="M297.598 330.816L294.913 332.385V328.477L297.598 326.936V330.816Z" fill="#30B8F1"/>
<path d="M313.704 321.513L311.019 323.081V319.174L313.704 317.632V321.513Z" fill="#EFF6FE"/>
<path d="M309.157 320.236L299.242 325.978V329.859L309.157 324.144V320.236Z" fill="#EFF6FE"/>
<path d="M293.051 329.54L280.531 336.77V340.677L293.051 333.447V329.54Z" fill="#EFF6FE"/>
<path d="M314.956 283.555L278.619 262.583C277.863 262.192 277.025 261.987 276.174 261.987C275.323 261.987 274.484 262.192 273.728 262.583L237.631 283.555C237.352 283.678 237.11 283.874 236.933 284.121C236.755 284.369 236.647 284.66 236.621 284.964V284.964V302.481C236.644 302.786 236.751 303.078 236.929 303.326C237.107 303.574 237.35 303.769 237.631 303.89L273.967 324.889L274.499 325.128H274.712H275.11H275.35H275.748H277.077H277.45H277.715H278.114H278.327C278.518 325.059 278.704 324.979 278.885 324.889L314.982 303.89L315.248 303.704L315.434 303.544C315.502 303.485 315.556 303.413 315.594 303.331C315.608 303.27 315.608 303.207 315.594 303.145C315.605 303.093 315.605 303.038 315.594 302.986V302.986C315.594 302.986 315.594 302.826 315.594 302.747V285.257C315.65 284.942 315.62 284.618 315.508 284.318C315.396 284.019 315.205 283.756 314.956 283.555V283.555ZM236.727 285.416C236.727 285.416 236.727 285.496 236.727 285.469V285.416ZM236.727 285.203C236.697 285.215 236.669 285.233 236.647 285.257L236.727 285.203ZM237.418 286.134C237.418 286.134 237.365 286.213 237.338 286.187L237.418 286.134Z" fill="#DAE8FD"/>
<path d="M315.991 284.991V302.481C315.967 302.786 315.86 303.078 315.682 303.327C315.504 303.575 315.261 303.77 314.98 303.89V286.4C315.256 286.273 315.495 286.076 315.672 285.829C315.849 285.582 315.959 285.293 315.991 284.991Z" fill="#DAE8FD"/>
<path d="M315.989 284.991V302.481C316.014 302.64 316.014 302.801 315.989 302.96V285.47C316.014 285.311 316.014 285.15 315.989 284.991V284.991Z" fill="#DAE8FD"/>
<path d="M315.884 285.47V302.96C315.693 303.361 315.376 303.688 314.98 303.89V286.4C315.376 286.198 315.693 285.871 315.884 285.47V285.47Z" fill="#DAE8FD"/>
<path d="M236.671 302.481V284.964C236.693 285.272 236.799 285.569 236.977 285.822C237.155 286.075 237.399 286.274 237.681 286.399V303.889C237.401 303.769 237.158 303.574 236.98 303.326C236.802 303.078 236.695 302.785 236.671 302.481V302.481Z" fill="#C6D5FA"/>
<path d="M237.631 286.399V303.889C237.35 303.769 237.108 303.574 236.93 303.326C236.752 303.078 236.645 302.785 236.621 302.481V284.964C236.643 285.272 236.749 285.569 236.927 285.822C237.105 286.075 237.348 286.274 237.631 286.399V286.399Z" fill="#C6D5FA"/>
<path d="M314.957 286.399L315.01 303.916L278.913 324.888L278.859 307.372L314.957 286.399Z" fill="#DAE8FD"/>
<path d="M273.966 307.372L274.019 324.888L237.682 303.916L237.629 286.399L273.966 307.372Z" fill="#C6D5FA"/>
<path d="M278.884 307.372V324.889C278.103 325.289 277.235 325.49 276.358 325.474V307.957C277.282 308.016 278.203 307.813 279.017 307.372H278.884Z" fill="#D4E2FC"/>
<path d="M276.361 307.957V325.474C275.529 325.469 274.709 325.268 273.969 324.889V307.372C274.701 307.774 275.526 307.975 276.361 307.957V307.957Z" fill="#CDDCFB"/>
<path d="M314.954 283.555C316.309 284.353 316.336 285.602 314.954 286.4L278.856 307.372C278.097 307.768 277.253 307.975 276.397 307.975C275.541 307.975 274.698 307.768 273.939 307.372L237.602 286.4C237.311 286.293 237.059 286.099 236.882 285.845C236.705 285.59 236.609 285.288 236.609 284.977C236.609 284.667 236.705 284.365 236.882 284.11C237.059 283.856 237.311 283.662 237.602 283.555L273.699 262.583C274.455 262.192 275.294 261.987 276.145 261.987C276.996 261.987 277.835 262.192 278.59 262.583L314.954 283.555Z" fill="#ECF5FE"/>
<path d="M314.636 302.561L279.442 322.868V309.285L314.636 288.951V302.561Z" fill="#3C6FF7"/>
<path d="M285.473 308.062L280.555 310.907V314.814L285.473 311.97V308.062Z" fill="#EFF6FE"/>
<path d="M303.043 301.816L313.729 295.65V291.742L303.043 297.909V301.816Z" fill="#30B8F1"/>
<path d="M287.5 310.8L300.684 303.172V299.291L287.5 306.893V310.8Z" fill="#EFF6FE"/>
<path d="M297.596 311.04L294.938 312.582V308.701L297.596 307.133V311.04Z" fill="#30B8F1"/>
<path d="M313.732 301.736L311.047 303.278V299.371L313.732 297.829V301.736Z" fill="#EFF6FE"/>
<path d="M309.188 300.461L299.273 306.176V310.083L309.188 304.342V300.461Z" fill="#EFF6FE"/>
<path d="M293.075 309.764L280.555 316.994V320.874L293.075 313.644V309.764Z" fill="#EFF6FE"/>
<path d="M248.685 285.203C248.971 285.6 249.344 285.927 249.775 286.16L272.901 299.45C273.944 299.974 275.096 300.247 276.263 300.247C277.431 300.247 278.582 299.974 279.626 299.45L302.752 286.16C303.188 285.935 303.562 285.606 303.841 285.203C304.479 284.22 304.107 283.077 302.752 282.279L279.626 268.989C278.582 268.465 277.431 268.192 276.263 268.192C275.096 268.192 273.944 268.465 272.901 268.989L249.775 282.279C248.499 283.077 248.047 284.22 248.685 285.203Z" fill="#C6D5FA"/>
<path d="M248.687 285.203C248.973 285.6 249.346 285.927 249.777 286.16L272.903 299.45C273.946 299.974 275.098 300.247 276.265 300.247C277.433 300.247 278.584 299.974 279.628 299.45L302.754 286.16C303.19 285.935 303.564 285.606 303.843 285.203C303.558 284.798 303.186 284.462 302.754 284.22L279.628 270.929C278.584 270.406 277.433 270.133 276.265 270.133C275.098 270.133 273.946 270.406 272.903 270.929L249.777 284.22C249.35 284.47 248.979 284.804 248.687 285.203Z" fill="#30B8F1"/>
<path d="M492.894 218.22C495.071 223.165 496.133 228.528 496.004 233.929C495.793 243.925 493.55 253.774 489.412 262.875C485.211 272.505 479.414 281.357 472.267 289.058C467.823 293.876 462.701 298.022 457.062 301.364L281.439 402.77C270.541 409.07 260.36 411.116 251.934 409.442C247.712 408.585 243.761 406.714 240.423 403.992C237.084 401.269 234.457 397.776 232.768 393.812C229.83 387.117 228.396 379.858 228.569 372.548C228.845 359.053 231.876 345.756 237.473 333.474C243.139 320.489 250.958 308.555 260.599 298.175C266.608 291.753 273.51 286.229 281.093 281.774C284.175 279.988 287.403 278.467 290.742 277.229C291.851 263.726 295.258 250.511 300.817 238.155C307.33 223.17 316.316 209.387 327.398 197.38C334.346 189.831 342.361 183.339 351.189 178.109C363.762 170.826 375.511 168.461 385.239 170.401C390.107 171.395 394.662 173.554 398.513 176.692C402.365 179.831 405.399 183.856 407.355 188.423C410.066 194.464 411.651 200.95 412.033 207.561C415.108 204.826 418.447 202.404 422.001 200.331C431.331 195.015 439.944 193.739 446.669 196.158C449.737 197.343 452.483 199.233 454.686 201.676C456.888 204.119 458.485 207.045 459.348 210.219C465.212 206.91 472.014 205.657 478.673 206.657C481.803 207.287 484.733 208.669 487.21 210.684C489.688 212.698 491.638 215.284 492.894 218.22V218.22ZM484.919 253.891C486.432 249.045 487.22 244.002 487.259 238.926C487.582 232.949 485.689 227.062 481.942 222.393C480.286 220.564 478.213 219.16 475.9 218.299C473.587 217.439 471.101 217.147 468.652 217.449C464.462 217.954 460.429 219.35 456.823 221.542L456.105 221.968C453.979 223.19 452.224 222.606 451.772 220.559C451.342 217.569 450.133 214.746 448.267 212.371C446.401 209.997 443.943 208.154 441.14 207.029C435.824 205.169 429.231 206.072 421.948 210.272C417.324 213.014 413.147 216.448 409.561 220.453C409.056 221.021 408.464 221.505 407.807 221.888C407.098 222.345 406.253 222.543 405.415 222.446C404.165 222.207 403.448 221.037 403.474 219.283V217.981C403.474 205.541 400.125 195.918 394.463 189.592C391.589 186.434 387.997 184.014 383.99 182.538C379.983 181.062 375.679 180.573 371.444 181.113C364.248 181.962 357.32 184.356 351.135 188.13C339.649 195.077 329.699 204.294 321.896 215.216C313.575 226.474 307.212 239.055 303.076 252.429C300.47 260.751 299.108 269.413 299.036 278.133C299.02 280.04 298.417 281.897 297.308 283.449C296.621 284.471 295.713 285.325 294.65 285.948C294.259 286.172 293.838 286.342 293.401 286.453C288.997 287.549 284.779 289.286 280.881 291.609C271.281 297.495 262.978 305.273 256.479 314.469C249.417 323.989 244.024 334.64 240.53 345.967C238.337 352.991 237.19 360.299 237.128 367.657C237.128 378.156 239.945 386.263 244.73 391.58C247.147 394.257 250.178 396.307 253.563 397.553C256.948 398.798 260.585 399.202 264.161 398.73C270.234 398.018 276.082 396.005 281.306 392.829L456.929 291.423C463.613 287.379 469.394 282.005 473.915 275.634C478.839 269.07 482.614 261.718 485.079 253.891H484.919Z" fill="white"/>
<path d="M243.931 406.438L177.025 367.551C172.091 364.594 168.191 360.184 165.861 354.925C162.912 348.232 161.47 340.972 161.635 333.66C161.925 320.167 164.954 306.873 170.54 294.586C176.215 281.607 184.033 269.674 193.665 259.287C199.653 252.782 206.557 247.186 214.16 242.674C217.241 240.888 220.469 239.367 223.809 238.129L290.741 277.017C287.394 278.323 284.166 279.915 281.092 281.775C273.494 286.295 266.592 291.89 260.597 298.388C250.956 308.768 243.137 320.702 237.472 333.687C231.874 345.969 228.843 359.266 228.567 372.761C228.394 380.071 229.828 387.33 232.767 394.025C235.141 399.2 239.035 403.53 243.931 406.438Z" fill="#C6D5FA"/>
<path d="M327.555 134.969L394.461 173.856C391.595 172.21 388.479 171.042 385.237 170.401C375.508 168.46 363.759 170.826 351.186 178.109C342.403 183.315 334.425 189.771 327.502 197.274C316.42 209.281 307.434 223.064 300.921 238.049C295.362 250.405 291.955 263.619 290.846 277.123L223.808 238.235C224.916 224.732 228.323 211.517 233.882 199.161C240.396 184.176 249.382 170.393 260.464 158.386C267.38 150.875 275.359 144.418 284.148 139.222C296.721 131.938 308.47 129.573 318.199 131.513C321.489 132.131 324.653 133.299 327.555 134.969Z" fill="#CDDCFB"/>
<g style="mix-blend-mode:overlay">
<g style="mix-blend-mode:overlay" opacity="0.5">
<path d="M219.5 161.203L223.354 158.944V154.479L219.5 156.711V161.203Z" fill="#EFF6FE"/>
</g>
<g style="mix-blend-mode:overlay" opacity="0.4">
<path d="M351.661 125.931L355.542 123.698V119.206L351.661 121.439V125.931Z" fill="#EFF6FE"/>
</g>
<g style="mix-blend-mode:overlay" opacity="0.1">
<path d="M161.29 162.613L165.17 160.38V155.888L161.29 158.12V162.613Z" fill="#EFF6FE"/>
</g>
<g style="mix-blend-mode:overlay" opacity="0.5">
<path d="M159.348 225.077L163.229 222.845V218.353L159.348 220.585V225.077Z" fill="#EFF6FE"/>
</g>
<g style="mix-blend-mode:overlay" opacity="0.7">
<path d="M419.047 161.842L422.928 159.609V155.117L419.047 157.377V161.842Z" fill="#EFF6FE"/>
</g>
<g style="mix-blend-mode:overlay">
<path d="M142.973 346.791L146.854 344.558V340.093L142.973 342.326V346.791Z" fill="#EFF6FE"/>
</g>
<g style="mix-blend-mode:overlay" opacity="0.1">
<path d="M122 266.278L125.881 264.018V259.553L122 261.786V266.278Z" fill="#EFF6FE"/>
</g>
<g style="mix-blend-mode:overlay" opacity="0.5">
<path d="M283.273 123.725L287.154 121.466V117L283.273 119.233V123.725Z" fill="#EFF6FE"/>
</g>
<g style="mix-blend-mode:overlay">
<path d="M201.664 228.613L205.545 226.38V221.888L201.664 224.12V228.613Z" fill="#EFF6FE"/>
</g>
</g>
<path d="M200.655 305.99C196.776 307.967 193.005 310.15 189.358 312.529C188.304 313.002 187.29 313.562 186.328 314.203C185.367 315.003 184.695 316.095 184.414 317.313C184.414 318.722 187.072 319.759 188.215 319.971C189.668 320.421 191.205 320.53 192.707 320.29C194.099 320.038 195.348 319.281 196.216 318.164C197.001 317.04 198.051 316.127 199.273 315.506C200.469 315.08 201.931 315.267 202.888 314.389C203.332 313.897 203.627 313.288 203.739 312.635C204.031 311.439 203.978 310.163 204.27 308.993C204.591 308.14 204.788 307.245 204.855 306.335C204.778 305.936 204.586 305.567 204.303 305.274C204.019 304.982 203.657 304.778 203.26 304.687C202.86 304.58 202.443 304.553 202.032 304.608C201.622 304.662 201.226 304.798 200.868 305.006L200.655 305.99Z" fill="#10191B"/>
<path d="M228.459 241.637C230.214 237.544 231.862 232.174 234.174 225.476C234.794 223.651 235.125 221.741 235.158 219.814C235.129 217.943 234.616 216.112 233.669 214.498C233.512 214.075 233.264 213.691 232.943 213.374C232.621 213.057 232.234 212.815 231.809 212.664C231.4 212.633 230.988 212.685 230.6 212.818C230.212 212.95 229.854 213.16 229.549 213.435C225.81 216.63 223.37 221.083 222.691 225.954C222.131 230.515 221.811 235.102 221.734 239.697C221.734 240.521 222.027 247.671 224.711 246.448C226.473 245.319 227.796 243.621 228.459 241.637Z" fill="#1499FC"/>
<path d="M227.581 237.544C226.65 236.827 223.275 235.365 222.69 236.242C221.323 238.899 219.814 241.481 218.171 243.977C220.612 245.735 222.89 247.71 224.976 249.878C227.793 246.475 230.292 242.701 230.292 240.335C230.265 239.245 228.803 238.501 227.581 237.544Z" fill="#1499FC"/>
<path d="M217.425 314.362C214.127 317.127 210.978 320.064 207.989 323.16C207.114 323.99 206.297 324.878 205.543 325.818C204.784 326.616 204.348 327.668 204.32 328.769C204.533 330.151 207.457 330.523 208.573 330.603C210.07 330.736 211.576 330.499 212.959 329.912C214.258 329.391 215.299 328.378 215.857 327.094C216.371 325.845 217.183 324.741 218.222 323.878C219.286 323.187 220.881 323.054 221.465 321.991C221.767 321.409 221.914 320.759 221.891 320.103C221.891 318.907 221.572 317.685 221.598 316.488C221.738 315.608 221.738 314.711 221.598 313.83C221.433 313.466 221.168 313.155 220.835 312.934C220.501 312.713 220.111 312.59 219.711 312.581C218.887 312.58 218.092 312.883 217.478 313.432L217.425 314.362Z" fill="#10191B"/>
<path d="M251.849 248.867C251.637 250.401 251.504 251.945 251.45 253.492C251.53 251.977 251.663 250.409 251.849 248.867Z" fill="#F3A984"/>
<path d="M251.45 253.519C251.45 254.475 251.45 255.432 251.45 256.363C251.423 255.406 251.423 254.475 251.45 253.519Z" fill="#F3A984"/>
<path d="M197.359 271.78C195.099 273.242 192.548 283.077 201.266 283.449C205.785 283.635 209.879 281.11 213.919 279.116C219.501 276.458 225.482 274.571 231.117 271.992C232.867 271.24 234.519 270.276 236.035 269.122C237.837 267.648 239.251 265.757 240.154 263.612C241.058 261.467 241.423 259.133 241.218 256.815C241.173 256.168 241.001 255.536 240.713 254.954C239.198 252.296 229.655 253.147 227.422 254.237C219.262 258.303 199.671 270.238 197.359 271.78Z" fill="#242A31"/>
<path d="M194.675 278.771C194.675 281.163 195.047 283.529 195.393 285.948C195.738 288.366 196.217 291.264 196.349 293.922C196.482 296.58 196.349 299.716 196.349 302.587C196.293 304.371 196.444 306.155 196.801 307.903C196.925 308.776 197.382 309.567 198.077 310.109C198.977 310.653 199.983 310.997 201.028 311.12C201.728 311.28 202.455 311.28 203.154 311.12C205.44 310.375 205.547 307.186 205.999 305.219C206.419 303.393 206.747 301.548 206.982 299.69C207.46 296.075 207.62 292.407 207.833 288.739C207.833 286.32 208.072 283.874 207.992 281.455C208.085 279.231 207.676 277.014 206.796 274.97C206.229 273.997 205.461 273.155 204.545 272.5C203.629 271.844 202.584 271.391 201.48 271.169C200.348 270.913 199.165 271.035 198.109 271.515C197.053 271.994 196.183 272.806 195.632 273.827C194.952 275.136 194.648 276.608 194.755 278.08C194.648 278.266 194.675 278.505 194.675 278.771Z" fill="#242A31"/>
<path d="M212.272 280.206C210.225 281.88 208.444 292.247 216.737 292.007C221.017 292.007 224.712 289.004 228.433 286.691C240.342 279.196 255.014 276.564 252.888 261.705C252.675 260.35 252.303 254.555 251.266 253.891C250.23 253.226 246.216 254.927 245.259 255.087C236.009 256.628 234.786 256.682 233.271 257.745C233.005 264.682 231.889 265.905 227.955 268.191C226.333 269.175 213.787 278.93 212.272 280.206Z" fill="#37404A"/>
<path d="M210.46 287.09C210.74 289.475 211.139 291.843 211.656 294.187C212.214 296.845 212.826 299.504 213.145 302.162C213.464 304.82 213.464 307.93 213.703 310.8C213.767 312.599 214.044 314.383 214.527 316.117C214.704 316.974 215.21 317.727 215.936 318.216C216.878 318.694 217.911 318.966 218.966 319.014C219.677 319.087 220.396 318.996 221.066 318.748C223.299 317.871 223.166 314.655 223.512 312.661C223.857 310.667 223.99 308.966 224.123 307.106C224.336 303.438 224.123 299.769 224.123 296.101C224.123 293.682 224.123 291.237 223.777 288.818C223.732 286.596 223.177 284.413 222.156 282.439C221.514 281.527 220.687 280.761 219.73 280.188C218.774 279.616 217.707 279.251 216.6 279.116C215.458 278.933 214.288 279.127 213.266 279.669C212.244 280.211 211.427 281.071 210.939 282.12C210.359 283.476 210.157 284.964 210.354 286.426L210.46 287.09Z" fill="#37404A"/>
<path d="M251.851 218.964C247.6 216.412 243.046 214.402 238.295 212.983C230.772 210.644 229.736 213.355 227.662 219.363C225.642 224.918 226.227 234.115 227.131 240.042C227.608 243.177 227.901 246.336 228.008 249.505C227.973 250.672 227.858 251.836 227.662 252.987C227.515 253.482 227.515 254.008 227.662 254.502C227.901 255.087 228.805 255.725 229.284 256.124C231.65 258.027 234.547 259.15 237.577 259.34C241.883 259.562 246.193 258.976 250.283 257.612C251.145 257.404 251.93 256.952 252.542 256.31C252.958 255.654 253.204 254.905 253.26 254.13C253.614 251.656 253.81 249.161 253.845 246.661C253.845 245.545 253.845 244.428 253.845 243.312C254.012 241.674 254.287 240.049 254.669 238.448C255.174 236.241 255.652 234.035 256.184 231.829C256.423 230.739 256.689 229.623 256.955 228.533C257.228 227.781 257.389 226.993 257.433 226.194C257.247 222.924 254.35 220.638 251.851 218.964Z" fill="#04A3E5"/>
<path d="M242.043 235.577C240.448 243.419 238.827 251.526 231.224 255.38C230.647 255.694 230.088 256.04 229.55 256.417C231.869 258.142 234.639 259.158 237.524 259.341C241.83 259.562 246.14 258.976 250.23 257.613C251.093 257.404 251.877 256.952 252.49 256.31C252.905 255.654 253.152 254.905 253.207 254.131C253.562 251.656 253.757 249.161 253.792 246.661C253.792 245.545 253.792 244.429 253.792 243.312C253.959 241.674 254.234 240.049 254.616 238.448C255.121 236.242 255.6 234.036 256.131 231.829C256.37 230.74 256.636 229.623 256.902 228.533C257.175 227.781 257.337 226.993 257.38 226.194C257.353 225.745 257.282 225.3 257.168 224.865C255.892 225.397 254.51 225.875 253.314 226.354C248.742 228.214 242.973 230.74 242.043 235.577Z" fill="#1499FC"/>
<path d="M256.023 251.552C257.325 247.325 258.415 241.797 259.983 234.886C260.435 233.007 260.57 231.067 260.382 229.144C260.164 227.284 259.457 225.514 258.335 224.014C258.137 223.608 257.85 223.252 257.495 222.972C257.141 222.691 256.729 222.493 256.288 222.393C255.882 222.399 255.483 222.493 255.116 222.667C254.749 222.841 254.424 223.092 254.162 223.403C250.793 226.925 248.826 231.557 248.633 236.427C248.261 240.786 247.277 245.066 246.958 249.425C246.858 250.308 246.858 251.2 246.958 252.083C247.463 256.07 250.334 258.223 252.886 256.735C254.473 255.399 255.575 253.577 256.023 251.552V251.552Z" fill="#30B8F1"/>
<path d="M238.084 253.041L235.585 255.194C234.442 253.413 234.415 253.28 233.352 251.499C233.044 241.2 234.036 230.903 236.303 220.852L238.775 222.579C237.205 232.659 236.973 242.901 238.084 253.041V253.041Z" fill="#37404A"/>
<path d="M235.21 220.638C235.196 220.69 235.196 220.745 235.21 220.797C235.279 221.116 235.377 221.427 235.503 221.728C235.734 222.332 236.01 222.918 236.327 223.482C236.486 223.797 236.736 224.056 237.044 224.226C237.234 224.294 237.436 224.314 237.635 224.287C237.834 224.259 238.024 224.183 238.187 224.067C238.586 223.854 239.304 223.535 239.224 223.03C239.125 222.598 239 222.172 238.852 221.754C238.621 220.826 238.11 219.991 237.39 219.362C236.513 218.777 235.901 219.655 235.45 220.292C235.341 220.385 235.259 220.504 235.21 220.638V220.638Z" fill="#283032"/>
<path d="M246.322 216.332C246.322 214.206 244.807 213.674 245.232 209.581C245.232 208.225 246.88 206.285 243.026 206.338C241.964 206.382 240.915 206.588 239.916 206.949C236.327 208.119 235.822 209.023 235.583 216.465C238.64 216.173 241.351 212.797 244.488 214.791C245.263 215.403 245.875 216.197 246.269 217.103C246.301 216.847 246.318 216.59 246.322 216.332V216.332Z" fill="#EE9C76"/>
<path d="M244.489 214.791C241.353 212.797 238.641 216.173 235.584 216.465V216.784C235.425 222.1 245.499 222.1 246.217 217.103C245.838 216.203 245.245 215.409 244.489 214.791Z" fill="#F5A783"/>
<path d="M237.387 219.974C237.201 220.611 236.351 220.824 235.819 221.196C235.287 221.568 235.154 221.648 234.835 221.595C234.516 221.542 234.304 221.09 234.197 220.851C233.412 218.925 232.988 216.87 232.948 214.79C232.917 214.459 232.955 214.125 233.06 213.809C233.166 213.493 233.336 213.203 233.56 212.956C233.814 212.753 234.118 212.621 234.441 212.575C234.763 212.528 235.092 212.568 235.394 212.69C235.978 212.956 236.138 214.152 235.925 214.711C235.595 215.631 235.558 216.632 235.82 217.574C236.082 218.517 236.629 219.355 237.387 219.974V219.974Z" fill="white"/>
<path d="M237.308 220C237.905 220.97 238.619 221.863 239.435 222.658C239.727 222.924 239.966 223.243 240.365 223.11C243.169 221.815 245.507 219.69 247.064 217.023C247.14 216.604 247.115 216.173 246.99 215.766C246.865 215.359 246.644 214.988 246.346 214.684C246.346 214.684 245.655 213.754 245.548 213.674C245.249 214.597 244.857 215.487 244.379 216.332C243.512 217.393 242.438 218.266 241.222 218.897C240.007 219.527 238.674 219.903 237.308 220Z" fill="white"/>
<path d="M231.755 197.752C230.974 198.994 230.559 200.431 230.559 201.899C230.556 202.552 230.673 203.201 230.905 203.812C231.182 204.364 231.37 204.956 231.463 205.567C231.321 206.354 231.061 207.116 230.692 207.826C230.467 208.463 230.467 209.157 230.692 209.793C230.861 210.133 231.066 210.454 231.304 210.75C232.26 212.292 231.304 214.551 233.058 215.667C233.499 215.902 233.993 216.021 234.493 216.013C236.065 215.796 237.602 215.376 239.065 214.764C240.328 214.012 241.437 213.029 242.335 211.866C243.199 211.074 243.966 210.181 244.621 209.208C244.754 208.916 244.408 208.863 244.621 208.73C244.833 208.597 244.993 207.507 245.206 207.481C245.418 207.454 245.737 207.215 245.95 207.082C246.163 206.949 246.508 207.746 246.641 207.295C247.314 205.452 247.69 203.514 247.757 201.553C247.928 199.834 247.506 198.108 246.561 196.662C245.679 195.472 244.482 194.552 243.106 194.004C240.999 193.26 238.7 193.26 236.593 194.004C234.606 194.676 232.902 195.996 231.755 197.752V197.752Z" fill="#FFBFA2"/>
<path d="M247.786 201.474C247.956 199.755 247.534 198.029 246.59 196.583C245.707 195.393 244.51 194.473 243.134 193.925C241.885 193.466 240.555 193.267 239.227 193.34C237.26 197.274 240.13 202.324 237.977 206.418C237.26 207.375 235.798 208.092 235.798 209.288C235.319 211.441 237.472 213.355 236.303 215.508C237.206 215.271 238.094 214.978 238.961 214.631C240.223 213.88 241.333 212.897 242.23 211.734C243.094 210.941 243.862 210.049 244.516 209.076C244.649 208.783 244.304 208.73 244.516 208.597C244.729 208.464 244.888 207.375 245.101 207.348C245.314 207.321 245.633 207.082 245.845 206.949C246.058 206.816 246.404 207.614 246.537 207.162C247.249 205.343 247.671 203.424 247.786 201.474Z" fill="#F8B495"/>
<path d="M249.059 201.182C249.278 199.893 249.045 198.568 248.401 197.43C247.757 196.293 246.741 195.412 245.524 194.935C244.866 194.028 243.975 193.315 242.946 192.871C241.917 192.427 240.788 192.268 239.676 192.41C237.437 192.528 235.266 193.224 233.376 194.43H233.164C232.209 194.986 231.392 195.749 230.771 196.663C229.15 199.162 231.33 201.182 233.988 200.756C235.208 200.475 236.4 200.084 237.55 199.587C238.382 199.192 239.334 199.135 240.208 199.427C240.599 199.633 240.932 199.932 241.178 200.299C241.424 200.666 241.575 201.088 241.617 201.527C241.634 203.423 241.491 205.317 241.191 207.189C241.111 207.458 241.111 207.744 241.191 208.013C241.59 208.677 242.281 208.305 242.68 208.013C243.079 207.721 243.158 207.428 243.398 207.162C243.63 206.86 243.958 206.645 244.328 206.551C244.461 206.532 244.597 206.541 244.727 206.578C244.857 206.614 244.977 206.676 245.082 206.761C245.187 206.845 245.273 206.951 245.335 207.07C245.398 207.19 245.435 207.32 245.444 207.455C245.521 207.946 245.475 208.448 245.311 208.917C245.311 208.917 245.046 209.9 245.311 209.9C246.528 208.803 247.493 207.456 248.14 205.951C248.787 204.446 249.101 202.819 249.059 201.182V201.182Z" fill="#37404A"/>
<path d="M238.613 199.374C239.099 199.232 239.616 199.232 240.102 199.374C240.493 199.579 240.826 199.879 241.072 200.246C241.318 200.612 241.469 201.034 241.511 201.474C241.528 203.37 241.386 205.264 241.085 207.136C241.005 207.404 241.005 207.691 241.085 207.96C241.484 208.624 242.175 208.252 242.574 207.96C242.973 207.667 243.052 207.375 243.292 207.109C243.524 206.807 243.852 206.591 244.222 206.498C244.355 206.479 244.491 206.488 244.621 206.524C244.751 206.56 244.872 206.623 244.976 206.707C245.081 206.792 245.167 206.897 245.229 207.017C245.292 207.136 245.329 207.267 245.338 207.401C245.415 207.892 245.369 208.394 245.205 208.863C245.205 208.863 244.94 209.847 245.205 209.847C246.403 208.74 247.348 207.389 247.977 205.885C248.605 204.38 248.902 202.758 248.847 201.128C249.065 199.839 248.833 198.515 248.189 197.377C247.545 196.239 246.529 195.358 245.312 194.882C244.072 195.171 242.899 195.694 241.856 196.424C240.673 197.289 239.586 198.278 238.613 199.374V199.374Z" fill="#242A31"/>
<path d="M245.6 208.863C245.515 209.107 245.375 209.327 245.19 209.508C245.006 209.688 244.783 209.823 244.538 209.903C244.293 209.983 244.033 210.006 243.778 209.969C243.523 209.932 243.279 209.836 243.067 209.69C242.855 209.543 242.68 209.35 242.554 209.125C242.429 208.899 242.358 208.648 242.346 208.391C242.333 208.133 242.381 207.876 242.484 207.64C242.588 207.404 242.744 207.195 242.941 207.029C243.686 206.019 244.829 205.594 245.6 206.099C246.37 206.604 246.317 207.853 245.6 208.863Z" fill="#FFBFA2"/>
<path d="M244.94 207.189C245.044 207.317 245.1 207.476 245.1 207.641C245.1 207.805 245.044 207.965 244.94 208.093C244.648 208.385 244.116 208.412 243.957 208.784C243.797 209.156 243.957 209.129 243.744 209.183C243.531 209.236 243.425 209.183 243.398 208.943C243.419 208.774 243.494 208.615 243.611 208.491C243.737 208.382 243.837 208.246 243.903 208.093C243.93 207.925 243.93 207.755 243.903 207.588C243.867 207.454 243.882 207.312 243.944 207.189C244.007 207.065 244.113 206.97 244.242 206.92C244.371 206.87 244.514 206.87 244.643 206.92C244.772 206.97 244.878 207.066 244.94 207.189V207.189Z" fill="#F3A984"/>
<path d="M193.902 266.702V269.227L223.168 286.239V283.687L193.902 266.702Z" fill="#10191B"/>
<path d="M223.171 283.688V286.239L241.326 275.74V273.215L223.171 283.688Z" fill="#242A31"/>
<path d="M193.902 266.703L223.168 283.688L241.324 273.215L212.057 256.203L193.902 266.703Z" fill="#37404A"/>
<path d="M216.734 265.081L224.682 269.653L229.042 267.154L221.067 262.582L216.734 265.081Z" fill="#0D1315"/>
<path d="M233.348 276.032L206.634 260.509L197.091 266.011L223.805 281.561L233.348 276.032Z" fill="#0D1315"/>
<path d="M215.064 260.111C214.648 260.857 214.158 261.561 213.602 262.21C213.23 262.583 213.469 261.014 212.938 261.041C212.406 261.067 211.263 261.599 210.652 261.041C210.149 260.632 209.702 260.158 209.323 259.632C208.934 259.112 208.737 258.473 208.764 257.825C208.765 257.57 208.839 257.321 208.977 257.107C209.078 256.97 209.194 256.846 209.323 256.735L211.476 254.821C211.633 254.682 211.802 254.558 211.981 254.449C212.239 254.326 212.519 254.254 212.805 254.236C213.306 254.225 213.804 254.324 214.264 254.526C214.723 254.728 215.132 255.028 215.463 255.406C215.832 255.768 216.106 256.215 216.26 256.708C216.254 257.136 216.144 257.555 215.941 257.931C215.696 258.676 215.403 259.404 215.064 260.111Z" fill="#F8B495"/>
<path d="M215.992 258.17L216.151 261.333C216.218 261.729 216.218 262.134 216.151 262.53C216.151 262.849 215.939 263.114 215.832 263.433C215.726 263.752 215.673 263.965 215.54 264.231C215.114 264.993 214.465 265.605 213.679 265.985C213.388 266.188 213.064 266.341 212.722 266.437C212.51 266.437 212.217 266.437 212.137 266.198C212.11 266.093 212.11 265.983 212.137 265.879C212.175 265.574 212.284 265.282 212.456 265.028C212.669 264.709 213.041 264.55 213.28 264.284C213.47 264.022 213.591 263.717 213.633 263.397C213.674 263.077 213.636 262.751 213.52 262.45C213.277 261.851 213.002 261.265 212.696 260.696C212.558 260.4 212.486 260.078 212.486 259.752C212.486 259.426 212.558 259.104 212.696 258.808C212.796 258.607 212.921 258.42 213.068 258.25C213.414 257.842 213.839 257.508 214.317 257.267C214.748 257.121 215.215 257.121 215.646 257.267C215.965 257.293 215.992 257.851 215.992 258.17Z" fill="#F8B495"/>
<path d="M211.126 259.473C211.711 259.207 212.934 260.483 213.04 260.829C213.279 261.653 212.429 260.829 211.365 262.636C211.02 263.101 210.759 263.623 210.595 264.178C210.595 264.577 210.595 265.082 210.063 265.268C209.91 265.314 209.745 265.308 209.596 265.25C209.447 265.192 209.321 265.086 209.239 264.949C209.239 265.533 208.282 264.949 208.096 264.47C207.75 263.327 206.9 264.47 206.767 262.37L206.448 262.53C205.092 261.413 207.883 258.224 209.106 256.974C211.286 254.768 211.738 258.224 211.126 259.473Z" fill="#F8B495"/>
<path d="M224.979 249.691C222.932 247.591 221.736 243.79 219.29 242.089C216.578 245.818 214.136 249.735 211.981 253.811C210.891 256.23 215.542 258.489 216.685 257.24C219.58 254.87 222.348 252.351 224.979 249.691Z" fill="#1499FC"/>
<path d="M229.096 269.122C228.278 269.62 227.512 270.199 226.81 270.85C226.411 271.275 228.139 270.85 228.139 271.514C228.139 272.179 227.607 273.428 228.139 274.172C228.598 274.725 229.136 275.209 229.734 275.608C230.331 276.024 231.054 276.221 231.78 276.166C232.065 276.147 232.339 276.055 232.578 275.9C232.724 275.771 232.857 275.629 232.977 275.475L234.997 273.003C235.205 272.817 235.369 272.587 235.474 272.329C235.58 272.071 235.626 271.793 235.608 271.514C235.601 270.964 235.474 270.422 235.235 269.926C234.996 269.43 234.652 268.992 234.226 268.644C233.805 268.246 233.294 267.954 232.737 267.793C232.286 267.793 231.807 268.059 231.382 268.192C230.956 268.325 229.893 268.723 229.096 269.122Z" fill="#FFBFA2"/>
<path d="M231.221 268.005H227.712C227.261 267.951 226.806 267.951 226.356 268.005C226.011 268.005 225.718 268.271 225.373 268.404C225.074 268.503 224.781 268.618 224.495 268.749C223.662 269.259 223.004 270.01 222.608 270.902C222.393 271.235 222.24 271.605 222.156 271.992C222.156 272.232 222.156 272.55 222.422 272.63C222.536 272.656 222.654 272.656 222.768 272.63C223.11 272.579 223.437 272.451 223.725 272.258C224.012 271.958 224.279 271.638 224.522 271.301C224.806 271.076 225.143 270.926 225.501 270.865C225.859 270.805 226.226 270.836 226.569 270.956C227.26 271.168 227.871 271.567 228.536 271.806C228.867 271.949 229.225 272.022 229.586 272.022C229.947 272.022 230.304 271.949 230.636 271.806C230.866 271.696 231.074 271.542 231.247 271.354C231.695 270.97 232.05 270.488 232.284 269.946C232.456 269.464 232.456 268.938 232.284 268.457C232.204 268.005 231.726 268.005 231.221 268.005Z" fill="#FFBFA2"/>
<path d="M234.893 271.434C235.64 271.476 236.389 271.366 237.092 271.11C237.796 270.854 238.44 270.458 238.986 269.946C241.644 267.899 255.068 256.842 255.945 251.712C256.184 250.409 254.722 249.718 253.553 248.681C252.492 248.426 251.391 248.391 250.317 248.579C249.242 248.766 248.218 249.172 247.306 249.771C246.03 251.286 236.222 261.227 232.846 266.198C232.343 266.821 232.037 267.58 231.969 268.378C231.995 269.627 233.776 271.142 234.893 271.434Z" fill="#30B8F1"/>
<path d="M229.89 273.481C230.182 272.817 228.693 271.514 228.321 271.408C227.391 271.169 228.188 272.099 226.381 273.348C225.882 273.748 225.314 274.054 224.706 274.252C224.254 274.252 223.67 274.438 223.51 274.89C223.458 275.06 223.467 275.243 223.535 275.408C223.602 275.573 223.725 275.709 223.882 275.794C223.244 275.794 223.882 276.883 224.467 277.043C225.743 277.388 224.627 278.372 226.833 278.452L226.7 278.824C227.976 280.259 231.405 277.043 232.76 275.634C235.206 273.189 231.325 272.763 229.89 273.481Z" fill="#FFBFA2"/>
<path d="M189.708 249.186L187.528 250.462C187.617 250.41 187.718 250.383 187.821 250.383C187.923 250.383 188.024 250.41 188.113 250.462L190.293 249.212C190.205 249.159 190.106 249.129 190.004 249.125C189.902 249.12 189.8 249.141 189.708 249.186V249.186Z" fill="#37404A"/>
<path d="M188.107 250.515L190.287 249.266C190.208 249.246 190.126 249.246 190.048 249.266L187.841 250.542H188.107V250.515Z" fill="#37404A"/>
<path d="M187.848 250.435L190.054 249.159C189.942 249.119 189.82 249.119 189.708 249.159L187.529 250.435C187.632 250.396 187.745 250.396 187.848 250.435V250.435Z" fill="#37404A"/>
<path d="M187.524 250.461L189.704 249.186L189.677 249.212L187.498 250.488L187.524 250.461Z" fill="#37404A"/>
<path d="M215.697 266.57L217.877 265.294L190.285 249.266L188.079 250.542L215.697 266.57Z" fill="#37404A"/>
<path d="M216.603 268.005L218.782 266.729C218.766 266.439 218.681 266.157 218.532 265.908C218.384 265.658 218.178 265.447 217.932 265.294L215.752 266.57C215.999 266.723 216.205 266.934 216.353 267.183C216.501 267.433 216.587 267.715 216.603 268.005V268.005Z" fill="#37404A"/>
<path d="M216.098 266.915L218.305 265.666C218.19 265.514 218.045 265.387 217.879 265.294L215.7 266.57C215.856 266.655 215.992 266.773 216.098 266.915V266.915Z" fill="#37404A"/>
<path d="M216.387 267.394L218.566 266.118C218.504 265.953 218.414 265.801 218.3 265.666L216.094 266.915C216.216 267.058 216.315 267.22 216.387 267.394V267.394Z" fill="#37404A"/>
<path d="M188.109 250.515C187.658 250.249 187.285 250.515 187.259 250.993L193.904 266.676L223.144 283.687L216.605 267.978C216.479 267.403 216.136 266.898 215.648 266.569L188.109 250.515Z" fill="#10191B"/>
<path d="M223.17 283.688L225.35 282.439L218.571 266.118L216.392 267.394L223.17 283.688Z" fill="#242A31"/>
</g>
<defs>
<clipPath id="clip0_2245_5458">
<rect width="374" height="293" fill="white" transform="translate(122 117)"/>
</clipPath>
</defs>
</svg>
