<svg width="62" height="62" viewBox="0 0 62 62" fill="none" xmlns="http://www.w3.org/2000/svg">
<path d="M45.3534 53.7158C44.9437 53.7172 44.5378 53.6371 44.1594 53.4804C43.7809 53.3236 43.4373 53.0932 43.1485 52.8026L40.6472 50.3019C40.5272 50.182 40.4321 50.0396 40.3672 49.8829C40.3023 49.7262 40.2689 49.5583 40.2689 49.3887C40.2689 49.2191 40.3023 49.0511 40.3672 48.8944C40.4321 48.7377 40.5272 48.5954 40.6472 48.4754C40.7671 48.3555 40.9095 48.2604 41.0662 48.1955C41.2229 48.1306 41.3908 48.0972 41.5604 48.0972C41.73 48.0972 41.898 48.1306 42.0547 48.1955C42.2114 48.2604 42.3537 48.3555 42.4737 48.4754L44.975 50.9761C45.0162 51.039 45.0723 51.0906 45.1384 51.1263C45.2045 51.162 45.2785 51.1807 45.3536 51.1806C45.4287 51.1805 45.5027 51.1617 45.5687 51.1259C45.6347 51.0901 45.6908 51.0384 45.7318 50.9755L50.9767 45.7312C51.0767 45.6307 51.1328 45.4946 51.1328 45.3528C51.1328 45.211 51.0767 45.075 50.9767 44.9744L49.4315 43.4298C48.9698 42.959 48.667 42.3555 48.5654 41.704C48.4638 41.0524 48.5686 40.3854 48.8651 39.7964C49.2447 39.0256 49.573 38.2307 49.8478 37.4167C50.0536 36.7895 50.4509 36.2425 50.9838 35.8528C51.5166 35.4631 52.1582 35.2501 52.8184 35.244H55.0069C55.1487 35.2439 55.2847 35.1875 55.385 35.0872C55.4852 34.9869 55.5416 34.8509 55.5417 34.7091V27.2909C55.5416 27.1491 55.4852 27.0131 55.3849 26.9128C55.2847 26.8125 55.1487 26.7561 55.0068 26.756H52.8183C52.1584 26.7499 51.5171 26.5372 50.9843 26.1479C50.4515 25.7585 50.054 25.212 49.8477 24.5852C49.5734 23.7706 49.2451 22.9753 48.8651 22.2043C48.5685 21.6153 48.4637 20.9483 48.5653 20.2967C48.6668 19.6451 48.9697 19.0416 49.4315 18.5708L50.9767 17.0256C51.0767 16.9251 51.1328 16.789 51.1328 16.6472C51.1328 16.5054 51.0767 16.3694 50.9767 16.2688L45.7318 11.0239C45.6906 10.9612 45.6345 10.9096 45.5684 10.874C45.5024 10.8383 45.4285 10.8196 45.3534 10.8196C45.2783 10.8196 45.2044 10.8383 45.1384 10.874C45.0723 10.9096 45.0162 10.9612 44.975 11.0239L43.4298 12.5685C42.9592 13.0305 42.3559 13.3335 41.7043 13.4351C41.0528 13.5367 40.3858 13.4317 39.797 13.1349C39.0257 12.7559 38.2306 12.4277 37.4167 12.1523C36.7896 11.9463 36.2427 11.549 35.8531 11.0161C35.4635 10.4833 35.2507 9.84175 35.2446 9.18168V6.99316C35.2442 6.85121 35.1876 6.71519 35.0871 6.61493C34.9866 6.51467 34.8504 6.45836 34.7085 6.45833H27.2909C27.1491 6.45841 27.0131 6.51478 26.9128 6.61506C26.8125 6.71534 26.7561 6.85134 26.756 6.99316V9.18168C26.75 9.84177 26.5373 10.4834 26.1476 11.0162C25.758 11.5491 25.2111 11.9464 24.5839 12.1523C23.7699 12.4276 22.9748 12.7559 22.2037 13.1349C21.6147 13.4311 20.9478 13.5358 20.2964 13.4342C19.6451 13.3327 19.0417 13.03 18.5709 12.5685L17.0263 11.0239C16.9257 10.924 16.7897 10.8679 16.6479 10.8679C16.5061 10.8679 16.37 10.924 16.2694 11.0239L11.024 16.2688C10.9237 16.3692 10.8674 16.5053 10.8674 16.6472C10.8674 16.7891 10.9237 16.9252 11.024 17.0257L12.5686 18.5702C13.0305 19.0409 13.3334 19.6444 13.435 20.296C13.5366 20.9477 13.4316 21.6147 13.1349 22.2037C12.756 22.9747 12.4278 23.7696 12.1523 24.5833C11.9466 25.2106 11.5493 25.7577 11.0164 26.1474C10.4836 26.5372 9.84189 26.75 9.18172 26.7561H6.99316C6.85134 26.7561 6.71535 26.8125 6.61506 26.9128C6.51478 27.0131 6.45841 27.1491 6.45833 27.2909V34.7091C6.45841 34.8509 6.51478 34.9869 6.61506 35.0872C6.71534 35.1875 6.85134 35.2439 6.99316 35.244H9.18168C9.84177 35.25 10.4834 35.4627 11.0162 35.8524C11.5491 36.242 11.9464 36.7889 12.1523 37.4161C12.4276 38.2301 12.7559 39.0252 13.1349 39.7963C13.4316 40.3853 13.5365 41.0524 13.435 41.704C13.3334 42.3556 13.0304 42.9591 12.5685 43.4298L11.0239 44.9744C10.9237 45.0748 10.8674 45.2109 10.8674 45.3528C10.8674 45.4947 10.9237 45.6308 11.0239 45.7312L16.2694 50.9761C16.37 51.076 16.506 51.1322 16.6478 51.1322C16.7896 51.1322 16.9257 51.076 17.0262 50.9761L19.5269 48.4754C19.6468 48.3555 19.7892 48.2603 19.9459 48.1954C20.1026 48.1305 20.2706 48.0971 20.4402 48.0971C20.6098 48.0971 20.7777 48.1305 20.9344 48.1954C21.0911 48.2603 21.2335 48.3555 21.3534 48.4754C21.4733 48.5953 21.5685 48.7377 21.6334 48.8944C21.6983 49.0511 21.7317 49.219 21.7317 49.3886C21.7317 49.5582 21.6983 49.7262 21.6334 49.8829C21.5685 50.0396 21.4733 50.182 21.3534 50.3019L18.8527 52.8026C18.2675 53.3866 17.4746 53.7145 16.6478 53.7145C15.8211 53.7145 15.0281 53.3866 14.4429 52.8026L9.19745 47.5577C8.61345 46.9725 8.28547 46.1795 8.28547 45.3528C8.28547 44.526 8.61345 43.7331 9.19745 43.1479L10.742 41.6033C10.8231 41.5142 10.874 41.4018 10.8873 41.282C10.9007 41.1623 10.8759 41.0414 10.8164 40.9366C10.3882 40.0641 10.017 39.1648 9.70516 38.2442C9.67303 38.1284 9.6051 38.0257 9.51108 37.9508C9.41706 37.8759 9.30176 37.8327 9.18168 37.8273H6.99316C6.16646 37.8263 5.3739 37.4975 4.78934 36.913C4.20478 36.3284 3.87595 35.5358 3.875 34.7091V27.2909C3.87596 26.4642 4.20479 25.6716 4.78935 25.0871C5.37391 24.5025 6.16647 24.1737 6.99316 24.1727H9.18168C9.30185 24.1673 9.41721 24.124 9.51125 24.049C9.60528 23.974 9.67316 23.8711 9.70516 23.7552C10.0171 22.8349 10.3883 21.9357 10.8164 21.0633C10.8759 20.9586 10.9007 20.8377 10.8873 20.718C10.874 20.5982 10.8231 20.4858 10.742 20.3967L9.19745 18.8521C8.61345 18.2669 8.28547 17.474 8.28547 16.6472C8.28547 15.8205 8.61345 15.0275 9.19745 14.4423L14.4429 9.19743C15.0281 8.61343 15.8211 8.28544 16.6478 8.28544C17.4746 8.28544 18.2675 8.61343 18.8527 9.19743L20.3973 10.742C20.4862 10.8233 20.5985 10.8743 20.7182 10.8877C20.8379 10.901 20.9587 10.8761 21.0633 10.8164C21.9358 10.3882 22.8352 10.0169 23.7558 9.70513C23.8716 9.67301 23.9743 9.60507 24.0492 9.51105C24.1241 9.41703 24.1673 9.30173 24.1727 9.18166V6.99316C24.1736 6.16646 24.5025 5.3739 25.087 4.78934C25.6716 4.20477 26.4642 3.87595 27.2909 3.875H34.7085C35.5354 3.87571 36.3282 4.20442 36.913 4.789C37.4978 5.37358 37.8268 6.16628 37.8279 6.99316V9.18168C37.8333 9.30185 37.8766 9.41721 37.9516 9.51125C38.0266 9.60528 38.1294 9.67316 38.2454 9.70516C39.1658 10.0169 40.065 10.3881 40.9372 10.8164C41.0419 10.8758 41.1627 10.9006 41.2823 10.8873C41.4019 10.8739 41.5142 10.8231 41.6032 10.742L43.1484 9.19745C43.7425 8.6305 44.5321 8.31412 45.3532 8.314C46.1744 8.31388 46.9641 8.63004 47.5583 9.19682L52.8032 14.4423C53.3866 15.0278 53.7142 15.8206 53.7142 16.6472C53.7142 17.4738 53.3866 18.2666 52.8032 18.8521L51.258 20.3967C51.1769 20.4858 51.126 20.5982 51.1127 20.718C51.0993 20.8377 51.1241 20.9586 51.1836 21.0633C51.612 21.9358 51.9832 22.8351 52.2948 23.7558C52.3271 23.8716 52.395 23.9742 52.489 24.049C52.583 24.1239 52.6983 24.1672 52.8183 24.1727H55.0068C55.8335 24.1736 56.6261 24.5025 57.2107 25.087C57.7952 25.6716 58.124 26.4642 58.125 27.2909V34.7091C58.124 35.5358 57.7952 36.3284 57.2107 36.9129C56.6261 37.4975 55.8335 37.8263 55.0068 37.8273H52.8183C52.698 37.8328 52.5826 37.8764 52.4885 37.9516C52.3945 38.0268 52.3267 38.1299 52.2948 38.2461C51.9828 39.1661 51.6116 40.0651 51.1836 40.9373C51.1242 41.042 51.0994 41.1629 51.1127 41.2826C51.1261 41.4023 51.1769 41.5148 51.258 41.6039L52.8032 43.1479C53.3866 43.7333 53.7142 44.5262 53.7142 45.3528C53.7142 46.1793 53.3866 46.9722 52.8032 47.5577L47.5583 52.8025C47.2694 53.093 46.9258 53.3232 46.5473 53.48C46.1688 53.6368 45.763 53.7169 45.3534 53.7158Z" fill="white"/>
<path d="M31.0006 40.5815C30.2324 40.5829 29.4715 40.4325 28.7616 40.139C28.0517 39.8455 27.4067 39.4146 26.8639 38.8711L25.5287 37.5359C25.2865 37.2937 25.1504 36.9652 25.1504 36.6226C25.1504 36.2801 25.2865 35.9516 25.5287 35.7094C25.7709 35.4671 26.0994 35.3311 26.4419 35.3311C26.7845 35.3311 27.113 35.4671 27.3552 35.7093L28.6904 37.0445C29.3037 37.6564 30.1346 38 31.0009 38C31.8672 38 32.6982 37.6564 33.3115 37.0445L34.646 35.7093C34.8882 35.4671 35.2168 35.3311 35.5593 35.3311C35.9018 35.3311 36.2303 35.4671 36.4725 35.7093C36.7147 35.9515 36.8508 36.28 36.8508 36.6226C36.8508 36.9651 36.7147 37.2936 36.4725 37.5358L35.138 38.871C34.595 39.4146 33.95 39.8455 33.2399 40.139C32.5299 40.4325 31.7689 40.5829 31.0006 40.5815Z" fill="#0072A1"/>
<path d="M35.7156 51.0951H26.2828C25.3154 51.0939 24.3879 50.7091 23.7038 50.025C23.0197 49.3409 22.6348 48.4134 22.6336 47.4459V44.4658C22.6251 44.2795 22.5718 44.098 22.4783 43.9366C22.3848 43.7752 22.2538 43.6387 22.0963 43.5387C19.7333 41.8739 17.8856 39.5787 16.7638 36.9147C15.642 34.2507 15.2913 31.3251 15.7515 28.4714C16.156 25.9567 17.1762 23.5811 18.7213 21.5562C20.2665 19.5313 22.2885 17.9201 24.6072 16.8661C26.926 15.8121 29.4694 15.348 32.011 15.5153C34.5526 15.6825 37.0133 16.4758 39.1739 17.8246C41.3346 19.1733 43.128 21.0356 44.3945 23.2455C45.661 25.4554 46.3612 27.9442 46.4326 30.4903C46.5041 33.0363 45.9446 35.5605 44.8041 37.8379C43.6636 40.1154 41.9774 42.0753 39.8958 43.5432C39.7403 43.642 39.6108 43.7768 39.5184 43.9362C39.426 44.0956 39.3733 44.2749 39.3648 44.4589V47.4459C39.3636 48.4134 38.9787 49.3409 38.2946 50.025C37.6105 50.7091 36.683 51.0939 35.7156 51.0951ZM31.0169 18.0819C30.4899 18.0822 29.9635 18.1132 29.4401 18.1746C26.8621 18.4868 24.4393 19.5729 22.4911 21.2899C20.5429 23.0068 19.1608 25.2739 18.527 27.7922C17.8933 30.3105 18.0377 32.9617 18.9411 35.3963C19.8446 37.8309 21.4647 39.9344 23.5879 41.4297C24.0849 41.7661 24.4928 42.2182 24.7765 42.747C25.0603 43.2759 25.2114 43.8657 25.217 44.4658V47.4459C25.2172 47.7285 25.3296 47.9994 25.5295 48.1993C25.7293 48.3991 26.0002 48.5115 26.2828 48.5117H35.7156C35.9982 48.5115 36.2691 48.3991 36.4689 48.1993C36.6688 47.9994 36.7812 47.7285 36.7814 47.4459V44.4589C36.7871 43.8611 36.9376 43.2736 37.2201 42.7468C37.5027 42.22 37.9088 41.7695 38.4036 41.4341C39.9875 40.3196 41.2989 38.8612 42.2394 37.1681C43.18 35.4751 43.7254 33.5912 43.8348 31.6575C43.9443 29.7238 43.6149 27.7905 42.8714 26.0021C42.1279 24.2137 40.9894 22.6167 39.5414 21.3306C37.2 19.2298 34.1625 18.0722 31.0169 18.0819Z" fill="white"/>
<path d="M31.0007 46.4244C30.6581 46.4244 30.3296 46.2883 30.0873 46.0461C29.8451 45.8039 29.709 45.4753 29.709 45.1328V39.2931C29.709 38.9506 29.8451 38.622 30.0873 38.3798C30.3295 38.1375 30.6581 38.0015 31.0007 38.0015C31.3432 38.0015 31.6718 38.1375 31.914 38.3798C32.1562 38.622 32.2923 38.9506 32.2923 39.2931V45.1328C32.2923 45.4753 32.1562 45.8039 31.914 46.0461C31.6717 46.2883 31.3432 46.4244 31.0007 46.4244Z" fill="#0072A1"/>
<path d="M33.7166 56.8335H28.2826C27.5976 56.8328 26.9409 56.5604 26.4566 56.0761C25.9723 55.5918 25.6999 54.9351 25.6992 54.2501V49.8044C25.6992 49.4618 25.8353 49.1333 26.0776 48.891C26.3198 48.6488 26.6483 48.5127 26.9909 48.5127H35.0083C35.1779 48.5127 35.3459 48.546 35.5026 48.6109C35.6593 48.6758 35.8018 48.771 35.9217 48.8909C36.0417 49.0109 36.1368 49.1533 36.2017 49.31C36.2666 49.4667 36.3 49.6347 36.2999 49.8044V54.2501C36.2991 54.935 36.0267 55.5917 35.5424 56.076C35.0581 56.5603 34.4015 56.8327 33.7166 56.8335ZM28.2826 51.096V54.2501H33.7179L33.7166 51.096H28.2826Z" fill="white"/>
</svg>
