<svg width="74" height="71" viewBox="0 0 74 71" fill="none" xmlns="http://www.w3.org/2000/svg">
<path d="M45.3569 36.2513C47.7412 36.2513 49.6794 34.3132 49.6794 31.9288V22.8201C49.6794 20.4357 47.7412 18.4976 45.3569 18.4976H28.6663C26.2819 18.4976 24.3438 20.4357 24.3438 22.8201V39.0819C24.3438 39.4144 24.5319 39.7163 24.8294 39.8651C24.9519 39.9263 25.0875 39.9569 25.2188 39.9569C25.4069 39.9569 25.595 39.8957 25.7481 39.7776L30.39 36.2513H45.3569ZM29.5631 34.6807L26.0938 37.3188V22.8201C26.0938 21.4026 27.2488 20.2476 28.6663 20.2476H45.3569C46.7744 20.2476 47.9294 21.4026 47.9294 22.8201V31.9288C47.9294 33.3463 46.7744 34.5013 45.3569 34.5013H30.0925C29.9 34.5013 29.7162 34.5669 29.5631 34.6807Z" fill="#0072A1"/>
<path d="M64.7375 26.2981C64.4225 23.9969 62.4319 22.2644 60.1044 22.2644H59.3956V17.7056C59.3956 9.62063 53.2225 3.00125 45.1987 2.29688C45.0194 1.12437 44.0044 0.21875 42.7838 0.21875H31.2119C29.9913 0.21875 28.9806 1.11562 28.7969 2.28375C20.7731 2.91375 14.6 9.47188 14.6 17.5569V22.2644H13.8913C11.5681 22.2644 9.5775 23.9969 9.2625 26.2937C9.23188 26.495 9.21875 26.7094 9.21875 26.9369V37.8175C9.21875 38.0494 9.23188 38.2594 9.2625 38.4562C9.5775 40.7575 11.5681 42.49 13.8956 42.49H17.5487C18.9794 42.49 20.1475 41.3263 20.1475 39.8956V24.8544C20.1475 23.4237 18.9838 22.26 17.5487 22.26H16.35V17.5569C16.35 10.4519 21.7356 4.68125 28.7706 4.04688C28.8319 5.34188 29.9037 6.37875 31.2119 6.37875H42.7838C44.0875 6.37875 45.155 5.35063 45.225 4.06437C52.26 4.77313 57.65 10.6006 57.65 17.71V22.2644H56.4556C55.025 22.2644 53.8569 23.4281 53.8569 24.8587V39.9C53.8569 41.3306 55.0206 42.4944 56.4556 42.4944H58.4288C58.2844 46.2131 55.2219 49.2012 51.4681 49.2012H43.5363C43.1425 47.6394 41.7338 46.48 40.0538 46.48H33.9463C31.9644 46.48 30.35 48.0944 30.35 50.0762V50.3563C30.35 52.3381 31.9644 53.9525 33.9463 53.9525H40.0538C41.8344 53.9525 43.3088 52.6531 43.5931 50.9556H51.4681C56.1888 50.9556 60.0387 47.1844 60.1788 42.4987C62.4713 42.4637 64.4225 40.7444 64.7375 38.4738C64.7681 38.2725 64.7812 38.0581 64.7812 37.8306V26.9369C64.7812 26.705 64.7681 26.495 64.7375 26.2981ZM18.3931 24.8544V39.9C18.3931 40.3638 18.0125 40.7444 17.5444 40.7444H13.8913C12.4388 40.7444 11.1919 39.6594 10.995 38.2156C10.9775 38.0931 10.9688 37.9663 10.9688 37.8175V26.9369C10.9688 26.7925 10.9775 26.6613 10.995 26.5344C11.1919 25.095 12.4388 24.01 13.8913 24.01H17.5444C18.0125 24.0144 18.3931 24.3906 18.3931 24.8544ZM43.4837 3.92875C43.4837 4.31375 43.1731 4.62437 42.7881 4.62437H31.2119C30.8269 4.62437 30.5163 4.31375 30.5163 3.92875V2.66438C30.5163 2.27938 30.8269 1.96875 31.2119 1.96875H42.7838C43.1688 1.96875 43.4794 2.27938 43.4794 2.66438V3.92875H43.4837ZM41.9 50.3475C41.9 51.3625 41.0731 52.1938 40.0538 52.1938H33.9463C32.9312 52.1938 32.1 51.3669 32.1 50.3475V50.0675C32.1 49.0525 32.9269 48.2213 33.9463 48.2213H40.0538C41.0688 48.2213 41.9 49.0481 41.9 50.0675V50.3475ZM63.0312 37.8175C63.0312 37.9619 63.0225 38.0931 63.005 38.22C62.8081 39.6594 61.5612 40.7444 60.1087 40.7444H56.4556C55.9875 40.7444 55.6069 40.3681 55.6069 39.9V24.8544C55.6069 24.3906 55.9875 24.01 56.4556 24.01H60.1087C61.5612 24.01 62.8081 25.095 63.005 26.5387C63.0225 26.6612 63.0312 26.7881 63.0312 26.9369V37.8175Z" fill="white"/>
<path d="M42.797 23.6904H31.2207C30.7395 23.6904 30.3457 24.0842 30.3457 24.5654C30.3457 25.0467 30.7395 25.4404 31.2207 25.4404H42.797C43.2782 25.4404 43.672 25.0467 43.672 24.5654C43.672 24.0842 43.2782 23.6904 42.797 23.6904Z" fill="#0072A1"/>
<path d="M42.797 28.792H31.2207C30.7395 28.792 30.3457 29.1857 30.3457 29.667C30.3457 30.1482 30.7395 30.542 31.2207 30.542H42.797C43.2782 30.542 43.672 30.1482 43.672 29.667C43.672 29.1857 43.2782 28.792 42.797 28.792Z" fill="#0072A1"/>
</svg>
