<svg width="54" height="54" viewBox="0 0 54 54" fill="none" xmlns="http://www.w3.org/2000/svg">
<path d="M11.6543 26.5806H21.2527" stroke="#0072A1" stroke-width="2" stroke-miterlimit="10" stroke-linecap="round" stroke-linejoin="round"/>
<path d="M8.49023 20.2515H21.2529" stroke="#0072A1" stroke-width="2" stroke-miterlimit="10" stroke-linecap="round" stroke-linejoin="round"/>
<path d="M8.49023 32.9087H21.2529" stroke="#0072A1" stroke-width="2" stroke-miterlimit="10" stroke-linecap="round" stroke-linejoin="round"/>
<path d="M43.4031 26.5806H33.9102" stroke="#0072A1" stroke-width="2" stroke-miterlimit="10" stroke-linecap="round" stroke-linejoin="round"/>
<path d="M46.6728 32.9087H33.9102" stroke="#0072A1" stroke-width="2" stroke-miterlimit="10" stroke-linecap="round" stroke-linejoin="round"/>
<path d="M46.6728 20.2515H33.9102" stroke="#0072A1" stroke-width="2" stroke-miterlimit="10" stroke-linecap="round" stroke-linejoin="round"/>
<path d="M37.0742 20.2517V10.6533H43.4028" stroke="#0072A1" stroke-width="2" stroke-miterlimit="10" stroke-linecap="round" stroke-linejoin="round"/>
<path d="M11.6543 10.6533H18.0884V20.2517" stroke="#0072A1" stroke-width="2" stroke-miterlimit="10" stroke-linecap="round" stroke-linejoin="round"/>
<path d="M18.0879 42.4016V32.9087" stroke="#0072A1" stroke-width="2" stroke-miterlimit="10" stroke-linecap="round" stroke-linejoin="round"/>
<path d="M37.0742 42.4016V32.9087" stroke="#0072A1" stroke-width="2" stroke-miterlimit="10" stroke-linecap="round" stroke-linejoin="round"/>
<path d="M40.2385 39.2373H37.0742" stroke="#0072A1" stroke-width="2" stroke-miterlimit="10" stroke-linecap="round" stroke-linejoin="round"/>
<path d="M14.9238 39.2373H18.0881" stroke="#0072A1" stroke-width="2" stroke-miterlimit="10" stroke-linecap="round" stroke-linejoin="round"/>
<path d="M11.6543 17.0874V20.2517" stroke="#0072A1" stroke-width="2" stroke-miterlimit="10" stroke-linecap="round" stroke-linejoin="round"/>
<path d="M43.4043 17.0874V20.2517" stroke="#0072A1" stroke-width="2" stroke-miterlimit="10" stroke-linecap="round" stroke-linejoin="round"/>
<path d="M24.4157 32.9086V48.8356C24.4157 50.5833 22.9991 51.9999 21.2514 51.9999C19.5038 51.9999 18.0871 50.5833 18.0871 48.8356C18.0871 48.7763 18.1176 48.7267 18.1209 48.6681C17.5989 48.7765 17.0591 48.8356 16.505 48.8356C12.1359 48.8356 8.48876 45.1884 8.48876 40.8194C8.48876 40.2265 8.56523 39.6537 8.68885 39.098C4.98145 38.4422 2.16016 35.2222 2.16016 31.3265C2.16016 28.9656 3.21545 26.8703 4.8553 25.4208C3.22916 24.2754 2.16016 22.3916 2.16016 20.2514C2.16016 17.7656 3.60677 15.6361 5.69194 14.6012C5.47592 13.8803 5.32446 13.0263 5.32446 12.2352C5.32446 7.86615 8.86615 4.32446 13.2352 4.32446C13.858 4.32446 14.5621 4.4139 15.1434 4.54986C15.7302 2.59432 17.5228 1.16016 19.6693 1.16016C22.2907 1.16016 24.4157 3.28519 24.4157 5.90661V20.2514" stroke="white" stroke-width="2" stroke-miterlimit="10" stroke-linecap="round" stroke-linejoin="round"/>
<path d="M30.7441 32.9086V48.8356C30.7441 50.5833 32.1608 51.9999 33.9084 51.9999C35.6561 51.9999 37.0727 50.5833 37.0727 48.8356C37.0727 48.7763 37.0423 48.7267 37.039 48.6681C37.561 48.7765 38.1008 48.8356 38.6549 48.8356C43.0239 48.8356 46.6711 45.1884 46.6711 40.8194C46.6711 40.2265 46.5946 39.6537 46.471 39.098C50.1784 38.4422 52.9997 35.2222 52.9997 31.3265C52.9997 28.9656 51.9444 26.8703 50.3046 25.4208C51.9307 24.2754 52.9997 22.3916 52.9997 20.2514C52.9997 17.7656 51.5531 15.6361 49.4679 14.6012C49.684 13.8803 49.8354 13.0263 49.8354 12.2352C49.8354 7.86615 46.1882 4.32446 41.8192 4.32446C41.1964 4.32446 40.5978 4.4139 40.0165 4.54986C39.4297 2.59432 37.637 1.16016 35.4906 1.16016C32.8692 1.16016 30.7441 3.28519 30.7441 5.90661V20.2514" stroke="white" stroke-width="2" stroke-miterlimit="10" stroke-linecap="round" stroke-linejoin="round"/>
<path d="M33.9092 20.2515H21.252V32.9087H33.9092V20.2515Z" stroke="#0072A1" stroke-width="2" stroke-miterlimit="10" stroke-linecap="round" stroke-linejoin="round"/>
</svg>
