<svg width="54" height="54" viewBox="0 0 54 54" fill="none" xmlns="http://www.w3.org/2000/svg">
<g clip-path="url(#clip0_2226_5435)">
<path fill-rule="evenodd" clip-rule="evenodd" d="M24.6581 45.2419H29.3409V42.8899C29.3409 42.4877 29.6249 42.1413 30.0188 42.0624C31.9894 41.6697 33.8384 40.9033 35.5131 39.7851C35.8483 39.5614 36.2936 39.6059 36.5786 39.8901L38.2423 41.5547L41.5531 38.244L39.8891 36.5795C39.6056 36.2947 39.5612 35.8492 39.7843 35.5147C40.9025 33.8382 41.6693 31.9899 42.0616 30.0199C42.1398 29.6254 42.4869 29.3413 42.8885 29.3413H45.2418V24.6591H42.8885C42.4869 24.6591 42.1398 24.375 42.0616 23.9805C41.6682 22.0098 40.9025 20.1615 39.7843 18.4863C39.5612 18.1518 39.6057 17.7056 39.8891 17.4209L41.5531 15.757L38.2423 12.4457L36.5786 14.1102C36.2937 14.395 35.8483 14.4388 35.5131 14.2153C33.8373 13.097 31.9884 12.3306 30.0188 11.938C29.625 11.8597 29.3409 11.5133 29.3409 11.1105V8.75851H24.6581V11.1106C24.6581 11.5133 24.3746 11.8598 23.9801 11.9381C22.009 12.3314 20.1599 13.0978 18.4852 14.2154C18.1507 14.439 17.7047 14.3944 17.4198 14.1103L15.7553 12.4458L12.4446 15.7571L14.1092 17.421C14.3939 17.7057 14.4377 18.1512 14.2147 18.4858C13.0953 20.1622 12.3296 22.0106 11.9374 23.9806C11.8585 24.3751 11.512 24.6592 11.1092 24.6592H8.75802V29.3414H11.1094C11.5121 29.3414 11.8587 29.6255 11.9376 30.02C12.3298 31.9912 13.0967 33.8396 14.2149 35.5148C14.4379 35.8493 14.3941 36.2955 14.1094 36.5796L12.4448 38.2441L15.7556 41.5548L17.42 39.8903C17.7048 39.6061 18.1509 39.5622 18.4854 39.7852C20.1612 40.904 22.0098 41.6698 23.9791 42.0625C24.3748 42.1415 24.6582 42.4878 24.6582 42.89V45.2419H24.6581ZM30.1848 46.9296H23.8145C23.3484 46.9296 22.9706 46.5517 22.9706 46.086V43.5678C21.2608 43.1538 19.639 42.4817 18.1337 41.5629L16.3528 43.3442C16.0237 43.674 15.4885 43.674 15.1599 43.3442L10.655 38.8402C10.3258 38.5109 10.3258 37.9765 10.655 37.6472L12.4365 35.8659C11.5175 34.3615 10.8462 32.7397 10.4315 31.029H7.91385C7.44768 31.029 7.07031 30.6511 7.07031 30.1854V23.8157C7.07031 23.3494 7.44768 22.9716 7.91385 22.9716H10.4315C10.8462 21.262 11.5175 19.6401 12.4365 18.1352L10.655 16.3532C10.4966 16.1954 10.4082 15.9801 10.4082 15.7571C10.4082 15.5329 10.4966 15.3181 10.655 15.1604L15.1599 10.6562C15.4884 10.3269 16.0236 10.3269 16.3528 10.6562L18.1337 12.4376C19.639 11.5194 21.2599 10.8472 22.9706 10.4332V7.91497C22.9706 7.4487 23.3484 7.0708 23.8145 7.0708H30.1848C30.65 7.0708 31.0284 7.4487 31.0284 7.91497V10.433C32.7381 10.8465 34.3593 11.5185 35.8643 12.438L37.6468 10.656C37.8045 10.4976 38.0187 10.4086 38.2422 10.4086C38.4672 10.4086 38.6812 10.4976 38.8396 10.656L43.3439 15.1601C43.673 15.49 43.673 16.0238 43.3439 16.3531L41.5619 18.1351C42.4802 19.6395 43.1528 21.2613 43.5664 22.9715H46.0851C46.5513 22.9715 46.9293 23.3494 46.9293 23.8155V30.1854C46.9293 30.6511 46.5513 31.029 46.0851 31.029H43.5664C43.1528 32.7392 42.4814 34.3603 41.5619 35.8652L43.3439 37.6472C43.5023 37.8056 43.5907 38.0198 43.5907 38.244C43.5907 38.4677 43.5023 38.6824 43.3432 38.8402L38.8396 43.3444C38.5092 43.6742 37.9753 43.6742 37.6467 43.3444L35.8642 41.563C34.3605 42.4818 32.738 43.1539 31.0283 43.5674V46.0861C31.0284 46.5518 30.65 46.9296 30.1848 46.9296Z" fill="white"/>
<path fill-rule="evenodd" clip-rule="evenodd" d="M44.0488 8.36336C39.3799 4.08713 33.3526 1.74034 26.9998 1.74034C21.8225 1.74034 16.8456 3.29685 12.6066 6.24206C12.2238 6.50784 11.6978 6.41292 11.432 6.03028C11.1662 5.64775 11.261 5.12156 11.6438 4.85578C16.1612 1.71724 21.4645 0.0566367 26.981 0.0527344H27.0148C33.8307 0.0564258 40.2956 2.59327 45.285 7.20858L45.0384 4.13153C45.0006 3.66704 45.3474 3.26014 45.8113 3.2227C46.274 3.18537 46.6829 3.53183 46.7208 3.99621L47.1478 9.32375C47.1679 9.56992 47.0778 9.81313 46.9029 9.98747C46.7445 10.1464 46.5299 10.2348 46.3074 10.2348C46.2835 10.2348 46.2617 10.2336 46.2396 10.2318L40.9122 9.80469C40.4471 9.76736 40.1012 9.36046 40.138 8.8965C40.1747 8.43138 40.5824 8.08502 41.0473 8.12236L44.0488 8.36336ZM8.96484 13.8647C8.94175 13.8647 8.91907 13.8636 8.89608 13.8618C8.43096 13.8244 8.08523 13.4181 8.12194 12.953L8.36272 9.95161C4.08649 14.6198 1.74023 20.6472 1.74023 26.9999C1.74023 32.1779 3.29695 37.1549 6.24143 41.3932C6.50732 41.7765 6.41239 42.302 6.02965 42.5678C5.88315 42.6698 5.71535 42.7184 5.54987 42.7184C5.28166 42.7184 5.01884 42.5927 4.85568 42.3566C1.71429 37.8334 0.0527344 32.5231 0.0527344 26.9999C0.0527344 20.1787 2.58979 13.7085 7.20731 8.71509L4.13142 8.96189C3.66715 9.00049 3.26004 8.65287 3.22218 8.18838C3.18526 7.7239 3.5312 7.3169 3.99632 7.28019L9.32333 6.85252C9.56992 6.83237 9.8126 6.92191 9.98831 7.09689C10.1619 7.27186 10.2516 7.51454 10.2314 7.76123L9.80437 13.0881C9.76989 13.5295 9.39906 13.8647 8.96484 13.8647ZM44.609 47.1509C44.3865 47.1509 44.1713 47.0625 44.0122 46.9034C43.8373 46.7291 43.7483 46.4859 43.7673 46.2397L44.1956 40.9122C44.2325 40.4477 44.6393 40.1013 45.1038 40.1387C45.5677 40.176 45.9147 40.583 45.878 41.0475L45.6361 44.0497C49.9119 39.3814 52.2601 33.3531 52.2601 26.9999C52.2601 21.8231 50.7029 16.8461 47.7583 12.6065C47.4925 12.2239 47.5875 11.6983 47.9696 11.4326C48.3521 11.1668 48.8782 11.2612 49.144 11.6444C52.2862 16.1675 53.9472 21.4772 53.9472 26.9999C53.9472 33.8216 51.4107 40.2918 46.7926 45.2853L49.8689 45.0385C50.3312 45.0017 50.7399 45.3476 50.7771 45.812C50.8149 46.2765 50.4681 46.6834 50.0036 46.7209L44.6766 47.1479C44.6535 47.1496 44.631 47.1509 44.609 47.1509ZM8.12004 50.7806C7.68414 50.7806 7.31521 50.4454 7.27956 50.0041L6.85252 44.6766C6.83237 44.4304 6.92191 44.1878 7.09678 44.0129C7.27123 43.8378 7.51433 43.7476 7.7605 43.7685L13.0875 44.1955C13.5526 44.2329 13.8985 44.6392 13.8617 45.1043C13.8238 45.5688 13.4167 45.9152 12.9522 45.8773L9.95066 45.6369C14.6189 49.9131 20.6467 52.2602 26.9997 52.2602C32.1771 52.2602 37.1547 50.7036 41.3931 47.759C41.7765 47.4932 42.3013 47.5875 42.5671 47.9701C42.8329 48.3533 42.7391 48.879 42.3559 49.1446C37.8321 52.2868 32.5231 53.9478 26.9997 53.9478C20.178 53.9478 13.7084 51.4107 8.71488 46.7926L8.96189 49.8689C8.99859 50.334 8.65266 50.7404 8.18712 50.7777C8.16518 50.7794 8.14208 50.7806 8.12004 50.7806Z" fill="white"/>
<path fill-rule="evenodd" clip-rule="evenodd" d="M27.0003 16.881C21.4201 16.881 16.8811 21.4207 16.8811 26.9997C16.8811 32.58 21.4201 37.1192 27.0003 37.1192C32.58 37.1192 37.119 32.58 37.119 26.9997C37.119 21.4207 32.58 16.881 27.0003 16.881ZM27.0003 28.8896C26.7165 28.8896 26.4655 28.7497 26.3126 28.5351L23.6452 30.0749C23.5123 30.1515 23.3681 30.1882 23.2246 30.1882C22.9321 30.1882 22.6486 30.0369 22.4927 29.7664C22.2596 29.3623 22.399 28.8463 22.8018 28.6132L26.157 26.6762V20.9752C26.157 20.5089 26.5342 20.1316 27.0004 20.1316C27.4668 20.1316 27.8439 20.5089 27.8439 20.9752V25.8824C28.1065 25.9074 28.3533 26.055 28.4953 26.3009C28.7278 26.7043 28.5897 27.2204 28.1863 27.4535L27.8439 27.651V28.0461C27.8438 28.5124 27.4667 28.8896 27.0003 28.8896ZM27.0003 19.434C31.1729 19.434 34.5666 22.8283 34.5666 26.9997C34.5666 31.1723 31.1728 34.566 27.0003 34.566C22.8285 34.566 19.4342 31.1723 19.4342 26.9997C19.4342 22.8283 22.8285 19.434 27.0003 19.434ZM27.0003 36.2536C21.8976 36.2536 17.7464 32.1023 17.7464 26.9996C17.7464 21.8976 21.8976 17.7463 27.0003 17.7463C32.1032 17.7463 36.2543 21.8975 36.2543 26.9996C36.2543 32.1023 32.1032 36.2536 27.0003 36.2536ZM27.0003 38.8068C20.49 38.8068 15.1934 33.5101 15.1934 26.9997C15.1934 20.49 20.4901 15.1934 27.0003 15.1934C33.5113 15.1934 38.8068 20.49 38.8068 26.9997C38.8068 33.5101 33.5113 38.8068 27.0003 38.8068Z" fill="#0072A1"/>
</g>
<defs>
<clipPath id="clip0_2226_5435">
<rect width="54" height="54" fill="white"/>
</clipPath>
</defs>
</svg>
