<svg width="62" height="67" viewBox="0 0 62 67" fill="none" xmlns="http://www.w3.org/2000/svg">
<g filter="url(#filter0_d_2226_5434)">
<g clip-path="url(#clip0_2226_5434)">
<path d="M41.0045 22.3715L32.0045 15.8575C31.7076 15.6398 31.3569 15.5234 30.9979 15.5234C30.6388 15.5234 30.2881 15.6398 29.9912 15.8575L20.9786 22.3822C20.7392 22.5617 20.5434 22.8007 20.4078 23.079C20.2721 23.3573 20.2006 23.6667 20.1992 23.9811V34.2391C20.2015 34.5567 20.2749 34.8691 20.4133 35.1495C20.5516 35.4299 20.7509 35.6701 20.9939 35.8497L30.0092 42.3744C30.3041 42.5802 30.6479 42.6897 30.9992 42.6897C31.3577 42.6895 31.7085 42.5773 32.009 42.3666L41.0252 35.84C41.2637 35.6594 41.4585 35.4198 41.5932 35.1412C41.7279 34.8626 41.7985 34.5533 41.7992 34.2391V23.9811C41.7972 23.6635 41.7239 23.3512 41.5855 23.0709C41.4471 22.7906 41.2477 22.5506 41.0045 22.3715ZM30.9992 17.4641L39.2864 23.4707L30.9992 29.4705L22.7057 23.4698L30.9992 17.4641ZM21.9992 34.2391V25.2938L30.0992 31.1568V40.1041L21.9992 34.2391ZM31.8992 40.1011V31.1568L39.9992 25.2947V34.2391L31.8992 40.1011Z" fill="#0072A2"/>
<path d="M57.2287 25.3641L53.6287 22.6631C53.3264 22.4382 52.9678 22.3178 52.6005 22.3178C52.2332 22.3178 51.8746 22.4382 51.5722 22.6631L50.9422 23.1346C50.5358 21.5557 49.9655 20.0312 49.2421 18.5901L50.9278 17.3288C51.1664 17.1499 51.3613 16.9114 51.4958 16.6336C51.6302 16.3559 51.7003 16.0471 51.7 15.7338V11.4338C51.7001 11.1209 51.63 10.8126 51.4957 10.5352C51.3614 10.2578 51.1669 10.0196 50.9287 9.84074L47.3287 7.13967C47.0264 6.91483 46.6678 6.79442 46.3005 6.79442C45.9332 6.79442 45.5745 6.91483 45.2722 7.13967L41.6722 9.83977C41.6353 9.86791 41.6074 9.90574 41.5723 9.93679C39.957 8.90011 38.2164 8.10933 36.4 7.58694V4.64137C36.4 4.32863 36.3298 4.02053 36.1955 3.74331C36.0612 3.4661 35.8668 3.22798 35.6287 3.04925L32.0287 0.348178C31.7264 0.123339 31.3678 0.00292969 31.0005 0.00292969C30.6332 0.00292969 30.2745 0.123339 29.9722 0.348178L26.3722 3.04925C26.134 3.22788 25.9393 3.46594 25.8049 3.74316C25.6704 4.02039 25.6001 4.32854 25.6 4.64137V7.58694C23.7839 8.10971 22.0436 8.90082 20.4286 9.93776C20.3935 9.90671 20.3656 9.86888 20.3287 9.84074L16.7287 7.13967C16.4264 6.91483 16.0678 6.79442 15.7005 6.79442C15.3332 6.79442 14.9745 6.91483 14.6722 7.13967L11.0722 9.83977C10.8337 10.0186 10.6389 10.257 10.5045 10.5345C10.37 10.8121 10.2998 11.1207 10.3 11.4338V15.7338C10.2999 16.0467 10.37 16.355 10.5043 16.6324C10.6386 16.9098 10.8331 17.1481 11.0713 17.3269L12.757 18.5882C12.0336 20.0293 11.4633 21.5537 11.0569 23.1327L10.4269 22.6602C10.1246 22.4353 9.76596 22.3149 9.39866 22.3149C9.03136 22.3149 8.67274 22.4353 8.37041 22.6602L4.77041 25.3603C4.53188 25.5396 4.33721 25.7785 4.20304 26.0566C4.06887 26.3347 3.99921 26.6438 4.00001 26.9572V31.2582C4.00004 31.5709 4.07019 31.879 4.20448 32.1562C4.33878 32.4335 4.53324 32.6716 4.77131 32.8503L8.37131 35.5504C8.67369 35.7756 9.03249 35.8962 9.40001 35.8962C9.76752 35.8962 10.1263 35.7756 10.4287 35.5504L11.0587 35.0789C11.4655 36.6572 12.0355 38.1812 12.7579 39.6224L11.074 40.8837C10.8349 41.0624 10.6396 41.301 10.5048 41.579C10.37 41.857 10.2998 42.166 10.3 42.4797V46.7816C10.3 47.0943 10.3702 47.4024 10.5045 47.6796C10.6388 47.9569 10.8332 48.195 11.0713 48.3737L14.6713 51.0738C14.9737 51.299 15.3325 51.4196 15.7 51.4196C16.0675 51.4196 16.4263 51.299 16.7287 51.0738L20.3287 48.3727C20.3656 48.3446 20.3944 48.3068 20.4295 48.2757C22.0442 49.3127 23.7842 50.1038 25.6 50.6265V53.5721C25.6003 53.8849 25.6706 54.193 25.8049 54.4704C25.9392 54.7477 26.1334 54.986 26.3713 55.1652L29.9713 57.8672C30.2738 58.0912 30.6321 58.2111 30.9991 58.2111C31.3661 58.2111 31.7244 58.0912 32.0269 57.8672L35.6269 55.1652C35.8654 54.9866 36.0603 54.7484 36.1949 54.471C36.3296 54.1936 36.3999 53.8852 36.4 53.5721V50.6265C38.2161 50.1042 39.9564 49.3134 41.5714 48.2767C41.6065 48.3077 41.6344 48.3456 41.6713 48.3737L45.2713 51.0738C45.5737 51.299 45.9325 51.4196 46.3 51.4196C46.6675 51.4196 47.0263 51.299 47.3287 51.0738L50.9287 48.3727C51.1667 48.1941 51.361 47.9561 51.4953 47.6791C51.6296 47.4021 51.6998 47.0942 51.7 46.7816V42.4797C51.7 42.1669 51.6298 41.8588 51.4955 41.5816C51.3612 41.3044 51.1668 41.0663 50.9287 40.8875L49.2439 39.6263C49.9663 38.1844 50.5363 36.6597 50.9431 35.0808L51.5731 35.5523C51.8755 35.7775 52.2343 35.8981 52.6018 35.8981C52.9693 35.8981 53.3281 35.7775 53.6305 35.5523L57.2305 32.8513C57.4684 32.6722 57.6626 32.4339 57.7965 32.1565C57.9305 31.8791 58.0003 31.5709 58 31.2582V26.9572C58.0001 26.6443 57.93 26.336 57.7957 26.0586C57.6614 25.7812 57.4669 25.543 57.2287 25.3641ZM52.6 24.2562L55.5286 26.4527L52.6 28.6454L49.6714 26.4527L52.6 24.2562ZM47.2 17.7557V14.8111L49.9 12.7892V15.7338L47.2 17.7557ZM42.7 12.7853L45.4 14.8073V17.7557L42.7 15.7299V12.7853ZM46.3 8.73276L49.2286 10.9293L46.3 13.122L43.3714 10.9293L46.3 8.73276ZM27.4 5.99676L30.1 8.01868V10.9642L27.4 8.94232V5.99676ZM31.9 8.01868L34.6 5.99676V8.94232L31.9 10.9642V8.01868ZM31 1.94127L33.9286 4.13783L31 6.32954L28.0714 4.13783L31 1.94127ZM16.6 14.8111L19.3 12.7892V15.7338L16.6 17.7557V14.8111ZM15.7 8.73276L18.6286 10.9293L15.7 13.122L12.7714 10.9293L15.7 8.73276ZM12.1 12.7892L14.8 14.8111V17.7557L12.1 15.7338V12.7892ZM9.40001 24.2562L12.3286 26.4527L9.40001 28.6454L6.47141 26.4527L9.40001 24.2562ZM5.80001 31.2582V28.3126L8.50001 30.3345V33.2791L5.80001 31.2582ZM10.3 33.2791V30.3345L13 28.3126V31.2572L10.3 33.2791ZM15.7 44.1649L12.7723 41.9761L15.7 39.7796L18.6277 41.9752L15.7 44.1649ZM12.1 46.7816V43.8351L14.8 45.857V48.8025L12.1 46.7816ZM16.6 48.8025V45.857L19.3 43.8351V46.7806L16.6 48.8025ZM31 50.9564L28.0714 48.7647L31 46.5711L33.9286 48.7676L31 50.9564ZM27.4 53.5692V50.6265L30.1 52.6485V55.594L27.4 53.5692ZM31.9 55.594V52.6485L34.6 50.6265V53.5721L31.9 55.594ZM46.3 44.1649L43.3723 41.9732L46.3 39.7796L49.2277 41.9752L46.3 44.1649ZM42.7 46.7787V43.8351L45.4 45.857V48.8025L42.7 46.7787ZM47.2 48.8025V45.857L49.9 43.8351V46.7806L47.2 48.8025ZM47.758 38.5066L47.3287 38.1845C47.0263 37.9595 46.6675 37.8389 46.3 37.8389C45.9325 37.8389 45.5737 37.9595 45.2713 38.1845L41.6713 40.8856C41.433 41.0645 41.2384 41.303 41.1041 41.5805C40.9698 41.8581 40.8998 42.1666 40.9 42.4797V46.4527C39.4631 47.4057 37.913 48.1442 36.292 48.6483C36.172 48.2572 35.9397 47.9174 35.6287 47.6781L32.0287 44.976C31.7262 44.752 31.3679 44.6321 31.0009 44.6321C30.6339 44.6321 30.2756 44.752 29.9731 44.976L26.3731 47.6781C26.0624 47.9175 25.8304 48.2573 25.7107 48.6483C24.0888 48.1445 22.5378 47.4059 21.1 46.4527V42.4797C21.1 42.1669 21.0298 41.8588 20.8955 41.5816C20.7612 41.3044 20.5668 41.0663 20.3287 40.8875L16.7287 38.1874C16.4263 37.9624 16.0675 37.8419 15.7 37.8419C15.3325 37.8419 14.9737 37.9624 14.6713 38.1874L14.242 38.5105C13.5331 37.049 12.995 35.4984 12.64 33.8943L14.0314 32.8503C14.269 32.6713 14.4629 32.433 14.5967 32.1558C14.7305 31.8786 14.8003 31.5707 14.8 31.2582V26.9572C14.8001 26.6443 14.73 26.336 14.5957 26.0586C14.4614 25.7812 14.2669 25.543 14.0287 25.3641L12.64 24.3202C12.9957 22.716 13.535 21.1656 14.2456 19.7049L14.6758 20.028C14.978 20.2532 15.3367 20.3738 15.7041 20.3738C16.0714 20.3738 16.4301 20.2532 16.7323 20.028L20.3323 17.3279C20.57 17.1485 20.7639 16.9099 20.8975 16.6324C21.0312 16.3548 21.1007 16.0465 21.1 15.7338V11.7559C22.5371 10.8035 24.0871 10.0652 25.708 9.56132C25.8276 9.95264 26.06 10.2926 26.3713 10.5315L29.9713 13.2326C30.2735 13.4578 30.6322 13.5785 30.9996 13.5785C31.3669 13.5785 31.7256 13.4578 32.0278 13.2326L35.6278 10.5325C35.9391 10.2935 36.1715 9.95361 36.2911 9.56229C37.9125 10.0672 39.463 10.8067 40.9 11.7608V15.7387C40.8999 16.0516 40.97 16.3599 41.1043 16.6373C41.2386 16.9147 41.4331 17.1529 41.6713 17.3318L45.2713 20.0328C45.5735 20.2581 45.9322 20.3787 46.2996 20.3787C46.6669 20.3787 47.0256 20.2581 47.3278 20.0328L47.7571 19.7107C48.4663 21.1698 49.0048 22.7181 49.36 24.3202L47.9677 25.3641C47.7302 25.5434 47.5363 25.7819 47.4027 26.0592C47.269 26.3366 47.1995 26.6447 47.2 26.9572V31.2582C47.2 31.5709 47.2702 31.879 47.4045 32.1562C47.5388 32.4335 47.7332 32.6716 47.9713 32.8503L49.36 33.8943C49.0051 35.4982 48.4669 37.0484 47.758 38.5096V38.5066ZM49 31.2582V28.3126L51.7 30.3345V33.2791L49 31.2582ZM53.5 33.2791V30.3345L56.2 28.3126V31.2572L53.5 33.2791Z" fill="white"/>
<path d="M26.6532 24.1176C26.7191 24.2234 26.8037 24.3141 26.9022 24.3846C27.0007 24.4551 27.1111 24.504 27.2271 24.5285C27.3431 24.553 27.4624 24.5526 27.5783 24.5274C27.6941 24.5022 27.8043 24.4526 27.9024 24.3815L30.9849 22.15C31.0852 22.08 31.1716 21.9892 31.239 21.8829C31.3064 21.7765 31.3535 21.6568 31.3775 21.5306C31.4016 21.4044 31.402 21.2743 31.379 21.1479C31.3559 21.0216 31.3097 20.9014 31.243 20.7945C31.1764 20.6875 31.0907 20.596 30.9909 20.5251C30.8911 20.4543 30.7792 20.4056 30.6618 20.3819C30.5443 20.3581 30.4237 20.3598 30.3069 20.3869C30.1901 20.4139 30.0794 20.4658 29.9814 20.5394L26.898 22.7709C26.7999 22.842 26.7157 22.9332 26.6503 23.0394C26.5849 23.1455 26.5395 23.2645 26.5168 23.3896C26.4941 23.5146 26.4944 23.6433 26.5178 23.7682C26.5412 23.8931 26.5872 24.0118 26.6532 24.1176Z" fill="#0072A2"/>
<path d="M24.7008 29.1064C24.4621 29.1064 24.2332 29.2087 24.0644 29.3906C23.8956 29.5726 23.8008 29.8193 23.8008 30.0767V32.9873C23.8008 33.2446 23.8956 33.4914 24.0644 33.6733C24.2332 33.8553 24.4621 33.9575 24.7008 33.9575C24.9395 33.9575 25.1684 33.8553 25.3372 33.6733C25.506 33.4914 25.6008 33.2446 25.6008 32.9873V30.0767C25.6008 29.8193 25.506 29.5726 25.3372 29.3906C25.1684 29.2087 24.9395 29.1064 24.7008 29.1064Z" fill="#0072A2"/>
</g>
</g>
<defs>
<filter id="filter0_d_2226_5434" x="0" y="0" width="62" height="66.2129" filterUnits="userSpaceOnUse" color-interpolation-filters="sRGB">
<feFlood flood-opacity="0" result="BackgroundImageFix"/>
<feColorMatrix in="SourceAlpha" type="matrix" values="0 0 0 0 0 0 0 0 0 0 0 0 0 0 0 0 0 0 127 0" result="hardAlpha"/>
<feOffset dy="4"/>
<feGaussianBlur stdDeviation="2"/>
<feComposite in2="hardAlpha" operator="out"/>
<feColorMatrix type="matrix" values="0 0 0 0 0 0 0 0 0 0 0 0 0 0 0 0 0 0 0.25 0"/>
<feBlend mode="normal" in2="BackgroundImageFix" result="effect1_dropShadow_2226_5434"/>
<feBlend mode="normal" in="SourceGraphic" in2="effect1_dropShadow_2226_5434" result="shape"/>
</filter>
<clipPath id="clip0_2226_5434">
<rect width="54" height="58.2128" fill="white" transform="translate(4)"/>
</clipPath>
</defs>
</svg>
