<svg width="87" height="87" viewBox="0 0 87 87" fill="none" xmlns="http://www.w3.org/2000/svg">
<g id="software-development 1" clip-path="url(#clip0_641_8583)">
<g id="Group">
<g id="Group_2">
<path id="Vector" d="M83.6231 63.7701H81.6041C82.2328 62.8438 82.6007 61.7269 82.6007 60.5256V18.2246C82.6007 15.0309 80.0026 12.4326 76.8089 12.4326H10.1912C6.99755 12.4326 4.39945 15.0309 4.39945 18.2246V60.5256C4.39945 61.7269 4.76733 62.8438 5.39604 63.7701H3.37703C1.51485 63.7701 0 65.2849 0 67.1469C0 71.2387 3.32877 74.5674 7.42032 74.5674H56.7352C57.4387 74.5674 58.0089 73.9973 58.0089 73.2937C58.0089 72.59 57.4387 72.02 56.7352 72.02H7.42032C4.73334 72.02 2.5473 69.8337 2.5473 67.1468C2.5473 66.6893 2.91943 66.3172 3.37686 66.3172H33.2734V66.6382C33.2734 68.7357 34.9799 70.4422 37.0775 70.4422H49.922C52.0195 70.4422 53.7261 68.7357 53.7261 66.6382V66.3172H83.6226C84.0801 66.3172 84.4522 66.6893 84.4522 67.1468C84.4522 69.8337 82.2661 72.02 79.5792 72.02H62.5217C61.8183 72.02 61.248 72.59 61.248 73.2937C61.248 73.9973 61.8183 74.5674 62.5217 74.5674H79.5797C83.6712 74.5674 87 71.2387 87 67.1469C87 65.2849 85.4851 63.7701 83.6231 63.7701ZM51.1791 66.6384C51.1791 67.3315 50.6153 67.8951 49.9224 67.8951H37.0778C36.3849 67.8951 35.8211 67.3315 35.8211 66.6384V66.3174H51.1793V66.6384H51.1791ZM80.0533 60.5256C80.0533 62.3147 78.5979 63.7701 76.8088 63.7701H10.1912C8.40213 63.7701 6.94675 62.3147 6.94675 60.5256V18.2246C6.94675 16.4355 8.40213 14.9801 10.1912 14.9801H76.8089C78.598 14.9801 80.0534 16.4355 80.0534 18.2246V60.5256H80.0533Z" fill="#424242"/>
<path id="Vector_2" d="M17.5047 27.3453H19.6104C20.3138 27.3453 20.8841 26.7752 20.8841 26.0716C20.8841 25.3679 20.3138 24.7979 19.6104 24.7979H17.5047C16.8012 24.7979 16.231 25.3679 16.231 26.0716C16.231 26.7752 16.8014 27.3453 17.5047 27.3453Z" fill="#42A5F5"/>
<path id="Vector_3" d="M17.5047 32.6666H19.6104C20.3138 32.6666 20.8841 32.0965 20.8841 31.3929C20.8841 30.6894 20.3138 30.1191 19.6104 30.1191H17.5047C16.8012 30.1191 16.231 30.6892 16.231 31.3929C16.2311 32.0964 16.8014 32.6666 17.5047 32.6666Z" fill="#42A5F5"/>
<path id="Vector_4" d="M17.5047 37.9879H19.6104C20.3138 37.9879 20.8841 37.4178 20.8841 36.7142C20.8841 36.0105 20.3138 35.4404 19.6104 35.4404H17.5047C16.8012 35.4404 16.231 36.0105 16.231 36.7142C16.231 37.4178 16.8014 37.9879 17.5047 37.9879Z" fill="#42A5F5"/>
<path id="Vector_5" d="M17.5047 43.3092H19.6104C20.3138 43.3092 20.8841 42.7391 20.8841 42.0355C20.8841 41.332 20.3138 40.7617 19.6104 40.7617H17.5047C16.8012 40.7617 16.231 41.3318 16.231 42.0355C16.2311 42.7389 16.8014 43.3092 17.5047 43.3092Z" fill="#42A5F5"/>
<path id="Vector_6" d="M17.5047 48.6305H19.6104C20.3138 48.6305 20.8841 48.0604 20.8841 47.3567C20.8841 46.6531 20.3138 46.083 19.6104 46.083H17.5047C16.8012 46.083 16.231 46.6531 16.231 47.3567C16.231 48.0604 16.8014 48.6305 17.5047 48.6305Z" fill="#42A5F5"/>
<path id="Vector_7" d="M17.5047 53.9518H19.6104C20.3138 53.9518 20.8841 53.3817 20.8841 52.678C20.8841 51.9746 20.3138 51.4043 19.6104 51.4043H17.5047C16.8012 51.4043 16.231 51.9744 16.231 52.678C16.2311 53.3817 16.8014 53.9518 17.5047 53.9518Z" fill="#42A5F5"/>
<path id="Vector_8" d="M31.5667 27.3453H35.5864C36.2898 27.3453 36.8601 26.7752 36.8601 26.0716C36.8601 25.3679 36.2898 24.7979 35.5864 24.7979H31.5667C30.8632 24.7979 30.293 25.3679 30.293 26.0716C30.293 26.7752 30.8632 27.3453 31.5667 27.3453Z" fill="#42A5F5"/>
<path id="Vector_9" d="M61.8103 51.4043H31.5667C30.8632 51.4043 30.293 51.9744 30.293 52.678C30.293 53.3815 30.8632 53.9518 31.5667 53.9518H61.8103C62.5137 53.9518 63.084 53.3817 63.084 52.678C63.084 51.9744 62.5137 51.4043 61.8103 51.4043Z" fill="#42A5F5"/>
<path id="Vector_10" d="M31.5667 37.9879H35.5864C36.2898 37.9879 36.8601 37.4178 36.8601 36.7142C36.8601 36.0105 36.2898 35.4404 35.5864 35.4404H31.5667C30.8632 35.4404 30.293 36.0105 30.293 36.7142C30.293 37.4178 30.8632 37.9879 31.5667 37.9879Z" fill="#42A5F5"/>
<path id="Vector_11" d="M31.5667 43.3092H35.5864C36.2898 43.3092 36.8601 42.7391 36.8601 42.0355C36.8601 41.332 36.2898 40.7617 35.5864 40.7617H31.5667C30.8632 40.7617 30.293 41.3318 30.293 42.0355C30.293 42.7389 30.8632 43.3092 31.5667 43.3092Z" fill="#42A5F5"/>
<path id="Vector_12" d="M53.4296 48.6305C54.1331 48.6305 54.7034 48.0604 54.7034 47.3567C54.7034 46.6531 54.1331 46.083 53.4296 46.083H49.41C48.7065 46.083 48.1362 46.6531 48.1362 47.3567C48.1362 48.0604 48.7065 48.6305 49.41 48.6305H53.4296Z" fill="#42A5F5"/>
<path id="Vector_13" d="M31.5667 48.6305H43.5003C44.2038 48.6305 44.7741 48.0604 44.7741 47.3567C44.7741 46.6531 44.2038 46.083 43.5003 46.083H31.5667C30.8632 46.083 30.293 46.6531 30.293 47.3567C30.293 48.0604 30.8632 48.6305 31.5667 48.6305Z" fill="#42A5F5"/>
<path id="Vector_14" d="M45.539 37.9879C46.2425 37.9879 46.8127 37.4178 46.8127 36.7142C46.8127 36.0105 46.2425 35.4404 45.539 35.4404H41.5193C40.8159 35.4404 40.2456 36.0105 40.2456 36.7142C40.2456 37.4178 40.8159 37.9879 41.5193 37.9879H45.539Z" fill="#42A5F5"/>
<path id="Vector_15" d="M61.8086 35.4404H50.4417C49.7382 35.4404 49.168 36.0105 49.168 36.7142C49.168 37.4178 49.7382 37.9879 50.4417 37.9879H61.8086C62.5121 37.9879 63.0824 37.4178 63.0824 36.7142C63.0824 36.0105 62.5121 35.4404 61.8086 35.4404Z" fill="#42A5F5"/>
<path id="Vector_16" d="M69.2745 24.7979H41.5193C40.8159 24.7979 40.2456 25.3679 40.2456 26.0716C40.2456 26.7752 40.8159 27.3453 41.5193 27.3453H69.2745C69.978 27.3453 70.5483 26.7752 70.5483 26.0716C70.5483 25.3679 69.978 24.7979 69.2745 24.7979Z" fill="#42A5F5"/>
<path id="Vector_17" d="M61.8103 30.1191H31.5667C30.8632 30.1191 30.293 30.6892 30.293 31.3929C30.293 32.0964 30.8632 32.6666 31.5667 32.6666H61.8103C62.5137 32.6666 63.084 32.0965 63.084 31.3929C63.084 30.6892 62.5137 30.1191 61.8103 30.1191Z" fill="#42A5F5"/>
<path id="Vector_18" d="M73.8305 18.4717H13.1645C11.3231 18.4717 9.82471 19.9699 9.82471 21.8115V25.4832C9.82471 26.1866 10.395 26.7569 11.0984 26.7569C11.8019 26.7569 12.3722 26.1868 12.3722 25.4832V21.8115C12.3722 21.3745 12.7277 21.0191 13.1645 21.0191H24.7388V57.7306H13.1645C12.7277 57.7306 12.3722 57.3751 12.3722 56.9382V31.3927C12.3722 30.6892 11.8019 30.119 11.0984 30.119C10.395 30.119 9.82471 30.6891 9.82471 31.3927V56.9381C9.82471 58.7795 11.3229 60.2779 13.1645 60.2779H73.8305C75.672 60.2779 77.1702 58.7797 77.1702 56.9381V21.8115C77.1702 19.9701 75.672 18.4717 73.8305 18.4717ZM74.6229 56.9381C74.6229 57.3751 74.2674 57.7304 73.8305 57.7304H27.286V21.0191H73.8304C74.2672 21.0191 74.6227 21.3746 74.6227 21.8115V56.9381H74.6229Z" fill="#424242"/>
</g>
</g>
</g>
<defs>
<clipPath id="clip0_641_8583">
<rect width="87" height="87" fill="white"/>
</clipPath>
</defs>
</svg>
