<svg width="87" height="87" viewBox="0 0 87 87" fill="none" xmlns="http://www.w3.org/2000/svg">
<g id="software-development 1" clip-path="url(#clip0_641_12106)">
<g id="Group">
<g id="Group_2">
<path id="Vector" d="M83.6231 63.7701H81.6041C82.2328 62.8438 82.6007 61.7269 82.6007 60.5256V18.2246C82.6007 15.0309 80.0026 12.4326 76.8089 12.4326H10.1912C6.99755 12.4326 4.39945 15.0309 4.39945 18.2246V60.5256C4.39945 61.7269 4.76733 62.8438 5.39604 63.7701H3.37703C1.51485 63.7701 0 65.2849 0 67.1469C0 71.2387 3.32877 74.5674 7.42032 74.5674H56.7352C57.4387 74.5674 58.0089 73.9973 58.0089 73.2937C58.0089 72.59 57.4387 72.02 56.7352 72.02H7.42032C4.73334 72.02 2.5473 69.8337 2.5473 67.1468C2.5473 66.6893 2.91943 66.3172 3.37686 66.3172H33.2734V66.6382C33.2734 68.7357 34.9799 70.4422 37.0775 70.4422H49.922C52.0195 70.4422 53.7261 68.7357 53.7261 66.6382V66.3172H83.6226C84.0801 66.3172 84.4522 66.6893 84.4522 67.1468C84.4522 69.8337 82.2661 72.02 79.5792 72.02H62.5217C61.8183 72.02 61.248 72.59 61.248 73.2937C61.248 73.9973 61.8183 74.5674 62.5217 74.5674H79.5797C83.6712 74.5674 87 71.2387 87 67.1469C87 65.2849 85.4851 63.7701 83.6231 63.7701ZM51.1791 66.6384C51.1791 67.3315 50.6153 67.8951 49.9224 67.8951H37.0778C36.3849 67.8951 35.8211 67.3315 35.8211 66.6384V66.3174H51.1793V66.6384H51.1791ZM80.0533 60.5256C80.0533 62.3147 78.5979 63.7701 76.8088 63.7701H10.1912C8.40213 63.7701 6.94675 62.3147 6.94675 60.5256V18.2246C6.94675 16.4355 8.40213 14.9801 10.1912 14.9801H76.8089C78.598 14.9801 80.0534 16.4355 80.0534 18.2246V60.5256H80.0533Z" fill="white"/>
<path id="Vector_2" d="M17.5047 27.3453H19.6104C20.3138 27.3453 20.8841 26.7752 20.8841 26.0716C20.8841 25.3679 20.3138 24.7979 19.6104 24.7979H17.5047C16.8012 24.7979 16.231 25.3679 16.231 26.0716C16.231 26.7752 16.8014 27.3453 17.5047 27.3453Z" fill="white"/>
<path id="Vector_3" d="M17.5047 32.6666H19.6104C20.3138 32.6666 20.8841 32.0965 20.8841 31.3929C20.8841 30.6894 20.3138 30.1191 19.6104 30.1191H17.5047C16.8012 30.1191 16.231 30.6892 16.231 31.3929C16.2311 32.0964 16.8014 32.6666 17.5047 32.6666Z" fill="white"/>
<path id="Vector_4" d="M17.5047 37.9884H19.6104C20.3138 37.9884 20.8841 37.4183 20.8841 36.7147C20.8841 36.011 20.3138 35.4409 19.6104 35.4409H17.5047C16.8012 35.4409 16.231 36.011 16.231 36.7147C16.231 37.4183 16.8014 37.9884 17.5047 37.9884Z" fill="white"/>
<path id="Vector_5" d="M17.5047 43.3097H19.6104C20.3138 43.3097 20.8841 42.7396 20.8841 42.0359C20.8841 41.3325 20.3138 40.7622 19.6104 40.7622H17.5047C16.8012 40.7622 16.231 41.3323 16.231 42.0359C16.2311 42.7394 16.8014 43.3097 17.5047 43.3097Z" fill="white"/>
<path id="Vector_6" d="M17.5047 48.631H19.6104C20.3138 48.631 20.8841 48.0609 20.8841 47.3572C20.8841 46.6536 20.3138 46.0835 19.6104 46.0835H17.5047C16.8012 46.0835 16.231 46.6536 16.231 47.3572C16.231 48.0609 16.8014 48.631 17.5047 48.631Z" fill="white"/>
<path id="Vector_7" d="M17.5047 53.9518H19.6104C20.3138 53.9518 20.8841 53.3817 20.8841 52.678C20.8841 51.9746 20.3138 51.4043 19.6104 51.4043H17.5047C16.8012 51.4043 16.231 51.9744 16.231 52.678C16.2311 53.3817 16.8014 53.9518 17.5047 53.9518Z" fill="white"/>
<path id="Vector_8" d="M31.5667 27.3453H35.5864C36.2898 27.3453 36.8601 26.7752 36.8601 26.0716C36.8601 25.3679 36.2898 24.7979 35.5864 24.7979H31.5667C30.8632 24.7979 30.293 25.3679 30.293 26.0716C30.293 26.7752 30.8632 27.3453 31.5667 27.3453Z" fill="white"/>
<path id="Vector_9" d="M61.8103 51.4048H31.5667C30.8632 51.4048 30.293 51.9749 30.293 52.6785C30.293 53.382 30.8632 53.9523 31.5667 53.9523H61.8103C62.5137 53.9523 63.084 53.3822 63.084 52.6785C63.084 51.9749 62.5137 51.4048 61.8103 51.4048Z" fill="white"/>
<path id="Vector_10" d="M31.5667 37.9884H35.5864C36.2898 37.9884 36.8601 37.4183 36.8601 36.7147C36.8601 36.011 36.2898 35.4409 35.5864 35.4409H31.5667C30.8632 35.4409 30.293 36.011 30.293 36.7147C30.293 37.4183 30.8632 37.9884 31.5667 37.9884Z" fill="white"/>
<path id="Vector_11" d="M31.5667 43.3097H35.5864C36.2898 43.3097 36.8601 42.7396 36.8601 42.0359C36.8601 41.3325 36.2898 40.7622 35.5864 40.7622H31.5667C30.8632 40.7622 30.293 41.3323 30.293 42.0359C30.293 42.7394 30.8632 43.3097 31.5667 43.3097Z" fill="white"/>
<path id="Vector_12" d="M53.4296 48.631C54.1331 48.631 54.7034 48.0609 54.7034 47.3572C54.7034 46.6536 54.1331 46.0835 53.4296 46.0835H49.41C48.7065 46.0835 48.1362 46.6536 48.1362 47.3572C48.1362 48.0609 48.7065 48.631 49.41 48.631H53.4296Z" fill="white"/>
<path id="Vector_13" d="M31.5667 48.631H43.5003C44.2038 48.631 44.7741 48.0609 44.7741 47.3572C44.7741 46.6536 44.2038 46.0835 43.5003 46.0835H31.5667C30.8632 46.0835 30.293 46.6536 30.293 47.3572C30.293 48.0609 30.8632 48.631 31.5667 48.631Z" fill="white"/>
<path id="Vector_14" d="M45.539 37.9884C46.2425 37.9884 46.8127 37.4183 46.8127 36.7147C46.8127 36.011 46.2425 35.4409 45.539 35.4409H41.5193C40.8159 35.4409 40.2456 36.011 40.2456 36.7147C40.2456 37.4183 40.8159 37.9884 41.5193 37.9884H45.539Z" fill="white"/>
<path id="Vector_15" d="M61.8086 35.4409H50.4417C49.7382 35.4409 49.168 36.011 49.168 36.7147C49.168 37.4183 49.7382 37.9884 50.4417 37.9884H61.8086C62.5121 37.9884 63.0824 37.4183 63.0824 36.7147C63.0824 36.011 62.5121 35.4409 61.8086 35.4409Z" fill="white"/>
<path id="Vector_16" d="M69.2745 24.7983H41.5193C40.8159 24.7983 40.2456 25.3684 40.2456 26.0721C40.2456 26.7757 40.8159 27.3458 41.5193 27.3458H69.2745C69.978 27.3458 70.5483 26.7757 70.5483 26.0721C70.5483 25.3684 69.978 24.7983 69.2745 24.7983Z" fill="white"/>
<path id="Vector_17" d="M61.8103 30.1196H31.5667C30.8632 30.1196 30.293 30.6897 30.293 31.3934C30.293 32.0968 30.8632 32.6671 31.5667 32.6671H61.8103C62.5137 32.6671 63.084 32.097 63.084 31.3934C63.084 30.6897 62.5137 30.1196 61.8103 30.1196Z" fill="white"/>
<path id="Vector_18" d="M73.8305 18.4722H13.1645C11.3231 18.4722 9.82471 19.9704 9.82471 21.812V25.4837C9.82471 26.1871 10.395 26.7574 11.0984 26.7574C11.8019 26.7574 12.3722 26.1873 12.3722 25.4837V21.812C12.3722 21.3749 12.7277 21.0196 13.1645 21.0196H24.7388V57.7311H13.1645C12.7277 57.7311 12.3722 57.3756 12.3722 56.9387V31.3932C12.3722 30.6897 11.8019 30.1195 11.0984 30.1195C10.395 30.1195 9.82471 30.6895 9.82471 31.3932V56.9386C9.82471 58.78 11.3229 60.2784 13.1645 60.2784H73.8305C75.672 60.2784 77.1702 58.7802 77.1702 56.9386V21.812C77.1702 19.9705 75.672 18.4722 73.8305 18.4722ZM74.6229 56.9386C74.6229 57.3756 74.2674 57.7309 73.8305 57.7309H27.286V21.0196H73.8304C74.2672 21.0196 74.6227 21.3751 74.6227 21.812V56.9386H74.6229Z" fill="white"/>
</g>
</g>
</g>
<defs>
<clipPath id="clip0_641_12106">
<rect width="87" height="87" fill="white"/>
</clipPath>
</defs>
</svg>
