<svg width="72" height="72" viewBox="0 0 72 72" fill="none" xmlns="http://www.w3.org/2000/svg">
<g id="web-programming 1">
<path id="Vector" d="M28.4066 50.4568C28.1347 50.4568 27.8607 50.3632 27.6372 50.1729L19.9452 43.6232C19.6799 43.397 19.5273 43.0667 19.5273 42.7178C19.5273 42.3695 19.6806 42.0392 19.9452 41.813L27.6372 35.2633C28.1367 34.8375 28.8869 34.8978 29.3127 35.3973C29.7379 35.8975 29.6782 36.6477 29.1781 37.0729L22.5495 42.7178L29.1781 48.3626C29.6782 48.7885 29.7379 49.5387 29.3127 50.0382C29.0772 50.3148 28.7429 50.4568 28.4066 50.4568Z" fill="white"/>
<path id="Vector_2" d="M43.5916 50.4568C43.2553 50.4568 42.921 50.3148 42.6862 50.0382C42.2603 49.5387 42.3207 48.7885 42.8202 48.3626L49.4488 42.7178L42.8202 37.0729C42.3207 36.6477 42.2603 35.8975 42.6862 35.3973C43.1114 34.8978 43.8622 34.8375 44.3611 35.2633L52.053 41.813C52.3183 42.0392 52.4709 42.3695 52.4709 42.7178C52.4709 43.0667 52.3183 43.397 52.053 43.6232L44.3611 50.1729C44.1375 50.3632 43.8636 50.4568 43.5916 50.4568Z" fill="white"/>
<path id="Vector_3" d="M33.2765 55.3691C33.1949 55.3691 33.1127 55.3604 33.0297 55.3432C32.3876 55.2079 31.9764 54.5771 32.1117 53.935L36.9055 31.1743C37.0409 30.5322 37.671 30.1209 38.3138 30.2562C38.9559 30.3915 39.3671 31.0217 39.2318 31.6645L34.438 54.4252C34.3199 54.985 33.8264 55.3691 33.2765 55.3691Z" fill="white"/>
<path id="Vector_4" d="M64.0189 67.7691H7.98113C3.58063 67.7691 0 64.1892 0 59.788V12.2262C0 7.82575 3.58063 4.24512 7.98113 4.24512H64.0189C68.4194 4.24512 72 7.82575 72 12.2262V59.788C72 64.1892 68.4194 67.7691 64.0189 67.7691ZM7.98113 6.62248C4.89136 6.62248 2.37736 9.13648 2.37736 12.2262V59.788C2.37736 62.8778 4.89136 65.3918 7.98113 65.3918H64.0189C67.1086 65.3918 69.6226 62.8778 69.6226 59.788V12.2262C69.6226 9.13648 67.1086 6.62248 64.0189 6.62248H7.98113Z" fill="white"/>
<path id="Vector_5" d="M70.8113 23.2797H1.18868C0.531987 23.2797 0 22.7477 0 22.091C0 21.435 0.531987 20.9023 1.18868 20.9023H70.8113C71.468 20.9023 72 21.435 72 22.091C72 22.7477 71.468 23.2797 70.8113 23.2797Z" fill="white"/>
<path id="Vector_6" d="M20.3086 17.5918C18.235 17.5918 16.5469 15.9036 16.5469 13.8301C16.5469 11.7559 18.235 10.0684 20.3086 10.0684C22.3828 10.0684 24.0703 11.7559 24.0703 13.8301C24.0703 15.9036 22.3828 17.5918 20.3086 17.5918ZM20.3086 12.4457C19.5458 12.4457 18.9242 13.0666 18.9242 13.8301C18.9242 14.5936 19.5458 15.2144 20.3086 15.2144C21.0721 15.2144 21.693 14.5936 21.693 13.8301C21.693 13.0666 21.0721 12.4457 20.3086 12.4457Z" fill="white"/>
<path id="Vector_7" d="M8.75 17.5547C6.67578 17.5547 4.98828 15.8672 4.98828 13.793C4.98828 11.7187 6.67578 10.0312 8.75 10.0312C10.8242 10.0312 12.5117 11.7187 12.5117 13.793C12.5117 15.8672 10.8242 17.5547 8.75 17.5547ZM8.75 12.4086C7.98717 12.4086 7.36564 13.0301 7.36564 13.793C7.36564 14.5565 7.98717 15.1773 8.75 15.1773C9.51349 15.1773 10.1344 14.5565 10.1344 13.793C10.1344 13.0301 9.51349 12.4086 8.75 12.4086Z" fill="white"/>
<path id="Vector_8" d="M31.8665 17.6273C29.793 17.6273 28.1055 15.9398 28.1055 13.8655C28.1055 11.792 29.793 10.1045 31.8665 10.1045C33.9407 10.1045 35.6282 11.792 35.6282 13.8655C35.6282 15.9398 33.9407 17.6273 31.8665 17.6273ZM31.8665 12.4812C31.1037 12.4812 30.4828 13.1021 30.4828 13.8655C30.4828 14.629 31.1037 15.2499 31.8665 15.2499C32.63 15.2499 33.2509 14.629 33.2509 13.8655C33.2509 13.1021 32.63 12.4812 31.8665 12.4812Z" fill="white"/>
</g>
</svg>
