<svg width="79" height="79" viewBox="0 0 79 79" fill="none" xmlns="http://www.w3.org/2000/svg">
<path d="M54.0066 20.3101H24.9922C22.389 20.3129 20.2802 22.4224 20.2773 25.0249V54.0393C20.2802 56.6418 22.389 58.7513 24.9922 58.7541H54.0066C56.6091 58.7513 58.7186 56.6418 58.7214 54.0393V25.0249C58.7186 22.4224 56.6091 20.3129 54.0066 20.3101ZM56.5453 54.0393C56.5432 55.4404 55.4077 56.5766 54.0066 56.578H24.9922C23.5903 56.5766 22.4548 55.4404 22.4534 54.0393V25.0249C22.4548 23.6231 23.5903 22.4876 24.9922 22.4861H54.0066C55.4077 22.4876 56.5439 23.6231 56.5453 25.0249V54.0393Z" fill="#424242"/>
<path d="M57.6322 14.8701H21.3642C17.76 14.8744 14.8395 17.7942 14.8359 21.3984V57.6663C14.8395 61.2698 17.76 64.1903 21.3642 64.1946H57.6322C61.2356 64.1903 64.1561 61.2698 64.1604 57.6663V21.3984C64.1561 17.7942 61.2356 14.8744 57.6322 14.8701ZM61.9843 57.6663C61.9815 60.0691 60.0342 62.0157 57.6322 62.0185H21.3642C18.9614 62.0157 17.0148 60.0691 17.012 57.6663V21.3984C17.0141 18.9956 18.9614 17.049 21.3642 17.0462H57.6322C60.0342 17.049 61.9815 18.9956 61.9843 21.3984V57.6663Z" fill="#424242"/>
<path d="M43.4201 67.7568C42.8187 67.7568 42.332 68.2442 42.332 68.8449V77.9119C42.332 78.5133 42.8187 78.9999 43.4201 78.9999C44.0207 78.9999 44.5081 78.5133 44.5081 77.9119V68.8449C44.5081 68.2442 44.0207 67.7568 43.4201 67.7568Z" fill="#42A5F5"/>
<path d="M35.5802 67.7568C34.9788 67.7568 34.4922 68.2442 34.4922 68.8449V77.9119C34.4922 78.5133 34.9788 78.9999 35.5802 78.9999C36.1809 78.9999 36.6683 78.5133 36.6683 77.9119V68.8449C36.6683 68.2442 36.1809 67.7568 35.5802 67.7568Z" fill="#42A5F5"/>
<path d="M27.7404 67.7568C27.1397 67.7568 26.6523 68.2442 26.6523 68.8449V77.9119C26.6523 78.5133 27.1397 78.9999 27.7404 78.9999C28.3411 78.9999 28.8284 78.5133 28.8284 77.9119V68.8449C28.8284 68.2442 28.3411 67.7568 27.7404 67.7568Z" fill="#424242"/>
<path d="M51.2599 67.7568C50.6585 67.7568 50.1719 68.2442 50.1719 68.8449V77.9119C50.1719 78.5133 50.6585 78.9999 51.2599 78.9999C51.8606 78.9999 52.348 78.5133 52.348 77.9119V68.8449C52.348 68.2442 51.8606 67.7568 51.2599 67.7568Z" fill="#424242"/>
<path d="M36.6683 10.155V1.08804C36.6683 0.487351 36.1809 0 35.5802 0C34.9788 0 34.4922 0.487351 34.4922 1.08804V10.155C34.4922 10.7557 34.9788 11.2431 35.5802 11.2431C36.1809 11.2431 36.6683 10.7557 36.6683 10.155Z" fill="#42A5F5"/>
<path d="M44.5081 10.155V1.08804C44.5081 0.487351 44.0207 0 43.4201 0C42.8187 0 42.332 0.487351 42.332 1.08804V10.155C42.332 10.7557 42.8187 11.2431 43.4201 11.2431C44.0207 11.2431 44.5081 10.7557 44.5081 10.155Z" fill="#42A5F5"/>
<path d="M52.348 10.155V1.08804C52.348 0.487351 51.8606 0 51.2599 0C50.6585 0 50.1719 0.487351 50.1719 1.08804V10.155C50.1719 10.7557 50.6585 11.2431 51.2599 11.2431C51.8606 11.2431 52.348 10.7557 52.348 10.155Z" fill="#424242"/>
<path d="M28.8284 10.155V1.08804C28.8284 0.487351 28.3411 0 27.7404 0C27.1397 0 26.6523 0.487351 26.6523 1.08804V10.155C26.6523 10.7557 27.1397 11.2431 27.7404 11.2431C28.3411 11.2431 28.8284 10.7557 28.8284 10.155Z" fill="#424242"/>
<path d="M77.9128 34.4922H68.8459C68.2452 34.4922 67.7578 34.9788 67.7578 35.5802C67.7578 36.1809 68.2452 36.6683 68.8459 36.6683H77.9128C78.5142 36.6683 79.0009 36.1809 79.0009 35.5802C79.0009 34.9788 78.5142 34.4922 77.9128 34.4922Z" fill="#424242"/>
<path d="M77.9128 42.332H68.8459C68.2452 42.332 67.7578 42.8187 67.7578 43.4201C67.7578 44.0207 68.2452 44.5081 68.8459 44.5081H77.9128C78.5142 44.5081 79.0009 44.0207 79.0009 43.4201C79.0009 42.8187 78.5142 42.332 77.9128 42.332Z" fill="#424242"/>
<path d="M77.9128 50.1724H68.8459C68.2452 50.1724 67.7578 50.659 67.7578 51.2604C67.7578 51.8611 68.2452 52.3484 68.8459 52.3484H77.9128C78.5142 52.3484 79.0009 51.8611 79.0009 51.2604C79.0009 50.659 78.5142 50.1724 77.9128 50.1724Z" fill="#42A5F5"/>
<path d="M77.9128 26.6519H68.8459C68.2452 26.6519 67.7578 27.1392 67.7578 27.7399C67.7578 28.3406 68.2452 28.8279 68.8459 28.8279H77.9128C78.5142 28.8279 79.0009 28.3406 79.0009 27.7399C79.0009 27.1392 78.5142 26.6519 77.9128 26.6519Z" fill="#42A5F5"/>
<path d="M10.155 42.332H1.08804C0.487351 42.332 0 42.8187 0 43.4201C0 44.0207 0.487351 44.5081 1.08804 44.5081H10.155C10.7557 44.5081 11.2431 44.0207 11.2431 43.4201C11.2431 42.8187 10.7557 42.332 10.155 42.332Z" fill="#424242"/>
<path d="M10.155 34.4922H1.08804C0.487351 34.4922 0 34.9788 0 35.5802C0 36.1809 0.487351 36.6683 1.08804 36.6683H10.155C10.7557 36.6683 11.2431 36.1809 11.2431 35.5802C11.2431 34.9788 10.7557 34.4922 10.155 34.4922Z" fill="#424242"/>
<path d="M10.155 26.6519H1.08804C0.487351 26.6519 0 27.1392 0 27.7399C0 28.3406 0.487351 28.8279 1.08804 28.8279H10.155C10.7557 28.8279 11.2431 28.3406 11.2431 27.7399C11.2431 27.1392 10.7557 26.6519 10.155 26.6519Z" fill="#42A5F5"/>
<path d="M10.155 50.1724H1.08804C0.487351 50.1724 0 50.659 0 51.2604C0 51.8611 0.487351 52.3484 1.08804 52.3484H10.155C10.7557 52.3484 11.2431 51.8611 11.2431 51.2604C11.2431 50.659 10.7557 50.1724 10.155 50.1724Z" fill="#42A5F5"/>
<path d="M38.4841 31.7857C38.324 31.3068 37.7262 31.0674 37.1276 31.0674C36.529 31.0674 35.9503 31.3068 35.7909 31.7857L31.8213 44.7111C31.805 44.7699 31.7986 44.8308 31.8014 44.891C31.8014 45.4095 32.5395 45.7687 33.1183 45.7687C33.4774 45.7687 33.7565 45.649 33.8564 45.3295L34.6738 42.4975H39.6012L40.4186 45.3295C40.5185 45.649 40.7976 45.7687 41.1369 45.7687C41.7355 45.7687 42.4736 45.3897 42.4736 44.891C42.47 44.8294 42.4566 44.7685 42.4332 44.7111L38.4841 31.7857ZM35.1328 40.8017L37.1276 33.9596L39.1223 40.8017H35.1328Z" fill="#42A5F5"/>
<path d="M45.1084 31.187C44.5898 31.187 44.0508 31.3861 44.0508 31.8649V45.0701C44.0508 45.5292 44.5898 45.7686 45.1084 45.7686C45.6467 45.7686 46.1652 45.5292 46.1652 45.0701V31.8656C46.1652 31.3861 45.6467 31.187 45.1084 31.187Z" fill="#42A5F5"/>
</svg>
