<svg width="74" height="66" viewBox="0 0 74 66" fill="none" xmlns="http://www.w3.org/2000/svg">
<path d="M55.5723 19.9922H18.4277C15.4391 19.9922 13.0078 22.4235 13.0078 25.4121V49.4043C13.0078 50.0029 13.4931 50.4883 14.0918 50.4883C14.6904 50.4883 15.1758 50.0029 15.1758 49.4043V25.4121C15.1758 23.6189 16.6345 22.1602 18.4277 22.1602H55.5723C57.3655 22.1602 58.8242 23.6189 58.8242 25.4121V55.9082C58.8242 57.7014 57.3655 59.1602 55.5723 59.1602H18.4277C16.6345 59.1602 15.1758 57.7014 15.1758 55.9082V53.7402C15.1758 53.1416 14.6904 52.6562 14.0918 52.6562C13.4931 52.6562 13.0078 53.1416 13.0078 53.7402V55.9082C13.0078 58.8968 15.4391 61.3281 18.4277 61.3281H55.5723C58.5609 61.3281 60.9922 58.8968 60.9922 55.9082V25.4121C60.9922 22.4235 58.5609 19.9922 55.5723 19.9922Z" fill="#424242"/>
<path d="M23.9941 46.1523C23.3955 46.1523 22.9102 46.6377 22.9102 47.2363V53.7402C22.9102 54.3389 23.3955 54.8242 23.9941 54.8242H50.0098C50.6084 54.8242 51.0938 54.3389 51.0938 53.7402V47.2363C51.0938 46.6377 50.6084 46.1523 50.0098 46.1523H23.9941ZM35.918 52.6562H31.582V48.3203H35.918V52.6562ZM38.0859 48.3203H42.4219V52.6562H38.0859V48.3203ZM25.0781 48.3203H29.4141V52.6562H25.0781V48.3203ZM48.9258 52.6562H44.5898V48.3203H48.9258V52.6562Z" fill="#42A5F5"/>
<path d="M25.0039 26.4961C20.7801 26.4961 17.3438 29.9325 17.3438 34.1562C17.3438 38.38 20.7801 41.8164 25.0039 41.8164C29.2277 41.8164 32.6641 38.38 32.6641 34.1562C32.6641 29.9325 29.2277 26.4961 25.0039 26.4961ZM25.0039 39.6484C21.9755 39.6484 19.5117 37.1846 19.5117 34.1562C19.5117 31.1279 21.9755 28.6641 25.0039 28.6641C28.0323 28.6641 30.4961 31.1279 30.4961 34.1562C30.4961 37.1846 28.0323 39.6484 25.0039 39.6484Z" fill="#42A5F5"/>
<path d="M48.9961 41.8164C53.2199 41.8164 56.6562 38.38 56.6562 34.1562C56.6562 29.9325 53.2199 26.4961 48.9961 26.4961C44.7723 26.4961 41.3359 29.9325 41.3359 34.1562C41.3359 38.38 44.7723 41.8164 48.9961 41.8164ZM48.9961 28.6641C52.0245 28.6641 54.4883 31.1279 54.4883 34.1562C54.4883 37.1846 52.0245 39.6484 48.9961 39.6484C45.9677 39.6484 43.5039 37.1846 43.5039 34.1562C43.5039 31.1279 45.9677 28.6641 48.9961 28.6641Z" fill="#42A5F5"/>
<path d="M1.08398 6.83984C0.485336 6.83984 0 7.32518 0 7.92383V42.9004C0 43.499 0.485336 43.9844 1.08398 43.9844C1.68263 43.9844 2.16797 43.499 2.16797 42.9004V7.92383C2.16797 7.32518 1.68263 6.83984 1.08398 6.83984Z" fill="#42A5F5"/>
<path d="M65.3281 26.4607V16.5957C65.3281 11.2162 60.9517 6.83984 55.5723 6.83984H52.7559L48.7417 0.818672C48.5407 0.517035 48.2023 0.335938 47.8398 0.335938H26.1602C25.7977 0.335938 25.4593 0.517035 25.2583 0.818672L21.2441 6.83984H18.4277C13.0483 6.83984 8.67188 11.2162 8.67188 16.5957V26.4607C6.20097 26.9642 4.33594 29.154 4.33594 31.7715V42.9004C4.33594 45.5179 6.20097 47.7076 8.67188 48.2112V55.9082C8.67188 61.2877 13.0483 65.6641 18.4277 65.6641H55.5723C60.9517 65.6641 65.3281 61.2877 65.3281 55.9082V48.2112C67.799 47.7076 69.6641 45.5179 69.6641 42.9004V31.7715C69.6641 29.154 67.799 26.9642 65.3281 26.4607ZM26.7403 2.50391H47.2598L50.1505 6.83984H23.8497L26.7403 2.50391ZM6.50391 42.9004V31.7715C6.50391 30.3584 7.41026 29.1534 8.67188 28.706V45.9659C7.41026 45.5184 6.50391 44.3135 6.50391 42.9004ZM63.1602 55.9082C63.1602 60.0922 59.7563 63.4961 55.5723 63.4961H18.4277C14.2437 63.4961 10.8398 60.0922 10.8398 55.9082V16.5957C10.8398 12.4117 14.2437 9.00781 18.4277 9.00781H21.8283H52.1745H55.5723C59.7563 9.00781 63.1602 12.4117 63.1602 16.5957V55.9082ZM67.4961 42.9004C67.4961 44.3135 66.5897 45.5184 65.3281 45.9659V28.706C66.5897 29.1534 67.4961 30.3584 67.4961 31.7715V42.9004Z" fill="#424242"/>
<path d="M72.916 6.83984C72.3174 6.83984 71.832 7.32518 71.832 7.92383V42.9004C71.832 43.499 72.3174 43.9844 72.916 43.9844C73.5147 43.9844 74 43.499 74 42.9004V7.92383C74 7.32518 73.5147 6.83984 72.916 6.83984Z" fill="#42A5F5"/>
</svg>
