<svg width="1920" height="790" viewBox="0 0 1920 790" fill="none" xmlns="http://www.w3.org/2000/svg">
<path d="M610.342 458.347C180.408 394.302 -74.4808 126.138 -148.184 0.0611194L-207.495 301C-187.866 336.52 -114.33 430.596 22.775 522.738C194.156 637.916 539.088 703.273 731.039 750.972C922.99 798.671 1309.49 795.572 1460.51 775.228C1581.33 758.953 1900.58 711.684 2045.08 710.834L2045.41 394.834C2023.75 389.978 1953.82 386.139 1847.39 409.629C1714.36 438.991 1587.83 474.36 1460.8 500.728C1333.77 527.097 1147.76 538.404 610.342 458.347Z" fill="url(#paint0_linear_641_5657)"/>
<defs>
<linearGradient id="paint0_linear_641_5657" x1="828.579" y1="712.073" x2="799.164" y2="-115.715" gradientUnits="userSpaceOnUse">
<stop stop-color="#DAF4FF" stop-opacity="0"/>
<stop offset="1" stop-color="white"/>
</linearGradient>
</defs>
</svg>
