<svg width="44" height="44" viewBox="0 0 44 44" fill="none" xmlns="http://www.w3.org/2000/svg">
<path d="M21.7847 8.15259C19.7516 9.58251 17.4473 11.2033 16.2127 13.8847C14.0682 18.5625 20.6008 23.6653 20.88 23.8803C20.9449 23.9303 21.0225 23.9552 21.1 23.9552C21.1822 23.9552 21.2646 23.927 21.3315 23.8711C21.4612 23.7626 21.498 23.5784 21.4201 23.4283C21.3964 23.3827 19.0516 18.8281 19.1388 15.5604C19.1696 14.4225 20.7623 13.1315 22.4484 11.7646C23.9927 10.5127 25.7432 9.09375 26.7675 7.43388C29.0159 3.78016 26.5169 0.187467 26.4913 0.15169C26.3921 0.0123331 26.2089 -0.0383027 26.0522 0.0305101C25.8957 0.0994672 25.809 0.26883 25.8448 0.43603C25.8498 0.459689 26.3358 2.83554 24.9835 5.28322C24.4262 6.29464 23.2022 7.15574 21.7847 8.15259Z" fill="#00A1E4"/>
<path d="M30.3458 9.76403C30.4892 9.65598 30.5313 9.45892 30.4445 9.30167C30.3576 9.14442 30.1685 9.07503 30.0006 9.1388C29.6552 9.27008 21.543 12.397 21.543 16.1753C21.543 18.7797 22.6555 20.1556 23.4679 21.1604C23.7865 21.5544 24.0616 21.8947 24.1522 22.1853C24.4074 23.0225 23.8028 24.5359 23.5486 25.0483C23.4754 25.1957 23.5113 25.3742 23.6359 25.4818C23.7033 25.5399 23.7874 25.5693 23.8716 25.5693C23.9433 25.5693 24.0153 25.548 24.0775 25.5047C24.217 25.4076 27.4864 23.0961 26.9 20.3111C26.6816 19.2527 26.1614 18.4792 25.7023 17.7967C24.9913 16.7394 24.4777 15.9755 25.2568 14.5648C26.17 12.9196 30.3041 9.79533 30.3458 9.76403Z" fill="#00A1E4"/>
<path d="M9.22739 25.6293C9.08832 26.0454 9.15396 26.4588 9.4171 26.8242C10.2965 28.0449 13.4114 28.7173 18.1885 28.7173C18.1888 28.7173 18.1889 28.7173 18.1891 28.7173C18.8364 28.7173 19.5198 28.7046 20.2197 28.6795C27.8574 28.406 30.6902 26.0267 30.8071 25.9256C30.9345 25.8153 30.9685 25.6317 30.8893 25.4831C30.8101 25.3347 30.6393 25.2601 30.4761 25.3049C27.7864 26.0394 22.7635 26.3001 19.2796 26.3001C15.3812 26.3001 13.3958 26.0193 12.9098 25.812C13.1592 25.4696 14.6975 24.858 16.6036 24.4831C16.7858 24.4473 16.9111 24.2791 16.893 24.0943C16.875 23.9095 16.7198 23.7686 16.5341 23.7686C15.4167 23.7687 9.8131 23.8584 9.22739 25.6293Z" fill="#00A1E4"/>
<path d="M34.7872 23.1787C33.2118 23.1787 31.718 23.9681 31.6551 24.0017C31.5094 24.0798 31.4355 24.2468 31.4755 24.4072C31.5156 24.5675 31.6597 24.6802 31.8251 24.6803C31.8585 24.6805 35.1853 24.7076 35.4867 26.6084C35.7536 28.2482 32.3389 30.9052 31.0006 31.7907C30.856 31.8864 30.7999 32.0713 30.867 32.231C30.924 32.367 31.0566 32.4521 31.1994 32.4521C31.2243 32.4521 31.2496 32.4496 31.2747 32.4441C31.5924 32.3763 39.0439 30.7343 38.2561 26.3956C37.7754 23.7367 36.1043 23.1787 34.7872 23.1787Z" fill="#00A1E4"/>
<path d="M29.6776 31.26C29.7036 31.1209 29.6457 30.9796 29.53 30.8985L27.7433 29.647C27.6562 29.586 27.5461 29.5668 27.4438 29.5939C27.4252 29.5988 25.5567 30.0899 22.844 30.3911C21.7674 30.5119 20.5615 30.5756 19.3565 30.5756C16.6445 30.5756 14.8713 30.2569 14.613 30.0232C14.5789 29.9576 14.5897 29.9277 14.5957 29.9111C14.6426 29.7806 14.8941 29.6255 15.0562 29.5642C15.2352 29.498 15.3318 29.3035 15.2761 29.1209C15.2205 28.9382 15.0323 28.8306 14.8465 28.8753C13.0542 29.3078 12.1778 29.9127 12.2415 30.673C12.3548 32.0208 15.477 32.7127 18.1166 32.8958C18.4961 32.9218 18.9067 32.935 19.3365 32.935C19.3368 32.935 19.3369 32.935 19.3372 32.935C23.7264 32.935 29.3531 31.5579 29.4094 31.5439C29.5467 31.51 29.6515 31.3991 29.6776 31.26Z" fill="#00A1E4"/>
<path d="M16.2101 34.1533C16.3454 34.0652 16.4054 33.898 16.3574 33.7439C16.3095 33.5899 16.1654 33.4887 16.0035 33.4908C15.7633 33.4971 13.6532 33.5923 13.5055 34.9358C13.4608 35.3373 13.5758 35.704 13.8474 36.0259C14.6051 36.9238 16.6501 37.4574 20.0985 37.6575C20.5065 37.6819 20.9208 37.6941 21.3304 37.6941C25.7145 37.6941 28.6671 36.3215 28.7908 36.263C28.9106 36.2063 28.9897 36.0886 28.9968 35.9562C29.0038 35.8239 28.9378 35.6983 28.8247 35.6292L26.5667 34.2507C26.4883 34.203 26.3946 34.1871 26.3051 34.2054C26.2908 34.2085 24.8572 34.5058 22.6935 34.7996C22.2841 34.8552 21.7714 34.8835 21.1698 34.8835C19.0085 34.8835 16.6045 34.5303 16.1435 34.2992C16.1368 34.2558 16.1453 34.201 16.2101 34.1533Z" fill="#00A1E4"/>
<path d="M19.2846 41.8387C29.3267 41.8302 34.7165 40.0444 35.7547 38.9206C36.1223 38.5229 36.162 38.1465 36.1307 37.9006C36.0535 37.2956 35.5025 36.9253 35.4399 36.885C35.2892 36.7881 35.0869 36.8135 34.9693 36.9491C34.8521 37.0848 34.8493 37.2829 34.967 37.4184C35.0304 37.4999 35.067 37.6362 34.8818 37.8216C34.4667 38.2092 30.2803 39.386 23.3098 39.7394C22.3549 39.7892 21.3535 39.8143 20.3333 39.8144C14.0922 39.8144 9.52473 38.9597 8.92518 38.4614C9.15643 38.1294 10.7719 37.5989 12.49 37.2989C12.6836 37.2652 12.8145 37.0827 12.7845 36.8885C12.7545 36.6943 12.5754 36.5606 12.3798 36.5861C12.3313 36.5926 12.167 36.6027 11.9765 36.6143C9.14158 36.7874 5.86553 37.1733 5.69458 38.6338C5.64265 39.079 5.77494 39.4829 6.08784 39.8346C6.85344 40.6949 9.05415 41.8386 19.2842 41.8386C19.2845 41.8387 19.2845 41.8387 19.2846 41.8387Z" fill="#00A1E4"/>
<path d="M37.7261 39.237C37.5842 39.1714 37.4165 39.2045 37.3105 39.3188C37.2956 39.3347 35.7859 40.9135 31.2465 41.8405C29.5085 42.1887 26.2464 42.3653 21.5505 42.3653C16.8458 42.3653 12.3692 42.1802 12.3245 42.1783C12.1376 42.1693 11.9776 42.3052 11.9522 42.4892C11.9266 42.6733 12.0452 42.8466 12.2258 42.8896C12.2724 42.9007 16.964 43.9998 23.3787 43.9998C26.4554 43.9998 29.4492 43.7498 32.2774 43.2567C37.5506 42.3323 37.9197 39.7175 37.9328 39.6067C37.9512 39.4518 37.8678 39.3026 37.7261 39.237Z" fill="#00A1E4"/>
</svg>
