<svg width="46" height="25" viewBox="0 0 46 25" fill="none" xmlns="http://www.w3.org/2000/svg">
<path d="M19.2734 5.98535C18.9064 5.98535 18.5545 6.13113 18.295 6.39062C18.0355 6.65011 17.8897 7.00206 17.8897 7.36903V15.6711C17.8897 16.0381 17.7439 16.39 17.4844 16.6495C17.2249 16.909 16.873 17.0548 16.506 17.0548C16.139 17.0548 15.7871 16.909 15.5276 16.6495C15.2681 16.39 15.1223 16.0381 15.1223 15.6711C15.1223 15.3041 14.9766 14.9522 14.7171 14.6927C14.4576 14.4332 14.1056 14.2874 13.7387 14.2874C13.3717 14.2874 13.0197 14.4332 12.7603 14.6927C12.5008 14.9522 12.355 15.3041 12.355 15.6711C12.355 16.772 12.7923 17.8279 13.5708 18.6063C14.3493 19.3848 15.4051 19.8222 16.506 19.8222C17.6069 19.8222 18.6628 19.3848 19.4413 18.6063C20.2197 17.8279 20.6571 16.772 20.6571 15.6711V7.36903C20.6571 7.00206 20.5113 6.65011 20.2518 6.39062C19.9923 6.13113 19.6404 5.98535 19.2734 5.98535Z" fill="#00A1E4"/>
<path d="M27.5763 8.75271H30.3437C30.7107 8.75271 31.0626 8.60693 31.3221 8.34744C31.5816 8.08795 31.7274 7.73601 31.7274 7.36903C31.7274 7.00206 31.5816 6.65011 31.3221 6.39062C31.0626 6.13113 30.7107 5.98535 30.3437 5.98535H27.5763C26.4754 5.98535 25.4196 6.42269 24.6411 7.20117C23.8626 7.97964 23.4253 9.03547 23.4253 10.1364C23.4253 11.2373 23.8626 12.2931 24.6411 13.0716C25.4196 13.8501 26.4754 14.2874 27.5763 14.2874C27.9433 14.2874 28.2953 14.4332 28.5547 14.6927C28.8142 14.9522 28.96 15.3041 28.96 15.6711C28.96 16.0381 28.8142 16.39 28.5547 16.6495C28.2953 16.909 27.9433 17.0548 27.5763 17.0548H24.809C24.442 17.0548 24.0901 17.2006 23.8306 17.4601C23.5711 17.7196 23.4253 18.0715 23.4253 18.4385C23.4253 18.8055 23.5711 19.1574 23.8306 19.4169C24.0901 19.6764 24.442 19.8222 24.809 19.8222H27.5763C28.6773 19.8222 29.7331 19.3848 30.5116 18.6063C31.29 17.8279 31.7274 16.772 31.7274 15.6711C31.7274 14.5702 31.29 13.5144 30.5116 12.7359C29.7331 11.9574 28.6773 11.5201 27.5763 11.5201C27.2094 11.5201 26.8574 11.3743 26.5979 11.1148C26.3384 10.8553 26.1927 10.5034 26.1927 10.1364C26.1927 9.76942 26.3384 9.41747 26.5979 9.15798C26.8574 8.89849 27.2094 8.75271 27.5763 8.75271Z" fill="#00A1E4"/>
<path d="M1.38319 13.8368C1.75004 13.8372 2.10175 13.9831 2.36115 14.2425C2.62055 14.5019 2.76646 14.8536 2.76687 15.2205V20.7552C2.76815 21.8557 3.20591 22.9108 3.9841 23.689C4.7623 24.4672 5.81738 24.905 6.91792 24.9062C7.28489 24.9062 7.63684 24.7605 7.89633 24.501C8.15582 24.2415 8.3016 23.8895 8.3016 23.5226C8.3016 23.1556 8.15582 22.8036 7.89633 22.5442C7.63684 22.2847 7.28489 22.1389 6.91792 22.1389C6.55107 22.1385 6.19936 21.9926 5.93996 21.7332C5.68056 21.4738 5.53465 21.1221 5.53423 20.7552V15.2205C5.53518 14.1988 5.15772 13.2129 4.47468 12.4531C5.15772 11.6933 5.53518 10.7075 5.53423 9.68576V4.15104C5.53465 3.78419 5.68056 3.43249 5.93996 3.17309C6.19936 2.91369 6.55107 2.76777 6.91792 2.76736C7.28489 2.76736 7.63684 2.62158 7.89633 2.36209C8.15582 2.1026 8.3016 1.75066 8.3016 1.38368C8.3016 1.01671 8.15582 0.66476 7.89633 0.40527C7.63684 0.145779 7.28489 0 6.91792 0C5.81738 0.00128171 4.7623 0.439035 3.9841 1.21723C3.20591 1.99542 2.76815 3.05051 2.76687 4.15104V9.68576C2.76646 10.0526 2.62055 10.4043 2.36115 10.6637C2.10175 10.9231 1.75004 11.069 1.38319 11.0694C1.01622 11.0694 0.664272 11.2152 0.404781 11.4747C0.145291 11.7342 -0.000488281 12.0862 -0.000488281 12.4531C-0.000488281 12.8201 0.145291 13.172 0.404781 13.4315C0.664272 13.691 1.01622 13.8368 1.38319 13.8368Z" fill="#00A1E4"/>
<path d="M39.8382 20.7552C39.8378 21.1221 39.6918 21.4738 39.4324 21.7332C39.173 21.9926 38.8213 22.1385 38.4545 22.1389C38.0875 22.1389 37.7356 22.2847 37.4761 22.5442C37.2166 22.8036 37.0708 23.1556 37.0708 23.5226C37.0708 23.8895 37.2166 24.2415 37.4761 24.501C37.7356 24.7605 38.0875 24.9062 38.4545 24.9062C39.555 24.905 40.6101 24.4672 41.3883 23.689C42.1665 22.9108 42.6042 21.8557 42.6055 20.7552V15.2205C42.6059 14.8536 42.7518 14.5019 43.0112 14.2425C43.2706 13.9831 43.6224 13.8372 43.9892 13.8368C44.3562 13.8368 44.7081 13.691 44.9676 13.4315C45.2271 13.172 45.3729 12.8201 45.3729 12.4531C45.3729 12.0862 45.2271 11.7342 44.9676 11.4747C44.7081 11.2152 44.3562 11.0694 43.9892 11.0694C43.6224 11.069 43.2706 10.9231 43.0112 10.6637C42.7518 10.4043 42.6059 10.0526 42.6055 9.68576V4.15104C42.6042 3.05051 42.1665 1.99542 41.3883 1.21723C40.6101 0.439035 39.555 0.00128171 38.4545 0C38.0875 0 37.7356 0.145779 37.4761 0.40527C37.2166 0.66476 37.0708 1.01671 37.0708 1.38368C37.0708 1.75066 37.2166 2.1026 37.4761 2.36209C37.7356 2.62158 38.0875 2.76736 38.4545 2.76736C38.8213 2.76777 39.173 2.91369 39.4324 3.17309C39.6918 3.43249 39.8378 3.78419 39.8382 4.15104V9.68576C39.8372 10.7075 40.2147 11.6933 40.8977 12.4531C40.2147 13.2129 39.8372 14.1988 39.8382 15.2205V20.7552Z" fill="#00A1E4"/>
</svg>
