<svg width="44" height="44" viewBox="0 0 44 44" fill="none" xmlns="http://www.w3.org/2000/svg">
<g clip-path="url(#clip0_641_8624)">
<path d="M22 44C34.1503 44 44 34.1503 44 22C44 9.84974 34.1503 0 22 0C9.84974 0 0 9.84974 0 22C0 34.1503 9.84974 44 22 44Z" fill="#00A1E4"/>
<path opacity="0.1" d="M6.75132 6.1875C4.51486 8.18043 2.70896 10.6091 1.44432 13.3247C0.179672 16.0402 -0.517071 18.9854 -0.603207 21.9798C-0.689343 24.9741 -0.163057 27.9545 0.943393 30.7383C2.04984 33.5221 3.71315 36.0505 5.83135 38.1687C7.94955 40.2869 10.478 41.9502 13.2618 43.0567C16.0455 44.1631 19.0259 44.6894 22.0203 44.6033C25.0146 44.5171 27.9599 43.8204 30.6754 42.5558C33.391 41.2911 35.8196 39.4852 37.8126 37.2488L6.75132 6.1875Z" fill="white"/>
<path d="M5.08665 28.7046C4.95831 28.7066 4.83096 28.682 4.71262 28.6323C4.59429 28.5826 4.48755 28.5089 4.39915 28.4158C4.30832 28.3261 4.23654 28.2189 4.1881 28.1008C4.13967 27.9827 4.11558 27.856 4.11727 27.7283C4.11635 27.6008 4.1408 27.4743 4.18919 27.3563C4.23758 27.2382 4.30895 27.131 4.39915 27.0408C4.48668 26.9462 4.5931 26.871 4.71153 26.82C4.82995 26.7691 4.95775 26.7436 5.08665 26.7452C5.21536 26.7449 5.34277 26.7709 5.46102 26.8218C5.57926 26.8726 5.68583 26.9472 5.77415 27.0408C5.8659 27.1302 5.93874 27.2371 5.98834 27.3552C6.03795 27.4733 6.0633 27.6002 6.0629 27.7283C6.0641 27.8565 6.03911 27.9836 5.98945 28.1019C5.9398 28.2201 5.86654 28.3269 5.77415 28.4158C5.68499 28.5079 5.57811 28.5809 5.45995 28.6306C5.34179 28.6802 5.2148 28.7054 5.08665 28.7046Z" fill="white"/>
<path d="M18.7488 28.5331H16.9475L10.5056 18.5369C10.3452 18.2906 10.2115 18.0278 10.1069 17.7531H10.0519C10.1131 18.3239 10.1361 18.8981 10.1206 19.4719V28.5331H8.65625V16H10.5606L16.8306 25.8175C17.0919 26.2254 17.2615 26.505 17.3394 26.6562H17.3738C17.3012 26.0449 17.2713 25.4292 17.2844 24.8137V16H18.7488V28.5331Z" fill="white"/>
<path d="M28.6619 28.5331H22V16H28.3525V17.3269H23.4988V21.4931H28.0225V22.8131H23.4988V27.1581H28.6688L28.6619 28.5331Z" fill="white"/>
<path d="M38.4997 17.3269H34.8559V28.5331H33.3916V17.3269H29.7891V16H38.4997V17.3269Z" fill="white"/>
</g>
<defs>
<clipPath id="clip0_641_8624">
<rect width="44" height="44" fill="white"/>
</clipPath>
</defs>
</svg>
