<svg width="48" height="30" viewBox="0 0 48 30" fill="none" xmlns="http://www.w3.org/2000/svg">
<path d="M18.1708 18.6347C18.0123 18.6347 17.855 18.5923 17.7161 18.5107L16.269 17.6364C16.0528 17.513 16.1583 17.4694 16.2296 17.4442C16.5178 17.3413 16.5763 17.318 16.8839 17.1397C16.9162 17.1209 16.9585 17.1275 16.9916 17.1475L18.1034 17.8207C18.1435 17.8429 18.2005 17.8429 18.2377 17.8207L22.5725 15.2673C22.6127 15.244 22.6387 15.1964 22.6387 15.1477V10.043C22.6387 9.99209 22.6127 9.94669 22.5717 9.92122L18.2386 7.37C18.1984 7.34564 18.1453 7.34564 18.1051 7.37L13.7729 9.92122C13.7309 9.94559 13.7042 9.9932 13.7042 10.0419V15.1466C13.7042 15.1953 13.7302 15.2418 13.7715 15.2651L14.9585 15.9649C15.6031 16.2937 15.9969 15.9062 15.9969 15.5164V10.4782C15.9969 10.4062 16.0523 10.3509 16.1228 10.3509H16.6718C16.7402 10.3509 16.7966 10.4062 16.7966 10.4782V15.5186C16.7966 16.3956 16.3279 16.8994 15.513 16.8994C15.2624 16.8994 15.0649 16.8994 14.5137 16.6226L13.3765 15.9538C13.0955 15.7877 12.9219 15.4777 12.9219 15.1466V10.0419C12.9219 9.70973 13.0955 9.39968 13.3765 9.2358L17.7157 6.68126C17.9902 6.52291 18.3548 6.52291 18.6271 6.68126L22.9609 9.23691C23.2408 9.4019 23.4155 9.71084 23.4155 10.043V15.1477C23.4155 15.4788 23.2408 15.7877 22.9609 15.9538L18.6271 18.5084C18.4882 18.5903 18.3309 18.6324 18.1703 18.6324" fill="#00A1E4"/>
<path d="M19.5131 15.1172C17.6164 15.1172 17.2188 14.2287 17.2188 13.4835C17.2188 13.4126 17.2747 13.3562 17.3443 13.3562H17.9042C17.966 13.3562 18.0181 13.4021 18.0279 13.4645C18.1125 14.0467 18.3642 14.3403 19.5112 14.3403C20.4248 14.3403 20.8132 14.1297 20.8132 13.6353C20.8132 13.3507 20.7026 13.1392 19.2833 12.9975C18.0962 12.8779 17.3627 12.6111 17.3627 11.6422C17.3627 10.7497 18.1006 10.2182 19.3365 10.2182C20.7243 10.2182 21.4122 10.7098 21.499 11.7662C21.5022 11.8027 21.4892 11.8382 21.4653 11.8647C21.4415 11.8902 21.4078 11.9057 21.3731 11.9057H20.81C20.7514 11.9057 20.7004 11.8636 20.6884 11.8061C20.5528 11.1937 20.2251 10.9977 19.3343 10.9977C18.3371 10.9977 18.221 11.3521 18.221 11.6178C18.221 11.94 18.3577 12.0342 19.7032 12.2158C21.0357 12.3962 21.6683 12.6509 21.6683 13.6065C21.6683 14.5699 20.8805 15.1224 19.5068 15.1224L19.5131 15.1172ZM24.7867 9.70884H24.9321C25.0515 9.70884 25.0743 9.62358 25.0743 9.57375C25.0743 9.44309 24.9864 9.44309 24.9375 9.44309H24.7878L24.7867 9.70884ZM24.6098 9.29028H24.9321C25.0428 9.29028 25.2598 9.29028 25.2598 9.54275C25.2598 9.71881 25.1491 9.75535 25.0829 9.77749C25.2121 9.78635 25.2207 9.87272 25.2381 9.99452C25.2468 10.0709 25.2609 10.2027 25.2869 10.247H25.0884C25.0829 10.2027 25.0526 9.95909 25.0526 9.9458C25.0395 9.89154 25.0211 9.86497 24.9549 9.86497H24.7911V10.2481H24.6098V9.29028ZM24.2225 9.76642C24.2225 10.1628 24.5361 10.4839 24.9213 10.4839C25.3097 10.4839 25.6233 10.1562 25.6233 9.76642C25.6233 9.3689 25.3054 9.05332 24.9202 9.05332C24.5404 9.05332 24.2214 9.36447 24.2214 9.76531L24.2225 9.76642ZM25.7578 9.76863C25.7578 10.2381 25.3813 10.6213 24.9223 10.6213C24.4666 10.6213 24.0869 10.2426 24.0869 9.76863C24.0869 9.28585 24.4753 8.91602 24.9223 8.91602C25.3726 8.91602 25.7568 9.28696 25.7568 9.76863" fill="#00A1E4"/>
<path fill-rule="evenodd" clip-rule="evenodd" d="M10.3011 10.0266C10.3011 9.82284 10.1959 9.63571 10.0236 9.53439L5.4277 6.8359C5.35011 6.78939 5.2632 6.76503 5.17509 6.76171H5.12757C5.03946 6.76503 4.95255 6.78939 4.87366 6.8359L0.277993 9.53439C0.10677 9.63626 0 9.8234 0 10.0271L0.0100911 17.2955C0.0100911 17.3962 0.061089 17.4904 0.147894 17.5402C0.232529 17.5933 0.338865 17.5933 0.4235 17.5402L3.15569 15.9435C3.32821 15.8387 3.43346 15.6536 3.43346 15.4518V12.0563C3.43346 11.8536 3.53871 11.6665 3.71069 11.5657L4.87388 10.8821C4.96025 10.8312 5.05509 10.8059 5.15166 10.8059C5.24671 10.8059 5.34371 10.8309 5.4277 10.882L6.59034 11.5654C6.76243 11.6662 6.86812 11.8533 6.86812 12.0559V15.4513C6.86812 15.6528 6.97478 15.8388 7.14643 15.9429L9.87688 17.5385C9.9626 17.5906 10.0693 17.5906 10.1547 17.5385C10.2389 17.4887 10.2922 17.3946 10.2922 17.2938L10.3011 10.0266ZM31.9881 13.8109C31.9881 13.8615 31.9617 13.9083 31.9186 13.9334L30.3401 14.862C30.2972 14.8871 30.2443 14.8871 30.2015 14.862L28.6227 13.9334C28.5793 13.9082 28.5533 13.8614 28.5533 13.8109V11.9511C28.5533 11.9004 28.5793 11.8536 28.6217 11.8282L30.1993 10.898C30.2427 10.8726 30.2959 10.8726 30.3393 10.898L31.9181 11.8282C31.9615 11.8536 31.9875 11.9004 31.9875 11.9511L31.9881 13.8109ZM32.4145 0.0358526C32.3283 -0.0130901 32.2235 -0.0117614 32.1384 0.0388423C32.0538 0.0897782 32.0015 0.182791 32.0015 0.283556V7.48101C32.0015 7.55188 31.9646 7.61721 31.9045 7.65265C31.8448 7.68808 31.7705 7.68808 31.7103 7.65265L30.559 6.97597C30.3876 6.87477 30.1764 6.87477 30.0043 6.97597L25.4069 9.68366C25.2352 9.78442 25.1292 9.97155 25.1292 10.1731V15.59C25.1292 15.7926 25.2352 15.9787 25.4069 16.0805L30.0043 18.7901C30.176 18.8909 30.3874 18.8909 30.5596 18.7901L35.157 16.0794C35.3284 15.9776 35.4348 15.7915 35.4348 15.5889V2.08868C35.4348 1.88316 35.3252 1.69415 35.1494 1.59371L32.4145 0.0358526ZM47.7239 11.9021C47.8947 11.8009 47.9999 11.614 47.9999 11.4125V10.0997C47.9999 9.8977 47.8946 9.71134 47.7235 9.60969L43.1554 6.90344C42.9829 6.80157 42.7713 6.80157 42.5988 6.90344L38.0024 9.6108C37.8299 9.71267 37.7247 9.89869 37.7247 10.1013V15.516C37.7247 15.7198 37.8321 15.908 38.0046 16.0088L42.5716 18.6652C42.7398 18.7637 42.946 18.7649 43.1163 18.6685L45.8789 17.1017C45.9657 17.0519 46.021 16.9577 46.021 16.8559C46.021 16.754 45.9679 16.6588 45.8811 16.6089L41.2565 13.9005C41.1697 13.8507 41.1166 13.7565 41.1166 13.6558V11.9572C41.1166 11.8557 41.1687 11.7623 41.2555 11.7118L42.6943 10.8647C42.78 10.8138 42.8852 10.8138 42.9709 10.8647L44.4108 11.7118C44.4965 11.7616 44.5497 11.8557 44.5497 11.9565V13.2919C44.5497 13.3927 44.6029 13.4868 44.6886 13.5377C44.7743 13.5876 44.8806 13.5876 44.9664 13.5366L47.7239 11.9021Z" fill="#00A1E4"/>
<path fill-rule="evenodd" clip-rule="evenodd" d="M42.8109 11.649C42.8434 11.6294 42.8842 11.6294 42.9172 11.649L43.7994 12.1683C43.8324 12.1878 43.8526 12.2237 43.8526 12.2624V13.3022C43.8526 13.3409 43.8324 13.3768 43.7994 13.3963L42.9172 13.9156C42.8842 13.9352 42.8434 13.9352 42.8109 13.9156L41.9293 13.3963C41.8956 13.3768 41.875 13.3409 41.875 13.3022V12.2624C41.875 12.2237 41.8945 12.1878 41.9282 12.1683L42.8109 11.649Z" fill="#00A1E4"/>
</svg>
