<svg width="68" height="48" viewBox="0 0 68 48" fill="none" xmlns="http://www.w3.org/2000/svg">
<path d="M53.8175 23.9071C53.8175 21.2865 50.5302 18.8031 45.4901 17.263C46.6532 12.1349 46.1363 8.05489 43.8586 6.74866C43.3336 6.44226 42.7197 6.29713 42.0494 6.29713V8.09521C42.4209 8.09521 42.7197 8.16778 42.9701 8.30485C44.0686 8.93378 44.5451 11.3285 44.1736 14.4087C44.0848 15.1666 43.9394 15.9649 43.7617 16.7792C42.1786 16.3922 40.4501 16.0939 38.6328 15.9004C37.5424 14.4087 36.4116 13.0541 35.2728 11.8688C37.9059 9.42563 40.3774 8.08715 42.0574 8.08715V6.28906C39.8363 6.28906 36.9286 7.86944 33.9885 10.6109C31.0485 7.88557 28.1408 6.32132 25.9197 6.32132V8.1194C27.5916 8.1194 30.0712 9.44982 32.7043 11.8768C31.5735 13.0621 30.4428 14.4087 29.3685 15.9004C27.5431 16.0939 25.8147 16.3922 24.2316 16.7873C24.0458 15.981 23.9085 15.1989 23.8116 14.449C23.4319 11.3689 23.9004 8.9741 24.9908 8.33711C25.2331 8.19197 25.5481 8.12746 25.9197 8.12746V6.32938C25.2412 6.32938 24.6273 6.47452 24.0943 6.78092C21.8246 8.08715 21.3158 12.159 22.4869 17.2711C17.4631 18.8192 14.1919 21.2946 14.1919 23.9071C14.1919 26.5276 17.4792 29.0111 22.5192 30.5511C21.3562 35.6793 21.8731 39.7592 24.1508 41.0655C24.6758 41.3719 25.2896 41.517 25.9681 41.517C28.1893 41.517 31.097 39.9366 34.037 37.1952C36.977 39.9205 39.8847 41.4848 42.1059 41.4848C42.7844 41.4848 43.3982 41.3396 43.9313 41.0332C46.2009 39.727 46.7098 35.6551 45.5386 30.5431C50.5463 29.003 53.8175 26.5195 53.8175 23.9071ZM43.3013 18.5289C43.0024 19.5691 42.6309 20.6415 42.2109 21.7139C41.8797 21.0688 41.5324 20.4238 41.1528 19.7787C40.7813 19.1337 40.3855 18.5048 39.9897 17.892C41.1367 18.0613 42.2432 18.2709 43.3013 18.5289ZM39.602 27.1162C38.972 28.2047 38.3259 29.2368 37.6555 30.1963C36.452 30.3012 35.2324 30.3576 34.0047 30.3576C32.7851 30.3576 31.5655 30.3012 30.3701 30.2044C29.6997 29.2449 29.0454 28.2209 28.4154 27.1404C27.8016 26.0841 27.2443 25.0117 26.7354 23.9313C27.2362 22.8508 27.8016 21.7703 28.4074 20.7141C29.0374 19.6255 29.6835 18.5934 30.3539 17.6339C31.5574 17.5291 32.777 17.4727 34.0047 17.4727C35.2243 17.4727 36.4439 17.5291 37.6393 17.6259C38.3097 18.5854 38.964 19.6094 39.594 20.6899C40.2078 21.7461 40.7651 22.8185 41.274 23.899C40.7651 24.9795 40.2078 26.0599 39.602 27.1162ZM42.2109 26.068C42.6471 27.1485 43.0186 28.2289 43.3255 29.2771C42.2674 29.5352 41.1528 29.7529 39.9978 29.9222C40.3936 29.3013 40.7894 28.6643 41.1609 28.0112C41.5324 27.3662 41.8797 26.713 42.2109 26.068ZM34.0209 34.6714C33.2697 33.8973 32.5185 33.0346 31.7755 32.0912C32.5024 32.1234 33.2455 32.1476 33.9966 32.1476C34.7559 32.1476 35.507 32.1315 36.242 32.0912C35.5151 33.0346 34.7639 33.8973 34.0209 34.6714ZM28.0116 29.9222C26.8647 29.7529 25.7581 29.5432 24.7 29.2852C24.9989 28.2451 25.3704 27.1727 25.7904 26.1003C26.1216 26.7453 26.4689 27.3904 26.8485 28.0354C27.2281 28.6805 27.6158 29.3094 28.0116 29.9222ZM33.9805 13.1427C34.7316 13.9168 35.4828 14.7796 36.2259 15.723C35.4989 15.6907 34.7559 15.6665 34.0047 15.6665C33.2455 15.6665 32.4943 15.6826 31.7593 15.723C32.4862 14.7796 33.2374 13.9168 33.9805 13.1427ZM28.0035 17.892C27.6077 18.5128 27.212 19.1498 26.8404 19.8029C26.4689 20.448 26.1216 21.093 25.7904 21.7381C25.3543 20.6576 24.9827 19.5772 24.6758 18.5289C25.7339 18.279 26.8485 18.0613 28.0035 17.892ZM20.6939 27.987C17.8346 26.7695 15.985 25.173 15.985 23.9071C15.985 22.6412 17.8346 21.0366 20.6939 19.8271C21.3885 19.5288 22.1477 19.2627 22.9312 19.0127C23.3916 20.5931 23.9973 22.238 24.7485 23.9232C24.0054 25.6003 23.4077 27.2372 22.9554 28.8095C22.1558 28.5595 21.3966 28.2854 20.6939 27.987ZM25.0393 39.5093C23.9408 38.8804 23.4643 36.4856 23.8358 33.4055C23.9246 32.6475 24.07 31.8493 24.2477 31.0349C25.8308 31.4219 27.5593 31.7203 29.3766 31.9138C30.467 33.4055 31.5978 34.7601 32.7366 35.9454C30.1035 38.3885 27.632 39.727 25.952 39.727C25.5885 39.7189 25.2816 39.6464 25.0393 39.5093ZM44.1978 33.3652C44.5775 36.4453 44.109 38.84 43.0186 39.477C42.7763 39.6222 42.4613 39.6867 42.0897 39.6867C40.4178 39.6867 37.9382 38.3563 35.3051 35.9292C36.4359 34.744 37.5666 33.3974 38.6409 31.9057C40.4663 31.7122 42.1947 31.4139 43.7778 31.0188C43.9636 31.8332 44.109 32.6153 44.1978 33.3652ZM47.3075 27.987C46.6128 28.2854 45.8536 28.5515 45.0701 28.8014C44.6098 27.221 44.004 25.5761 43.2528 23.8909C43.9959 22.2138 44.5936 20.577 45.0459 19.0047C45.8455 19.2546 46.6048 19.5288 47.3155 19.8271C50.1748 21.0446 52.0244 22.6412 52.0244 23.9071C52.0163 25.173 50.1667 26.7776 47.3075 27.987Z" fill="#00A1E4"/>
<path d="M33.9968 27.5924C36.0354 27.5924 37.688 25.9426 37.688 23.9075C37.688 21.8724 36.0354 20.2227 33.9968 20.2227C31.9583 20.2227 30.3057 21.8724 30.3057 23.9075C30.3057 25.9426 31.9583 27.5924 33.9968 27.5924Z" fill="#00A1E4"/>
</svg>
