<svg width="42" height="42" viewBox="0 0 42 42" fill="none" xmlns="http://www.w3.org/2000/svg">
<path d="M41.997 11.6332C41.9946 11.2108 41.9899 10.7886 41.9782 10.3657C41.9536 9.44579 41.8992 8.51754 41.7357 7.60747C41.5698 6.68326 41.2986 5.8239 40.8712 4.98434C40.4516 4.15984 39.9031 3.40535 39.2489 2.75107C38.5947 2.09678 37.8402 1.54837 37.0154 1.12859C36.1765 0.701663 35.317 0.43053 34.3937 0.264626C33.4831 0.100632 32.5549 0.0466031 31.6343 0.0217104C31.2116 0.0102541 30.7893 0.00544528 30.3668 0.00282871C29.8652 0 29.3634 0 28.862 0H17.744H13.1381C12.6362 0 12.1349 0 11.6335 0.00289943C11.2108 0.00551599 10.788 0.0103248 10.366 0.0217811C10.1359 0.0280043 9.90527 0.0360661 9.67451 0.0471688C8.98233 0.0805476 8.28908 0.141719 7.60651 0.264697C6.91397 0.38916 6.25729 0.572744 5.61842 0.836875C5.40549 0.924848 5.19447 1.02187 4.98472 1.12859C4.36608 1.44342 3.7869 1.8306 3.26012 2.28051C3.08453 2.4305 2.91473 2.58743 2.75123 2.751C2.09681 3.40528 1.54832 4.15977 1.12875 4.98427C0.701336 5.82383 0.430487 6.68319 0.264441 7.6074C0.101083 8.51747 0.0467715 9.44571 0.0220202 10.3656C0.0104225 10.7885 0.00554294 11.2107 0.00278495 11.6331C-0.000397356 12.1348 2.69514e-05 12.6365 2.69514e-05 13.138V19.9849V28.8617C2.69514e-05 29.3638 -0.000468074 29.865 0.00278495 30.367C0.00554294 30.7894 0.0104225 31.2116 0.0220202 31.6338C0.0467715 32.5542 0.101012 33.4826 0.264441 34.3923C0.430487 35.3162 0.701336 36.1764 1.12875 37.0157C1.54832 37.8404 2.09681 38.5947 2.75123 39.2487C3.40516 39.9033 4.15986 40.4516 4.98479 40.8717C5.82371 41.2987 6.68315 41.5694 7.60672 41.7354C8.51672 41.8991 9.44567 41.9536 10.3661 41.9782C10.7881 41.9894 11.2109 41.9945 11.6335 41.9969C12.1349 42.0005 12.6362 42 13.1381 42H28.862C29.3634 42 29.8652 42.0005 30.3667 41.9969C30.7892 41.9945 31.2115 41.9894 31.6342 41.9782C32.5548 41.9536 33.483 41.8991 34.3936 41.7354C35.317 41.5694 36.1765 41.2986 37.0153 40.8717C37.8402 40.4517 38.5947 39.9033 39.2488 39.2487C39.9031 38.5946 40.4516 37.8404 40.8711 37.0157C41.2986 36.1764 41.5698 35.3163 41.7357 34.3923C41.8992 33.4826 41.9535 32.5542 41.9782 31.6338C41.9897 31.2116 41.9944 30.7895 41.997 30.367C42.0002 29.865 41.9999 29.3638 41.9999 28.8617V13.138C42 12.6365 42.0002 12.1348 41.997 11.6332Z" fill="#00A1E4"/>
<path d="M33.2802 25.9256C33.2792 25.9243 33.2783 25.9234 33.2773 25.9222C33.3237 25.7641 33.3717 25.6069 33.4123 25.4449C35.1555 18.4997 30.9011 10.2887 23.7016 5.96533C26.8566 10.2423 28.2516 15.4226 27.0122 19.953C26.9016 20.3571 26.7687 20.7449 26.6219 21.1218C26.4625 21.0171 26.2616 20.8982 25.9919 20.7495C25.9919 20.7495 18.8304 16.3277 11.0685 8.50665C10.8648 8.30136 15.2074 14.7136 20.1358 19.9204C17.8139 18.6173 11.3429 13.9091 7.24636 10.1597C7.74966 10.9991 8.34829 11.8073 9.00632 12.5854C12.4273 16.9239 16.8887 22.2769 22.2336 26.3874C18.4782 28.6856 13.1717 28.8643 7.88834 26.3898C6.58155 25.7774 5.35303 25.0384 4.21582 24.1989C6.45227 27.7761 9.89673 30.8625 14.089 32.6644C19.0884 34.8128 24.0599 34.6672 27.7627 32.6996L27.7598 32.7038C27.7767 32.6931 27.7982 32.6815 27.8157 32.6707C27.9678 32.5889 28.1187 32.5057 28.2663 32.4178C30.0453 31.4943 33.5593 30.5575 35.4454 34.2273C35.9073 35.1254 36.8889 30.3658 33.2802 25.9256Z" fill="white"/>
</svg>
