<svg width="39" height="36" viewBox="0 0 39 36" fill="none" xmlns="http://www.w3.org/2000/svg">
<path fill-rule="evenodd" clip-rule="evenodd" d="M11.2531 0C10.1998 0.00231725 9.1687 0.622599 8.63846 1.56886L0.391488 16.4311C-0.130496 17.3799 -0.130496 18.6201 0.391488 19.5689L8.63846 34.4311C9.16875 35.3774 10.1998 35.9979 11.2531 36H27.7469C28.8003 35.9977 29.8313 35.3774 30.3616 34.4311L38.6085 19.5689C39.1305 18.6201 39.1305 17.3799 38.6085 16.4311L30.3616 1.56886C29.8313 0.622599 28.8003 0.00214346 27.7469 0H11.2531ZM11.4028 8.69461C11.4254 8.69229 11.4492 8.69229 11.4719 8.69461H14.3169C14.4428 8.69731 14.5649 8.77282 14.6278 8.88623L19.4539 17.8084C19.4782 17.8525 19.4939 17.9016 19.4998 17.9521C19.5058 17.9016 19.5214 17.8525 19.5457 17.8084L24.3603 8.88623C24.4251 8.76938 24.553 8.69346 24.6827 8.69461H27.5277C27.7796 8.69693 27.9683 9.02611 27.8502 9.25749L23.1393 18L27.8502 26.7305C27.9794 26.9632 27.7861 27.3077 27.5277 27.3054H24.6827C24.5508 27.3042 24.4221 27.2231 24.3603 27.1018L19.5457 18.1796C19.5214 18.1355 19.5058 18.0864 19.4998 18.0359C19.4939 18.0864 19.4782 18.1355 19.4539 18.1796L14.6278 27.1018C14.5678 27.2196 14.445 27.3 14.3169 27.3054H11.4719C11.2135 27.3077 11.0202 26.9632 11.1494 26.7305L15.8603 18L11.1494 9.25749C11.0365 9.04639 11.1743 8.73967 11.4028 8.69461Z" fill="#00A1E4"/>
</svg>
