<svg width="1920" height="759" viewBox="0 0 1920 759" fill="none" xmlns="http://www.w3.org/2000/svg">
<path d="M876.325 734.446L876.251 734.435C876.251 734.435 599.686 752.345 376.635 746.468C153.583 740.592 -165.491 696.938 -165.491 696.938L-203 -60L1949 -34.2557V684.066C1920.99 694.233 1878.46 706.258 1757.96 724.921C1645.93 742.271 1599.92 745.069 1511.4 752.345C1422.88 759.62 1225.76 759.747 1172.82 758.221C1007.83 753.465 954.969 745.82 876.325 734.446Z" fill="#F8FDFF"/>
<path d="M876.325 734.446L876.251 734.435C876.251 734.435 599.686 752.345 376.635 746.468C153.583 740.592 -165.491 696.938 -165.491 696.938L-203 -60L1949 -34.2557V684.066C1920.99 694.233 1878.46 706.258 1757.96 724.921C1645.93 742.271 1599.92 745.069 1511.4 752.345C1422.88 759.62 1225.76 759.747 1172.82 758.221C1007.83 753.465 954.969 745.82 876.325 734.446Z" fill="url(#paint0_linear_641_24)" fill-opacity="0.2"/>
<defs>
<linearGradient id="paint0_linear_641_24" x1="134.001" y1="531.633" x2="544.523" y2="-179.877" gradientUnits="userSpaceOnUse">
<stop stop-color="#19548E"/>
<stop offset="1" stop-color="#3484D5"/>
</linearGradient>
</defs>
</svg>
