<svg width="1920" height="789" viewBox="0 0 1920 789" fill="none" xmlns="http://www.w3.org/2000/svg">
<g opacity="0.1">
<path d="M651.5 458.404C221.5 394.804 -33.6667 126.904 -107.5 0.904297L-166.5 301.904C-146.833 337.404 -73.2 431.404 64 523.404C235.5 638.404 580.5 703.404 772.5 750.904C964.5 798.404 1351 794.904 1502 774.404C1622.8 758.004 1942 710.404 2086.5 709.404V393.404C2064.83 388.571 1994.9 384.804 1888.5 408.404C1755.5 437.904 1629 473.404 1502 499.904C1375 526.404 1189 537.904 651.5 458.404Z" fill="#F8FDFF"/>
<path d="M651.5 458.404C221.5 394.804 -33.6667 126.904 -107.5 0.904297L-166.5 301.904C-146.833 337.404 -73.2 431.404 64 523.404C235.5 638.404 580.5 703.404 772.5 750.904C964.5 798.404 1351 794.904 1502 774.404C1622.8 758.004 1942 710.404 2086.5 709.404V393.404C2064.83 388.571 1994.9 384.804 1888.5 408.404C1755.5 437.904 1629 473.404 1502 499.904C1375 526.404 1189 537.904 651.5 458.404Z" fill="url(#paint0_linear_641_33)"/>
</g>
<defs>
<linearGradient id="paint0_linear_641_33" x1="870" y1="711.904" x2="839.727" y2="-115.853" gradientUnits="userSpaceOnUse">
<stop stop-color="#DAF4FF" stop-opacity="0"/>
<stop offset="1" stop-color="white"/>
</linearGradient>
</defs>
</svg>
