<svg width="172" height="42" viewBox="0 0 172 42" fill="none" xmlns="http://www.w3.org/2000/svg">
<g id="logo">
<path id="Vector" d="M38.5597 13.6531C38.2509 6.05517 31.9594 0 24.2783 0C16.7516 0 10.5759 5.86233 10.0355 13.2288C3.97562 15.1572 0 21.1738 0 26.6891C0 32.1271 3.82123 40.7664 14.0884 40.7664C17.7166 40.7664 21.2291 39.2236 24.2397 37.2567C25.8223 38.838 29.2961 41.4606 35.0858 41.4606C43.3844 41.4606 49.1742 34.0555 49.1742 27.3833C49.1742 22.6008 46.2021 15.3501 38.5597 13.6531ZM24.2783 3.47112C29.9137 3.47112 34.5455 7.79073 35.0472 13.306C31.4576 13.306 27.9452 14.8487 24.9345 16.8156C23.352 15.2344 19.8781 12.6117 14.0884 12.6117C13.934 12.6117 13.7796 12.6117 13.5866 12.6117C14.3972 7.44363 18.8746 3.47112 24.2783 3.47112ZM35.0858 37.9895C30.8786 37.9895 28.3311 36.2925 27.0574 35.174C30.2996 32.5128 32.6155 29.7359 33.3489 28.8489L35.0858 30.3916L36.6297 22.2923L28.9101 24.9921L30.7242 26.5733C29.7593 27.7689 21.8852 37.3338 14.0498 37.3338C6.25293 37.3338 3.43525 31.0087 3.43525 26.7276C3.43525 21.7138 7.79686 16.1214 14.0498 16.1214C18.257 16.1214 20.8045 17.8184 22.0782 18.9369C18.836 21.5981 16.5201 24.375 15.7867 25.262L14.0498 23.7193L12.5058 31.8186L20.2255 29.1188L18.4114 27.5375C19.3763 26.3419 27.2504 16.7771 35.0858 16.7771C42.8827 16.7771 45.7003 23.1022 45.7003 27.3833C45.7003 32.3971 41.3387 37.9895 35.0858 37.9895Z" fill="white"/>
<g id="SyncSln">
<path d="M69.4263 23.8354C69.4263 23.1192 69.1578 22.4925 68.6206 21.9554C68.1059 21.3959 67.4568 20.9483 66.6735 20.6125C65.8901 20.2545 65.0285 19.8516 64.0885 19.404C63.1709 18.934 62.3204 18.4528 61.5371 17.9604C60.7537 17.4457 60.0935 16.7407 59.5564 15.8454C59.0416 14.9278 58.7842 13.8759 58.7842 12.6897C58.7842 10.8769 59.4444 9.34377 60.7649 8.09044C62.1302 6.83711 63.9094 6.21045 66.1028 6.21045C69.0794 6.21045 71.3175 7.04973 72.817 8.7283L70.6013 11.8169C69.4151 10.6531 68.0275 10.0712 66.4385 10.0712C65.4313 10.0712 64.6256 10.3062 64.0213 10.7761C63.4394 11.2461 63.1485 11.8728 63.1485 12.6561C63.1485 13.059 63.2268 13.4395 63.3835 13.7976C63.5401 14.1333 63.708 14.413 63.8871 14.6369C64.0885 14.8607 64.4018 15.1068 64.8271 15.3754C65.2747 15.644 65.6216 15.8454 65.8678 15.9797C66.1363 16.0916 66.5728 16.2818 67.177 16.5504C67.7813 16.819 68.2066 17.0092 68.4528 17.1211C69.4375 17.5687 70.2992 18.0387 71.0377 18.5311C71.8658 19.0235 72.5261 19.7285 73.0185 20.6461C73.5332 21.5637 73.7906 22.6156 73.7906 23.8018C73.7906 25.7713 73.0408 27.3716 71.5413 28.6025C70.0418 29.8335 68.173 30.4489 65.9349 30.4489C64.3682 30.4489 62.8128 30.1244 61.2685 29.4754C59.7914 28.804 58.7842 27.8975 58.2471 26.7561L60.5971 23.9361C61.2237 24.7642 62.0294 25.4132 63.0142 25.8832C64.0213 26.3532 65.0173 26.5882 66.002 26.5882C67.0316 26.5882 67.8597 26.3421 68.4863 25.8497C69.113 25.3573 69.4263 24.6859 69.4263 23.8354Z" fill="white"/>
<path d="M87.6131 14.9726H92.0109L86.0688 30.0797C84.9945 32.6982 84.0321 34.4663 83.1816 35.3839C82.3536 36.3239 81.3688 36.7939 80.2274 36.7939C79.1531 36.7939 78.0676 36.4023 76.971 35.6189L78.2131 32.6982C78.795 33.0563 79.3209 33.2354 79.7909 33.2354C80.7086 33.2354 81.4807 32.452 82.1074 30.8854L82.4431 30.0797L75.4602 14.9726H80.0931L83.6181 23.2311C83.6628 23.343 83.909 24.0704 84.3566 25.4132C84.4909 24.5852 84.67 23.8466 84.8938 23.1975L87.6131 14.9726Z" fill="white"/>
<path d="M98.1857 30.0797H94.325V14.9726H98.1857V16.4833C99.3047 15.2971 100.748 14.704 102.516 14.704C106.657 14.704 108.727 16.8749 108.727 21.2168V30.0797H104.866V21.8883C104.866 19.5159 103.736 18.3297 101.476 18.3297C100.245 18.3297 99.148 18.8109 98.1857 19.7733V30.0797Z" fill="white"/>
<path d="M124.099 25.0104L125.912 27.8304C124.636 29.5761 122.633 30.4489 119.903 30.4489C117.463 30.4489 115.483 29.7216 113.961 28.2668C112.461 26.8344 111.712 24.9209 111.712 22.5261C111.712 20.2656 112.45 18.3857 113.927 16.8861C115.404 15.3642 117.273 14.6033 119.534 14.6033C122.219 14.6033 124.245 15.2859 125.61 16.6511L123.797 19.7061C122.768 18.7214 121.514 18.229 120.037 18.229C118.918 18.229 117.933 18.6318 117.083 19.4376C116.255 20.1985 115.841 21.228 115.841 22.5261C115.841 23.8242 116.266 24.8761 117.116 25.6818C118.012 26.4651 119.041 26.8568 120.205 26.8568C121.705 26.8568 123.003 26.2413 124.099 25.0104Z" fill="white"/>
<path d="M139.552 23.8354C139.552 23.1192 139.284 22.4925 138.747 21.9554C138.232 21.3959 137.583 20.9483 136.8 20.6125C136.016 20.2545 135.155 19.8516 134.215 19.404C133.297 18.934 132.446 18.4528 131.663 17.9604C130.88 17.4457 130.22 16.7407 129.682 15.8454C129.168 14.9278 128.91 13.8759 128.91 12.6897C128.91 10.8769 129.57 9.34377 130.891 8.09044C132.256 6.83711 134.035 6.21045 136.229 6.21045C139.205 6.21045 141.444 7.04973 142.943 8.7283L140.727 11.8169C139.541 10.6531 138.154 10.0712 136.565 10.0712C135.557 10.0712 134.752 10.3062 134.147 10.7761C133.565 11.2461 133.275 11.8728 133.275 12.6561C133.275 13.059 133.353 13.4395 133.51 13.7976C133.666 14.1333 133.834 14.413 134.013 14.6369C134.215 14.8607 134.528 15.1068 134.953 15.3754C135.401 15.644 135.748 15.8454 135.994 15.9797C136.262 16.0916 136.699 16.2818 137.303 16.5504C137.907 16.819 138.333 17.0092 138.579 17.1211C139.564 17.5687 140.425 18.0387 141.164 18.5311C141.992 19.0235 142.652 19.7285 143.145 20.6461C143.659 21.5637 143.917 22.6156 143.917 23.8018C143.917 25.7713 143.167 27.3716 141.667 28.6025C140.168 29.8335 138.299 30.4489 136.061 30.4489C134.494 30.4489 132.939 30.1244 131.395 29.4754C129.917 28.804 128.91 27.8975 128.373 26.7561L130.723 23.9361C131.35 24.7642 132.155 25.4132 133.14 25.8832C134.147 26.3532 135.143 26.5882 136.128 26.5882C137.158 26.5882 137.986 26.3421 138.612 25.8497C139.239 25.3573 139.552 24.6859 139.552 23.8354Z" fill="white"/>
<path d="M147.567 25.9168V6.57973H151.428V24.339C151.428 25.9728 151.864 26.7897 152.737 26.7897C153.229 26.7897 153.755 26.5882 154.315 26.1854L155.121 29.1397C154.069 29.9901 152.737 30.4154 151.126 30.4154C148.753 30.4154 147.567 28.9159 147.567 25.9168Z" fill="white"/>
<path d="M161.46 30.0797H157.599V14.9726H161.46V16.4833C162.579 15.2971 164.022 14.704 165.79 14.704C169.931 14.704 172.001 16.8749 172.001 21.2168V30.0797H168.14V21.8883C168.14 19.5159 167.01 18.3297 164.75 18.3297C163.519 18.3297 162.422 18.8109 161.46 19.7733V30.0797Z" fill="white"/>
</g>
</g>
</svg>
