<svg width="1075" height="259" viewBox="0 0 1075 259" fill="none" xmlns="http://www.w3.org/2000/svg">
<path d="M240.878 85.2893C238.949 37.826 199.647 0 151.664 0C104.646 0 66.0667 36.6214 62.691 82.639C24.8353 94.6856 0 132.271 0 166.724C0 200.695 23.8708 254.663 88.0085 254.663C110.674 254.663 132.616 245.026 151.423 232.739C161.309 242.617 183.01 259 219.178 259C271.018 259 307.186 212.741 307.186 171.06C307.186 141.185 288.62 95.8902 240.878 85.2893ZM151.664 21.6837C186.868 21.6837 215.802 48.6679 218.936 83.1209C196.512 83.1209 174.57 92.7581 155.763 105.046C145.877 95.1674 124.176 78.7842 88.0085 78.7842C87.0441 78.7842 86.0796 78.7842 84.874 78.7842C89.9375 46.4996 117.907 21.6837 151.664 21.6837ZM219.178 237.316C192.896 237.316 176.982 226.715 169.025 219.728C189.279 203.104 203.746 185.757 208.327 180.216L219.178 189.853L228.822 139.258L180.598 156.123L191.931 166.001C185.903 173.47 136.715 233.22 87.7675 233.22C39.0614 233.22 21.4597 193.708 21.4597 166.965C21.4597 135.644 48.7062 100.709 87.7675 100.709C114.049 100.709 129.963 111.31 137.92 118.297C117.666 134.921 103.199 152.268 98.6179 157.809L87.7675 148.172L78.1227 198.767L126.347 181.902L115.014 172.024C121.042 164.555 170.23 104.805 219.178 104.805C267.884 104.805 285.485 144.317 285.485 171.06C285.485 202.381 258.239 237.316 219.178 237.316Z" fill="#2695F9"/>
<path d="M433.694 148.899C433.694 144.425 432.016 140.51 428.661 137.155C425.445 133.659 421.391 130.863 416.497 128.766C411.604 126.529 406.221 124.012 400.349 121.216C394.617 118.28 389.304 115.274 384.411 112.198C379.517 108.983 375.393 104.579 372.037 98.9862C368.822 93.254 367.214 86.6829 367.214 79.2729C367.214 67.9482 371.338 58.3711 379.587 50.5417C388.116 42.7123 399.231 38.7976 412.932 38.7976C431.527 38.7976 445.508 44.0405 454.875 54.5263L441.034 73.8202C433.624 66.5501 424.956 62.915 415.029 62.915C408.738 62.915 403.704 64.383 399.93 67.319C396.294 70.2551 394.477 74.1698 394.477 79.0631C394.477 81.5798 394.966 83.9565 395.945 86.1935C396.924 88.2907 397.972 90.0383 399.091 91.4364C400.349 92.8345 402.306 94.3725 404.963 96.0502C407.759 97.7279 409.926 98.9862 411.464 99.8251C413.142 100.524 415.868 101.713 419.643 103.39C423.418 105.068 426.074 106.256 427.612 106.955C433.764 109.752 439.147 112.688 443.76 115.764C448.933 118.839 453.058 123.243 456.134 128.976C459.349 134.708 460.957 141.279 460.957 148.689C460.957 160.992 456.273 170.989 446.906 178.679C437.539 186.368 425.865 190.213 411.883 190.213C402.097 190.213 392.38 188.186 382.733 184.131C373.505 179.937 367.214 174.275 363.858 167.144L378.538 149.528C382.453 154.701 387.486 158.755 393.638 161.691C399.93 164.628 406.151 166.096 412.303 166.096C418.734 166.096 423.907 164.558 427.822 161.482C431.737 158.406 433.694 154.212 433.694 148.899Z" fill="#2695F9"/>
<path d="M547.305 93.5336H574.778L537.658 187.906C530.947 204.264 524.935 215.309 519.622 221.041C514.449 226.913 508.297 229.849 501.167 229.849C494.456 229.849 487.675 227.403 480.824 222.509L488.584 204.264C492.219 206.501 495.505 207.619 498.441 207.619C504.173 207.619 508.996 202.726 512.911 192.939L515.008 187.906L471.387 93.5336H500.328L522.348 145.124C522.628 145.823 524.166 150.367 526.962 158.755C527.801 153.582 528.919 148.969 530.318 144.914L547.305 93.5336Z" fill="#2695F9"/>
<path d="M613.351 187.906H589.233V93.5336H613.351V102.971C620.341 95.5609 629.359 91.8559 640.404 91.8559C666.269 91.8559 679.202 105.418 679.202 132.541V187.906H655.084V136.735C655.084 121.915 648.024 114.505 633.903 114.505C626.213 114.505 619.363 117.511 613.351 123.523V187.906Z" fill="#2695F9"/>
<path d="M775.231 156.239L786.555 173.855C778.586 184.76 766.073 190.213 749.016 190.213C733.777 190.213 721.403 185.669 711.896 176.581C702.529 167.633 697.845 155.68 697.845 140.72C697.845 126.599 702.459 114.855 711.686 105.487C720.914 95.9803 732.588 91.2267 746.709 91.2267C763.486 91.2267 776.139 95.491 784.668 104.019L773.343 123.104C766.912 116.952 759.082 113.876 749.855 113.876C742.864 113.876 736.713 116.393 731.4 121.426C726.227 126.179 723.64 132.611 723.64 140.72C723.64 148.829 726.297 155.4 731.609 160.433C737.202 165.327 743.633 167.773 750.903 167.773C760.271 167.773 768.38 163.928 775.231 156.239Z" fill="#2695F9"/>
<path d="M871.764 148.899C871.764 144.425 870.086 140.51 866.731 137.155C863.515 133.659 859.461 130.863 854.567 128.766C849.674 126.529 844.291 124.012 838.419 121.216C832.687 118.28 827.374 115.274 822.481 112.198C817.587 108.983 813.463 104.579 810.107 98.9862C806.892 93.254 805.284 86.6829 805.284 79.2729C805.284 67.9482 809.408 58.3711 817.657 50.5417C826.186 42.7123 837.301 38.7976 851.002 38.7976C869.597 38.7976 883.578 44.0405 892.945 54.5263L879.104 73.8202C871.694 66.5501 863.026 62.915 853.099 62.915C846.808 62.915 841.775 64.383 838 67.319C834.365 70.2551 832.547 74.1698 832.547 79.0631C832.547 81.5798 833.036 83.9565 834.015 86.1935C834.994 88.2907 836.042 90.0383 837.161 91.4364C838.419 92.8345 840.376 94.3725 843.033 96.0502C845.829 97.7279 847.996 98.9862 849.534 99.8251C851.212 100.524 853.938 101.713 857.713 103.39C861.488 105.068 864.144 106.256 865.682 106.955C871.834 109.752 877.217 112.688 881.831 115.764C887.004 118.839 891.128 123.243 894.204 128.976C897.419 134.708 899.027 141.279 899.027 148.689C899.027 160.992 894.344 170.989 884.976 178.679C875.609 186.368 863.935 190.213 849.954 190.213C840.167 190.213 830.45 188.186 820.803 184.131C811.575 179.937 805.284 174.275 801.928 167.144L816.609 149.528C820.523 154.701 825.557 158.755 831.708 161.691C838 164.628 844.221 166.096 850.373 166.096C856.804 166.096 861.977 164.558 865.892 161.482C869.807 158.406 871.764 154.212 871.764 148.899Z" fill="#484A54"/>
<path d="M921.831 161.901V41.1044H945.948V152.045C945.948 162.251 948.674 167.354 954.127 167.354C957.203 167.354 960.488 166.096 963.984 163.579L969.017 182.034C962.446 187.347 954.127 190.003 944.061 190.003C929.241 190.003 921.831 180.636 921.831 161.901Z" fill="#484A54"/>
<path d="M1008.62 187.906H984.5V93.5336H1008.62V102.971C1015.61 95.5609 1024.63 91.8559 1035.67 91.8559C1061.54 91.8559 1074.47 105.418 1074.47 132.541V187.906H1050.35V136.735C1050.35 121.915 1043.29 114.505 1029.17 114.505C1021.48 114.505 1014.63 117.511 1008.62 123.523V187.906Z" fill="#484A54"/>
</svg>
