<svg width="85" height="10" viewBox="0 0 85 10" fill="none" xmlns="http://www.w3.org/2000/svg">
<path fill-rule="evenodd" clip-rule="evenodd" d="M1 0.5C3.87396 4.55041 9.24561 7.27551 15.398 7.27551C21.5503 7.27551 26.922 4.55041 29.7959 0.5H24.6899C22.4072 2.57923 19.09 3.88776 15.398 3.88776C11.7059 3.88776 8.38867 2.57923 6.10602 0.5H1Z" fill="white" stroke="white"/>
<path fill-rule="evenodd" clip-rule="evenodd" d="M55.2031 0.5C58.0771 4.55041 63.4487 7.27551 69.6011 7.27551C75.7534 7.27551 81.1251 4.55041 83.999 0.5H78.893C76.6104 2.57923 73.2932 3.88776 69.6011 3.88776C65.909 3.88776 62.5918 2.57923 60.3091 0.5H55.2031Z" fill="white" stroke="white"/>
<path fill-rule="evenodd" clip-rule="evenodd" d="M26.4082 0.5C29.6203 5.56301 35.6239 8.96939 42.5 8.96939C49.3762 8.96939 55.3798 5.56301 58.5919 0.5H53.76C51.0828 3.45582 47.0327 5.33965 42.5 5.33965C37.9674 5.33965 33.9173 3.45582 31.2401 0.5H26.4082Z" fill="white" stroke="white"/>
</svg>
