<svg width="46" height="5" viewBox="0 0 46 5" fill="none" xmlns="http://www.w3.org/2000/svg">
<g id="Group 404">
<path id="Subtract" fill-rule="evenodd" clip-rule="evenodd" d="M0 0C1.59687 2.39121 4.58154 4 8 4C11.4185 4 14.4031 2.39121 16 0H13.1629C11.8946 1.2275 10.0514 2 8 2C5.94855 2 4.1054 1.2275 2.83708 0H0Z" fill="#003A74"/>
<path id="Subtract_2" fill-rule="evenodd" clip-rule="evenodd" d="M30 0C31.5969 2.39121 34.5815 4 38 4C41.4185 4 44.4031 2.39121 46 0H43.1629C41.8946 1.2275 40.0514 2 38 2C35.9486 2 34.1054 1.2275 32.8371 0H30Z" fill="#003A74"/>
<path id="Subtract_3" fill-rule="evenodd" clip-rule="evenodd" d="M14 0C15.7965 2.98901 19.1542 5 23 5C26.8458 5 30.2035 2.98901 32 0H29.2976C27.8002 1.745 25.5351 2.85714 23 2.85714C20.4649 2.85714 18.1998 1.745 16.7024 0H14Z" fill="#003A74"/>
</g>
</svg>
