<svg width="68" height="68" viewBox="0 0 68 68" fill="none" xmlns="http://www.w3.org/2000/svg">
<path d="M33.4963 26.5449C38.8919 26.5449 43.266 24.6703 43.266 22.3579C43.266 20.0455 38.8919 18.1709 33.4963 18.1709C28.1006 18.1709 23.7266 20.0455 23.7266 22.3579C23.7266 24.6703 28.1006 26.5449 33.4963 26.5449Z" fill="#42A5F5"/>
<path d="M66.8387 59.4272C66.755 59.2597 66.8387 59.4272 61.4095 51.2486V36.2032C63.4878 35.01 65.127 33.1798 66.0849 30.9831C67.0427 28.7864 67.2683 26.3398 66.7284 24.0049C66.1886 21.6701 64.9118 19.5709 63.0868 18.0177C61.2619 16.4644 58.9856 15.5396 56.5945 15.3798C55.5328 11.998 53.2241 9.14679 50.137 7.40495C47.0499 5.66312 43.4157 5.16114 39.972 6.0009C29.6441 -5.55526 10.6071 0.613608 8.54151 15.6869C6.37395 16.2124 4.41346 17.3751 2.91273 19.025C1.41199 20.675 0.439788 22.7366 0.121424 24.9441C-0.19694 27.1516 0.153126 29.4039 1.1265 31.4106C2.09988 33.4174 3.65195 35.0866 5.58269 36.2032V51.2486C0.16748 59.3714 0.237264 59.2597 0.153524 59.4272C0 59.9576 0 59.162 0 62.8326C0 63.9431 0.441131 65.0081 1.22635 65.7933C2.01157 66.5785 3.07655 67.0197 4.18701 67.0197H62.8052C63.9157 67.0197 64.9807 66.5785 65.7659 65.7933C66.5511 65.0081 66.9922 63.9431 66.9922 62.8326C66.9922 59.3993 66.9922 60.0413 66.8387 59.4272ZM2.79134 26.5452C2.79212 24.5255 3.52282 22.5741 4.8488 21.0507C6.17478 19.5272 8.00669 18.5343 10.007 18.2549C10.3141 18.2028 10.595 18.0495 10.8049 17.8194C11.0148 17.5892 11.1417 17.2954 11.1654 16.9848C11.4063 13.9304 12.5556 11.0179 14.4655 8.62212C16.3754 6.22631 18.9585 4.45678 21.8824 3.54118C24.8063 2.62558 27.9373 2.6058 30.8726 3.48439C33.8078 4.36298 36.413 6.09975 38.3531 8.47124C39.3021 9.6436 40.0279 8.47124 43.21 8.47124C45.7415 8.47179 48.1977 9.33259 50.1757 10.9125C52.1537 12.4923 53.5361 14.6975 54.0962 17.1663C54.2144 17.5147 54.4548 17.8086 54.773 17.9933C55.0913 18.1781 55.4656 18.2413 55.8269 18.1712C58.0478 18.1712 60.1778 19.0534 61.7482 20.6239C63.3186 22.1943 64.2009 24.3243 64.2009 26.5452C64.2009 28.7661 63.3186 30.8961 61.7482 32.4665C60.1778 34.037 58.0478 34.9192 55.8269 34.9192H46.0572C46.1424 35.8548 46.0716 36.7981 45.8478 37.7106H53.0355V44.6889H13.9567V37.7106H21.1444C20.9185 36.7984 20.8477 35.8548 20.9351 34.9192H11.1654C8.94444 34.9192 6.81447 34.037 5.24404 32.4665C3.6736 30.8961 2.79134 28.7661 2.79134 26.5452ZM12.561 47.4803H54.4312C54.8013 47.4803 55.1563 47.3332 55.4181 47.0715C55.6798 46.8097 55.8269 46.4547 55.8269 46.0846V37.7106C56.7687 37.7044 57.7061 37.5825 58.6182 37.3477V50.2716H8.37403V37.3477C9.28611 37.5825 10.2236 37.7044 11.1654 37.7106V46.0846C11.1654 46.4547 11.3124 46.8097 11.5742 47.0715C11.8359 47.3332 12.1909 47.4803 12.561 47.4803ZM7.73202 53.0629H59.2602L62.9867 58.6456H4.00558L7.73202 53.0629ZM64.2009 62.8326C64.2009 63.2028 64.0538 63.5578 63.7921 63.8195C63.5304 64.0813 63.1754 64.2283 62.8052 64.2283H4.18701C3.81686 64.2283 3.46186 64.0813 3.20013 63.8195C2.93839 63.5578 2.79134 63.2028 2.79134 62.8326V61.437H64.2009V62.8326Z" fill="#424242"/>
<path d="M43.266 26.9355V29.3361C43.266 31.6529 38.8975 33.5231 33.4963 33.5231C28.095 33.5231 23.7266 31.6529 23.7266 29.3361V26.9355C28.4579 30.1456 38.5346 30.1456 43.266 26.9355Z" fill="#42A5F5"/>
<path d="M43.266 33.9141V36.3146C43.266 38.6314 38.8975 40.5016 33.4963 40.5016C28.095 40.5016 23.7266 38.6314 23.7266 36.3146V33.9141C28.4579 37.1241 38.5346 37.1241 43.266 33.9141Z" fill="#42A5F5"/>
</svg>
