<svg width="69" height="68" viewBox="0 0 69 68" fill="none" xmlns="http://www.w3.org/2000/svg">
<g id="Big Server">
<path id="Vector" d="M52.4251 17.0023L48.1744 15.5855L43.9238 17.0023V9.91797H52.4251V17.0023Z" fill="#42A5F5"/>
<path id="Vector_2" d="M28.3372 34.0053L24.0866 32.5884L19.8359 34.0053V26.9209H28.3372V34.0053Z" fill="#42A5F5"/>
<path id="Vector_3" d="M46.7571 51.0072L42.5065 49.5903L38.2559 51.0072V43.9229H46.7571V51.0072Z" fill="#42A5F5"/>
<path id="Vector_4" d="M58.0916 39.6729H9.91797V42.5066H58.0916V39.6729Z" fill="#42A5F5"/>
<path id="Vector_5" d="M58.0916 22.6699H9.91797V25.5037H58.0916V22.6699Z" fill="#42A5F5"/>
<path id="Vector_6" d="M55.2582 34.0046C55.0258 34.0033 54.7973 33.9448 54.5929 33.8343C54.3884 33.7238 54.2143 33.5647 54.0858 33.371C53.9573 33.1773 53.8784 32.955 53.8561 32.7237C53.8338 32.4924 53.8688 32.2591 53.9579 32.0445C54.047 31.8298 54.1876 31.6404 54.3672 31.4929C54.5468 31.3454 54.7599 31.2443 54.9878 31.1986C55.2157 31.1529 55.4513 31.1639 55.6739 31.2307C55.8965 31.2976 56.0992 31.4181 56.2642 31.5818C56.464 31.7799 56.6003 32.0331 56.6557 32.3091C56.711 32.585 56.683 32.8712 56.575 33.1311C56.4671 33.391 56.2842 33.6129 56.0497 33.7685C55.8152 33.924 55.5397 34.0063 55.2582 34.0046Z" fill="#424242"/>
<path id="Vector_7" d="M49.5903 34.0046C49.3579 34.0033 49.1294 33.9448 48.9249 33.8343C48.7204 33.7238 48.5463 33.5647 48.4178 33.371C48.2893 33.1773 48.2105 32.955 48.1882 32.7237C48.1659 32.4924 48.2008 32.2591 48.29 32.0445C48.3791 31.8298 48.5196 31.6404 48.6992 31.4929C48.8788 31.3454 49.0919 31.2443 49.3198 31.1986C49.5477 31.1529 49.7833 31.1639 50.0059 31.2307C50.2285 31.2976 50.4312 31.4181 50.5962 31.5818C50.7961 31.7799 50.9323 32.0331 50.9877 32.3091C51.0431 32.585 51.015 32.8712 50.9071 33.1311C50.7992 33.391 50.6163 33.6129 50.3818 33.7685C50.1472 33.924 49.8717 34.0063 49.5903 34.0046Z" fill="#424242"/>
<path id="Vector_8" d="M43.922 34.0053C43.5905 34.012 43.2672 33.9022 43.0083 33.6951C42.7494 33.488 42.5714 33.1967 42.5051 32.8718C42.447 32.5865 42.4781 32.2903 42.5943 32.0233C42.7105 31.7563 42.9061 31.5316 43.1545 31.3798C43.403 31.228 43.6922 31.1563 43.9827 31.1747C44.2733 31.193 44.5512 31.3005 44.7785 31.4824C45.0059 31.6642 45.1717 31.9118 45.2534 32.1912C45.3351 32.4707 45.3287 32.7685 45.2351 33.0442C45.1415 33.3199 44.9652 33.5601 44.7303 33.7321C44.4953 33.9041 44.2131 33.9995 43.922 34.0053Z" fill="#424242"/>
<path id="Vector_9" d="M8.50174 22.6699H59.5091C60.2606 22.6699 60.9814 22.3714 61.5129 21.84C62.0443 21.3085 62.3428 20.5878 62.3428 19.8362C62.3428 9.39386 62.9521 13.2477 60.0475 3.08878C59.7945 2.19826 59.2576 1.41469 58.5185 0.857181C57.7794 0.299669 56.8785 -0.0013045 55.9527 4.25019e-06H12.0297C11.1088 0.00484529 10.2144 0.308649 9.48102 0.865699C8.74765 1.42275 8.21504 2.20291 7.96333 3.08878C5.51214 11.6609 5.668 10.8391 5.668 11.335V19.8362C5.668 20.5878 5.96655 21.3085 6.49798 21.84C7.02941 22.3714 7.75019 22.6699 8.50174 22.6699ZM8.50174 19.8362C8.50174 10.6832 8.50174 11.6183 8.50174 11.335C63.363 11.335 59.3674 11.2216 59.5091 11.5333V19.8362H8.50174ZM12.0581 2.83375H55.9811C56.2991 2.82199 56.6118 2.91763 56.8688 3.10526C57.1259 3.29289 57.3122 3.56159 57.3979 3.86806L58.6448 8.50123H9.36603L10.6979 3.86806C10.7812 3.57112 10.959 3.30945 11.2045 3.12278C11.45 2.93611 11.7497 2.83463 12.0581 2.83375Z" fill="#424242"/>
<path id="Vector_10" d="M8.50171 39.6726H59.5091C60.2606 39.6726 60.9814 39.3741 61.5128 38.8426C62.0443 38.3112 62.3428 37.5904 62.3428 36.8389V28.3376C62.3428 27.5861 62.0443 26.8653 61.5128 26.3339C60.9814 25.8025 60.2606 25.5039 59.5091 25.5039H8.50171C7.75016 25.5039 7.02938 25.8025 6.49795 26.3339C5.96652 26.8653 5.66797 27.5861 5.66797 28.3376V36.8389C5.66797 37.5904 5.96652 38.3112 6.49795 38.8426C7.02938 39.3741 7.75016 39.6726 8.50171 39.6726ZM8.50171 28.3376H59.5091V36.8389H8.50171V28.3376Z" fill="#424242"/>
<path id="Vector_11" d="M66.5929 62.3421H38.0005C37.7889 61.7478 37.4478 61.2081 37.0017 60.7621C36.5557 60.3161 36.016 59.9749 35.4218 59.7633V56.6746H59.5086C60.2601 56.6746 60.9809 56.376 61.5123 55.8446C62.0438 55.3132 62.3423 54.5924 62.3423 53.8408V45.3396C62.3423 44.588 62.0438 43.8673 61.5123 43.3358C60.9809 42.8044 60.2601 42.5059 59.5086 42.5059H8.50123C7.74967 42.5059 7.0289 42.8044 6.49747 43.3358C5.96604 43.8673 5.66748 44.588 5.66748 45.3396V53.8408C5.66748 54.5924 5.96604 55.3132 6.49747 55.8446C7.0289 56.376 7.74967 56.6746 8.50123 56.6746H32.588V59.7633C31.9938 59.9749 31.4541 60.3161 31.0081 60.7621C30.5621 61.2081 30.2209 61.7478 30.0093 62.3421H1.41687C1.04109 62.3421 0.680707 62.4913 0.414992 62.757C0.149277 63.0228 0 63.3831 0 63.7589C0 64.1347 0.149277 64.4951 0.414992 64.7608C0.680707 65.0265 1.04109 65.1758 1.41687 65.1758H30.0093C30.3072 65.9964 30.8504 66.7054 31.5653 67.2064C32.2801 67.7074 33.1319 67.9762 34.0049 67.9762C34.8779 67.9762 35.7297 67.7074 36.4445 67.2064C37.1594 66.7054 37.7026 65.9964 38.0005 65.1758H66.5929C66.9687 65.1758 67.3291 65.0265 67.5948 64.7608C67.8605 64.4951 68.0098 64.1347 68.0098 63.7589C68.0098 63.3831 67.8605 63.0228 67.5948 62.757C67.3291 62.4913 66.9687 62.3421 66.5929 62.3421ZM8.50123 45.3396H59.5086V53.8408H8.50123V45.3396Z" fill="#424242"/>
<path id="Vector_12" d="M26.9215 14.1689H12.7528C12.377 14.1689 12.0166 14.3182 11.7509 14.5839C11.4852 14.8497 11.3359 15.21 11.3359 15.5858C11.3359 15.9616 11.4852 16.322 11.7509 16.5877C12.0166 16.8534 12.377 17.0027 12.7528 17.0027H26.9215C27.2973 17.0027 27.6577 16.8534 27.9234 16.5877C28.1891 16.322 28.3384 15.9616 28.3384 15.5858C28.3384 15.21 28.1891 14.8497 27.9234 14.5839C27.6577 14.3182 27.2973 14.1689 26.9215 14.1689Z" fill="#424242"/>
<path id="Vector_13" d="M26.9215 48.1738H12.7528C12.377 48.1738 12.0166 48.3231 11.7509 48.5888C11.4852 48.8545 11.3359 49.2149 11.3359 49.5907C11.3359 49.9665 11.4852 50.3269 11.7509 50.5926C12.0166 50.8583 12.377 51.0076 12.7528 51.0076H26.9215C27.2973 51.0076 27.6577 50.8583 27.9234 50.5926C28.1891 50.3269 28.3384 49.9665 28.3384 49.5907C28.3384 49.2149 28.1891 48.8545 27.9234 48.5888C27.6577 48.3231 27.2973 48.1738 26.9215 48.1738Z" fill="#424242"/>
</g>
</svg>
