<svg width="67" height="66" viewBox="0 0 67 66" fill="none" xmlns="http://www.w3.org/2000/svg">
<path d="M24.752 38.5H4.12695V41.25H24.752V38.5Z" fill="#42A5F5"/>
<path d="M50.877 22H4.12695V24.75H50.877V22Z" fill="#42A5F5"/>
<path d="M55.002 27.5V30.25H52.252V27.5H2.75195V35.75H26.127V38.5H2.75195C2.02261 38.5 1.32313 38.2103 0.80741 37.6945C0.291684 37.1788 0.00195313 36.4793 0.00195312 35.75V27.5C0.00195313 26.7707 0.291684 26.0712 0.80741 25.5555C1.32313 25.0397 2.02261 24.75 2.75195 24.75H52.252C52.9813 24.75 53.6808 25.0397 54.1965 25.5555C54.7122 26.0712 55.002 26.7707 55.002 27.5Z" fill="#424242"/>
<path d="M52.7744 2.9975C52.5289 2.13329 52.0079 1.37289 51.2906 0.831849C50.5734 0.290813 49.6991 -0.00126595 48.8007 4.12459e-06H6.17567C5.28196 0.0047021 4.41395 0.299528 3.70226 0.840117C2.99057 1.3807 2.4737 2.13781 2.22943 2.9975C-0.149325 11.33 0.00192518 10.5188 0.00192518 11V19.25C0.00192518 19.9793 0.291657 20.6788 0.807382 21.1945C1.32311 21.7103 2.02258 22 2.75193 22H52.2519C52.9813 22 53.6807 21.7103 54.1965 21.1945C54.7122 20.6788 55.0019 19.9793 55.0019 19.25C55.0019 9.13 55.5932 12.87 52.7744 2.9975ZM4.88318 3.74C4.96891 3.44515 5.15088 3.18748 5.40007 3.00806C5.64927 2.82864 5.95135 2.73779 6.25818 2.75H48.8832C49.19 2.73779 49.4921 2.82864 49.7413 3.00806C49.9905 3.18748 50.1724 3.44515 50.2582 3.74L51.4132 8.25H3.59068L4.88318 3.74ZM52.2519 19.25H2.75193V11.1925C2.83443 10.89 -1.13933 11 52.2519 11C52.2519 11.275 52.2519 10.285 52.2519 19.25Z" fill="#424242"/>
<path d="M2.75195 44V52.25H26.127V55H2.75195C2.02261 55 1.32313 54.7103 0.80741 54.1945C0.291684 53.6788 0.00195313 52.9793 0.00195312 52.25V44C0.00195313 43.2707 0.291684 42.5712 0.80741 42.0555C1.32313 41.5397 2.02261 41.25 2.75195 41.25H26.127V44H2.75195Z" fill="#424242"/>
<path d="M20.627 13.75H6.87695C6.51228 13.75 6.16254 13.8949 5.90468 14.1527C5.64682 14.4106 5.50195 14.7603 5.50195 15.125C5.50195 15.4897 5.64682 15.8394 5.90468 16.0973C6.16254 16.3551 6.51228 16.5 6.87695 16.5H20.627C20.9916 16.5 21.3414 16.3551 21.5992 16.0973C21.8571 15.8394 22.002 15.4897 22.002 15.125C22.002 14.7603 21.8571 14.4106 21.5992 14.1527C21.3414 13.8949 20.9916 13.75 20.627 13.75Z" fill="#42A5F5"/>
<path d="M6.87695 46.75C6.51228 46.75 6.16254 46.8949 5.90468 47.1527C5.64682 47.4106 5.50195 47.7603 5.50195 48.125C5.50195 48.4897 5.64682 48.8394 5.90468 49.0973C6.16254 49.3551 6.51228 49.5 6.87695 49.5H20.627C20.9916 49.5 21.3414 49.3551 21.5992 49.0973C21.8571 48.8394 22.002 48.4897 22.002 48.125C22.002 47.7603 21.8571 47.4106 21.5992 47.1527C21.3414 46.8949 20.9916 46.75 20.627 46.75H6.87695Z" fill="#42A5F5"/>
<path d="M6.87695 30.25C6.51228 30.25 6.16254 30.3949 5.90468 30.6527C5.64682 30.9106 5.50195 31.2603 5.50195 31.625C5.50195 31.9897 5.64682 32.3394 5.90468 32.5973C6.16254 32.8551 6.51228 33 6.87695 33H20.627C20.9916 33 21.3414 32.8551 21.5992 32.5973C21.8571 32.3394 22.002 31.9897 22.002 31.625C22.002 31.2603 21.8571 30.9106 21.5992 30.6527C21.3414 30.3949 20.9916 30.25 20.627 30.25H6.87695Z" fill="#42A5F5"/>
<path d="M49.103 14.1487C48.8779 13.9245 48.5821 13.7852 48.2659 13.7545C47.9497 13.7238 47.6326 13.8035 47.3685 13.9801C47.1044 14.1567 46.9096 14.4193 46.8172 14.7232C46.7248 15.0272 46.7406 15.3537 46.8617 15.6474C46.9393 15.8356 47.0578 16.0041 47.2084 16.141C47.3591 16.2778 47.5382 16.3794 47.733 16.4386C47.9277 16.4978 48.1331 16.513 48.3345 16.4832C48.5358 16.4533 48.728 16.3792 48.8971 16.266C49.0663 16.1529 49.2083 16.0036 49.3128 15.829C49.4173 15.6543 49.4817 15.4587 49.5014 15.2561C49.5211 15.0535 49.4955 14.8491 49.4266 14.6576C49.3577 14.4661 49.2472 14.2923 49.103 14.1487Z" fill="#42A5F5"/>
<path d="M43.6027 14.1486C43.4422 13.9892 43.245 13.8718 43.0283 13.8069C42.8117 13.742 42.5824 13.7315 42.3608 13.7764C42.1391 13.8212 41.9319 13.9201 41.7576 14.0642C41.5833 14.2082 41.4472 14.3931 41.3614 14.6023C41.2561 14.8527 41.2273 15.1287 41.2787 15.3954C41.3301 15.6622 41.4594 15.9077 41.6502 16.1011C41.9091 16.36 42.2602 16.5054 42.6264 16.5054C42.9926 16.5054 43.3437 16.36 43.6027 16.1011C43.8616 15.8421 44.007 15.491 44.007 15.1248C44.007 14.7586 43.8616 14.4075 43.6027 14.1486Z" fill="#42A5F5"/>
<path d="M38.103 14.1488C37.9103 13.9576 37.6653 13.8277 37.3989 13.7756C37.1325 13.7235 36.8566 13.7513 36.606 13.8557C36.3554 13.9601 36.1413 14.1364 35.9907 14.3623C35.8401 14.5881 35.7598 14.8535 35.7598 15.125C35.7598 15.3965 35.8401 15.6619 35.9907 15.8877C36.1413 16.1136 36.3554 16.2899 36.606 16.3943C36.8566 16.4987 37.1325 16.5265 37.3989 16.4744C37.6653 16.4223 37.9103 16.2924 38.103 16.1013C38.2319 15.9734 38.3342 15.8213 38.404 15.6538C38.4738 15.4862 38.5098 15.3065 38.5098 15.125C38.5098 14.9435 38.4738 14.7638 38.404 14.5962C38.3342 14.4287 38.2319 14.2766 38.103 14.1488Z" fill="#42A5F5"/>
<path d="M38.502 49.5C42.2989 49.5 45.377 48.2688 45.377 46.75C45.377 45.2312 42.2989 44 38.502 44C34.705 44 31.627 45.2312 31.627 46.75C31.627 48.2688 34.705 49.5 38.502 49.5Z" fill="#42A5F5"/>
<path d="M45.377 50.7925V53.5425C43.2135 54.5079 40.871 55.0068 38.502 55.0068C36.1329 55.0068 33.7904 54.5079 31.627 53.5425V50.7925C33.7904 51.7579 36.1329 52.2568 38.502 52.2568C40.871 52.2568 43.2135 51.7579 45.377 50.7925Z" fill="#42A5F5"/>
<path d="M45.377 56.5674V57.7499C45.377 59.2624 42.297 60.4999 38.502 60.4999C34.707 60.4999 31.627 59.2624 31.627 57.7499V56.5674C36.0738 58.1491 40.9301 58.1491 45.377 56.5674Z" fill="#42A5F5"/>
<path d="M50.877 48.125H59.127C59.4916 48.125 59.8414 47.9801 60.0992 47.7223C60.3571 47.4644 60.502 47.1147 60.502 46.75C60.502 46.3853 60.3571 46.0356 60.0992 45.7777C59.8414 45.5199 59.4916 45.375 59.127 45.375H50.877C50.5123 45.375 50.1625 45.5199 49.9047 45.7777C49.6468 46.0356 49.502 46.3853 49.502 46.75C49.502 47.1147 49.6468 47.4644 49.9047 47.7223C50.1625 47.9801 50.5123 48.125 50.877 48.125Z" fill="#424242"/>
<path d="M50.877 53.625H59.127C59.4916 53.625 59.8414 53.4801 60.0992 53.2223C60.3571 52.9644 60.502 52.6147 60.502 52.25C60.502 51.8853 60.3571 51.5356 60.0992 51.2777C59.8414 51.0199 59.4916 50.875 59.127 50.875H50.877C50.5123 50.875 50.1625 51.0199 49.9047 51.2777C49.6468 51.5356 49.502 51.8853 49.502 52.25C49.502 52.6147 49.6468 52.9644 49.9047 53.2223C50.1625 53.4801 50.5123 53.625 50.877 53.625Z" fill="#424242"/>
<path d="M50.877 59.125H59.127C59.4916 59.125 59.8414 58.9801 60.0992 58.7223C60.3571 58.4644 60.502 58.1147 60.502 57.75C60.502 57.3853 60.3571 57.0356 60.0992 56.7777C59.8414 56.5199 59.4916 56.375 59.127 56.375H50.877C50.5123 56.375 50.1625 56.5199 49.9047 56.7777C49.6468 57.0356 49.502 57.3853 49.502 57.75C49.502 58.1147 49.6468 58.4644 49.9047 58.7223C50.1625 58.9801 50.5123 59.125 50.877 59.125Z" fill="#424242"/>
<path d="M61.877 30.25H28.877C27.7829 30.25 26.7337 30.6846 25.9601 31.4582C25.1865 32.2318 24.752 33.281 24.752 34.375V61.875C24.752 62.969 25.1865 64.0182 25.9601 64.7918C26.7337 65.5654 27.7829 66 28.877 66H61.877C62.971 66 64.0202 65.5654 64.7938 64.7918C65.5674 64.0182 66.002 62.969 66.002 61.875V34.375C66.002 33.281 65.5674 32.2318 64.7938 31.4582C64.0202 30.6846 62.971 30.25 61.877 30.25ZM63.252 61.875C63.252 62.2397 63.1071 62.5894 62.8492 62.8473C62.5914 63.1051 62.2416 63.25 61.877 63.25H28.877C28.5123 63.25 28.1625 63.1051 27.9047 62.8473C27.6468 62.5894 27.502 62.2397 27.502 61.875V41.25H63.252V61.875ZM63.252 38.5H27.502V34.375C27.502 34.0103 27.6468 33.6606 27.9047 33.4027C28.1625 33.1449 28.5123 33 28.877 33H61.877C62.2416 33 62.5914 33.1449 62.8492 33.4027C63.1071 33.6606 63.252 34.0103 63.252 34.375V38.5Z" fill="#424242"/>
</svg>
