<svg width="605" height="569" viewBox="0 0 605 569" fill="none" xmlns="http://www.w3.org/2000/svg">
<path d="M279.755 32.3335C404.33 16.1286 611.274 100.491 564.626 302.755C517.978 505.019 553.148 486.216 553.148 486.216C554.633 498.292 545.316 509.375 532.339 510.971L304.332 539.011C75.7957 547.393 40.0184 390.835 31.51 322.936C15.967 198.899 107.807 54.7007 279.755 32.3335Z" fill="#D4E8F9"/>
<path opacity="0.14" d="M282.072 93.6281C394.647 78.97 521.894 145.901 502.469 289.16C483.044 432.419 502.469 457.66 502.469 457.66C503.674 467.461 495.745 461.737 485.395 463.01L303.549 485.373C121.247 491.783 93.1142 377.152 89.6104 314.022C82.5101 186.088 171.621 108.01 282.072 93.6281Z" fill="#C8EFFF"/>
<g clip-path="url(#clip0_2289_5429)">
<path d="M308.607 358C307.615 358.007 306.638 357.765 305.765 357.296L175.293 281.912C174.945 281.753 174.645 281.506 174.421 281.197C174.196 280.887 174.056 280.524 174.013 280.144C174.032 279.846 174.129 279.559 174.295 279.311C174.462 279.063 174.691 278.865 174.96 278.735L252.821 233.756C253.618 233.389 254.489 233.216 255.365 233.249C256.241 233.283 257.097 233.522 257.864 233.948L388.4 309.332C388.748 309.491 389.048 309.738 389.273 310.047C389.497 310.357 389.637 310.719 389.68 311.1C389.664 311.398 389.568 311.687 389.401 311.935C389.234 312.183 389.003 312.381 388.733 312.508L310.884 357.488C310.184 357.856 309.398 358.033 308.607 358ZM175.511 281.527L305.97 356.911C306.67 357.302 307.451 357.523 308.251 357.556C309.051 357.589 309.848 357.434 310.577 357.104L388.438 312.124C388.635 312.029 388.805 311.885 388.93 311.705C389.056 311.526 389.133 311.317 389.155 311.1C389.11 310.798 388.989 310.512 388.803 310.27C388.618 310.028 388.373 309.837 388.093 309.716L257.633 234.358C256.934 233.968 256.153 233.747 255.353 233.713C254.552 233.68 253.756 233.835 253.026 234.166L175.178 279.184C174.978 279.277 174.806 279.421 174.679 279.6C174.551 279.78 174.472 279.989 174.448 280.208C174.493 280.512 174.616 280.799 174.804 281.041C174.992 281.284 175.24 281.473 175.523 281.591L175.511 281.527Z" fill="#00A1E4"/>
<path d="M389.399 298.075L382.207 297.037L257.749 225.124C257.018 224.713 256.2 224.48 255.361 224.444C254.523 224.409 253.688 224.571 252.924 224.919L178.787 267.747L174.231 267.094V273.152C174.272 273.491 174.402 273.814 174.606 274.088C174.81 274.362 175.083 274.578 175.396 274.714L305.868 350.098C306.6 350.509 307.418 350.742 308.256 350.778C309.095 350.814 309.93 350.651 310.693 350.303L388.593 305.311C388.836 305.197 389.043 305.016 389.188 304.789C389.333 304.563 389.41 304.299 389.412 304.03L389.399 298.075Z" fill="#00A1E4"/>
<path d="M175.408 268.695L305.881 344.079C306.614 344.486 307.432 344.716 308.27 344.749C309.108 344.782 309.942 344.619 310.705 344.271L388.592 299.291C389.872 298.574 389.667 297.332 388.234 296.499L257.748 221.115C257.015 220.709 256.197 220.48 255.359 220.447C254.521 220.413 253.687 220.577 252.924 220.923L175.063 265.903C173.821 266.62 173.975 267.862 175.408 268.695Z" fill="#B2D3EA"/>
<path opacity="0.3" d="M186.708 270.219L303.321 337.598C303.975 337.965 304.707 338.173 305.456 338.204C306.205 338.235 306.951 338.089 307.634 337.778L377.228 297.575C378.328 296.935 378.187 295.821 376.92 295.078L260.295 227.699C259.64 227.335 258.909 227.129 258.16 227.098C257.411 227.067 256.665 227.211 255.982 227.519L186.388 267.658C185.288 268.311 185.429 269.438 186.708 270.219Z" fill="#038ECA"/>
<path d="M388.593 298.638L310.732 343.618C309.968 343.965 309.134 344.129 308.296 344.096C307.458 344.062 306.64 343.833 305.907 343.425L175.409 268.041C175.148 267.912 174.916 267.732 174.725 267.512C174.534 267.292 174.388 267.037 174.295 266.761C174.091 267.401 174.475 268.118 175.409 268.669L305.881 344.053C306.614 344.46 307.433 344.69 308.271 344.723C309.109 344.757 309.943 344.593 310.706 344.245L388.593 299.291C388.888 299.176 389.13 298.955 389.272 298.671C389.414 298.387 389.446 298.06 389.361 297.754C389.229 298.138 388.953 298.454 388.593 298.638Z" fill="white"/>
<path d="M538.812 264.789L517.734 252.98C513.024 250.342 508.878 244.527 507.419 238.508L489.17 163.047C488.082 158.602 485.752 154.559 482.451 151.392L479.891 159.23C479.655 160.102 479.224 160.908 478.629 161.587C478.035 162.266 477.294 162.801 476.461 163.149C475.294 163.491 474.065 163.57 472.863 163.38C471.662 163.189 470.517 162.734 469.512 162.048L466.53 160.332L463.907 168.426C463.671 169.299 463.237 170.107 462.641 170.786C462.044 171.465 461.299 171.999 460.464 172.345C459.297 172.69 458.068 172.77 456.866 172.579C455.663 172.389 454.519 171.932 453.515 171.244L449.676 169.054C445.286 166.492 441.268 161.011 439.706 155.363C438.445 150.749 435.828 146.622 432.194 143.516L430.441 147.23C430.128 147.957 429.664 148.608 429.079 149.141C428.494 149.673 427.802 150.074 427.05 150.317C425.923 150.582 424.754 150.611 423.616 150.404C422.478 150.197 421.394 149.757 420.433 149.113L418.437 147.973L414.457 156.426C414.141 157.152 413.675 157.803 413.091 158.337C412.507 158.871 411.816 159.276 411.065 159.525C409.936 159.785 408.765 159.811 407.625 159.601C406.485 159.392 405.4 158.952 404.436 158.308L400.085 155.747C395.311 152.993 391.203 147.063 389.847 141.006L371.661 59.5509C370.592 54.8445 368.124 50.5719 364.584 47.2943L338.298 119.195C338.032 120.025 337.584 120.785 336.986 121.419C336.388 122.053 335.655 122.545 334.842 122.858C333.685 123.176 332.472 123.239 331.287 123.042C330.103 122.845 328.975 122.393 327.983 121.718L325.282 120.168L322.275 128.39C322.014 129.217 321.572 129.975 320.981 130.609C320.39 131.243 319.664 131.736 318.858 132.053C317.701 132.371 316.489 132.434 315.305 132.24C314.121 132.045 312.993 131.597 311.998 130.926L296.705 122.089L313.086 112.689H313.188L325.039 119.541L351.492 47.2303C351.832 45.9831 352.598 44.8949 353.658 44.1553C354.717 43.4157 356.002 43.0716 357.289 43.1832C359.938 43.5565 362.406 44.7422 364.354 46.5771L367.476 38.0346C367.818 36.7887 368.585 35.702 369.644 34.9628C370.703 34.2235 371.987 33.8785 373.274 33.9875C378.597 34.3333 385.956 41.0956 388.004 50.24L406.292 131.772C407.571 137.637 411.731 143.58 416.325 146.244L418.309 147.384L420.164 143.465C420.615 142.357 421.416 141.428 422.445 140.82C423.473 140.212 424.673 139.958 425.859 140.096C428.156 140.419 430.316 141.382 432.092 142.875L436.149 134.256C436.605 133.15 437.409 132.224 438.439 131.616C439.469 131.008 440.669 130.753 441.856 130.888C446.809 131.31 453.682 137.291 456.139 146.064C457.687 151.61 461.616 157.002 465.929 159.499L466.313 159.717L469.026 151.38C469.314 150.1 470.045 148.964 471.09 148.172C472.134 147.379 473.425 146.982 474.734 147.051C477.573 147.362 480.226 148.616 482.272 150.611L485.01 142.184C485.957 139.289 487.967 137.727 490.718 137.842C496.08 138.06 503.324 144.489 505.563 153.749L523.813 229.235C525.233 235.152 529.303 240.864 533.923 243.452L554.962 255.234L554.758 255.593L533.693 243.785C528.97 241.146 524.824 235.332 523.365 229.299L505.115 153.851C502.953 144.886 495.76 138.483 490.667 138.265H490.411C487.979 138.265 486.226 139.661 485.369 142.325L482.566 150.931C486.005 154.177 488.425 158.357 489.528 162.957L507.777 238.418C509.211 244.335 513.28 250.047 517.9 252.634L538.978 264.443L538.812 264.789ZM432.425 143.119C436.153 146.284 438.831 150.51 440.103 155.235C441.639 160.78 445.581 166.172 449.881 168.669L453.72 170.86C454.671 171.515 455.755 171.952 456.895 172.138C458.034 172.324 459.201 172.255 460.311 171.935C461.086 171.609 461.777 171.109 462.329 170.474C462.882 169.839 463.281 169.086 463.497 168.272L466.159 160.089L465.699 159.832C461.296 157.271 457.29 151.789 455.716 146.141C453.31 137.484 446.617 131.695 441.792 131.285C440.69 131.146 439.573 131.378 438.616 131.944C437.66 132.509 436.918 133.377 436.507 134.41L432.425 143.119ZM466.658 159.935L469.704 161.689C470.654 162.347 471.739 162.783 472.879 162.967C474.02 163.151 475.187 163.078 476.295 162.752C477.073 162.432 477.767 161.935 478.322 161.302C478.877 160.669 479.278 159.916 479.494 159.102L482.054 151.085C480.057 149.084 477.449 147.809 474.644 147.461C472.085 147.358 470.242 148.741 469.346 151.508L466.658 159.935ZM364.738 46.8845C368.403 50.2312 370.957 54.6198 372.058 59.4613L390.295 140.967C391.574 146.833 395.734 152.776 400.341 155.439L404.692 158.001C405.605 158.618 406.635 159.041 407.718 159.244C408.801 159.447 409.914 159.425 410.988 159.179C411.703 158.949 412.359 158.567 412.912 158.058C413.464 157.55 413.9 156.927 414.188 156.234L418.194 147.729L416.184 146.577C411.424 143.823 407.303 137.893 405.946 131.836L387.645 50.3553C385.649 41.3901 378.482 34.7687 373.299 34.4229C372.101 34.3187 370.904 34.6403 369.919 35.3312C368.933 36.0221 368.223 37.0382 367.911 38.2011L364.738 46.8845ZM418.667 147.589L420.689 148.754C421.603 149.37 422.633 149.792 423.716 149.995C424.798 150.197 425.911 150.176 426.986 149.932C427.681 149.7 428.321 149.323 428.861 148.827C429.401 148.33 429.831 147.725 430.121 147.051L431.913 143.208C430.187 141.734 428.079 140.779 425.834 140.455C424.73 140.316 423.611 140.547 422.652 141.113C421.693 141.678 420.949 142.546 420.535 143.58L418.667 147.589ZM297.563 122.089L312.229 130.619C313.171 131.262 314.241 131.692 315.366 131.88C316.491 132.068 317.643 132.009 318.743 131.707C319.492 131.412 320.166 130.953 320.715 130.364C321.264 129.774 321.675 129.069 321.917 128.301L324.95 120.002L313.086 113.124L297.563 122.089ZM325.461 119.771L328.213 121.372C329.157 122.011 330.227 122.439 331.351 122.627C332.475 122.815 333.627 122.758 334.727 122.461C335.476 122.173 336.15 121.721 336.702 121.138C337.253 120.555 337.667 119.856 337.914 119.092L364.277 46.9998C362.372 45.1743 359.94 43.9958 357.328 43.6314C356.133 43.5297 354.94 43.8509 353.958 44.539C352.976 45.2272 352.266 46.2386 351.953 47.3968L325.461 119.771Z" fill="#00A1E4"/>
<path d="M313.086 112.894L328.06 121.539C332.565 124.1 336.57 123.165 338.055 119.118L367.669 38.1244C371.047 28.8775 384.881 37.2407 387.799 50.3042L406.036 131.81C407.316 137.778 411.488 143.708 416.172 146.423L420.536 148.985C424.759 151.431 428.586 150.727 430.262 147.192L436.29 134.384C440.027 126.457 452.492 133.936 455.896 146.154C457.457 151.79 461.386 157.181 465.776 159.717L469.615 161.907C474.222 164.571 478.305 163.483 479.7 159.205L485.203 142.286C488.3 132.745 502.159 140.686 505.346 153.813L523.608 229.236C525.042 235.165 529.188 240.98 533.847 243.58L554.963 255.414L313.086 112.894Z" fill="#D4E8F9"/>
<g opacity="0.5">
<path d="M297.152 121.859L312.126 130.503C316.618 133.065 320.636 132.13 322.108 128.083L351.735 47.0893C355.113 37.8424 368.935 46.2056 371.865 59.2691L390.089 140.775C391.433 146.743 395.554 152.673 400.238 155.388L404.589 157.95C408.825 160.396 412.652 159.691 414.315 156.157L420.356 143.349C424.093 135.421 436.558 142.901 439.949 155.119C441.523 160.754 445.452 166.146 449.829 168.682L453.668 170.872C458.288 173.536 462.371 172.447 463.765 168.17L469.217 151.213C472.327 141.671 486.187 149.612 489.361 162.74L507.61 238.2C509.057 244.13 513.19 249.945 517.849 252.545L538.926 264.353L297.152 121.859Z" fill="url(#paint0_linear_2289_5429)" style="mix-blend-mode:lighten"/>
</g>
<path d="M257.506 197.614L274.002 99.6895L272.722 99.1387L274.719 97.9989C274.957 97.8649 275.229 97.8033 275.502 97.8215C275.775 97.8397 276.036 97.9369 276.255 98.1013L408.071 174.254C408.63 174.609 409.084 175.108 409.385 175.698C409.687 176.288 409.825 176.948 409.786 177.609L393.149 276.315C393.125 276.526 393.05 276.728 392.929 276.902C392.808 277.077 392.646 277.218 392.458 277.314L390.512 278.441L390.128 276.623H390.231L259.221 200.931C258.668 200.579 258.218 200.087 257.916 199.504C257.615 198.922 257.474 198.27 257.506 197.614Z" fill="#DAF4FF"/>
<path d="M407.276 176.943L409.439 175.982C409.688 176.491 409.785 177.06 409.721 177.622L393.084 276.328C393.06 276.539 392.985 276.74 392.864 276.915C392.743 277.089 392.581 277.231 392.393 277.327L390.447 278.454L390.127 276.622H390.23L383.601 272.78L407.276 176.943Z" fill="#49A3FE"/>
<path d="M257.147 202.161L388.963 278.313C389.987 278.902 390.857 278.569 391.037 277.506L407.674 178.813C407.708 178.152 407.567 177.494 407.266 176.905C406.965 176.316 406.514 175.817 405.959 175.457L274.143 99.2921C273.131 98.7158 272.261 99.0488 272.082 100.099L255.445 198.805C255.406 199.465 255.543 200.124 255.842 200.714C256.141 201.303 256.591 201.803 257.147 202.161Z" fill="#121B6A"/>
<g opacity="0.51">
<path opacity="0.51" d="M273.681 101.137L406.112 177.622L389.385 276.572L257.044 200.137L273.681 101.137Z" fill="#029EE1"/>
</g>
<path d="M174.294 248.882L181.487 252.647L253.615 210.972C254.359 210.631 255.174 210.471 255.992 210.504C256.811 210.538 257.609 210.764 258.324 211.164L382.73 283.026C383.921 282.36 389.347 279.747 389.347 279.747L386.71 284.038C386.568 284.391 386.305 284.681 385.968 284.857L310.001 328.748C309.256 329.089 308.442 329.249 307.623 329.216C306.805 329.182 306.006 328.956 305.292 328.556L177.993 255.004C177.513 254.76 177.133 254.357 176.918 253.864L174.294 248.882Z" fill="#00A1E4"/>
<path d="M175.409 250.073L305.881 325.457C306.614 325.864 307.433 326.094 308.27 326.127C309.108 326.161 309.942 325.997 310.706 325.649L388.592 280.67C389.872 279.952 389.667 278.71 388.234 277.878L257.749 202.494C257.014 202.095 256.196 201.874 255.361 201.847C254.526 201.821 253.696 201.989 252.937 202.34L175.076 247.319C173.822 247.998 173.975 249.24 175.409 250.073Z" fill="#B2D3EA"/>
<g opacity="0.15">
<g opacity="0.15">
<path opacity="0.15" d="M256.993 201.52L264.185 205.286L336.313 163.611C337.058 163.27 337.873 163.11 338.691 163.143C339.509 163.176 340.308 163.402 341.023 163.803L465.378 235.639C466.568 234.973 471.994 232.36 471.994 232.36L469.358 236.651C469.225 237.005 468.965 237.297 468.629 237.47L392.661 281.361C391.915 281.696 391.101 281.853 390.284 281.82C389.467 281.786 388.669 281.564 387.952 281.169L260.64 207.604C260.165 207.365 259.789 206.966 259.578 206.477L256.993 201.52Z" fill="url(#paint1_linear_2289_5429)"/>
<path opacity="0.15" d="M258.056 202.698L388.592 278.082C389.324 278.493 390.142 278.726 390.98 278.762C391.818 278.798 392.653 278.635 393.417 278.287L471.265 233.308C472.545 232.59 472.353 231.335 470.92 230.516L340.434 155.132C339.701 154.726 338.883 154.496 338.046 154.461C337.209 154.425 336.375 154.585 335.61 154.927L257.761 199.919C256.52 200.636 256.673 201.878 258.056 202.698Z" fill="url(#paint2_linear_2289_5429)"/>
<path opacity="0.15" d="M470.906 230.516L340.434 155.132C339.447 154.602 338.325 154.374 337.209 154.479C338.002 154.532 338.775 154.754 339.474 155.132L469.947 230.516C471.38 231.336 471.533 232.591 470.292 233.308L392.431 278.287C391.938 278.556 391.392 278.714 390.831 278.749C391.711 278.844 392.6 278.684 393.391 278.287L471.239 233.308C472.493 232.591 472.34 231.336 470.906 230.516Z" fill="white"/>
<g opacity="0.5">
<path opacity="0.5" d="M326.446 189.725L322.261 187.317C322.064 187.214 321.844 187.16 321.622 187.16C321.399 187.16 321.179 187.214 320.982 187.317L316.336 190.032C315.965 190.25 315.939 190.583 316.272 190.775L320.457 193.196C320.654 193.299 320.874 193.353 321.097 193.353C321.32 193.353 321.539 193.299 321.737 193.196L326.395 190.481C326.753 190.25 326.779 189.917 326.446 189.725Z" fill="#24126A"/>
<path opacity="0.5" d="M332.896 193.464L328.724 191.044C328.526 190.941 328.307 190.887 328.084 190.887C327.861 190.887 327.642 190.941 327.444 191.044L322.786 193.759C322.427 193.977 322.402 194.297 322.786 194.489L326.971 196.91C327.168 197.013 327.388 197.067 327.611 197.067C327.833 197.067 328.053 197.013 328.25 196.91L332.896 194.194C333.216 193.99 333.242 193.657 332.896 193.464Z" fill="#24126A"/>
<path opacity="0.5" d="M339.359 197.217L335.174 194.797C334.977 194.694 334.757 194.64 334.534 194.64C334.312 194.64 334.092 194.694 333.895 194.797L329.249 197.512C328.878 197.73 328.865 198.063 329.249 198.255L333.434 200.663C333.631 200.766 333.851 200.82 334.074 200.82C334.297 200.82 334.516 200.766 334.714 200.663L339.359 197.947C339.679 197.717 339.692 197.384 339.359 197.217Z" fill="#24126A"/>
<path opacity="0.5" d="M334.444 202.161L330.259 199.779C330.062 199.676 329.842 199.622 329.619 199.622C329.397 199.622 329.177 199.676 328.98 199.779L325.076 202.059C324.718 202.277 324.692 202.597 325.076 202.802L329.261 205.21C329.459 205.313 329.678 205.367 329.901 205.367C330.124 205.367 330.343 205.313 330.541 205.21L334.38 202.93C334.751 202.687 334.841 202.341 334.444 202.161Z" fill="#24126A"/>
<path opacity="0.5" d="M340.907 205.888L336.723 203.468C336.524 203.368 336.305 203.315 336.083 203.315C335.86 203.315 335.641 203.368 335.443 203.468L331.539 205.748C331.168 205.965 331.143 206.298 331.539 206.49L335.712 208.911C335.911 209.008 336.13 209.059 336.351 209.059C336.573 209.059 336.792 209.008 336.991 208.911L340.831 206.631C341.24 206.414 341.24 206.081 340.907 205.888Z" fill="#24126A"/>
<path opacity="0.5" d="M347.357 209.615L343.172 207.207C342.975 207.104 342.755 207.05 342.533 207.05C342.31 207.05 342.09 207.104 341.893 207.207L338.053 209.487C337.695 209.692 337.669 210.025 338.053 210.217L342.238 212.637C342.436 212.74 342.655 212.794 342.878 212.794C343.101 212.794 343.32 212.74 343.518 212.637L347.421 210.358C347.639 210.14 347.639 209.82 347.357 209.615Z" fill="#24126A"/>
<path opacity="0.5" d="M353.82 213.355L349.635 210.935C349.438 210.831 349.218 210.777 348.995 210.777C348.773 210.777 348.553 210.831 348.356 210.935L344.452 213.214C344.094 213.432 344.068 213.752 344.452 213.957L348.637 216.365C348.836 216.465 349.055 216.517 349.277 216.517C349.499 216.517 349.718 216.465 349.917 216.365L353.82 214.072C354.127 213.867 354.153 213.547 353.82 213.355Z" fill="#24126A"/>
<path opacity="0.5" d="M360.283 217.082L356.099 214.674C355.901 214.571 355.681 214.517 355.459 214.517C355.236 214.517 355.016 214.571 354.819 214.674L350.915 216.953C350.544 217.171 350.519 217.504 350.915 217.696L355.088 220.117C355.286 220.218 355.505 220.271 355.727 220.271C355.95 220.271 356.169 220.218 356.367 220.117L360.207 217.837C360.591 217.607 360.616 217.274 360.283 217.082Z" fill="#24126A"/>
<path opacity="0.5" d="M366.733 220.821L362.548 218.4C362.351 218.297 362.131 218.243 361.909 218.243C361.686 218.243 361.466 218.297 361.269 218.4L357.365 220.68C357.007 220.885 356.981 221.218 357.365 221.41L361.55 223.831C361.748 223.934 361.967 223.988 362.19 223.988C362.413 223.988 362.632 223.934 362.83 223.831L366.733 221.551C367.053 221.346 367.066 221.013 366.733 220.821Z" fill="#24126A"/>
<path opacity="0.5" d="M373.235 224.548L369.05 222.128C368.853 222.025 368.633 221.971 368.41 221.971C368.188 221.971 367.968 222.025 367.771 222.128L363.931 224.408C363.573 224.625 363.547 224.958 363.931 225.15L368.116 227.558C368.314 227.661 368.533 227.715 368.756 227.715C368.979 227.715 369.198 227.661 369.396 227.558L373.299 225.278C373.504 225.074 373.53 224.741 373.235 224.548Z" fill="#24126A"/>
<path opacity="0.5" d="M379.633 228.275L375.449 225.867C375.251 225.764 375.032 225.71 374.809 225.71C374.586 225.71 374.366 225.764 374.169 225.867L370.266 228.16C369.894 228.365 369.869 228.698 370.266 228.89L374.438 231.31C374.636 231.411 374.855 231.464 375.078 231.464C375.3 231.464 375.519 231.411 375.717 231.31L379.557 229.031C379.966 228.8 379.992 228.467 379.633 228.275Z" fill="#24126A"/>
<path opacity="0.5" d="M386.109 232.015L381.924 229.595C381.726 229.491 381.507 229.438 381.284 229.438C381.061 229.438 380.842 229.491 380.644 229.595L376.741 231.874C376.382 232.092 376.357 232.412 376.741 232.604L380.926 235.025C381.123 235.128 381.343 235.182 381.566 235.182C381.788 235.182 382.008 235.128 382.205 235.025L386.045 232.745C386.429 232.54 386.441 232.207 386.109 232.015Z" fill="#24126A"/>
<path opacity="0.5" d="M392.572 235.742L388.388 233.321C388.19 233.218 387.971 233.164 387.748 233.164C387.525 233.164 387.305 233.218 387.108 233.321L383.217 235.639C382.859 235.857 382.833 236.19 383.217 236.382L387.402 238.803C387.601 238.902 387.82 238.954 388.042 238.954C388.264 238.954 388.483 238.902 388.682 238.803L392.585 236.523C392.88 236.267 392.905 235.934 392.572 235.742Z" fill="#24126A"/>
<path opacity="0.5" d="M331.758 207.463L327.573 205.043C327.375 204.94 327.156 204.886 326.933 204.886C326.71 204.886 326.49 204.94 326.293 205.043L322.39 207.323C322.018 207.54 321.993 207.861 322.39 208.053L326.562 210.473C326.76 210.574 326.979 210.627 327.202 210.627C327.424 210.627 327.643 210.574 327.841 210.473L331.745 208.194C332.065 208.014 332.09 207.681 331.758 207.463Z" fill="#24126A"/>
<path opacity="0.5" d="M325.192 203.698L321.02 201.277C320.823 201.174 320.603 201.12 320.38 201.12C320.157 201.12 319.938 201.174 319.74 201.277L315.901 203.557C315.53 203.775 315.504 204.108 315.837 204.3L320.022 206.708C320.219 206.811 320.439 206.865 320.662 206.865C320.885 206.865 321.104 206.811 321.302 206.708L325.205 204.428C325.512 204.223 325.538 203.89 325.192 203.698Z" fill="#24126A"/>
<path opacity="0.5" d="M318.627 199.907L309.669 194.694C309.471 194.593 309.252 194.54 309.029 194.54C308.807 194.54 308.587 194.593 308.389 194.694L304.55 196.974C304.179 197.191 304.153 197.524 304.486 197.717L313.444 202.916C313.642 203.02 313.861 203.073 314.084 203.073C314.307 203.073 314.527 203.02 314.724 202.916L318.627 200.637C318.947 200.432 318.973 200.099 318.627 199.907Z" fill="#24126A"/>
<path opacity="0.5" d="M311.013 202.341L303.706 198.127C303.508 198.024 303.288 197.97 303.066 197.97C302.843 197.97 302.623 198.024 302.426 198.127L298.522 200.419C298.151 200.624 298.138 200.957 298.522 201.149L305.83 205.376C306.027 205.479 306.247 205.533 306.47 205.533C306.693 205.533 306.912 205.479 307.11 205.376L310.949 203.096C311.333 202.904 311.346 202.584 311.013 202.341Z" fill="#24126A"/>
<path opacity="0.5" d="M338.208 211.216L334.036 208.744C333.838 208.643 333.618 208.59 333.396 208.59C333.173 208.59 332.954 208.643 332.756 208.744L328.853 211.024C328.494 211.241 328.469 211.574 328.853 211.766L333.037 214.187C333.236 214.287 333.455 214.339 333.677 214.339C333.9 214.339 334.119 214.287 334.317 214.187L338.157 211.907C338.528 211.741 338.553 211.408 338.208 211.216Z" fill="#24126A"/>
<path opacity="0.5" d="M344.67 214.943L340.485 212.586C340.287 212.486 340.068 212.434 339.846 212.434C339.623 212.434 339.404 212.486 339.206 212.586L335.302 214.878C334.944 215.083 334.918 215.416 335.302 215.609L339.487 218.029C339.685 218.132 339.904 218.186 340.127 218.186C340.35 218.186 340.569 218.132 340.767 218.029L344.67 215.749C344.977 215.468 345.003 215.147 344.67 214.943Z" fill="#24126A"/>
<path opacity="0.5" d="M351.133 218.682L346.949 216.262C346.751 216.158 346.532 216.104 346.309 216.104C346.086 216.104 345.866 216.158 345.669 216.262L341.766 218.541C341.394 218.759 341.369 219.079 341.766 219.284L345.938 221.692C346.136 221.793 346.355 221.846 346.578 221.846C346.8 221.846 347.019 221.793 347.217 221.692L351.121 219.412C351.479 219.207 351.479 218.874 351.133 218.682Z" fill="#24126A"/>
<path opacity="0.5" d="M357.584 222.409L353.412 219.989C353.212 219.891 352.994 219.841 352.772 219.841C352.55 219.841 352.331 219.891 352.132 219.989L348.229 222.268C347.87 222.486 347.845 222.819 348.229 223.011L352.414 225.432C352.611 225.535 352.831 225.589 353.053 225.589C353.276 225.589 353.496 225.535 353.693 225.432L357.597 223.152C357.878 222.934 357.878 222.601 357.584 222.409Z" fill="#24126A"/>
<path opacity="0.5" d="M364.046 226.136L359.861 223.728C359.664 223.625 359.444 223.571 359.222 223.571C358.999 223.571 358.779 223.625 358.582 223.728L354.678 226.008C354.32 226.213 354.294 226.546 354.678 226.738L358.863 229.159C359.061 229.262 359.28 229.316 359.503 229.316C359.726 229.316 359.945 229.262 360.143 229.159L363.982 226.879C364.353 226.674 364.379 226.341 364.046 226.136Z" fill="#24126A"/>
<path opacity="0.5" d="M370.509 229.877L366.324 227.456C366.127 227.353 365.907 227.299 365.684 227.299C365.461 227.299 365.242 227.353 365.044 227.456L361.141 229.736C360.77 229.953 360.744 230.286 361.141 230.479L365.313 232.886C365.512 232.985 365.731 233.036 365.953 233.036C366.175 233.036 366.394 232.985 366.593 232.886L370.496 230.594C370.816 230.402 370.842 230.069 370.509 229.877Z" fill="#24126A"/>
<path opacity="0.5" d="M376.959 233.603L372.787 231.195C372.589 231.094 372.369 231.041 372.147 231.041C371.924 231.041 371.705 231.094 371.507 231.195L367.668 233.475C367.309 233.692 367.284 234.025 367.668 234.217L371.852 236.638C372.05 236.741 372.27 236.795 372.492 236.795C372.715 236.795 372.935 236.741 373.132 236.638L377.036 234.358C377.279 234.128 377.304 233.795 376.959 233.603Z" fill="#24126A"/>
<path opacity="0.5" d="M383.473 237.342L379.288 234.922C379.091 234.819 378.871 234.765 378.648 234.765C378.425 234.765 378.206 234.819 378.008 234.922L374.105 237.202C373.747 237.406 373.721 237.739 374.105 237.932L378.29 240.352C378.487 240.455 378.707 240.509 378.93 240.509C379.153 240.509 379.372 240.455 379.57 240.352L383.473 238.072C383.729 237.867 383.755 237.535 383.473 237.342Z" fill="#24126A"/>
<path opacity="0.5" d="M389.872 241.07L385.687 238.649C385.489 238.546 385.27 238.492 385.047 238.492C384.824 238.492 384.605 238.546 384.407 238.649L380.504 240.929C380.133 241.147 380.107 241.48 380.504 241.672L384.676 244.08C384.874 244.181 385.093 244.234 385.316 244.234C385.538 244.234 385.758 244.181 385.956 244.08L389.795 241.8C390.192 241.595 390.217 241.262 389.872 241.07Z" fill="#24126A"/>
<path opacity="0.5" d="M401.39 247.704L392.265 242.428C392.068 242.324 391.848 242.271 391.625 242.271C391.402 242.271 391.183 242.324 390.985 242.428L387.082 244.707C386.711 244.925 386.685 245.258 387.082 245.45L396.207 250.714C396.404 250.817 396.624 250.871 396.847 250.871C397.069 250.871 397.289 250.817 397.486 250.714L401.39 248.434C401.671 248.229 401.697 247.896 401.39 247.704Z" fill="#24126A"/>
<path opacity="0.5" d="M389.526 254.62L381.848 250.176C381.65 250.072 381.431 250.019 381.208 250.019C380.985 250.019 380.765 250.072 380.568 250.176L376.664 252.455C376.293 252.673 376.268 252.993 376.664 253.185L384.343 257.642C384.541 257.744 384.761 257.796 384.983 257.796C385.205 257.796 385.425 257.744 385.623 257.642L389.526 255.363C389.872 255.145 389.872 254.85 389.526 254.62Z" fill="#24126A"/>
<path opacity="0.5" d="M337.312 217.581L333.127 215.147C332.93 215.044 332.71 214.99 332.487 214.99C332.264 214.99 332.045 215.044 331.847 215.147L327.944 217.427C327.586 217.645 327.56 217.978 327.944 218.17L332.129 220.578C332.326 220.681 332.546 220.735 332.769 220.735C332.992 220.735 333.211 220.681 333.409 220.578L337.312 218.298C337.632 218.106 337.657 217.773 337.312 217.581Z" fill="#24126A"/>
<path opacity="0.5" d="M330.695 213.752L326.51 211.306C326.312 211.202 326.093 211.148 325.87 211.148C325.647 211.148 325.428 211.202 325.23 211.306L321.327 213.585C320.968 213.803 320.943 214.136 321.327 214.328L325.512 216.749C325.709 216.852 325.929 216.906 326.151 216.906C326.374 216.906 326.594 216.852 326.791 216.749L330.695 214.469C331.002 214.277 331.002 213.944 330.695 213.752Z" fill="#24126A"/>
<path opacity="0.5" d="M324.079 209.935L319.894 207.463C319.696 207.36 319.477 207.306 319.254 207.306C319.031 207.306 318.812 207.36 318.614 207.463L314.711 209.743C314.34 209.96 314.327 210.28 314.711 210.473L318.896 212.893C319.093 212.996 319.313 213.05 319.536 213.05C319.758 213.05 319.978 212.996 320.176 212.893L324.079 210.613C324.386 210.46 324.412 210.127 324.079 209.935Z" fill="#24126A"/>
<path opacity="0.5" d="M317.462 206.106L313.277 203.685C313.08 203.582 312.86 203.528 312.637 203.528C312.415 203.528 312.195 203.582 311.997 203.685L308.094 205.965C307.723 206.183 307.697 206.516 308.094 206.708L312.266 209.129C312.465 209.226 312.684 209.277 312.906 209.277C313.128 209.277 313.347 209.226 313.546 209.129L317.385 206.849C317.769 206.631 317.795 206.298 317.462 206.106Z" fill="#24126A"/>
<path opacity="0.5" d="M343.8 221.308L339.615 218.9C339.418 218.797 339.198 218.743 338.975 218.743C338.753 218.743 338.533 218.797 338.336 218.9L334.432 221.18C334.074 221.398 334.048 221.731 334.432 221.923L338.617 224.343C338.815 224.447 339.034 224.501 339.257 224.501C339.48 224.501 339.699 224.447 339.897 224.343L343.8 222.064C344.082 221.833 344.107 221.551 343.8 221.308Z" fill="#24126A"/>
<path opacity="0.5" d="M350.199 225.047L346.015 222.627C345.817 222.524 345.597 222.47 345.375 222.47C345.152 222.47 344.932 222.524 344.735 222.627L340.895 224.907C340.524 225.112 340.499 225.445 340.895 225.637L345.067 228.057C345.266 228.158 345.485 228.211 345.707 228.211C345.93 228.211 346.149 228.158 346.347 228.057L350.187 225.778C350.545 225.573 350.571 225.24 350.199 225.047Z" fill="#24126A"/>
<path opacity="0.5" d="M356.687 228.775L352.502 226.354C352.305 226.251 352.085 226.197 351.863 226.197C351.64 226.197 351.42 226.251 351.223 226.354L347.319 228.634C346.961 228.852 346.936 229.185 347.319 229.377L351.479 231.798C351.676 231.901 351.896 231.955 352.119 231.955C352.341 231.955 352.561 231.901 352.758 231.798L356.598 229.518C357.007 229.3 357.033 228.967 356.687 228.775Z" fill="#24126A"/>
<path opacity="0.5" d="M363.151 232.502L358.966 230.094C358.767 229.994 358.548 229.941 358.326 229.941C358.104 229.941 357.885 229.994 357.686 230.094L353.783 232.386C353.424 232.591 353.399 232.924 353.783 233.116L357.968 235.537C358.165 235.64 358.385 235.694 358.608 235.694C358.83 235.694 359.05 235.64 359.247 235.537L363.151 233.257C363.458 233.078 363.483 232.707 363.151 232.502Z" fill="#24126A"/>
<path opacity="0.5" d="M369.613 236.242L365.428 233.821C365.23 233.718 365.011 233.664 364.788 233.664C364.565 233.664 364.345 233.718 364.148 233.821L360.245 236.101C359.873 236.319 359.848 236.639 360.245 236.844L364.417 239.252C364.615 239.353 364.834 239.406 365.056 239.406C365.279 239.406 365.498 239.353 365.696 239.252L369.536 236.972C369.92 236.767 369.945 236.434 369.613 236.242Z" fill="#24126A"/>
<path opacity="0.5" d="M376.063 239.968L371.878 237.548C371.681 237.445 371.461 237.391 371.239 237.391C371.016 237.391 370.796 237.445 370.599 237.548L366.695 239.827C366.337 240.045 366.311 240.378 366.695 240.57L370.88 242.991C371.079 243.091 371.298 243.143 371.52 243.143C371.742 243.143 371.962 243.091 372.16 242.991L376.063 240.711C376.383 240.493 376.396 240.16 376.063 239.968Z" fill="#24126A"/>
<path opacity="0.5" d="M382.526 243.695L378.354 241.287C378.157 241.184 377.937 241.13 377.714 241.13C377.491 241.13 377.272 241.184 377.074 241.287L373.235 243.605C372.877 243.81 372.851 244.143 373.235 244.335L377.42 246.756C377.617 246.859 377.837 246.913 378.06 246.913C378.283 246.913 378.502 246.859 378.7 246.756L382.603 244.476C382.833 244.22 382.859 243.9 382.526 243.695Z" fill="#24126A"/>
<path opacity="0.5" d="M388.989 247.435L384.753 245.015C384.555 244.911 384.336 244.857 384.113 244.857C383.89 244.857 383.671 244.911 383.473 245.015L379.634 247.333C379.263 247.55 379.237 247.871 379.634 248.076L383.806 250.483C384.005 250.582 384.224 250.633 384.446 250.633C384.668 250.633 384.887 250.582 385.086 250.483L388.925 248.191C389.296 247.96 389.322 247.627 388.989 247.435Z" fill="#24126A"/>
<path opacity="0.5" d="M395.439 251.162L391.254 248.754C391.057 248.651 390.837 248.597 390.614 248.597C390.392 248.597 390.172 248.651 389.975 248.754L386.033 251.008C385.674 251.226 385.649 251.559 386.033 251.751L390.218 254.171C390.415 254.275 390.635 254.328 390.858 254.328C391.08 254.328 391.3 254.275 391.497 254.171L395.401 251.892C395.759 251.687 395.772 251.354 395.439 251.162Z" fill="#24126A"/>
<path opacity="0.5" d="M321.711 215.442L317.526 213.021C317.328 212.918 317.109 212.864 316.886 212.864C316.663 212.864 316.444 212.918 316.246 213.021L312.343 215.301C311.972 215.519 311.946 215.852 312.343 216.044L316.528 218.465C316.726 218.564 316.945 218.615 317.167 218.615C317.39 218.615 317.609 218.564 317.807 218.465L321.711 216.185C322.043 215.967 322.043 215.634 321.711 215.442Z" fill="#24126A"/>
<path opacity="0.5" d="M315.287 211.728L311.102 209.308C310.903 209.207 310.684 209.155 310.462 209.155C310.24 209.155 310.021 209.207 309.822 209.308L305.983 211.587C305.612 211.805 305.586 212.138 305.983 212.33L310.155 214.751C310.353 214.852 310.572 214.905 310.795 214.905C311.017 214.905 311.237 214.852 311.435 214.751L315.274 212.471C315.645 212.253 315.645 211.92 315.287 211.728Z" fill="#24126A"/>
<path opacity="0.5" d="M308.849 208.014L304.677 205.606C304.479 205.505 304.26 205.452 304.037 205.452C303.815 205.452 303.596 205.505 303.398 205.606L299.558 207.886C299.187 208.104 299.162 208.437 299.494 208.629L303.679 211.049C303.877 211.152 304.096 211.206 304.319 211.206C304.542 211.206 304.761 211.152 304.959 211.049L308.798 208.77C309.169 208.539 309.246 208.206 308.849 208.014Z" fill="#24126A"/>
<path opacity="0.5" d="M302.425 204.299L298.24 201.892C298.041 201.791 297.822 201.739 297.6 201.739C297.378 201.739 297.158 201.791 296.96 201.892L293.057 204.184C292.698 204.389 292.673 204.722 293.057 204.914L297.242 207.335C297.439 207.438 297.659 207.492 297.881 207.492C298.104 207.492 298.324 207.438 298.521 207.335L302.425 205.055C302.745 204.825 302.757 204.492 302.425 204.299Z" fill="#24126A"/>
<path opacity="0.5" d="M296.205 207.937L292.021 205.529C291.822 205.429 291.603 205.377 291.381 205.377C291.158 205.377 290.939 205.429 290.741 205.529L289.461 206.285C289.103 206.503 289.077 206.836 289.461 207.028L293.646 209.448C293.843 209.552 294.063 209.606 294.286 209.606C294.509 209.606 294.728 209.552 294.926 209.448L296.205 208.693C296.513 208.462 296.538 208.142 296.205 207.937Z" fill="#24126A"/>
<path opacity="0.5" d="M304.588 212.791L300.416 210.371C300.218 210.27 299.999 210.217 299.776 210.217C299.554 210.217 299.335 210.27 299.136 210.371L297.857 211.126C297.485 211.331 297.46 211.664 297.793 211.856L301.977 214.277C302.175 214.38 302.395 214.434 302.617 214.434C302.84 214.434 303.06 214.38 303.257 214.277L304.537 213.521C304.908 213.316 304.934 212.983 304.588 212.791Z" fill="#24126A"/>
<path opacity="0.5" d="M310.986 216.428L306.814 214.02C306.616 213.919 306.397 213.866 306.174 213.866C305.952 213.866 305.733 213.919 305.535 214.02L304.255 214.763C303.884 214.981 303.858 215.314 304.255 215.506L308.427 217.926C308.624 218.03 308.844 218.084 309.067 218.084C309.29 218.084 309.509 218.03 309.707 217.926L310.986 217.171C311.306 217.004 311.332 216.684 310.986 216.428Z" fill="#24126A"/>
<path opacity="0.5" d="M317.385 220.181L313.213 217.709C313.015 217.609 312.796 217.557 312.573 217.557C312.351 217.557 312.132 217.609 311.934 217.709L310.654 218.465C310.283 218.682 310.257 219.015 310.654 219.207L314.826 221.615C315.024 221.716 315.243 221.769 315.466 221.769C315.688 221.769 315.907 221.716 316.106 221.615L317.385 220.86C317.705 220.706 317.731 220.373 317.385 220.181Z" fill="#24126A"/>
<path opacity="0.5" d="M323.797 223.882L319.612 221.462C319.414 221.359 319.195 221.305 318.972 221.305C318.749 221.305 318.529 221.359 318.332 221.462L317.052 222.217C316.681 222.422 316.655 222.755 317.052 222.947L321.224 225.368C321.422 225.469 321.642 225.522 321.864 225.522C322.087 225.522 322.306 225.469 322.504 225.368L323.784 224.612C324.104 224.408 324.129 224.113 323.797 223.882Z" fill="#24126A"/>
<path opacity="0.5" d="M359.516 244.528L355.318 242.107C355.12 242.006 354.901 241.953 354.678 241.953C354.456 241.953 354.237 242.006 354.038 242.107L352.759 242.863C352.388 243.068 352.362 243.401 352.759 243.593L356.944 246.013C357.141 246.117 357.361 246.17 357.583 246.17C357.806 246.17 358.026 246.117 358.223 246.013L359.503 245.258C359.836 245.053 359.861 244.72 359.516 244.528Z" fill="#24126A"/>
<path opacity="0.5" d="M365.914 248.216L361.717 245.809C361.518 245.71 361.299 245.659 361.077 245.659C360.855 245.659 360.636 245.71 360.437 245.809L359.157 246.564C358.786 246.782 358.76 247.115 359.157 247.307L363.342 249.728C363.54 249.831 363.759 249.885 363.982 249.885C364.205 249.885 364.424 249.831 364.622 249.728L365.902 248.972C366.234 248.741 366.26 248.447 365.914 248.216Z" fill="#24126A"/>
<path opacity="0.5" d="M372.313 251.917L368.116 249.497C367.916 249.399 367.698 249.349 367.476 249.349C367.254 249.349 367.035 249.399 366.836 249.497L365.556 250.252C365.185 250.47 365.159 250.803 365.556 250.995L369.728 253.403C369.927 253.503 370.146 253.555 370.368 253.555C370.59 253.555 370.809 253.503 371.008 253.403L372.288 252.647C372.633 252.442 372.659 252.109 372.313 251.917Z" fill="#24126A"/>
<path opacity="0.5" d="M378.712 255.619L374.515 253.198C374.317 253.095 374.098 253.041 373.875 253.041C373.652 253.041 373.432 253.095 373.235 253.198L371.955 253.954C371.584 254.159 371.558 254.492 371.955 254.684L376.127 257.104C376.325 257.206 376.545 257.258 376.767 257.258C376.989 257.258 377.209 257.206 377.407 257.104L378.687 256.349C379.032 256.131 379.058 255.811 378.712 255.619Z" fill="#24126A"/>
<path opacity="0.5" d="M328.161 219.169L323.989 216.761C323.791 216.66 323.571 216.607 323.349 216.607C323.126 216.607 322.907 216.66 322.709 216.761L318.87 219.041C318.499 219.246 318.473 219.579 318.806 219.771L322.991 222.192C323.188 222.295 323.408 222.349 323.631 222.349C323.853 222.349 324.073 222.295 324.27 222.192L328.174 219.912C328.442 219.694 328.506 219.374 328.161 219.169Z" fill="#24126A"/>
<path opacity="0.5" d="M334.624 222.909L330.439 220.488C330.242 220.385 330.022 220.331 329.8 220.331C329.577 220.331 329.357 220.385 329.16 220.488L325.269 222.832C324.911 223.05 324.885 223.37 325.269 223.575L329.454 225.983C329.652 226.083 329.872 226.135 330.094 226.135C330.316 226.135 330.535 226.083 330.734 225.983L334.637 223.69C334.931 223.434 334.957 223.101 334.624 222.909Z" fill="#24126A"/>
<path opacity="0.5" d="M341.087 226.674L336.902 224.267C336.704 224.163 336.485 224.109 336.262 224.109C336.039 224.109 335.819 224.163 335.622 224.267L331.719 226.546C331.348 226.764 331.322 227.097 331.719 227.289L335.904 229.71C336.101 229.813 336.321 229.867 336.543 229.867C336.766 229.867 336.986 229.813 337.183 229.71L341.023 227.43C341.394 227.161 341.419 226.828 341.087 226.674Z" fill="#24126A"/>
<path opacity="0.5" d="M347.537 230.375L343.365 227.955C343.167 227.854 342.947 227.801 342.725 227.801C342.503 227.801 342.283 227.854 342.085 227.955L338.246 230.234C337.875 230.439 337.849 230.772 338.182 230.964L342.367 233.385C342.564 233.488 342.784 233.542 343.007 233.542C343.229 233.542 343.449 233.488 343.646 233.385L347.55 231.105C347.857 230.888 347.882 230.516 347.537 230.375Z" fill="#24126A"/>
<path opacity="0.5" d="M354.038 234.102L349.854 231.682C349.656 231.578 349.437 231.524 349.214 231.524C348.991 231.524 348.771 231.578 348.574 231.682L344.734 233.961C344.376 234.179 344.351 234.512 344.734 234.704L348.919 237.112C349.117 237.215 349.336 237.269 349.559 237.269C349.782 237.269 350.002 237.215 350.199 237.112L354.102 234.832C354.307 234.627 354.333 234.358 354.038 234.102Z" fill="#24126A"/>
<path opacity="0.5" d="M360.437 237.83L356.252 235.422C356.055 235.319 355.835 235.265 355.612 235.265C355.39 235.265 355.17 235.319 354.973 235.422L351.069 237.702C350.698 237.919 350.673 238.252 351.069 238.444L355.254 240.865C355.452 240.968 355.671 241.022 355.894 241.022C356.117 241.022 356.336 240.968 356.534 240.865L360.437 238.585C360.77 238.355 360.796 238.022 360.437 237.83Z" fill="#24126A"/>
<path opacity="0.5" d="M366.913 241.57L362.741 239.149C362.543 239.048 362.323 238.995 362.101 238.995C361.878 238.995 361.659 239.048 361.461 239.149L357.622 241.429C357.251 241.647 357.225 241.967 357.558 242.159L361.717 244.605C361.914 244.708 362.134 244.762 362.357 244.762C362.58 244.762 362.799 244.708 362.997 244.605L366.836 242.325C367.233 242.044 367.258 241.762 366.913 241.57Z" fill="#24126A"/>
<path opacity="0.5" d="M373.375 245.296L369.19 242.876C368.993 242.773 368.773 242.719 368.551 242.719C368.328 242.719 368.108 242.773 367.911 242.876L364.007 245.156C363.649 245.373 363.624 245.706 364.007 245.898L368.192 248.306C368.39 248.409 368.609 248.463 368.832 248.463C369.055 248.463 369.275 248.409 369.472 248.306L373.375 246.027C373.682 245.886 373.708 245.489 373.375 245.296Z" fill="#24126A"/>
<path opacity="0.5" d="M379.839 249.023L375.654 246.615C375.455 246.515 375.236 246.463 375.014 246.463C374.792 246.463 374.572 246.515 374.374 246.615L370.535 248.908C370.163 249.113 370.138 249.446 370.535 249.638L374.707 252.058C374.905 252.16 375.124 252.212 375.347 252.212C375.569 252.212 375.788 252.16 375.986 252.058L379.89 249.779C380.146 249.548 380.171 249.228 379.839 249.023Z" fill="#24126A"/>
<path opacity="0.5" d="M327.866 198.357L315.542 191.236C315.345 191.133 315.125 191.079 314.902 191.079C314.679 191.079 314.46 191.133 314.262 191.236L310.359 193.516C310.001 193.734 309.975 194.054 310.359 194.259L322.67 201.367C322.869 201.465 323.088 201.516 323.31 201.516C323.532 201.516 323.751 201.465 323.95 201.367L327.789 199.074C328.173 198.882 328.199 198.498 327.866 198.357Z" fill="#24126A"/>
<path opacity="0.5" d="M407.212 244.195L394.888 237.087C394.689 236.987 394.47 236.935 394.248 236.935C394.026 236.935 393.806 236.987 393.608 237.087L389.705 239.379C389.346 239.584 389.321 239.917 389.705 240.109L402.016 247.23C402.214 247.334 402.433 247.388 402.656 247.388C402.879 247.388 403.098 247.334 403.296 247.23L407.199 244.951C407.519 244.72 407.545 244.387 407.212 244.195Z" fill="#24126A"/>
<path opacity="0.5" d="M395.233 229.466L391.049 227.059C390.851 226.955 390.632 226.901 390.409 226.901C390.186 226.901 389.966 226.955 389.769 227.059L385.11 229.786C384.752 229.991 384.727 230.324 385.11 230.517L389.295 232.937C389.493 233.04 389.712 233.094 389.935 233.094C390.158 233.094 390.378 233.04 390.575 232.937L395.221 230.222C395.541 229.991 395.566 229.658 395.233 229.466Z" fill="#24126A"/>
<path opacity="0.5" d="M348.33 202.34L341.637 198.498C341.439 198.395 341.22 198.341 340.997 198.341C340.774 198.341 340.555 198.395 340.357 198.498L335.712 201.226C335.34 201.431 335.315 201.764 335.648 201.956L342.341 205.798C342.538 205.901 342.758 205.955 342.981 205.955C343.203 205.955 343.423 205.901 343.621 205.798L348.266 203.083C348.637 202.891 348.663 202.571 348.33 202.34Z" fill="#24126A"/>
<path opacity="0.5" d="M389.001 225.88L382.321 222.038C382.123 221.937 381.904 221.884 381.681 221.884C381.459 221.884 381.239 221.937 381.041 222.038L376.396 224.753C376.037 224.958 376.012 225.291 376.396 225.483L383.089 229.325C383.286 229.428 383.506 229.482 383.729 229.482C383.952 229.482 384.171 229.428 384.369 229.325L389.014 226.61C389.321 226.392 389.334 226.072 389.001 225.88Z" fill="#24126A"/>
<path opacity="0.5" d="M357.647 207.758L350.954 203.916C350.757 203.813 350.537 203.759 350.314 203.759C350.091 203.759 349.872 203.813 349.674 203.916L345.08 206.644C344.709 206.862 344.683 207.182 345.08 207.387L351.76 211.229C351.959 211.329 352.178 211.381 352.4 211.381C352.623 211.381 352.842 211.329 353.04 211.229L357.699 208.501C357.954 208.283 357.98 207.95 357.647 207.758Z" fill="#24126A"/>
<path opacity="0.5" d="M345.079 207.463L374.155 224.254C374.354 224.355 374.573 224.408 374.795 224.408C375.018 224.408 375.237 224.355 375.435 224.254L380.17 221.475C380.503 221.283 380.49 220.95 380.17 220.745L351.094 203.941L345.079 207.463Z" fill="#24126A"/>
<path opacity="0.5" d="M407.123 239.815L411.781 242.504C411.943 242.583 412.12 242.625 412.3 242.625C412.479 242.625 412.657 242.583 412.818 242.504L414.725 241.39C415.019 241.211 415.045 240.942 414.725 240.788L410.067 238.099C409.907 238.013 409.729 237.969 409.548 237.969C409.367 237.969 409.189 238.013 409.03 238.099L407.123 239.213C406.867 239.379 406.842 239.648 407.123 239.815Z" fill="#24126A"/>
<path opacity="0.5" d="M400.609 236.049L405.267 238.739C405.427 238.824 405.605 238.868 405.785 238.868C405.966 238.868 406.144 238.824 406.304 238.739L408.211 237.624C408.505 237.458 408.531 237.176 408.211 237.022L403.552 234.333C403.393 234.248 403.215 234.203 403.034 234.203C402.853 234.203 402.675 234.248 402.516 234.333L400.622 235.447C400.353 235.639 400.34 235.895 400.609 236.049Z" fill="#24126A"/>
<path opacity="0.5" d="M394.146 232.322L398.804 235.012C398.969 235.086 399.148 235.125 399.329 235.125C399.51 235.125 399.688 235.086 399.853 235.012L401.747 233.898C402.055 233.718 402.067 233.449 401.747 233.296L397.14 230.517C396.978 230.434 396.798 230.392 396.616 230.392C396.433 230.392 396.254 230.434 396.091 230.517L394.197 231.618C393.89 231.887 393.877 232.156 394.146 232.322Z" fill="#24126A"/>
<path opacity="0.5" d="M397.256 238.009L401.914 240.712C402.075 240.794 402.252 240.836 402.433 240.836C402.613 240.836 402.79 240.794 402.951 240.712L404.858 239.61C405.152 239.431 405.165 239.162 404.858 238.995L400.199 236.306C400.038 236.227 399.861 236.186 399.681 236.186C399.501 236.186 399.324 236.227 399.163 236.306L397.256 237.42C397 237.587 396.974 237.856 397.256 238.009Z" fill="#24126A"/>
</g>
</g>
</g>
<g opacity="0.8">
<path opacity="0.8" d="M235.43 241.722L231.283 239.327C230.95 239.135 230.989 238.802 231.373 238.584L236.262 235.754C236.461 235.657 236.68 235.607 236.901 235.607C237.123 235.607 237.342 235.657 237.541 235.754L241.675 238.149C242.008 238.341 241.969 238.674 241.585 238.892L236.697 241.722C236.499 241.818 236.283 241.868 236.063 241.868C235.844 241.868 235.627 241.818 235.43 241.722Z" fill="#00A1E4"/>
<path opacity="0.8" d="M241.816 245.411L237.682 243.029C237.349 242.837 237.388 242.491 237.772 242.273L242.699 239.481C242.897 239.38 243.116 239.327 243.339 239.327C243.561 239.327 243.78 239.38 243.979 239.481L248.125 241.876C248.458 242.068 248.419 242.401 248.036 242.632L243.147 245.449C242.938 245.551 242.708 245.601 242.477 245.594C242.245 245.587 242.018 245.525 241.816 245.411Z" fill="#00A1E4"/>
<path opacity="0.8" d="M248.215 249.113L244.069 246.718C243.736 246.526 243.787 246.193 244.171 245.975L249.06 243.144C249.259 243.046 249.478 242.995 249.7 242.995C249.922 242.995 250.141 243.046 250.34 243.144L254.486 245.539C254.819 245.732 254.768 246.065 254.384 246.282L249.495 249.113C249.296 249.211 249.077 249.262 248.855 249.262C248.633 249.262 248.414 249.211 248.215 249.113Z" fill="#00A1E4"/>
<path opacity="0.8" d="M257.058 246.064L252.938 243.669C252.605 243.477 252.643 243.144 253.027 242.913L257.135 240.544C257.334 240.446 257.553 240.395 257.775 240.395C257.997 240.395 258.216 240.446 258.415 240.544L262.561 242.939C262.894 243.131 262.843 243.464 262.459 243.682L258.364 246.064C258.161 246.164 257.937 246.217 257.711 246.217C257.485 246.217 257.261 246.164 257.058 246.064Z" fill="#00A1E4"/>
<path opacity="0.8" d="M263.457 249.727L259.336 247.358C259.004 247.166 259.042 246.833 259.426 246.615L263.521 244.246C263.72 244.146 263.939 244.095 264.161 244.095C264.383 244.095 264.602 244.146 264.801 244.246L268.935 246.628C269.267 246.82 269.229 247.166 268.845 247.383L264.75 249.753C264.547 249.847 264.325 249.894 264.101 249.89C263.877 249.885 263.657 249.83 263.457 249.727Z" fill="#00A1E4"/>
<path opacity="0.8" d="M269.856 253.454L265.735 251.008C265.402 250.816 265.453 250.483 265.837 250.252L269.932 247.883C270.132 247.786 270.351 247.736 270.572 247.736C270.794 247.736 271.013 247.786 271.212 247.883L275.346 250.278C275.679 250.47 275.64 250.803 275.256 251.021L271.148 253.403C270.952 253.511 270.732 253.572 270.508 253.581C270.284 253.59 270.06 253.546 269.856 253.454Z" fill="#00A1E4"/>
<path opacity="0.8" d="M276.255 257.143L272.134 254.761C271.801 254.569 271.839 254.223 272.223 254.005L276.331 251.636C276.53 251.537 276.749 251.486 276.971 251.486C277.193 251.486 277.412 251.537 277.611 251.636L281.758 254.031C282.09 254.223 282.052 254.556 281.668 254.774L277.56 257.143C277.358 257.245 277.134 257.299 276.907 257.299C276.681 257.299 276.457 257.245 276.255 257.143Z" fill="#00A1E4"/>
<path opacity="0.8" d="M282.654 260.844L278.533 258.449C278.2 258.257 278.238 257.924 278.622 257.706L282.73 255.324C282.929 255.226 283.148 255.175 283.37 255.175C283.592 255.175 283.811 255.226 284.01 255.324L288.157 257.719C288.489 257.911 288.451 258.244 288.067 258.475L283.959 260.844C283.757 260.947 283.533 261 283.306 261C283.08 261 282.856 260.947 282.654 260.844Z" fill="#00A1E4"/>
<path opacity="0.8" d="M289.04 264.545L284.932 262.15C284.599 261.958 284.637 261.612 285.021 261.395L289.129 259.025C289.328 258.927 289.547 258.876 289.769 258.876C289.991 258.876 290.21 258.927 290.409 259.025L294.556 261.42C294.888 261.612 294.837 261.945 294.453 262.163L290.358 264.533C290.155 264.64 289.93 264.697 289.7 264.7C289.471 264.702 289.244 264.649 289.04 264.545Z" fill="#00A1E4"/>
<path opacity="0.8" d="M295.439 268.234L291.331 265.839C290.998 265.647 291.036 265.314 291.42 265.096L295.515 262.727C295.709 262.618 295.926 262.555 296.148 262.544C296.37 262.533 296.592 262.573 296.795 262.663L300.929 265.096C301.262 265.288 301.223 265.621 300.839 265.852L296.744 268.221C296.542 268.324 296.319 268.378 296.093 268.38C295.866 268.383 295.643 268.333 295.439 268.234Z" fill="#00A1E4"/>
<path opacity="0.8" d="M301.837 271.935L297.729 269.54C297.397 269.348 297.448 269.015 297.832 268.784L301.927 266.415C302.127 266.319 302.345 266.269 302.567 266.269C302.789 266.269 303.007 266.319 303.207 266.415L307.341 268.81C307.673 269.002 307.635 269.335 307.251 269.553L303.143 271.922C302.942 272.03 302.719 272.087 302.492 272.089C302.264 272.091 302.04 272.038 301.837 271.935Z" fill="#00A1E4"/>
<path opacity="0.8" d="M308.236 275.624L304.128 273.229C303.796 273.037 303.834 272.704 304.218 272.486L308.326 270.117C308.524 270.016 308.744 269.963 308.966 269.963C309.188 269.963 309.408 270.016 309.606 270.117L313.752 272.512C314.085 272.704 314.047 273.05 313.663 273.267L309.555 275.637C309.35 275.739 309.123 275.792 308.894 275.789C308.665 275.787 308.439 275.731 308.236 275.624Z" fill="#00A1E4"/>
<path opacity="0.8" d="M314.635 279.325L310.527 276.93C310.194 276.738 310.233 276.405 310.616 276.174L314.725 273.805C314.924 273.706 315.142 273.655 315.364 273.655C315.586 273.655 315.805 273.706 316.004 273.805L320.151 276.2C320.483 276.392 320.445 276.725 320.061 276.942L315.953 279.325C315.749 279.429 315.523 279.484 315.294 279.484C315.065 279.484 314.839 279.429 314.635 279.325Z" fill="#00A1E4"/>
<path opacity="0.8" d="M266.49 244.309L262.343 241.914C262.011 241.722 262.049 241.389 262.433 241.172L266.541 238.802C266.734 238.691 266.951 238.627 267.173 238.616C267.396 238.605 267.618 238.647 267.821 238.738L271.967 241.133C272.3 241.325 272.261 241.658 271.878 241.889L267.769 244.258C267.574 244.364 267.358 244.424 267.136 244.433C266.914 244.442 266.693 244.4 266.49 244.309Z" fill="#00A1E4"/>
<path opacity="0.8" d="M260.001 240.557L255.855 238.201C255.522 238.009 255.56 237.676 255.944 237.458L260.052 235.089C260.249 234.984 260.469 234.93 260.692 234.93C260.915 234.93 261.135 234.984 261.332 235.089L265.478 237.471C265.811 237.663 265.773 238.009 265.389 238.226L261.281 240.596C261.079 240.688 260.858 240.733 260.636 240.726C260.414 240.719 260.197 240.662 260.001 240.557Z" fill="#00A1E4"/>
<path opacity="0.8" d="M253.488 236.805L244.529 231.682C244.196 231.49 244.248 231.157 244.632 230.939L248.727 228.57C248.926 228.471 249.145 228.419 249.367 228.419C249.589 228.419 249.808 228.471 250.007 228.57L258.965 233.693C259.298 233.885 259.247 234.218 258.863 234.448L254.767 236.818C254.567 236.912 254.348 236.96 254.126 236.958C253.904 236.956 253.686 236.903 253.488 236.805Z" fill="#00A1E4"/>
<path opacity="0.8" d="M258.057 232.233L250.813 228.058C250.48 227.865 250.519 227.52 250.903 227.302L255.011 224.933C255.21 224.834 255.429 224.783 255.651 224.783C255.872 224.783 256.091 224.834 256.29 224.933L263.534 229.108C263.867 229.3 263.828 229.633 263.444 229.863L259.336 232.182C259.141 232.288 258.924 232.348 258.702 232.357C258.48 232.366 258.259 232.323 258.057 232.233Z" fill="#00A1E4"/>
<path opacity="0.8" d="M272.888 248.011L268.742 245.616C268.409 245.424 268.447 245.091 268.831 244.861L272.939 242.491C273.138 242.393 273.357 242.342 273.579 242.342C273.801 242.342 274.02 242.393 274.219 242.491L278.366 244.886C278.698 245.078 278.66 245.411 278.276 245.629L274.168 247.998C273.971 248.101 273.752 248.156 273.53 248.159C273.307 248.161 273.087 248.11 272.888 248.011Z" fill="#00A1E4"/>
<path opacity="0.8" d="M279.274 251.7L275.141 249.305C274.808 249.113 274.846 248.78 275.23 248.562L279.338 246.193C279.531 246.082 279.748 246.018 279.97 246.007C280.193 245.996 280.415 246.037 280.618 246.129L284.764 248.524C285.097 248.716 285.046 249.062 284.662 249.279L280.567 251.649C280.37 251.755 280.151 251.815 279.926 251.824C279.702 251.833 279.479 251.791 279.274 251.7Z" fill="#00A1E4"/>
<path opacity="0.8" d="M285.673 255.401L281.54 253.006C281.207 252.814 281.245 252.481 281.629 252.25L285.724 249.881C285.924 249.784 286.143 249.734 286.364 249.734C286.586 249.734 286.805 249.784 287.004 249.881L291.151 252.276C291.471 252.468 291.432 252.801 291.048 253.019L286.953 255.401C286.753 255.497 286.535 255.547 286.313 255.547C286.091 255.547 285.873 255.497 285.673 255.401Z" fill="#00A1E4"/>
<path opacity="0.8" d="M292.073 259.09L287.926 256.695C287.593 256.503 287.645 256.17 288.029 255.952L292.124 253.583C292.323 253.483 292.542 253.432 292.764 253.432C292.986 253.432 293.205 253.483 293.404 253.583L297.537 255.965C297.87 256.157 297.832 256.503 297.448 256.72L293.34 259.09C293.142 259.186 292.926 259.236 292.706 259.236C292.487 259.236 292.27 259.186 292.073 259.09Z" fill="#00A1E4"/>
<path opacity="0.8" d="M298.472 262.79L294.325 260.395C293.992 260.203 294.031 259.87 294.415 259.653L298.523 257.27C298.722 257.172 298.941 257.121 299.163 257.121C299.385 257.121 299.604 257.172 299.803 257.27L303.949 259.665C304.282 259.858 304.243 260.191 303.859 260.421L299.751 262.79C299.552 262.889 299.333 262.94 299.112 262.94C298.89 262.94 298.671 262.889 298.472 262.79Z" fill="#00A1E4"/>
<path opacity="0.8" d="M304.871 266.479L300.724 264.097C300.391 263.905 300.43 263.559 300.814 263.341L304.922 260.972C305.121 260.873 305.34 260.822 305.562 260.822C305.784 260.822 306.003 260.873 306.202 260.972L310.348 263.367C310.681 263.559 310.642 263.892 310.258 264.109L306.163 266.376C305.972 266.496 305.754 266.568 305.529 266.585C305.304 266.603 305.078 266.567 304.871 266.479Z" fill="#00A1E4"/>
<path opacity="0.8" d="M311.256 270.219L307.123 267.824C306.79 267.632 306.828 267.299 307.212 267.081L311.32 264.699C311.519 264.601 311.738 264.55 311.96 264.55C312.182 264.55 312.401 264.601 312.6 264.699L316.746 267.094C317.079 267.286 317.028 267.619 316.644 267.85L312.549 270.219C312.348 270.318 312.127 270.369 311.903 270.369C311.679 270.369 311.457 270.318 311.256 270.219Z" fill="#00A1E4"/>
<path opacity="0.8" d="M317.655 273.882L313.522 271.5C313.189 271.308 313.227 270.975 313.611 270.744L317.706 268.375C317.906 268.279 318.125 268.229 318.346 268.229C318.568 268.229 318.787 268.279 318.986 268.375L323.12 270.77C323.453 270.962 323.414 271.295 323.03 271.513L318.935 273.882C318.736 273.981 318.517 274.033 318.295 274.033C318.073 274.033 317.854 273.981 317.655 273.882Z" fill="#00A1E4"/>
<path opacity="0.8" d="M324.054 277.57L319.907 275.175C319.574 274.983 319.626 274.65 320.01 274.432L324.105 272.063C324.299 271.954 324.515 271.891 324.737 271.88C324.959 271.869 325.181 271.909 325.385 271.999L329.518 274.394C329.851 274.586 329.813 274.919 329.429 275.149L325.321 277.519C325.127 277.623 324.913 277.682 324.693 277.691C324.473 277.7 324.255 277.658 324.054 277.57Z" fill="#00A1E4"/>
<path opacity="0.8" d="M335.417 284.141L326.382 278.915C326.05 278.723 326.101 278.39 326.485 278.173L330.58 275.803C330.779 275.704 330.998 275.652 331.22 275.652C331.442 275.652 331.661 275.704 331.86 275.803L340.895 281.016C341.228 281.208 341.189 281.541 340.805 281.771L336.697 284.141C336.498 284.237 336.279 284.287 336.057 284.287C335.836 284.287 335.617 284.237 335.417 284.141Z" fill="#00A1E4"/>
<path opacity="0.8" d="M347.883 276.943L340.204 272.537C339.871 272.345 339.91 272.012 340.294 271.795L344.389 269.425C344.588 269.326 344.807 269.274 345.029 269.274C345.251 269.274 345.47 269.326 345.669 269.425L353.347 273.831C353.68 274.023 353.642 274.369 353.258 274.587L349.15 276.956C348.951 277.05 348.734 277.098 348.515 277.096C348.295 277.094 348.079 277.041 347.883 276.943Z" fill="#00A1E4"/>
<path opacity="0.8" d="M284.086 247.281L279.94 244.886C279.607 244.694 279.646 244.361 280.03 244.143L284.138 241.774C284.336 241.675 284.555 241.623 284.777 241.623C285 241.623 285.219 241.675 285.417 241.774L289.551 244.169C289.884 244.361 289.845 244.707 289.461 244.925L285.353 247.294C285.155 247.388 284.938 247.436 284.718 247.434C284.499 247.432 284.283 247.379 284.086 247.281Z" fill="#00A1E4"/>
<path opacity="0.8" d="M277.534 243.49L273.414 241.107C273.081 240.915 273.119 240.569 273.503 240.352L277.611 237.982C277.81 237.884 278.029 237.833 278.251 237.833C278.473 237.833 278.692 237.884 278.891 237.982L283.037 240.377C283.37 240.569 283.332 240.902 282.948 241.12L278.84 243.49C278.638 243.595 278.414 243.65 278.187 243.65C277.96 243.65 277.736 243.595 277.534 243.49Z" fill="#00A1E4"/>
<path opacity="0.8" d="M270.969 239.712L266.835 237.317C266.503 237.125 266.541 236.792 266.925 236.562L271.033 234.192C271.232 234.094 271.451 234.043 271.673 234.043C271.895 234.043 272.114 234.094 272.313 234.192L276.459 236.587C276.792 236.779 276.741 237.112 276.357 237.33L272.262 239.712C272.06 239.811 271.839 239.862 271.615 239.862C271.391 239.862 271.17 239.811 270.969 239.712Z" fill="#00A1E4"/>
<path opacity="0.8" d="M264.455 235.921L260.308 233.526C259.988 233.334 260.027 233.001 260.411 232.784L264.506 230.401C264.705 230.305 264.924 230.255 265.146 230.255C265.367 230.255 265.586 230.305 265.786 230.401L269.919 232.796C270.252 232.988 270.214 233.321 269.83 233.552L265.734 235.921C265.535 236.018 265.316 236.068 265.095 236.068C264.873 236.068 264.654 236.018 264.455 235.921Z" fill="#00A1E4"/>
<path opacity="0.8" d="M290.485 251.008L286.339 248.613C286.006 248.421 286.045 248.088 286.428 247.858L290.537 245.488C290.736 245.39 290.954 245.339 291.176 245.339C291.398 245.339 291.617 245.39 291.816 245.488L295.963 247.883C296.295 248.075 296.257 248.408 295.873 248.626L291.765 251.008C291.566 251.106 291.347 251.158 291.125 251.158C290.903 251.158 290.684 251.106 290.485 251.008Z" fill="#00A1E4"/>
<path opacity="0.8" d="M296.871 254.671L292.738 252.289C292.405 252.096 292.443 251.763 292.827 251.546L296.935 249.176C297.134 249.075 297.353 249.022 297.575 249.022C297.798 249.022 298.017 249.075 298.215 249.176L302.362 251.559C302.694 251.751 302.643 252.096 302.259 252.314L298.164 254.684C297.962 254.78 297.74 254.829 297.516 254.827C297.292 254.825 297.072 254.771 296.871 254.671Z" fill="#00A1E4"/>
<path opacity="0.8" d="M303.27 258.372L299.136 255.978C298.804 255.785 298.842 255.452 299.226 255.222L303.334 252.853C303.533 252.754 303.752 252.703 303.974 252.703C304.196 252.703 304.415 252.754 304.614 252.853L308.76 255.247C309.093 255.44 309.042 255.773 308.658 256.003L304.562 258.372C304.361 258.471 304.14 258.522 303.916 258.522C303.692 258.522 303.471 258.471 303.27 258.372Z" fill="#00A1E4"/>
<path opacity="0.8" d="M309.669 262.061L305.523 259.679C305.19 259.487 305.241 259.141 305.625 258.923L309.721 256.554C309.92 256.457 310.139 256.407 310.36 256.407C310.582 256.407 310.801 256.457 311 256.554L315.134 258.949C315.467 259.141 315.428 259.474 315.044 259.691L310.936 262.061C310.74 262.16 310.523 262.212 310.303 262.212C310.083 262.212 309.866 262.16 309.669 262.061Z" fill="#00A1E4"/>
<path opacity="0.8" d="M316.068 265.762L311.922 263.367C311.589 263.175 311.628 262.842 312.011 262.624L316.12 260.242C316.319 260.146 316.538 260.096 316.759 260.096C316.981 260.096 317.2 260.146 317.399 260.242L321.533 262.637C321.866 262.829 321.827 263.162 321.443 263.393L317.335 265.762C317.138 265.858 316.921 265.908 316.702 265.908C316.482 265.908 316.266 265.858 316.068 265.762Z" fill="#00A1E4"/>
<path opacity="0.8" d="M322.467 269.463L318.321 267.068C317.988 266.876 318.026 266.53 318.41 266.313L322.518 263.943C322.717 263.845 322.936 263.794 323.158 263.794C323.38 263.794 323.599 263.845 323.798 263.943L327.945 266.338C328.277 266.53 328.239 266.863 327.855 267.081L323.747 269.45C323.55 269.554 323.331 269.609 323.109 269.611C322.886 269.613 322.666 269.563 322.467 269.463Z" fill="#00A1E4"/>
<path opacity="0.8" d="M328.853 273.152L324.72 270.757C324.387 270.565 324.425 270.232 324.809 270.014L328.917 267.645C329.11 267.534 329.327 267.47 329.55 267.459C329.772 267.448 329.994 267.49 330.197 267.581L334.344 269.976C334.676 270.168 334.625 270.501 334.241 270.732L330.146 273.101C329.949 273.207 329.73 273.267 329.506 273.276C329.282 273.285 329.059 273.243 328.853 273.152Z" fill="#00A1E4"/>
<path opacity="0.8" d="M335.252 276.853L331.119 274.458C330.786 274.266 330.824 273.933 331.208 273.702L335.316 271.333C335.515 271.235 335.734 271.184 335.956 271.184C336.178 271.184 336.397 271.235 336.596 271.333L340.743 273.728C341.075 273.92 341.024 274.253 340.64 274.471L336.545 276.84C336.345 276.943 336.125 276.998 335.9 277.001C335.676 277.003 335.454 276.952 335.252 276.853Z" fill="#00A1E4"/>
<path opacity="0.8" d="M341.65 280.542L337.504 278.147C337.171 277.955 337.222 277.622 337.606 277.404L341.701 275.035C341.9 274.935 342.119 274.884 342.341 274.884C342.563 274.884 342.783 274.935 342.981 275.035L347.115 277.43C347.448 277.622 347.409 277.968 347.025 278.185L342.943 280.465C342.748 280.577 342.53 280.643 342.306 280.656C342.081 280.67 341.857 280.63 341.65 280.542Z" fill="#00A1E4"/>
<path opacity="0.8" d="M280.721 238.2L276.574 235.818C276.242 235.626 276.28 235.28 276.664 235.063L280.772 232.693C280.971 232.595 281.19 232.544 281.412 232.544C281.634 232.544 281.853 232.595 282.052 232.693L286.198 235.088C286.531 235.28 286.492 235.613 286.109 235.831L282 238.2C281.802 238.302 281.583 238.354 281.361 238.354C281.138 238.354 280.919 238.302 280.721 238.2Z" fill="#00A1E4"/>
<path opacity="0.8" d="M274.348 234.461L270.214 232.066C269.882 231.874 269.92 231.541 270.304 231.323L274.412 228.954C274.61 228.853 274.829 228.8 275.052 228.8C275.274 228.8 275.494 228.853 275.692 228.954L279.813 231.285C280.145 231.477 280.094 231.823 279.71 232.04L275.615 234.41C275.421 234.512 275.207 234.57 274.987 234.579C274.768 234.588 274.55 234.547 274.348 234.461Z" fill="#00A1E4"/>
<path opacity="0.8" d="M267.987 230.785L263.841 228.39C263.508 228.198 263.559 227.865 263.943 227.647L268.038 225.278C268.237 225.179 268.456 225.127 268.678 225.127C268.9 225.127 269.119 225.179 269.318 225.278L273.452 227.673C273.785 227.865 273.746 228.211 273.362 228.428L269.254 230.798C269.056 230.892 268.839 230.94 268.619 230.938C268.4 230.935 268.184 230.883 267.987 230.785Z" fill="#00A1E4"/>
<path opacity="0.8" d="M261.626 227.109L257.48 224.714C257.147 224.522 257.185 224.189 257.569 223.972L261.677 221.602C261.875 221.501 262.095 221.448 262.317 221.448C262.539 221.448 262.759 221.501 262.957 221.602L267.103 223.997C267.436 224.189 267.398 224.522 267.014 224.753L262.906 227.122C262.706 227.218 262.486 227.267 262.264 227.265C262.042 227.263 261.824 227.21 261.626 227.109Z" fill="#00A1E4"/>
<path opacity="0.8" d="M268.166 223.331L264.02 220.936C263.687 220.744 263.738 220.411 264.122 220.181L265.479 219.399C265.678 219.301 265.897 219.25 266.119 219.25C266.341 219.25 266.56 219.301 266.759 219.399L270.905 221.794C271.238 221.986 271.187 222.319 270.803 222.537L269.446 223.331C269.247 223.43 269.028 223.481 268.806 223.481C268.584 223.481 268.365 223.43 268.166 223.331Z" fill="#00A1E4"/>
<path opacity="0.8" d="M276.472 228.134L272.326 225.739C271.993 225.547 272.044 225.201 272.428 224.983L273.785 224.202C273.984 224.104 274.203 224.053 274.424 224.053C274.646 224.053 274.865 224.104 275.064 224.202L279.211 226.597C279.544 226.789 279.492 227.122 279.108 227.34L277.752 228.121C277.555 228.224 277.336 228.279 277.113 228.282C276.891 228.284 276.671 228.233 276.472 228.134Z" fill="#00A1E4"/>
<path opacity="0.8" d="M282.807 231.797L278.673 229.415C278.341 229.223 278.379 228.877 278.763 228.659L280.12 227.878C280.319 227.78 280.537 227.729 280.759 227.729C280.981 227.729 281.2 227.78 281.399 227.878L285.546 230.273C285.878 230.465 285.84 230.798 285.456 231.016L284.1 231.797C283.899 231.898 283.678 231.951 283.453 231.951C283.229 231.951 283.007 231.898 282.807 231.797Z" fill="#00A1E4"/>
<path opacity="0.8" d="M289.154 235.447L285.008 233.077C284.675 232.885 284.713 232.539 285.097 232.322L286.454 231.541C286.653 231.441 286.872 231.39 287.094 231.39C287.316 231.39 287.535 231.441 287.734 231.541L291.867 233.923C292.2 234.115 292.162 234.461 291.778 234.678L290.421 235.46C290.224 235.557 290.006 235.606 289.786 235.604C289.566 235.602 289.35 235.548 289.154 235.447Z" fill="#00A1E4"/>
<path opacity="0.8" d="M295.49 239.11L291.331 236.715C290.998 236.523 291.036 236.19 291.42 235.972L292.777 235.191C292.975 235.092 293.195 235.04 293.417 235.04C293.639 235.04 293.858 235.092 294.057 235.191L298.19 237.573C298.523 237.765 298.485 238.111 298.101 238.329L296.744 239.11C296.548 239.204 296.334 239.253 296.117 239.253C295.9 239.253 295.685 239.204 295.49 239.11Z" fill="#00A1E4"/>
<path opacity="0.8" d="M330.874 259.563L326.728 257.168C326.395 256.976 326.434 256.643 326.818 256.412L328.174 255.631C328.374 255.534 328.592 255.484 328.814 255.484C329.036 255.484 329.254 255.534 329.454 255.631L333.588 258.026C333.92 258.218 333.882 258.551 333.498 258.769L332.141 259.55C331.946 259.651 331.73 259.705 331.509 259.707C331.289 259.709 331.072 259.66 330.874 259.563Z" fill="#00A1E4"/>
<path opacity="0.8" d="M337.21 263.226L333.063 260.831C332.731 260.639 332.782 260.293 333.166 260.075L334.522 259.294C334.721 259.196 334.94 259.145 335.162 259.145C335.384 259.145 335.603 259.196 335.802 259.294L339.961 261.638C340.294 261.83 340.243 262.163 339.859 262.38L338.502 263.162C338.308 263.275 338.089 263.34 337.864 263.351C337.639 263.362 337.415 263.319 337.21 263.226Z" fill="#00A1E4"/>
<path opacity="0.8" d="M343.544 266.876L339.411 264.494C339.078 264.302 339.116 263.956 339.5 263.738L340.857 262.957C341.056 262.859 341.275 262.808 341.497 262.808C341.719 262.808 341.938 262.859 342.137 262.957L346.283 265.352C346.616 265.544 346.577 265.877 346.193 266.095L344.837 266.876C344.636 266.977 344.415 267.03 344.191 267.03C343.966 267.03 343.745 266.977 343.544 266.876Z" fill="#00A1E4"/>
<path opacity="0.8" d="M349.88 270.539L345.746 268.157C345.413 267.965 345.452 267.619 345.836 267.401L347.192 266.62C347.39 266.519 347.61 266.466 347.832 266.466C348.055 266.466 348.274 266.519 348.472 266.62L352.631 268.938C352.964 269.13 352.926 269.476 352.542 269.694L351.185 270.475C350.988 270.588 350.767 270.653 350.54 270.664C350.313 270.676 350.087 270.632 349.88 270.539Z" fill="#00A1E4"/>
<path opacity="0.8" d="M287.107 241.838L282.973 239.481C282.64 239.289 282.679 238.956 283.063 238.739L287.171 236.356C287.37 236.258 287.589 236.207 287.811 236.207C288.033 236.207 288.252 236.258 288.451 236.356L292.597 238.751C292.93 238.943 292.891 239.276 292.507 239.507L288.399 241.876C288.195 241.969 287.973 242.014 287.749 242.007C287.525 242 287.305 241.942 287.107 241.838Z" fill="#00A1E4"/>
<path opacity="0.8" d="M293.506 245.539L289.372 243.144C289.039 242.952 289.078 242.619 289.462 242.389L293.57 240.019C293.769 239.921 293.988 239.87 294.21 239.87C294.432 239.87 294.65 239.921 294.85 240.019L298.996 242.414C299.329 242.607 299.278 242.94 298.894 243.157L294.798 245.527C294.599 245.63 294.378 245.685 294.154 245.687C293.929 245.689 293.707 245.639 293.506 245.539Z" fill="#00A1E4"/>
<path opacity="0.8" d="M299.904 249.227L295.758 246.832C295.425 246.64 295.476 246.307 295.86 246.089L299.955 243.72C300.149 243.611 300.366 243.548 300.588 243.537C300.81 243.526 301.031 243.567 301.235 243.656L305.369 246.051C305.702 246.243 305.663 246.576 305.279 246.807L301.171 249.176C300.978 249.28 300.763 249.339 300.544 249.348C300.324 249.357 300.105 249.316 299.904 249.227Z" fill="#00A1E4"/>
<path opacity="0.8" d="M306.303 252.929L302.157 250.534C301.824 250.342 301.862 250.009 302.246 249.779L306.354 247.409C306.554 247.313 306.773 247.263 306.994 247.263C307.216 247.263 307.435 247.313 307.634 247.409L311.806 249.727C312.139 249.919 312.101 250.252 311.717 250.47L307.609 252.839C307.415 252.959 307.194 253.03 306.967 253.045C306.74 253.061 306.512 253.021 306.303 252.929Z" fill="#00A1E4"/>
<path opacity="0.8" d="M312.702 256.617L308.555 254.222C308.222 254.03 308.261 253.697 308.645 253.479L312.753 251.11C312.951 251.009 313.17 250.956 313.393 250.956C313.615 250.956 313.834 251.009 314.033 251.11L318.205 253.441C318.537 253.633 318.499 253.979 318.115 254.197L314.007 256.566C313.809 256.676 313.587 256.739 313.36 256.747C313.134 256.756 312.908 256.712 312.702 256.617Z" fill="#00A1E4"/>
<path opacity="0.8" d="M319.088 260.319L314.954 257.924C314.621 257.732 314.66 257.399 315.044 257.168L319.152 254.799C319.351 254.701 319.57 254.649 319.792 254.649C320.014 254.649 320.233 254.701 320.432 254.799L324.578 257.194C324.911 257.386 324.872 257.719 324.488 257.937L320.38 260.319C320.179 260.417 319.958 260.468 319.734 260.468C319.51 260.468 319.289 260.417 319.088 260.319Z" fill="#00A1E4"/>
<path opacity="0.8" d="M325.487 264.007L321.353 261.625C321.02 261.433 321.059 261.087 321.443 260.869L325.551 258.5C325.75 258.402 325.969 258.351 326.191 258.351C326.412 258.351 326.631 258.402 326.83 258.5L330.977 260.882C331.31 261.087 331.258 261.42 330.875 261.638L326.779 264.007C326.578 264.106 326.357 264.157 326.133 264.157C325.909 264.157 325.688 264.106 325.487 264.007Z" fill="#00A1E4"/>
<path opacity="0.8" d="M331.886 267.658L327.74 265.263C327.407 265.071 327.458 264.738 327.842 264.52L331.937 262.138C332.137 262.041 332.356 261.991 332.577 261.991C332.799 261.991 333.018 262.041 333.217 262.138L337.351 264.533C337.683 264.725 337.645 265.058 337.261 265.288L333.179 267.658C332.978 267.758 332.757 267.81 332.532 267.81C332.308 267.81 332.087 267.758 331.886 267.658Z" fill="#00A1E4"/>
<path opacity="0.8" d="M338.285 271.397L334.139 269.015C333.806 268.823 333.844 268.477 334.228 268.259L338.336 265.89C338.536 265.793 338.755 265.743 338.976 265.743C339.198 265.743 339.417 265.793 339.616 265.89L343.75 268.285C344.083 268.477 344.044 268.81 343.66 269.027L339.552 271.397C339.356 271.496 339.139 271.548 338.919 271.548C338.699 271.548 338.482 271.496 338.285 271.397Z" fill="#00A1E4"/>
<path opacity="0.8" d="M250.544 242.299L238.348 235.242C238.015 235.05 238.053 234.717 238.437 234.499L242.545 232.13C242.743 232.028 242.963 231.976 243.185 231.976C243.408 231.976 243.627 232.028 243.825 232.13L256.021 239.186C256.354 239.378 256.316 239.711 255.932 239.929L251.824 242.299C251.626 242.4 251.406 242.452 251.184 242.452C250.961 242.452 250.742 242.4 250.544 242.299Z" fill="#00A1E4"/>
<path opacity="0.8" d="M329.122 287.701L316.926 280.644C316.593 280.452 316.631 280.119 317.015 279.901L321.123 277.532C321.316 277.42 321.533 277.357 321.756 277.346C321.978 277.334 322.2 277.376 322.403 277.468L334.612 284.525C334.932 284.717 334.894 285.05 334.51 285.267L330.415 287.637C330.219 287.748 330 287.812 329.776 287.823C329.551 287.834 329.327 287.792 329.122 287.701Z" fill="#00A1E4"/>
<path opacity="0.8" d="M303.539 281.08L299.405 278.685C299.073 278.492 299.111 278.159 299.495 277.942L304.384 275.111C304.583 275.013 304.802 274.962 305.023 274.962C305.245 274.962 305.464 275.013 305.663 275.111L309.81 277.506C310.143 277.698 310.104 278.031 309.72 278.249L304.831 281.08C304.63 281.178 304.409 281.229 304.185 281.229C303.961 281.229 303.74 281.178 303.539 281.08Z" fill="#00A1E4"/>
<path opacity="0.8" d="M257.097 254.248L250.468 250.406C250.135 250.214 250.186 249.881 250.57 249.65L255.459 246.832C255.652 246.721 255.869 246.657 256.091 246.646C256.313 246.635 256.535 246.677 256.739 246.768L263.368 250.611C263.701 250.803 263.649 251.136 263.265 251.366L258.377 254.184C258.184 254.295 257.967 254.359 257.744 254.37C257.522 254.381 257.3 254.339 257.097 254.248Z" fill="#00A1E4"/>
<path opacity="0.8" d="M297.383 277.519L290.754 273.677C290.421 273.485 290.472 273.152 290.856 272.934L295.745 270.103C295.944 270.005 296.163 269.954 296.385 269.954C296.607 269.954 296.826 270.005 297.025 270.103L303.654 273.946C303.974 274.138 303.935 274.471 303.552 274.689L298.663 277.519C298.464 277.617 298.245 277.668 298.023 277.668C297.801 277.668 297.582 277.617 297.383 277.519Z" fill="#00A1E4"/>
<path opacity="0.8" d="M266.323 259.576L259.694 255.733C259.361 255.541 259.412 255.208 259.796 254.991L264.685 252.16C264.884 252.062 265.103 252.011 265.325 252.011C265.547 252.011 265.766 252.062 265.965 252.16L272.594 256.002C272.927 256.194 272.875 256.527 272.491 256.745L267.603 259.576C267.404 259.674 267.185 259.725 266.963 259.725C266.741 259.725 266.522 259.674 266.323 259.576Z" fill="#00A1E4"/>
<path opacity="0.8" d="M266.029 252.147L294.824 268.797C294.899 268.826 294.964 268.876 295.01 268.943C295.055 269.009 295.08 269.088 295.08 269.168C295.08 269.249 295.055 269.328 295.01 269.394C294.964 269.461 294.899 269.511 294.824 269.54L289.832 272.421C289.634 272.521 289.415 272.572 289.193 272.572C288.97 272.572 288.751 272.521 288.553 272.421L259.758 255.772L266.029 252.147Z" fill="#00A1E4"/>
<path opacity="0.8" d="M321.417 287.778L326.037 290.442C326.306 290.609 326.267 290.878 325.96 291.057L323.964 292.222C323.795 292.3 323.612 292.341 323.426 292.341C323.241 292.341 323.057 292.3 322.889 292.222L318.282 289.558C318.013 289.405 318.039 289.123 318.358 288.944L320.355 287.791C320.518 287.705 320.7 287.659 320.884 287.656C321.069 287.654 321.252 287.696 321.417 287.778Z" fill="#00A1E4"/>
<path opacity="0.8" d="M314.967 284.051L319.587 286.715C319.856 286.881 319.818 287.15 319.511 287.33L317.514 288.495C317.346 288.573 317.162 288.614 316.977 288.614C316.791 288.614 316.608 288.573 316.439 288.495L311.832 285.831C311.563 285.678 311.589 285.396 311.909 285.216L313.905 284.064C314.069 283.98 314.251 283.936 314.435 283.934C314.619 283.931 314.801 283.972 314.967 284.051Z" fill="#00A1E4"/>
<path opacity="0.8" d="M308.582 280.363L313.189 283.027C313.457 283.18 313.432 283.462 313.112 283.641L311.116 284.794C310.95 284.875 310.769 284.918 310.584 284.918C310.4 284.918 310.219 284.875 310.053 284.794L305.408 282.168C305.139 282.015 305.177 281.746 305.485 281.554L307.481 280.401C307.648 280.306 307.835 280.254 308.027 280.247C308.218 280.24 308.409 280.28 308.582 280.363Z" fill="#00A1E4"/>
<path opacity="0.8" d="M318.5 282.015L323.12 284.679C323.389 284.833 323.35 285.114 323.043 285.294L321.047 286.446C320.878 286.524 320.695 286.565 320.509 286.565C320.324 286.565 320.14 286.524 319.972 286.446L315.365 283.782C315.096 283.616 315.122 283.347 315.441 283.168L317.438 282.002C317.604 281.923 317.786 281.883 317.971 281.885C318.155 281.887 318.336 281.932 318.5 282.015Z" fill="#00A1E4"/>
</g>
<path d="M383.755 182.425C383.416 182.413 383.086 182.316 382.795 182.143C382.308 181.859 381.918 181.434 381.676 180.924C381.434 180.415 381.351 179.844 381.438 179.287C381.481 179.064 381.577 178.855 381.717 178.677C381.858 178.498 382.038 178.356 382.245 178.262C382.495 178.165 382.764 178.128 383.031 178.155C383.298 178.182 383.555 178.271 383.78 178.416C384.266 178.702 384.655 179.126 384.897 179.636C385.139 180.145 385.222 180.715 385.137 181.272C385.082 181.598 384.912 181.893 384.659 182.104C384.405 182.316 384.085 182.429 383.755 182.425ZM382.821 178.582C382.685 178.582 382.55 178.608 382.424 178.659C382.283 178.731 382.159 178.834 382.064 178.96C381.969 179.087 381.903 179.234 381.874 179.389C381.807 179.853 381.879 180.326 382.082 180.748C382.285 181.17 382.609 181.522 383.013 181.759C383.178 181.869 383.368 181.94 383.565 181.964C383.763 181.989 383.964 181.966 384.152 181.9C384.295 181.831 384.419 181.728 384.515 181.601C384.611 181.474 384.675 181.326 384.702 181.17C384.769 180.706 384.696 180.233 384.493 179.811C384.29 179.389 383.966 179.037 383.563 178.8C383.339 178.664 383.083 178.589 382.821 178.582Z" fill="#00A1E4"/>
<path d="M389.028 185.473C388.689 185.461 388.359 185.365 388.068 185.191C387.582 184.906 387.193 184.481 386.951 183.972C386.71 183.462 386.626 182.892 386.711 182.335C386.757 182.11 386.854 181.899 386.997 181.718C387.139 181.538 387.322 181.394 387.53 181.298C387.782 181.206 388.051 181.174 388.317 181.203C388.584 181.231 388.84 181.321 389.066 181.464C389.548 181.753 389.933 182.179 390.173 182.687C390.412 183.196 390.495 183.764 390.41 184.32C390.355 184.646 390.185 184.941 389.932 185.152C389.678 185.364 389.358 185.478 389.028 185.473ZM388.093 181.631C387.957 181.63 387.823 181.656 387.697 181.708C387.555 181.779 387.432 181.882 387.337 182.009C387.241 182.135 387.176 182.282 387.146 182.438C387.079 182.901 387.152 183.374 387.355 183.796C387.558 184.218 387.882 184.57 388.285 184.807C388.451 184.918 388.64 184.988 388.838 185.012C389.036 185.037 389.237 185.015 389.424 184.948C389.567 184.879 389.692 184.776 389.788 184.65C389.884 184.523 389.948 184.375 389.975 184.218C390.041 183.754 389.969 183.281 389.766 182.859C389.563 182.437 389.239 182.085 388.836 181.848C388.612 181.712 388.356 181.637 388.093 181.631Z" fill="#00A1E4"/>
<path d="M395.464 187.317C395.415 187.524 395.316 187.714 395.174 187.873C395.033 188.031 394.855 188.152 394.656 188.224C394.457 188.296 394.243 188.318 394.033 188.287C393.824 188.256 393.625 188.174 393.455 188.047C393.011 187.797 392.652 187.419 392.424 186.962C392.196 186.506 392.109 185.992 392.175 185.486C392.223 185.277 392.323 185.085 392.465 184.925C392.607 184.765 392.787 184.643 392.988 184.57C393.189 184.498 393.405 184.477 393.616 184.509C393.827 184.541 394.027 184.626 394.197 184.756C394.639 185.009 394.995 185.387 395.221 185.843C395.447 186.3 395.531 186.813 395.464 187.317Z" fill="#00A1E4"/>
<path d="M294.337 129.082L291.521 127.456L291.739 126.149L294.567 127.776L294.337 129.082Z" fill="#00A1E4"/>
<path d="M298.445 131.451L295.617 129.825L295.834 128.519L298.663 130.145L298.445 131.451Z" fill="#00A1E4"/>
<path d="M290.28 126.738L284.099 123.165L284.316 121.858L290.497 125.432L290.28 126.738Z" fill="#00A1E4"/>
<path opacity="0.4" d="M466.184 134.218C468.523 134.218 470.42 132.32 470.42 129.978C470.42 127.637 468.523 125.739 466.184 125.739C463.844 125.739 461.948 127.637 461.948 129.978C461.948 132.32 463.844 134.218 466.184 134.218Z" fill="#00A1E4"/>
<path opacity="0.4" d="M466.184 131.822C467.202 131.822 468.027 130.997 468.027 129.978C468.027 128.959 467.202 128.134 466.184 128.134C465.166 128.134 464.341 128.959 464.341 129.978C464.341 130.997 465.166 131.822 466.184 131.822Z" fill="#00A1E4"/>
<path opacity="0.4" d="M401.876 60.1015C404.215 60.1015 406.112 58.2035 406.112 55.8623C406.112 53.521 404.215 51.623 401.876 51.623C399.536 51.623 397.64 53.521 397.64 55.8623C397.64 58.2035 399.536 60.1015 401.876 60.1015Z" fill="#00A1E4"/>
<path opacity="0.4" d="M401.876 57.7071C402.894 57.7071 403.719 56.8814 403.719 55.8628C403.719 54.8443 402.894 54.0186 401.876 54.0186C400.858 54.0186 400.033 54.8443 400.033 55.8628C400.033 56.8814 400.858 57.7071 401.876 57.7071Z" fill="#00A1E4"/>
<path opacity="0.4" d="M522.277 149.049C524.617 149.049 526.513 147.151 526.513 144.81C526.513 142.468 524.617 140.57 522.277 140.57C519.938 140.57 518.041 142.468 518.041 144.81C518.041 147.151 519.938 149.049 522.277 149.049Z" fill="#00A1E4"/>
<path opacity="0.4" d="M522.277 146.653C523.295 146.653 524.12 145.828 524.12 144.809C524.12 143.791 523.295 142.965 522.277 142.965C521.259 142.965 520.434 143.791 520.434 144.809C520.434 145.828 521.259 146.653 522.277 146.653Z" fill="#00A1E4"/>
<path d="M290.561 139.571L283.83 135.665L284.086 134.115L290.83 138.009L290.561 139.571Z" fill="#00A1E4"/>
<path d="M296.321 142.888L292.955 140.941L293.211 139.379L296.577 141.326L296.321 142.888Z" fill="#00A1E4"/>
<path d="M291.944 144.374L289.077 142.709L289.333 141.159L292.2 142.811L291.944 144.374Z" fill="#00A1E4"/>
<path d="M296.756 147.153L293.391 145.206L293.647 143.644L297.025 145.59L296.756 147.153Z" fill="#00A1E4"/>
<path d="M301.708 154.018L288.463 146.372L288.719 144.81L301.964 152.468L301.708 154.018Z" fill="#00A1E4"/>
<path d="M290.229 184.64L276.984 176.981L277.24 175.419L290.485 183.078L290.229 184.64Z" fill="#00A1E4"/>
<path d="M295.322 187.573L291.943 185.626L292.212 184.063L295.578 186.023L295.322 187.573Z" fill="#00A1E4"/>
<path d="M290.715 151.687L287.849 150.022L288.105 148.473L290.984 150.125L290.715 151.687Z" fill="#00A1E4"/>
<path d="M295.527 154.466L292.162 152.52L292.418 150.957L295.796 152.904L295.527 154.466Z" fill="#00A1E4"/>
<path d="M294.516 157.885L287.234 153.685L287.503 152.122L294.785 156.336L294.516 157.885Z" fill="#00A1E4"/>
<path d="M299.392 160.704L296.026 158.757L296.282 157.194L299.648 159.154L299.392 160.704Z" fill="#00A1E4"/>
<path d="M304.294 163.534L300.915 161.587L301.184 160.037L304.55 161.971L304.294 163.534Z" fill="#00A1E4"/>
<path d="M312.202 168.105L305.816 164.417L306.085 162.854L312.458 166.543L312.202 168.105Z" fill="#00A1E4"/>
<path d="M307.147 173.216L303.781 171.257L304.037 169.707L307.416 171.654L307.147 173.216Z" fill="#00A1E4"/>
<path d="M315.057 177.775L308.684 174.1L308.94 172.537L315.326 176.226L315.057 177.775Z" fill="#00A1E4"/>
<path d="M289.385 162.945L286.006 160.998L286.275 159.436L289.641 161.382L289.385 162.945Z" fill="#00A1E4"/>
<path d="M294.286 165.775L290.907 163.828L291.176 162.266L294.542 164.212L294.286 165.775Z" fill="#00A1E4"/>
<path d="M302.183 170.348L295.81 166.659L296.078 165.097L302.452 168.785L302.183 170.348Z" fill="#00A1E4"/>
<path d="M312.548 172.32L309.183 170.373L309.439 168.811L312.817 170.757L312.548 172.32Z" fill="#00A1E4"/>
<path d="M317.449 175.15L314.083 173.203L314.339 171.641L317.705 173.587L317.449 175.15Z" fill="#00A1E4"/>
<path d="M325.359 179.722L318.973 176.033L319.241 174.471L325.615 178.159L325.359 179.722Z" fill="#00A1E4"/>
<path d="M300.595 190.621L297.216 188.675L297.485 187.125L300.851 189.072L300.595 190.621Z" fill="#00A1E4"/>
<path d="M308.505 195.193L302.119 191.505L302.387 189.955L308.761 193.631L308.505 195.193Z" fill="#00A1E4"/>
<path d="M288.156 170.257L284.777 168.311L285.046 166.748L288.412 168.695L288.156 170.257Z" fill="#00A1E4"/>
<path d="M296.064 174.83L289.678 171.142L289.947 169.579L296.32 173.268L296.064 174.83Z" fill="#00A1E4"/>
<path d="M304.268 196.756L300.89 194.81L301.158 193.247L304.524 195.194L304.268 196.756Z" fill="#00A1E4"/>
<path d="M312.177 201.328L305.791 197.64L306.059 196.077L312.433 199.766L312.177 201.328Z" fill="#00A1E4"/>
<path d="M311.78 159.845L308.415 157.898L308.671 156.336L312.049 158.283L311.78 159.845Z" fill="#00A1E4"/>
<path d="M306.687 156.9L303.321 154.953L303.577 153.391L306.955 155.337L306.687 156.9Z" fill="#00A1E4"/>
<path d="M319.69 164.417L313.316 160.729L313.572 159.166L319.958 162.855L319.69 164.417Z" fill="#00A1E4"/>
<path d="M289.665 159.089L286.62 157.335L286.888 155.785L289.921 157.54L289.665 159.089Z" fill="#00A1E4"/>
<path d="M298.676 164.302L291.292 160.037L291.547 158.475L298.945 162.752L298.676 164.302Z" fill="#00A1E4"/>
<path d="M307.698 169.515L300.314 165.25L300.57 163.688L307.967 167.952L307.698 169.515Z" fill="#00A1E4"/>
<path d="M324.373 167.12L321.34 165.365L321.596 163.803L324.642 165.557L324.373 167.12Z" fill="#00A1E4"/>
<path d="M333.396 172.332L325.999 168.055L326.268 166.505L333.652 170.77L333.396 172.332Z" fill="#00A1E4"/>
<path d="M342.418 177.545L335.021 173.267L335.276 171.718L342.674 175.983L342.418 177.545Z" fill="#00A1E4"/>
<path d="M292.852 168.964L285.455 164.686L285.724 163.137L293.121 167.402L292.852 168.964Z" fill="#00A1E4"/>
<path d="M296.756 171.219L294.478 169.899L294.746 168.337L297.011 169.656L296.756 171.219Z" fill="#00A1E4"/>
<path d="M300.659 173.472L298.381 172.153L298.65 170.604L300.915 171.91L300.659 173.472Z" fill="#00A1E4"/>
<path d="M307.877 177.647L302.297 174.42L302.553 172.857L308.133 176.085L307.877 177.647Z" fill="#00A1E4"/>
<path d="M315.965 170.283L313.7 168.977L313.956 167.414L316.234 168.72L315.965 170.283Z" fill="#00A1E4"/>
<path d="M323.196 174.458L317.603 171.23L317.872 169.668L323.452 172.895L323.196 174.458Z" fill="#00A1E4"/>
<path d="M324.706 175.329L319.126 172.101L319.382 170.552L324.975 173.779L324.706 175.329Z" fill="#00A1E4"/>
<path d="M294.976 195.398L287.694 191.184L287.95 189.635L295.232 193.836L294.976 195.398Z" fill="#00A1E4"/>
<path d="M299.84 198.216L296.475 196.27L296.743 194.707L300.109 196.654L299.84 198.216Z" fill="#00A1E4"/>
<path d="M304.741 201.046L301.375 199.1L301.631 197.537L305.01 199.484L304.741 201.046Z" fill="#00A1E4"/>
<path d="M312.651 205.618L306.278 201.93L306.534 200.367L312.92 204.056L312.651 205.618Z" fill="#00A1E4"/>
<path d="M317.718 208.539L314.339 206.592L314.595 205.029L317.974 206.976L317.718 208.539Z" fill="#00A1E4"/>
<path d="M325.615 213.111L319.242 209.423L319.498 207.86L325.884 211.549L325.615 213.111Z" fill="#00A1E4"/>
<path d="M301.363 207.117L297.997 205.17L298.253 203.607L301.619 205.554L301.363 207.117Z" fill="#00A1E4"/>
<path d="M309.272 211.677L302.886 208.001L303.154 206.438L309.528 210.127L309.272 211.677Z" fill="#00A1E4"/>
<path d="M283.753 196.935L280.388 194.988L280.644 193.438L284.022 195.385L283.753 196.935Z" fill="#00A1E4"/>
<path d="M288.655 199.779L285.289 197.819L285.545 196.27L288.924 198.216L288.655 199.779Z" fill="#00A1E4"/>
<path d="M296.564 204.338L290.191 200.649L290.447 199.1L296.82 202.775L296.564 204.338Z" fill="#00A1E4"/>
<path d="M290.114 196.602L287.081 194.848L287.337 193.285L290.383 195.053L290.114 196.602Z" fill="#00A1E4"/>
<path d="M299.136 201.815L291.739 197.55L292.008 195.987L299.392 200.252L299.136 201.815Z" fill="#00A1E4"/>
<path d="M308.158 207.028L300.761 202.75L301.017 201.2L308.414 205.465L308.158 207.028Z" fill="#00A1E4"/>
<path d="M281.271 199.51L273.874 195.245L274.143 193.683L281.527 197.947L281.271 199.51Z" fill="#00A1E4"/>
<path d="M285.161 201.763L282.896 200.457L283.151 198.895L285.429 200.201L285.161 201.763Z" fill="#00A1E4"/>
<path d="M289.064 204.017L286.799 202.711L287.055 201.148L289.333 202.455L289.064 204.017Z" fill="#00A1E4"/>
<path d="M296.295 208.193L290.703 204.966L290.971 203.403L296.551 206.631L296.295 208.193Z" fill="#00A1E4"/>
<path d="M297.805 209.064L292.226 205.85L292.482 204.287L298.074 207.515L297.805 209.064Z" fill="#00A1E4"/>
<path d="M284.598 185.396L282.32 184.077L282.589 182.527L284.854 183.834L284.598 185.396Z" fill="#00A1E4"/>
<path d="M291.816 189.571L286.236 186.344L286.492 184.781L292.085 188.009L291.816 189.571Z" fill="#00A1E4"/>
<path d="M299.2 193.823L293.607 190.596L293.876 189.046L299.456 192.273L299.2 193.823Z" fill="#00A1E4"/>
<path d="M327.624 218.272L324.246 216.325L324.514 214.763L327.88 216.709L327.624 218.272Z" fill="#00A1E4"/>
<path d="M335.533 222.845L329.146 219.156L329.415 217.594L335.788 221.282L335.533 222.845Z" fill="#00A1E4"/>
<path d="M315.172 211.088L309.592 207.86L309.848 206.298L315.441 209.525L315.172 211.088Z" fill="#00A1E4"/>
<path d="M322.556 215.34L316.963 212.112L317.232 210.562L322.812 213.79L322.556 215.34Z" fill="#00A1E4"/>
<path d="M280.644 169.937L278.378 168.618L278.634 167.056L280.912 168.375L280.644 169.937Z" fill="#00A1E4"/>
<path d="M287.875 174.1L282.282 170.872L282.538 169.31L288.131 172.537L287.875 174.1Z" fill="#00A1E4"/>
<path d="M295.246 178.364L289.666 175.137L289.922 173.574L295.502 176.802L295.246 178.364Z" fill="#00A1E4"/>
<path d="M381.476 218.99C381.093 218.984 380.718 218.878 380.388 218.682L349.482 200.829C348.819 200.375 348.295 199.745 347.969 199.01C347.644 198.274 347.53 197.463 347.639 196.666L349.623 184.871C349.662 184.511 349.787 184.167 349.988 183.866C350.188 183.565 350.458 183.316 350.774 183.142C351.069 183.011 351.392 182.955 351.714 182.979C352.035 183.004 352.346 183.108 352.617 183.283L383.472 201.059C384.137 201.512 384.661 202.142 384.987 202.878C385.313 203.613 385.426 204.425 385.315 205.222L383.332 217.017C383.297 217.38 383.173 217.728 382.972 218.032C382.772 218.335 382.499 218.585 382.18 218.759C381.963 218.883 381.724 218.962 381.476 218.99ZM351.478 183.462C351.301 183.462 351.126 183.501 350.966 183.577C350.726 183.716 350.523 183.911 350.373 184.145C350.224 184.379 350.133 184.646 350.109 184.922L348.125 196.718C348.029 197.408 348.126 198.111 348.406 198.749C348.686 199.387 349.139 199.934 349.712 200.329L380.606 218.183C380.794 218.303 381.008 218.378 381.23 218.4C381.453 218.422 381.677 218.392 381.886 218.311C382.129 218.174 382.335 217.981 382.487 217.746C382.639 217.512 382.731 217.244 382.756 216.966L384.727 205.171C384.826 204.48 384.73 203.776 384.45 203.137C384.169 202.499 383.715 201.952 383.14 201.559L352.246 183.705C352.012 183.566 351.75 183.483 351.478 183.462Z" fill="#00A1E4"/>
<path d="M378.085 239.225C377.698 239.218 377.32 239.112 376.985 238.918L346.091 221.064C345.426 220.612 344.9 219.983 344.575 219.247C344.249 218.511 344.136 217.699 344.248 216.902L346.219 205.106C346.259 204.745 346.385 204.399 346.588 204.098C346.791 203.797 347.064 203.549 347.384 203.377C347.676 203.246 347.997 203.19 348.317 203.215C348.636 203.239 348.945 203.344 349.214 203.518L380.107 221.372C380.774 221.822 381.3 222.452 381.626 223.188C381.952 223.924 382.064 224.737 381.95 225.534L379.979 237.33C379.94 237.691 379.813 238.037 379.61 238.338C379.407 238.639 379.134 238.886 378.815 239.059C378.588 239.171 378.338 239.228 378.085 239.225ZM348.126 203.736C347.949 203.734 347.774 203.774 347.614 203.851C347.379 203.981 347.178 204.165 347.026 204.388C346.875 204.61 346.778 204.865 346.744 205.132L344.773 216.927C344.673 217.618 344.769 218.322 345.05 218.961C345.33 219.599 345.784 220.146 346.36 220.539L377.254 238.393C377.449 238.524 377.675 238.604 377.909 238.627C378.144 238.649 378.38 238.612 378.597 238.521C378.838 238.383 379.042 238.188 379.192 237.954C379.341 237.72 379.431 237.453 379.455 237.176L381.438 225.38C381.535 224.69 381.438 223.987 381.158 223.349C380.877 222.711 380.425 222.164 379.852 221.769L348.919 203.979C348.678 203.836 348.406 203.753 348.126 203.736Z" fill="#00A1E4"/>
<path style="mix-blend-mode:lighten" opacity="0.5" d="M352.285 199.471C352.835 199.792 353.322 199.676 353.501 199.177L357.11 189.328C357.519 188.201 359.196 189.226 359.554 190.814L361.768 200.727C361.949 201.463 362.407 202.101 363.048 202.507L363.573 202.801C364.085 203.109 364.558 203.019 364.75 202.584L365.492 201.034C365.94 200.073 367.463 201.034 367.873 202.468C368.059 203.144 368.487 203.728 369.076 204.108L369.536 204.377C370.1 204.71 370.599 204.569 370.816 204.056L371.482 201.994C371.866 200.829 373.555 201.802 373.939 203.403L376.153 212.573C376.336 213.302 376.795 213.932 377.433 214.328L352.285 199.471Z" fill="#00A1E4"/>
<path d="M373.376 234.563C372.689 234.123 372.198 233.435 372.006 232.642L369.78 223.459C369.71 223.061 369.53 222.691 369.261 222.39C368.992 222.089 368.644 221.869 368.257 221.755C368.16 221.745 368.063 221.772 367.987 221.832C367.91 221.892 367.86 221.979 367.847 222.076L367.169 224.138C367.132 224.278 367.063 224.407 366.968 224.516C366.872 224.625 366.753 224.71 366.619 224.765C366.443 224.816 366.258 224.829 366.077 224.802C365.896 224.776 365.723 224.711 365.569 224.612L365.096 224.343C364.46 223.921 364.004 223.277 363.816 222.537C363.737 222.157 363.557 221.806 363.296 221.52C363.035 221.234 362.702 221.024 362.331 220.91C362.245 220.896 362.157 220.913 362.082 220.957C362.008 221.002 361.951 221.071 361.922 221.154L361.192 222.703C361.142 222.823 361.065 222.931 360.968 223.017C360.87 223.103 360.754 223.167 360.629 223.203C360.46 223.244 360.285 223.251 360.113 223.222C359.941 223.194 359.777 223.13 359.631 223.036L359.106 222.729C358.763 222.511 358.466 222.226 358.233 221.892C358 221.558 357.836 221.18 357.75 220.782L355.523 210.869C355.46 210.464 355.283 210.086 355.014 209.778C354.744 209.469 354.393 209.244 354 209.127C353.795 209.127 353.667 209.204 353.591 209.422L349.982 219.271C349.941 219.405 349.871 219.528 349.775 219.63C349.68 219.732 349.562 219.811 349.431 219.86C349.256 219.911 349.071 219.924 348.89 219.897C348.709 219.871 348.536 219.806 348.382 219.706L348.651 219.245C348.735 219.306 348.831 219.348 348.932 219.367C349.034 219.387 349.139 219.385 349.239 219.361C349.298 219.338 349.351 219.302 349.393 219.255C349.436 219.209 349.466 219.152 349.482 219.092L353.091 209.243C353.154 209.044 353.281 208.871 353.453 208.753C353.624 208.635 353.83 208.577 354.038 208.59C354.546 208.719 355.005 208.992 355.361 209.376C355.717 209.76 355.956 210.238 356.048 210.754L358.262 220.667C358.407 221.327 358.808 221.902 359.375 222.268L359.9 222.575C359.982 222.635 360.075 222.677 360.174 222.699C360.274 222.721 360.376 222.722 360.476 222.703C360.528 222.683 360.575 222.652 360.615 222.612C360.654 222.572 360.685 222.525 360.706 222.473L361.448 220.923C361.524 220.743 361.656 220.592 361.824 220.493C361.993 220.394 362.188 220.351 362.383 220.372C362.862 220.498 363.297 220.753 363.64 221.11C363.983 221.467 364.221 221.912 364.328 222.396C364.491 223.007 364.873 223.536 365.403 223.882L365.863 224.15C365.948 224.215 366.046 224.258 366.151 224.278C366.255 224.298 366.363 224.294 366.465 224.266C366.526 224.24 366.581 224.2 366.623 224.149C366.665 224.097 366.695 224.036 366.708 223.971L367.374 221.909C367.432 221.708 367.556 221.531 367.724 221.406C367.893 221.281 368.098 221.215 368.308 221.218C368.818 221.334 369.282 221.598 369.644 221.975C370.005 222.353 370.248 222.829 370.343 223.344L372.557 232.514C372.708 233.164 373.108 233.729 373.67 234.089L373.376 234.563Z" fill="#00A1E4"/>
</g>
<defs>
<linearGradient id="paint0_linear_2289_5429" x1="89402.9" y1="25717.9" x2="135076" y2="25717.9" gradientUnits="userSpaceOnUse">
<stop stop-color="#00A1E4"/>
<stop offset="0.11" stop-color="#37B6BF"/>
<stop offset="0.22" stop-color="#2C87A1"/>
<stop offset="0.34" stop-color="#235F87"/>
<stop offset="0.46" stop-color="#1C3F72"/>
<stop offset="0.58" stop-color="#162561"/>
<stop offset="0.71" stop-color="#121355"/>
<stop offset="0.85" stop-color="#10084E"/>
<stop offset="1" stop-color="#0F054C"/>
</linearGradient>
<linearGradient id="paint1_linear_2289_5429" x1="-43543.7" y1="20308.8" x2="-79672.5" y2="20308.8" gradientUnits="userSpaceOnUse">
<stop stop-color="#5761D7"/>
<stop offset="0.18" stop-color="#5C66D9"/>
<stop offset="0.39" stop-color="#6A73DF"/>
<stop offset="0.61" stop-color="#8289E8"/>
<stop offset="0.85" stop-color="#A3A7F5"/>
<stop offset="1" stop-color="#BCBEFF"/>
</linearGradient>
<linearGradient id="paint2_linear_2289_5429" x1="56293.4" y1="20683.1" x2="92475.4" y2="20683.1" gradientUnits="userSpaceOnUse">
<stop stop-color="#C0BFF6"/>
<stop offset="0.29" stop-color="#C5C4F7"/>
<stop offset="0.64" stop-color="#D3D2F9"/>
<stop offset="1" stop-color="#E9E9FD"/>
</linearGradient>
<clipPath id="clip0_2289_5429">
<rect width="381" height="324" fill="white" transform="translate(174 34)"/>
</clipPath>
</defs>
</svg>
