<svg width="605" height="569" viewBox="0 0 605 569" fill="none" xmlns="http://www.w3.org/2000/svg">
<path d="M279.755 32.3335C404.33 16.1286 611.274 100.491 564.626 302.755C517.978 505.019 553.148 486.216 553.148 486.216C554.633 498.292 545.316 509.375 532.339 510.971L304.332 539.011C75.7957 547.393 40.0184 390.835 31.51 322.936C15.967 198.899 107.807 54.7007 279.755 32.3335Z" fill="#D4E8F9"/>
<path opacity="0.14" d="M282.072 93.6281C394.647 78.97 521.894 145.901 502.469 289.16C483.044 432.419 502.469 457.66 502.469 457.66C503.674 467.461 495.745 461.737 485.395 463.01L303.549 485.373C121.247 491.783 93.1142 377.152 89.6104 314.022C82.5101 186.088 171.621 108.01 282.072 93.6281Z" fill="#C8EFFF"/>
<path d="M335.628 321.513C335.462 321.515 335.298 321.473 335.155 321.389C335.011 321.305 334.893 321.184 334.814 321.038C334.75 320.931 334.709 320.813 334.692 320.69C334.675 320.567 334.682 320.442 334.714 320.322C334.745 320.202 334.8 320.089 334.876 319.991C334.951 319.892 335.046 319.81 335.153 319.748L372.321 298.246C373.683 297.462 374.813 296.333 375.598 294.972C376.382 293.61 376.792 292.066 376.787 290.494L376.651 250.571C376.643 249.007 376.225 247.472 375.439 246.119C374.653 244.766 373.526 243.643 372.171 242.861L324.212 215.236C324.068 215.151 323.948 215.03 323.865 214.885C323.781 214.74 323.737 214.575 323.737 214.408V171.118C323.721 170.985 323.733 170.85 323.773 170.721C323.813 170.593 323.88 170.475 323.969 170.374C324.059 170.274 324.168 170.193 324.29 170.138C324.413 170.083 324.546 170.055 324.68 170.055C324.815 170.055 324.947 170.083 325.07 170.138C325.192 170.193 325.302 170.274 325.391 170.374C325.48 170.475 325.547 170.593 325.587 170.721C325.627 170.85 325.64 170.985 325.624 171.118V213.865L373.135 241.218C374.778 242.167 376.145 243.53 377.097 245.171C378.05 246.812 378.556 248.674 378.565 250.571L378.687 290.535C378.685 292.44 378.183 294.31 377.23 295.959C376.276 297.608 374.907 298.977 373.257 299.929L336.09 321.391C335.948 321.468 335.79 321.51 335.628 321.513Z" fill="#4CC5F8"/>
<path d="M196.091 248.576C195.937 248.579 195.785 248.54 195.651 248.463C195.518 248.387 195.407 248.276 195.331 248.141C195.272 248.042 195.234 247.931 195.218 247.816C195.201 247.702 195.208 247.585 195.237 247.473C195.266 247.361 195.317 247.255 195.387 247.163C195.456 247.07 195.544 246.992 195.643 246.933L228.603 227.929C229.966 227.138 231.099 226.004 231.887 224.639C232.676 223.274 233.093 221.727 233.096 220.15V170.413C233.097 169.936 233.222 169.468 233.461 169.056C233.699 168.644 234.042 168.301 234.455 168.064C234.867 167.826 235.335 167.7 235.812 167.7C236.288 167.701 236.756 167.826 237.168 168.064L290.422 198.947V157.449C290.422 157.215 290.515 156.99 290.681 156.825C290.846 156.659 291.07 156.566 291.304 156.566C291.538 156.566 291.763 156.659 291.928 156.825C292.094 156.99 292.187 157.215 292.187 157.449V200.467C292.189 200.623 292.15 200.777 292.074 200.913C291.998 201.048 291.887 201.162 291.752 201.241C291.617 201.314 291.465 201.353 291.311 201.353C291.157 201.353 291.005 201.314 290.87 201.241L236.273 169.598C236.131 169.515 235.969 169.471 235.804 169.471C235.639 169.471 235.478 169.515 235.336 169.598C235.192 169.68 235.072 169.798 234.988 169.941C234.905 170.084 234.861 170.247 234.861 170.413V220.123C234.854 222.016 234.349 223.873 233.395 225.508C232.442 227.143 231.075 228.498 229.431 229.436L196.471 248.44C196.356 248.511 196.226 248.558 196.091 248.576Z" fill="#4CC5F8"/>
<path d="M262.013 285.634C261.817 285.637 261.625 285.573 261.468 285.454C261.312 285.335 261.199 285.166 261.149 284.976C261.1 284.786 261.115 284.584 261.193 284.403C261.27 284.222 261.406 284.073 261.579 283.978L302.561 260.317C303.929 259.528 305.066 258.392 305.857 257.024C306.648 255.657 307.065 254.105 307.068 252.526V166.923C307.068 166.689 307.161 166.465 307.326 166.299C307.492 166.134 307.716 166.041 307.95 166.041C308.184 166.041 308.409 166.134 308.574 166.299C308.74 166.465 308.833 166.689 308.833 166.923V252.526C308.816 254.416 308.307 256.27 307.355 257.903C306.402 259.536 305.04 260.893 303.403 261.838L262.461 285.512C262.325 285.592 262.171 285.634 262.013 285.634Z" fill="#4CC5F8"/>
<path d="M328.217 173.752H320.941V189.458H328.217V173.752Z" fill="#4CC5F8"/>
<path d="M327.159 190.897C326.36 191.305 325.476 191.518 324.579 191.518C323.683 191.518 322.799 191.305 322 190.897C321.692 190.789 321.425 190.588 321.236 190.322C321.047 190.055 320.945 189.737 320.945 189.41C320.945 189.084 321.047 188.765 321.236 188.499C321.425 188.232 321.692 188.031 322 187.924C322.801 187.522 323.684 187.313 324.579 187.313C325.475 187.313 326.358 187.522 327.159 187.924C327.467 188.031 327.734 188.232 327.923 188.499C328.112 188.765 328.214 189.084 328.214 189.41C328.214 189.737 328.112 190.055 327.923 190.322C327.734 190.588 327.467 190.789 327.159 190.897Z" fill="#4CC5F8"/>
<path d="M320.941 176.331V181.652C322.093 182.136 323.33 182.385 324.579 182.385C325.828 182.385 327.065 182.136 328.217 181.652V176.331C327.065 175.847 325.828 175.598 324.579 175.598C323.33 175.598 322.093 175.847 320.941 176.331Z" fill="#029EE1"/>
<path d="M328.748 178.897C327.456 179.553 326.029 179.894 324.58 179.894C323.132 179.894 321.704 179.553 320.413 178.897C318.105 177.539 318.105 175.422 320.413 174.091C321.704 173.436 323.132 173.094 324.58 173.094C326.029 173.094 327.456 173.436 328.748 174.091C331.055 175.422 331.055 177.566 328.748 178.897Z" fill="#4CC5F8"/>
<path d="M311.59 164.276H304.313V179.982H311.59V164.276Z" fill="#4CC5F8"/>
<path d="M310.517 181.475C309.719 181.877 308.838 182.086 307.945 182.086C307.051 182.086 306.17 181.877 305.372 181.475C305.064 181.368 304.797 181.167 304.608 180.9C304.419 180.634 304.317 180.316 304.317 179.989C304.317 179.662 304.419 179.344 304.608 179.078C304.797 178.811 305.064 178.61 305.372 178.503C306.17 178.101 307.051 177.893 307.945 177.893C308.838 177.893 309.719 178.101 310.517 178.503C310.825 178.61 311.093 178.811 311.282 179.078C311.471 179.344 311.572 179.662 311.572 179.989C311.572 180.316 311.471 180.634 311.282 180.9C311.093 181.167 310.825 181.368 310.517 181.475Z" fill="#4CC5F8"/>
<path d="M304.313 166.869V172.177C305.465 172.66 306.702 172.91 307.952 172.91C309.201 172.91 310.438 172.66 311.59 172.177V166.869C310.438 166.385 309.201 166.136 307.952 166.136C306.702 166.136 305.465 166.385 304.313 166.869Z" fill="#029EE1"/>
<path d="M312.12 169.435C310.829 170.091 309.401 170.432 307.953 170.432C306.505 170.432 305.077 170.091 303.785 169.435C301.478 168.077 301.478 165.946 303.785 164.616C305.079 163.96 306.509 163.618 307.96 163.618C309.41 163.618 310.84 163.96 312.134 164.616C314.414 165.946 314.414 168.105 312.12 169.435Z" fill="#4CC5F8"/>
<path d="M294.949 154.814H287.673V170.52H294.949V154.814Z" fill="#4CC5F8"/>
<path d="M293.89 172.014C293.092 172.416 292.211 172.624 291.317 172.624C290.424 172.624 289.543 172.416 288.745 172.014C288.437 171.907 288.169 171.706 287.98 171.439C287.791 171.173 287.69 170.855 287.69 170.528C287.69 170.201 287.791 169.883 287.98 169.617C288.169 169.35 288.437 169.149 288.745 169.042C289.541 168.633 290.423 168.42 291.317 168.42C292.212 168.42 293.094 168.633 293.89 169.042C294.198 169.149 294.465 169.35 294.654 169.617C294.843 169.883 294.945 170.201 294.945 170.528C294.945 170.855 294.843 171.173 294.654 171.439C294.465 171.706 294.198 171.907 293.89 172.014Z" fill="#4CC5F8"/>
<path d="M287.673 157.408V162.716C288.825 163.199 290.062 163.449 291.311 163.449C292.56 163.449 293.797 163.199 294.949 162.716V157.408C293.797 156.924 292.56 156.675 291.311 156.675C290.062 156.675 288.825 156.924 287.673 157.408Z" fill="#029EE1"/>
<path d="M291.318 160.964C294.572 160.964 297.21 159.438 297.21 157.557C297.21 155.675 294.572 154.149 291.318 154.149C288.064 154.149 285.427 155.675 285.427 157.557C285.427 159.438 288.064 160.964 291.318 160.964Z" fill="#4CC5F8"/>
<path d="M290.29 169.177C290.29 169.937 289.747 170.249 289.082 169.869C288.733 169.638 288.442 169.328 288.233 168.966C288.023 168.603 287.9 168.197 287.874 167.779C287.874 167.005 288.417 166.693 289.082 167.086C289.431 167.318 289.722 167.627 289.931 167.99C290.141 168.353 290.264 168.759 290.29 169.177Z" fill="#D4ECFF"/>
<path d="M306.392 329.875H310.044V344.671C310.059 345.242 309.904 345.805 309.6 346.288C309.295 346.771 308.855 347.153 308.333 347.386L306.392 348.513V329.875Z" fill="#5793CE"/>
<path d="M342.128 282.702L344.83 281.616L342.726 280.001L342.128 282.702Z" fill="#4CC5F8"/>
<path d="M340.772 253.408L343.406 252.336L343.216 253.449L340.772 253.408Z" fill="#5793CE"/>
<path d="M350.629 275.847L353.358 274.748L349.367 270.729L350.629 275.847Z" fill="#4CC5F8"/>
<path d="M344.123 281.549L333.643 275.494C333.366 275.311 333.151 275.048 333.025 274.741C332.899 274.434 332.868 274.095 332.937 273.77L335.435 261.879L347.842 269.046L345.331 280.924C345.324 281.062 345.281 281.195 345.207 281.31C345.132 281.426 345.028 281.52 344.906 281.583C344.784 281.647 344.647 281.677 344.51 281.67C344.372 281.664 344.239 281.622 344.123 281.549Z" fill="#4CC5F8"/>
<path d="M343.381 252.363L329.222 259.489C328.625 259.802 328.828 260.928 329.548 261.349L341.1 268.014L352.652 274.68C353.385 275.1 354.01 274.422 353.616 273.566L345.267 253.422C344.86 252.553 343.991 252.051 343.381 252.363Z" fill="#4CC5F8"/>
<path d="M341.369 282.648L330.903 276.608C330.629 276.421 330.415 276.159 330.287 275.853C330.159 275.546 330.123 275.21 330.184 274.884L332.695 262.992L345.089 270.146L342.55 282.038C342.539 282.17 342.494 282.297 342.42 282.407C342.346 282.517 342.245 282.607 342.128 282.668C342.01 282.729 341.879 282.759 341.746 282.755C341.613 282.752 341.484 282.715 341.369 282.648Z" fill="#D4ECFF"/>
<path d="M340.625 253.463L326.48 260.603C325.883 260.902 326.073 262.028 326.806 262.449L338.358 269.128L349.91 275.793C350.643 276.214 351.267 275.535 350.86 274.68L342.471 254.535C342.105 253.666 341.195 253.164 340.625 253.463Z" fill="#D4ECFF"/>
<path d="M269.454 241.015L272.169 239.915L270.064 238.3L269.454 241.015Z" fill="#4CC5F8"/>
<path d="M268.111 211.72L270.731 210.647L270.554 211.761L268.111 211.72Z" fill="#5793CE"/>
<path d="M277.946 234.159L280.688 233.059L276.683 229.041L277.946 234.159Z" fill="#4CC5F8"/>
<path d="M271.449 239.86L260.983 233.806C260.705 233.623 260.488 233.361 260.36 233.054C260.232 232.747 260.198 232.408 260.264 232.082L262.775 220.19L275.169 227.358L272.657 239.236C272.65 239.373 272.607 239.506 272.533 239.622C272.458 239.738 272.355 239.832 272.233 239.895C272.11 239.958 271.974 239.988 271.836 239.982C271.699 239.976 271.565 239.934 271.449 239.86Z" fill="#4CC5F8"/>
<path d="M270.697 210.675L256.538 217.802C255.941 218.101 256.144 219.241 256.878 219.662L268.43 226.327L279.982 232.992C280.701 233.413 281.339 232.734 280.932 231.879L272.543 211.734C272.176 210.865 271.307 210.363 270.697 210.675Z" fill="#4CC5F8"/>
<path d="M268.707 240.96L258.227 234.919C257.953 234.733 257.74 234.47 257.614 234.164C257.489 233.857 257.456 233.52 257.522 233.195L260.019 221.304L272.427 228.458L269.915 240.349C269.906 240.485 269.862 240.617 269.786 240.731C269.711 240.844 269.607 240.937 269.485 240.998C269.363 241.06 269.227 241.089 269.091 241.082C268.955 241.075 268.822 241.033 268.707 240.96Z" fill="#D4ECFF"/>
<path d="M267.96 211.775L253.801 218.915C253.204 219.214 253.408 220.34 254.127 220.761L265.679 227.44L277.231 234.105C277.964 234.526 278.589 233.847 278.195 232.992L269.806 212.847C269.439 211.965 268.571 211.463 267.96 211.775Z" fill="#D4ECFF"/>
<path d="M306.973 178.136C306.973 178.896 306.43 179.208 305.765 178.828C305.416 178.597 305.126 178.287 304.916 177.925C304.706 177.562 304.584 177.156 304.557 176.738C304.557 175.964 305.1 175.652 305.765 176.045C306.114 176.277 306.405 176.586 306.615 176.949C306.824 177.312 306.947 177.718 306.973 178.136Z" fill="#D4ECFF"/>
<path d="M323.652 187.136C323.652 187.91 323.109 188.222 322.444 187.842C322.095 187.61 321.804 187.301 321.595 186.938C321.385 186.576 321.262 186.169 321.236 185.751C321.236 184.978 321.779 184.665 322.444 185.045C322.793 185.277 323.084 185.586 323.293 185.949C323.503 186.312 323.626 186.718 323.652 187.136Z" fill="#D4ECFF"/>
<path d="M195.047 338.99L161.223 319.478C159.152 318.275 159.411 316.193 161.805 314.81L194.464 295.97C196.859 294.586 200.483 294.431 202.567 295.634L236.391 315.146C238.462 316.348 238.203 318.43 235.808 319.814L203.15 338.654C200.742 340.037 197.118 340.179 195.047 338.99Z" fill="#B2D3EA"/>
<path d="M247.62 300.288V285.69L214.858 285.677L203.532 279.147C200.93 277.647 196.387 277.841 193.396 279.561L182.834 285.651L150.033 285.638V300.65C149.955 301.659 150.525 302.642 151.78 303.366L194.134 327.792C196.736 329.291 201.28 329.098 204.27 327.378L245.161 303.793C246.883 302.784 247.724 301.491 247.62 300.288Z" fill="#029EE1"/>
<path d="M198.812 278.139C196.909 278.19 194.941 278.669 193.375 279.561L182.812 285.651L150.011 285.638V300.651C149.934 301.659 150.503 302.642 151.759 303.366L194.113 327.792C195.355 328.516 197.064 328.839 198.825 328.8V278.139H198.812Z" fill="#029EE1"/>
<path d="M153.726 285.638H150.011V300.65C149.934 301.659 150.503 302.641 151.759 303.365L153.726 304.503V285.638Z" fill="#4CC5F8"/>
<path d="M194.767 328.114C197.006 329.071 200.255 329.02 202.87 328.024V310.981H194.767V328.114Z" fill="#4CC5F8"/>
<path d="M194.112 312.831L151.758 288.405C149.156 286.905 149.48 284.293 152.483 282.561L193.374 258.975C196.377 257.243 200.92 257.062 203.509 258.562L245.863 282.987C248.465 284.487 248.141 287.099 245.138 288.832L204.247 312.417C201.244 314.137 196.714 314.331 194.112 312.831Z" fill="#D4ECFF"/>
<path d="M194.884 308.435L159.391 287.966C157.216 286.712 157.488 284.513 159.999 283.065L194.263 263.294C196.774 261.846 200.58 261.691 202.767 262.945L238.261 283.414C240.435 284.669 240.164 286.867 237.652 288.315L203.389 308.086C200.865 309.534 197.059 309.689 194.884 308.435Z" fill="#4CC5F8"/>
<path d="M232.038 304.141C232.038 305.227 231.274 306.559 230.329 307.102C229.384 307.645 228.621 307.206 228.621 306.12C228.621 305.033 229.384 303.702 230.329 303.159C231.274 302.615 232.038 303.055 232.038 304.141Z" fill="#D4ECFF"/>
<path d="M237.535 300.961C237.535 302.047 236.771 303.379 235.826 303.922C234.881 304.465 234.118 304.025 234.118 302.939C234.118 301.853 234.881 300.521 235.826 299.978C236.771 299.435 237.535 299.874 237.535 300.961Z" fill="#D4ECFF"/>
<path d="M243.045 297.793C243.045 298.879 242.281 300.211 241.336 300.754C240.391 301.297 239.627 300.857 239.627 299.771C239.627 298.685 240.391 297.353 241.336 296.81C242.281 296.267 243.045 296.706 243.045 297.793Z" fill="#D4ECFF"/>
<path d="M247.62 276.961V262.363L214.858 262.35L203.532 255.82C200.93 254.32 196.387 254.514 193.396 256.234L182.834 262.324L150.033 262.311V277.323C149.955 278.332 150.525 279.315 151.78 280.039L194.134 304.464C196.736 305.964 201.28 305.77 204.27 304.051L245.161 280.465C246.883 279.457 247.724 278.164 247.62 276.961Z" fill="#029EE1"/>
<path d="M198.812 254.812C196.909 254.863 194.941 255.342 193.375 256.234L182.812 262.324L150.011 262.311V277.324C149.934 278.332 150.503 279.315 151.759 280.039L194.113 304.465C195.355 305.189 197.064 305.512 198.825 305.473V254.812H198.812Z" fill="#029EE1"/>
<path d="M153.726 262.311H150.011V277.323C149.934 278.331 150.503 279.314 151.759 280.038L153.726 281.176V262.311Z" fill="#4CC5F8"/>
<path d="M194.767 304.775C197.006 305.731 200.255 305.68 202.87 304.684V287.642H194.767V304.775Z" fill="#4CC5F8"/>
<path d="M194.112 289.504L151.758 265.078C149.156 263.578 149.48 260.966 152.483 259.233L193.374 235.648C196.377 233.915 200.92 233.734 203.509 235.234L245.863 259.66C248.465 261.16 248.141 263.772 245.138 265.505L204.247 289.09C201.244 290.81 196.714 291.004 194.112 289.504Z" fill="#D4ECFF"/>
<path d="M194.884 285.108L159.391 264.639C157.216 263.384 157.488 261.186 159.999 259.738L194.263 239.967C196.774 238.519 200.58 238.364 202.767 239.618L238.261 260.087C240.435 261.341 240.164 263.54 237.652 264.988L203.389 284.759C200.865 286.207 197.059 286.362 194.884 285.108Z" fill="#4CC5F8"/>
<path d="M232.038 280.814C232.038 281.9 231.274 283.232 230.329 283.775C229.384 284.318 228.621 283.878 228.621 282.792C228.621 281.706 229.384 280.374 230.329 279.831C231.274 279.275 232.038 279.728 232.038 280.814Z" fill="#D4ECFF"/>
<path d="M237.535 277.633C237.535 278.72 236.771 280.051 235.826 280.595C234.881 281.138 234.118 280.698 234.118 279.612C234.118 278.526 234.881 277.194 235.826 276.651C236.771 276.108 237.535 276.547 237.535 277.633Z" fill="#D4ECFF"/>
<path d="M243.045 274.465C243.045 275.551 242.281 276.883 241.336 277.426C240.391 277.969 239.627 277.53 239.627 276.444C239.627 275.357 240.391 274.026 241.336 273.483C242.281 272.927 243.045 273.379 243.045 274.465Z" fill="#D4ECFF"/>
<path d="M247.62 253.635V239.037L214.858 239.024L203.532 232.494C200.93 230.994 196.387 231.188 193.396 232.907L182.834 238.998L150.033 238.985V253.997C149.955 255.006 150.525 255.988 151.78 256.713L194.134 281.138C196.736 282.638 201.28 282.444 204.27 280.724L245.161 257.139C246.883 256.131 247.724 254.838 247.62 253.635Z" fill="#029EE1"/>
<path d="M198.812 231.485C196.909 231.537 194.941 232.015 193.375 232.908L182.812 238.998L150.011 238.985V253.997C149.934 255.006 150.503 255.989 151.759 256.713L194.113 281.138C195.355 281.863 197.064 282.186 198.825 282.147V231.485H198.812Z" fill="#029EE1"/>
<path d="M153.726 238.984H150.011V253.997C149.934 255.005 150.503 255.988 151.759 256.712L153.726 257.85V238.984Z" fill="#4CC5F8"/>
<path d="M194.767 281.448C197.006 282.405 200.255 282.353 202.87 281.358V264.315H194.767V281.448Z" fill="#4CC5F8"/>
<path d="M194.112 266.177L151.758 241.752C149.156 240.252 149.48 237.64 152.483 235.907L193.374 212.322C196.377 210.589 200.92 210.408 203.509 211.908L245.876 236.321C248.478 237.821 248.154 240.433 245.151 242.166L204.26 265.751C201.244 267.483 196.714 267.677 194.112 266.177Z" fill="#D4ECFF"/>
<path d="M245.138 239.295L204.247 262.88C201.244 264.613 196.7 264.794 194.111 263.294L151.757 238.868C151.175 238.532 150.748 238.144 150.463 237.717C149.57 239.153 149.971 240.704 151.757 241.739L194.111 266.164C196.713 267.664 201.257 267.47 204.247 265.751L245.138 242.165C247.468 240.821 248.18 238.946 247.157 237.472C246.756 238.131 246.083 238.752 245.138 239.295Z" fill="white"/>
<path d="M232.038 257.488C232.038 258.574 231.274 259.906 230.329 260.449C229.384 260.992 228.621 260.553 228.621 259.467C228.621 258.38 229.384 257.048 230.329 256.505C231.274 255.949 232.038 256.389 232.038 257.488Z" fill="#D4ECFF"/>
<path d="M237.535 254.307C237.535 255.393 236.771 256.725 235.826 257.268C234.881 257.811 234.118 257.372 234.118 256.286C234.118 255.199 234.881 253.868 235.826 253.325C236.771 252.781 237.535 253.221 237.535 254.307Z" fill="#D4ECFF"/>
<path d="M243.045 251.139C243.045 252.225 242.281 253.557 241.336 254.1C240.391 254.643 239.627 254.204 239.627 253.117C239.627 252.031 240.391 250.699 241.336 250.156C242.281 249.6 243.045 250.053 243.045 251.139Z" fill="#D4ECFF"/>
<path d="M196.618 251.036L176.8 239.605C175.583 238.907 175.738 237.679 177.136 236.864L196.268 225.821C197.666 225.007 199.802 224.929 201.019 225.627L220.837 237.058C222.053 237.756 221.898 238.984 220.5 239.799L201.368 250.842C199.957 251.643 197.835 251.734 196.618 251.036Z" fill="#4CC5F8"/>
<path d="M198.525 241.467L195.781 239.889C195.612 239.786 195.638 239.618 195.832 239.514L198.486 237.989C198.68 237.872 198.978 237.859 199.146 237.963L201.89 239.54C202.059 239.644 202.033 239.812 201.838 239.915L199.185 241.441C198.991 241.544 198.693 241.557 198.525 241.467Z" fill="#D4ECFF"/>
<path d="M176.8 239.605L176.852 239.631C176.942 239.566 177.033 239.502 177.136 239.437L196.268 228.394C197.679 227.58 199.802 227.502 201.019 228.2L220.785 239.592C221.911 238.79 221.963 237.704 220.837 237.045L201.019 225.614C199.802 224.916 197.679 225.006 196.268 225.808L177.136 236.851C175.738 237.678 175.583 238.894 176.8 239.605Z" fill="#029EE1"/>
<path d="M261.556 379.713L227.733 360.201C225.662 358.999 225.921 356.917 228.315 355.533L260.974 336.694C263.369 335.31 266.993 335.155 269.077 336.357L302.901 355.869C304.972 357.072 304.713 359.154 302.318 360.537L269.66 379.377C267.252 380.761 263.627 380.903 261.556 379.713Z" fill="#B2D3EA"/>
<path d="M314.128 341.012V326.413L281.366 326.401L270.04 319.871C267.438 318.371 262.894 318.565 259.904 320.284L249.342 326.375L216.541 326.362V341.374C216.463 342.383 217.033 343.365 218.288 344.089L260.642 368.515C263.244 370.015 267.787 369.821 270.778 368.101L311.669 344.516C313.39 343.508 314.232 342.215 314.128 341.012Z" fill="#029EE1"/>
<path d="M265.32 318.862C263.417 318.914 261.45 319.392 259.883 320.285L249.321 326.375L216.52 326.362V341.374C216.442 342.383 217.012 343.366 218.267 344.09L260.621 368.515C261.864 369.24 263.572 369.563 265.333 369.524V318.862H265.32Z" fill="#029EE1"/>
<path d="M220.235 326.361H216.52V341.374C216.442 342.382 217.012 343.365 218.267 344.089L220.235 345.227V326.361Z" fill="#4CC5F8"/>
<path d="M261.275 368.838C263.514 369.795 266.763 369.743 269.378 368.748V351.705H261.275V368.838Z" fill="#4CC5F8"/>
<path d="M260.62 353.554L218.266 329.129C215.664 327.629 215.988 325.017 218.991 323.284L259.882 299.699C262.885 297.966 267.429 297.785 270.018 299.285L312.372 323.711C314.973 325.211 314.65 327.823 311.647 329.555L270.755 353.141C267.752 354.86 263.222 355.054 260.62 353.554Z" fill="#D4ECFF"/>
<path d="M261.393 349.158L225.899 328.69C223.724 327.435 223.996 325.237 226.508 323.789L260.771 304.018C263.282 302.57 267.088 302.415 269.276 303.669L304.769 324.138C306.944 325.392 306.672 327.59 304.161 329.039L269.897 348.809C267.373 350.258 263.567 350.413 261.393 349.158Z" fill="#4CC5F8"/>
<path d="M298.546 344.865C298.546 345.951 297.783 347.283 296.838 347.826C295.893 348.369 295.129 347.929 295.129 346.843C295.129 345.757 295.893 344.425 296.838 343.882C297.783 343.339 298.546 343.779 298.546 344.865Z" fill="#D4ECFF"/>
<path d="M304.043 341.684C304.043 342.77 303.28 344.102 302.335 344.645C301.39 345.188 300.626 344.749 300.626 343.663C300.626 342.576 301.39 341.245 302.335 340.701C303.28 340.158 304.043 340.598 304.043 341.684Z" fill="#D4ECFF"/>
<path d="M309.553 338.516C309.553 339.602 308.789 340.934 307.844 341.477C306.899 342.02 306.136 341.581 306.136 340.495C306.136 339.408 306.899 338.077 307.844 337.534C308.789 336.99 309.553 337.43 309.553 338.516Z" fill="#D4ECFF"/>
<path d="M314.128 317.685V303.086L281.366 303.073L270.04 296.543C267.438 295.044 262.894 295.237 259.904 296.957L249.342 303.047L216.541 303.035V318.047C216.463 319.055 217.033 320.038 218.288 320.762L260.642 345.188C263.244 346.688 267.787 346.494 270.778 344.774L311.669 321.189C313.39 320.18 314.232 318.887 314.128 317.685Z" fill="#029EE1"/>
<path d="M265.32 295.535C263.417 295.587 261.45 296.065 259.883 296.958L249.321 303.048L216.52 303.035V318.047C216.442 319.056 217.012 320.038 218.267 320.763L260.621 345.188C261.864 345.912 263.572 346.236 265.333 346.197V295.535H265.32Z" fill="#029EE1"/>
<path d="M220.235 303.034H216.52V318.046C216.442 319.055 217.012 320.038 218.267 320.762L220.235 321.9V303.034Z" fill="#4CC5F8"/>
<path d="M261.275 345.498C263.514 346.455 266.763 346.403 269.378 345.408V328.365H261.275V345.498Z" fill="#4CC5F8"/>
<path d="M260.62 330.227L218.266 305.802C215.664 304.302 215.988 301.69 218.991 299.957L259.882 276.372C262.885 274.639 267.429 274.458 270.018 275.958L312.372 300.384C314.973 301.884 314.65 304.496 311.647 306.228L270.755 329.814C267.752 331.533 263.222 331.727 260.62 330.227Z" fill="#D4ECFF"/>
<path d="M261.393 325.831L225.899 305.362C223.724 304.108 223.996 301.91 226.508 300.462L260.771 280.691C263.282 279.243 267.088 279.088 269.276 280.342L304.769 300.811C306.944 302.065 306.672 304.263 304.161 305.711L269.897 325.482C267.373 326.93 263.567 327.086 261.393 325.831Z" fill="#4CC5F8"/>
<path d="M298.546 321.538C298.546 322.624 297.783 323.956 296.838 324.499C295.893 325.042 295.129 324.602 295.129 323.516C295.129 322.43 295.893 321.098 296.838 320.555C297.783 319.999 298.546 320.451 298.546 321.538Z" fill="#D4ECFF"/>
<path d="M304.043 318.357C304.043 319.443 303.28 320.775 302.335 321.318C301.39 321.861 300.626 321.422 300.626 320.335C300.626 319.249 301.39 317.917 302.335 317.374C303.28 316.831 304.043 317.271 304.043 318.357Z" fill="#D4ECFF"/>
<path d="M309.553 315.189C309.553 316.275 308.789 317.607 307.844 318.15C306.899 318.693 306.136 318.253 306.136 317.167C306.136 316.081 306.899 314.749 307.844 314.206C308.789 313.65 309.553 314.103 309.553 315.189Z" fill="#D4ECFF"/>
<path d="M314.129 294.359V279.76L281.367 279.747L270.04 273.217C267.438 271.717 262.895 271.911 259.905 273.631L249.342 279.721L216.541 279.708V294.721C216.463 295.729 217.033 296.712 218.289 297.436L260.643 321.862C263.244 323.362 267.788 323.168 270.778 321.448L311.669 297.863C313.391 296.854 314.232 295.561 314.129 294.359Z" fill="#029EE1"/>
<path d="M265.32 272.209C263.418 272.261 261.45 272.739 259.884 273.631L249.321 279.722L216.52 279.709V294.721C216.442 295.73 217.012 296.712 218.268 297.436L260.622 321.862C261.864 322.586 263.573 322.909 265.333 322.871V272.209H265.32Z" fill="#029EE1"/>
<path d="M220.235 279.708H216.52V294.72C216.442 295.729 217.012 296.712 218.268 297.436L220.235 298.574V279.708Z" fill="#4CC5F8"/>
<path d="M261.275 322.172C263.515 323.129 266.764 323.077 269.379 322.081V305.039H261.275V322.172Z" fill="#4CC5F8"/>
<path d="M260.621 306.901L218.267 282.475C215.665 280.975 215.988 278.363 218.991 276.631L259.883 253.046C262.886 251.313 267.429 251.132 270.018 252.632L312.385 277.045C314.987 278.545 314.663 281.156 311.66 282.889L270.769 306.474C267.753 308.207 263.222 308.401 260.621 306.901Z" fill="#D4ECFF"/>
<path d="M311.647 280.018L270.756 303.604C267.752 305.336 263.209 305.517 260.62 304.017L218.266 279.592C217.684 279.256 217.257 278.868 216.972 278.441C216.079 279.876 216.48 281.428 218.266 282.462L260.62 306.888C263.222 308.388 267.765 308.194 270.756 306.474L311.647 282.889C313.977 281.544 314.689 279.669 313.666 278.195C313.265 278.855 312.592 279.475 311.647 280.018Z" fill="white"/>
<path d="M298.547 298.212C298.547 299.298 297.783 300.63 296.838 301.173C295.893 301.716 295.129 301.276 295.129 300.19C295.129 299.104 295.893 297.772 296.838 297.229C297.783 296.673 298.547 297.113 298.547 298.212Z" fill="#D4ECFF"/>
<path d="M304.044 295.031C304.044 296.117 303.28 297.449 302.335 297.992C301.39 298.535 300.626 298.095 300.626 297.009C300.626 295.923 301.39 294.591 302.335 294.048C303.28 293.505 304.044 293.945 304.044 295.031Z" fill="#D4ECFF"/>
<path d="M309.554 291.863C309.554 292.949 308.79 294.281 307.845 294.824C306.9 295.367 306.136 294.927 306.136 293.841C306.136 292.755 306.9 291.423 307.845 290.88C308.79 290.324 309.554 290.777 309.554 291.863Z" fill="#D4ECFF"/>
<path d="M263.125 291.759L243.307 280.329C242.09 279.631 242.245 278.402 243.643 277.588L262.775 266.545C264.173 265.73 266.309 265.653 267.526 266.351L287.343 277.781C288.56 278.48 288.405 279.708 287.007 280.523L267.875 291.565C266.464 292.367 264.341 292.458 263.125 291.759Z" fill="#4CC5F8"/>
<path d="M265.032 282.191L262.288 280.613C262.12 280.51 262.145 280.341 262.34 280.238L264.993 278.712C265.187 278.596 265.485 278.583 265.653 278.686L268.398 280.264C268.566 280.367 268.54 280.535 268.346 280.639L265.692 282.165C265.498 282.268 265.2 282.281 265.032 282.191Z" fill="#D4ECFF"/>
<path d="M243.307 280.329L243.359 280.354C243.449 280.29 243.54 280.225 243.643 280.16L262.775 269.118C264.186 268.303 266.309 268.226 267.526 268.924L287.292 280.316C288.418 279.514 288.47 278.428 287.343 277.768L267.526 266.338C266.309 265.639 264.186 265.73 262.775 266.532L243.643 277.574C242.245 278.402 242.09 279.617 243.307 280.329Z" fill="#029EE1"/>
<path d="M334.858 423.153L301.035 403.641C298.963 402.438 299.222 400.356 301.617 398.973L334.276 380.133C336.67 378.749 340.295 378.594 342.379 379.797L376.202 399.309C378.273 400.511 378.015 402.593 375.62 403.977L342.961 422.817C340.554 424.2 336.929 424.342 334.858 423.153Z" fill="#B2D3EA"/>
<path d="M387.429 384.451V369.853L354.667 369.84L343.341 363.31C340.739 361.81 336.196 362.004 333.206 363.724L322.643 369.814L289.842 369.801V384.814C289.764 385.822 290.334 386.805 291.589 387.529L333.943 411.955C336.545 413.455 341.089 413.261 344.079 411.541L384.97 387.956C386.692 386.947 387.533 385.654 387.429 384.451Z" fill="#029EE1"/>
<path d="M338.621 362.302C336.718 362.353 334.75 362.832 333.184 363.724L322.621 369.814L289.82 369.801V384.814C289.743 385.822 290.312 386.805 291.568 387.529L333.922 411.955C335.165 412.679 336.873 413.002 338.634 412.963V362.302H338.621Z" fill="#029EE1"/>
<path d="M293.535 369.801H289.82V384.813C289.743 385.822 290.312 386.804 291.568 387.529L293.535 388.666V369.801Z" fill="#4CC5F8"/>
<path d="M334.576 412.277C336.815 413.234 340.064 413.183 342.679 412.187V395.145H334.576V412.277Z" fill="#4CC5F8"/>
<path d="M333.921 396.994L291.567 372.568C288.965 371.068 289.289 368.456 292.292 366.724L333.183 343.138C336.186 341.406 340.73 341.225 343.318 342.725L385.672 367.15C388.274 368.65 387.951 371.262 384.947 372.995L344.056 396.58C341.053 398.3 336.523 398.494 333.921 396.994Z" fill="#D4ECFF"/>
<path d="M334.693 392.598L299.2 372.129C297.025 370.875 297.297 368.677 299.808 367.228L334.072 347.458C336.583 346.009 340.389 345.854 342.576 347.108L378.07 367.577C380.245 368.832 379.973 371.03 377.462 372.478L343.198 392.249C340.674 393.697 336.868 393.852 334.693 392.598Z" fill="#4CC5F8"/>
<path d="M371.849 388.304C371.849 389.39 371.085 390.722 370.14 391.265C369.195 391.808 368.432 391.369 368.432 390.283C368.432 389.197 369.195 387.865 370.14 387.322C371.085 386.779 371.849 387.218 371.849 388.304Z" fill="#D4ECFF"/>
<path d="M377.346 385.124C377.346 386.21 376.582 387.542 375.637 388.085C374.692 388.628 373.929 388.188 373.929 387.102C373.929 386.016 374.692 384.684 375.637 384.141C376.582 383.598 377.346 384.037 377.346 385.124Z" fill="#D4ECFF"/>
<path d="M382.856 381.956C382.856 383.042 382.092 384.374 381.147 384.917C380.202 385.46 379.438 385.02 379.438 383.934C379.438 382.848 380.202 381.516 381.147 380.973C382.092 380.43 382.856 380.87 382.856 381.956Z" fill="#D4ECFF"/>
<path d="M387.429 361.124V346.526L354.667 346.513L343.341 339.983C340.739 338.483 336.196 338.677 333.206 340.397L322.643 346.487L289.842 346.474V361.486C289.764 362.495 290.334 363.478 291.589 364.202L333.943 388.627C336.545 390.127 341.089 389.933 344.079 388.214L384.97 364.628C386.692 363.62 387.533 362.327 387.429 361.124Z" fill="#029EE1"/>
<path d="M338.621 338.975C336.718 339.026 334.75 339.505 333.184 340.397L322.621 346.487L289.82 346.474V361.487C289.743 362.495 290.312 363.478 291.568 364.202L333.922 388.628C335.165 389.352 336.873 389.675 338.634 389.636V338.975H338.621Z" fill="#029EE1"/>
<path d="M293.535 346.474H289.82V361.486C289.743 362.495 290.312 363.477 291.568 364.201L293.535 365.339V346.474Z" fill="#4CC5F8"/>
<path d="M334.576 388.938C336.815 389.894 340.064 389.843 342.679 388.847V371.805H334.576V388.938Z" fill="#4CC5F8"/>
<path d="M333.921 373.667L291.567 349.241C288.965 347.741 289.289 345.129 292.292 343.396L333.183 319.811C336.186 318.079 340.73 317.897 343.318 319.397L385.672 343.823C388.274 345.323 387.951 347.935 384.947 349.668L344.056 373.253C341.053 374.973 336.523 375.167 333.921 373.667Z" fill="#D4ECFF"/>
<path d="M334.693 369.271L299.2 348.802C297.025 347.548 297.297 345.349 299.808 343.901L334.072 324.13C336.583 322.682 340.389 322.527 342.576 323.781L378.07 344.25C380.245 345.505 379.973 347.703 377.462 349.151L343.198 368.922C340.674 370.37 336.868 370.525 334.693 369.271Z" fill="#4CC5F8"/>
<path d="M371.849 364.977C371.849 366.063 371.085 367.395 370.14 367.938C369.195 368.481 368.432 368.042 368.432 366.955C368.432 365.869 369.195 364.537 370.14 363.994C371.085 363.438 371.849 363.891 371.849 364.977Z" fill="#D4ECFF"/>
<path d="M377.346 361.797C377.346 362.883 376.582 364.215 375.637 364.758C374.692 365.301 373.929 364.861 373.929 363.775C373.929 362.689 374.692 361.357 375.637 360.814C376.582 360.271 377.346 360.71 377.346 361.797Z" fill="#D4ECFF"/>
<path d="M382.856 358.628C382.856 359.715 382.092 361.046 381.147 361.589C380.202 362.133 379.438 361.693 379.438 360.607C379.438 359.521 380.202 358.189 381.147 357.646C382.092 357.09 382.856 357.542 382.856 358.628Z" fill="#D4ECFF"/>
<path d="M387.429 337.798V323.2L354.667 323.187L343.341 316.657C340.739 315.157 336.196 315.351 333.206 317.071L322.643 323.161L289.842 323.148V338.16C289.764 339.169 290.334 340.151 291.589 340.876L333.943 365.301C336.545 366.801 341.089 366.607 344.079 364.888L384.97 341.302C386.692 340.294 387.533 339.001 387.429 337.798Z" fill="#029EE1"/>
<path d="M338.621 315.648C336.718 315.7 334.75 316.179 333.184 317.071L322.621 323.161L289.82 323.148V338.16C289.743 339.169 290.312 340.152 291.568 340.876L333.922 365.302C335.165 366.026 336.873 366.349 338.634 366.31V315.648H338.621Z" fill="#029EE1"/>
<path d="M293.535 323.147H289.82V338.16C289.743 339.168 290.312 340.151 291.568 340.875L293.535 342.013V323.147Z" fill="#4CC5F8"/>
<path d="M334.576 365.611C336.815 366.568 340.064 366.517 342.679 365.521V348.479H334.576V365.611Z" fill="#4CC5F8"/>
<path d="M333.921 350.341L291.567 325.915C288.965 324.415 289.289 321.803 292.292 320.07L333.183 296.485C336.186 294.752 340.73 294.571 343.318 296.071L385.685 320.484C388.287 321.984 387.964 324.596 384.96 326.329L344.069 349.914C341.053 351.647 336.523 351.841 333.921 350.341Z" fill="#D4ECFF"/>
<path d="M384.947 323.458L344.056 347.043C341.053 348.776 336.509 348.957 333.92 347.457L291.566 323.031C290.984 322.695 290.557 322.307 290.272 321.88C289.379 323.316 289.78 324.867 291.566 325.902L333.92 350.327C336.522 351.827 341.066 351.634 344.056 349.914L384.947 326.329C387.277 324.984 387.989 323.109 386.966 321.635C386.565 322.294 385.892 322.915 384.947 323.458Z" fill="white"/>
<path d="M371.849 341.651C371.849 342.737 371.085 344.069 370.14 344.612C369.195 345.155 368.432 344.716 368.432 343.63C368.432 342.543 369.195 341.212 370.14 340.668C371.085 340.112 371.849 340.552 371.849 341.651Z" fill="#D4ECFF"/>
<path d="M377.346 338.47C377.346 339.557 376.582 340.888 375.637 341.431C374.692 341.975 373.929 341.535 373.929 340.449C373.929 339.363 374.692 338.031 375.637 337.488C376.582 336.945 377.346 337.384 377.346 338.47Z" fill="#D4ECFF"/>
<path d="M382.856 335.302C382.856 336.388 382.092 337.72 381.147 338.263C380.202 338.806 379.438 338.367 379.438 337.281C379.438 336.194 380.202 334.863 381.147 334.319C382.092 333.763 382.856 334.216 382.856 335.302Z" fill="#D4ECFF"/>
<path d="M336.428 335.199L316.61 323.768C315.393 323.07 315.549 321.842 316.947 321.027L336.078 309.984C337.476 309.17 339.612 309.092 340.829 309.79L360.647 321.221C361.863 321.919 361.708 323.148 360.31 323.962L341.178 335.005C339.767 335.807 337.645 335.897 336.428 335.199Z" fill="#4CC5F8"/>
<path d="M338.335 325.63L335.591 324.052C335.423 323.949 335.449 323.781 335.643 323.677L338.296 322.152C338.491 322.035 338.788 322.022 338.957 322.126L341.701 323.703C341.869 323.807 341.843 323.975 341.649 324.078L338.995 325.604C338.801 325.708 338.504 325.721 338.335 325.63Z" fill="#D4ECFF"/>
<path d="M316.61 323.768L316.662 323.794C316.752 323.729 316.843 323.665 316.947 323.6L336.078 312.557C337.489 311.743 339.612 311.665 340.829 312.363L360.595 323.755C361.721 322.953 361.773 321.867 360.647 321.208L340.829 309.777C339.612 309.079 337.489 309.169 336.078 309.971L316.947 321.014C315.549 321.841 315.393 323.057 316.61 323.768Z" fill="#029EE1"/>
<path d="M372.325 201.622L388.389 192.169L373.089 173.084L369.063 179.653L372.325 201.622Z" fill="#4CC5F8"/>
<path d="M255.656 96.897L281.299 82.1562C281.299 82.1562 280.328 96.8712 280.328 96.897C280.328 96.9229 265.598 101.462 265.598 101.462L255.656 96.897Z" fill="#4CC5F8"/>
<path d="M376.81 153.636C374.855 152.511 372.991 151.852 371.257 151.58C368.668 138.003 359.219 123.586 347.944 117.081C344.553 115.129 341.329 114.082 338.404 113.862C336.864 97.4142 325.408 78.7037 311.506 70.6868C304.244 66.4973 297.655 66.006 292.788 68.5662V68.5533L292.555 68.6826C292.426 68.7472 292.309 68.8248 292.18 68.8895L277.061 77.8115L282.083 81.7812C277.566 83.7466 274.718 88.8024 274.718 96.2763C274.718 110.047 284.4 126.805 296.348 133.697L376.81 191.096C385.78 196.268 393.042 192.078 393.042 181.734C393.042 171.39 385.767 158.808 376.81 153.636Z" fill="#4CC5F8"/>
<path d="M275.449 90.225L310.153 69.9629C303.409 66.4587 297.325 66.1613 292.756 68.5664V68.5534L292.523 68.6827C292.393 68.7474 292.277 68.825 292.147 68.8896L277.028 77.8117L282.051 81.7813C278.918 83.1649 276.575 86.0613 275.449 90.225Z" fill="#4CC5F8"/>
<path d="M339.547 149.822L364.879 134.977C360.53 127.478 354.55 120.922 347.935 117.095C347.055 116.59 346.188 116.151 345.346 115.763L313.128 134.577L339.547 149.822Z" fill="#4CC5F8"/>
<path d="M284.172 79.4796L295.459 85.9837L316.132 73.829C314.617 72.6523 313.077 71.6049 311.484 70.6869C308.986 69.2387 306.566 68.243 304.262 67.6611L284.172 79.4796Z" fill="#D4ECFF"/>
<path d="M362.076 130.606L341.857 142.503L348.886 150.338L367.241 139.516C365.791 136.399 364.044 133.399 362.076 130.606Z" fill="#D4ECFF"/>
<path d="M360.916 162.984C358.962 161.859 357.098 161.2 355.363 160.928C352.774 147.351 343.325 132.934 332.05 126.43C328.659 124.477 325.436 123.43 322.51 123.21C320.97 106.763 309.514 88.0521 295.612 80.0352C280.661 71.4105 268.532 78.4059 268.532 95.6553C268.532 96.2371 268.545 96.8319 268.571 97.4267C257.633 92.358 249.09 98.0733 249.09 111.017C249.09 124.788 258.772 141.546 270.72 148.438L360.916 200.457C369.887 205.629 377.161 201.44 377.161 191.095C377.161 180.738 369.887 168.157 360.916 162.984Z" fill="#D4ECFF"/>
<path d="M268.582 97.4141C268.556 96.8193 268.543 96.2245 268.543 95.6427C268.543 95.6168 268.543 95.5909 268.543 95.5651C262.498 93.2117 257.307 94.2332 254.045 98.0089C257.592 95.1125 262.731 94.7117 268.582 97.4141Z" fill="white"/>
<path d="M362.255 161.691C360.301 160.566 358.437 159.907 356.702 159.635C354.113 146.058 344.664 131.641 333.389 125.137C329.998 123.184 326.775 122.137 323.849 121.917C322.309 105.469 310.853 86.759 296.951 78.7421C287.631 73.363 279.412 74.0613 274.544 79.5179C279.502 75.2767 287.113 75.1216 295.631 80.0351C309.533 88.0521 320.989 106.75 322.529 123.21C325.455 123.43 328.678 124.477 332.069 126.43C343.344 132.934 352.806 147.351 355.382 160.928C357.116 161.2 358.98 161.859 360.935 162.984C369.906 168.157 377.18 180.738 377.18 191.082C377.18 194.819 376.222 197.729 374.591 199.707C377.025 197.832 378.501 194.444 378.501 189.789C378.501 179.445 371.226 166.864 362.255 161.691Z" fill="white"/>
<path d="M266.669 101.526L273.452 104.668L273.102 97.2071C273.076 96.6898 273.063 96.1597 273.063 95.6425C273.063 88.9833 275.07 84.1602 278.733 82.0525C282.383 79.9448 287.574 80.6172 293.347 83.9533C305.761 91.1168 316.582 108.534 318.006 123.624L318.369 127.426L322.174 127.723C324.517 127.904 327.08 128.783 329.798 130.361C339.662 136.05 348.542 149.265 350.924 161.782L351.519 164.911L354.677 165.403C355.933 165.597 357.279 166.101 358.664 166.903C366.237 171.273 372.631 182.342 372.631 191.07C372.631 194.341 371.725 196.733 370.146 197.651C368.567 198.556 366.03 198.156 363.195 196.513L272.999 144.494C262.501 138.442 253.634 123.107 253.634 111.004C253.634 106.258 255.032 102.638 257.478 101.073C258.488 100.427 259.705 100.116 261.077 100.116C262.734 100.116 264.636 100.582 266.669 101.526Z" fill="#029EE1"/>
<path d="M311.685 158.006L314.054 156.804L311.711 155.032L311.685 158.006Z" fill="#4CC5F8"/>
<path d="M304.52 125.887L306.837 124.724L306.876 125.939L304.52 125.887Z" fill="#4CC5F8"/>
<path d="M318.463 150.494L320.871 149.278L316.237 144.882L318.463 150.494Z" fill="#4CC5F8"/>
<path d="M313.36 156.726L302.099 150.093C301.529 149.757 301.063 148.903 301.063 148.205L301.102 135.171L314.435 143.02L314.396 156.054C314.396 156.765 313.93 157.062 313.36 156.726Z" fill="#4CC5F8"/>
<path d="M306.804 124.736L294.637 132.559C294.119 132.896 294.533 134.124 295.323 134.589L307.749 141.895L320.176 149.201C320.966 149.666 321.38 148.916 320.875 147.985L308.798 125.9C308.267 124.956 307.335 124.4 306.804 124.736Z" fill="#4CC5F8"/>
<path d="M310.945 157.942L299.683 151.309C299.113 150.972 298.647 150.119 298.647 149.421L298.686 136.387L312.019 144.236L311.98 157.269C311.98 157.981 311.514 158.278 310.945 157.942Z" fill="#D4ECFF"/>
<path d="M304.392 125.952L292.224 133.775C291.706 134.111 292.121 135.34 292.91 135.805L305.337 143.111L317.763 150.417C318.553 150.882 318.967 150.132 318.462 149.201L306.385 127.116C305.855 126.172 304.923 125.616 304.392 125.952Z" fill="#D4ECFF"/>
</svg>
