<svg width="17" height="18" viewBox="0 0 17 18" fill="none" xmlns="http://www.w3.org/2000/svg">
<path d="M17 9.4043C17 14.0988 13.1945 17.9043 8.5 17.9043C3.80552 17.9043 0 14.0988 0 9.4043C0 4.70982 3.80552 0.904297 8.5 0.904297C13.1945 0.904297 17 4.70982 17 9.4043Z" fill="#BACCDF"/>
<path d="M11.6027 6.44689C11.2958 6.28166 10.9536 6.60031 10.7529 6.78915C10.2927 7.23762 9.9032 7.7569 9.46651 8.22898C8.98263 8.74827 8.53416 9.26755 8.03847 9.77506C7.75523 10.0583 7.44838 10.3652 7.25955 10.7192C6.83468 10.3061 6.46882 9.85765 5.99674 9.49181C5.65448 9.23217 5.08799 9.04334 5.09979 9.66884C5.12339 10.4832 5.84331 11.3565 6.3744 11.9112C6.59864 12.1472 6.89369 12.3951 7.23594 12.4069C7.64901 12.4305 8.07388 11.9348 8.32172 11.6634C8.75841 11.1913 9.11247 10.6602 9.51372 10.1763C10.033 9.53902 10.5641 8.9135 11.0716 8.26439C11.3902 7.86312 12.3934 6.87174 11.6027 6.44689ZM5.61906 9.62163C5.60725 9.62163 5.59545 9.62163 5.57185 9.63341C5.52464 9.62163 5.48924 9.60981 5.44203 9.58621C5.47743 9.5626 5.53644 9.5744 5.61906 9.62163Z" fill="white"/>
</svg>
