<svg width="19" height="14" viewBox="0 0 19 14" fill="none" xmlns="http://www.w3.org/2000/svg">
<path d="M12.5352 7.50148L18.9099 11.5315V3.30127L12.5352 7.50148Z" fill="#BACCDF"/>
<path d="M0 3.30127V11.5315L6.37477 7.50148L0 3.30127Z" fill="#BACCDF"/>
<path d="M17.7271 0.904297H1.18153C0.591796 0.904297 0.123793 1.34394 0.0351562 1.91003L9.45431 8.1158L18.8735 1.91003C18.7848 1.34394 18.3168 0.904297 17.7271 0.904297Z" fill="#BACCDF"/>
<path d="M11.4512 8.21505L9.7789 9.31651C9.67962 9.38151 9.56735 9.41342 9.45389 9.41342C9.34044 9.41342 9.22817 9.38151 9.12889 9.31651L7.45661 8.21387L0.0371094 12.9069C0.12811 13.4683 0.593749 13.9044 1.18112 13.9044H17.7267C18.314 13.9044 18.7797 13.4683 18.8707 12.9069L11.4512 8.21505Z" fill="#BACCDF"/>
</svg>
