<svg width="16" height="18" viewBox="0 0 16 18" fill="none" xmlns="http://www.w3.org/2000/svg">
<g opacity="0.5" clip-path="url(#clip0_641_278)">
<path d="M8.00185 0.904297C5.71613 0.904297 3.84766 2.88955 3.84766 5.31814C3.84766 7.74672 5.71613 9.73198 8.00185 9.73198C10.2876 9.73198 12.1561 7.74672 12.1561 5.31814C12.1561 2.88955 10.2876 0.904297 8.00185 0.904297Z" fill="#769BC1"/>
<path d="M15.1312 13.2593C15.0223 12.9702 14.8772 12.7004 14.7139 12.4498C13.8795 11.1391 12.5915 10.2718 11.1403 10.0597C10.9589 10.0405 10.7593 10.079 10.6142 10.1947C9.85228 10.7922 8.94527 11.1006 8.00194 11.1006C7.0586 11.1006 6.15159 10.7922 5.38968 10.1947C5.24454 10.079 5.04499 10.0212 4.8636 10.0597C3.41235 10.2718 2.10624 11.1391 1.28992 12.4498C1.12666 12.7004 0.98152 12.9895 0.872701 13.2593C0.818291 13.375 0.836416 13.5099 0.890825 13.6255C1.03596 13.8954 1.21735 14.1652 1.38062 14.3965C1.63458 14.7627 1.90669 15.0904 2.2151 15.3988C2.46905 15.6686 2.7593 15.9192 3.04958 16.1697C4.48267 17.307 6.20603 17.9044 7.98381 17.9044C9.76159 17.9044 11.485 17.3069 12.918 16.1697C13.2083 15.9385 13.4985 15.6686 13.7525 15.3988C14.0428 15.0904 14.333 14.7627 14.587 14.3965C14.7684 14.1459 14.9317 13.8954 15.0768 13.6255C15.1675 13.5099 15.1856 13.3749 15.1312 13.2593Z" fill="#769BC1"/>
</g>
<defs>
<clipPath id="clip0_641_278">
<rect width="16" height="17" fill="white" transform="translate(0 0.904297)"/>
</clipPath>
</defs>
</svg>
