<svg width="557" height="259" viewBox="0 0 557 259" fill="none" xmlns="http://www.w3.org/2000/svg">
<g opacity="0.12">
<path d="M82.7042 259C130.68 259 167.915 230.381 167.915 183.16C167.915 153.111 151.803 129.858 121.013 123.776V122.703C146.075 111.256 158.248 93.7265 158.248 64.0345C158.248 24.6837 127.099 0 83.0622 0C47.6175 0 20.7655 12.8784 5.3704 37.5621L34.7286 76.1975C48.6916 59.0262 62.6547 53.6602 78.0498 53.6602C94.8771 53.6602 100.964 64.0345 100.964 74.7666C100.964 91.9378 85.5684 99.808 66.593 99.808H52.2719L52.2719 153.468H68.0251C95.9512 153.468 110.63 162.054 110.63 181.014C110.63 193.892 100.964 205.34 79.1239 205.34C58.0003 205.34 42.2471 192.104 29.7162 177.794L0 217.503C13.247 240.04 40.815 259 82.7042 259Z" fill="#A6D8FF"/>
<path d="M200.243 165.989C200.243 217.145 236.762 259 292.614 259C333.787 259 377.108 230.739 377.108 174.932C377.108 129.142 343.812 98.7348 308.009 98.7348C287.602 98.7348 274.713 102.312 263.972 112.329C278.651 77.9862 309.799 52.9447 346.676 40.424L324.836 0C270.774 14.3094 200.243 74.0511 200.243 165.989ZM257.527 166.347C263.972 157.046 273.997 148.818 289.392 148.818C309.441 148.818 319.824 161.696 319.824 178.867C319.824 191.746 311.948 205.34 292.972 205.34C270.416 205.34 257.527 189.957 257.527 166.347Z" fill="#A6D8FF"/>
<path d="M410.567 144.525C417.37 141.305 436.345 138.086 453.53 138.086C483.604 138.086 499.716 153.468 499.716 173.859C499.716 192.461 486.469 205.34 467.135 205.34C450.308 205.34 431.333 195.681 421.666 184.233L391.592 225.373C406.629 246.837 439.209 259 465.703 259C516.901 259 557 227.519 557 171.355C557 120.199 521.913 89.7914 478.592 89.7914H469.999L475.012 57.953L551.63 57.953V4.2928L427.752 4.2928L410.567 144.525Z" fill="#A6D8FF"/>
</g>
</svg>
