<svg width="1920" height="596" viewBox="0 0 1920 596" fill="none" xmlns="http://www.w3.org/2000/svg">
<path d="M880.325 571.446L880.251 571.435C880.251 571.435 603.686 589.345 380.635 583.468C157.583 577.592 -161.491 533.938 -161.491 533.938L-199 -223L1953 -197.256V521.066C1924.99 531.233 1882.46 543.258 1761.96 561.921C1649.93 579.271 1603.92 582.069 1515.4 589.345C1426.88 596.62 1229.76 596.747 1176.82 595.221C1011.83 590.465 958.969 582.82 880.325 571.446Z" fill="#F8FDFF"/>
<path d="M880.325 571.446L880.251 571.435C880.251 571.435 603.686 589.345 380.635 583.468C157.583 577.592 -161.491 533.938 -161.491 533.938L-199 -223L1953 -197.256V521.066C1924.99 531.233 1882.46 543.258 1761.96 561.921C1649.93 579.271 1603.92 582.069 1515.4 589.345C1426.88 596.62 1229.76 596.747 1176.82 595.221C1011.83 590.465 958.969 582.82 880.325 571.446Z" fill="url(#paint0_linear_641_5658)" fill-opacity="0.2"/>
<defs>
<linearGradient id="paint0_linear_641_5658" x1="138.001" y1="368.633" x2="548.523" y2="-342.877" gradientUnits="userSpaceOnUse">
<stop stop-color="#19548E"/>
<stop offset="1" stop-color="#3484D5"/>
</linearGradient>
</defs>
</svg>
