<svg width="152" height="105" viewBox="0 0 152 105" fill="none" xmlns="http://www.w3.org/2000/svg">
<path opacity="0.1" d="M114.397 29.2084L114.398 29.2119L114.399 29.2148L114.401 29.2186L114.401 29.2188L114.401 29.22L115.696 32.4148L119.135 32.3287C119.135 32.3287 119.136 32.3287 119.14 32.3287C119.142 32.3286 119.146 32.3286 119.15 32.3286L119.161 32.3285C119.185 32.3283 119.224 32.3282 119.278 32.3286C119.407 32.3295 119.618 32.3331 119.904 32.3453C120.475 32.3698 121.333 32.4283 122.397 32.566C124.538 32.8433 127.433 33.4313 130.473 34.6567C136.442 37.0627 142.944 41.871 145.679 52.0221C147.861 60.1209 146.967 70.2221 145.664 75.3056C144.447 80.0489 140.4 87.295 135.065 91.585C131.947 94.093 129.674 95.7762 126.986 96.9301C124.376 98.0505 121.066 98.7924 115.89 98.7924H115.853L115.816 98.7929L33.4467 100C22.3394 99.9937 15.5018 97.1007 11.3828 92.8063C7.22198 88.4683 5 81.8343 5 72.6005C5 58.7153 12.1913 49.8747 19.7168 44.3025C23.504 41.4983 27.3197 39.5772 30.1995 38.3586C31.6326 37.7522 32.8154 37.3276 33.6216 37.0596C34.0241 36.9257 34.3312 36.8315 34.5269 36.7735C34.6246 36.7445 34.6944 36.7247 34.7342 36.7136L34.7682 36.7041L34.7705 36.7035L34.771 36.7034C34.7733 36.7027 34.7737 36.7026 34.7721 36.7031L38.0779 35.8288L38.4508 32.4369C38.4513 32.4332 38.452 32.4276 38.4529 32.4203C38.4569 32.39 38.4651 32.3296 38.4785 32.2413C38.5054 32.0644 38.5531 31.7764 38.6297 31.394C38.7832 30.6276 39.0505 29.4916 39.4935 28.1158C40.3839 25.3509 41.955 21.707 44.6623 18.15C49.8851 11.288 59.8588 4.03145 79.5751 5.10617L79.8269 5.11989L80.0789 5.10821C91.9191 4.55912 100.379 10.3225 106.103 16.6077C108.967 19.7528 111.068 22.9555 112.452 25.3773C113.14 26.5826 113.643 27.5793 113.966 28.2575C114.127 28.5962 114.243 28.8542 114.314 29.0176C114.35 29.0993 114.375 29.1572 114.389 29.1896L114.397 29.2084Z" stroke="#00A1E4" stroke-width="10"/>
</svg>
