<svg width="187" height="692" viewBox="0 0 187 692" fill="none" xmlns="http://www.w3.org/2000/svg">
<g opacity="0.5">
<path d="M28.2339 202.988C-7.03433 84.2451 25.5584 -56.5596 43.3809 -111.627L-187.12 160.527L-231.046 450.514C-220.272 491.501 -195.626 582.586 -183.242 619.028C-167.761 664.58 -56.6774 690.502 24.1549 691.508C104.987 692.513 188.376 615.656 186.412 522.228C184.448 428.801 54.5812 291.695 28.2339 202.988Z" fill="#ECF9FF"/>
<path d="M28.2339 202.988C-7.03433 84.2451 25.5584 -56.5596 43.3809 -111.627L-187.12 160.527L-231.046 450.514C-220.272 491.501 -195.626 582.586 -183.242 619.028C-167.761 664.58 -56.6774 690.502 24.1549 691.508C104.987 692.513 188.376 615.656 186.412 522.228C184.448 428.801 54.5812 291.695 28.2339 202.988Z" fill="url(#paint0_linear_641_151)"/>
</g>
<defs>
<linearGradient id="paint0_linear_641_151" x1="16.0436" y1="-232.198" x2="389.539" y2="394.88" gradientUnits="userSpaceOnUse">
<stop stop-color="#92B0C9"/>
<stop offset="1" stop-color="#A6C4DE"/>
</linearGradient>
</defs>
</svg>
