<svg width="132" height="190" viewBox="0 0 132 190" fill="none" xmlns="http://www.w3.org/2000/svg">
<path d="M117.998 2L130.398 14.4" stroke="white" stroke-width="3" stroke-miterlimit="10"/>
<path d="M130.398 2L117.998 14.4" stroke="white" stroke-width="3" stroke-miterlimit="10"/>
<path d="M88.9984 31L101.398 43.4" stroke="white" stroke-width="3" stroke-miterlimit="10"/>
<path d="M101.398 31L88.9984 43.4" stroke="white" stroke-width="3" stroke-miterlimit="10"/>
<path d="M59.9984 2L72.3984 14.4" stroke="white" stroke-width="3" stroke-miterlimit="10"/>
<path d="M72.3984 2L59.9984 14.4" stroke="white" stroke-width="3" stroke-miterlimit="10"/>
<path d="M30.9984 31L43.3984 43.4" stroke="white" stroke-width="3" stroke-miterlimit="10"/>
<path d="M43.3984 31L30.9984 43.4" stroke="white" stroke-width="3" stroke-miterlimit="10"/>
<path d="M1.99844 2L14.3984 14.4" stroke="white" stroke-width="3" stroke-miterlimit="10"/>
<path d="M14.3984 2L1.99844 14.4" stroke="white" stroke-width="3" stroke-miterlimit="10"/>
<path d="M117.998 60L130.398 72.4" stroke="white" stroke-width="3" stroke-miterlimit="10"/>
<path d="M130.398 60L117.998 72.4" stroke="white" stroke-width="3" stroke-miterlimit="10"/>
<path d="M88.9984 89L101.398 101.4" stroke="white" stroke-width="3" stroke-miterlimit="10"/>
<path d="M101.398 89L88.9984 101.4" stroke="white" stroke-width="3" stroke-miterlimit="10"/>
<path d="M59.9984 60L72.3984 72.4" stroke="white" stroke-width="3" stroke-miterlimit="10"/>
<path d="M72.3984 60L59.9984 72.4" stroke="white" stroke-width="3" stroke-miterlimit="10"/>
<path d="M30.9984 89L43.3984 101.4" stroke="white" stroke-width="3" stroke-miterlimit="10"/>
<path d="M43.3984 89L30.9984 101.4" stroke="white" stroke-width="3" stroke-miterlimit="10"/>
<path d="M1.99844 60L14.3984 72.4" stroke="white" stroke-width="3" stroke-miterlimit="10"/>
<path d="M14.3984 60L1.99844 72.4" stroke="white" stroke-width="3" stroke-miterlimit="10"/>
<path d="M117.998 118L130.398 130.4" stroke="white" stroke-width="3" stroke-miterlimit="10"/>
<path d="M130.398 118L117.998 130.4" stroke="white" stroke-width="3" stroke-miterlimit="10"/>
<path d="M88.9984 147L101.398 159.5" stroke="white" stroke-width="3" stroke-miterlimit="10"/>
<path d="M101.398 147L88.9984 159.5" stroke="white" stroke-width="3" stroke-miterlimit="10"/>
<path d="M59.9984 118L72.3984 130.4" stroke="white" stroke-width="3" stroke-miterlimit="10"/>
<path d="M72.3984 118L59.9984 130.4" stroke="white" stroke-width="3" stroke-miterlimit="10"/>
<path d="M30.9984 147L43.3984 159.5" stroke="white" stroke-width="3" stroke-miterlimit="10"/>
<path d="M43.3984 147L30.9984 159.5" stroke="white" stroke-width="3" stroke-miterlimit="10"/>
<path d="M1.99844 118L14.3984 130.4" stroke="white" stroke-width="3" stroke-miterlimit="10"/>
<path d="M14.3984 118L1.99844 130.4" stroke="white" stroke-width="3" stroke-miterlimit="10"/>
<path d="M117.998 176L130.398 188.5" stroke="white" stroke-width="3" stroke-miterlimit="10"/>
<path d="M130.398 176L117.998 188.5" stroke="white" stroke-width="3" stroke-miterlimit="10"/>
<path d="M59.9984 176L72.3984 188.5" stroke="white" stroke-width="3" stroke-miterlimit="10"/>
<path d="M72.3984 176L59.9984 188.5" stroke="white" stroke-width="3" stroke-miterlimit="10"/>
<path d="M1.99844 176L14.3984 188.5" stroke="white" stroke-width="3" stroke-miterlimit="10"/>
<path d="M14.3984 176L1.99844 188.5" stroke="white" stroke-width="3" stroke-miterlimit="10"/>
</svg>
