<svg width="132" height="190" viewBox="0 0 132 190" fill="none" xmlns="http://www.w3.org/2000/svg">
<path d="M118 2L130.4 14.4" stroke="#00A1E4" stroke-width="3" stroke-miterlimit="10"/>
<path d="M130.4 2L118 14.4" stroke="#00A1E4" stroke-width="3" stroke-miterlimit="10"/>
<path d="M89.0004 31L101.4 43.4" stroke="#00A1E4" stroke-width="3" stroke-miterlimit="10"/>
<path d="M101.4 31L89.0004 43.4" stroke="#00A1E4" stroke-width="3" stroke-miterlimit="10"/>
<path d="M60.0004 2L72.4004 14.4" stroke="#00A1E4" stroke-width="3" stroke-miterlimit="10"/>
<path d="M72.4004 2L60.0004 14.4" stroke="#00A1E4" stroke-width="3" stroke-miterlimit="10"/>
<path d="M31.0004 31L43.4004 43.4" stroke="#00A1E4" stroke-width="3" stroke-miterlimit="10"/>
<path d="M43.4004 31L31.0004 43.4" stroke="#00A1E4" stroke-width="3" stroke-miterlimit="10"/>
<path d="M2.00039 2L14.4004 14.4" stroke="#00A1E4" stroke-width="3" stroke-miterlimit="10"/>
<path d="M14.4004 2L2.00039 14.4" stroke="#00A1E4" stroke-width="3" stroke-miterlimit="10"/>
<path d="M118 60L130.4 72.4" stroke="#00A1E4" stroke-width="3" stroke-miterlimit="10"/>
<path d="M130.4 60L118 72.4" stroke="#00A1E4" stroke-width="3" stroke-miterlimit="10"/>
<path d="M89.0004 89L101.4 101.4" stroke="#00A1E4" stroke-width="3" stroke-miterlimit="10"/>
<path d="M101.4 89L89.0004 101.4" stroke="#00A1E4" stroke-width="3" stroke-miterlimit="10"/>
<path d="M60.0004 60L72.4004 72.4" stroke="#00A1E4" stroke-width="3" stroke-miterlimit="10"/>
<path d="M72.4004 60L60.0004 72.4" stroke="#00A1E4" stroke-width="3" stroke-miterlimit="10"/>
<path d="M31.0004 89L43.4004 101.4" stroke="#00A1E4" stroke-width="3" stroke-miterlimit="10"/>
<path d="M43.4004 89L31.0004 101.4" stroke="#00A1E4" stroke-width="3" stroke-miterlimit="10"/>
<path d="M2.00039 60L14.4004 72.4" stroke="#00A1E4" stroke-width="3" stroke-miterlimit="10"/>
<path d="M14.4004 60L2.00039 72.4" stroke="#00A1E4" stroke-width="3" stroke-miterlimit="10"/>
<path d="M118 118L130.4 130.4" stroke="#00A1E4" stroke-width="3" stroke-miterlimit="10"/>
<path d="M130.4 118L118 130.4" stroke="#00A1E4" stroke-width="3" stroke-miterlimit="10"/>
<path d="M89.0004 147L101.4 159.5" stroke="#00A1E4" stroke-width="3" stroke-miterlimit="10"/>
<path d="M101.4 147L89.0004 159.5" stroke="#00A1E4" stroke-width="3" stroke-miterlimit="10"/>
<path d="M60.0004 118L72.4004 130.4" stroke="#00A1E4" stroke-width="3" stroke-miterlimit="10"/>
<path d="M72.4004 118L60.0004 130.4" stroke="#00A1E4" stroke-width="3" stroke-miterlimit="10"/>
<path d="M31.0004 147L43.4004 159.5" stroke="#00A1E4" stroke-width="3" stroke-miterlimit="10"/>
<path d="M43.4004 147L31.0004 159.5" stroke="#00A1E4" stroke-width="3" stroke-miterlimit="10"/>
<path d="M2.00039 118L14.4004 130.4" stroke="#00A1E4" stroke-width="3" stroke-miterlimit="10"/>
<path d="M14.4004 118L2.00039 130.4" stroke="#00A1E4" stroke-width="3" stroke-miterlimit="10"/>
<path d="M118 176L130.4 188.5" stroke="#00A1E4" stroke-width="3" stroke-miterlimit="10"/>
<path d="M130.4 176L118 188.5" stroke="#00A1E4" stroke-width="3" stroke-miterlimit="10"/>
<path d="M60.0004 176L72.4004 188.5" stroke="#00A1E4" stroke-width="3" stroke-miterlimit="10"/>
<path d="M72.4004 176L60.0004 188.5" stroke="#00A1E4" stroke-width="3" stroke-miterlimit="10"/>
<path d="M2.00039 176L14.4004 188.5" stroke="#00A1E4" stroke-width="3" stroke-miterlimit="10"/>
<path d="M14.4004 176L2.00039 188.5" stroke="#00A1E4" stroke-width="3" stroke-miterlimit="10"/>
</svg>
