<svg width="977" height="875" viewBox="0 0 977 875" fill="none" xmlns="http://www.w3.org/2000/svg">
<path opacity="0.14" d="M328.189 286.41C445.312 271.175 639.877 350.491 596.019 540.655C552.161 730.819 585.228 713.142 585.228 713.142C586.624 724.495 577.865 734.915 565.664 736.416L351.296 762.779C136.43 770.659 102.793 623.466 94.7939 559.629C80.1807 443.012 166.527 307.439 328.189 286.41Z" fill="#C8EFFF"/>
<path d="M336.313 349.912C442.153 336.13 561.788 399.058 543.525 533.747C525.263 668.436 543.525 692.167 543.525 692.167C544.659 701.382 537.203 696 527.473 697.197L356.504 718.223C185.108 724.25 158.658 616.475 155.364 557.121C148.688 436.841 232.469 363.433 336.313 349.912Z" fill="#DAF4FF"/>
<circle opacity="0.4" cx="653.676" cy="539.5" r="4.5" fill="#00A1E4" stroke="#00A1E4" stroke-width="6"/>
<path d="M543.176 520H570.335C581.381 520 590.335 511.046 590.335 500V491C590.335 479.954 599.29 471 610.335 471H665.176" stroke="#00A1E4" stroke-dasharray="5 5"/>
<path d="M203.176 311L203.176 340C203.176 351.046 212.13 360 223.176 360H258.176" stroke="#00A1E4" stroke-dasharray="5 5"/>
<path d="M576.176 294L530.176 294C519.13 294 510.176 302.954 510.176 314L510.176 401" stroke="#00A1E4" stroke-dasharray="5 5"/>
<path d="M62.1758 527L170.176 527" stroke="#00A1E4" stroke-dasharray="5 5"/>
<path d="M555.176 626L575.176 626H595.176" stroke="#00A1E4" stroke-dasharray="5 5"/>
<g filter="url(#filter0_d_2119_5410)">
<path opacity="0.7" d="M42.2341 514.94L34.9018 512.845L32.8069 505.513H18.1424C16.4069 505.513 15 506.92 15 508.655V538.124C15 539.859 16.4069 541.266 18.1424 541.266H39.0917C40.8272 541.266 42.2341 539.859 42.2341 538.124V514.94Z" fill="#00A1E4"/>
<path d="M42.2342 514.939V538.123C42.2342 539.858 40.8273 541.265 39.0918 541.265H28.6172V505.512H32.807L34.902 512.844L42.2342 514.939Z" fill="#00A1E4"/>
<path d="M42.2338 514.939H34.9016C33.7494 514.939 32.8066 513.996 32.8066 512.844V505.512C33.079 505.512 33.3513 505.616 33.5398 505.826L41.9195 514.206C42.1291 514.394 42.2338 514.667 42.2338 514.939Z" fill="#00A1E4"/>
<path d="M34.9022 522.341H22.3326C21.7537 522.341 21.2852 521.873 21.2852 521.294C21.2852 520.715 21.7537 520.246 22.3326 520.246H34.9022C35.4812 520.246 35.9497 520.715 35.9497 521.294C35.9497 521.873 35.4812 522.341 34.9022 522.341Z" fill="white"/>
<path d="M34.9022 526.53H22.3326C21.7537 526.53 21.2852 526.062 21.2852 525.483C21.2852 524.904 21.7537 524.436 22.3326 524.436H34.9022C35.4812 524.436 35.9497 524.904 35.9497 525.483C35.9497 526.062 35.4812 526.53 34.9022 526.53Z" fill="white"/>
<path d="M34.9022 530.721H22.3326C21.7537 530.721 21.2852 530.252 21.2852 529.673C21.2852 529.094 21.7537 528.626 22.3326 528.626H34.9022C35.4812 528.626 35.9497 529.094 35.9497 529.673C35.9497 530.252 35.4812 530.721 34.9022 530.721Z" fill="white"/>
<path d="M30.7123 534.91H22.3326C21.7537 534.91 21.2852 534.442 21.2852 533.863C21.2852 533.284 21.7537 532.815 22.3326 532.815H30.7123C31.2913 532.815 31.7598 533.284 31.7598 533.863C31.7598 534.442 31.2913 534.91 30.7123 534.91Z" fill="white"/>
</g>
<g opacity="0.4" filter="url(#filter1_f_2119_5410)">
<ellipse cx="720.176" cy="133.5" rx="95" ry="94.5" fill="#DAF4FF"/>
</g>
<g filter="url(#filter2_d_2119_5410)">
<path d="M736.793 465.95C737.166 464.542 737.424 461.815 736.793 459.55C735.132 453.599 728.716 453.754 728.716 453.754C728.716 453.754 725.752 446.693 718.663 447.01C712.492 447.01 708.899 450.618 707.615 455.265C701.819 455.567 698.176 460.224 698.176 464.972C698.176 469.906 700.631 473 706.767 473L727.259 472.705C730.175 472.705 732.028 471.889 733.635 470.641C735.241 469.394 736.419 467.358 736.793 465.95Z" fill="#00A1E4"/>
</g>
<circle opacity="0.7" cx="675.211" cy="469.5" r="3.5" fill="#00A1E4"/>
<circle opacity="0.7" cx="576.176" cy="295" r="4" fill="#00A1E4"/>
<ellipse opacity="0.7" cx="203.676" cy="307" rx="3.5" ry="4" fill="#00A1E4"/>
<circle opacity="0.7" cx="64.1758" cy="528" r="4" fill="#00A1E4"/>
<path d="M100.156 409.248H129.677C140.723 409.248 149.677 418.202 149.677 429.248V462.691C149.677 472.451 156.721 480.785 166.344 482.412L180.882 484.869C181.983 485.055 183.098 485.148 184.215 485.148H212.619" stroke="#00A1E4" stroke-dasharray="5 5"/>
<circle opacity="0.7" cx="4.62809" cy="4.62809" r="4.62809" transform="matrix(-1 0 0 1 100.156 400.917)" fill="#00A1E4"/>
<circle opacity="0.7" cx="4.62809" cy="4.62809" r="4.62809" transform="matrix(-1 0 0 1 604.908 621.538)" fill="#00A1E4"/>
<path opacity="0.4" d="M426.853 204.494C426.853 206.876 424.734 209.132 421.706 209.132C418.678 209.132 416.559 206.876 416.559 204.494C416.559 202.111 418.678 199.855 421.706 199.855C424.734 199.855 426.853 202.111 426.853 204.494Z" fill="#00A1E4" stroke="#00A1E4" stroke-width="6"/>
<path d="M417.323 203.85L385.488 203.85C374.443 203.85 365.488 212.804 365.488 223.85L365.488 243.652L365.488 273.734" stroke="#00A1E4" stroke-dasharray="5 5"/>
<circle cx="193.536" cy="233.68" r="49.0455" fill="white"/>
<circle cx="193.536" cy="233.68" r="47.5455" stroke="#00A1E4" stroke-opacity="0.3" stroke-width="3"/>
<g filter="url(#filter3_d_2119_5410)">
<path d="M193.286 233.947C187.37 233.947 182.412 232.209 181.059 229.866C180.821 230.279 180.682 230.707 180.682 231.152V234.986C180.682 237.949 186.326 240.352 193.286 240.352C200.249 240.352 205.896 237.949 205.896 234.986V231.152C205.896 230.707 205.755 230.279 205.515 229.866C204.162 232.208 199.208 233.947 193.286 233.947Z" fill="#00A1E4"/>
<path d="M193.286 241.868C187.37 241.868 182.412 240.128 181.059 237.789C180.821 238.199 180.682 238.628 180.682 239.072V242.909C180.682 245.873 186.326 248.275 193.286 248.275C200.249 248.275 205.896 245.874 205.896 242.909V239.072C205.896 238.628 205.755 238.199 205.515 237.79C204.162 240.128 199.208 241.868 193.286 241.868Z" fill="#00A1E4"/>
<path d="M205.552 222.197C205.304 224.368 199.918 226.105 193.286 226.105C186.657 226.105 181.271 224.368 181.024 222.198C180.808 222.592 180.682 223.004 180.682 223.427V227.262C180.682 230.225 186.326 232.627 193.286 232.627C200.249 232.627 205.896 230.226 205.896 227.262V223.427C205.896 223.004 205.768 222.592 205.552 222.197Z" fill="#00A1E4"/>
<path d="M193.286 224.888C200.073 224.888 205.573 223.071 205.573 220.827C205.573 218.585 200.073 216.768 193.286 216.768C186.503 216.769 181.002 218.586 181.002 220.828C181.002 223.071 186.503 224.888 193.286 224.888Z" fill="#00A1E4"/>
</g>
<circle cx="691.2" cy="636.63" r="50.7368" fill="white"/>
<circle cx="691.2" cy="636.63" r="49.2368" stroke="#00A1E4" stroke-opacity="0.3" stroke-width="3"/>
<g filter="url(#filter4_d_2119_5410)">
<path d="M704.959 628.932H690.985L688.205 625.628C688.112 625.516 687.972 625.453 687.825 625.457H676.551C674.83 625.47 673.441 626.869 673.441 628.59V648.909C673.443 650.636 674.843 652.036 676.57 652.038H704.959C706.686 652.036 708.086 650.636 708.088 648.909V632.061C708.086 630.334 706.686 628.934 704.959 628.932Z" fill="#00A1E4"/>
</g>
<g filter="url(#filter5_d_2119_5410)">
<path d="M709.063 624.884H695.085L692.305 621.58C692.212 621.468 692.072 621.405 691.926 621.409H680.655C679.094 621.412 677.773 622.566 677.561 624.113H687.84C688.379 624.112 688.891 624.35 689.237 624.762L691.61 627.584H704.958C707.426 627.588 709.427 629.588 709.431 632.057V647.96C710.996 647.765 712.171 646.435 712.173 644.857V628.009C712.168 626.291 710.781 624.896 709.063 624.884Z" fill="#00A1E4"/>
</g>
<circle opacity="0.4" cx="47.1758" cy="342" r="18" fill="#00A1E4" stroke="#00A1E4" stroke-width="6"/>
<path opacity="0.4" d="M686.497 271.189C686.497 297.11 665.669 318.08 640.029 318.08C614.389 318.08 593.561 297.11 593.561 271.189C593.561 245.268 614.389 224.298 640.029 224.298C665.669 224.298 686.497 245.268 686.497 271.189Z" fill="#00A1E4" stroke="#00A1E4" stroke-width="6"/>
<g filter="url(#filter6_d_2119_5410)">
<path opacity="0.7" d="M655.967 262.683L648.115 260.439L645.871 252.587H630.166C628.307 252.587 626.801 254.094 626.801 255.952V287.512C626.801 289.37 628.307 290.877 630.166 290.877H652.602C654.46 290.877 655.967 289.37 655.967 287.512V262.683Z" fill="white"/>
<path d="M655.966 262.682V287.511C655.966 289.369 654.459 290.876 652.601 290.876H641.383V252.586H645.87L648.114 260.438L655.966 262.682Z" fill="white"/>
<path d="M655.967 262.682H648.115C646.881 262.682 645.871 261.672 645.871 260.438V252.586C646.163 252.586 646.454 252.698 646.656 252.923L655.631 261.897C655.855 262.099 655.967 262.39 655.967 262.682Z" fill="white"/>
<path d="M648.114 270.61H634.653C634.033 270.61 633.531 270.108 633.531 269.488C633.531 268.868 634.033 268.366 634.653 268.366H648.114C648.735 268.366 649.236 268.868 649.236 269.488C649.236 270.108 648.735 270.61 648.114 270.61Z" fill="#49A3FE"/>
<path d="M648.114 275.096H634.653C634.033 275.096 633.531 274.594 633.531 273.974C633.531 273.354 634.033 272.853 634.653 272.853H648.114C648.735 272.853 649.236 273.354 649.236 273.974C649.236 274.594 648.735 275.096 648.114 275.096Z" fill="#49A3FE"/>
<path d="M648.114 279.583H634.653C634.033 279.583 633.531 279.082 633.531 278.462C633.531 277.842 634.033 277.34 634.653 277.34H648.114C648.735 277.34 649.236 277.842 649.236 278.462C649.236 279.082 648.735 279.583 648.114 279.583Z" fill="#49A3FE"/>
<path d="M643.627 284.071H634.653C634.033 284.071 633.531 283.569 633.531 282.949C633.531 282.329 634.033 281.827 634.653 281.827H643.627C644.247 281.827 644.749 282.329 644.749 282.949C644.749 283.569 644.247 284.071 643.627 284.071Z" fill="#49A3FE"/>
</g>
<g clip-path="url(#clip0_2119_5410)">
<path d="M514.602 669.844C513.292 669.844 511.965 669.491 510.806 668.787L488 655.132L489.377 652.834L512.183 666.489C513.661 667.378 515.508 667.378 516.986 666.522L554.101 644.832C554.689 644.48 555.041 643.876 555.025 643.188C555.008 642.501 554.638 641.913 554.051 641.578L504.576 615.124L505.835 612.759L555.31 639.213C556.788 640.001 557.678 641.461 557.712 643.138C557.745 644.816 556.889 646.308 555.461 647.147L518.347 668.837C517.188 669.508 515.895 669.844 514.602 669.844Z" fill="#B2D3EA"/>
<path d="M422.352 875C420.74 875 419.128 874.597 417.683 873.792L326.66 823.182C325.317 822.444 324.51 821.068 324.51 819.542C324.51 817.999 325.3 816.64 326.643 815.885L367.839 792.685C368.494 792.316 368.561 791.696 368.561 791.444C368.561 791.192 368.494 790.572 367.839 790.203L322.008 763.917C320.749 763.195 319.976 761.887 319.943 760.444C319.909 759.002 320.631 757.66 321.857 756.888L340.582 745.045L342.027 747.309L323.301 759.153C322.68 759.538 322.63 760.142 322.63 760.394C322.63 760.629 322.714 761.233 323.352 761.602L369.182 787.888C370.476 788.643 371.248 789.968 371.248 791.461C371.248 792.954 370.459 794.296 369.166 795.017L327.97 818.217C327.281 818.603 327.214 819.274 327.214 819.525C327.214 819.794 327.298 820.448 327.987 820.834L419.01 871.443C421.176 872.651 423.847 872.601 425.963 871.309L460.575 850.055C460.844 849.888 460.894 849.636 460.894 849.502C460.894 849.384 460.861 849.116 460.575 848.932L435.535 833.717L436.929 831.419L461.986 846.633C462.993 847.237 463.598 848.311 463.598 849.485C463.598 850.659 463.01 851.716 462.003 852.337L427.39 873.59C425.812 874.547 424.082 875 422.352 875Z" fill="#B2D3EA"/>
<path d="M461.667 671.237L417.785 645.924C415.098 644.364 415.434 641.663 418.541 639.868L460.912 615.427C464.019 613.632 468.721 613.431 471.425 614.991L515.307 640.304C517.994 641.864 517.658 644.565 514.552 646.36L472.18 670.801C469.074 672.596 464.354 672.78 461.667 671.237Z" fill="#B2D3EA"/>
<path d="M529.851 621.029V602.09L487.346 602.073L472.651 593.602C469.275 591.656 463.381 591.908 459.501 594.139L445.797 602.04L403.241 602.023V621.498C403.141 622.807 403.88 624.082 405.509 625.021L460.458 656.709C463.834 658.655 469.729 658.403 473.608 656.172L526.66 625.575C528.894 624.266 529.985 622.589 529.851 621.029Z" fill="#029EE1"/>
<path d="M466.537 592.294C464.068 592.361 461.516 592.982 459.484 594.139L445.78 602.04L403.224 602.023V621.499C403.123 622.807 403.862 624.082 405.491 625.022L460.441 656.709C462.053 657.649 464.27 658.068 466.554 658.018V592.294H466.537Z" fill="#029EE1"/>
<path d="M408.044 602.023H403.224V621.499C403.123 622.807 403.862 624.082 405.491 625.022L408.044 626.498V602.023Z" fill="#4CC5F8"/>
<path d="M461.281 657.111C464.187 658.353 468.402 658.286 471.794 656.994V634.885H461.281V657.111Z" fill="#4CC5F8"/>
<path d="M460.441 637.301L405.491 605.613C402.116 603.667 402.536 600.279 406.432 598.031L459.484 567.433C463.38 565.186 469.275 564.951 472.634 566.897L527.583 598.584C530.959 600.53 530.539 603.919 526.643 606.167L473.591 636.764C469.695 638.995 463.817 639.247 460.441 637.301Z" fill="#D4ECFF"/>
<path d="M461.433 631.597L415.384 605.042C412.562 603.415 412.915 600.564 416.173 598.685L460.627 573.036C463.885 571.157 468.822 570.956 471.66 572.583L517.709 599.138C520.531 600.765 520.178 603.617 516.92 605.495L472.466 631.144C469.192 633.023 464.254 633.224 461.433 631.597Z" fill="#4CC5F8"/>
<path d="M509.648 626.028C509.648 627.437 508.658 629.164 507.432 629.869C506.206 630.574 505.215 630.003 505.215 628.594C505.215 627.185 506.206 625.457 507.432 624.753C508.658 624.031 509.648 624.618 509.648 626.028Z" fill="#D4ECFF"/>
<path d="M516.785 621.901C516.785 623.31 515.794 625.038 514.568 625.742C513.342 626.447 512.352 625.877 512.352 624.468C512.352 623.058 513.342 621.331 514.568 620.626C515.794 619.922 516.785 620.492 516.785 621.901Z" fill="#D4ECFF"/>
<path d="M523.924 617.791C523.924 619.2 522.933 620.928 521.707 621.633C520.481 622.337 519.49 621.767 519.49 620.358C519.49 618.949 520.481 617.221 521.707 616.516C522.933 615.795 523.924 616.382 523.924 617.791Z" fill="#D4ECFF"/>
<path d="M529.851 590.767V571.828L487.346 571.811L472.651 563.34C469.275 561.394 463.381 561.646 459.501 563.877L445.797 571.778L403.241 571.761V591.237C403.141 592.545 403.88 593.82 405.509 594.759L460.458 626.447C463.834 628.393 469.729 628.141 473.608 625.91L526.66 595.313C528.894 594.005 529.985 592.327 529.851 590.767Z" fill="#029EE1"/>
<path d="M466.537 562.032C464.068 562.099 461.516 562.72 459.484 563.877L445.78 571.778L403.224 571.762V591.237C403.123 592.546 403.862 593.821 405.491 594.76L460.441 626.448C462.053 627.387 464.27 627.806 466.554 627.756V562.032H466.537Z" fill="#029EE1"/>
<path d="M408.044 571.762H403.224V591.237C403.123 592.546 403.862 593.821 405.491 594.76L408.044 596.236V571.762Z" fill="#4CC5F8"/>
<path d="M461.281 626.85C464.187 628.091 468.402 628.024 471.794 626.732V604.623H461.281V626.85Z" fill="#4CC5F8"/>
<path d="M460.441 607.039L405.491 575.351C402.116 573.405 402.536 570.017 406.432 567.769L459.484 537.172C463.38 534.924 469.275 534.689 472.634 536.635L527.583 568.323C530.959 570.268 530.539 573.657 526.643 575.905L473.591 606.502C469.695 608.733 463.817 608.985 460.441 607.039Z" fill="#D4ECFF"/>
<path d="M461.433 601.335L415.384 574.781C412.562 573.154 412.915 570.302 416.173 568.423L460.627 542.774C463.885 540.896 468.822 540.694 471.66 542.321L517.709 568.876C520.531 570.503 520.178 573.355 516.92 575.234L472.466 600.882C469.192 602.761 464.254 602.962 461.433 601.335Z" fill="#4CC5F8"/>
<path d="M509.648 595.766C509.648 597.175 508.658 598.903 507.432 599.607C506.206 600.312 505.215 599.741 505.215 598.332C505.215 596.923 506.206 595.195 507.432 594.491C508.658 593.77 509.648 594.357 509.648 595.766Z" fill="#D4ECFF"/>
<path d="M516.785 591.639C516.785 593.048 515.794 594.776 514.568 595.481C513.342 596.185 512.352 595.615 512.352 594.206C512.352 592.797 513.342 591.069 514.568 590.364C515.794 589.66 516.785 590.23 516.785 591.639Z" fill="#D4ECFF"/>
<path d="M523.924 587.53C523.924 588.939 522.933 590.666 521.707 591.371C520.481 592.075 519.49 591.505 519.49 590.096C519.49 588.687 520.481 586.959 521.707 586.255C522.933 585.533 523.924 586.12 523.924 587.53Z" fill="#D4ECFF"/>
<path d="M529.851 560.505V541.567L487.346 541.55L472.651 533.078C469.275 531.133 463.381 531.384 459.501 533.615L445.797 541.516L403.241 541.499V560.975C403.141 562.283 403.88 563.558 405.509 564.498L460.458 596.185C463.834 598.131 469.729 597.88 473.608 595.649L526.66 565.051C528.894 563.743 529.985 562.065 529.851 560.505Z" fill="#029EE1"/>
<path d="M466.537 531.771C464.068 531.838 461.516 532.458 459.484 533.616L445.78 541.517L403.224 541.5V560.976C403.123 562.284 403.862 563.559 405.491 564.498L460.441 596.186C462.053 597.125 464.27 597.545 466.554 597.494V531.771H466.537Z" fill="#029EE1"/>
<path d="M408.044 541.5H403.224V560.976C403.123 562.284 403.862 563.559 405.491 564.498L408.044 565.974V541.5Z" fill="#4CC5F8"/>
<path d="M461.281 596.588C464.187 597.829 468.402 597.762 471.794 596.471V574.361H461.281V596.588Z" fill="#4CC5F8"/>
<path d="M460.441 576.777L405.491 545.09C402.116 543.144 402.536 539.755 406.432 537.507L459.484 506.91C463.38 504.662 469.275 504.427 472.634 506.373L527.583 538.061C530.959 540.007 530.539 543.395 526.643 545.643L473.591 576.24C469.695 578.471 463.817 578.723 460.441 576.777Z" fill="#D4ECFF"/>
<path d="M526.659 541.902L473.607 572.499C469.711 574.747 463.816 574.982 460.458 573.036L405.491 541.365C404.735 540.929 404.181 540.426 403.812 539.872C402.653 541.734 403.174 543.747 405.491 545.089L460.441 576.777C463.816 578.723 469.711 578.471 473.591 576.24L526.643 545.643C529.666 543.898 530.589 541.466 529.262 539.554C528.759 540.376 527.869 541.198 526.659 541.902Z" fill="white"/>
<path d="M509.648 565.504C509.648 566.913 508.658 568.641 507.432 569.346C506.206 570.05 505.215 569.48 505.215 568.071C505.215 566.662 506.206 564.934 507.432 564.229C508.658 563.508 509.648 564.078 509.648 565.504Z" fill="#D4ECFF"/>
<path d="M516.785 561.378C516.785 562.787 515.794 564.515 514.568 565.219C513.342 565.924 512.352 565.353 512.352 563.944C512.352 562.535 513.342 560.807 514.568 560.103C515.794 559.398 516.785 559.969 516.785 561.378Z" fill="#D4ECFF"/>
<path d="M523.924 557.268C523.924 558.677 522.933 560.405 521.707 561.109C520.481 561.814 519.49 561.244 519.49 559.834C519.49 558.425 520.481 556.698 521.707 555.993C522.933 555.272 523.924 555.842 523.924 557.268Z" fill="#D4ECFF"/>
<path d="M463.683 557.133L437.971 542.304C436.393 541.399 436.594 539.805 438.408 538.748L463.229 524.422C465.06 523.366 467.814 523.265 469.393 524.171L495.104 539C496.683 539.906 496.481 541.499 494.668 542.556L469.846 556.882C468.016 557.922 465.261 558.039 463.683 557.133Z" fill="#4CC5F8"/>
<path d="M466.152 544.703L462.592 542.657C462.374 542.539 462.407 542.305 462.659 542.17L466.102 540.191C466.354 540.04 466.74 540.023 466.958 540.157L470.519 542.204C470.737 542.338 470.704 542.556 470.452 542.69L467.009 544.67C466.757 544.821 466.371 544.838 466.152 544.703Z" fill="#D4ECFF"/>
<path d="M437.971 542.305L438.038 542.338C438.156 542.254 438.274 542.171 438.408 542.087L463.229 527.761C465.06 526.704 467.814 526.604 469.393 527.509L495.037 542.288C496.498 541.248 496.565 539.839 495.104 538.983L469.393 524.154C467.814 523.249 465.06 523.366 463.229 524.406L438.408 538.732C436.594 539.805 436.393 541.382 437.971 542.305Z" fill="#029EE1"/>
<path d="M362.834 762.039L267.999 708.024C264.523 706.027 264.959 702.521 268.973 700.223L323.537 668.754C327.534 666.439 333.596 666.187 337.072 668.2L431.908 722.215C435.384 724.211 434.948 727.717 430.934 730.015L376.37 761.485C372.357 763.783 366.294 764.035 362.834 762.039Z" fill="#B2D3EA"/>
<path d="M440.354 704.015V482.872L352.337 459.857L336.131 450.513C332.403 448.366 325.904 448.634 321.621 451.117L306.49 459.84L259.551 459.806L273.456 673.3C273.355 674.759 274.162 676.152 275.942 677.192L363.774 743.385C367.502 745.532 374.002 745.264 378.284 742.781L436.828 709.03C439.296 707.588 440.489 705.742 440.354 704.015Z" fill="#029EE1"/>
<path d="M329.382 449.07C326.661 449.137 323.84 449.825 321.606 451.117L306.475 459.84L259.536 459.806V681.553C259.435 683.012 260.241 684.405 262.021 685.445L363.759 743.385C365.539 744.408 367.974 744.878 370.493 744.828L371.535 521.689L329.382 449.07Z" fill="#D4ECFF"/>
<path d="M364.699 743.838C367.907 745.213 372.559 745.129 376.304 743.703V519.055H364.699V743.838Z" fill="#4CC5F8"/>
<path d="M363.758 521.722L262.02 463.782C258.292 461.634 258.762 457.894 263.061 455.411L321.605 421.66C325.904 419.177 332.404 418.909 336.115 421.056L437.853 478.996C441.581 481.144 441.111 484.884 436.812 487.367L378.285 521.118C373.986 523.584 367.486 523.852 363.758 521.722Z" fill="#D4ECFF"/>
<path d="M436.812 483.241L378.285 517.009C373.985 519.491 367.486 519.76 363.775 517.613L262.037 459.672C261.214 459.186 260.593 458.632 260.173 458.028C258.897 460.075 259.468 462.306 262.037 463.782L363.775 521.722C367.503 523.87 374.002 523.601 378.285 521.119L436.828 487.368C440.17 485.438 441.178 482.754 439.734 480.641C439.129 481.563 438.172 482.469 436.812 483.241Z" fill="#FAFDFF"/>
<path d="M366.646 498.238L298.916 459.018C297.169 458.012 297.388 456.267 299.403 455.093L326.794 439.291C328.809 438.133 331.849 437.999 333.579 439.006L401.309 478.225C403.055 479.232 402.837 480.976 400.822 482.15L373.431 497.952C371.415 499.11 368.376 499.227 366.646 498.238Z" fill="#17779F"/>
<path d="M330.069 460.779L326.139 458.515C325.904 458.381 325.921 458.129 326.207 457.978L330.002 455.797C330.288 455.629 330.707 455.613 330.943 455.764L334.872 458.028C335.107 458.162 335.091 458.414 334.805 458.565L331.01 460.746C330.741 460.897 330.321 460.914 330.069 460.779Z" fill="#D4ECFF"/>
<path d="M343.185 468.312L339.255 466.047C339.02 465.913 339.036 465.661 339.322 465.51L343.117 463.329C343.403 463.162 343.823 463.145 344.058 463.296L347.988 465.56C348.223 465.695 348.206 465.946 347.92 466.097L344.125 468.278C343.839 468.429 343.42 468.446 343.185 468.312Z" fill="#D4ECFF"/>
<path d="M356.302 475.826L352.372 473.562C352.137 473.427 352.154 473.176 352.439 473.025L356.234 470.844C356.52 470.676 356.94 470.66 357.175 470.811L361.105 473.075C361.34 473.209 361.323 473.461 361.038 473.612L357.242 475.793C356.957 475.96 356.537 475.977 356.302 475.826Z" fill="#D4ECFF"/>
<path d="M369.417 483.358L365.487 481.094C365.252 480.96 365.269 480.708 365.554 480.557L369.35 478.376C369.635 478.209 370.055 478.192 370.29 478.343L374.22 480.607C374.455 480.742 374.438 480.993 374.153 481.144L370.357 483.325C370.072 483.493 369.652 483.509 369.417 483.358Z" fill="#D4ECFF"/>
<path d="M298.9 459.018L298.984 459.068C299.118 458.968 299.236 458.884 299.387 458.783L326.778 442.981C328.793 441.824 331.833 441.69 333.563 442.696L401.225 481.865C402.838 480.725 402.922 479.148 401.309 478.225L333.579 439.006C331.833 437.999 328.793 438.133 326.795 439.291L299.404 455.093C297.388 456.25 297.17 458.011 298.9 459.018Z" fill="#4CC5F8"/>
<path d="M389.705 565.538L428.214 543.513C430.38 542.254 432.143 538.916 432.143 536.031V522.276C432.143 519.39 430.38 518.065 428.214 519.306L389.705 541.332C387.539 542.573 385.775 545.928 385.775 548.813V562.569C385.792 565.454 387.539 566.779 389.705 565.538Z" fill="#17779F"/>
<path d="M430.128 518.887C430.732 519.457 431.118 520.43 431.118 521.755V535.511C431.118 538.396 429.355 541.751 427.189 542.992L388.68 565.018C387.992 565.42 387.337 565.521 386.766 565.437C387.488 566.108 388.529 566.209 389.705 565.538L428.213 543.512C430.379 542.271 432.143 538.916 432.143 536.031V522.275C432.143 520.296 431.32 519.088 430.128 518.887Z" fill="white"/>
<path d="M401.294 550.591L404.821 548.562C405.291 548.293 405.677 547.555 405.677 546.935V543.16C405.677 542.523 405.291 542.238 404.821 542.506L401.294 544.536C400.824 544.804 400.438 545.542 400.438 546.163V549.937C400.438 550.575 400.824 550.86 401.294 550.591Z" fill="#029EE1"/>
<path d="M413.101 543.781L416.627 541.751C417.098 541.483 417.484 540.745 417.484 540.124V536.333C417.484 535.696 417.098 535.41 416.627 535.679L413.101 537.709C412.63 537.977 412.244 538.715 412.244 539.336V543.11C412.261 543.764 412.63 544.049 413.101 543.781Z" fill="white"/>
<path d="M389.705 664.945L428.214 642.92C430.38 641.662 432.143 638.323 432.143 635.438V621.683C432.143 618.798 430.38 617.472 428.214 618.714L389.705 640.739C387.539 641.997 385.775 645.335 385.775 648.221V661.976C385.792 664.861 387.539 666.186 389.705 664.945Z" fill="#17779F"/>
<path d="M430.128 618.294C430.732 618.864 431.118 619.837 431.118 621.162V634.918C431.118 637.803 429.355 641.158 427.189 642.399L388.68 664.425C387.992 664.827 387.337 664.928 386.766 664.844C387.488 665.515 388.529 665.616 389.705 664.945L428.213 642.919C430.379 641.678 432.143 638.323 432.143 635.438V621.682C432.143 619.703 431.32 618.495 430.128 618.294Z" fill="white"/>
<path d="M401.294 649.999L404.821 647.969C405.291 647.7 405.677 646.962 405.677 646.342V642.567C405.677 641.93 405.291 641.645 404.821 641.93L401.294 643.96C400.824 644.228 400.438 644.966 400.438 645.587V649.361C400.438 649.982 400.824 650.267 401.294 649.999Z" fill="#029EE1"/>
<path d="M413.101 643.188L416.627 641.158C417.098 640.89 417.484 640.152 417.484 639.531V635.757C417.484 635.119 417.098 634.834 416.627 635.119L413.101 637.149C412.63 637.418 412.244 638.156 412.244 638.776V642.551C412.261 643.171 412.63 643.457 413.101 643.188Z" fill="#029EE1"/>
<path d="M389.705 714.649L428.214 692.624C430.38 691.366 432.143 688.028 432.143 685.142V671.387C432.143 668.502 430.38 667.176 428.214 668.418L389.705 690.443C387.539 691.684 385.775 695.039 385.775 697.925V711.68C385.792 714.565 387.539 715.891 389.705 714.649Z" fill="#17779F"/>
<path d="M430.128 667.998C430.732 668.568 431.118 669.541 431.118 670.867V684.622C431.118 687.507 429.355 690.862 427.189 692.103L388.68 714.129C387.992 714.531 387.337 714.632 386.766 714.548C387.488 715.219 388.529 715.32 389.705 714.649L428.213 692.624C430.379 691.382 432.143 688.027 432.143 685.142V671.387C432.143 669.407 431.32 668.199 430.128 667.998Z" fill="white"/>
<path d="M401.294 699.703L404.821 697.673C405.291 697.405 405.677 696.667 405.677 696.046V692.272C405.677 691.634 405.291 691.349 404.821 691.634L401.294 693.664C400.824 693.932 400.438 694.67 400.438 695.291V699.049C400.438 699.686 400.824 699.971 401.294 699.703Z" fill="white"/>
<path d="M413.101 692.892L416.627 690.862C417.098 690.594 417.484 689.856 417.484 689.235V685.461C417.484 684.823 417.098 684.538 416.627 684.824L413.101 686.853C412.63 687.122 412.244 687.86 412.244 688.48V692.255C412.261 692.875 412.63 693.161 413.101 692.892Z" fill="#029EE1"/>
<path d="M389.705 615.242L428.214 593.217C430.38 591.959 432.143 588.62 432.143 585.735V571.98C432.143 569.094 430.38 567.769 428.214 569.011L389.705 591.019C387.539 592.261 385.775 595.615 385.775 598.501V612.256C385.792 615.158 387.539 616.483 389.705 615.242Z" fill="#17779F"/>
<path d="M430.128 568.591C430.732 569.161 431.118 570.134 431.118 571.459V585.215C431.118 588.1 429.355 591.455 427.189 592.696L388.68 614.722C387.992 615.124 387.337 615.225 386.766 615.141C387.488 615.812 388.529 615.913 389.705 615.242L428.213 593.216C430.379 591.975 432.143 588.62 432.143 585.735V571.979C432.143 570 431.32 568.792 430.128 568.591Z" fill="white"/>
<path d="M401.294 600.296L404.821 598.266C405.291 597.997 405.677 597.259 405.677 596.639V592.864C405.677 592.227 405.291 591.942 404.821 592.227L401.294 594.257C400.824 594.525 400.438 595.263 400.438 595.884V599.658C400.438 600.279 400.824 600.564 401.294 600.296Z" fill="white"/>
<path d="M413.101 593.485L416.627 591.455C417.098 591.187 417.484 590.449 417.484 589.828V586.054C417.484 585.416 417.098 585.131 416.627 585.4L413.101 587.429C412.63 587.698 412.244 588.436 412.244 589.056V592.831C412.261 593.468 412.63 593.753 413.101 593.485Z" fill="white"/>
<path d="M356.351 551.447L267.494 500.2C265.513 499.059 263.9 495.972 263.9 493.322V476.396C263.9 473.746 265.513 472.538 267.494 473.679L356.351 524.926C358.333 526.066 359.945 529.153 359.945 531.803V548.729C359.962 551.38 358.35 552.587 356.351 551.447Z" fill="#4CC5F8"/>
<path opacity="0.4" d="M353.799 545.509L270.047 497.214C269.04 496.627 268.217 495.067 268.217 493.725V481.009C268.217 479.667 269.04 479.047 270.047 479.634L353.799 527.929C354.806 528.516 355.629 530.076 355.629 531.418V544.133C355.629 545.475 354.806 546.096 353.799 545.509Z" fill="#D4ECFF"/>
<path d="M287.513 500.854L275.018 493.641C274.044 493.071 273.238 491.561 273.238 490.252C273.238 488.944 274.028 488.34 275.018 488.91L287.513 496.124C288.487 496.694 289.293 498.204 289.293 499.512C289.277 500.82 288.487 501.408 287.513 500.854Z" fill="#D4ECFF"/>
<path d="M298.16 504.628C298.16 505.937 297.237 506.457 296.111 505.803C294.986 505.149 294.062 503.572 294.062 502.263C294.062 500.955 294.986 500.435 296.111 501.089C297.237 501.743 298.16 503.32 298.16 504.628Z" fill="#17779F"/>
<path d="M305.381 508.789C305.381 510.097 304.457 510.617 303.332 509.963C302.207 509.309 301.283 507.732 301.283 506.423C301.283 505.115 302.207 504.595 303.332 505.249C304.457 505.903 305.381 507.497 305.381 508.789Z" fill="#17779F"/>
<path d="M312.604 512.965C312.604 514.274 311.68 514.794 310.555 514.14C309.43 513.485 308.506 511.909 308.506 510.6C308.506 509.292 309.43 508.772 310.555 509.426C311.697 510.08 312.604 511.657 312.604 512.965Z" fill="#D4ECFF"/>
<path d="M319.842 517.126C319.842 518.434 318.918 518.954 317.793 518.3C316.668 517.646 315.744 516.069 315.744 514.76C315.744 513.452 316.668 512.932 317.793 513.586C318.918 514.24 319.842 515.834 319.842 517.126Z" fill="#17779F"/>
<path d="M350.271 538.429L346.056 535.997C345.435 535.628 344.914 534.655 344.914 533.816V529.371C344.914 528.532 345.418 528.146 346.056 528.515L350.271 530.947C350.893 531.316 351.413 532.289 351.413 533.128V537.574C351.413 538.412 350.909 538.798 350.271 538.429Z" fill="#17779F"/>
<path d="M356.351 581.29L267.494 530.042C265.513 528.902 263.9 525.815 263.9 523.165V506.239C263.9 503.588 265.513 502.381 267.494 503.521L356.351 554.768C358.333 555.909 359.945 558.996 359.945 561.646V578.572C359.962 581.222 358.35 582.43 356.351 581.29Z" fill="#4CC5F8"/>
<path opacity="0.4" d="M353.799 575.351L270.047 527.057C269.04 526.469 268.217 524.909 268.217 523.567V510.852C268.217 509.51 269.04 508.889 270.047 509.476L353.799 557.771C354.806 558.358 355.629 559.918 355.629 561.26V573.976C355.629 575.318 354.806 575.938 353.799 575.351Z" fill="#D4ECFF"/>
<path d="M287.513 530.697L275.018 523.484C274.044 522.913 273.238 521.404 273.238 520.095C273.238 518.787 274.028 518.183 275.018 518.753L287.513 525.966C288.487 526.537 289.293 528.046 289.293 529.355C289.277 530.663 288.487 531.25 287.513 530.697Z" fill="#D4ECFF"/>
<path d="M298.16 534.471C298.16 535.78 297.237 536.3 296.111 535.645C294.986 534.991 294.062 533.414 294.062 532.106C294.062 530.798 294.986 530.278 296.111 530.932C297.237 531.586 298.16 533.163 298.16 534.471Z" fill="white"/>
<path d="M305.381 538.631C305.381 539.94 304.457 540.46 303.332 539.806C302.207 539.151 301.283 537.575 301.283 536.266C301.283 534.958 302.207 534.438 303.332 535.092C304.457 535.746 305.381 537.34 305.381 538.631Z" fill="#17779F"/>
<path d="M312.604 542.808C312.604 544.117 311.68 544.637 310.555 543.982C309.43 543.328 308.506 541.751 308.506 540.443C308.506 539.134 309.43 538.614 310.555 539.269C311.697 539.923 312.604 541.5 312.604 542.808Z" fill="#D4ECFF"/>
<path d="M319.842 546.968C319.842 548.277 318.918 548.797 317.793 548.143C316.668 547.488 315.744 545.911 315.744 544.603C315.744 543.295 316.668 542.775 317.793 543.429C318.918 544.083 319.842 545.677 319.842 546.968Z" fill="#17779F"/>
<path d="M350.271 568.272L346.056 565.839C345.435 565.47 344.914 564.497 344.914 563.659V559.213C344.914 558.375 345.418 557.989 346.056 558.358L350.271 560.79C350.893 561.159 351.413 562.132 351.413 562.971V567.416C351.413 568.255 350.909 568.641 350.271 568.272Z" fill="#17779F"/>
<path d="M356.351 611.132L267.494 559.885C265.513 558.744 263.9 555.658 263.9 553.007V536.082C263.9 533.431 265.513 532.223 267.494 533.364L356.351 584.611C358.333 585.752 359.945 588.839 359.945 591.489V608.415C359.962 611.065 358.35 612.273 356.351 611.132Z" fill="#4CC5F8"/>
<path opacity="0.4" d="M353.799 605.194L270.047 556.899C269.04 556.312 268.217 554.752 268.217 553.41V540.695C268.217 539.353 269.04 538.732 270.047 539.319L353.799 587.614C354.806 588.201 355.629 589.761 355.629 591.103V603.819C355.629 605.161 354.806 605.781 353.799 605.194Z" fill="#D4ECFF"/>
<path d="M287.513 560.54L275.018 553.326C274.044 552.756 273.238 551.246 273.238 549.938C273.238 548.629 274.028 548.026 275.018 548.596L287.513 555.809C288.487 556.379 289.293 557.889 289.293 559.198C289.277 560.506 288.487 561.093 287.513 560.54Z" fill="#D4ECFF"/>
<path d="M298.16 564.314C298.16 565.622 297.237 566.142 296.111 565.488C294.986 564.834 294.062 563.257 294.062 561.949C294.062 560.64 294.986 560.12 296.111 560.775C297.237 561.429 298.16 563.006 298.16 564.314Z" fill="white"/>
<path d="M305.381 568.474C305.381 569.783 304.457 570.303 303.332 569.648C302.207 568.994 301.283 567.417 301.283 566.109C301.283 564.8 302.207 564.28 303.332 564.935C304.457 565.589 305.381 567.183 305.381 568.474Z" fill="#17779F"/>
<path d="M312.604 572.651C312.604 573.959 311.68 574.479 310.555 573.825C309.43 573.171 308.506 571.594 308.506 570.286C308.506 568.977 309.43 568.457 310.555 569.111C311.697 569.766 312.604 571.342 312.604 572.651Z" fill="#D4ECFF"/>
<path d="M319.842 576.811C319.842 578.12 318.918 578.64 317.793 577.985C316.668 577.331 315.744 575.754 315.744 574.446C315.744 573.137 316.668 572.617 317.793 573.272C318.918 573.926 319.842 575.519 319.842 576.811Z" fill="#17779F"/>
<path d="M350.271 598.115L346.056 595.682C345.435 595.313 344.914 594.34 344.914 593.502V589.056C344.914 588.217 345.418 587.832 346.056 588.201L350.271 590.633C350.893 591.002 351.413 591.975 351.413 592.814V597.259C351.413 598.098 350.909 598.484 350.271 598.115Z" fill="#17779F"/>
<path d="M356.351 640.974L267.494 589.727C265.513 588.586 263.9 585.5 263.9 582.849V565.923C263.9 563.273 265.513 562.065 267.494 563.206L356.351 614.453C358.333 615.594 359.945 618.68 359.945 621.331V638.257C359.962 640.907 358.35 642.115 356.351 640.974Z" fill="#4CC5F8"/>
<path opacity="0.4" d="M353.799 635.036L270.047 586.741C269.04 586.154 268.217 584.594 268.217 583.252V570.537C268.217 569.195 269.04 568.574 270.047 569.161L353.799 617.456C354.806 618.043 355.629 619.603 355.629 620.945V633.66C355.629 635.002 354.806 635.623 353.799 635.036Z" fill="#D4ECFF"/>
<path d="M287.513 590.381L275.018 583.168C274.044 582.598 273.238 581.088 273.238 579.78C273.238 578.471 274.028 577.867 275.018 578.438L287.513 585.651C288.487 586.221 289.293 587.731 289.293 589.039C289.277 590.348 288.487 590.935 287.513 590.381Z" fill="#D4ECFF"/>
<path d="M298.16 594.156C298.16 595.464 297.237 595.984 296.111 595.33C294.986 594.676 294.062 593.099 294.062 591.791C294.062 590.482 294.986 589.962 296.111 590.616C297.237 591.271 298.16 592.847 298.16 594.156Z" fill="#17779F"/>
<path d="M305.381 598.316C305.381 599.624 304.457 600.144 303.332 599.49C302.207 598.836 301.283 597.259 301.283 595.951C301.283 594.642 302.207 594.122 303.332 594.776C304.457 595.431 305.381 597.024 305.381 598.316Z" fill="#17779F"/>
<path d="M312.604 602.493C312.604 603.801 311.68 604.321 310.555 603.667C309.43 603.013 308.506 601.436 308.506 600.127C308.506 598.819 309.43 598.299 310.555 598.953C311.697 599.607 312.604 601.184 312.604 602.493Z" fill="#D4ECFF"/>
<path d="M319.842 606.653C319.842 607.961 318.918 608.481 317.793 607.827C316.668 607.173 315.744 605.596 315.744 604.288C315.744 602.979 316.668 602.459 317.793 603.113C318.918 603.768 319.842 605.361 319.842 606.653Z" fill="#17779F"/>
<path d="M350.271 627.956L346.056 625.524C345.435 625.155 344.914 624.182 344.914 623.343V618.898C344.914 618.059 345.418 617.673 346.056 618.042L350.271 620.475C350.893 620.844 351.413 621.817 351.413 622.656V627.101C351.413 627.94 350.909 628.325 350.271 627.956Z" fill="#D4ECFF"/>
<path d="M356.351 670.817L267.494 619.57C265.513 618.429 263.9 615.342 263.9 612.692V595.766C263.9 593.116 265.513 591.908 267.494 593.049L356.351 644.296C358.333 645.437 359.945 648.523 359.945 651.174V668.099C359.962 670.75 358.35 671.958 356.351 670.817Z" fill="#4CC5F8"/>
<path opacity="0.4" d="M353.799 664.879L270.047 616.584C269.04 615.997 268.217 614.437 268.217 613.095V600.379C268.217 599.037 269.04 598.417 270.047 599.004L353.799 647.299C354.806 647.886 355.629 649.446 355.629 650.788V663.503C355.629 664.845 354.806 665.466 353.799 664.879Z" fill="#D4ECFF"/>
<path d="M287.513 620.224L275.018 613.011C274.044 612.441 273.238 610.931 273.238 609.622C273.238 608.314 274.028 607.71 275.018 608.28L287.513 615.494C288.487 616.064 289.293 617.574 289.293 618.882C289.277 620.191 288.487 620.778 287.513 620.224Z" fill="#D4ECFF"/>
<path d="M298.16 623.999C298.16 625.307 297.237 625.827 296.111 625.173C294.986 624.519 294.062 622.942 294.062 621.633C294.062 620.325 294.986 619.805 296.111 620.459C297.237 621.113 298.16 622.69 298.16 623.999Z" fill="#17779F"/>
<path d="M305.381 628.159C305.381 629.467 304.457 629.987 303.332 629.333C302.207 628.679 301.283 627.102 301.283 625.793C301.283 624.485 302.207 623.965 303.332 624.619C304.457 625.273 305.381 626.867 305.381 628.159Z" fill="white"/>
<path d="M312.604 632.336C312.604 633.644 311.68 634.164 310.555 633.51C309.43 632.856 308.506 631.279 308.506 629.97C308.506 628.662 309.43 628.142 310.555 628.796C311.697 629.45 312.604 631.027 312.604 632.336Z" fill="#D4ECFF"/>
<path d="M319.842 636.496C319.842 637.804 318.918 638.324 317.793 637.67C316.668 637.016 315.744 635.439 315.744 634.13C315.744 632.822 316.668 632.302 317.793 632.956C318.918 633.61 319.842 635.204 319.842 636.496Z" fill="white"/>
<path d="M350.271 657.799L346.056 655.367C345.435 654.998 344.914 654.025 344.914 653.186V648.741C344.914 647.902 345.418 647.516 346.056 647.885L350.271 650.318C350.893 650.687 351.413 651.66 351.413 652.498V656.944C351.413 657.782 350.909 658.168 350.271 657.799Z" fill="#D4ECFF"/>
<path d="M356.351 700.66L267.494 649.412C265.513 648.272 263.9 645.185 263.9 642.535V625.609C263.9 622.959 265.513 621.751 267.494 622.891L356.351 674.139C358.333 675.279 359.945 678.366 359.945 681.016V697.942C359.962 700.593 358.35 701.8 356.351 700.66Z" fill="#4CC5F8"/>
<path opacity="0.4" d="M353.799 694.721L270.047 646.427C269.04 645.84 268.217 644.279 268.217 642.937V630.222C268.217 628.88 269.04 628.259 270.047 628.847L353.799 677.141C354.806 677.729 355.629 679.289 355.629 680.631V693.346C355.629 694.688 354.806 695.309 353.799 694.721Z" fill="#D4ECFF"/>
<path d="M287.513 650.067L275.018 642.854C274.044 642.283 273.238 640.774 273.238 639.465C273.238 638.157 274.028 637.553 275.018 638.123L287.513 645.336C288.487 645.907 289.293 647.417 289.293 648.725C289.277 650.033 288.487 650.621 287.513 650.067Z" fill="#D4ECFF"/>
<path d="M298.16 653.841C298.16 655.15 297.237 655.67 296.111 655.016C294.986 654.361 294.062 652.785 294.062 651.476C294.062 650.168 294.986 649.648 296.111 650.302C297.237 650.956 298.16 652.533 298.16 653.841Z" fill="#17779F"/>
<path d="M305.381 658.002C305.381 659.31 304.457 659.83 303.332 659.176C302.207 658.522 301.283 656.945 301.283 655.636C301.283 654.328 302.207 653.808 303.332 654.462C304.457 655.116 305.381 656.71 305.381 658.002Z" fill="#17779F"/>
<path d="M312.604 662.178C312.604 663.487 311.68 664.007 310.555 663.353C309.43 662.698 308.506 661.121 308.506 659.813C308.506 658.505 309.43 657.985 310.555 658.639C311.697 659.293 312.604 660.87 312.604 662.178Z" fill="#D4ECFF"/>
<path d="M319.842 666.338C319.842 667.647 318.918 668.167 317.793 667.513C316.668 666.858 315.744 665.282 315.744 663.973C315.744 662.665 316.668 662.145 317.793 662.799C318.918 663.453 319.842 665.047 319.842 666.338Z" fill="#17779F"/>
<path d="M350.271 687.642L346.056 685.21C345.435 684.841 344.914 683.868 344.914 683.029V678.584C344.914 677.745 345.418 677.359 346.056 677.728L350.271 680.16C350.893 680.529 351.413 681.502 351.413 682.341V686.786C351.413 687.625 350.909 688.011 350.271 687.642Z" fill="#17779F"/>
<path d="M356.351 730.501L267.494 679.254C265.513 678.114 263.9 675.027 263.9 672.377V655.451C263.9 652.8 265.513 651.593 267.494 652.733L356.351 703.98C358.333 705.121 359.945 708.208 359.945 710.858V727.784C359.962 730.434 358.35 731.642 356.351 730.501Z" fill="#4CC5F8"/>
<path opacity="0.4" d="M353.799 724.563L270.047 676.268C269.04 675.681 268.217 674.121 268.217 672.779V660.064C268.217 658.722 269.04 658.101 270.047 658.688L353.799 706.983C354.806 707.57 355.629 709.13 355.629 710.472V723.188C355.629 724.53 354.806 725.15 353.799 724.563Z" fill="#D4ECFF"/>
<path d="M287.513 679.909L275.018 672.696C274.044 672.125 273.238 670.615 273.238 669.307C273.238 667.999 274.028 667.395 275.018 667.965L287.513 675.178C288.487 675.749 289.293 677.258 289.293 678.567C289.277 679.875 288.487 680.462 287.513 679.909Z" fill="#D4ECFF"/>
<path d="M298.16 683.683C298.16 684.992 297.237 685.512 296.111 684.857C294.986 684.203 294.062 682.626 294.062 681.318C294.062 680.009 294.986 679.489 296.111 680.144C297.237 680.798 298.16 682.375 298.16 683.683Z" fill="white"/>
<path d="M305.381 687.843C305.381 689.152 304.457 689.672 303.332 689.018C302.207 688.363 301.283 686.786 301.283 685.478C301.283 684.17 302.207 683.65 303.332 684.304C304.457 684.958 305.381 686.552 305.381 687.843Z" fill="#17779F"/>
<path d="M312.604 692.02C312.604 693.329 311.68 693.849 310.555 693.194C309.43 692.54 308.506 690.963 308.506 689.655C308.506 688.346 309.43 687.826 310.555 688.481C311.697 689.118 312.604 690.712 312.604 692.02Z" fill="#D4ECFF"/>
<path d="M319.842 696.18C319.842 697.489 318.918 698.009 317.793 697.355C316.668 696.7 315.744 695.123 315.744 693.815C315.744 692.507 316.668 691.987 317.793 692.641C318.918 693.295 319.842 694.889 319.842 696.18Z" fill="#17779F"/>
<path d="M350.271 717.484L346.056 715.051C345.435 714.682 344.914 713.709 344.914 712.871V708.425C344.914 707.587 345.418 707.201 346.056 707.57L350.271 710.002C350.893 710.371 351.413 711.344 351.413 712.183V716.628C351.413 717.467 350.909 717.853 350.271 717.484Z" fill="#D4ECFF"/>
<path d="M330.506 458.666C329.767 458.666 329.162 458.062 329.162 457.324V402.168C329.162 401.43 329.767 400.826 330.506 400.826C331.245 400.826 331.849 401.43 331.849 402.168V457.341C331.849 458.079 331.245 458.666 330.506 458.666Z" fill="#4CC5F8"/>
<path d="M335.308 398.695H325.719V419.379H335.308V398.695Z" fill="#4CC5F8"/>
<path d="M333.899 421.325C332.018 422.399 328.995 422.399 327.114 421.325C325.233 420.251 325.233 418.49 327.114 417.417C328.995 416.343 332.018 416.343 333.899 417.417C335.779 418.507 335.779 420.251 333.899 421.325Z" fill="#4CC5F8"/>
<path d="M338.282 369.859H322.73V402.302H338.282V369.859Z" fill="#4CC5F8"/>
<path d="M325.721 402.101V409.096C328.542 410.387 332.505 410.387 335.31 409.096V402.101C332.489 400.809 328.525 400.809 325.721 402.101Z" fill="#029EE1"/>
<path d="M336.014 405.473C332.974 407.217 328.054 407.217 325.014 405.473C321.974 403.728 321.974 400.876 325.014 399.132C328.054 397.387 332.974 397.387 336.014 399.132C339.037 400.893 339.037 403.728 336.014 405.473Z" fill="#4CC5F8"/>
<path d="M343.623 466.499C342.884 466.499 342.279 465.895 342.279 465.157V409.985C342.279 409.246 342.884 408.643 343.623 408.643C344.362 408.643 344.966 409.246 344.966 409.985V465.157C344.966 465.895 344.362 466.499 343.623 466.499Z" fill="#4CC5F8"/>
<path d="M348.408 406.513H338.818V427.196H348.408V406.513Z" fill="#4CC5F8"/>
<path d="M347.014 429.159C345.133 430.233 342.11 430.233 340.229 429.159C338.348 428.085 338.348 426.324 340.229 425.251C342.11 424.177 345.133 424.177 347.014 425.251C348.895 426.324 348.895 428.069 347.014 429.159Z" fill="#4CC5F8"/>
<path d="M351.397 377.693H335.846V410.136H351.397V377.693Z" fill="#4CC5F8"/>
<path d="M338.818 409.918V416.913C341.64 418.205 345.603 418.205 348.408 416.913V409.918C345.603 408.626 341.64 408.626 338.818 409.918Z" fill="#029EE1"/>
<path d="M349.114 413.29C346.074 415.035 341.153 415.035 338.114 413.29C335.074 411.545 335.074 408.694 338.114 406.949C341.153 405.204 346.074 405.204 349.114 406.949C352.153 408.71 352.153 411.545 349.114 413.29Z" fill="#4CC5F8"/>
<path d="M356.738 474.315C355.999 474.315 355.395 473.712 355.395 472.973V417.801C355.395 417.063 355.999 416.459 356.738 416.459C357.477 416.459 358.082 417.063 358.082 417.801V472.973C358.082 473.712 357.477 474.315 356.738 474.315Z" fill="#4CC5F8"/>
<path d="M361.523 414.329H351.934V435.012H361.523V414.329Z" fill="#4CC5F8"/>
<path d="M360.129 436.975C358.248 438.049 355.225 438.049 353.344 436.975C351.463 435.902 351.463 434.14 353.344 433.067C355.225 431.993 358.248 431.993 360.129 433.067C361.993 434.14 361.993 435.902 360.129 436.975Z" fill="#4CC5F8"/>
<path d="M364.512 385.51H348.961V417.952H364.512V385.51Z" fill="#4CC5F8"/>
<path d="M351.934 417.734V424.73C354.755 426.021 358.718 426.021 361.523 424.73V417.734C358.718 416.46 354.755 416.46 351.934 417.734Z" fill="#029EE1"/>
<path d="M362.229 421.123C359.189 422.868 354.269 422.868 351.229 421.123C348.189 419.378 348.189 416.527 351.229 414.782C354.269 413.037 359.189 413.037 362.229 414.782C365.269 416.527 365.269 419.362 362.229 421.123Z" fill="#4CC5F8"/>
<path d="M369.855 482.133C369.116 482.133 368.512 481.529 368.512 480.791V425.618C368.512 424.88 369.116 424.276 369.855 424.276C370.594 424.276 371.199 424.88 371.199 425.618V480.791C371.199 481.529 370.594 482.133 369.855 482.133Z" fill="#4CC5F8"/>
<path d="M374.64 422.163H365.051V442.846H374.64V422.163Z" fill="#4CC5F8"/>
<path d="M373.246 444.792C371.365 445.865 368.342 445.865 366.461 444.792C364.581 443.718 364.581 441.957 366.461 440.883C368.342 439.81 371.365 439.81 373.246 440.883C375.11 441.957 375.11 443.718 373.246 444.792Z" fill="#4CC5F8"/>
<path d="M377.629 393.327H362.078V425.77H377.629V393.327Z" fill="#4CC5F8"/>
<path d="M365.051 425.552V432.547C367.872 433.839 371.836 433.839 374.64 432.547V425.552C371.836 424.277 367.872 424.277 365.051 425.552Z" fill="#029EE1"/>
<path d="M375.346 428.94C372.307 430.685 367.386 430.685 364.346 428.94C361.306 427.196 361.306 424.344 364.346 422.599C367.386 420.855 372.307 420.855 375.346 422.599C378.386 424.344 378.386 427.196 375.346 428.94Z" fill="#4CC5F8"/>
<path d="M430.8 452.643L451.642 440.381L431.791 415.621L426.568 424.143L430.8 452.643Z" fill="#4CC5F8"/>
<path d="M279.418 316.783L312.687 297.66C312.687 297.66 311.427 316.75 311.427 316.783C311.427 316.817 292.316 322.705 292.316 322.705L279.418 316.783Z" fill="#4CC5F8"/>
<path d="M436.593 390.392C434.057 388.932 431.638 388.077 429.388 387.724C426.029 370.111 413.77 351.407 399.142 342.969C394.742 340.436 390.56 339.077 386.765 338.792C384.766 317.455 369.904 293.181 351.867 282.781C342.446 277.346 333.898 276.708 327.583 280.03V280.013L327.281 280.181C327.113 280.265 326.962 280.365 326.794 280.449L307.178 292.024L313.694 297.174C307.833 299.724 304.139 306.283 304.139 315.978C304.139 333.844 316.701 355.584 332.201 364.525L436.593 438.988C448.231 445.698 457.652 440.263 457.652 426.843C457.652 413.423 448.214 397.102 436.593 390.392Z" fill="#4CC5F8"/>
<path d="M305.098 308.128L350.122 281.842C341.373 277.296 333.479 276.91 327.551 280.03V280.013L327.249 280.181C327.081 280.265 326.93 280.366 326.762 280.45L307.147 292.024L313.663 297.174C309.598 298.969 306.559 302.727 305.098 308.128Z" fill="#4CC5F8"/>
<path d="M388.261 385.443L421.127 366.185C415.484 356.456 407.725 347.951 399.143 342.986C398.001 342.331 396.876 341.761 395.784 341.258L353.984 365.665L388.261 385.443Z" fill="#4CC5F8"/>
<path d="M316.416 294.188L331.06 302.625L357.88 286.857C355.915 285.331 353.917 283.972 351.851 282.781C348.61 280.902 345.47 279.61 342.48 278.855L316.416 294.188Z" fill="#D4ECFF"/>
<path d="M417.498 360.516L391.266 375.948L400.385 386.114L424.199 372.073C422.318 368.031 420.05 364.139 417.498 360.516Z" fill="#D4ECFF"/>
<path d="M415.987 402.52C413.451 401.061 411.033 400.205 408.783 399.853C405.424 382.239 393.164 363.536 378.537 355.098C374.137 352.565 369.955 351.206 366.16 350.921C364.161 329.583 349.298 305.31 331.262 294.91C311.865 283.721 296.129 292.796 296.129 315.174C296.129 315.929 296.146 316.7 296.179 317.472C281.988 310.896 270.904 318.311 270.904 335.102C270.904 352.967 283.466 374.708 298.967 383.649L415.987 451.134C427.625 457.844 437.064 452.409 437.064 438.989C437.064 425.552 427.625 409.23 415.987 402.52Z" fill="#D4ECFF"/>
<path d="M296.18 317.455C296.146 316.684 296.13 315.912 296.13 315.157C296.13 315.124 296.13 315.09 296.13 315.056C288.287 312.003 281.552 313.329 277.32 318.227C281.922 314.469 288.589 313.949 296.18 317.455Z" fill="white"/>
<path d="M417.702 400.843C415.166 399.383 412.748 398.528 410.497 398.175C407.139 380.562 394.879 361.858 380.252 353.42C375.852 350.887 371.67 349.528 367.874 349.243C365.876 327.906 351.013 303.632 332.977 293.232C320.885 286.254 310.221 287.16 303.906 294.239C310.338 288.736 320.213 288.535 331.264 294.91C349.3 305.31 364.163 329.566 366.161 350.921C369.957 351.206 374.139 352.565 378.539 355.098C393.166 363.535 405.442 382.239 408.784 399.853C411.035 400.205 413.453 401.061 415.989 402.52C427.627 409.23 437.065 425.552 437.065 438.972C437.065 443.82 435.823 447.594 433.707 450.161C436.864 447.728 438.778 443.333 438.778 437.294C438.778 423.875 429.34 407.553 417.702 400.843Z" fill="white"/>
<path d="M293.71 322.789L302.51 326.865L302.057 317.186C302.023 316.515 302.007 315.827 302.007 315.156C302.007 306.517 304.61 300.26 309.362 297.526C314.098 294.792 320.833 295.664 328.323 299.992C344.428 309.285 358.468 331.881 360.315 351.457L360.785 356.389L365.723 356.775C368.762 357.01 372.088 358.15 375.614 360.197C388.411 367.578 399.932 384.722 403.022 400.96L403.795 405.019L407.892 405.657C409.521 405.908 411.268 406.562 413.065 407.602C422.889 413.272 431.186 427.632 431.186 438.955C431.186 443.199 430.01 446.302 427.961 447.493C425.912 448.667 422.621 448.147 418.943 446.017L301.923 378.532C288.303 370.681 276.799 350.786 276.799 335.085C276.799 328.928 278.613 324.232 281.787 322.202C283.097 321.363 284.675 320.96 286.455 320.96C288.605 320.96 291.074 321.564 293.71 322.789Z" fill="#029EE1"/>
<path d="M352.119 396.061L355.192 394.501L352.153 392.203L352.119 396.061Z" fill="#4CC5F8"/>
<path d="M342.832 354.393L345.838 352.883L345.889 354.46L342.832 354.393Z" fill="#4CC5F8"/>
<path d="M360.92 386.315L364.044 384.739L358.031 379.035L360.92 386.315Z" fill="#4CC5F8"/>
<path d="M354.302 394.4L339.691 385.795C338.952 385.359 338.348 384.251 338.348 383.346L338.398 366.437L355.696 376.619L355.645 393.528C355.645 394.451 355.041 394.836 354.302 394.4Z" fill="#4CC5F8"/>
<path d="M345.805 352.9L330.018 363.048C329.347 363.484 329.884 365.078 330.908 365.682L347.031 375.16L363.153 384.638C364.177 385.241 364.715 384.268 364.06 383.061L348.391 354.409C347.702 353.185 346.493 352.463 345.805 352.9Z" fill="#4CC5F8"/>
<path d="M351.161 395.977L336.551 387.372C335.812 386.936 335.207 385.829 335.207 384.923L335.257 368.014L352.555 378.196L352.505 395.105C352.505 396.028 351.9 396.413 351.161 395.977Z" fill="#D4ECFF"/>
<path d="M342.664 354.477L326.878 364.625C326.206 365.062 326.743 366.655 327.768 367.259L343.89 376.737L360.012 386.215C361.037 386.819 361.574 385.846 360.919 384.638L345.25 355.986C344.562 354.762 343.353 354.041 342.664 354.477Z" fill="#D4ECFF"/>
<path d="M403.963 695.66H402.166V595.733L413.972 588.922V539.738H415.769V589.945L403.963 596.756V695.66Z" fill="white"/>
<path d="M119.977 717.249C118.935 717.249 117.894 716.981 116.954 716.444L84.3064 697.975C83.3155 697.421 82.7109 696.415 82.7109 695.274C82.7109 694.133 83.2987 693.11 84.2728 692.556L165.69 645.52C170.359 642.819 176.169 642.819 180.838 645.52L273.91 699.25L272.567 701.565L179.511 647.835C175.665 645.62 170.896 645.62 167.05 647.835L85.6163 694.871C85.4148 694.989 85.398 695.173 85.398 695.257C85.398 695.358 85.4316 695.542 85.6331 695.643L118.281 714.112C119.406 714.75 120.766 714.716 121.858 714.011L135.645 705.104L137.107 707.352L123.319 716.259C122.294 716.914 121.135 717.249 119.977 717.249Z" fill="#B2D3EA"/>
<path d="M162.482 724.378L118.599 699.065C115.912 697.505 116.248 694.804 119.355 693.01L161.726 668.569C164.833 666.774 169.535 666.572 172.239 668.132L216.122 693.446C218.809 695.006 218.473 697.706 215.366 699.501L172.995 723.942C169.871 725.737 165.169 725.922 162.482 724.378Z" fill="#B2D3EA"/>
<path d="M230.666 674.171V655.233L188.16 655.216L173.465 646.745C170.09 644.799 164.195 645.05 160.316 647.281L146.612 655.182L104.056 655.165V674.641C103.955 675.949 104.694 677.224 106.323 678.164L161.273 709.851C164.648 711.797 170.543 711.546 174.423 709.315L227.475 678.717C229.708 677.409 230.783 675.731 230.666 674.171Z" fill="#029EE1"/>
<path d="M167.353 645.437C164.885 645.504 162.332 646.124 160.3 647.282L146.596 655.183L104.04 655.166V674.642C103.94 675.95 104.678 677.225 106.307 678.164L161.257 709.852C162.87 710.791 165.086 711.211 167.37 711.16V645.437H167.353Z" fill="#029EE1"/>
<path d="M108.86 655.166H104.04V674.642C103.94 675.95 104.678 677.225 106.307 678.164L108.86 679.641V655.166Z" fill="#4CC5F8"/>
<path d="M162.096 710.272C165.001 711.513 169.216 711.446 172.609 710.154V688.045H162.096V710.272Z" fill="#4CC5F8"/>
<path d="M161.24 690.443L106.29 658.756C102.915 656.81 103.335 653.421 107.231 651.173L160.283 620.576C164.179 618.328 170.074 618.093 173.432 620.039L228.382 651.727C231.758 653.673 231.338 657.061 227.442 659.309L174.407 689.906C170.51 692.138 164.616 692.389 161.24 690.443Z" fill="#D4ECFF"/>
<path d="M162.232 684.74L116.183 658.185C113.361 656.558 113.714 653.706 116.972 651.827L161.425 626.179C164.683 624.3 169.621 624.099 172.459 625.726L218.508 652.28C221.329 653.907 220.977 656.759 217.719 658.638L173.265 684.287C169.99 686.165 165.07 686.367 162.232 684.74Z" fill="#4CC5F8"/>
<path d="M210.447 679.171C210.447 680.58 209.456 682.307 208.23 683.012C207.005 683.717 206.014 683.146 206.014 681.737C206.014 680.328 207.005 678.6 208.23 677.896C209.456 677.191 210.447 677.761 210.447 679.171Z" fill="#D4ECFF"/>
<path d="M217.602 675.061C217.602 676.47 216.611 678.198 215.385 678.902C214.159 679.607 213.168 679.037 213.168 677.627C213.168 676.218 214.159 674.491 215.385 673.786C216.594 673.065 217.602 673.635 217.602 675.061Z" fill="#D4ECFF"/>
<path d="M224.738 670.934C224.738 672.343 223.747 674.071 222.521 674.776C221.296 675.48 220.305 674.91 220.305 673.501C220.305 672.092 221.296 670.364 222.521 669.659C223.747 668.955 224.738 669.525 224.738 670.934Z" fill="#D4ECFF"/>
<path d="M230.667 643.91V624.971L188.161 624.954L173.466 616.483C170.091 614.537 164.196 614.789 160.317 617.02L146.613 624.921L104.04 624.904V644.379C103.94 645.688 104.678 646.963 106.307 647.902L161.257 679.59C164.633 681.536 170.528 681.284 174.407 679.053L227.459 648.456C229.709 647.147 230.784 645.47 230.667 643.91Z" fill="#029EE1"/>
<path d="M167.353 615.175C164.885 615.242 162.332 615.863 160.3 617.02L146.596 624.921L104.04 624.904V644.38C103.94 645.688 104.678 646.963 106.307 647.903L161.257 679.59C162.87 680.53 165.086 680.949 167.37 680.899V615.175H167.353Z" fill="#029EE1"/>
<path d="M108.86 624.904H104.04V644.38C103.94 645.688 104.678 646.963 106.307 647.903L108.86 649.379V624.904Z" fill="#4CC5F8"/>
<path d="M162.096 680.009C165.001 681.25 169.216 681.183 172.609 679.892V657.782H162.096V680.009Z" fill="#4CC5F8"/>
<path d="M161.24 660.181L106.29 628.494C102.915 626.548 103.335 623.159 107.231 620.912L160.283 590.314C164.179 588.066 170.074 587.832 173.432 589.778L228.382 621.465C231.758 623.411 231.338 626.8 227.442 629.047L174.407 659.645C170.51 661.876 164.616 662.127 161.24 660.181Z" fill="#D4ECFF"/>
<path d="M162.232 654.478L116.183 627.923C113.361 626.296 113.714 623.444 116.972 621.566L161.425 595.917C164.683 594.038 169.621 593.837 172.459 595.464L218.508 622.019C221.329 623.646 220.977 626.497 217.719 628.376L173.265 654.025C169.99 655.904 165.07 656.105 162.232 654.478Z" fill="#4CC5F8"/>
<path d="M210.447 648.909C210.447 650.318 209.456 652.046 208.23 652.75C207.005 653.455 206.014 652.884 206.014 651.475C206.014 650.066 207.005 648.339 208.23 647.634C209.456 646.929 210.447 647.5 210.447 648.909Z" fill="#D4ECFF"/>
<path d="M217.602 644.782C217.602 646.191 216.611 647.919 215.385 648.623C214.159 649.328 213.168 648.758 213.168 647.348C213.168 645.939 214.159 644.212 215.385 643.507C216.594 642.802 217.602 643.373 217.602 644.782Z" fill="#D4ECFF"/>
<path d="M224.738 640.673C224.738 642.082 223.747 643.809 222.521 644.514C221.296 645.218 220.305 644.648 220.305 643.239C220.305 641.83 221.296 640.102 222.521 639.398C223.747 638.693 224.738 639.263 224.738 640.673Z" fill="#D4ECFF"/>
<path d="M230.666 613.648V594.709L188.16 594.692L173.465 586.221C170.09 584.275 164.195 584.527 160.316 586.758L146.612 594.659L104.056 594.642V614.118C103.955 615.426 104.694 616.701 106.323 617.64L161.273 649.328C164.648 651.274 170.543 651.022 174.423 648.791L227.475 618.194C229.708 616.885 230.783 615.208 230.666 613.648Z" fill="#029EE1"/>
<path d="M167.353 584.913C164.885 584.98 162.332 585.601 160.3 586.758L146.596 594.659L104.04 594.642V614.118C103.94 615.427 104.678 616.701 106.307 617.641L161.257 649.328C162.87 650.268 165.086 650.687 167.37 650.637V584.913H167.353Z" fill="#029EE1"/>
<path d="M108.86 594.643H104.04V614.118C103.94 615.427 104.678 616.702 106.307 617.641L108.86 619.117V594.643Z" fill="#4CC5F8"/>
<path d="M162.096 649.731C165.001 650.972 169.216 650.905 172.609 649.613V627.504H162.096V649.731Z" fill="#4CC5F8"/>
<path d="M161.24 629.92L106.29 598.232C102.915 596.286 103.335 592.898 107.231 590.65L160.283 560.053C164.179 557.805 170.074 557.57 173.432 559.516L228.382 591.203C231.758 593.149 231.338 596.538 227.442 598.786L174.407 629.366C170.51 631.614 164.616 631.866 161.24 629.92Z" fill="#D4ECFF"/>
<path d="M227.459 595.045L174.407 625.642C170.511 627.89 164.616 628.125 161.257 626.179L106.308 594.491C105.552 594.055 104.998 593.552 104.628 592.998C103.469 594.86 103.99 596.873 106.308 598.215L161.257 629.903C164.633 631.849 170.528 631.597 174.407 629.366L227.459 598.769C230.482 597.024 231.406 594.592 230.079 592.68C229.558 593.535 228.685 594.34 227.459 595.045Z" fill="white"/>
<path d="M210.447 618.647C210.447 620.056 209.456 621.784 208.23 622.488C207.005 623.193 206.014 622.622 206.014 621.213C206.014 619.804 207.005 618.076 208.23 617.372C209.456 616.65 210.447 617.238 210.447 618.647Z" fill="#D4ECFF"/>
<path d="M217.602 614.52C217.602 615.929 216.611 617.657 215.385 618.362C214.159 619.066 213.168 618.496 213.168 617.087C213.168 615.678 214.159 613.95 215.385 613.245C216.594 612.541 217.602 613.111 217.602 614.52Z" fill="#D4ECFF"/>
<path d="M224.738 610.41C224.738 611.819 223.747 613.547 222.521 614.252C221.296 614.956 220.305 614.386 220.305 612.977C220.305 611.568 221.296 609.84 222.521 609.135C223.747 608.414 224.738 609.001 224.738 610.41Z" fill="#D4ECFF"/>
<path d="M164.499 610.276L138.788 595.447C137.209 594.541 137.411 592.948 139.224 591.891L164.046 577.565C165.86 576.508 168.631 576.408 170.209 577.313L195.921 592.142C197.499 593.048 197.298 594.642 195.484 595.699L170.663 610.024C168.832 611.064 166.078 611.182 164.499 610.276Z" fill="#4CC5F8"/>
<path d="M166.951 597.863L163.391 595.816C163.173 595.682 163.206 595.464 163.458 595.33L166.901 593.35C167.153 593.199 167.539 593.182 167.757 593.317L171.318 595.363C171.536 595.481 171.502 595.715 171.25 595.85L167.808 597.829C167.556 597.963 167.169 597.98 166.951 597.863Z" fill="#D4ECFF"/>
<path d="M138.788 595.447L138.855 595.481C138.972 595.397 139.09 595.313 139.224 595.229L164.046 580.904C165.86 579.847 168.631 579.746 170.209 580.652L195.854 595.431C197.315 594.391 197.382 592.981 195.921 592.126L170.209 577.297C168.631 576.391 165.876 576.509 164.046 577.549L139.224 591.874C137.411 592.948 137.209 594.542 138.788 595.447Z" fill="#029EE1"/>
<path d="M157.696 635.455C157.696 636.411 157.025 636.797 156.202 636.311C155.379 635.841 154.707 634.683 154.707 633.727C154.707 632.771 155.379 632.385 156.202 632.872C157.041 633.341 157.696 634.499 157.696 635.455Z" fill="#D4ECFF"/>
<path d="M153.077 632.805C153.077 633.761 152.405 634.147 151.583 633.66C150.76 633.19 150.088 632.033 150.088 631.077C150.088 630.121 150.76 629.735 151.583 630.221C152.405 630.691 153.077 631.848 153.077 632.805Z" fill="#D4ECFF"/>
<path d="M157.696 641.041C157.696 641.997 157.025 642.383 156.202 641.896C155.379 641.427 154.707 640.269 154.707 639.313C154.707 638.357 155.379 637.971 156.202 638.458C157.041 638.927 157.696 640.085 157.696 641.041Z" fill="#D4ECFF"/>
<path d="M153.077 638.391C153.077 639.347 152.405 639.733 151.583 639.246C150.76 638.776 150.088 637.619 150.088 636.663C150.088 635.707 150.76 635.321 151.583 635.807C152.405 636.277 153.077 637.434 153.077 638.391Z" fill="#D4ECFF"/>
<path d="M157.696 665.566C157.696 666.523 157.025 666.908 156.202 666.422C155.379 665.952 154.707 664.795 154.707 663.839C154.707 662.882 155.379 662.497 156.202 662.983C157.041 663.453 157.696 664.61 157.696 665.566Z" fill="#D4ECFF"/>
<path d="M153.077 662.916C153.077 663.872 152.405 664.258 151.583 663.771C150.76 663.302 150.088 662.144 150.088 661.188C150.088 660.232 150.76 659.846 151.583 660.333C152.405 660.802 153.077 661.96 153.077 662.916Z" fill="#D4ECFF"/>
<path d="M157.696 671.152C157.696 672.108 157.025 672.494 156.202 672.008C155.379 671.538 154.707 670.381 154.707 669.424C154.707 668.468 155.379 668.082 156.202 668.569C157.041 669.039 157.696 670.196 157.696 671.152Z" fill="#D4ECFF"/>
<path d="M153.077 668.502C153.077 669.458 152.405 669.844 151.583 669.357C150.76 668.888 150.088 667.73 150.088 666.774C150.088 665.818 150.76 665.432 151.583 665.919C152.405 666.388 153.077 667.546 153.077 668.502Z" fill="#D4ECFF"/>
<path d="M157.696 695.677C157.696 696.633 157.025 697.019 156.202 696.532C155.379 696.063 154.707 694.905 154.707 693.949C154.707 692.993 155.379 692.607 156.202 693.093C157.041 693.563 157.696 694.721 157.696 695.677Z" fill="#D4ECFF"/>
<path d="M153.077 693.026C153.077 693.982 152.405 694.368 151.583 693.882C150.76 693.412 150.088 692.255 150.088 691.298C150.088 690.342 150.76 689.956 151.583 690.443C152.405 690.913 153.077 692.07 153.077 693.026Z" fill="#D4ECFF"/>
<path d="M157.696 701.263C157.696 702.219 157.025 702.605 156.202 702.118C155.379 701.648 154.707 700.491 154.707 699.535C154.707 698.579 155.379 698.193 156.202 698.679C157.041 699.149 157.696 700.306 157.696 701.263Z" fill="#D4ECFF"/>
<path d="M153.077 698.612C153.077 699.568 152.405 699.954 151.583 699.468C150.76 698.998 150.088 697.841 150.088 696.884C150.088 695.928 150.76 695.542 151.583 696.029C152.405 696.499 153.077 697.656 153.077 698.612Z" fill="#D4ECFF"/>
<path d="M168.057 746.891C166.479 746.891 164.917 746.488 163.506 745.666L135.813 729.613C134.873 729.059 134.318 728.086 134.318 727.012C134.318 725.939 134.889 724.949 135.83 724.412L154.034 713.861L155.378 716.176L137.173 726.727C137.039 726.811 137.005 726.929 137.005 727.012C137.005 727.096 137.039 727.214 137.173 727.298L164.867 743.351C166.815 744.475 169.25 744.492 171.215 743.368L225.442 712.502C228.23 710.909 231.69 710.925 234.477 712.536L279.905 738.738C281.87 739.879 284.322 739.896 286.304 738.755L308.203 726.107L309.546 728.422L287.647 741.07C284.842 742.697 281.366 742.68 278.562 741.053L233.134 714.851C231.169 713.71 228.734 713.71 226.769 714.817L172.541 745.683C171.164 746.505 169.619 746.891 168.057 746.891Z" fill="#B2D3EA"/>
<path d="M408.597 849.015L364.715 823.702C362.027 822.142 362.363 819.441 365.47 817.646L407.841 793.205C410.948 791.41 415.651 791.209 418.354 792.769L462.237 818.082C464.924 819.642 464.588 822.343 461.481 824.138L419.11 848.579C415.986 850.374 411.284 850.558 408.597 849.015Z" fill="#B2D3EA"/>
<path d="M476.781 798.808V779.869L434.275 779.853L419.581 771.381C416.205 769.435 410.31 769.687 406.431 771.918L392.727 779.819L350.171 779.802V799.278C350.07 800.586 350.809 801.861 352.438 802.801L407.388 834.488C410.764 836.434 416.658 836.182 420.538 833.951L473.59 803.354C475.823 802.046 476.915 800.368 476.781 798.808Z" fill="#029EE1"/>
<path d="M413.467 770.073C410.998 770.14 408.445 770.761 406.413 771.918L392.709 779.819L350.154 779.803V799.278C350.053 800.587 350.792 801.862 352.421 802.801L407.371 834.489C408.983 835.428 411.2 835.847 413.484 835.797V770.073H413.467Z" fill="#029EE1"/>
<path d="M354.973 779.803H350.154V799.278C350.053 800.587 350.792 801.862 352.421 802.801L354.973 804.277V779.803Z" fill="#4CC5F8"/>
<path d="M408.211 834.907C411.116 836.149 415.332 836.082 418.724 834.79V812.681H408.211V834.907Z" fill="#4CC5F8"/>
<path d="M407.371 815.08L352.421 783.392C349.046 781.446 349.465 778.058 353.362 775.81L406.414 745.213C410.31 742.965 416.205 742.73 419.563 744.676L474.513 776.364C477.889 778.309 477.469 781.698 473.573 783.946L420.521 814.543C416.624 816.774 410.747 817.026 407.371 815.08Z" fill="#D4ECFF"/>
<path d="M408.362 809.376L362.313 782.822C359.492 781.195 359.845 778.343 363.103 776.464L407.556 750.815C410.814 748.937 415.752 748.735 418.59 750.362L464.639 776.917C467.46 778.544 467.108 781.396 463.85 783.275L419.396 808.923C416.121 810.802 411.184 811.003 408.362 809.376Z" fill="#4CC5F8"/>
<path d="M456.578 803.807C456.578 805.216 455.587 806.944 454.361 807.649C453.135 808.353 452.145 807.783 452.145 806.374C452.145 804.965 453.135 803.237 454.361 802.532C455.587 801.828 456.578 802.398 456.578 803.807Z" fill="#D4ECFF"/>
<path d="M463.715 799.681C463.715 801.09 462.724 802.818 461.498 803.523C460.272 804.227 459.281 803.657 459.281 802.248C459.281 800.839 460.272 799.111 461.498 798.406C462.724 797.702 463.715 798.272 463.715 799.681Z" fill="#D4ECFF"/>
<path d="M470.854 795.571C470.854 796.98 469.863 798.708 468.637 799.412C467.411 800.117 466.42 799.547 466.42 798.138C466.42 796.728 467.411 795.001 468.637 794.296C469.863 793.592 470.854 794.162 470.854 795.571Z" fill="#D4ECFF"/>
<path d="M476.781 768.546V749.608L434.275 749.591L419.581 741.119C416.205 739.174 410.31 739.425 406.431 741.656L392.727 749.557L350.171 749.54V769.016C350.07 770.325 350.809 771.599 352.438 772.539L407.388 804.227C410.764 806.172 416.658 805.921 420.538 803.69L473.59 773.092C475.823 771.784 476.915 770.106 476.781 768.546Z" fill="#029EE1"/>
<path d="M413.467 739.812C410.998 739.879 408.445 740.499 406.413 741.657L392.709 749.558L350.154 749.541V769.017C350.053 770.325 350.792 771.6 352.421 772.539L407.371 804.227C408.983 805.166 411.2 805.586 413.484 805.535V739.812H413.467Z" fill="#029EE1"/>
<path d="M354.973 749.541H350.154V769.017C350.053 770.325 350.792 771.6 352.421 772.539L354.973 774.015V749.541Z" fill="#4CC5F8"/>
<path d="M408.211 804.629C411.116 805.87 415.332 805.803 418.724 804.512V782.402H408.211V804.629Z" fill="#4CC5F8"/>
<path d="M407.371 784.818L352.421 753.131C349.046 751.185 349.465 747.796 353.362 745.548L406.414 714.951C410.31 712.703 416.205 712.468 419.563 714.414L474.513 746.102C477.889 748.048 477.469 751.436 473.573 753.684L420.521 784.281C416.624 786.512 410.747 786.764 407.371 784.818Z" fill="#D4ECFF"/>
<path d="M408.362 779.115L362.313 752.56C359.492 750.933 359.845 748.081 363.103 746.202L407.556 720.554C410.814 718.675 415.752 718.474 418.59 720.101L464.639 746.655C467.46 748.282 467.108 751.134 463.85 753.013L419.396 778.662C416.121 780.54 411.184 780.742 408.362 779.115Z" fill="#4CC5F8"/>
<path d="M456.578 773.545C456.578 774.954 455.587 776.682 454.361 777.387C453.135 778.091 452.145 777.521 452.145 776.112C452.145 774.703 453.135 772.975 454.361 772.27C455.587 771.549 456.578 772.136 456.578 773.545Z" fill="#D4ECFF"/>
<path d="M463.715 769.419C463.715 770.828 462.724 772.555 461.498 773.26C460.272 773.965 459.281 773.394 459.281 771.985C459.281 770.576 460.272 768.848 461.498 768.144C462.724 767.439 463.715 768.01 463.715 769.419Z" fill="#D4ECFF"/>
<path d="M470.854 765.309C470.854 766.718 469.863 768.446 468.637 769.15C467.411 769.855 466.42 769.284 466.42 767.875C466.42 766.466 467.411 764.738 468.637 764.034C469.863 763.313 470.854 763.9 470.854 765.309Z" fill="#D4ECFF"/>
<path d="M476.781 738.285V719.346L434.275 719.329L419.581 710.858C416.205 708.912 410.31 709.163 406.431 711.395L392.727 719.296L350.171 719.279V738.754C350.07 740.063 350.809 741.338 352.438 742.277L407.388 773.965C410.764 775.911 416.658 775.659 420.538 773.428L473.59 742.831C475.823 741.522 476.915 739.845 476.781 738.285Z" fill="#029EE1"/>
<path d="M413.467 709.55C410.998 709.617 408.445 710.238 406.413 711.395L392.709 719.296L350.154 719.279V738.755C350.053 740.063 350.792 741.338 352.421 742.277L407.371 773.965C408.983 774.905 411.2 775.324 413.484 775.274V709.55H413.467Z" fill="#029EE1"/>
<path d="M354.973 719.279H350.154V738.755C350.053 740.063 350.792 741.338 352.421 742.278L354.973 743.754V719.279Z" fill="#4CC5F8"/>
<path d="M408.211 774.367C411.116 775.609 415.332 775.541 418.724 774.25V752.141H408.211V774.367Z" fill="#4CC5F8"/>
<path d="M407.371 754.556L352.421 722.869C349.046 720.923 349.465 717.534 353.362 715.287L406.414 684.689C410.31 682.441 416.205 682.207 419.563 684.152L474.53 715.823C477.906 717.769 477.486 721.158 473.589 723.406L420.537 754.003C416.624 756.251 410.747 756.502 407.371 754.556Z" fill="#D4ECFF"/>
<path d="M473.572 719.682L420.52 750.279C416.624 752.527 410.729 752.762 407.371 750.816L352.421 719.128C351.665 718.692 351.111 718.189 350.741 717.635C349.583 719.497 350.103 721.51 352.421 722.852L407.371 754.54C410.746 756.486 416.641 756.234 420.52 754.003L473.572 723.406C476.595 721.661 477.519 719.229 476.192 717.316C475.672 718.172 474.798 718.977 473.572 719.682Z" fill="white"/>
<path d="M456.578 743.284C456.578 744.693 455.587 746.42 454.361 747.125C453.135 747.83 452.145 747.259 452.145 745.85C452.145 744.441 453.135 742.713 454.361 742.009C455.587 741.287 456.578 741.858 456.578 743.284Z" fill="#D4ECFF"/>
<path d="M463.715 739.157C463.715 740.566 462.724 742.294 461.498 742.998C460.272 743.703 459.281 743.133 459.281 741.723C459.281 740.314 460.272 738.587 461.498 737.882C462.724 737.177 463.715 737.748 463.715 739.157Z" fill="#D4ECFF"/>
<path d="M470.854 735.047C470.854 736.456 469.863 738.184 468.637 738.889C467.411 739.593 466.42 739.023 466.42 737.614C466.42 736.205 467.411 734.477 468.637 733.772C469.863 733.051 470.854 733.638 470.854 735.047Z" fill="#D4ECFF"/>
<path d="M410.613 734.913L384.901 720.084C383.322 719.178 383.524 717.584 385.338 716.527L410.159 702.202C411.973 701.145 414.744 701.044 416.322 701.95L442.034 716.779C443.613 717.685 443.411 719.279 441.597 720.335L416.776 734.661C414.945 735.701 412.191 735.819 410.613 734.913Z" fill="#4CC5F8"/>
<path d="M413.082 722.499L409.522 720.453C409.303 720.319 409.337 720.1 409.589 719.966L413.032 717.987C413.284 717.836 413.67 717.819 413.888 717.953L417.448 720C417.667 720.134 417.633 720.352 417.381 720.486L413.938 722.466C413.687 722.6 413.3 722.617 413.082 722.499Z" fill="#D4ECFF"/>
<path d="M384.901 720.084L384.968 720.118C385.086 720.034 385.203 719.95 385.338 719.866L410.159 705.54C411.99 704.483 414.744 704.383 416.322 705.289L441.967 720.067C443.428 719.027 443.495 717.618 442.034 716.763L416.322 701.934C414.744 701.028 411.99 701.145 410.159 702.185L385.338 716.511C383.524 717.585 383.322 719.161 384.901 720.084Z" fill="#029EE1"/>
<path d="M329.044 415.789C329.044 416.745 328.372 417.131 327.549 416.645C326.726 416.175 326.055 415.017 326.055 414.061C326.055 413.105 326.726 412.719 327.549 413.206C328.372 413.675 329.044 414.833 329.044 415.789Z" fill="#D4ECFF"/>
<path d="M342.194 423.757C342.194 424.713 341.523 425.099 340.7 424.612C339.877 424.143 339.205 422.985 339.205 422.029C339.205 421.073 339.877 420.687 340.7 421.173C341.523 421.643 342.194 422.801 342.194 423.757Z" fill="#D4ECFF"/>
<path d="M355.343 431.725C355.343 432.681 354.671 433.067 353.848 432.58C353.025 432.11 352.354 430.953 352.354 429.997C352.354 429.041 353.025 428.655 353.848 429.141C354.671 429.611 355.343 430.768 355.343 431.725Z" fill="#D4ECFF"/>
<path d="M368.511 439.693C368.511 440.649 367.839 441.035 367.016 440.549C366.193 440.079 365.521 438.922 365.521 437.965C365.521 437.009 366.193 436.623 367.016 437.11C367.839 437.58 368.511 438.737 368.511 439.693Z" fill="#D4ECFF"/>
<path d="M338.197 431.692C338.197 432.43 337.592 433.034 336.853 433.034C336.114 433.034 335.51 432.43 335.51 431.692C335.51 430.954 336.114 430.35 336.853 430.35C337.609 430.35 338.197 430.954 338.197 431.692Z" fill="#D4ECFF"/>
<path d="M350.474 439.022C350.474 439.76 349.87 440.364 349.131 440.364C348.392 440.364 347.787 439.76 347.787 439.022C347.787 438.284 348.392 437.68 349.131 437.68C349.87 437.68 350.474 438.284 350.474 439.022Z" fill="#D4ECFF"/>
<path d="M361.39 447.711C362.132 447.711 362.734 447.11 362.734 446.369C362.734 445.628 362.132 445.027 361.39 445.027C360.648 445.027 360.047 445.628 360.047 446.369C360.047 447.11 360.648 447.711 361.39 447.711Z" fill="#D4ECFF"/>
<path d="M374.992 453.414C374.992 454.152 374.387 454.756 373.648 454.756C372.909 454.756 372.305 454.152 372.305 453.414C372.305 452.676 372.909 452.072 373.648 452.072C374.404 452.072 374.992 452.676 374.992 453.414Z" fill="#D4ECFF"/>
</g>
<defs>
<filter id="filter0_d_2119_5410" x="0" y="497.512" width="57.2344" height="65.7549" filterUnits="userSpaceOnUse" color-interpolation-filters="sRGB">
<feFlood flood-opacity="0" result="BackgroundImageFix"/>
<feColorMatrix in="SourceAlpha" type="matrix" values="0 0 0 0 0 0 0 0 0 0 0 0 0 0 0 0 0 0 127 0" result="hardAlpha"/>
<feOffset dy="7"/>
<feGaussianBlur stdDeviation="7.5"/>
<feComposite in2="hardAlpha" operator="out"/>
<feColorMatrix type="matrix" values="0 0 0 0 0.11125 0 0 0 0 0.424717 0 0 0 0 0.741667 0 0 0 0.35 0"/>
<feBlend mode="normal" in2="BackgroundImageFix" result="effect1_dropShadow_2119_5410"/>
<feBlend mode="normal" in="SourceGraphic" in2="effect1_dropShadow_2119_5410" result="shape"/>
</filter>
<filter id="filter1_f_2119_5410" x="325.176" y="-261" width="790" height="789" filterUnits="userSpaceOnUse" color-interpolation-filters="sRGB">
<feFlood flood-opacity="0" result="BackgroundImageFix"/>
<feBlend mode="normal" in="SourceGraphic" in2="BackgroundImageFix" result="shape"/>
<feGaussianBlur stdDeviation="150" result="effect1_foregroundBlur_2119_5410"/>
</filter>
<filter id="filter2_d_2119_5410" x="683.176" y="439" width="69" height="56" filterUnits="userSpaceOnUse" color-interpolation-filters="sRGB">
<feFlood flood-opacity="0" result="BackgroundImageFix"/>
<feColorMatrix in="SourceAlpha" type="matrix" values="0 0 0 0 0 0 0 0 0 0 0 0 0 0 0 0 0 0 127 0" result="hardAlpha"/>
<feOffset dy="7"/>
<feGaussianBlur stdDeviation="7.5"/>
<feComposite in2="hardAlpha" operator="out"/>
<feColorMatrix type="matrix" values="0 0 0 0 0.11125 0 0 0 0 0.424717 0 0 0 0 0.741667 0 0 0 0.35 0"/>
<feBlend mode="normal" in2="BackgroundImageFix" result="effect1_dropShadow_2119_5410"/>
<feBlend mode="normal" in="SourceGraphic" in2="effect1_dropShadow_2119_5410" result="shape"/>
</filter>
<filter id="filter3_d_2119_5410" x="165.682" y="208.768" width="55.2148" height="61.5078" filterUnits="userSpaceOnUse" color-interpolation-filters="sRGB">
<feFlood flood-opacity="0" result="BackgroundImageFix"/>
<feColorMatrix in="SourceAlpha" type="matrix" values="0 0 0 0 0 0 0 0 0 0 0 0 0 0 0 0 0 0 127 0" result="hardAlpha"/>
<feOffset dy="7"/>
<feGaussianBlur stdDeviation="7.5"/>
<feComposite in2="hardAlpha" operator="out"/>
<feColorMatrix type="matrix" values="0 0 0 0 0.11125 0 0 0 0 0.424717 0 0 0 0 0.741667 0 0 0 0.35 0"/>
<feBlend mode="normal" in2="BackgroundImageFix" result="effect1_dropShadow_2119_5410"/>
<feBlend mode="normal" in="SourceGraphic" in2="effect1_dropShadow_2119_5410" result="shape"/>
</filter>
<filter id="filter4_d_2119_5410" x="658.441" y="617.457" width="64.6465" height="56.5811" filterUnits="userSpaceOnUse" color-interpolation-filters="sRGB">
<feFlood flood-opacity="0" result="BackgroundImageFix"/>
<feColorMatrix in="SourceAlpha" type="matrix" values="0 0 0 0 0 0 0 0 0 0 0 0 0 0 0 0 0 0 127 0" result="hardAlpha"/>
<feOffset dy="7"/>
<feGaussianBlur stdDeviation="7.5"/>
<feComposite in2="hardAlpha" operator="out"/>
<feColorMatrix type="matrix" values="0 0 0 0 0.11125 0 0 0 0 0.424717 0 0 0 0 0.741667 0 0 0 0.35 0"/>
<feBlend mode="normal" in2="BackgroundImageFix" result="effect1_dropShadow_2119_5410"/>
<feBlend mode="normal" in="SourceGraphic" in2="effect1_dropShadow_2119_5410" result="shape"/>
</filter>
<filter id="filter5_d_2119_5410" x="662.561" y="613.409" width="64.6123" height="56.5508" filterUnits="userSpaceOnUse" color-interpolation-filters="sRGB">
<feFlood flood-opacity="0" result="BackgroundImageFix"/>
<feColorMatrix in="SourceAlpha" type="matrix" values="0 0 0 0 0 0 0 0 0 0 0 0 0 0 0 0 0 0 127 0" result="hardAlpha"/>
<feOffset dy="7"/>
<feGaussianBlur stdDeviation="7.5"/>
<feComposite in2="hardAlpha" operator="out"/>
<feColorMatrix type="matrix" values="0 0 0 0 0.11125 0 0 0 0 0.424717 0 0 0 0 0.741667 0 0 0 0.35 0"/>
<feBlend mode="normal" in2="BackgroundImageFix" result="effect1_dropShadow_2119_5410"/>
<feBlend mode="normal" in="SourceGraphic" in2="effect1_dropShadow_2119_5410" result="shape"/>
</filter>
<filter id="filter6_d_2119_5410" x="611.801" y="244.586" width="59.166" height="68.291" filterUnits="userSpaceOnUse" color-interpolation-filters="sRGB">
<feFlood flood-opacity="0" result="BackgroundImageFix"/>
<feColorMatrix in="SourceAlpha" type="matrix" values="0 0 0 0 0 0 0 0 0 0 0 0 0 0 0 0 0 0 127 0" result="hardAlpha"/>
<feOffset dy="7"/>
<feGaussianBlur stdDeviation="7.5"/>
<feComposite in2="hardAlpha" operator="out"/>
<feColorMatrix type="matrix" values="0 0 0 0 0.11125 0 0 0 0 0.424717 0 0 0 0 0.741667 0 0 0 0.35 0"/>
<feBlend mode="normal" in2="BackgroundImageFix" result="effect1_dropShadow_2119_5410"/>
<feBlend mode="normal" in="SourceGraphic" in2="effect1_dropShadow_2119_5410" result="shape"/>
</filter>
<clipPath id="clip0_2119_5410">
<rect width="475" height="597" fill="white" transform="translate(82.7109 278)"/>
</clipPath>
</defs>
</svg>
