<svg width="11" height="11" viewBox="0 0 11 11" fill="none" xmlns="http://www.w3.org/2000/svg">
<path d="M10.428 0.802567C9.94063 0.540147 9.39705 1.04624 9.0784 1.34615C8.3474 2.05843 7.72884 2.88318 7.03527 3.63295C6.26676 4.4577 5.55448 5.28245 4.76722 6.08848C4.31736 6.53834 3.83 7.02569 3.5301 7.58802C2.8553 6.93194 2.27423 6.21966 1.52446 5.63862C0.980878 5.22624 0.0811534 4.92634 0.0998976 5.91978C0.137386 7.21317 1.28079 8.60024 2.12428 9.48119C2.48042 9.85608 2.94902 10.2497 3.49261 10.2684C4.14866 10.3059 4.82345 9.51868 5.21708 9.08756C5.91065 8.33779 6.47298 7.49427 7.11025 6.72578C7.935 5.71359 8.77849 4.72012 9.58449 3.68918C10.0906 3.05188 11.6838 1.47733 10.428 0.802567ZM0.924614 5.8448C0.90587 5.8448 0.887126 5.8448 0.849637 5.86352C0.77466 5.8448 0.718428 5.82603 0.64345 5.78854C0.699683 5.75105 0.793405 5.7698 0.924614 5.8448Z" fill="white"/>
</svg>
